<?xml version="1.0" encoding="utf-8" standalone="no"?>
<!DOCTYPE svg PUBLIC "-//W3C//DTD SVG 1.1//EN"
  "http://www.w3.org/Graphics/SVG/1.1/DTD/svg11.dtd">
<svg xmlns:xlink="http://www.w3.org/1999/xlink" width="583.2pt" height="340.2pt" viewBox="0 0 583.2 340.2" xmlns="http://www.w3.org/2000/svg" version="1.1">
 <metadata>
  <rdf:RDF xmlns:dc="http://purl.org/dc/elements/1.1/" xmlns:cc="http://creativecommons.org/ns#" xmlns:rdf="http://www.w3.org/1999/02/22-rdf-syntax-ns#">
   <cc:Work>
    <dc:type rdf:resource="http://purl.org/dc/dcmitype/StillImage"/>
    <dc:date>2024-06-30T11:17:08.905757</dc:date>
    <dc:format>image/svg+xml</dc:format>
    <dc:creator>
     <cc:Agent>
      <dc:title>Matplotlib v3.5.1, https://matplotlib.org/</dc:title>
     </cc:Agent>
    </dc:creator>
   </cc:Work>
  </rdf:RDF>
 </metadata>
 <defs>
  <style type="text/css">*{stroke-linejoin: round; stroke-linecap: butt}</style>
 </defs>
 <g id="figure_1">
  <g id="patch_1">
   <path d="M 0 340.2 
L 583.2 340.2 
L 583.2 0 
L 0 0 
z
" style="fill: #ffffff"/>
  </g>
  <g id="axes_1">
   <g id="patch_2">
    <path d="M 72.9 302.778 
L 524.88 302.778 
L 524.88 40.824 
L 72.9 40.824 
L 72.9 302.778 
z
" style="fill: none; opacity: 0"/>
   </g>
   <g id="matplotlib.axis_1">
    <g id="xtick_1">
     <g id="line2d_1">
      <path d="M 89.846933 302.778 
L 89.846933 40.824 
" clip-path="url(#p58028b3266)" style="fill: none; stroke: #e6e6e6; stroke-width: 0.8; stroke-linecap: square"/>
     </g>
     <g id="line2d_2">
      <defs>
       <path id="m52beac3f41" d="M 0 0 
L 0 3.5 
" style="stroke: #000000; stroke-width: 0.8"/>
      </defs>
      <g>
       <use xlink:href="#m52beac3f41" x="89.846933" y="302.778" style="stroke: #000000; stroke-width: 0.8"/>
      </g>
     </g>
     <g id="text_1">
      <!-- 2014 -->
      <g transform="translate(77.121933 317.376438)scale(0.1 -0.1)">
       <defs>
        <path id="DejaVuSans-32" d="M 1228 531 
L 3431 531 
L 3431 0 
L 469 0 
L 469 531 
Q 828 903 1448 1529 
Q 2069 2156 2228 2338 
Q 2531 2678 2651 2914 
Q 2772 3150 2772 3378 
Q 2772 3750 2511 3984 
Q 2250 4219 1831 4219 
Q 1534 4219 1204 4116 
Q 875 4013 500 3803 
L 500 4441 
Q 881 4594 1212 4672 
Q 1544 4750 1819 4750 
Q 2544 4750 2975 4387 
Q 3406 4025 3406 3419 
Q 3406 3131 3298 2873 
Q 3191 2616 2906 2266 
Q 2828 2175 2409 1742 
Q 1991 1309 1228 531 
z
" transform="scale(0.015625)"/>
        <path id="DejaVuSans-30" d="M 2034 4250 
Q 1547 4250 1301 3770 
Q 1056 3291 1056 2328 
Q 1056 1369 1301 889 
Q 1547 409 2034 409 
Q 2525 409 2770 889 
Q 3016 1369 3016 2328 
Q 3016 3291 2770 3770 
Q 2525 4250 2034 4250 
z
M 2034 4750 
Q 2819 4750 3233 4129 
Q 3647 3509 3647 2328 
Q 3647 1150 3233 529 
Q 2819 -91 2034 -91 
Q 1250 -91 836 529 
Q 422 1150 422 2328 
Q 422 3509 836 4129 
Q 1250 4750 2034 4750 
z
" transform="scale(0.015625)"/>
        <path id="DejaVuSans-31" d="M 794 531 
L 1825 531 
L 1825 4091 
L 703 3866 
L 703 4441 
L 1819 4666 
L 2450 4666 
L 2450 531 
L 3481 531 
L 3481 0 
L 794 0 
L 794 531 
z
" transform="scale(0.015625)"/>
        <path id="DejaVuSans-34" d="M 2419 4116 
L 825 1625 
L 2419 1625 
L 2419 4116 
z
M 2253 4666 
L 3047 4666 
L 3047 1625 
L 3713 1625 
L 3713 1100 
L 3047 1100 
L 3047 0 
L 2419 0 
L 2419 1100 
L 313 1100 
L 313 1709 
L 2253 4666 
z
" transform="scale(0.015625)"/>
       </defs>
       <use xlink:href="#DejaVuSans-32"/>
       <use xlink:href="#DejaVuSans-30" x="63.623047"/>
       <use xlink:href="#DejaVuSans-31" x="127.246094"/>
       <use xlink:href="#DejaVuSans-34" x="190.869141"/>
      </g>
     </g>
    </g>
    <g id="xtick_2">
     <g id="line2d_3">
      <path d="M 169.430474 302.778 
L 169.430474 40.824 
" clip-path="url(#p58028b3266)" style="fill: none; stroke: #e6e6e6; stroke-width: 0.8; stroke-linecap: square"/>
     </g>
     <g id="line2d_4">
      <g>
       <use xlink:href="#m52beac3f41" x="169.430474" y="302.778" style="stroke: #000000; stroke-width: 0.8"/>
      </g>
     </g>
     <g id="text_2">
      <!-- 2016 -->
      <g transform="translate(156.705474 317.376438)scale(0.1 -0.1)">
       <defs>
        <path id="DejaVuSans-36" d="M 2113 2584 
Q 1688 2584 1439 2293 
Q 1191 2003 1191 1497 
Q 1191 994 1439 701 
Q 1688 409 2113 409 
Q 2538 409 2786 701 
Q 3034 994 3034 1497 
Q 3034 2003 2786 2293 
Q 2538 2584 2113 2584 
z
M 3366 4563 
L 3366 3988 
Q 3128 4100 2886 4159 
Q 2644 4219 2406 4219 
Q 1781 4219 1451 3797 
Q 1122 3375 1075 2522 
Q 1259 2794 1537 2939 
Q 1816 3084 2150 3084 
Q 2853 3084 3261 2657 
Q 3669 2231 3669 1497 
Q 3669 778 3244 343 
Q 2819 -91 2113 -91 
Q 1303 -91 875 529 
Q 447 1150 447 2328 
Q 447 3434 972 4092 
Q 1497 4750 2381 4750 
Q 2619 4750 2861 4703 
Q 3103 4656 3366 4563 
z
" transform="scale(0.015625)"/>
       </defs>
       <use xlink:href="#DejaVuSans-32"/>
       <use xlink:href="#DejaVuSans-30" x="63.623047"/>
       <use xlink:href="#DejaVuSans-31" x="127.246094"/>
       <use xlink:href="#DejaVuSans-36" x="190.869141"/>
      </g>
     </g>
    </g>
    <g id="xtick_3">
     <g id="line2d_5">
      <path d="M 249.123033 302.778 
L 249.123033 40.824 
" clip-path="url(#p58028b3266)" style="fill: none; stroke: #e6e6e6; stroke-width: 0.8; stroke-linecap: square"/>
     </g>
     <g id="line2d_6">
      <g>
       <use xlink:href="#m52beac3f41" x="249.123033" y="302.778" style="stroke: #000000; stroke-width: 0.8"/>
      </g>
     </g>
     <g id="text_3">
      <!-- 2018 -->
      <g transform="translate(236.398033 317.376438)scale(0.1 -0.1)">
       <defs>
        <path id="DejaVuSans-38" d="M 2034 2216 
Q 1584 2216 1326 1975 
Q 1069 1734 1069 1313 
Q 1069 891 1326 650 
Q 1584 409 2034 409 
Q 2484 409 2743 651 
Q 3003 894 3003 1313 
Q 3003 1734 2745 1975 
Q 2488 2216 2034 2216 
z
M 1403 2484 
Q 997 2584 770 2862 
Q 544 3141 544 3541 
Q 544 4100 942 4425 
Q 1341 4750 2034 4750 
Q 2731 4750 3128 4425 
Q 3525 4100 3525 3541 
Q 3525 3141 3298 2862 
Q 3072 2584 2669 2484 
Q 3125 2378 3379 2068 
Q 3634 1759 3634 1313 
Q 3634 634 3220 271 
Q 2806 -91 2034 -91 
Q 1263 -91 848 271 
Q 434 634 434 1313 
Q 434 1759 690 2068 
Q 947 2378 1403 2484 
z
M 1172 3481 
Q 1172 3119 1398 2916 
Q 1625 2713 2034 2713 
Q 2441 2713 2670 2916 
Q 2900 3119 2900 3481 
Q 2900 3844 2670 4047 
Q 2441 4250 2034 4250 
Q 1625 4250 1398 4047 
Q 1172 3844 1172 3481 
z
" transform="scale(0.015625)"/>
       </defs>
       <use xlink:href="#DejaVuSans-32"/>
       <use xlink:href="#DejaVuSans-30" x="63.623047"/>
       <use xlink:href="#DejaVuSans-31" x="127.246094"/>
       <use xlink:href="#DejaVuSans-38" x="190.869141"/>
      </g>
     </g>
    </g>
    <g id="xtick_4">
     <g id="line2d_7">
      <path d="M 328.706573 302.778 
L 328.706573 40.824 
" clip-path="url(#p58028b3266)" style="fill: none; stroke: #e6e6e6; stroke-width: 0.8; stroke-linecap: square"/>
     </g>
     <g id="line2d_8">
      <g>
       <use xlink:href="#m52beac3f41" x="328.706573" y="302.778" style="stroke: #000000; stroke-width: 0.8"/>
      </g>
     </g>
     <g id="text_4">
      <!-- 2020 -->
      <g transform="translate(315.981573 317.376438)scale(0.1 -0.1)">
       <use xlink:href="#DejaVuSans-32"/>
       <use xlink:href="#DejaVuSans-30" x="63.623047"/>
       <use xlink:href="#DejaVuSans-32" x="127.246094"/>
       <use xlink:href="#DejaVuSans-30" x="190.869141"/>
      </g>
     </g>
    </g>
    <g id="xtick_5">
     <g id="line2d_9">
      <path d="M 408.399132 302.778 
L 408.399132 40.824 
" clip-path="url(#p58028b3266)" style="fill: none; stroke: #e6e6e6; stroke-width: 0.8; stroke-linecap: square"/>
     </g>
     <g id="line2d_10">
      <g>
       <use xlink:href="#m52beac3f41" x="408.399132" y="302.778" style="stroke: #000000; stroke-width: 0.8"/>
      </g>
     </g>
     <g id="text_5">
      <!-- 2022 -->
      <g transform="translate(395.674132 317.376438)scale(0.1 -0.1)">
       <use xlink:href="#DejaVuSans-32"/>
       <use xlink:href="#DejaVuSans-30" x="63.623047"/>
       <use xlink:href="#DejaVuSans-32" x="127.246094"/>
       <use xlink:href="#DejaVuSans-32" x="190.869141"/>
      </g>
     </g>
    </g>
    <g id="xtick_6">
     <g id="line2d_11">
      <path d="M 487.982672 302.778 
L 487.982672 40.824 
" clip-path="url(#p58028b3266)" style="fill: none; stroke: #e6e6e6; stroke-width: 0.8; stroke-linecap: square"/>
     </g>
     <g id="line2d_12">
      <g>
       <use xlink:href="#m52beac3f41" x="487.982672" y="302.778" style="stroke: #000000; stroke-width: 0.8"/>
      </g>
     </g>
     <g id="text_6">
      <!-- 2024 -->
      <g transform="translate(475.257672 317.376438)scale(0.1 -0.1)">
       <use xlink:href="#DejaVuSans-32"/>
       <use xlink:href="#DejaVuSans-30" x="63.623047"/>
       <use xlink:href="#DejaVuSans-32" x="127.246094"/>
       <use xlink:href="#DejaVuSans-34" x="190.869141"/>
      </g>
     </g>
    </g>
    <g id="text_7">
     <!-- Date -->
     <g transform="translate(286.939219 331.054562)scale(0.1 -0.1)">
      <defs>
       <path id="DejaVuSans-44" d="M 1259 4147 
L 1259 519 
L 2022 519 
Q 2988 519 3436 956 
Q 3884 1394 3884 2338 
Q 3884 3275 3436 3711 
Q 2988 4147 2022 4147 
L 1259 4147 
z
M 628 4666 
L 1925 4666 
Q 3281 4666 3915 4102 
Q 4550 3538 4550 2338 
Q 4550 1131 3912 565 
Q 3275 0 1925 0 
L 628 0 
L 628 4666 
z
" transform="scale(0.015625)"/>
       <path id="DejaVuSans-61" d="M 2194 1759 
Q 1497 1759 1228 1600 
Q 959 1441 959 1056 
Q 959 750 1161 570 
Q 1363 391 1709 391 
Q 2188 391 2477 730 
Q 2766 1069 2766 1631 
L 2766 1759 
L 2194 1759 
z
M 3341 1997 
L 3341 0 
L 2766 0 
L 2766 531 
Q 2569 213 2275 61 
Q 1981 -91 1556 -91 
Q 1019 -91 701 211 
Q 384 513 384 1019 
Q 384 1609 779 1909 
Q 1175 2209 1959 2209 
L 2766 2209 
L 2766 2266 
Q 2766 2663 2505 2880 
Q 2244 3097 1772 3097 
Q 1472 3097 1187 3025 
Q 903 2953 641 2809 
L 641 3341 
Q 956 3463 1253 3523 
Q 1550 3584 1831 3584 
Q 2591 3584 2966 3190 
Q 3341 2797 3341 1997 
z
" transform="scale(0.015625)"/>
       <path id="DejaVuSans-74" d="M 1172 4494 
L 1172 3500 
L 2356 3500 
L 2356 3053 
L 1172 3053 
L 1172 1153 
Q 1172 725 1289 603 
Q 1406 481 1766 481 
L 2356 481 
L 2356 0 
L 1766 0 
Q 1100 0 847 248 
Q 594 497 594 1153 
L 594 3053 
L 172 3053 
L 172 3500 
L 594 3500 
L 594 4494 
L 1172 4494 
z
" transform="scale(0.015625)"/>
       <path id="DejaVuSans-65" d="M 3597 1894 
L 3597 1613 
L 953 1613 
Q 991 1019 1311 708 
Q 1631 397 2203 397 
Q 2534 397 2845 478 
Q 3156 559 3463 722 
L 3463 178 
Q 3153 47 2828 -22 
Q 2503 -91 2169 -91 
Q 1331 -91 842 396 
Q 353 884 353 1716 
Q 353 2575 817 3079 
Q 1281 3584 2069 3584 
Q 2775 3584 3186 3129 
Q 3597 2675 3597 1894 
z
M 3022 2063 
Q 3016 2534 2758 2815 
Q 2500 3097 2075 3097 
Q 1594 3097 1305 2825 
Q 1016 2553 972 2059 
L 3022 2063 
z
" transform="scale(0.015625)"/>
      </defs>
      <use xlink:href="#DejaVuSans-44"/>
      <use xlink:href="#DejaVuSans-61" x="77.001953"/>
      <use xlink:href="#DejaVuSans-74" x="138.28125"/>
      <use xlink:href="#DejaVuSans-65" x="177.490234"/>
     </g>
    </g>
   </g>
   <g id="matplotlib.axis_2">
    <g id="ytick_1">
     <g id="line2d_13">
      <path d="M 72.9 293.294114 
L 524.88 293.294114 
" clip-path="url(#p58028b3266)" style="fill: none; stroke: #e6e6e6; stroke-width: 0.8; stroke-linecap: square"/>
     </g>
     <g id="line2d_14">
      <defs>
       <path id="m4e074a918b" d="M 0 0 
L -3.5 0 
" style="stroke: #000000; stroke-width: 0.8"/>
      </defs>
      <g>
       <use xlink:href="#m4e074a918b" x="72.9" y="293.294114" style="stroke: #000000; stroke-width: 0.8"/>
      </g>
     </g>
     <g id="text_8">
      <!-- 0.0 -->
      <g transform="translate(49.996875 297.093333)scale(0.1 -0.1)">
       <defs>
        <path id="DejaVuSans-2e" d="M 684 794 
L 1344 794 
L 1344 0 
L 684 0 
L 684 794 
z
" transform="scale(0.015625)"/>
       </defs>
       <use xlink:href="#DejaVuSans-30"/>
       <use xlink:href="#DejaVuSans-2e" x="63.623047"/>
       <use xlink:href="#DejaVuSans-30" x="95.410156"/>
      </g>
     </g>
    </g>
    <g id="ytick_2">
     <g id="line2d_15">
      <path d="M 72.9 240.550486 
L 524.88 240.550486 
" clip-path="url(#p58028b3266)" style="fill: none; stroke: #e6e6e6; stroke-width: 0.8; stroke-linecap: square"/>
     </g>
     <g id="line2d_16">
      <g>
       <use xlink:href="#m4e074a918b" x="72.9" y="240.550486" style="stroke: #000000; stroke-width: 0.8"/>
      </g>
     </g>
     <g id="text_9">
      <!-- 0.2 -->
      <g transform="translate(49.996875 244.349705)scale(0.1 -0.1)">
       <use xlink:href="#DejaVuSans-30"/>
       <use xlink:href="#DejaVuSans-2e" x="63.623047"/>
       <use xlink:href="#DejaVuSans-32" x="95.410156"/>
      </g>
     </g>
    </g>
    <g id="ytick_3">
     <g id="line2d_17">
      <path d="M 72.9 187.806858 
L 524.88 187.806858 
" clip-path="url(#p58028b3266)" style="fill: none; stroke: #e6e6e6; stroke-width: 0.8; stroke-linecap: square"/>
     </g>
     <g id="line2d_18">
      <g>
       <use xlink:href="#m4e074a918b" x="72.9" y="187.806858" style="stroke: #000000; stroke-width: 0.8"/>
      </g>
     </g>
     <g id="text_10">
      <!-- 0.4 -->
      <g transform="translate(49.996875 191.606077)scale(0.1 -0.1)">
       <use xlink:href="#DejaVuSans-30"/>
       <use xlink:href="#DejaVuSans-2e" x="63.623047"/>
       <use xlink:href="#DejaVuSans-34" x="95.410156"/>
      </g>
     </g>
    </g>
    <g id="ytick_4">
     <g id="line2d_19">
      <path d="M 72.9 135.06323 
L 524.88 135.06323 
" clip-path="url(#p58028b3266)" style="fill: none; stroke: #e6e6e6; stroke-width: 0.8; stroke-linecap: square"/>
     </g>
     <g id="line2d_20">
      <g>
       <use xlink:href="#m4e074a918b" x="72.9" y="135.06323" style="stroke: #000000; stroke-width: 0.8"/>
      </g>
     </g>
     <g id="text_11">
      <!-- 0.6 -->
      <g transform="translate(49.996875 138.862449)scale(0.1 -0.1)">
       <use xlink:href="#DejaVuSans-30"/>
       <use xlink:href="#DejaVuSans-2e" x="63.623047"/>
       <use xlink:href="#DejaVuSans-36" x="95.410156"/>
      </g>
     </g>
    </g>
    <g id="ytick_5">
     <g id="line2d_21">
      <path d="M 72.9 82.319603 
L 524.88 82.319603 
" clip-path="url(#p58028b3266)" style="fill: none; stroke: #e6e6e6; stroke-width: 0.8; stroke-linecap: square"/>
     </g>
     <g id="line2d_22">
      <g>
       <use xlink:href="#m4e074a918b" x="72.9" y="82.319603" style="stroke: #000000; stroke-width: 0.8"/>
      </g>
     </g>
     <g id="text_12">
      <!-- 0.8 -->
      <g transform="translate(49.996875 86.118821)scale(0.1 -0.1)">
       <use xlink:href="#DejaVuSans-30"/>
       <use xlink:href="#DejaVuSans-2e" x="63.623047"/>
       <use xlink:href="#DejaVuSans-38" x="95.410156"/>
      </g>
     </g>
    </g>
    <g id="text_13">
     <!-- Volatility and Hurst-estimate -->
     <g transform="translate(43.917187 243.333031)rotate(-90)scale(0.1 -0.1)">
      <defs>
       <path id="DejaVuSans-56" d="M 1831 0 
L 50 4666 
L 709 4666 
L 2188 738 
L 3669 4666 
L 4325 4666 
L 2547 0 
L 1831 0 
z
" transform="scale(0.015625)"/>
       <path id="DejaVuSans-6f" d="M 1959 3097 
Q 1497 3097 1228 2736 
Q 959 2375 959 1747 
Q 959 1119 1226 758 
Q 1494 397 1959 397 
Q 2419 397 2687 759 
Q 2956 1122 2956 1747 
Q 2956 2369 2687 2733 
Q 2419 3097 1959 3097 
z
M 1959 3584 
Q 2709 3584 3137 3096 
Q 3566 2609 3566 1747 
Q 3566 888 3137 398 
Q 2709 -91 1959 -91 
Q 1206 -91 779 398 
Q 353 888 353 1747 
Q 353 2609 779 3096 
Q 1206 3584 1959 3584 
z
" transform="scale(0.015625)"/>
       <path id="DejaVuSans-6c" d="M 603 4863 
L 1178 4863 
L 1178 0 
L 603 0 
L 603 4863 
z
" transform="scale(0.015625)"/>
       <path id="DejaVuSans-69" d="M 603 3500 
L 1178 3500 
L 1178 0 
L 603 0 
L 603 3500 
z
M 603 4863 
L 1178 4863 
L 1178 4134 
L 603 4134 
L 603 4863 
z
" transform="scale(0.015625)"/>
       <path id="DejaVuSans-79" d="M 2059 -325 
Q 1816 -950 1584 -1140 
Q 1353 -1331 966 -1331 
L 506 -1331 
L 506 -850 
L 844 -850 
Q 1081 -850 1212 -737 
Q 1344 -625 1503 -206 
L 1606 56 
L 191 3500 
L 800 3500 
L 1894 763 
L 2988 3500 
L 3597 3500 
L 2059 -325 
z
" transform="scale(0.015625)"/>
       <path id="DejaVuSans-20" transform="scale(0.015625)"/>
       <path id="DejaVuSans-6e" d="M 3513 2113 
L 3513 0 
L 2938 0 
L 2938 2094 
Q 2938 2591 2744 2837 
Q 2550 3084 2163 3084 
Q 1697 3084 1428 2787 
Q 1159 2491 1159 1978 
L 1159 0 
L 581 0 
L 581 3500 
L 1159 3500 
L 1159 2956 
Q 1366 3272 1645 3428 
Q 1925 3584 2291 3584 
Q 2894 3584 3203 3211 
Q 3513 2838 3513 2113 
z
" transform="scale(0.015625)"/>
       <path id="DejaVuSans-64" d="M 2906 2969 
L 2906 4863 
L 3481 4863 
L 3481 0 
L 2906 0 
L 2906 525 
Q 2725 213 2448 61 
Q 2172 -91 1784 -91 
Q 1150 -91 751 415 
Q 353 922 353 1747 
Q 353 2572 751 3078 
Q 1150 3584 1784 3584 
Q 2172 3584 2448 3432 
Q 2725 3281 2906 2969 
z
M 947 1747 
Q 947 1113 1208 752 
Q 1469 391 1925 391 
Q 2381 391 2643 752 
Q 2906 1113 2906 1747 
Q 2906 2381 2643 2742 
Q 2381 3103 1925 3103 
Q 1469 3103 1208 2742 
Q 947 2381 947 1747 
z
" transform="scale(0.015625)"/>
       <path id="DejaVuSans-48" d="M 628 4666 
L 1259 4666 
L 1259 2753 
L 3553 2753 
L 3553 4666 
L 4184 4666 
L 4184 0 
L 3553 0 
L 3553 2222 
L 1259 2222 
L 1259 0 
L 628 0 
L 628 4666 
z
" transform="scale(0.015625)"/>
       <path id="DejaVuSans-75" d="M 544 1381 
L 544 3500 
L 1119 3500 
L 1119 1403 
Q 1119 906 1312 657 
Q 1506 409 1894 409 
Q 2359 409 2629 706 
Q 2900 1003 2900 1516 
L 2900 3500 
L 3475 3500 
L 3475 0 
L 2900 0 
L 2900 538 
Q 2691 219 2414 64 
Q 2138 -91 1772 -91 
Q 1169 -91 856 284 
Q 544 659 544 1381 
z
M 1991 3584 
L 1991 3584 
z
" transform="scale(0.015625)"/>
       <path id="DejaVuSans-72" d="M 2631 2963 
Q 2534 3019 2420 3045 
Q 2306 3072 2169 3072 
Q 1681 3072 1420 2755 
Q 1159 2438 1159 1844 
L 1159 0 
L 581 0 
L 581 3500 
L 1159 3500 
L 1159 2956 
Q 1341 3275 1631 3429 
Q 1922 3584 2338 3584 
Q 2397 3584 2469 3576 
Q 2541 3569 2628 3553 
L 2631 2963 
z
" transform="scale(0.015625)"/>
       <path id="DejaVuSans-73" d="M 2834 3397 
L 2834 2853 
Q 2591 2978 2328 3040 
Q 2066 3103 1784 3103 
Q 1356 3103 1142 2972 
Q 928 2841 928 2578 
Q 928 2378 1081 2264 
Q 1234 2150 1697 2047 
L 1894 2003 
Q 2506 1872 2764 1633 
Q 3022 1394 3022 966 
Q 3022 478 2636 193 
Q 2250 -91 1575 -91 
Q 1294 -91 989 -36 
Q 684 19 347 128 
L 347 722 
Q 666 556 975 473 
Q 1284 391 1588 391 
Q 1994 391 2212 530 
Q 2431 669 2431 922 
Q 2431 1156 2273 1281 
Q 2116 1406 1581 1522 
L 1381 1569 
Q 847 1681 609 1914 
Q 372 2147 372 2553 
Q 372 3047 722 3315 
Q 1072 3584 1716 3584 
Q 2034 3584 2315 3537 
Q 2597 3491 2834 3397 
z
" transform="scale(0.015625)"/>
       <path id="DejaVuSans-2d" d="M 313 2009 
L 1997 2009 
L 1997 1497 
L 313 1497 
L 313 2009 
z
" transform="scale(0.015625)"/>
       <path id="DejaVuSans-6d" d="M 3328 2828 
Q 3544 3216 3844 3400 
Q 4144 3584 4550 3584 
Q 5097 3584 5394 3201 
Q 5691 2819 5691 2113 
L 5691 0 
L 5113 0 
L 5113 2094 
Q 5113 2597 4934 2840 
Q 4756 3084 4391 3084 
Q 3944 3084 3684 2787 
Q 3425 2491 3425 1978 
L 3425 0 
L 2847 0 
L 2847 2094 
Q 2847 2600 2669 2842 
Q 2491 3084 2119 3084 
Q 1678 3084 1418 2786 
Q 1159 2488 1159 1978 
L 1159 0 
L 581 0 
L 581 3500 
L 1159 3500 
L 1159 2956 
Q 1356 3278 1631 3431 
Q 1906 3584 2284 3584 
Q 2666 3584 2933 3390 
Q 3200 3197 3328 2828 
z
" transform="scale(0.015625)"/>
      </defs>
      <use xlink:href="#DejaVuSans-56"/>
      <use xlink:href="#DejaVuSans-6f" x="60.658203"/>
      <use xlink:href="#DejaVuSans-6c" x="121.839844"/>
      <use xlink:href="#DejaVuSans-61" x="149.623047"/>
      <use xlink:href="#DejaVuSans-74" x="210.902344"/>
      <use xlink:href="#DejaVuSans-69" x="250.111328"/>
      <use xlink:href="#DejaVuSans-6c" x="277.894531"/>
      <use xlink:href="#DejaVuSans-69" x="305.677734"/>
      <use xlink:href="#DejaVuSans-74" x="333.460938"/>
      <use xlink:href="#DejaVuSans-79" x="372.669922"/>
      <use xlink:href="#DejaVuSans-20" x="431.849609"/>
      <use xlink:href="#DejaVuSans-61" x="463.636719"/>
      <use xlink:href="#DejaVuSans-6e" x="524.916016"/>
      <use xlink:href="#DejaVuSans-64" x="588.294922"/>
      <use xlink:href="#DejaVuSans-20" x="651.771484"/>
      <use xlink:href="#DejaVuSans-48" x="683.558594"/>
      <use xlink:href="#DejaVuSans-75" x="758.753906"/>
      <use xlink:href="#DejaVuSans-72" x="822.132812"/>
      <use xlink:href="#DejaVuSans-73" x="863.246094"/>
      <use xlink:href="#DejaVuSans-74" x="915.345703"/>
      <use xlink:href="#DejaVuSans-2d" x="954.554688"/>
      <use xlink:href="#DejaVuSans-65" x="990.638672"/>
      <use xlink:href="#DejaVuSans-73" x="1052.162109"/>
      <use xlink:href="#DejaVuSans-74" x="1104.261719"/>
      <use xlink:href="#DejaVuSans-69" x="1143.470703"/>
      <use xlink:href="#DejaVuSans-6d" x="1171.253906"/>
      <use xlink:href="#DejaVuSans-61" x="1268.666016"/>
      <use xlink:href="#DejaVuSans-74" x="1329.945312"/>
      <use xlink:href="#DejaVuSans-65" x="1369.154297"/>
     </g>
    </g>
   </g>
   <g id="patch_3">
    <path d="M 72.9 302.778 
L 72.9 40.824 
" style="fill: none; stroke: #000000; stroke-width: 0.8; stroke-linejoin: miter; stroke-linecap: square"/>
   </g>
   <g id="patch_4">
    <path d="M 524.88 302.778 
L 524.88 40.824 
" style="fill: none; stroke: #e6e6e6; stroke-width: 0.8; stroke-linejoin: miter; stroke-linecap: square"/>
   </g>
   <g id="patch_5">
    <path d="M 72.9 302.778 
L 524.88 302.778 
" style="fill: none; stroke: #000000; stroke-width: 0.8; stroke-linejoin: miter; stroke-linecap: square"/>
   </g>
   <g id="patch_6">
    <path d="M 72.9 40.824 
L 524.88 40.824 
" style="fill: none; stroke: #e6e6e6; stroke-width: 0.8; stroke-linejoin: miter; stroke-linecap: square"/>
   </g>
   <g id="line2d_23">
    <path d="M 93.444545 161.435044 
L 504.335455 161.435044 
" clip-path="url(#p58028b3266)" style="fill: none; stroke: #000000; stroke-width: 1.5; stroke-linecap: square"/>
   </g>
   <g id="line2d_24">
    <path d="M 93.444545 278.896936 
L 93.553564 278.852385 
L 93.662583 278.662524 
L 93.88062 279.375032 
L 94.425712 279.147749 
L 94.643749 287.216156 
L 95.297861 287.325485 
L 95.406879 287.608769 
L 95.733935 287.664607 
L 95.842954 287.044773 
L 95.951972 287.11481 
L 96.170009 287.596526 
L 96.606083 287.618107 
L 96.82412 287.797495 
L 96.933139 287.869307 
L 97.369213 287.904652 
L 97.478232 288.065135 
L 97.58725 287.908376 
L 97.696269 287.359034 
L 98.023324 287.439209 
L 98.241362 286.914203 
L 98.895473 286.802354 
L 99.004491 287.741788 
L 99.11351 287.261329 
L 99.222529 285.673591 
L 99.549584 285.664792 
L 99.767621 285.462424 
L 99.87664 285.600951 
L 99.985658 285.231583 
L 100.530751 285.172741 
L 100.63977 284.628327 
L 101.402899 285.507843 
L 101.947992 285.452808 
L 102.057011 284.66527 
L 102.166029 284.684851 
L 102.275048 284.728537 
L 102.602104 285.014288 
L 102.711122 286.605588 
L 102.820141 286.583372 
L 103.038178 286.974763 
L 103.365233 286.771474 
L 103.474252 286.986729 
L 103.692289 286.664064 
L 103.801308 286.52594 
L 104.128363 286.899937 
L 104.3464 286.49816 
L 104.564437 286.48274 
L 105.000512 286.433173 
L 105.10953 286.689009 
L 105.218549 287.451596 
L 105.327567 286.928065 
L 105.981679 286.815865 
L 106.090697 286.861314 
L 106.417753 286.733189 
L 106.526771 286.836898 
L 106.853827 287.908636 
L 107.39892 287.667418 
L 107.507938 287.439231 
L 107.616957 287.750059 
L 107.944012 287.757797 
L 108.053031 286.675338 
L 108.707142 286.828275 
L 109.034198 287.64616 
L 109.470272 287.671369 
L 109.688309 287.958333 
L 109.797328 287.930991 
L 110.34242 288.074761 
L 110.560458 288.376495 
L 110.669476 288.283222 
L 110.996532 288.997152 
L 111.10555 288.832565 
L 111.214569 288.894221 
L 111.323587 290.871 
L 111.432606 290.14437 
L 111.759662 290.150139 
L 111.977699 289.789332 
L 112.195736 289.454168 
L 112.522791 289.454652 
L 112.740829 287.911507 
L 112.958866 287.540302 
L 113.503958 287.618991 
L 114.049051 287.442037 
L 114.267088 287.474684 
L 114.376107 287.480445 
L 114.485125 286.704019 
L 115.139237 287.145268 
L 115.248255 286.43858 
L 115.684329 286.432117 
L 115.902366 287.310434 
L 116.011385 287.46875 
L 116.774515 287.144958 
L 117.10157 287.06649 
L 117.210589 286.847972 
L 117.428626 286.998206 
L 117.8647 286.991739 
L 117.973719 287.782156 
L 118.300775 287.58604 
L 118.62783 287.756534 
L 118.736849 288.614279 
L 118.845867 288.548128 
L 119.063904 288.332652 
L 119.499979 288.274864 
L 119.608997 288.700099 
L 119.718016 288.608617 
L 119.827034 288.81843 
L 120.372127 288.977188 
L 120.481145 288.646434 
L 120.590164 288.869251 
L 121.244275 288.385624 
L 121.353294 288.263934 
L 121.789368 288.146733 
L 122.116424 288.410961 
L 122.443479 288.401746 
L 122.552498 288.287026 
L 122.879554 288.453912 
L 123.206609 288.507548 
L 123.424646 288.874055 
L 123.533665 288.499691 
L 123.642683 288.783618 
L 123.969739 288.507364 
L 124.078758 288.928104 
L 124.187776 288.865349 
L 124.405813 289.076221 
L 125.059925 289.093276 
L 125.168943 284.092774 
L 125.714036 284.224678 
L 125.932073 284.195435 
L 126.259129 283.828946 
L 126.368147 283.934473 
L 126.586184 283.629098 
L 127.131277 283.471398 
L 127.349314 282.851371 
L 127.458333 282.812537 
L 127.894407 282.850617 
L 128.221462 282.079118 
L 128.548518 282.124798 
L 128.657537 285.164101 
L 128.766555 284.956954 
L 129.311648 284.919292 
L 129.420666 284.991475 
L 129.529685 285.524867 
L 130.292815 285.50529 
L 130.401833 286.226716 
L 130.510852 285.895471 
L 130.837908 286.312163 
L 130.946926 286.174453 
L 131.164963 284.11811 
L 131.273982 283.898188 
L 131.819075 283.890602 
L 132.037112 284.187515 
L 132.364167 284.16138 
L 132.473186 284.502946 
L 132.582204 284.394506 
L 132.800241 283.898365 
L 133.345334 283.531616 
L 133.563371 283.777814 
L 133.890427 283.778517 
L 134.217483 284.615053 
L 134.326501 286.716798 
L 134.762575 287.47978 
L 134.980612 288.338738 
L 135.089631 288.475576 
L 135.525705 288.49574 
L 135.743742 288.644915 
L 135.852761 288.747281 
L 136.179816 288.551311 
L 136.397854 289.219512 
L 136.506872 289.30239 
L 136.615891 289.638806 
L 137.051965 289.54106 
L 137.160983 289.0892 
L 137.270002 289.262576 
L 137.37902 288.973 
L 137.924113 288.996531 
L 138.14215 288.936122 
L 138.578225 288.874351 
L 138.90528 288.203945 
L 139.232336 288.081321 
L 139.450373 288.766477 
L 139.559391 289.215967 
L 140.213503 289.143774 
L 140.322521 288.694939 
L 140.43154 289.00623 
L 140.758595 289.011228 
L 140.867614 289.50951 
L 141.085651 289.49155 
L 141.19467 289.091662 
L 141.739762 289.021024 
L 141.848781 289.054027 
L 141.9578 289.335654 
L 142.393874 289.694805 
L 142.720929 289.213779 
L 143.375041 288.960364 
L 143.484059 289.271797 
L 143.811115 289.271489 
L 144.029152 289.140613 
L 144.13817 289.220669 
L 144.247189 288.984739 
L 144.792282 289.524321 
L 145.010319 289.425671 
L 145.555412 289.27839 
L 145.773449 287.931657 
L 146.536579 288.539624 
L 146.972653 288.415214 
L 147.299708 288.655596 
L 147.626764 288.584312 
L 147.844801 288.680759 
L 148.498912 288.652646 
L 148.607931 288.807235 
L 148.71695 288.763253 
L 149.153024 290.282442 
L 149.262042 290.271357 
L 149.480079 289.887677 
L 149.916154 289.765978 
L 150.025172 289.167748 
L 150.134191 289.295344 
L 150.352228 289.128886 
L 150.679283 289.123278 
L 150.89732 289.046174 
L 151.115358 288.906702 
L 151.769469 288.999194 
L 151.878487 288.575694 
L 152.314562 288.757348 
L 152.532599 289.107188 
L 152.641617 289.315485 
L 153.077691 289.249636 
L 153.18671 289.74472 
L 153.295729 289.519865 
L 153.404747 289.844906 
L 153.840821 289.774747 
L 154.058858 289.798303 
L 154.167877 289.547156 
L 154.71297 289.510984 
L 154.931007 289.231406 
L 155.367081 288.69834 
L 155.585118 288.230302 
L 155.694137 286.312435 
L 156.021192 286.311453 
L 156.239229 286.178194 
L 156.457266 286.381548 
L 157.547452 286.2824 
L 157.65647 286.543408 
L 157.983526 286.20566 
L 158.4196 286.313187 
L 158.746656 287.23105 
L 159.073712 287.350771 
L 159.18273 289.630205 
L 159.291749 289.434749 
L 159.400767 289.745095 
L 159.509786 289.58078 
L 160.163897 289.223613 
L 160.272916 289.251778 
L 161.036045 289.172076 
L 161.47212 289.768242 
L 161.690157 289.69835 
L 161.799175 288.970565 
L 162.126231 288.854228 
L 162.23525 288.962719 
L 162.344268 288.740674 
L 163.325435 289.394947 
L 163.979546 288.764243 
L 164.088565 281.987734 
L 165.396787 281.645376 
L 165.614825 281.867169 
L 166.159917 281.924836 
L 166.268936 281.99549 
L 166.377954 281.891204 
L 166.70501 281.927613 
L 166.923047 281.700288 
L 167.032066 281.799257 
L 167.141084 281.488574 
L 167.46814 281.423277 
L 167.686177 286.80767 
L 167.795195 286.441203 
L 167.904214 286.660538 
L 168.23127 286.857658 
L 168.449307 287.316795 
L 168.558325 287.443314 
L 170.084585 287.660481 
L 170.193604 287.895976 
L 170.520659 287.692568 
L 170.629678 287.067273 
L 170.738696 287.864328 
L 170.847715 287.314293 
L 170.956733 287.366923 
L 171.392808 287.388 
L 171.501826 287.951507 
L 172.046919 287.689472 
L 172.264956 287.141215 
L 172.373975 287.11398 
L 172.482993 286.961308 
L 172.810049 286.785268 
L 173.137104 286.366004 
L 173.246123 286.393639 
L 173.682197 285.831716 
L 174.009253 286.996743 
L 174.445327 287.483639 
L 175.208457 286.723541 
L 175.535512 287.210128 
L 176.189624 287.669642 
L 176.298642 287.076519 
L 176.625698 287.078086 
L 176.843735 286.938771 
L 176.952754 286.947206 
L 177.061772 287.106147 
L 177.388828 286.996552 
L 177.606865 286.669513 
L 177.824902 286.570712 
L 178.369995 287.117718 
L 178.479013 287.163144 
L 178.915087 287.150169 
L 179.133125 286.695031 
L 179.351162 286.672439 
L 179.896254 287.453426 
L 180.005273 287.269949 
L 180.114291 287.690343 
L 180.550366 287.846017 
L 180.659384 287.481337 
L 180.877421 288.127926 
L 182.076625 288.283849 
L 182.185644 288.947707 
L 182.403681 288.844288 
L 182.730737 288.83142 
L 182.839755 288.465427 
L 182.948774 288.50697 
L 183.057792 288.365509 
L 183.166811 288.779557 
L 183.602885 288.846717 
L 183.711904 288.162692 
L 183.929941 289.000607 
L 184.366015 288.998418 
L 184.475033 289.045108 
L 184.693071 289.000805 
L 185.020126 289.175594 
L 185.129145 289.104377 
L 185.347182 288.572793 
L 185.4562 288.180804 
L 186.001293 288.114739 
L 186.21933 288.46188 
L 186.764423 288.541018 
L 186.873441 288.275528 
L 186.98246 288.654597 
L 187.636571 288.595391 
L 188.50872 288.713996 
L 188.835775 288.736745 
L 188.944794 288.917906 
L 189.162831 288.835583 
L 189.27185 288.669155 
L 189.925961 288.453415 
L 190.034979 287.884365 
L 190.362035 287.801174 
L 190.580072 288.27064 
L 190.689091 288.307486 
L 190.798109 288.111921 
L 191.234183 286.685418 
L 191.343202 286.548865 
L 191.452221 286.743132 
L 191.561239 286.686114 
L 191.888295 286.68396 
L 192.106332 287.280068 
L 192.324369 287.210019 
L 192.651425 287.012445 
L 192.760443 286.57906 
L 192.97848 286.842819 
L 193.087499 286.863597 
L 193.414554 287.124451 
L 193.523573 287.474098 
L 193.632591 287.423758 
L 193.74161 287.189628 
L 194.177684 287.43181 
L 194.286703 289.051833 
L 194.395721 288.988453 
L 194.50474 289.312735 
L 194.613758 289.196891 
L 194.940814 289.184381 
L 195.158851 289.01907 
L 195.26787 288.950331 
L 195.376888 285.434609 
L 195.812962 285.427418 
L 196.031 285.732982 
L 196.140018 285.682621 
L 196.903148 285.730189 
L 197.448241 286.154801 
L 197.666278 286.1431 
L 197.993333 285.921559 
L 198.102352 286.043881 
L 198.211371 285.951347 
L 198.429408 286.084771 
L 198.756463 286.133457 
L 198.9745 290.096101 
L 199.083519 290.151547 
L 199.192537 289.986356 
L 199.519593 290.04213 
L 199.73763 289.85268 
L 199.846649 289.72482 
L 200.282723 289.965127 
L 200.50076 289.568607 
L 200.609779 289.335245 
L 200.718797 289.390785 
L 201.045853 289.158356 
L 201.154871 289.645209 
L 201.26389 289.572554 
L 201.481927 289.770277 
L 202.02702 289.752085 
L 202.245057 289.471265 
L 202.681131 289.647138 
L 202.79015 285.98523 
L 202.899168 286.025378 
L 203.008187 286.023276 
L 203.335242 285.754059 
L 203.444261 285.816481 
L 203.662298 285.435705 
L 204.098372 285.072834 
L 204.207391 285.15942 
L 204.534446 285.019538 
L 204.861502 285.017616 
L 204.970521 284.84472 
L 205.079539 283.732423 
L 205.842669 283.741484 
L 205.951687 283.834511 
L 206.060706 287.149534 
L 206.49678 287.239255 
L 206.605799 287.018585 
L 206.823836 287.268725 
L 207.25991 287.275329 
L 207.368929 286.727977 
L 207.586966 286.876489 
L 208.132058 286.877723 
L 208.241077 286.201446 
L 208.350096 287.78087 
L 209.004207 287.721489 
L 209.658318 287.709296 
L 209.876355 287.246573 
L 210.312429 287.785451 
L 210.530466 287.87907 
L 210.639485 286.162968 
L 211.402615 286.319707 
L 211.838689 286.323245 
L 212.056726 286.932562 
L 212.165745 287.07683 
L 212.601819 287.182373 
L 212.928875 287.254057 
L 213.473967 287.713426 
L 213.692004 287.538886 
L 214.01906 287.490648 
L 214.237097 290.852884 
L 214.346116 290.6278 
L 214.455134 290.717626 
L 215.000227 290.535503 
L 215.218264 289.753332 
L 215.54532 289.743508 
L 215.654338 287.201851 
L 215.763357 287.21098 
L 215.981394 287.136779 
L 216.744524 286.929935 
L 217.180598 286.619933 
L 217.507654 286.568748 
L 217.943728 286.386822 
L 218.161765 286.581275 
L 218.270783 282.733123 
L 218.597839 282.919595 
L 218.706858 282.558076 
L 218.815876 283.461948 
L 218.924895 283.340607 
L 219.033913 283.430929 
L 219.797043 283.476367 
L 220.124099 283.576425 
L 220.342136 283.817583 
L 220.887229 283.674689 
L 221.323303 283.828083 
L 221.650358 283.829082 
L 221.759377 289.676299 
L 221.868396 289.666475 
L 221.977414 289.936296 
L 222.086433 289.765579 
L 222.413488 290.004822 
L 222.522507 289.635503 
L 222.631525 289.825132 
L 222.849562 289.629604 
L 223.394655 289.598681 
L 223.612692 289.100125 
L 223.939748 289.102624 
L 224.048766 289.253573 
L 224.266804 288.923161 
L 224.702878 288.886598 
L 224.811896 287.649119 
L 224.920915 287.670429 
L 225.138952 286.39801 
L 226.338156 286.461476 
L 226.447175 286.532258 
L 226.665212 286.222334 
L 227.319323 286.271619 
L 227.755397 286.167389 
L 227.973434 286.314194 
L 228.191471 287.050112 
L 228.518527 287.378916 
L 228.736564 288.489509 
L 228.845583 288.60107 
L 228.954601 288.935546 
L 229.499694 288.979396 
L 230.044787 289.48138 
L 230.262824 290.008217 
L 230.807916 290.262865 
L 230.916935 290.801011 
L 231.571046 290.607227 
L 231.680065 290.349641 
L 231.789083 290.5835 
L 232.007121 290.075875 
L 232.552213 289.924581 
L 232.661232 289.845752 
L 232.77025 289.972351 
L 233.206325 289.931063 
L 233.315343 289.923446 
L 233.53338 289.446704 
L 233.860436 289.474471 
L 234.078473 288.595382 
L 234.29651 288.61853 
L 234.623566 288.658491 
L 234.732584 288.336542 
L 234.950621 288.450613 
L 235.05964 285.242629 
L 236.476881 285.148104 
L 236.5859 285.079425 
L 237.021974 285.148266 
L 237.130992 284.989657 
L 237.349029 285.428323 
L 237.894122 285.487174 
L 238.112159 285.705551 
L 238.439215 285.638709 
L 238.657252 290.032955 
L 238.766271 290.391294 
L 238.875289 290.314457 
L 239.202345 290.450278 
L 239.311363 290.266894 
L 239.5294 290.440505 
L 239.638419 290.04201 
L 240.074493 290.126445 
L 240.183512 289.67907 
L 240.29253 289.993523 
L 240.401549 289.929717 
L 240.837623 289.807471 
L 241.05566 289.615369 
L 241.164679 289.663423 
L 241.709771 289.707747 
L 241.927808 289.766508 
L 242.363883 289.46254 
L 243.017994 289.658999 
L 243.236031 289.185524 
L 243.34505 289.152047 
L 243.454068 287.854451 
L 243.999161 288.115993 
L 244.108179 288.262444 
L 244.217198 288.18548 
L 244.544254 288.143375 
L 244.653272 287.996974 
L 244.762291 287.376858 
L 244.980328 287.39234 
L 245.307383 286.782386 
L 245.416402 286.209123 
L 245.525421 286.278535 
L 245.743458 286.175911 
L 246.070513 285.960705 
L 246.397569 286.476887 
L 246.506587 286.32483 
L 246.833643 286.344633 
L 246.942662 287.832852 
L 247.160699 287.536926 
L 247.269717 287.620082 
L 247.596773 287.595192 
L 247.81481 287.396054 
L 247.923829 287.42892 
L 248.032847 287.707579 
L 248.468921 287.686108 
L 248.795977 289.131573 
L 249.34107 289.119061 
L 249.450088 289.632755 
L 249.559107 289.427803 
L 249.886162 289.126023 
L 249.995181 289.22723 
L 250.1042 289.576885 
L 250.213218 289.538087 
L 250.322237 285.485642 
L 250.867329 285.283546 
L 251.085367 285.19485 
L 251.739478 284.973422 
L 252.393589 284.960335 
L 252.502608 285.045951 
L 253.0477 284.652887 
L 253.156719 284.765955 
L 253.374756 284.562172 
L 253.701812 284.647675 
L 253.81083 287.44382 
L 253.919849 287.124135 
L 254.137886 287.371082 
L 254.57396 287.257653 
L 254.791997 287.461928 
L 254.901016 287.382116 
L 255.228071 287.365641 
L 255.555127 287.056137 
L 255.664146 286.945846 
L 255.991201 286.94321 
L 256.972368 288.449517 
L 257.081387 288.48676 
L 257.190405 289.105521 
L 257.626479 288.494606 
L 257.844517 288.51724 
L 258.389609 288.009155 
L 258.498628 288.072183 
L 258.607646 285.094364 
L 259.152739 285.197039 
L 259.370776 284.896142 
L 260.242925 284.851502 
L 260.678999 284.760762 
L 260.897036 285.047887 
L 261.006054 284.792357 
L 261.442129 284.706418 
L 261.551147 285.038189 
L 261.769184 285.039874 
L 262.205258 288.564805 
L 262.532314 287.768761 
L 263.295444 287.740936 
L 263.731518 287.107614 
L 263.949555 287.233006 
L 264.058574 285.368233 
L 264.821704 285.972104 
L 265.475815 285.633774 
L 265.584833 285.470895 
L 265.911889 285.775109 
L 266.129926 285.671677 
L 266.347963 285.716786 
L 266.784037 285.811577 
L 267.002075 285.206969 
L 267.111093 283.870266 
L 267.438149 282.741864 
L 267.656186 284.346098 
L 267.874223 284.306188 
L 268.419316 283.922159 
L 268.637353 283.937241 
L 268.964408 283.954296 
L 269.073427 284.174818 
L 269.400483 283.835486 
L 269.727538 283.783223 
L 269.945575 283.425157 
L 270.054594 283.391031 
L 270.163612 283.980127 
L 270.490668 284.323627 
L 270.599687 285.081409 
L 270.817724 287.005426 
L 270.926742 286.959392 
L 271.580854 286.9287 
L 271.689872 287.103354 
L 272.343983 287.311948 
L 272.453002 287.711249 
L 272.889076 288.155512 
L 273.107113 288.761697 
L 273.216132 288.993664 
L 273.543187 289.032141 
L 273.652206 288.900996 
L 273.761225 289.757098 
L 273.870243 289.644855 
L 273.979262 289.85413 
L 274.306317 289.418772 
L 274.524354 288.830846 
L 274.633373 288.926351 
L 274.742392 288.870117 
L 275.178466 284.515098 
L 275.287484 284.569169 
L 275.941596 283.731108 
L 276.050614 280.455674 
L 276.159633 280.464197 
L 276.704725 280.450651 
L 277.031781 280.314528 
L 277.576874 280.44785 
L 277.794911 280.742259 
L 278.230985 280.124168 
L 278.449022 282.461335 
L 278.558041 282.37266 
L 278.994115 282.649391 
L 279.103133 283.097991 
L 279.212152 287.795023 
L 279.321171 287.78834 
L 279.866263 287.619451 
L 280.0843 288.162796 
L 280.411356 288.1567 
L 280.629393 287.910235 
L 280.84743 287.79561 
L 281.174486 287.514177 
L 281.392523 289.054297 
L 282.046634 286.78821 
L 282.155653 286.965365 
L 282.37369 286.281789 
L 282.700746 285.88159 
L 283.027801 286.024727 
L 283.13682 286.003316 
L 283.89995 284.695212 
L 284.227005 284.612771 
L 284.336024 284.319987 
L 284.445042 281.996593 
L 284.663079 281.990271 
L 284.990135 281.293252 
L 285.208172 282.140195 
L 285.317191 282.044655 
L 285.426209 281.373371 
L 285.862283 281.761992 
L 286.189339 281.902069 
L 286.625413 281.860587 
L 286.734432 281.777156 
L 287.279525 282.732713 
L 287.60658 282.88127 
L 287.715599 283.222772 
L 288.042654 285.651616 
L 288.260692 284.763434 
L 288.478729 286.232922 
L 288.805784 286.116651 
L 289.023821 285.823662 
L 289.13284 286.911381 
L 289.241858 281.98046 
L 289.677933 282.122831 
L 289.89597 282.137382 
L 290.004988 282.243603 
L 290.332044 282.191608 
L 290.550081 282.46045 
L 290.768118 282.517156 
L 291.204192 282.159083 
L 291.313211 282.231477 
L 291.531248 282.861139 
L 291.858304 283.003413 
L 291.967322 271.770273 
L 292.076341 271.781517 
L 292.294378 271.978051 
L 292.621433 271.951048 
L 292.839471 274.343237 
L 293.057508 274.511761 
L 293.384563 274.519687 
L 293.6026 274.390521 
L 294.36573 274.479626 
L 294.474749 274.543014 
L 294.583767 274.428458 
L 295.12886 274.437292 
L 295.346897 289.143723 
L 295.782971 289.112687 
L 295.89199 289.148625 
L 296.001008 289.740232 
L 296.110027 288.733624 
L 296.65512 288.348593 
L 297.309231 288.355685 
L 297.527268 287.879386 
L 297.963342 288.021979 
L 298.181379 287.997144 
L 298.399417 288.022554 
L 298.835491 287.730316 
L 299.162546 286.619212 
L 299.707639 287.561312 
L 299.816658 287.560329 
L 299.925676 287.183594 
L 300.470769 286.830689 
L 300.579788 287.115982 
L 301.015862 287.1631 
L 301.12488 286.807273 
L 301.233899 286.846831 
L 301.451936 287.043402 
L 301.88801 287.027204 
L 301.997029 287.247548 
L 302.106047 286.93335 
L 302.542121 287.82513 
L 303.41427 288.032258 
L 303.632307 288.499656 
L 303.741325 288.557638 
L 304.1774 287.335719 
L 304.395437 287.465554 
L 304.504455 287.31753 
L 305.267585 287.270285 
L 305.594641 287.651828 
L 305.703659 287.088978 
L 305.921696 267.502835 
L 306.030715 267.520407 
L 306.575808 266.470966 
L 306.684826 266.44646 
L 306.793845 266.538977 
L 307.229919 266.460945 
L 307.447956 266.654535 
L 308.102067 266.639536 
L 308.320104 266.61332 
L 308.756179 266.598553 
L 308.865197 266.855815 
L 309.083234 285.767827 
L 309.519308 285.698636 
L 309.628327 287.170139 
L 309.737346 286.926453 
L 310.17342 287.427943 
L 310.282438 287.350221 
L 310.609494 286.370288 
L 311.154587 286.147757 
L 311.263605 286.323578 
L 311.372624 286.284422 
L 312.026735 285.862899 
L 312.135754 285.865007 
L 312.462809 286.648904 
L 312.680846 286.111258 
L 312.898883 285.496881 
L 313.334958 285.748181 
L 313.443976 285.582882 
L 313.552995 285.87653 
L 313.662013 285.568589 
L 314.098088 285.85557 
L 314.207106 285.449062 
L 314.425143 283.237743 
L 314.970236 282.510364 
L 315.188273 281.089322 
L 315.624347 280.878306 
L 315.951403 280.304798 
L 316.278458 279.248191 
L 316.387477 279.987122 
L 316.496496 278.436338 
L 317.150607 278.748874 
L 317.477663 278.044417 
L 317.804718 278.390747 
L 318.022755 279.036375 
L 318.240792 279.437458 
L 318.567848 280.063461 
L 318.676867 280.884218 
L 318.785885 280.773228 
L 318.894904 280.883802 
L 319.003922 281.184573 
L 319.330978 281.114256 
L 319.658033 284.031569 
L 319.767052 283.484829 
L 320.203126 283.844776 
L 320.312145 283.696702 
L 320.530182 284.377933 
L 320.857238 284.731057 
L 320.966256 284.521722 
L 321.293312 284.583332 
L 321.620367 284.365285 
L 321.838404 283.618478 
L 321.947423 283.541434 
L 322.056442 282.778678 
L 322.492516 282.872752 
L 322.710553 283.792091 
L 322.819571 283.620682 
L 323.582701 284.711061 
L 324.018775 284.306815 
L 324.236813 285.645958 
L 324.672887 284.435802 
L 324.781905 284.51485 
L 324.890924 285.080971 
L 325.108961 285.144933 
L 325.436017 285.634654 
L 325.545035 286.686969 
L 325.763072 286.14142 
L 326.308165 285.267672 
L 326.417183 280.801557 
L 326.526202 280.804749 
L 326.635221 280.755016 
L 326.962276 280.746985 
L 327.071295 279.504881 
L 327.289332 279.808288 
L 327.39835 279.792735 
L 327.834425 279.200377 
L 328.052462 279.761814 
L 328.16148 278.742115 
L 328.815592 278.672663 
L 328.92461 278.105401 
L 329.251666 278.425256 
L 329.360684 278.109019 
L 329.578721 278.378707 
L 329.68774 278.501832 
L 330.014796 281.820522 
L 330.123814 279.257551 
L 330.232833 279.265141 
L 330.341851 279.288965 
L 330.45087 280.592159 
L 330.995963 280.639469 
L 331.214 280.523485 
L 331.650074 280.570216 
L 331.868111 282.480805 
L 332.413204 282.680736 
L 332.522222 282.397728 
L 332.631241 282.695356 
L 332.740259 282.418155 
L 333.176333 281.841977 
L 333.285352 281.421584 
L 333.503389 284.349309 
L 334.048482 284.382662 
L 334.1575 284.541512 
L 334.266519 284.469547 
L 334.593575 283.373648 
L 334.702593 283.813595 
L 335.029649 283.030044 
L 335.356704 282.65767 
L 335.68376 281.94714 
L 335.792779 282.065554 
L 336.119834 281.634264 
L 336.228853 280.082165 
L 336.337871 280.11632 
L 336.44689 279.95093 
L 336.555908 277.756271 
L 336.991983 277.436916 
L 337.319038 273.955802 
L 337.755113 274.013466 
L 337.97315 274.321254 
L 338.082168 274.060319 
L 338.409224 272.204676 
L 338.518242 272.407803 
L 338.627261 272.207319 
L 338.736279 271.187103 
L 338.845298 271.511856 
L 339.281372 270.385677 
L 339.390391 271.766728 
L 339.499409 270.290235 
L 339.935483 267.697697 
L 340.153521 264.898895 
L 340.262539 264.81614 
L 340.371558 265.689175 
L 340.698613 265.227424 
L 340.91665 264.292483 
L 341.134688 264.523336 
L 341.461743 262.557165 
L 341.570762 262.630428 
L 341.67978 264.048774 
L 341.788799 263.958308 
L 341.897817 264.518105 
L 342.333892 265.100039 
L 342.551929 264.607288 
L 342.660947 264.639664 
L 342.988003 265.278606 
L 343.424077 272.254501 
L 343.751133 271.678821 
L 344.078188 275.652994 
L 344.187207 275.470627 
L 344.623281 275.153832 
L 344.7323 279.262113 
L 344.841318 278.741013 
L 344.950337 279.318322 
L 345.277392 279.327757 
L 345.495429 280.090851 
L 345.604448 280.062943 
L 345.713467 280.30972 
L 346.040522 275.987948 
L 346.149541 276.024235 
L 346.258559 276.201233 
L 346.367578 274.27933 
L 346.476596 274.307888 
L 346.912671 274.3522 
L 347.130708 274.874897 
L 347.566782 274.841609 
L 347.6758 275.237949 
L 347.784819 274.654818 
L 348.329912 275.961319 
L 348.547949 275.934582 
L 348.656967 276.170859 
L 349.093042 276.16929 
L 349.20206 276.628117 
L 349.420097 280.936183 
L 349.529116 280.855875 
L 349.96519 285.202433 
L 350.183227 284.981336 
L 350.292246 284.785175 
L 350.619301 285.232935 
L 350.837338 284.472029 
L 350.946357 284.459816 
L 351.055375 285.97424 
L 351.49145 286.092993 
L 351.709487 285.814112 
L 351.818505 285.899741 
L 352.145561 285.797412 
L 352.363598 284.900588 
L 352.472617 284.705886 
L 352.581635 283.953132 
L 353.017709 283.889986 
L 353.235746 284.056023 
L 353.344765 284.015824 
L 353.889858 284.61882 
L 353.998876 284.501929 
L 354.107895 283.335948 
L 354.543969 283.190202 
L 354.762006 283.316101 
L 354.871025 283.284916 
L 355.307099 276.897182 
L 355.634154 277.307139 
L 356.070229 278.173719 
L 356.179247 277.578355 
L 356.397284 274.051356 
L 356.833358 272.998102 
L 357.051396 270.586118 
L 357.160414 270.784686 
L 357.48747 270.082658 
L 357.705507 268.35771 
L 357.923544 267.037248 
L 358.359618 266.997891 
L 358.577655 270.159019 
L 358.686674 269.971028 
L 359.231767 269.878458 
L 359.340785 262.46283 
L 359.449804 263.438515 
L 359.776859 263.4643 
L 360.103915 265.351487 
L 360.212934 265.232179 
L 360.539989 265.197315 
L 360.649008 265.777244 
L 360.867045 267.869872 
L 360.976063 268.776676 
L 361.630175 267.277965 
L 361.739193 266.503555 
L 362.066249 266.602415 
L 362.284286 266.156791 
L 362.393304 266.074186 
L 362.502323 276.422292 
L 362.829379 277.664945 
L 362.938397 277.579522 
L 363.156434 277.043086 
L 363.265453 278.933079 
L 363.592509 277.899789 
L 363.810546 278.093241 
L 363.919564 277.419357 
L 364.028583 277.775018 
L 364.355638 276.806833 
L 364.464657 278.051183 
L 364.573675 277.899793 
L 364.791713 278.015886 
L 365.118768 278.055185 
L 365.227787 279.632172 
L 365.336805 279.53722 
L 365.445824 279.652654 
L 365.554842 280.318905 
L 365.990917 280.073633 
L 366.099935 274.627907 
L 366.208954 274.761402 
L 366.317972 274.549727 
L 366.645028 274.641964 
L 366.754046 274.139082 
L 366.863065 274.75737 
L 367.081102 274.506413 
L 367.408158 274.828719 
L 367.517176 271.055708 
L 367.735213 271.316337 
L 368.171288 271.544754 
L 368.389325 271.311808 
L 368.498343 271.479277 
L 368.934417 270.939844 
L 369.261473 271.030986 
L 369.370492 271.061372 
L 369.806566 274.3255 
L 370.024603 260.748664 
L 370.133621 259.360398 
L 370.569696 259.314631 
L 370.787733 259.070448 
L 370.896751 253.374239 
L 371.223807 254.044941 
L 371.659881 211.74643 
L 371.986937 207.061644 
L 372.095955 188.654488 
L 372.204974 189.06685 
L 372.423011 182.803261 
L 372.750067 182.665151 
L 372.859085 181.928197 
L 373.077122 181.992666 
L 373.186141 184.768271 
L 373.731234 185.622049 
L 373.949271 185.506788 
L 374.276326 185.403078 
L 374.385345 188.277933 
L 374.494363 180.532383 
L 374.603382 186.950203 
L 374.7124 200.796321 
L 375.039456 205.676102 
L 375.257493 214.160544 
L 375.366512 235.065622 
L 375.47553 235.05395 
L 375.802586 243.117368 
L 375.911604 242.492554 
L 376.020623 243.060837 
L 376.23866 244.966568 
L 376.674734 242.374399 
L 376.892771 243.092126 
L 377.00179 244.190082 
L 377.328846 244.017282 
L 377.437864 243.457879 
L 377.546883 236.50337 
L 377.76492 247.472623 
L 378.091975 247.774856 
L 378.200994 248.486997 
L 378.310013 248.468052 
L 378.855105 248.50148 
L 378.964124 248.493978 
L 379.182161 255.907899 
L 379.291179 256.178637 
L 379.618235 255.815011 
L 379.727254 255.877664 
L 379.945291 255.42682 
L 380.054309 255.448497 
L 380.599402 255.220528 
L 380.708421 255.310387 
L 380.817439 264.163184 
L 381.144495 276.681996 
L 381.362532 276.399912 
L 381.580569 276.971554 
L 382.016643 276.619277 
L 382.23468 276.693533 
L 382.343699 276.86501 
L 382.670754 276.01203 
L 382.99781 278.556109 
L 383.106829 278.929525 
L 383.433884 277.374382 
L 383.542903 277.701865 
L 383.76094 277.310468 
L 383.869959 277.512514 
L 384.197014 277.50786 
L 384.633088 272.835198 
L 385.178181 271.841355 
L 385.396218 270.691595 
L 385.832292 269.935824 
L 385.941311 271.636274 
L 386.159348 263.604359 
L 386.595422 264.208276 
L 386.813459 264.919162 
L 386.922478 265.109273 
L 387.249534 264.769504 
L 387.467571 264.355518 
L 387.685608 267.026721 
L 388.012663 267.179484 
L 388.448738 271.047034 
L 388.884812 271.10542 
L 389.102849 273.106848 
L 389.211867 273.14763 
L 389.647942 284.457032 
L 389.75696 283.821333 
L 389.865979 283.853915 
L 390.302053 283.541729 
L 390.411071 281.912838 
L 390.52009 282.394114 
L 390.629109 284.019023 
L 390.738127 283.962529 
L 391.174201 283.843764 
L 391.392238 283.57472 
L 391.501257 283.696465 
L 391.937331 283.832575 
L 392.04635 283.713127 
L 392.155368 283.336044 
L 392.264387 283.372616 
L 392.700461 282.570393 
L 392.809479 282.864493 
L 393.027517 283.541958 
L 393.354572 283.562043 
L 393.463591 283.704349 
L 393.681628 285.622423 
L 393.790646 285.312428 
L 394.117702 285.018539 
L 394.335739 276.609374 
L 394.553776 277.084182 
L 395.098869 277.321104 
L 395.207888 277.650667 
L 395.316906 277.243812 
L 395.75298 277.197195 
L 395.971017 277.487178 
L 396.080036 277.175252 
L 396.625129 276.734995 
L 396.734147 276.752752 
L 396.843166 277.006972 
L 397.170221 276.553615 
L 397.388259 276.679365 
L 397.606296 285.099324 
L 397.933351 285.154283 
L 398.04237 284.557449 
L 398.151388 284.701998 
L 398.369425 285.228712 
L 398.696481 285.154873 
L 398.914518 285.537207 
L 399.132555 285.50102 
L 399.459611 285.571528 
L 399.568629 286.790699 
L 399.677648 286.182152 
L 399.895685 286.462981 
L 400.222741 286.362881 
L 400.440778 287.363787 
L 400.549796 287.312228 
L 400.658815 286.24805 
L 401.094889 286.253283 
L 401.203908 286.965358 
L 401.421945 286.319449 
L 401.749 284.793934 
L 401.858019 284.968344 
L 401.967038 284.593361 
L 402.076056 284.619996 
L 402.185075 284.419601 
L 402.51213 284.390853 
L 402.730167 283.404338 
L 402.839186 283.622773 
L 403.602316 283.465531 
L 403.711334 282.569911 
L 404.03839 283.005287 
L 404.256427 279.32321 
L 404.474464 278.913506 
L 404.80152 279.175778 
L 405.019557 279.068548 
L 405.237594 279.481959 
L 405.56465 279.447839 
L 405.673668 278.814001 
L 405.782687 278.936648 
L 406.000724 278.01946 
L 406.436798 275.378905 
L 406.545817 275.575509 
L 406.654835 275.569723 
L 406.763854 274.883768 
L 407.090909 274.851202 
L 407.417965 278.565137 
L 407.854039 278.560977 
L 407.963058 278.777088 
L 408.181095 278.356828 
L 408.290113 278.90954 
L 408.617169 278.773594 
L 408.726188 278.968443 
L 408.835206 277.065321 
L 408.944225 277.609967 
L 409.053243 276.879016 
L 409.489317 277.650566 
L 409.707354 280.83438 
L 409.816373 280.665187 
L 410.252447 280.267507 
L 410.470484 281.449769 
L 410.579503 281.110102 
L 411.015577 280.855149 
L 411.124596 280.477102 
L 411.233614 279.646879 
L 411.342633 279.715386 
L 411.887725 276.863436 
L 411.996744 276.853329 
L 412.105763 278.361239 
L 412.432818 278.414298 
L 412.650855 276.963854 
L 413.195948 276.787871 
L 413.304967 276.475679 
L 413.413985 277.04484 
L 413.523004 276.904884 
L 413.632022 277.063041 
L 414.068096 277.017257 
L 414.177115 277.367745 
L 414.395152 276.535344 
L 414.722208 277.718681 
L 414.831226 277.607533 
L 414.940245 278.706749 
L 415.049263 278.674876 
L 415.158282 280.047246 
L 415.594356 278.263196 
L 415.703375 278.215594 
L 415.921412 280.120212 
L 416.357486 276.811201 
L 416.466504 276.536102 
L 416.575523 277.335722 
L 416.684542 277.172899 
L 417.011597 276.952235 
L 417.229634 269.137541 
L 417.447671 269.38301 
L 417.883746 266.448057 
L 418.101783 266.064736 
L 418.537857 266.517112 
L 418.755894 266.72261 
L 418.864913 266.474832 
L 418.973931 266.608544 
L 419.300987 267.272001 
L 419.519024 269.933295 
L 419.628042 269.916406 
L 420.282154 269.031746 
L 420.500191 275.387478 
L 420.827246 275.37827 
L 420.936265 275.529845 
L 421.154302 282.168056 
L 421.263321 282.700169 
L 421.699395 282.502629 
L 421.808413 282.13927 
L 422.02645 283.19334 
L 422.680562 277.2227 
L 422.78958 276.21396 
L 423.116636 276.037727 
L 423.225655 275.054297 
L 423.334673 275.422209 
L 423.443692 274.423596 
L 423.55271 274.486114 
L 423.879766 274.440996 
L 423.988784 274.147344 
L 424.206821 267.787985 
L 424.31584 267.505739 
L 424.751914 266.963038 
L 424.860933 267.048786 
L 424.969951 266.448294 
L 425.07897 266.608338 
L 425.406025 266.769807 
L 425.515044 265.868915 
L 425.624063 267.298768 
L 425.733081 267.109295 
L 425.8421 268.802846 
L 426.169155 268.459598 
L 426.496211 269.516232 
L 426.60523 270.127047 
L 427.259341 270.557249 
L 427.368359 270.886608 
L 427.804434 276.763971 
L 428.131489 278.2931 
L 428.567563 279.451999 
L 428.676582 279.413316 
L 428.7856 277.259899 
L 428.894619 279.125048 
L 429.221675 279.398696 
L 429.330693 279.717919 
L 429.439712 279.630709 
L 429.657749 280.866197 
L 430.093823 280.875128 
L 430.202842 281.259269 
L 430.31186 281.172785 
L 430.420879 280.470628 
L 430.856953 280.234794 
L 430.965971 280.244421 
L 431.184009 280.552503 
L 431.620083 280.453956 
L 431.729101 280.316877 
L 431.83812 280.486506 
L 431.947138 282.858854 
L 432.274194 282.643711 
L 432.383213 281.501684 
L 432.492231 281.779953 
L 432.60125 281.691268 
L 432.710268 281.880967 
L 433.037324 281.869369 
L 433.36438 281.010179 
L 433.473398 280.963324 
L 433.800454 281.201602 
L 434.127509 281.8704 
L 434.236528 281.747367 
L 434.563584 281.676831 
L 434.672602 281.4171 
L 434.781621 281.489633 
L 434.999658 282.25017 
L 435.435732 282.169958 
L 435.54475 284.07598 
L 435.653769 282.848848 
L 435.762788 280.347837 
L 436.089843 280.274889 
L 436.198862 280.447196 
L 436.30788 280.358247 
L 436.525917 281.077705 
L 436.852973 281.361825 
L 436.961992 281.256513 
L 437.07101 281.509467 
L 437.289047 280.769316 
L 437.616103 280.757716 
L 437.83414 279.800441 
L 437.943159 279.594944 
L 438.052177 279.738936 
L 438.379233 279.831678 
L 438.488251 278.922782 
L 439.142363 282.363816 
L 439.251381 282.365302 
L 439.469418 282.658959 
L 439.578437 282.584658 
L 440.014511 281.936265 
L 440.12353 281.326517 
L 440.232548 281.384631 
L 440.341567 282.191193 
L 440.668622 282.130453 
L 440.777641 281.216796 
L 440.995678 281.574568 
L 441.104696 281.341606 
L 441.540771 281.392131 
L 441.758808 282.013772 
L 441.867826 282.041833 
L 442.3039 281.946523 
L 442.630956 279.892679 
L 442.958012 280.088565 
L 443.176049 280.060889 
L 443.394086 281.0315 
L 443.83016 279.786692 
L 443.939179 280.666405 
L 444.157216 281.04575 
L 444.484271 280.934696 
L 444.59329 281.981011 
L 444.811327 281.832299 
L 444.920346 282.2713 
L 445.247401 281.462136 
L 445.574457 278.764172 
L 445.683475 278.620037 
L 446.010531 279.328411 
L 446.228568 279.104261 
L 446.337587 279.694631 
L 446.446605 279.622756 
L 446.773661 279.688466 
L 446.88268 279.568097 
L 447.100717 280.650288 
L 447.209735 280.66222 
L 447.645809 279.752633 
L 447.754828 279.791128 
L 447.863846 279.701218 
L 447.972865 279.835145 
L 448.408939 279.632715 
L 448.735995 280.519774 
L 449.06305 280.66062 
L 449.172069 281.478742 
L 449.281088 281.432966 
L 449.390106 280.390115 
L 449.499125 281.141515 
L 450.044217 280.365211 
L 450.153236 279.42429 
L 450.262255 279.504514 
L 450.698329 278.358762 
L 451.570477 276.897408 
L 451.679496 277.524169 
L 451.788514 277.410933 
L 452.11557 277.802264 
L 452.333607 275.940752 
L 452.442625 275.855539 
L 452.551644 276.244591 
L 452.987718 276.864621 
L 453.096737 276.36454 
L 453.205755 276.59565 
L 453.314774 277.486763 
L 453.750848 277.06553 
L 453.859867 278.157487 
L 453.968885 278.138269 
L 454.077904 278.384445 
L 454.404959 278.343297 
L 454.622996 280.891166 
L 454.732015 281.068311 
L 454.841034 280.893613 
L 455.168089 281.208682 
L 455.277108 281.151475 
L 455.604163 283.880474 
L 456.040238 284.505485 
L 456.258275 283.61034 
L 456.367293 285.763162 
L 456.694349 285.580068 
L 456.803367 285.071674 
L 457.021405 273.595228 
L 457.130423 273.397201 
L 457.675516 273.264667 
L 457.893553 273.642665 
L 458.220609 273.666501 
L 458.329627 273.497238 
L 458.547664 273.604426 
L 459.310794 273.929052 
L 459.419813 274.386399 
L 459.746868 274.448103 
L 460.073924 274.040239 
L 460.182942 285.972123 
L 460.509998 286.451017 
L 460.728035 287.581332 
L 461.273128 287.152792 
L 461.382146 287.422356 
L 461.600184 287.218056 
L 461.709202 286.302733 
L 462.145276 286.356749 
L 462.363313 286.25953 
L 462.472332 286.319554 
L 463.017425 285.619816 
L 463.126443 285.68224 
L 463.235462 285.890047 
L 463.671536 284.022095 
L 463.889573 284.790135 
L 463.998592 284.752607 
L 464.434666 284.368682 
L 464.652703 284.666972 
L 465.088777 284.552841 
L 465.197796 284.937959 
L 465.306814 284.521861 
L 465.524851 278.178342 
L 465.851907 277.724623 
L 466.069944 276.580168 
L 466.178963 276.415953 
L 466.287981 276.513681 
L 466.724055 276.515281 
L 466.833074 276.743658 
L 467.051111 277.768913 
L 467.487185 277.611614 
L 467.596204 277.275142 
L 467.705222 277.58224 
L 468.359334 277.346618 
L 468.468352 277.154526 
L 468.904426 277.412411 
L 469.122463 282.805328 
L 469.231482 283.627685 
L 469.3405 285.965371 
L 469.885593 286.533461 
L 469.994612 286.519952 
L 470.430686 285.898005 
L 470.757742 286.272372 
L 470.86676 287.284647 
L 471.302834 287.118016 
L 471.520871 287.573306 
L 471.62989 288.080152 
L 471.956946 288.059162 
L 472.065964 288.596727 
L 472.284001 288.302245 
L 472.720075 288.370147 
L 472.938113 287.998668 
L 473.15615 288.037437 
L 473.483205 288.123497 
L 473.701242 287.843623 
L 473.810261 287.775618 
L 473.91928 286.753744 
L 474.246335 286.403208 
L 474.355354 285.974407 
L 474.682409 286.165905 
L 475.227502 285.558576 
L 475.336521 285.549931 
L 475.445539 285.0444 
L 475.881613 284.830315 
L 476.09965 284.462981 
L 476.208669 284.737434 
L 476.644743 284.498721 
L 476.753762 284.513265 
L 476.971799 285.363605 
L 477.298855 285.472739 
L 477.407873 285.292991 
L 477.516892 285.331132 
L 477.62591 285.630124 
L 477.734929 285.584831 
L 478.171003 284.499326 
L 478.38904 284.960172 
L 478.498059 284.764369 
L 478.825114 285.232496 
L 479.043151 285.137671 
L 479.15217 285.100464 
L 479.261188 285.405233 
L 479.588244 285.294366 
L 479.806281 285.426609 
L 480.024318 284.956274 
L 480.351374 285.019523 
L 480.460392 284.716449 
L 480.67843 285.250251 
L 480.787448 285.198023 
L 481.114504 285.188536 
L 481.332541 284.441515 
L 481.550578 283.957559 
L 481.986652 284.129199 
L 482.095671 284.457069 
L 482.204689 284.219899 
L 482.313708 284.493201 
L 482.640763 284.38919 
L 482.858801 283.507173 
L 482.967819 283.051348 
L 483.076838 283.154991 
L 483.512912 283.147426 
L 483.62193 283.512043 
L 483.839967 283.568406 
L 484.167023 283.525391 
L 484.494079 276.237533 
L 484.603097 276.422455 
L 484.930153 275.65808 
L 485.039171 273.9058 
L 485.14819 273.973318 
L 485.366227 273.048123 
L 485.802301 273.192434 
L 485.91132 272.81441 
L 486.565431 273.305671 
L 486.67445 273.085946 
L 486.892487 273.263285 
L 487.43758 273.341824 
L 487.546598 274.267225 
L 487.655617 277.233912 
L 488.200709 278.624813 
L 488.418746 282.218183 
L 488.745802 282.197838 
L 488.963839 283.691346 
L 489.072858 283.695534 
L 489.181876 283.52086 
L 489.945006 285.576153 
L 490.490099 285.247833 
L 490.599117 284.768256 
L 491.362247 286.086926 
L 491.471266 285.917879 
L 492.016359 283.984832 
L 492.234396 284.323043 
L 492.561451 284.471311 
L 492.67047 284.398375 
L 492.888507 284.91406 
L 493.4336 284.476663 
L 493.542618 284.664757 
L 493.760655 285.099256 
L 494.087711 285.438894 
L 494.19673 285.094186 
L 494.414767 285.228796 
L 494.523785 284.896234 
L 494.959859 284.895336 
L 495.177896 287.393848 
L 495.286915 286.863777 
L 495.832008 286.881831 
L 495.941026 287.23937 
L 496.050045 287.1003 
L 496.486119 286.831148 
L 496.595138 287.372938 
L 496.704156 287.336535 
L 496.813175 286.849745 
L 497.467286 278.883292 
L 497.90336 278.737743 
L 498.121397 278.88974 
L 498.230416 278.806832 
L 498.339434 278.905655 
L 498.884527 278.833978 
L 499.102564 278.569286 
L 499.756676 278.05878 
L 500.301768 278.035404 
L 500.628824 282.849942 
L 500.95588 282.818757 
L 501.064898 283.042256 
L 501.173917 283.603975 
L 501.391954 273.698415 
L 501.719009 273.789387 
L 501.828028 274.04624 
L 501.937046 273.882373 
L 502.155084 272.852199 
L 502.918213 239.125762 
L 503.354288 239.122602 
L 503.463306 238.918934 
L 503.681343 238.036464 
L 504.226436 236.453802 
L 504.335455 236.501478 
" clip-path="url(#p58028b3266)" style="fill: none; stroke: #808080; stroke-width: 1.5; stroke-linecap: square"/>
   </g>
   <g id="line2d_25">
    <path d="M 113.285921 148.009186 
L 122.879554 135.945758 
L 133.236316 149.099837 
L 143.157004 152.037764 
L 153.077691 128.174606 
L 162.889361 164.464801 
L 173.028086 160.967786 
L 182.948774 159.351498 
L 192.869462 172.327586 
L 202.681131 173.923809 
L 212.819856 166.119977 
L 222.740544 168.46231 
L 232.661232 168.267515 
L 242.472901 178.097416 
L 252.611626 182.945582 
L 262.532314 176.360651 
L 272.453002 154.022313 
L 282.264671 163.57018 
L 292.730452 174.252309 
L 302.65114 183.185482 
L 312.571828 167.475703 
L 322.383497 145.272947 
L 332.522222 91.775542 
L 342.44291 105.701557 
L 352.363598 85.793853 
L 362.175267 103.399567 
L 372.313992 92.634639 
L 382.23468 91.461103 
L 392.155368 96.103485 
L 401.967038 141.337378 
L 411.996744 150.078994 
L 421.917432 137.09089 
L 431.947138 145.568603 
L 441.758808 131.60263 
L 452.11557 175.754352 
L 462.036258 174.367205 
L 472.065964 167.635264 
L 481.877634 123.834984 
" clip-path="url(#p58028b3266)" style="fill: none; stroke-dasharray: 1.5,2.475; stroke-dashoffset: 0; stroke: #ff0000; stroke-width: 1.5"/>
   </g>
   <g id="line2d_26">
    <path d="M 113.285921 87.235018 
L 122.879554 94.906496 
L 133.236316 89.952504 
L 143.157004 93.682503 
L 153.077691 85.492114 
L 162.889361 96.705202 
L 173.028086 94.36099 
L 182.948774 90.862718 
L 192.869462 85.826894 
L 202.681131 81.567564 
L 212.819856 73.408958 
L 222.740544 77.561919 
L 232.661232 73.81059 
L 242.472901 75.857213 
L 252.611626 77.787296 
L 262.532314 71.553241 
L 272.453002 73.099329 
L 282.264671 73.43928 
L 292.730452 57.903358 
L 302.65114 68.856724 
L 312.571828 69.063269 
L 322.383497 71.943414 
L 332.522222 93.341703 
L 342.44291 73.297543 
L 352.363598 52.731 
L 362.175267 67.130073 
L 372.313992 68.62616 
L 382.23468 67.186237 
L 392.155368 66.220944 
L 401.967038 71.914507 
L 411.996744 76.953664 
L 421.917432 82.949563 
L 431.947138 84.715997 
L 441.758808 81.792044 
L 452.11557 75.41402 
L 462.036258 75.61651 
L 472.065964 65.043698 
L 481.877634 63.296582 
" clip-path="url(#p58028b3266)" style="fill: none; stroke-dasharray: 9.6,2.4,1.5,2.4; stroke-dashoffset: 0; stroke: #ff0000; stroke-width: 1.5"/>
   </g>
   <g id="line2d_27">
    <path d="M 113.285921 105.814843 
L 122.879554 105.756259 
L 133.236316 108.065559 
L 143.157004 97.939067 
L 153.077691 93.176451 
L 162.889361 100.258018 
L 173.028086 107.47505 
L 182.948774 102.030316 
L 192.869462 114.437201 
L 202.681131 103.9449 
L 212.819856 70.432882 
L 222.740544 72.361 
L 232.661232 68.85424 
L 242.472901 77.555239 
L 252.611626 84.621684 
L 262.532314 79.98364 
L 272.453002 103.726015 
L 282.264671 75.441073 
L 292.730452 59.696373 
L 302.65114 62.013706 
L 312.571828 68.629681 
L 322.383497 73.597977 
L 332.522222 83.848239 
L 342.44291 89.7472 
L 352.363598 130.881435 
L 362.175267 74.039613 
L 372.313992 63.417318 
L 382.23468 66.239665 
L 392.155368 76.902845 
L 401.967038 102.902365 
L 411.996744 82.018993 
L 421.917432 92.634655 
L 431.947138 102.338735 
L 441.758808 112.958704 
L 452.11557 94.818157 
L 462.036258 84.411083 
L 472.065964 68.255117 
L 481.877634 90.915597 
" clip-path="url(#p58028b3266)" style="fill: none; stroke-dasharray: 5.55,2.4; stroke-dashoffset: 0; stroke: #ff0000; stroke-width: 1.5"/>
   </g>
   <g id="line2d_28">
    <path d="M 113.285921 163.877153 
L 122.879554 157.331095 
L 133.236316 151.981082 
L 143.157004 149.463413 
L 153.077691 150.782757 
L 162.889361 156.33243 
L 173.028086 157.900069 
L 182.948774 159.988692 
L 192.869462 164.842556 
L 202.681131 163.62404 
L 212.819856 160.878896 
L 222.740544 159.025443 
L 232.661232 156.712905 
L 242.472901 155.675399 
L 252.611626 157.593017 
L 262.532314 147.530124 
L 272.453002 161.994532 
L 282.264671 161.91428 
L 292.730452 158.788497 
L 302.65114 159.502698 
L 312.571828 158.14445 
L 322.383497 155.067285 
L 332.522222 138.019212 
L 342.44291 142.474132 
L 352.363598 100.932466 
L 362.175267 110.249029 
L 372.313992 112.239567 
L 382.23468 112.64626 
L 392.155368 131.689555 
L 401.967038 148.923377 
L 411.996744 142.029446 
L 421.917432 137.556796 
L 431.947138 136.75108 
L 441.758808 147.329599 
L 452.11557 149.888372 
L 462.036258 148.780996 
L 472.065964 137.957044 
L 481.877634 114.496665 
" clip-path="url(#p58028b3266)" style="fill: none; stroke: #ff0000; stroke-width: 1.5; stroke-linecap: square"/>
   </g>
   <g id="line2d_29">
    <path d="M 113.285921 167.212404 
L 122.879554 154.284912 
L 133.236316 147.009689 
L 143.157004 143.466964 
L 153.077691 145.154836 
L 162.889361 147.009155 
L 173.028086 149.621922 
L 182.948774 158.545673 
L 192.869462 159.132676 
L 202.681131 159.186246 
L 212.819856 151.536821 
L 222.740544 150.810816 
L 232.661232 147.551847 
L 242.472901 146.811758 
L 252.611626 149.644872 
L 262.532314 141.660997 
L 272.453002 158.836534 
L 282.264671 148.652495 
L 292.730452 144.968159 
L 302.65114 144.23365 
L 312.571828 143.115649 
L 322.383497 144.486582 
L 332.522222 138.522953 
L 342.44291 140.267036 
L 352.363598 131.343851 
L 362.175267 112.301751 
L 372.313992 113.32742 
L 382.23468 112.740856 
L 392.155368 130.455109 
L 401.967038 144.132861 
L 411.996744 138.485558 
L 421.917432 135.610837 
L 431.947138 133.476424 
L 441.758808 143.921553 
L 452.11557 141.49422 
L 462.036258 138.242514 
L 472.065964 125.248122 
L 481.877634 112.507227 
" clip-path="url(#p58028b3266)" style="fill: none; stroke: #ff7f0e; stroke-width: 1.5; stroke-linecap: square"/>
   </g>
   <g id="line2d_30">
    <path d="M 113.285921 159.882794 
L 122.879554 155.129689 
L 133.236316 144.800282 
L 143.157004 141.099615 
L 153.077691 140.639226 
L 162.889361 153.975895 
L 173.028086 150.758236 
L 182.948774 151.039336 
L 192.869462 162.065369 
L 202.681131 164.34199 
L 212.819856 159.843592 
L 222.740544 157.047307 
L 232.661232 152.204258 
L 242.472901 151.981727 
L 252.611626 156.096679 
L 262.532314 146.936707 
L 272.453002 159.73455 
L 282.264671 156.622804 
L 292.730452 148.062976 
L 302.65114 148.709523 
L 312.571828 141.301617 
L 322.383497 139.298882 
L 332.522222 137.530954 
L 342.44291 142.88433 
L 352.363598 118.938239 
L 362.175267 107.542782 
L 372.313992 113.383175 
L 382.23468 110.659762 
L 392.155368 124.60912 
L 401.967038 147.623038 
L 411.996744 142.513869 
L 421.917432 137.732925 
L 431.947138 133.368577 
L 441.758808 137.181619 
L 452.11557 143.210575 
L 462.036258 137.871801 
L 472.065964 120.578687 
L 481.877634 112.073859 
" clip-path="url(#p58028b3266)" style="fill: none; stroke: #1f77b4; stroke-width: 1.5; stroke-linecap: square"/>
   </g>
   <g id="legend_1">
    <g id="patch_7">
     <path d="M 79.9 297.778 
L 231.653125 297.778 
Q 233.653125 297.778 233.653125 295.778 
L 233.653125 194.031125 
Q 233.653125 192.031125 231.653125 192.031125 
L 79.9 192.031125 
Q 77.9 192.031125 77.9 194.031125 
L 77.9 295.778 
Q 77.9 297.778 79.9 297.778 
z
" style="fill: #ffffff; opacity: 0.8; stroke: #e6e6e6; stroke-linejoin: miter"/>
    </g>
    <g id="line2d_31">
     <path d="M 81.9 200.129563 
L 91.9 200.129563 
L 101.9 200.129563 
" style="fill: none; stroke: #808080; stroke-width: 1.5; stroke-linecap: square"/>
    </g>
    <g id="text_14">
     <!-- GameStop Log-Volatility -->
     <g transform="translate(109.9 203.629563)scale(0.1 -0.1)">
      <defs>
       <path id="DejaVuSans-47" d="M 3809 666 
L 3809 1919 
L 2778 1919 
L 2778 2438 
L 4434 2438 
L 4434 434 
Q 4069 175 3628 42 
Q 3188 -91 2688 -91 
Q 1594 -91 976 548 
Q 359 1188 359 2328 
Q 359 3472 976 4111 
Q 1594 4750 2688 4750 
Q 3144 4750 3555 4637 
Q 3966 4525 4313 4306 
L 4313 3634 
Q 3963 3931 3569 4081 
Q 3175 4231 2741 4231 
Q 1884 4231 1454 3753 
Q 1025 3275 1025 2328 
Q 1025 1384 1454 906 
Q 1884 428 2741 428 
Q 3075 428 3337 486 
Q 3600 544 3809 666 
z
" transform="scale(0.015625)"/>
       <path id="DejaVuSans-53" d="M 3425 4513 
L 3425 3897 
Q 3066 4069 2747 4153 
Q 2428 4238 2131 4238 
Q 1616 4238 1336 4038 
Q 1056 3838 1056 3469 
Q 1056 3159 1242 3001 
Q 1428 2844 1947 2747 
L 2328 2669 
Q 3034 2534 3370 2195 
Q 3706 1856 3706 1288 
Q 3706 609 3251 259 
Q 2797 -91 1919 -91 
Q 1588 -91 1214 -16 
Q 841 59 441 206 
L 441 856 
Q 825 641 1194 531 
Q 1563 422 1919 422 
Q 2459 422 2753 634 
Q 3047 847 3047 1241 
Q 3047 1584 2836 1778 
Q 2625 1972 2144 2069 
L 1759 2144 
Q 1053 2284 737 2584 
Q 422 2884 422 3419 
Q 422 4038 858 4394 
Q 1294 4750 2059 4750 
Q 2388 4750 2728 4690 
Q 3069 4631 3425 4513 
z
" transform="scale(0.015625)"/>
       <path id="DejaVuSans-70" d="M 1159 525 
L 1159 -1331 
L 581 -1331 
L 581 3500 
L 1159 3500 
L 1159 2969 
Q 1341 3281 1617 3432 
Q 1894 3584 2278 3584 
Q 2916 3584 3314 3078 
Q 3713 2572 3713 1747 
Q 3713 922 3314 415 
Q 2916 -91 2278 -91 
Q 1894 -91 1617 61 
Q 1341 213 1159 525 
z
M 3116 1747 
Q 3116 2381 2855 2742 
Q 2594 3103 2138 3103 
Q 1681 3103 1420 2742 
Q 1159 2381 1159 1747 
Q 1159 1113 1420 752 
Q 1681 391 2138 391 
Q 2594 391 2855 752 
Q 3116 1113 3116 1747 
z
" transform="scale(0.015625)"/>
       <path id="DejaVuSans-4c" d="M 628 4666 
L 1259 4666 
L 1259 531 
L 3531 531 
L 3531 0 
L 628 0 
L 628 4666 
z
" transform="scale(0.015625)"/>
       <path id="DejaVuSans-67" d="M 2906 1791 
Q 2906 2416 2648 2759 
Q 2391 3103 1925 3103 
Q 1463 3103 1205 2759 
Q 947 2416 947 1791 
Q 947 1169 1205 825 
Q 1463 481 1925 481 
Q 2391 481 2648 825 
Q 2906 1169 2906 1791 
z
M 3481 434 
Q 3481 -459 3084 -895 
Q 2688 -1331 1869 -1331 
Q 1566 -1331 1297 -1286 
Q 1028 -1241 775 -1147 
L 775 -588 
Q 1028 -725 1275 -790 
Q 1522 -856 1778 -856 
Q 2344 -856 2625 -561 
Q 2906 -266 2906 331 
L 2906 616 
Q 2728 306 2450 153 
Q 2172 0 1784 0 
Q 1141 0 747 490 
Q 353 981 353 1791 
Q 353 2603 747 3093 
Q 1141 3584 1784 3584 
Q 2172 3584 2450 3431 
Q 2728 3278 2906 2969 
L 2906 3500 
L 3481 3500 
L 3481 434 
z
" transform="scale(0.015625)"/>
      </defs>
      <use xlink:href="#DejaVuSans-47"/>
      <use xlink:href="#DejaVuSans-61" x="77.490234"/>
      <use xlink:href="#DejaVuSans-6d" x="138.769531"/>
      <use xlink:href="#DejaVuSans-65" x="236.181641"/>
      <use xlink:href="#DejaVuSans-53" x="297.705078"/>
      <use xlink:href="#DejaVuSans-74" x="361.181641"/>
      <use xlink:href="#DejaVuSans-6f" x="400.390625"/>
      <use xlink:href="#DejaVuSans-70" x="461.572266"/>
      <use xlink:href="#DejaVuSans-20" x="525.048828"/>
      <use xlink:href="#DejaVuSans-4c" x="556.835938"/>
      <use xlink:href="#DejaVuSans-6f" x="610.798828"/>
      <use xlink:href="#DejaVuSans-67" x="671.980469"/>
      <use xlink:href="#DejaVuSans-2d" x="735.457031"/>
      <use xlink:href="#DejaVuSans-56" x="765.666016"/>
      <use xlink:href="#DejaVuSans-6f" x="826.324219"/>
      <use xlink:href="#DejaVuSans-6c" x="887.505859"/>
      <use xlink:href="#DejaVuSans-61" x="915.289062"/>
      <use xlink:href="#DejaVuSans-74" x="976.568359"/>
      <use xlink:href="#DejaVuSans-69" x="1015.777344"/>
      <use xlink:href="#DejaVuSans-6c" x="1043.560547"/>
      <use xlink:href="#DejaVuSans-69" x="1071.34375"/>
      <use xlink:href="#DejaVuSans-74" x="1099.126953"/>
      <use xlink:href="#DejaVuSans-79" x="1138.335938"/>
     </g>
    </g>
    <g id="line2d_32">
     <path d="M 81.9 214.807688 
L 91.9 214.807688 
L 101.9 214.807688 
" style="fill: none; stroke-dasharray: 1.5,2.475; stroke-dashoffset: 0; stroke: #ff0000; stroke-width: 1.5"/>
    </g>
    <g id="text_15">
     <!-- R/S Hurst -->
     <g transform="translate(109.9 218.307688)scale(0.1 -0.1)">
      <defs>
       <path id="DejaVuSans-52" d="M 2841 2188 
Q 3044 2119 3236 1894 
Q 3428 1669 3622 1275 
L 4263 0 
L 3584 0 
L 2988 1197 
Q 2756 1666 2539 1819 
Q 2322 1972 1947 1972 
L 1259 1972 
L 1259 0 
L 628 0 
L 628 4666 
L 2053 4666 
Q 2853 4666 3247 4331 
Q 3641 3997 3641 3322 
Q 3641 2881 3436 2590 
Q 3231 2300 2841 2188 
z
M 1259 4147 
L 1259 2491 
L 2053 2491 
Q 2509 2491 2742 2702 
Q 2975 2913 2975 3322 
Q 2975 3731 2742 3939 
Q 2509 4147 2053 4147 
L 1259 4147 
z
" transform="scale(0.015625)"/>
       <path id="DejaVuSans-2f" d="M 1625 4666 
L 2156 4666 
L 531 -594 
L 0 -594 
L 1625 4666 
z
" transform="scale(0.015625)"/>
      </defs>
      <use xlink:href="#DejaVuSans-52"/>
      <use xlink:href="#DejaVuSans-2f" x="69.482422"/>
      <use xlink:href="#DejaVuSans-53" x="103.173828"/>
      <use xlink:href="#DejaVuSans-20" x="166.650391"/>
      <use xlink:href="#DejaVuSans-48" x="198.4375"/>
      <use xlink:href="#DejaVuSans-75" x="273.632812"/>
      <use xlink:href="#DejaVuSans-72" x="337.011719"/>
      <use xlink:href="#DejaVuSans-73" x="378.125"/>
      <use xlink:href="#DejaVuSans-74" x="430.224609"/>
     </g>
    </g>
    <g id="line2d_33">
     <path d="M 81.9 229.485813 
L 91.9 229.485813 
L 101.9 229.485813 
" style="fill: none; stroke-dasharray: 9.6,2.4,1.5,2.4; stroke-dashoffset: 0; stroke: #ff0000; stroke-width: 1.5"/>
    </g>
    <g id="text_16">
     <!-- variogram Hurst -->
     <g transform="translate(109.9 232.985813)scale(0.1 -0.1)">
      <defs>
       <path id="DejaVuSans-76" d="M 191 3500 
L 800 3500 
L 1894 563 
L 2988 3500 
L 3597 3500 
L 2284 0 
L 1503 0 
L 191 3500 
z
" transform="scale(0.015625)"/>
      </defs>
      <use xlink:href="#DejaVuSans-76"/>
      <use xlink:href="#DejaVuSans-61" x="59.179688"/>
      <use xlink:href="#DejaVuSans-72" x="120.458984"/>
      <use xlink:href="#DejaVuSans-69" x="161.572266"/>
      <use xlink:href="#DejaVuSans-6f" x="189.355469"/>
      <use xlink:href="#DejaVuSans-67" x="250.537109"/>
      <use xlink:href="#DejaVuSans-72" x="314.013672"/>
      <use xlink:href="#DejaVuSans-61" x="355.126953"/>
      <use xlink:href="#DejaVuSans-6d" x="416.40625"/>
      <use xlink:href="#DejaVuSans-20" x="513.818359"/>
      <use xlink:href="#DejaVuSans-48" x="545.605469"/>
      <use xlink:href="#DejaVuSans-75" x="620.800781"/>
      <use xlink:href="#DejaVuSans-72" x="684.179688"/>
      <use xlink:href="#DejaVuSans-73" x="725.292969"/>
      <use xlink:href="#DejaVuSans-74" x="777.392578"/>
     </g>
    </g>
    <g id="line2d_34">
     <path d="M 81.9 244.163938 
L 91.9 244.163938 
L 101.9 244.163938 
" style="fill: none; stroke-dasharray: 5.55,2.4; stroke-dashoffset: 0; stroke: #ff0000; stroke-width: 1.5"/>
    </g>
    <g id="text_17">
     <!-- Higuchi Hurst -->
     <g transform="translate(109.9 247.663938)scale(0.1 -0.1)">
      <defs>
       <path id="DejaVuSans-63" d="M 3122 3366 
L 3122 2828 
Q 2878 2963 2633 3030 
Q 2388 3097 2138 3097 
Q 1578 3097 1268 2742 
Q 959 2388 959 1747 
Q 959 1106 1268 751 
Q 1578 397 2138 397 
Q 2388 397 2633 464 
Q 2878 531 3122 666 
L 3122 134 
Q 2881 22 2623 -34 
Q 2366 -91 2075 -91 
Q 1284 -91 818 406 
Q 353 903 353 1747 
Q 353 2603 823 3093 
Q 1294 3584 2113 3584 
Q 2378 3584 2631 3529 
Q 2884 3475 3122 3366 
z
" transform="scale(0.015625)"/>
       <path id="DejaVuSans-68" d="M 3513 2113 
L 3513 0 
L 2938 0 
L 2938 2094 
Q 2938 2591 2744 2837 
Q 2550 3084 2163 3084 
Q 1697 3084 1428 2787 
Q 1159 2491 1159 1978 
L 1159 0 
L 581 0 
L 581 4863 
L 1159 4863 
L 1159 2956 
Q 1366 3272 1645 3428 
Q 1925 3584 2291 3584 
Q 2894 3584 3203 3211 
Q 3513 2838 3513 2113 
z
" transform="scale(0.015625)"/>
      </defs>
      <use xlink:href="#DejaVuSans-48"/>
      <use xlink:href="#DejaVuSans-69" x="75.195312"/>
      <use xlink:href="#DejaVuSans-67" x="102.978516"/>
      <use xlink:href="#DejaVuSans-75" x="166.455078"/>
      <use xlink:href="#DejaVuSans-63" x="229.833984"/>
      <use xlink:href="#DejaVuSans-68" x="284.814453"/>
      <use xlink:href="#DejaVuSans-69" x="348.193359"/>
      <use xlink:href="#DejaVuSans-20" x="375.976562"/>
      <use xlink:href="#DejaVuSans-48" x="407.763672"/>
      <use xlink:href="#DejaVuSans-75" x="482.958984"/>
      <use xlink:href="#DejaVuSans-72" x="546.337891"/>
      <use xlink:href="#DejaVuSans-73" x="587.451172"/>
      <use xlink:href="#DejaVuSans-74" x="639.550781"/>
     </g>
    </g>
    <g id="line2d_35">
     <path d="M 81.9 258.842062 
L 91.9 258.842062 
L 101.9 258.842062 
" style="fill: none; stroke: #ff0000; stroke-width: 1.5; stroke-linecap: square"/>
    </g>
    <g id="text_18">
     <!-- Whittle Hurst -->
     <g transform="translate(109.9 262.342062)scale(0.1 -0.1)">
      <defs>
       <path id="DejaVuSans-57" d="M 213 4666 
L 850 4666 
L 1831 722 
L 2809 4666 
L 3519 4666 
L 4500 722 
L 5478 4666 
L 6119 4666 
L 4947 0 
L 4153 0 
L 3169 4050 
L 2175 0 
L 1381 0 
L 213 4666 
z
" transform="scale(0.015625)"/>
      </defs>
      <use xlink:href="#DejaVuSans-57"/>
      <use xlink:href="#DejaVuSans-68" x="98.876953"/>
      <use xlink:href="#DejaVuSans-69" x="162.255859"/>
      <use xlink:href="#DejaVuSans-74" x="190.039062"/>
      <use xlink:href="#DejaVuSans-74" x="229.248047"/>
      <use xlink:href="#DejaVuSans-6c" x="268.457031"/>
      <use xlink:href="#DejaVuSans-65" x="296.240234"/>
      <use xlink:href="#DejaVuSans-20" x="357.763672"/>
      <use xlink:href="#DejaVuSans-48" x="389.550781"/>
      <use xlink:href="#DejaVuSans-75" x="464.746094"/>
      <use xlink:href="#DejaVuSans-72" x="528.125"/>
      <use xlink:href="#DejaVuSans-73" x="569.238281"/>
      <use xlink:href="#DejaVuSans-74" x="621.337891"/>
     </g>
    </g>
    <g id="line2d_36">
     <path d="M 81.9 273.520188 
L 91.9 273.520188 
L 101.9 273.520188 
" style="fill: none; stroke: #ff7f0e; stroke-width: 1.5; stroke-linecap: square"/>
    </g>
    <g id="text_19">
     <!-- 1D CNN Hurst -->
     <g transform="translate(109.9 277.020188)scale(0.1 -0.1)">
      <defs>
       <path id="DejaVuSans-43" d="M 4122 4306 
L 4122 3641 
Q 3803 3938 3442 4084 
Q 3081 4231 2675 4231 
Q 1875 4231 1450 3742 
Q 1025 3253 1025 2328 
Q 1025 1406 1450 917 
Q 1875 428 2675 428 
Q 3081 428 3442 575 
Q 3803 722 4122 1019 
L 4122 359 
Q 3791 134 3420 21 
Q 3050 -91 2638 -91 
Q 1578 -91 968 557 
Q 359 1206 359 2328 
Q 359 3453 968 4101 
Q 1578 4750 2638 4750 
Q 3056 4750 3426 4639 
Q 3797 4528 4122 4306 
z
" transform="scale(0.015625)"/>
       <path id="DejaVuSans-4e" d="M 628 4666 
L 1478 4666 
L 3547 763 
L 3547 4666 
L 4159 4666 
L 4159 0 
L 3309 0 
L 1241 3903 
L 1241 0 
L 628 0 
L 628 4666 
z
" transform="scale(0.015625)"/>
      </defs>
      <use xlink:href="#DejaVuSans-31"/>
      <use xlink:href="#DejaVuSans-44" x="63.623047"/>
      <use xlink:href="#DejaVuSans-20" x="140.625"/>
      <use xlink:href="#DejaVuSans-43" x="172.412109"/>
      <use xlink:href="#DejaVuSans-4e" x="242.236328"/>
      <use xlink:href="#DejaVuSans-4e" x="317.041016"/>
      <use xlink:href="#DejaVuSans-20" x="391.845703"/>
      <use xlink:href="#DejaVuSans-48" x="423.632812"/>
      <use xlink:href="#DejaVuSans-75" x="498.828125"/>
      <use xlink:href="#DejaVuSans-72" x="562.207031"/>
      <use xlink:href="#DejaVuSans-73" x="603.320312"/>
      <use xlink:href="#DejaVuSans-74" x="655.419922"/>
     </g>
    </g>
    <g id="line2d_37">
     <path d="M 81.9 288.198313 
L 91.9 288.198313 
L 101.9 288.198313 
" style="fill: none; stroke: #1f77b4; stroke-width: 1.5; stroke-linecap: square"/>
    </g>
    <g id="text_20">
     <!-- LSTM Hurst -->
     <g transform="translate(109.9 291.698313)scale(0.1 -0.1)">
      <defs>
       <path id="DejaVuSans-54" d="M -19 4666 
L 3928 4666 
L 3928 4134 
L 2272 4134 
L 2272 0 
L 1638 0 
L 1638 4134 
L -19 4134 
L -19 4666 
z
" transform="scale(0.015625)"/>
       <path id="DejaVuSans-4d" d="M 628 4666 
L 1569 4666 
L 2759 1491 
L 3956 4666 
L 4897 4666 
L 4897 0 
L 4281 0 
L 4281 4097 
L 3078 897 
L 2444 897 
L 1241 4097 
L 1241 0 
L 628 0 
L 628 4666 
z
" transform="scale(0.015625)"/>
      </defs>
      <use xlink:href="#DejaVuSans-4c"/>
      <use xlink:href="#DejaVuSans-53" x="55.712891"/>
      <use xlink:href="#DejaVuSans-54" x="119.189453"/>
      <use xlink:href="#DejaVuSans-4d" x="180.273438"/>
      <use xlink:href="#DejaVuSans-20" x="266.552734"/>
      <use xlink:href="#DejaVuSans-48" x="298.339844"/>
      <use xlink:href="#DejaVuSans-75" x="373.535156"/>
      <use xlink:href="#DejaVuSans-72" x="436.914062"/>
      <use xlink:href="#DejaVuSans-73" x="478.027344"/>
      <use xlink:href="#DejaVuSans-74" x="530.126953"/>
     </g>
    </g>
   </g>
  </g>
 </g>
 <defs>
  <clipPath id="p58028b3266">
   <rect x="72.9" y="40.824" width="451.98" height="261.954"/>
  </clipPath>
 </defs>
</svg>
