<?xml version="1.0" encoding="utf-8" standalone="no"?>
<!DOCTYPE svg PUBLIC "-//W3C//DTD SVG 1.1//EN"
  "http://www.w3.org/Graphics/SVG/1.1/DTD/svg11.dtd">
<svg xmlns:xlink="http://www.w3.org/1999/xlink" width="583.2pt" height="340.2pt" viewBox="0 0 583.2 340.2" xmlns="http://www.w3.org/2000/svg" version="1.1">
 <metadata>
  <rdf:RDF xmlns:dc="http://purl.org/dc/elements/1.1/" xmlns:cc="http://creativecommons.org/ns#" xmlns:rdf="http://www.w3.org/1999/02/22-rdf-syntax-ns#">
   <cc:Work>
    <dc:type rdf:resource="http://purl.org/dc/dcmitype/StillImage"/>
    <dc:date>2024-06-30T11:22:03.626842</dc:date>
    <dc:format>image/svg+xml</dc:format>
    <dc:creator>
     <cc:Agent>
      <dc:title>Matplotlib v3.5.1, https://matplotlib.org/</dc:title>
     </cc:Agent>
    </dc:creator>
   </cc:Work>
  </rdf:RDF>
 </metadata>
 <defs>
  <style type="text/css">*{stroke-linejoin: round; stroke-linecap: butt}</style>
 </defs>
 <g id="figure_1">
  <g id="patch_1">
   <path d="M 0 340.2 
L 583.2 340.2 
L 583.2 0 
L 0 0 
z
" style="fill: #ffffff"/>
  </g>
  <g id="axes_1">
   <g id="patch_2">
    <path d="M 72.9 302.778 
L 524.88 302.778 
L 524.88 40.824 
L 72.9 40.824 
L 72.9 302.778 
z
" style="fill: none; opacity: 0"/>
   </g>
   <g id="matplotlib.axis_1">
    <g id="xtick_1">
     <g id="line2d_1">
      <path d="M 93.029364 302.778 
L 93.029364 40.824 
" clip-path="url(#pdb6430d389)" style="fill: none; stroke: #e6e6e6; stroke-width: 0.8; stroke-linecap: square"/>
     </g>
     <g id="line2d_2">
      <defs>
       <path id="me898254a75" d="M 0 0 
L 0 3.5 
" style="stroke: #000000; stroke-width: 0.8"/>
      </defs>
      <g>
       <use xlink:href="#me898254a75" x="93.029364" y="302.778" style="stroke: #000000; stroke-width: 0.8"/>
      </g>
     </g>
     <g id="text_1">
      <!-- 2000 -->
      <g transform="translate(80.304364 317.376438)scale(0.1 -0.1)">
       <defs>
        <path id="DejaVuSans-32" d="M 1228 531 
L 3431 531 
L 3431 0 
L 469 0 
L 469 531 
Q 828 903 1448 1529 
Q 2069 2156 2228 2338 
Q 2531 2678 2651 2914 
Q 2772 3150 2772 3378 
Q 2772 3750 2511 3984 
Q 2250 4219 1831 4219 
Q 1534 4219 1204 4116 
Q 875 4013 500 3803 
L 500 4441 
Q 881 4594 1212 4672 
Q 1544 4750 1819 4750 
Q 2544 4750 2975 4387 
Q 3406 4025 3406 3419 
Q 3406 3131 3298 2873 
Q 3191 2616 2906 2266 
Q 2828 2175 2409 1742 
Q 1991 1309 1228 531 
z
" transform="scale(0.015625)"/>
        <path id="DejaVuSans-30" d="M 2034 4250 
Q 1547 4250 1301 3770 
Q 1056 3291 1056 2328 
Q 1056 1369 1301 889 
Q 1547 409 2034 409 
Q 2525 409 2770 889 
Q 3016 1369 3016 2328 
Q 3016 3291 2770 3770 
Q 2525 4250 2034 4250 
z
M 2034 4750 
Q 2819 4750 3233 4129 
Q 3647 3509 3647 2328 
Q 3647 1150 3233 529 
Q 2819 -91 2034 -91 
Q 1250 -91 836 529 
Q 422 1150 422 2328 
Q 422 3509 836 4129 
Q 1250 4750 2034 4750 
z
" transform="scale(0.015625)"/>
       </defs>
       <use xlink:href="#DejaVuSans-32"/>
       <use xlink:href="#DejaVuSans-30" x="63.623047"/>
       <use xlink:href="#DejaVuSans-30" x="127.246094"/>
       <use xlink:href="#DejaVuSans-30" x="190.869141"/>
      </g>
     </g>
    </g>
    <g id="xtick_2">
     <g id="line2d_3">
      <path d="M 160.427099 302.778 
L 160.427099 40.824 
" clip-path="url(#pdb6430d389)" style="fill: none; stroke: #e6e6e6; stroke-width: 0.8; stroke-linecap: square"/>
     </g>
     <g id="line2d_4">
      <g>
       <use xlink:href="#me898254a75" x="160.427099" y="302.778" style="stroke: #000000; stroke-width: 0.8"/>
      </g>
     </g>
     <g id="text_2">
      <!-- 2004 -->
      <g transform="translate(147.702099 317.376438)scale(0.1 -0.1)">
       <defs>
        <path id="DejaVuSans-34" d="M 2419 4116 
L 825 1625 
L 2419 1625 
L 2419 4116 
z
M 2253 4666 
L 3047 4666 
L 3047 1625 
L 3713 1625 
L 3713 1100 
L 3047 1100 
L 3047 0 
L 2419 0 
L 2419 1100 
L 313 1100 
L 313 1709 
L 2253 4666 
z
" transform="scale(0.015625)"/>
       </defs>
       <use xlink:href="#DejaVuSans-32"/>
       <use xlink:href="#DejaVuSans-30" x="63.623047"/>
       <use xlink:href="#DejaVuSans-30" x="127.246094"/>
       <use xlink:href="#DejaVuSans-34" x="190.869141"/>
      </g>
     </g>
    </g>
    <g id="xtick_3">
     <g id="line2d_5">
      <path d="M 227.824833 302.778 
L 227.824833 40.824 
" clip-path="url(#pdb6430d389)" style="fill: none; stroke: #e6e6e6; stroke-width: 0.8; stroke-linecap: square"/>
     </g>
     <g id="line2d_6">
      <g>
       <use xlink:href="#me898254a75" x="227.824833" y="302.778" style="stroke: #000000; stroke-width: 0.8"/>
      </g>
     </g>
     <g id="text_3">
      <!-- 2008 -->
      <g transform="translate(215.099833 317.376438)scale(0.1 -0.1)">
       <defs>
        <path id="DejaVuSans-38" d="M 2034 2216 
Q 1584 2216 1326 1975 
Q 1069 1734 1069 1313 
Q 1069 891 1326 650 
Q 1584 409 2034 409 
Q 2484 409 2743 651 
Q 3003 894 3003 1313 
Q 3003 1734 2745 1975 
Q 2488 2216 2034 2216 
z
M 1403 2484 
Q 997 2584 770 2862 
Q 544 3141 544 3541 
Q 544 4100 942 4425 
Q 1341 4750 2034 4750 
Q 2731 4750 3128 4425 
Q 3525 4100 3525 3541 
Q 3525 3141 3298 2862 
Q 3072 2584 2669 2484 
Q 3125 2378 3379 2068 
Q 3634 1759 3634 1313 
Q 3634 634 3220 271 
Q 2806 -91 2034 -91 
Q 1263 -91 848 271 
Q 434 634 434 1313 
Q 434 1759 690 2068 
Q 947 2378 1403 2484 
z
M 1172 3481 
Q 1172 3119 1398 2916 
Q 1625 2713 2034 2713 
Q 2441 2713 2670 2916 
Q 2900 3119 2900 3481 
Q 2900 3844 2670 4047 
Q 2441 4250 2034 4250 
Q 1625 4250 1398 4047 
Q 1172 3844 1172 3481 
z
" transform="scale(0.015625)"/>
       </defs>
       <use xlink:href="#DejaVuSans-32"/>
       <use xlink:href="#DejaVuSans-30" x="63.623047"/>
       <use xlink:href="#DejaVuSans-30" x="127.246094"/>
       <use xlink:href="#DejaVuSans-38" x="190.869141"/>
      </g>
     </g>
    </g>
    <g id="xtick_4">
     <g id="line2d_7">
      <path d="M 295.222567 302.778 
L 295.222567 40.824 
" clip-path="url(#pdb6430d389)" style="fill: none; stroke: #e6e6e6; stroke-width: 0.8; stroke-linecap: square"/>
     </g>
     <g id="line2d_8">
      <g>
       <use xlink:href="#me898254a75" x="295.222567" y="302.778" style="stroke: #000000; stroke-width: 0.8"/>
      </g>
     </g>
     <g id="text_4">
      <!-- 2012 -->
      <g transform="translate(282.497567 317.376438)scale(0.1 -0.1)">
       <defs>
        <path id="DejaVuSans-31" d="M 794 531 
L 1825 531 
L 1825 4091 
L 703 3866 
L 703 4441 
L 1819 4666 
L 2450 4666 
L 2450 531 
L 3481 531 
L 3481 0 
L 794 0 
L 794 531 
z
" transform="scale(0.015625)"/>
       </defs>
       <use xlink:href="#DejaVuSans-32"/>
       <use xlink:href="#DejaVuSans-30" x="63.623047"/>
       <use xlink:href="#DejaVuSans-31" x="127.246094"/>
       <use xlink:href="#DejaVuSans-32" x="190.869141"/>
      </g>
     </g>
    </g>
    <g id="xtick_5">
     <g id="line2d_9">
      <path d="M 362.620301 302.778 
L 362.620301 40.824 
" clip-path="url(#pdb6430d389)" style="fill: none; stroke: #e6e6e6; stroke-width: 0.8; stroke-linecap: square"/>
     </g>
     <g id="line2d_10">
      <g>
       <use xlink:href="#me898254a75" x="362.620301" y="302.778" style="stroke: #000000; stroke-width: 0.8"/>
      </g>
     </g>
     <g id="text_5">
      <!-- 2016 -->
      <g transform="translate(349.895301 317.376438)scale(0.1 -0.1)">
       <defs>
        <path id="DejaVuSans-36" d="M 2113 2584 
Q 1688 2584 1439 2293 
Q 1191 2003 1191 1497 
Q 1191 994 1439 701 
Q 1688 409 2113 409 
Q 2538 409 2786 701 
Q 3034 994 3034 1497 
Q 3034 2003 2786 2293 
Q 2538 2584 2113 2584 
z
M 3366 4563 
L 3366 3988 
Q 3128 4100 2886 4159 
Q 2644 4219 2406 4219 
Q 1781 4219 1451 3797 
Q 1122 3375 1075 2522 
Q 1259 2794 1537 2939 
Q 1816 3084 2150 3084 
Q 2853 3084 3261 2657 
Q 3669 2231 3669 1497 
Q 3669 778 3244 343 
Q 2819 -91 2113 -91 
Q 1303 -91 875 529 
Q 447 1150 447 2328 
Q 447 3434 972 4092 
Q 1497 4750 2381 4750 
Q 2619 4750 2861 4703 
Q 3103 4656 3366 4563 
z
" transform="scale(0.015625)"/>
       </defs>
       <use xlink:href="#DejaVuSans-32"/>
       <use xlink:href="#DejaVuSans-30" x="63.623047"/>
       <use xlink:href="#DejaVuSans-31" x="127.246094"/>
       <use xlink:href="#DejaVuSans-36" x="190.869141"/>
      </g>
     </g>
    </g>
    <g id="xtick_6">
     <g id="line2d_11">
      <path d="M 430.018035 302.778 
L 430.018035 40.824 
" clip-path="url(#pdb6430d389)" style="fill: none; stroke: #e6e6e6; stroke-width: 0.8; stroke-linecap: square"/>
     </g>
     <g id="line2d_12">
      <g>
       <use xlink:href="#me898254a75" x="430.018035" y="302.778" style="stroke: #000000; stroke-width: 0.8"/>
      </g>
     </g>
     <g id="text_6">
      <!-- 2020 -->
      <g transform="translate(417.293035 317.376438)scale(0.1 -0.1)">
       <use xlink:href="#DejaVuSans-32"/>
       <use xlink:href="#DejaVuSans-30" x="63.623047"/>
       <use xlink:href="#DejaVuSans-32" x="127.246094"/>
       <use xlink:href="#DejaVuSans-30" x="190.869141"/>
      </g>
     </g>
    </g>
    <g id="xtick_7">
     <g id="line2d_13">
      <path d="M 497.415769 302.778 
L 497.415769 40.824 
" clip-path="url(#pdb6430d389)" style="fill: none; stroke: #e6e6e6; stroke-width: 0.8; stroke-linecap: square"/>
     </g>
     <g id="line2d_14">
      <g>
       <use xlink:href="#me898254a75" x="497.415769" y="302.778" style="stroke: #000000; stroke-width: 0.8"/>
      </g>
     </g>
     <g id="text_7">
      <!-- 2024 -->
      <g transform="translate(484.690769 317.376438)scale(0.1 -0.1)">
       <use xlink:href="#DejaVuSans-32"/>
       <use xlink:href="#DejaVuSans-30" x="63.623047"/>
       <use xlink:href="#DejaVuSans-32" x="127.246094"/>
       <use xlink:href="#DejaVuSans-34" x="190.869141"/>
      </g>
     </g>
    </g>
    <g id="text_8">
     <!-- Date -->
     <g transform="translate(286.939219 331.054562)scale(0.1 -0.1)">
      <defs>
       <path id="DejaVuSans-44" d="M 1259 4147 
L 1259 519 
L 2022 519 
Q 2988 519 3436 956 
Q 3884 1394 3884 2338 
Q 3884 3275 3436 3711 
Q 2988 4147 2022 4147 
L 1259 4147 
z
M 628 4666 
L 1925 4666 
Q 3281 4666 3915 4102 
Q 4550 3538 4550 2338 
Q 4550 1131 3912 565 
Q 3275 0 1925 0 
L 628 0 
L 628 4666 
z
" transform="scale(0.015625)"/>
       <path id="DejaVuSans-61" d="M 2194 1759 
Q 1497 1759 1228 1600 
Q 959 1441 959 1056 
Q 959 750 1161 570 
Q 1363 391 1709 391 
Q 2188 391 2477 730 
Q 2766 1069 2766 1631 
L 2766 1759 
L 2194 1759 
z
M 3341 1997 
L 3341 0 
L 2766 0 
L 2766 531 
Q 2569 213 2275 61 
Q 1981 -91 1556 -91 
Q 1019 -91 701 211 
Q 384 513 384 1019 
Q 384 1609 779 1909 
Q 1175 2209 1959 2209 
L 2766 2209 
L 2766 2266 
Q 2766 2663 2505 2880 
Q 2244 3097 1772 3097 
Q 1472 3097 1187 3025 
Q 903 2953 641 2809 
L 641 3341 
Q 956 3463 1253 3523 
Q 1550 3584 1831 3584 
Q 2591 3584 2966 3190 
Q 3341 2797 3341 1997 
z
" transform="scale(0.015625)"/>
       <path id="DejaVuSans-74" d="M 1172 4494 
L 1172 3500 
L 2356 3500 
L 2356 3053 
L 1172 3053 
L 1172 1153 
Q 1172 725 1289 603 
Q 1406 481 1766 481 
L 2356 481 
L 2356 0 
L 1766 0 
Q 1100 0 847 248 
Q 594 497 594 1153 
L 594 3053 
L 172 3053 
L 172 3500 
L 594 3500 
L 594 4494 
L 1172 4494 
z
" transform="scale(0.015625)"/>
       <path id="DejaVuSans-65" d="M 3597 1894 
L 3597 1613 
L 953 1613 
Q 991 1019 1311 708 
Q 1631 397 2203 397 
Q 2534 397 2845 478 
Q 3156 559 3463 722 
L 3463 178 
Q 3153 47 2828 -22 
Q 2503 -91 2169 -91 
Q 1331 -91 842 396 
Q 353 884 353 1716 
Q 353 2575 817 3079 
Q 1281 3584 2069 3584 
Q 2775 3584 3186 3129 
Q 3597 2675 3597 1894 
z
M 3022 2063 
Q 3016 2534 2758 2815 
Q 2500 3097 2075 3097 
Q 1594 3097 1305 2825 
Q 1016 2553 972 2059 
L 3022 2063 
z
" transform="scale(0.015625)"/>
      </defs>
      <use xlink:href="#DejaVuSans-44"/>
      <use xlink:href="#DejaVuSans-61" x="77.001953"/>
      <use xlink:href="#DejaVuSans-74" x="138.28125"/>
      <use xlink:href="#DejaVuSans-65" x="177.490234"/>
     </g>
    </g>
   </g>
   <g id="matplotlib.axis_2">
    <g id="ytick_1">
     <g id="line2d_15">
      <path d="M 72.9 294.894675 
L 524.88 294.894675 
" clip-path="url(#pdb6430d389)" style="fill: none; stroke: #e6e6e6; stroke-width: 0.8; stroke-linecap: square"/>
     </g>
     <g id="line2d_16">
      <defs>
       <path id="mbff556938d" d="M 0 0 
L -3.5 0 
" style="stroke: #000000; stroke-width: 0.8"/>
      </defs>
      <g>
       <use xlink:href="#mbff556938d" x="72.9" y="294.894675" style="stroke: #000000; stroke-width: 0.8"/>
      </g>
     </g>
     <g id="text_9">
      <!-- −0.2 -->
      <g transform="translate(41.617187 298.693894)scale(0.1 -0.1)">
       <defs>
        <path id="DejaVuSans-2212" d="M 678 2272 
L 4684 2272 
L 4684 1741 
L 678 1741 
L 678 2272 
z
" transform="scale(0.015625)"/>
        <path id="DejaVuSans-2e" d="M 684 794 
L 1344 794 
L 1344 0 
L 684 0 
L 684 794 
z
" transform="scale(0.015625)"/>
       </defs>
       <use xlink:href="#DejaVuSans-2212"/>
       <use xlink:href="#DejaVuSans-30" x="83.789062"/>
       <use xlink:href="#DejaVuSans-2e" x="147.412109"/>
       <use xlink:href="#DejaVuSans-32" x="179.199219"/>
      </g>
     </g>
    </g>
    <g id="ytick_2">
     <g id="line2d_17">
      <path d="M 72.9 265.127039 
L 524.88 265.127039 
" clip-path="url(#pdb6430d389)" style="fill: none; stroke: #e6e6e6; stroke-width: 0.8; stroke-linecap: square"/>
     </g>
     <g id="line2d_18">
      <g>
       <use xlink:href="#mbff556938d" x="72.9" y="265.127039" style="stroke: #000000; stroke-width: 0.8"/>
      </g>
     </g>
     <g id="text_10">
      <!-- −0.1 -->
      <g transform="translate(41.617187 268.926258)scale(0.1 -0.1)">
       <use xlink:href="#DejaVuSans-2212"/>
       <use xlink:href="#DejaVuSans-30" x="83.789062"/>
       <use xlink:href="#DejaVuSans-2e" x="147.412109"/>
       <use xlink:href="#DejaVuSans-31" x="179.199219"/>
      </g>
     </g>
    </g>
    <g id="ytick_3">
     <g id="line2d_19">
      <path d="M 72.9 235.359403 
L 524.88 235.359403 
" clip-path="url(#pdb6430d389)" style="fill: none; stroke: #e6e6e6; stroke-width: 0.8; stroke-linecap: square"/>
     </g>
     <g id="line2d_20">
      <g>
       <use xlink:href="#mbff556938d" x="72.9" y="235.359403" style="stroke: #000000; stroke-width: 0.8"/>
      </g>
     </g>
     <g id="text_11">
      <!-- 0.0 -->
      <g transform="translate(49.996875 239.158622)scale(0.1 -0.1)">
       <use xlink:href="#DejaVuSans-30"/>
       <use xlink:href="#DejaVuSans-2e" x="63.623047"/>
       <use xlink:href="#DejaVuSans-30" x="95.410156"/>
      </g>
     </g>
    </g>
    <g id="ytick_4">
     <g id="line2d_21">
      <path d="M 72.9 205.591767 
L 524.88 205.591767 
" clip-path="url(#pdb6430d389)" style="fill: none; stroke: #e6e6e6; stroke-width: 0.8; stroke-linecap: square"/>
     </g>
     <g id="line2d_22">
      <g>
       <use xlink:href="#mbff556938d" x="72.9" y="205.591767" style="stroke: #000000; stroke-width: 0.8"/>
      </g>
     </g>
     <g id="text_12">
      <!-- 0.1 -->
      <g transform="translate(49.996875 209.390986)scale(0.1 -0.1)">
       <use xlink:href="#DejaVuSans-30"/>
       <use xlink:href="#DejaVuSans-2e" x="63.623047"/>
       <use xlink:href="#DejaVuSans-31" x="95.410156"/>
      </g>
     </g>
    </g>
    <g id="ytick_5">
     <g id="line2d_23">
      <path d="M 72.9 175.824131 
L 524.88 175.824131 
" clip-path="url(#pdb6430d389)" style="fill: none; stroke: #e6e6e6; stroke-width: 0.8; stroke-linecap: square"/>
     </g>
     <g id="line2d_24">
      <g>
       <use xlink:href="#mbff556938d" x="72.9" y="175.824131" style="stroke: #000000; stroke-width: 0.8"/>
      </g>
     </g>
     <g id="text_13">
      <!-- 0.2 -->
      <g transform="translate(49.996875 179.62335)scale(0.1 -0.1)">
       <use xlink:href="#DejaVuSans-30"/>
       <use xlink:href="#DejaVuSans-2e" x="63.623047"/>
       <use xlink:href="#DejaVuSans-32" x="95.410156"/>
      </g>
     </g>
    </g>
    <g id="ytick_6">
     <g id="line2d_25">
      <path d="M 72.9 146.056495 
L 524.88 146.056495 
" clip-path="url(#pdb6430d389)" style="fill: none; stroke: #e6e6e6; stroke-width: 0.8; stroke-linecap: square"/>
     </g>
     <g id="line2d_26">
      <g>
       <use xlink:href="#mbff556938d" x="72.9" y="146.056495" style="stroke: #000000; stroke-width: 0.8"/>
      </g>
     </g>
     <g id="text_14">
      <!-- 0.3 -->
      <g transform="translate(49.996875 149.855714)scale(0.1 -0.1)">
       <defs>
        <path id="DejaVuSans-33" d="M 2597 2516 
Q 3050 2419 3304 2112 
Q 3559 1806 3559 1356 
Q 3559 666 3084 287 
Q 2609 -91 1734 -91 
Q 1441 -91 1130 -33 
Q 819 25 488 141 
L 488 750 
Q 750 597 1062 519 
Q 1375 441 1716 441 
Q 2309 441 2620 675 
Q 2931 909 2931 1356 
Q 2931 1769 2642 2001 
Q 2353 2234 1838 2234 
L 1294 2234 
L 1294 2753 
L 1863 2753 
Q 2328 2753 2575 2939 
Q 2822 3125 2822 3475 
Q 2822 3834 2567 4026 
Q 2313 4219 1838 4219 
Q 1578 4219 1281 4162 
Q 984 4106 628 3988 
L 628 4550 
Q 988 4650 1302 4700 
Q 1616 4750 1894 4750 
Q 2613 4750 3031 4423 
Q 3450 4097 3450 3541 
Q 3450 3153 3228 2886 
Q 3006 2619 2597 2516 
z
" transform="scale(0.015625)"/>
       </defs>
       <use xlink:href="#DejaVuSans-30"/>
       <use xlink:href="#DejaVuSans-2e" x="63.623047"/>
       <use xlink:href="#DejaVuSans-33" x="95.410156"/>
      </g>
     </g>
    </g>
    <g id="ytick_7">
     <g id="line2d_27">
      <path d="M 72.9 116.288859 
L 524.88 116.288859 
" clip-path="url(#pdb6430d389)" style="fill: none; stroke: #e6e6e6; stroke-width: 0.8; stroke-linecap: square"/>
     </g>
     <g id="line2d_28">
      <g>
       <use xlink:href="#mbff556938d" x="72.9" y="116.288859" style="stroke: #000000; stroke-width: 0.8"/>
      </g>
     </g>
     <g id="text_15">
      <!-- 0.4 -->
      <g transform="translate(49.996875 120.088078)scale(0.1 -0.1)">
       <use xlink:href="#DejaVuSans-30"/>
       <use xlink:href="#DejaVuSans-2e" x="63.623047"/>
       <use xlink:href="#DejaVuSans-34" x="95.410156"/>
      </g>
     </g>
    </g>
    <g id="ytick_8">
     <g id="line2d_29">
      <path d="M 72.9 86.521223 
L 524.88 86.521223 
" clip-path="url(#pdb6430d389)" style="fill: none; stroke: #e6e6e6; stroke-width: 0.8; stroke-linecap: square"/>
     </g>
     <g id="line2d_30">
      <g>
       <use xlink:href="#mbff556938d" x="72.9" y="86.521223" style="stroke: #000000; stroke-width: 0.8"/>
      </g>
     </g>
     <g id="text_16">
      <!-- 0.5 -->
      <g transform="translate(49.996875 90.320442)scale(0.1 -0.1)">
       <defs>
        <path id="DejaVuSans-35" d="M 691 4666 
L 3169 4666 
L 3169 4134 
L 1269 4134 
L 1269 2991 
Q 1406 3038 1543 3061 
Q 1681 3084 1819 3084 
Q 2600 3084 3056 2656 
Q 3513 2228 3513 1497 
Q 3513 744 3044 326 
Q 2575 -91 1722 -91 
Q 1428 -91 1123 -41 
Q 819 9 494 109 
L 494 744 
Q 775 591 1075 516 
Q 1375 441 1709 441 
Q 2250 441 2565 725 
Q 2881 1009 2881 1497 
Q 2881 1984 2565 2268 
Q 2250 2553 1709 2553 
Q 1456 2553 1204 2497 
Q 953 2441 691 2322 
L 691 4666 
z
" transform="scale(0.015625)"/>
       </defs>
       <use xlink:href="#DejaVuSans-30"/>
       <use xlink:href="#DejaVuSans-2e" x="63.623047"/>
       <use xlink:href="#DejaVuSans-35" x="95.410156"/>
      </g>
     </g>
    </g>
    <g id="ytick_9">
     <g id="line2d_31">
      <path d="M 72.9 56.753587 
L 524.88 56.753587 
" clip-path="url(#pdb6430d389)" style="fill: none; stroke: #e6e6e6; stroke-width: 0.8; stroke-linecap: square"/>
     </g>
     <g id="line2d_32">
      <g>
       <use xlink:href="#mbff556938d" x="72.9" y="56.753587" style="stroke: #000000; stroke-width: 0.8"/>
      </g>
     </g>
     <g id="text_17">
      <!-- 0.6 -->
      <g transform="translate(49.996875 60.552806)scale(0.1 -0.1)">
       <use xlink:href="#DejaVuSans-30"/>
       <use xlink:href="#DejaVuSans-2e" x="63.623047"/>
       <use xlink:href="#DejaVuSans-36" x="95.410156"/>
      </g>
     </g>
    </g>
    <g id="text_18">
     <!-- Volatility and Hurst-estimate -->
     <g transform="translate(35.5375 243.333031)rotate(-90)scale(0.1 -0.1)">
      <defs>
       <path id="DejaVuSans-56" d="M 1831 0 
L 50 4666 
L 709 4666 
L 2188 738 
L 3669 4666 
L 4325 4666 
L 2547 0 
L 1831 0 
z
" transform="scale(0.015625)"/>
       <path id="DejaVuSans-6f" d="M 1959 3097 
Q 1497 3097 1228 2736 
Q 959 2375 959 1747 
Q 959 1119 1226 758 
Q 1494 397 1959 397 
Q 2419 397 2687 759 
Q 2956 1122 2956 1747 
Q 2956 2369 2687 2733 
Q 2419 3097 1959 3097 
z
M 1959 3584 
Q 2709 3584 3137 3096 
Q 3566 2609 3566 1747 
Q 3566 888 3137 398 
Q 2709 -91 1959 -91 
Q 1206 -91 779 398 
Q 353 888 353 1747 
Q 353 2609 779 3096 
Q 1206 3584 1959 3584 
z
" transform="scale(0.015625)"/>
       <path id="DejaVuSans-6c" d="M 603 4863 
L 1178 4863 
L 1178 0 
L 603 0 
L 603 4863 
z
" transform="scale(0.015625)"/>
       <path id="DejaVuSans-69" d="M 603 3500 
L 1178 3500 
L 1178 0 
L 603 0 
L 603 3500 
z
M 603 4863 
L 1178 4863 
L 1178 4134 
L 603 4134 
L 603 4863 
z
" transform="scale(0.015625)"/>
       <path id="DejaVuSans-79" d="M 2059 -325 
Q 1816 -950 1584 -1140 
Q 1353 -1331 966 -1331 
L 506 -1331 
L 506 -850 
L 844 -850 
Q 1081 -850 1212 -737 
Q 1344 -625 1503 -206 
L 1606 56 
L 191 3500 
L 800 3500 
L 1894 763 
L 2988 3500 
L 3597 3500 
L 2059 -325 
z
" transform="scale(0.015625)"/>
       <path id="DejaVuSans-20" transform="scale(0.015625)"/>
       <path id="DejaVuSans-6e" d="M 3513 2113 
L 3513 0 
L 2938 0 
L 2938 2094 
Q 2938 2591 2744 2837 
Q 2550 3084 2163 3084 
Q 1697 3084 1428 2787 
Q 1159 2491 1159 1978 
L 1159 0 
L 581 0 
L 581 3500 
L 1159 3500 
L 1159 2956 
Q 1366 3272 1645 3428 
Q 1925 3584 2291 3584 
Q 2894 3584 3203 3211 
Q 3513 2838 3513 2113 
z
" transform="scale(0.015625)"/>
       <path id="DejaVuSans-64" d="M 2906 2969 
L 2906 4863 
L 3481 4863 
L 3481 0 
L 2906 0 
L 2906 525 
Q 2725 213 2448 61 
Q 2172 -91 1784 -91 
Q 1150 -91 751 415 
Q 353 922 353 1747 
Q 353 2572 751 3078 
Q 1150 3584 1784 3584 
Q 2172 3584 2448 3432 
Q 2725 3281 2906 2969 
z
M 947 1747 
Q 947 1113 1208 752 
Q 1469 391 1925 391 
Q 2381 391 2643 752 
Q 2906 1113 2906 1747 
Q 2906 2381 2643 2742 
Q 2381 3103 1925 3103 
Q 1469 3103 1208 2742 
Q 947 2381 947 1747 
z
" transform="scale(0.015625)"/>
       <path id="DejaVuSans-48" d="M 628 4666 
L 1259 4666 
L 1259 2753 
L 3553 2753 
L 3553 4666 
L 4184 4666 
L 4184 0 
L 3553 0 
L 3553 2222 
L 1259 2222 
L 1259 0 
L 628 0 
L 628 4666 
z
" transform="scale(0.015625)"/>
       <path id="DejaVuSans-75" d="M 544 1381 
L 544 3500 
L 1119 3500 
L 1119 1403 
Q 1119 906 1312 657 
Q 1506 409 1894 409 
Q 2359 409 2629 706 
Q 2900 1003 2900 1516 
L 2900 3500 
L 3475 3500 
L 3475 0 
L 2900 0 
L 2900 538 
Q 2691 219 2414 64 
Q 2138 -91 1772 -91 
Q 1169 -91 856 284 
Q 544 659 544 1381 
z
M 1991 3584 
L 1991 3584 
z
" transform="scale(0.015625)"/>
       <path id="DejaVuSans-72" d="M 2631 2963 
Q 2534 3019 2420 3045 
Q 2306 3072 2169 3072 
Q 1681 3072 1420 2755 
Q 1159 2438 1159 1844 
L 1159 0 
L 581 0 
L 581 3500 
L 1159 3500 
L 1159 2956 
Q 1341 3275 1631 3429 
Q 1922 3584 2338 3584 
Q 2397 3584 2469 3576 
Q 2541 3569 2628 3553 
L 2631 2963 
z
" transform="scale(0.015625)"/>
       <path id="DejaVuSans-73" d="M 2834 3397 
L 2834 2853 
Q 2591 2978 2328 3040 
Q 2066 3103 1784 3103 
Q 1356 3103 1142 2972 
Q 928 2841 928 2578 
Q 928 2378 1081 2264 
Q 1234 2150 1697 2047 
L 1894 2003 
Q 2506 1872 2764 1633 
Q 3022 1394 3022 966 
Q 3022 478 2636 193 
Q 2250 -91 1575 -91 
Q 1294 -91 989 -36 
Q 684 19 347 128 
L 347 722 
Q 666 556 975 473 
Q 1284 391 1588 391 
Q 1994 391 2212 530 
Q 2431 669 2431 922 
Q 2431 1156 2273 1281 
Q 2116 1406 1581 1522 
L 1381 1569 
Q 847 1681 609 1914 
Q 372 2147 372 2553 
Q 372 3047 722 3315 
Q 1072 3584 1716 3584 
Q 2034 3584 2315 3537 
Q 2597 3491 2834 3397 
z
" transform="scale(0.015625)"/>
       <path id="DejaVuSans-2d" d="M 313 2009 
L 1997 2009 
L 1997 1497 
L 313 1497 
L 313 2009 
z
" transform="scale(0.015625)"/>
       <path id="DejaVuSans-6d" d="M 3328 2828 
Q 3544 3216 3844 3400 
Q 4144 3584 4550 3584 
Q 5097 3584 5394 3201 
Q 5691 2819 5691 2113 
L 5691 0 
L 5113 0 
L 5113 2094 
Q 5113 2597 4934 2840 
Q 4756 3084 4391 3084 
Q 3944 3084 3684 2787 
Q 3425 2491 3425 1978 
L 3425 0 
L 2847 0 
L 2847 2094 
Q 2847 2600 2669 2842 
Q 2491 3084 2119 3084 
Q 1678 3084 1418 2786 
Q 1159 2488 1159 1978 
L 1159 0 
L 581 0 
L 581 3500 
L 1159 3500 
L 1159 2956 
Q 1356 3278 1631 3431 
Q 1906 3584 2284 3584 
Q 2666 3584 2933 3390 
Q 3200 3197 3328 2828 
z
" transform="scale(0.015625)"/>
      </defs>
      <use xlink:href="#DejaVuSans-56"/>
      <use xlink:href="#DejaVuSans-6f" x="60.658203"/>
      <use xlink:href="#DejaVuSans-6c" x="121.839844"/>
      <use xlink:href="#DejaVuSans-61" x="149.623047"/>
      <use xlink:href="#DejaVuSans-74" x="210.902344"/>
      <use xlink:href="#DejaVuSans-69" x="250.111328"/>
      <use xlink:href="#DejaVuSans-6c" x="277.894531"/>
      <use xlink:href="#DejaVuSans-69" x="305.677734"/>
      <use xlink:href="#DejaVuSans-74" x="333.460938"/>
      <use xlink:href="#DejaVuSans-79" x="372.669922"/>
      <use xlink:href="#DejaVuSans-20" x="431.849609"/>
      <use xlink:href="#DejaVuSans-61" x="463.636719"/>
      <use xlink:href="#DejaVuSans-6e" x="524.916016"/>
      <use xlink:href="#DejaVuSans-64" x="588.294922"/>
      <use xlink:href="#DejaVuSans-20" x="651.771484"/>
      <use xlink:href="#DejaVuSans-48" x="683.558594"/>
      <use xlink:href="#DejaVuSans-75" x="758.753906"/>
      <use xlink:href="#DejaVuSans-72" x="822.132812"/>
      <use xlink:href="#DejaVuSans-73" x="863.246094"/>
      <use xlink:href="#DejaVuSans-74" x="915.345703"/>
      <use xlink:href="#DejaVuSans-2d" x="954.554688"/>
      <use xlink:href="#DejaVuSans-65" x="990.638672"/>
      <use xlink:href="#DejaVuSans-73" x="1052.162109"/>
      <use xlink:href="#DejaVuSans-74" x="1104.261719"/>
      <use xlink:href="#DejaVuSans-69" x="1143.470703"/>
      <use xlink:href="#DejaVuSans-6d" x="1171.253906"/>
      <use xlink:href="#DejaVuSans-61" x="1268.666016"/>
      <use xlink:href="#DejaVuSans-74" x="1329.945312"/>
      <use xlink:href="#DejaVuSans-65" x="1369.154297"/>
     </g>
    </g>
   </g>
   <g id="patch_3">
    <path d="M 72.9 302.778 
L 72.9 40.824 
" style="fill: none; stroke: #000000; stroke-width: 0.8; stroke-linejoin: miter; stroke-linecap: square"/>
   </g>
   <g id="patch_4">
    <path d="M 524.88 302.778 
L 524.88 40.824 
" style="fill: none; stroke: #e6e6e6; stroke-width: 0.8; stroke-linejoin: miter; stroke-linecap: square"/>
   </g>
   <g id="patch_5">
    <path d="M 72.9 302.778 
L 524.88 302.778 
" style="fill: none; stroke: #000000; stroke-width: 0.8; stroke-linejoin: miter; stroke-linecap: square"/>
   </g>
   <g id="patch_6">
    <path d="M 72.9 40.824 
L 524.88 40.824 
" style="fill: none; stroke: #e6e6e6; stroke-width: 0.8; stroke-linejoin: miter; stroke-linecap: square"/>
   </g>
   <g id="line2d_33">
    <path d="M 93.444545 219.153357 
L 93.813595 227.935153 
L 94.136514 226.661794 
L 94.459433 222.296946 
L 94.782351 231.013306 
L 95.10527 225.780547 
L 95.47432 225.164007 
L 95.797238 227.172376 
L 96.120157 223.468834 
L 96.443076 222.235782 
L 96.765994 221.463059 
L 97.088913 228.499446 
L 97.411832 229.548649 
L 97.73475 226.399078 
L 98.057669 210.130597 
L 98.426719 224.29586 
L 98.749637 227.128055 
L 99.072556 224.230476 
L 99.395475 226.080731 
L 99.718393 224.708604 
L 100.087443 225.475408 
L 100.410362 230.789119 
L 100.733281 228.412966 
L 101.056199 227.161991 
L 101.379118 230.216253 
L 101.84043 227.173562 
L 102.163349 232.747674 
L 102.809186 226.808051 
L 103.132105 232.567633 
L 103.455023 229.126144 
L 103.777942 230.880256 
L 104.100861 233.28698 
L 104.469911 230.507586 
L 104.792829 231.239669 
L 105.115748 228.726046 
L 105.438667 233.062737 
L 105.761585 226.203446 
L 106.084504 228.844363 
L 106.407422 219.775088 
L 106.730341 224.874259 
L 107.05326 223.527234 
L 107.376178 232.509378 
L 107.699097 223.275075 
L 108.022016 228.574937 
L 108.391066 226.558481 
L 108.713984 219.56203 
L 109.036903 227.414727 
L 109.359821 225.592681 
L 109.728871 230.145427 
L 110.097921 214.364403 
L 110.42084 230.582904 
L 110.882152 230.864758 
L 111.205071 230.642313 
L 111.52799 228.512472 
L 111.850908 228.981451 
L 112.542877 226.624964 
L 112.865795 228.941936 
L 113.188714 218.985089 
L 113.511633 222.175644 
L 113.834551 223.525384 
L 114.15747 223.572232 
L 114.480389 218.955796 
L 114.849438 224.186255 
L 115.172357 225.684989 
L 115.495276 230.173151 
L 116.141113 226.278504 
L 116.833082 229.014257 
L 117.156 229.655432 
L 117.478919 230.838783 
L 117.801837 230.422801 
L 118.124756 229.754918 
L 118.493806 226.864076 
L 118.816725 226.192869 
L 119.139643 229.651596 
L 119.462562 225.339914 
L 119.785481 232.375823 
L 120.108399 228.708707 
L 120.431318 230.130674 
L 120.754237 227.405691 
L 121.077155 229.637326 
L 122.045911 223.980901 
L 122.36883 224.606016 
L 122.691748 228.813682 
L 123.014667 225.952839 
L 123.337586 228.452581 
L 123.660504 229.673753 
L 123.983423 223.115761 
L 124.306342 230.118193 
L 124.62926 229.567264 
L 125.090573 229.450952 
L 125.413491 228.315757 
L 125.73641 225.026386 
L 126.059329 229.048852 
L 126.382247 231.104759 
L 126.797428 230.460595 
L 127.120347 230.647886 
L 127.443266 229.317632 
L 127.812315 229.363347 
L 128.135234 223.833673 
L 128.458153 229.316493 
L 128.781071 229.41692 
L 129.150121 225.595105 
L 129.47304 227.614721 
L 129.795959 227.779493 
L 130.118877 230.168961 
L 130.441796 230.162824 
L 130.903108 229.729345 
L 131.226027 231.706753 
L 131.548945 226.153212 
L 131.871864 226.070006 
L 132.194783 232.269641 
L 132.84062 220.037742 
L 133.163539 226.565159 
L 133.532589 228.478953 
L 133.855507 228.06725 
L 134.501344 225.628739 
L 134.824263 229.422362 
L 135.147182 224.477604 
L 135.516232 216.723619 
L 135.83915 228.356541 
L 136.162069 209.087143 
L 136.484988 220.512771 
L 136.807906 215.329358 
L 137.130825 218.24558 
L 137.453744 225.74716 
L 137.776662 224.424857 
L 138.145712 220.505907 
L 138.468631 224.592559 
L 138.791549 225.625883 
L 139.114468 222.928168 
L 139.437387 216.680426 
L 139.760305 216.991916 
L 140.083224 216.709712 
L 140.406143 226.420642 
L 140.729061 227.460095 
L 141.05198 225.038223 
L 141.374898 223.988929 
L 141.697817 226.079105 
L 142.066867 223.663926 
L 142.389786 229.734065 
L 142.712704 226.158034 
L 143.035623 224.837239 
L 143.496935 230.023509 
L 143.865985 224.136029 
L 144.188904 227.289417 
L 144.557954 232.160597 
L 144.880872 222.856629 
L 145.203791 225.678531 
L 145.52671 230.085641 
L 145.89576 225.553343 
L 146.218678 225.48787 
L 146.541597 228.460735 
L 146.864515 220.621078 
L 147.187434 226.028951 
L 147.510353 220.595051 
L 147.833271 223.958354 
L 148.15619 230.133455 
L 148.479109 226.6074 
L 148.848159 226.002881 
L 149.171077 229.46596 
L 149.493996 228.601744 
L 149.816914 230.477906 
L 150.139833 226.483513 
L 150.601145 228.998726 
L 150.924064 228.730859 
L 151.246983 227.275277 
L 151.569901 229.878216 
L 151.89282 229.838511 
L 152.26187 228.67794 
L 152.584789 229.228139 
L 152.907707 227.137018 
L 153.230626 228.652985 
L 153.553545 229.369243 
L 153.876463 233.103064 
L 154.199382 231.352666 
L 154.89135 232.037308 
L 155.214269 229.487324 
L 155.537188 230.459287 
L 155.860106 226.489446 
L 156.183025 226.198529 
L 156.505944 231.790118 
L 156.828862 232.710442 
L 157.151781 229.387913 
L 157.797618 231.941544 
L 158.120537 230.52474 
L 158.443455 230.655801 
L 158.766374 229.5144 
L 159.135424 231.437958 
L 159.458343 229.428622 
L 159.781261 231.052652 
L 160.150311 233.794029 
L 160.611623 230.597095 
L 160.934542 231.560376 
L 161.303592 231.628549 
L 161.626511 229.479903 
L 161.949429 230.386027 
L 162.641398 229.840817 
L 162.964316 233.253664 
L 163.610154 230.408594 
L 163.933072 226.15151 
L 164.255991 231.505684 
L 164.57891 230.094569 
L 164.901828 230.955704 
L 165.270878 230.652234 
L 165.593797 228.085097 
L 165.916715 231.025729 
L 166.239634 231.005538 
L 166.562553 229.457443 
L 166.885471 231.176694 
L 167.20839 231.414401 
L 167.57744 232.123219 
L 168.038752 228.210627 
L 168.361671 232.794745 
L 168.68459 231.665483 
L 169.053639 231.105918 
L 169.376558 232.282763 
L 169.699477 232.109106 
L 170.022395 229.110565 
L 170.345314 232.425374 
L 170.668233 227.134252 
L 171.31407 230.906758 
L 171.636989 231.406871 
L 172.006038 230.79562 
L 172.328957 232.323159 
L 172.651876 229.700747 
L 172.974794 231.826685 
L 173.297713 231.078094 
L 173.620632 232.136881 
L 174.266469 228.633484 
L 174.589388 232.314649 
L 174.912306 230.467144 
L 175.558144 230.904746 
L 175.927193 230.210139 
L 176.250112 230.919439 
L 176.573031 232.432558 
L 176.895949 231.380785 
L 177.264999 232.558763 
L 177.587918 231.425756 
L 178.372149 230.246702 
L 178.695068 232.511845 
L 179.017986 231.597281 
L 179.340905 231.456981 
L 179.709955 230.41722 
L 180.355792 231.85563 
L 180.678711 230.768021 
L 181.001629 231.995217 
L 181.370679 230.214393 
L 181.693598 232.48681 
L 182.016516 229.982462 
L 182.662354 227.608546 
L 182.985272 228.768954 
L 183.308191 230.909222 
L 183.63111 229.215047 
L 183.954028 233.066578 
L 184.323078 231.515411 
L 184.645997 232.391592 
L 184.968915 233.818404 
L 185.291834 231.515126 
L 185.983803 230.238954 
L 186.306721 233.933776 
L 186.62964 231.058902 
L 186.952559 231.585925 
L 187.275477 231.188038 
L 187.598396 231.4309 
L 187.921314 231.492966 
L 188.244233 232.572561 
L 188.567152 231.583084 
L 189.028464 230.972865 
L 189.351383 231.20526 
L 189.674301 231.589612 
L 189.99722 232.649106 
L 190.320139 230.71472 
L 190.643057 231.75345 
L 190.965976 225.837958 
L 191.288895 228.317518 
L 191.611813 232.029903 
L 191.934732 232.390877 
L 192.6267 231.802715 
L 192.949619 230.781428 
L 193.272538 232.692297 
L 193.595456 232.906338 
L 193.964506 231.747185 
L 194.333556 229.763798 
L 194.656475 231.516309 
L 195.025525 229.327914 
L 195.348443 232.719953 
L 195.671362 232.298903 
L 195.994281 231.302376 
L 196.317199 231.589065 
L 196.778512 232.1988 
L 197.10143 230.64873 
L 197.424349 232.316487 
L 198.070186 232.387835 
L 198.716023 231.022734 
L 199.085073 229.181337 
L 199.407992 233.489637 
L 199.730911 232.812557 
L 200.376748 230.907927 
L 200.699667 230.313649 
L 201.068716 228.217462 
L 201.391635 227.991849 
L 201.714554 230.33374 
L 202.037472 227.41919 
L 202.360391 231.141732 
L 202.729441 228.061772 
L 203.05236 230.35507 
L 203.375278 228.425143 
L 203.698197 229.098124 
L 204.344034 232.976026 
L 204.666953 230.854082 
L 204.989871 232.916059 
L 205.31279 233.669852 
L 205.68184 231.064091 
L 206.004759 232.39208 
L 206.327677 232.5022 
L 206.650596 232.188712 
L 206.973514 231.271027 
L 207.619352 233.776452 
L 207.94227 231.443579 
L 208.265189 233.212782 
L 208.588108 231.430766 
L 208.911026 234.0254 
L 209.372339 231.021835 
L 209.695257 231.92093 
L 210.018176 233.244302 
L 210.341095 232.379311 
L 210.710145 232.688794 
L 211.448244 232.324438 
L 211.817294 233.314926 
L 212.140213 230.254436 
L 212.463131 233.197659 
L 212.78605 233.127937 
L 213.108969 232.054868 
L 213.570281 233.816601 
L 213.8932 225.161204 
L 214.216118 230.755351 
L 214.539037 227.129422 
L 214.861956 230.601994 
L 215.553924 233.055421 
L 215.876843 231.139323 
L 216.199761 232.290621 
L 216.52268 231.044898 
L 216.845599 233.481743 
L 217.168517 229.584237 
L 217.491436 232.479731 
L 217.860486 230.789028 
L 218.183405 231.850174 
L 218.506323 226.033838 
L 218.829242 230.027017 
L 219.152161 229.556491 
L 219.52121 232.079817 
L 219.844129 227.465636 
L 220.167048 233.389351 
L 220.489966 226.406657 
L 220.812885 227.296574 
L 221.135804 219.054002 
L 221.458722 228.938159 
L 221.781641 228.123299 
L 222.10456 223.57272 
L 222.473609 226.719681 
L 222.796528 231.046536 
L 223.119447 225.907449 
L 223.442365 232.358422 
L 223.765284 230.534502 
L 224.088203 231.621744 
L 224.411121 228.128105 
L 224.73404 230.876862 
L 225.056959 225.605386 
L 225.379877 224.946584 
L 225.702796 223.950015 
L 226.164108 224.010093 
L 226.809945 228.851294 
L 227.132864 226.771131 
L 227.455783 231.061057 
L 227.870964 230.157877 
L 228.193883 224.768606 
L 228.516801 225.362264 
L 228.885851 222.320307 
L 229.20877 225.825972 
L 229.531688 223.601457 
L 229.854607 228.268351 
L 230.223657 229.615491 
L 230.546576 224.754514 
L 230.869494 228.338586 
L 231.192413 220.044215 
L 231.653725 217.864111 
L 231.976644 230.325214 
L 232.299562 224.947892 
L 232.622481 229.287848 
L 232.9454 228.205798 
L 233.268318 231.097187 
L 233.914156 227.41502 
L 234.237074 232.452547 
L 234.606124 228.649098 
L 234.929043 230.829745 
L 235.251961 223.2469 
L 235.57488 227.454909 
L 235.897799 229.440116 
L 236.220717 225.655226 
L 236.589767 224.704273 
L 236.912686 224.898267 
L 237.235605 231.031111 
L 237.558523 221.544914 
L 237.881442 224.334156 
L 238.204361 224.386564 
L 238.527279 228.799539 
L 238.850198 227.230305 
L 239.542166 221.065913 
L 239.865085 208.466807 
L 240.188004 215.094005 
L 240.510922 199.406956 
L 240.833841 215.902151 
L 241.15676 185.365491 
L 241.479678 207.580939 
L 241.802597 197.328089 
L 242.125515 207.779566 
L 242.448434 204.180686 
L 242.771353 214.136602 
L 243.140403 217.383811 
L 243.463321 197.413078 
L 243.78624 217.164509 
L 244.109159 216.492993 
L 244.570471 228.497592 
L 244.939521 226.05422 
L 245.262439 225.066277 
L 245.631489 210.228833 
L 245.954408 223.886269 
L 246.277327 222.522223 
L 246.600245 215.476121 
L 246.969295 222.465045 
L 247.292214 216.948203 
L 247.938051 215.119847 
L 248.26097 223.3936 
L 248.583888 210.921943 
L 248.906807 217.379855 
L 249.229726 219.959511 
L 249.598776 226.008562 
L 249.921694 217.792214 
L 250.244613 227.460273 
L 250.567531 222.434574 
L 250.89045 225.2028 
L 251.213369 223.786365 
L 251.674681 223.08444 
L 251.9976 229.314361 
L 252.643437 224.923194 
L 252.966356 229.603513 
L 253.335406 225.67628 
L 253.658324 227.828952 
L 253.981243 227.771799 
L 254.304161 228.529561 
L 254.62708 229.945491 
L 254.949999 228.987435 
L 255.272917 225.088627 
L 255.595836 230.390578 
L 255.918755 228.678192 
L 256.287805 231.302625 
L 256.610723 231.103366 
L 256.933642 231.118852 
L 257.256561 228.269564 
L 257.579479 224.26092 
L 257.902398 230.52358 
L 258.225316 229.889515 
L 258.548235 227.66107 
L 258.871154 223.122484 
L 259.194072 228.639167 
L 259.516991 229.354255 
L 260.20896 227.82044 
L 260.531878 230.785866 
L 260.854797 230.328823 
L 261.177715 233.289201 
L 261.685159 229.114993 
L 262.008078 234.471021 
L 262.377128 228.421326 
L 262.700046 228.045985 
L 263.022965 227.147901 
L 263.345884 224.299785 
L 263.714933 229.60703 
L 264.037852 229.737091 
L 264.360771 232.302327 
L 264.683689 231.736436 
L 265.006608 233.084112 
L 265.329527 231.521148 
L 265.652445 233.104863 
L 266.021495 231.651404 
L 266.344414 232.326116 
L 267.636088 219.37858 
L 267.959007 224.914379 
L 268.281926 223.348965 
L 268.650976 220.107244 
L 269.296813 228.408721 
L 269.619731 229.54033 
L 269.94265 227.210457 
L 270.403962 227.566852 
L 270.726881 224.244474 
L 271.0498 226.799644 
L 271.372718 227.751988 
L 271.695637 231.961998 
L 272.018556 227.819756 
L 272.341474 228.334221 
L 272.664393 226.467783 
L 273.033443 225.312515 
L 273.356361 232.552632 
L 273.67928 230.733968 
L 274.002199 227.348501 
L 274.325117 227.906529 
L 274.648036 233.177359 
L 274.970955 228.924778 
L 275.293873 232.642117 
L 275.616792 232.771455 
L 275.939711 228.627365 
L 276.262629 229.843004 
L 276.954598 226.669235 
L 277.277516 231.744103 
L 277.600435 232.548101 
L 277.923354 233.833207 
L 278.292404 234.487903 
L 278.615322 231.623818 
L 278.938241 232.193943 
L 279.307291 231.060265 
L 279.630209 228.912822 
L 279.953128 230.523879 
L 280.276047 232.86245 
L 280.598965 233.085286 
L 281.060278 227.332178 
L 281.383196 226.958452 
L 281.706115 227.85756 
L 282.029034 225.205168 
L 282.351952 231.889614 
L 282.99779 233.762729 
L 283.320708 231.203895 
L 283.689758 231.691748 
L 284.012677 232.747242 
L 284.335595 230.311376 
L 284.658514 231.082702 
L 284.981433 229.918053 
L 285.350483 226.654242 
L 285.673401 232.252011 
L 285.99632 226.589884 
L 286.319238 230.614581 
L 286.642157 228.576625 
L 287.011207 230.89682 
L 287.334126 230.259939 
L 287.657044 228.68835 
L 287.979963 229.90697 
L 288.302882 221.008227 
L 288.6258 200.643527 
L 288.948719 218.663332 
L 289.271638 221.52177 
L 289.594556 225.468516 
L 289.963606 220.500437 
L 290.286525 232.220994 
L 290.609443 224.023364 
L 290.932362 221.304739 
L 291.255281 220.666445 
L 291.578199 225.645224 
L 291.901118 223.376153 
L 292.224037 222.278997 
L 292.546955 220.678949 
L 292.869874 220.457342 
L 293.192792 228.865242 
L 293.654105 221.901832 
L 293.977023 223.104021 
L 294.299942 225.301281 
L 294.622861 230.241209 
L 294.991911 227.604237 
L 295.360961 227.858349 
L 295.683879 232.562255 
L 296.052929 231.537841 
L 296.698766 232.326534 
L 297.344604 230.204613 
L 297.713654 233.483011 
L 298.036572 232.341143 
L 298.359491 228.614899 
L 298.682409 230.141696 
L 299.005328 232.288652 
L 299.328247 230.358681 
L 299.789559 230.235481 
L 300.112478 226.679489 
L 300.758315 231.122664 
L 301.081234 229.805456 
L 301.404152 232.032742 
L 301.727071 227.66874 
L 302.096121 232.026129 
L 302.419039 227.127251 
L 302.741958 226.526978 
L 303.064877 230.186414 
L 303.387795 226.673496 
L 303.710714 228.594865 
L 304.079764 232.654522 
L 304.402683 229.688535 
L 304.725601 231.425146 
L 305.04852 227.906342 
L 305.371439 228.964715 
L 305.694357 234.496592 
L 306.017276 232.792024 
L 306.340194 231.904086 
L 306.709244 228.280332 
L 307.032163 230.034708 
L 307.355082 233.575353 
L 307.678 230.361607 
L 308.000919 232.517726 
L 308.323838 232.543961 
L 308.646756 231.374969 
L 308.969675 229.420768 
L 309.477118 230.533134 
L 309.800037 226.882793 
L 310.122956 227.084067 
L 310.492006 230.772727 
L 310.814924 232.059952 
L 311.137843 233.812319 
L 311.460762 229.667232 
L 311.829811 231.492221 
L 312.198861 225.430833 
L 312.52178 232.148622 
L 312.844699 233.63944 
L 313.213748 233.898899 
L 313.536667 231.392051 
L 313.859586 229.835266 
L 314.182504 234.651121 
L 314.643817 227.36673 
L 314.966735 232.008625 
L 315.289654 233.138144 
L 315.612573 232.565314 
L 315.935491 230.870823 
L 316.304541 232.110128 
L 316.62746 230.664156 
L 316.950378 225.340802 
L 317.273297 228.231383 
L 317.596216 233.028599 
L 317.919134 230.057897 
L 318.242053 231.919439 
L 318.564972 231.5068 
L 318.934022 231.471985 
L 319.25694 229.029288 
L 319.579859 228.637452 
L 319.902777 227.615928 
L 320.225696 225.221237 
L 320.548615 232.471409 
L 320.917665 232.014218 
L 321.240583 233.163986 
L 321.563502 233.500577 
L 321.886421 231.269444 
L 322.209339 232.75339 
L 322.532258 231.11125 
L 322.855177 231.066284 
L 323.178095 229.857277 
L 323.547145 232.518203 
L 323.870064 231.974604 
L 324.192982 230.433966 
L 324.515901 233.186238 
L 325.161738 226.418436 
L 325.484657 230.330176 
L 325.807576 232.57913 
L 326.130494 232.389264 
L 326.453413 228.807414 
L 326.776331 232.687501 
L 327.09925 231.735839 
L 327.560562 234.074946 
L 327.883481 231.207962 
L 328.2064 231.095361 
L 328.529318 230.327216 
L 328.898368 233.795112 
L 329.590337 229.585833 
L 329.959387 232.358501 
L 330.282305 226.772667 
L 330.605224 226.164223 
L 330.928143 231.482377 
L 331.297193 231.955559 
L 331.620111 233.243635 
L 331.94303 229.912176 
L 332.265948 232.132843 
L 332.588867 230.790092 
L 332.911786 231.822801 
L 333.234704 229.821824 
L 333.557623 226.933552 
L 334.018935 232.973231 
L 334.341854 232.019513 
L 334.664773 233.740823 
L 334.987691 230.632673 
L 335.31061 231.53456 
L 335.67966 231.607622 
L 336.002578 233.672337 
L 336.325497 233.519076 
L 336.648416 232.490997 
L 336.971334 231.997019 
L 337.294253 233.126184 
L 337.663303 231.755721 
L 337.986222 232.780348 
L 338.30914 229.810127 
L 338.632059 233.539971 
L 338.954977 228.449326 
L 339.600815 233.251639 
L 340.292783 233.995049 
L 340.615702 232.169853 
L 340.938621 231.905186 
L 341.261539 229.396529 
L 341.584458 230.154859 
L 341.907377 224.440251 
L 342.230295 230.219338 
L 342.553214 228.711483 
L 342.876132 231.502811 
L 343.199051 231.644316 
L 343.52197 234.42388 
L 343.844888 233.7176 
L 344.213938 233.234057 
L 344.536857 231.984018 
L 345.182694 225.498135 
L 345.644007 234.262929 
L 346.335975 227.403857 
L 346.705025 229.417132 
L 347.027944 227.284202 
L 347.350862 227.385479 
L 347.673781 230.503766 
L 348.042831 232.498649 
L 348.365749 233.260383 
L 348.688668 232.322347 
L 349.011587 227.101256 
L 349.334505 228.926483 
L 349.657424 229.680408 
L 349.980343 230.052384 
L 350.349393 233.131123 
L 350.672311 231.147174 
L 350.99523 232.72672 
L 351.318148 230.027971 
L 351.641067 229.040118 
L 352.286904 233.852329 
L 352.748217 230.346449 
L 353.071135 232.442791 
L 353.394054 230.468157 
L 353.716973 231.540216 
L 354.039891 229.463182 
L 354.408941 232.374923 
L 354.73186 227.599693 
L 355.054778 232.389899 
L 355.377697 229.512747 
L 355.700616 232.554258 
L 356.023534 229.324509 
L 356.346453 233.148098 
L 356.669372 226.609607 
L 356.99229 217.450252 
L 357.36134 223.19717 
L 357.684259 231.205531 
L 358.007178 229.736824 
L 358.330096 224.691989 
L 358.653015 229.484867 
L 358.975933 231.305609 
L 359.298852 230.159738 
L 359.621771 229.60067 
L 360.267608 232.431698 
L 360.590527 225.947056 
L 360.913445 233.968176 
L 361.282495 228.746968 
L 361.605414 227.417118 
L 361.928332 225.095982 
L 362.251251 227.226924 
L 362.758695 228.840399 
L 363.081613 228.189418 
L 363.450663 223.122956 
L 363.773582 224.906896 
L 364.096501 224.290642 
L 364.419419 228.440308 
L 364.788469 226.241754 
L 365.111388 228.669732 
L 365.434306 227.186728 
L 365.757225 230.936035 
L 366.080144 230.320903 
L 366.403062 232.015371 
L 366.772112 232.472932 
L 367.095031 228.758142 
L 367.417949 231.579165 
L 367.740868 232.43549 
L 368.063787 232.305551 
L 368.709624 230.115326 
L 369.032543 230.168524 
L 369.355461 231.204698 
L 369.724511 233.437719 
L 370.04743 231.654301 
L 370.370348 232.675829 
L 370.693267 222.453206 
L 371.800417 233.134912 
L 372.123335 232.718803 
L 372.446254 234.409124 
L 372.769173 231.705878 
L 373.092091 233.376028 
L 373.41501 233.293456 
L 373.737929 232.723124 
L 374.106978 233.408487 
L 374.429897 225.34783 
L 374.752816 231.888554 
L 375.075734 229.681901 
L 375.398653 230.535262 
L 375.721572 230.664801 
L 376.04449 232.83344 
L 376.367409 233.175084 
L 376.690328 233.715994 
L 377.013246 227.709855 
L 377.336165 231.849828 
L 377.659084 232.599862 
L 378.028133 232.963926 
L 378.351052 231.210229 
L 378.673971 231.361595 
L 378.996889 233.371624 
L 379.734989 231.892884 
L 380.057908 233.584673 
L 380.51922 233.251812 
L 380.842139 231.495316 
L 381.165057 232.939085 
L 381.487976 233.67043 
L 381.857026 233.516939 
L 382.179945 234.247249 
L 382.502863 230.227985 
L 382.825782 233.604607 
L 383.148701 230.45331 
L 383.471619 232.982872 
L 383.794538 233.955814 
L 384.117456 234.07786 
L 384.486506 231.463157 
L 384.809425 231.531749 
L 385.132344 234.307869 
L 385.455262 234.083257 
L 385.778181 229.571503 
L 386.1011 234.031361 
L 386.470149 232.874667 
L 386.793068 233.695939 
L 387.115987 233.602401 
L 387.761824 230.510135 
L 388.130874 231.448276 
L 388.453793 233.235257 
L 389.09963 234.183942 
L 389.422548 234.097932 
L 389.745467 230.879572 
L 390.068386 229.230396 
L 390.714223 233.815569 
L 391.175535 230.87754 
L 391.498454 234.2752 
L 391.821373 234.085819 
L 392.144291 234.144343 
L 392.46721 233.397399 
L 392.790129 234.297188 
L 393.435966 232.046611 
L 393.758885 234.646558 
L 394.081803 233.990664 
L 394.404722 231.853026 
L 394.773772 232.308291 
L 395.09669 232.277555 
L 395.419609 233.975284 
L 395.742528 231.604034 
L 396.111578 234.50824 
L 396.480627 231.888755 
L 396.803546 232.923131 
L 397.172596 231.708704 
L 397.495515 231.844522 
L 397.818433 229.435142 
L 398.141352 216.542498 
L 398.46427 231.092201 
L 398.925583 228.736517 
L 399.248501 227.748628 
L 399.57142 230.381571 
L 399.894339 231.259989 
L 400.217257 221.476336 
L 400.586307 224.26722 
L 400.909226 225.348761 
L 401.232145 230.467363 
L 401.555063 231.366769 
L 402.200901 230.387642 
L 402.523819 230.801822 
L 402.846738 232.317116 
L 403.215788 229.455965 
L 403.538706 230.706449 
L 403.861625 233.523742 
L 404.184544 233.565897 
L 404.507462 230.749789 
L 404.876512 231.882196 
L 405.199431 230.799452 
L 405.522349 233.326367 
L 405.845268 232.183733 
L 406.168187 231.66798 
L 406.491105 233.635772 
L 406.814024 230.378266 
L 407.136943 233.961518 
L 407.459861 232.003903 
L 407.828911 234.411243 
L 408.15183 233.912422 
L 408.474748 231.896822 
L 408.797667 233.636099 
L 409.120586 232.155174 
L 409.443504 222.912875 
L 409.766423 226.56832 
L 410.089342 223.110088 
L 410.41226 228.398514 
L 410.735179 227.816878 
L 411.058098 227.775866 
L 411.51941 225.949714 
L 411.842329 229.137492 
L 412.211378 224.815551 
L 412.534297 227.229615 
L 412.903347 214.766191 
L 413.272397 226.167578 
L 413.595316 227.054836 
L 413.918234 231.169547 
L 414.287284 228.462877 
L 414.610203 229.332229 
L 414.933121 231.130954 
L 415.25604 230.94722 
L 415.717352 233.020451 
L 416.040271 232.555359 
L 416.36319 229.360469 
L 416.686108 233.438221 
L 417.009027 228.200113 
L 417.654864 234.218091 
L 417.977783 232.191576 
L 418.346833 232.616797 
L 418.669751 233.680928 
L 418.99267 229.038806 
L 419.315589 227.034853 
L 419.638507 230.182752 
L 420.007557 231.927181 
L 420.330476 226.828932 
L 420.653394 232.005831 
L 420.976313 232.554779 
L 421.299232 230.866179 
L 421.62215 233.920129 
L 422.959956 230.555317 
L 423.282875 222.576824 
L 423.605794 224.234049 
L 423.928712 229.183232 
L 424.251631 224.718962 
L 424.943599 233.191455 
L 425.266518 233.376529 
L 425.589437 231.671678 
L 425.912355 226.160385 
L 426.235274 227.918173 
L 426.558193 231.692685 
L 426.881111 232.809892 
L 427.20403 232.008089 
L 427.526948 234.065949 
L 427.849867 232.988639 
L 428.172786 233.876077 
L 428.634098 231.031114 
L 428.957017 231.031711 
L 429.602854 233.709731 
L 430.340954 231.221053 
L 430.663872 232.350332 
L 431.032922 232.60114 
L 431.355841 228.600764 
L 431.67876 226.819488 
L 432.001678 231.781555 
L 432.370728 231.461897 
L 432.693647 223.590281 
L 433.016565 209.522185 
L 433.339484 180.410627 
L 433.985321 198.917607 
L 434.30824 214.20678 
L 434.769552 214.609241 
L 435.092471 219.176613 
L 435.41539 221.184507 
L 435.738308 222.053578 
L 436.061227 229.069024 
L 436.384146 221.102727 
L 437.076114 231.243235 
L 437.399033 226.268905 
L 437.721951 213.859057 
L 438.04487 231.949561 
L 438.367789 221.110195 
L 438.736839 228.920539 
L 439.059757 228.495662 
L 439.382676 232.397767 
L 439.705594 228.414304 
L 440.028513 232.217397 
L 440.351432 230.0239 
L 440.67435 233.368083 
L 440.997269 232.923041 
L 441.320188 230.969405 
L 441.689238 220.95261 
L 442.012156 229.842048 
L 442.335075 226.349314 
L 442.657994 229.621812 
L 442.980912 225.407053 
L 443.303831 228.652647 
L 443.626749 229.495297 
L 443.949668 222.707286 
L 444.595505 229.74419 
L 444.918424 228.229393 
L 445.610393 230.982586 
L 445.933311 232.788229 
L 446.25623 230.637358 
L 446.717542 232.058873 
L 447.086592 229.427344 
L 447.409511 230.149506 
L 447.778561 229.657541 
L 448.424398 225.759867 
L 448.747317 231.989649 
L 449.116366 233.135697 
L 449.439285 226.482952 
L 449.762204 225.126157 
L 450.085122 229.141401 
L 450.408041 229.917366 
L 450.73096 231.084859 
L 451.053878 229.798939 
L 451.422928 231.386262 
L 451.745847 231.635879 
L 452.068765 229.008452 
L 452.391684 232.00661 
L 452.714603 231.377655 
L 453.037521 224.926468 
L 453.36044 230.707228 
L 453.683359 232.37133 
L 454.144671 232.239327 
L 454.46759 233.767842 
L 454.790508 228.777667 
L 455.113427 233.552343 
L 455.482477 232.806814 
L 456.128314 227.703921 
L 456.451233 231.468265 
L 456.774151 231.831689 
L 457.09707 232.777279 
L 457.419989 232.437396 
L 457.742907 230.16286 
L 458.434876 233.839689 
L 459.080713 228.733678 
L 459.403632 227.431451 
L 459.72655 227.405604 
L 460.049469 231.501213 
L 460.372388 231.709619 
L 460.695306 232.799385 
L 461.018225 233.104766 
L 461.341144 231.855843 
L 461.986981 233.532309 
L 462.356031 223.531489 
L 462.678949 227.1188 
L 463.001868 227.407586 
L 463.324787 226.808314 
L 463.693837 230.7325 
L 464.016755 228.954455 
L 464.339674 229.616326 
L 464.800986 229.464383 
L 465.123905 224.842812 
L 465.446824 226.095502 
L 465.769742 225.236918 
L 466.138792 226.184311 
L 466.461711 223.339075 
L 466.784629 223.935475 
L 467.107548 223.630383 
L 467.430467 230.032745 
L 467.753385 228.361197 
L 468.076304 228.566131 
L 468.399223 230.013253 
L 468.768272 228.009081 
L 469.091191 224.57073 
L 469.41411 217.955476 
L 469.737028 224.228826 
L 470.059947 218.158954 
L 470.382866 228.004289 
L 470.751916 225.142449 
L 471.074834 226.136213 
L 471.397753 220.177358 
L 471.766803 226.23768 
L 472.089721 227.834098 
L 472.551034 229.049167 
L 473.196871 226.429836 
L 473.51979 225.531931 
L 473.842708 229.742114 
L 474.165627 227.949268 
L 474.488546 228.594991 
L 474.811464 223.405351 
L 475.180514 231.469481 
L 475.503433 218.194379 
L 475.826351 229.687478 
L 476.14927 231.077652 
L 476.472189 219.301097 
L 476.795107 228.571435 
L 477.118026 221.25501 
L 477.440945 226.013513 
L 477.763863 226.203647 
L 478.086782 224.578002 
L 478.409701 216.410032 
L 478.732619 229.632519 
L 479.101669 224.137672 
L 479.424588 229.832529 
L 479.747506 229.104335 
L 480.070425 225.448355 
L 480.439475 226.572092 
L 480.808525 226.565255 
L 481.131443 232.021203 
L 481.592756 225.979297 
L 481.915674 229.624353 
L 482.238593 227.391225 
L 482.930562 228.861217 
L 483.25348 231.252218 
L 483.576399 227.40105 
L 483.899317 226.102711 
L 484.222236 226.998547 
L 484.545155 229.511902 
L 484.868073 229.792389 
L 485.237123 233.35528 
L 485.560042 231.373152 
L 485.882961 230.762619 
L 486.205879 227.1143 
L 486.851717 230.776802 
L 487.174635 230.100691 
L 487.543685 230.10778 
L 487.866604 230.516294 
L 488.189522 232.044406 
L 488.558572 232.494272 
L 488.881491 230.523917 
L 489.342803 232.665603 
L 489.665722 232.823981 
L 489.98864 231.896313 
L 490.311559 231.4644 
L 490.634478 229.902633 
L 490.957396 232.137488 
L 491.603234 228.835326 
L 492.295202 231.613354 
L 492.618121 230.382885 
L 492.94104 229.609332 
L 493.263958 230.513859 
L 493.586877 232.177304 
L 494.555633 227.733431 
L 494.878551 230.823145 
L 495.20147 227.734446 
L 495.524389 233.096929 
L 495.893439 233.835083 
L 496.216357 232.139496 
L 496.539276 232.624518 
L 496.862194 229.792695 
L 497.231244 232.707216 
L 497.600294 232.910645 
L 497.923213 231.086442 
L 498.384525 230.215244 
L 498.707444 233.163316 
L 499.030363 227.629289 
L 499.353281 232.86039 
L 499.722331 229.075938 
L 500.04525 228.935941 
L 500.368168 230.653162 
L 500.691087 230.327404 
L 501.014006 231.629492 
L 501.336924 231.972694 
L 501.705974 231.525969 
L 502.028893 229.140546 
L 502.67473 229.788643 
L 502.997649 228.912365 
L 503.320567 231.630912 
L 503.643486 232.343753 
L 503.966405 233.866786 
L 504.335455 231.18425 
L 504.335455 231.18425 
" clip-path="url(#pdb6430d389)" style="fill: none; stroke: #808080; stroke-width: 1.5; stroke-linecap: square"/>
   </g>
   <g id="line2d_34">
    <path d="M 114.480389 148.002497 
L 121.538467 146.214173 
L 128.781071 145.335065 
L 135.83915 120.485247 
L 142.712704 133.127946 
L 149.816914 119.833586 
L 156.828862 113.734786 
L 163.933072 157.295257 
L 170.991151 166.546269 
L 177.910837 155.405382 
L 184.968915 132.83187 
L 191.934732 139.338606 
L 199.085073 143.115021 
L 206.004759 139.149378 
L 213.108969 145.932291 
L 220.167048 118.541717 
L 227.132864 122.864409 
L 234.237074 101.658635 
L 241.15676 98.10704 
L 248.26097 92.874128 
L 255.272917 84.690884 
L 262.377128 91.981324 
L 269.296813 106.892966 
L 276.262629 109.444944 
L 283.320708 86.997079 
L 290.286525 80.291125 
L 297.344604 82.426412 
L 304.402683 81.636676 
L 311.460762 139.977696 
L 318.564972 188.622031 
L 325.484657 191.921779 
L 332.588867 180.727303 
L 339.600815 159.002754 
L 346.705025 139.904613 
L 353.716973 143.989063 
L 360.590527 136.375641 
L 367.740868 125.144895 
L 374.752816 138.440283 
L 381.857026 118.951001 
L 388.776711 114.049669 
L 395.742528 103.452442 
L 402.846738 110.886359 
L 409.766423 129.383077 
L 417.009027 101.155482 
L 423.928712 52.731 
L 431.032922 64.174262 
L 438.04487 60.968351 
L 444.918424 54.778264 
L 452.068765 55.417026 
L 459.080713 168.269796 
L 466.138792 175.323954 
L 473.196871 150.356579 
L 480.070425 152.15468 
" clip-path="url(#pdb6430d389)" style="fill: none; stroke-dasharray: 1.5,2.475; stroke-dashoffset: 0; stroke: #ff0000; stroke-width: 1.5"/>
   </g>
   <g id="line2d_35">
    <path d="M 114.480389 219.303123 
L 121.538467 236.06169 
L 128.781071 227.828644 
L 135.83915 215.38098 
L 142.712704 205.383844 
L 149.816914 223.395513 
L 156.828862 206.688557 
L 163.933072 236.794784 
L 170.991151 216.022765 
L 177.910837 242.870101 
L 184.968915 245.225139 
L 191.934732 253.493903 
L 199.085073 282.804282 
L 206.004759 272.218872 
L 213.108969 276.318771 
L 220.167048 250.690322 
L 227.132864 278.509074 
L 234.237074 290.871 
L 241.15676 267.632112 
L 248.26097 261.634069 
L 255.272917 262.47663 
L 262.377128 204.991671 
L 269.296813 198.385814 
L 276.262629 174.64437 
L 283.320708 179.281799 
L 290.286525 179.881943 
L 297.344604 191.430784 
L 304.402683 203.986931 
L 311.460762 176.369866 
L 318.564972 214.785846 
L 325.484657 184.965242 
L 332.588867 194.649309 
L 339.600815 207.312062 
L 346.705025 225.995961 
L 353.716973 204.623563 
L 360.590527 198.585728 
L 367.740868 202.392823 
L 374.752816 201.388415 
L 381.857026 175.640886 
L 388.776711 183.345596 
L 395.742528 203.27824 
L 402.846738 197.346664 
L 409.766423 196.952851 
L 417.009027 139.085868 
L 423.928712 178.454904 
L 431.032922 160.08664 
L 438.04487 150.764249 
L 444.918424 145.708225 
L 452.068765 166.033655 
L 459.080713 243.586617 
L 466.138792 219.729749 
L 473.196871 228.122302 
L 480.070425 245.935818 
" clip-path="url(#pdb6430d389)" style="fill: none; stroke-dasharray: 9.6,2.4,1.5,2.4; stroke-dashoffset: 0; stroke: #ff0000; stroke-width: 1.5"/>
   </g>
   <g id="line2d_36">
    <path d="M 114.480389 221.374045 
L 121.538467 218.38311 
L 128.781071 225.053545 
L 135.83915 221.343743 
L 142.712704 221.122617 
L 149.816914 224.412932 
L 156.828862 240.679022 
L 163.933072 248.496621 
L 170.991151 238.116636 
L 177.910837 236.769645 
L 184.968915 235.225513 
L 191.934732 217.849519 
L 199.085073 224.89216 
L 206.004759 232.305607 
L 213.108969 240.297901 
L 220.167048 240.735663 
L 227.132864 208.019436 
L 234.237074 192.711448 
L 241.15676 190.216003 
L 248.26097 187.321707 
L 255.272917 175.817605 
L 262.377128 195.01051 
L 269.296813 219.631029 
L 276.262629 198.488344 
L 283.320708 181.932117 
L 290.286525 205.128684 
L 297.344604 209.918593 
L 304.402683 210.702977 
L 311.460762 228.020218 
L 318.564972 246.691388 
L 325.484657 251.758743 
L 332.588867 244.287516 
L 339.600815 245.457138 
L 346.705025 229.563676 
L 353.716973 217.599211 
L 360.590527 209.945735 
L 367.740868 219.25467 
L 374.752816 217.524314 
L 381.857026 238.913891 
L 388.776711 224.434501 
L 395.742528 222.1332 
L 402.846738 211.783174 
L 409.766423 202.140284 
L 417.009027 195.60971 
L 423.928712 166.20852 
L 431.032922 168.82797 
L 438.04487 167.634055 
L 444.918424 168.914466 
L 452.068765 197.323194 
L 459.080713 238.848533 
L 466.138792 224.886184 
L 473.196871 219.172772 
L 480.070425 216.305083 
" clip-path="url(#pdb6430d389)" style="fill: none; stroke-dasharray: 5.55,2.4; stroke-dashoffset: 0; stroke: #ff0000; stroke-width: 1.5"/>
   </g>
   <g id="line2d_37">
    <path d="M 114.480389 226.798257 
L 121.538467 220.134974 
L 128.781071 223.452851 
L 135.83915 193.891524 
L 142.712704 216.95194 
L 149.816914 206.053587 
L 156.828862 210.468935 
L 163.933072 228.795771 
L 170.991151 230.014411 
L 177.910837 226.927917 
L 184.968915 206.75356 
L 191.934732 212.813714 
L 199.085073 216.154994 
L 206.004759 222.257723 
L 213.108969 224.269017 
L 220.167048 204.417706 
L 227.132864 203.386562 
L 234.237074 198.557663 
L 241.15676 197.592744 
L 248.26097 193.852587 
L 255.272917 189.642495 
L 262.377128 163.818481 
L 269.296813 187.643834 
L 276.262629 179.745376 
L 283.320708 183.866567 
L 290.286525 194.053565 
L 297.344604 198.43631 
L 304.402683 190.346409 
L 311.460762 197.720245 
L 318.564972 230.829326 
L 325.484657 227.465629 
L 332.588867 228.901132 
L 339.600815 220.37893 
L 346.705025 212.875107 
L 353.716973 202.945008 
L 360.590527 214.682298 
L 367.740868 219.163399 
L 374.752816 220.009314 
L 381.857026 209.718817 
L 388.776711 185.224848 
L 395.742528 203.301106 
L 402.846738 197.015963 
L 409.766423 203.03412 
L 417.009027 116.169297 
L 423.928712 134.641228 
L 431.032922 133.509019 
L 438.04487 127.643759 
L 444.918424 126.491128 
L 452.068765 133.05575 
L 459.080713 229.43324 
L 466.138792 220.604059 
L 473.196871 222.742466 
L 480.070425 225.964997 
" clip-path="url(#pdb6430d389)" style="fill: none; stroke: #ff0000; stroke-width: 1.5; stroke-linecap: square"/>
   </g>
   <g id="line2d_38">
    <path d="M 114.480389 219.137745 
L 121.538467 215.496925 
L 128.781071 213.126568 
L 135.83915 208.175972 
L 142.712704 209.748734 
L 149.816914 209.985668 
L 156.828862 214.101283 
L 163.933072 223.988089 
L 170.991151 225.875139 
L 177.910837 226.54889 
L 184.968915 215.597998 
L 191.934732 206.646664 
L 199.085073 212.892868 
L 206.004759 218.275228 
L 213.108969 218.709658 
L 220.167048 209.965691 
L 227.132864 198.432172 
L 234.237074 196.346688 
L 241.15676 195.867022 
L 248.26097 194.381622 
L 255.272917 191.833548 
L 262.377128 194.896876 
L 269.296813 181.4014 
L 276.262629 184.960438 
L 283.320708 180.779796 
L 290.286525 189.448632 
L 297.344604 192.83768 
L 304.402683 203.55832 
L 311.460762 207.035078 
L 318.564972 225.916391 
L 325.484657 219.484588 
L 332.588867 215.175056 
L 339.600815 214.723854 
L 346.705025 214.779634 
L 353.716973 206.209949 
L 360.590527 207.627792 
L 367.740868 210.688969 
L 374.752816 213.358743 
L 381.857026 207.791005 
L 388.776711 206.336553 
L 395.742528 198.89207 
L 402.846738 194.357394 
L 409.766423 190.739641 
L 417.009027 136.389986 
L 423.928712 132.242868 
L 431.032922 133.600501 
L 438.04487 129.926232 
L 444.918424 128.745194 
L 452.068765 174.951202 
L 459.080713 221.06276 
L 466.138792 223.321599 
L 473.196871 219.213285 
L 480.070425 221.965874 
" clip-path="url(#pdb6430d389)" style="fill: none; stroke: #ff7f0e; stroke-width: 1.5; stroke-linecap: square"/>
   </g>
   <g id="line2d_39">
    <path d="M 114.480389 214.990667 
L 121.538467 213.151129 
L 128.781071 212.956871 
L 135.83915 201.872617 
L 142.712704 211.201987 
L 149.816914 211.156308 
L 156.828862 214.025476 
L 163.933072 224.717131 
L 170.991151 223.28508 
L 177.910837 225.040107 
L 184.968915 207.709068 
L 191.934732 211.407739 
L 199.085073 213.46461 
L 206.004759 209.019736 
L 213.108969 211.053646 
L 220.167048 199.081083 
L 227.132864 195.824998 
L 234.237074 195.124078 
L 241.15676 193.326466 
L 248.26097 193.237623 
L 255.272917 194.972815 
L 262.377128 169.580508 
L 269.296813 188.732374 
L 276.262629 184.748362 
L 283.320708 184.023765 
L 290.286525 194.17584 
L 297.344604 196.441936 
L 304.402683 198.230032 
L 311.460762 203.145946 
L 318.564972 224.531964 
L 325.484657 217.964549 
L 332.588867 218.670175 
L 339.600815 208.84896 
L 346.705025 209.448236 
L 353.716973 200.949625 
L 360.590527 204.718535 
L 367.740868 209.690242 
L 374.752816 212.48626 
L 381.857026 204.771324 
L 388.776711 197.570264 
L 395.742528 198.233722 
L 402.846738 195.592331 
L 409.766423 194.304095 
L 417.009027 146.155603 
L 423.928712 158.382817 
L 431.032922 161.240753 
L 438.04487 154.373287 
L 444.918424 154.489423 
L 452.068765 161.232428 
L 459.080713 220.083353 
L 466.138792 213.783752 
L 473.196871 214.266638 
L 480.070425 218.199598 
" clip-path="url(#pdb6430d389)" style="fill: none; stroke: #1f77b4; stroke-width: 1.5; stroke-linecap: square"/>
   </g>
   <g id="legend_1">
    <g id="patch_7">
     <path d="M 79.9 151.570875 
L 248.71875 151.570875 
Q 250.71875 151.570875 250.71875 149.570875 
L 250.71875 47.824 
Q 250.71875 45.824 248.71875 45.824 
L 79.9 45.824 
Q 77.9 45.824 77.9 47.824 
L 77.9 149.570875 
Q 77.9 151.570875 79.9 151.570875 
z
" style="fill: #ffffff; opacity: 0.8; stroke: #e6e6e6; stroke-linejoin: miter"/>
    </g>
    <g id="line2d_40">
     <path d="M 81.9 53.922438 
L 91.9 53.922438 
L 101.9 53.922438 
" style="fill: none; stroke: #808080; stroke-width: 1.5; stroke-linecap: square"/>
    </g>
    <g id="text_19">
     <!-- S&amp;P 500 daily Log-Volatility -->
     <g transform="translate(109.9 57.422438)scale(0.1 -0.1)">
      <defs>
       <path id="DejaVuSans-53" d="M 3425 4513 
L 3425 3897 
Q 3066 4069 2747 4153 
Q 2428 4238 2131 4238 
Q 1616 4238 1336 4038 
Q 1056 3838 1056 3469 
Q 1056 3159 1242 3001 
Q 1428 2844 1947 2747 
L 2328 2669 
Q 3034 2534 3370 2195 
Q 3706 1856 3706 1288 
Q 3706 609 3251 259 
Q 2797 -91 1919 -91 
Q 1588 -91 1214 -16 
Q 841 59 441 206 
L 441 856 
Q 825 641 1194 531 
Q 1563 422 1919 422 
Q 2459 422 2753 634 
Q 3047 847 3047 1241 
Q 3047 1584 2836 1778 
Q 2625 1972 2144 2069 
L 1759 2144 
Q 1053 2284 737 2584 
Q 422 2884 422 3419 
Q 422 4038 858 4394 
Q 1294 4750 2059 4750 
Q 2388 4750 2728 4690 
Q 3069 4631 3425 4513 
z
" transform="scale(0.015625)"/>
       <path id="DejaVuSans-26" d="M 1556 2509 
Q 1272 2256 1139 2004 
Q 1006 1753 1006 1478 
Q 1006 1022 1337 719 
Q 1669 416 2169 416 
Q 2466 416 2725 514 
Q 2984 613 3213 813 
L 1556 2509 
z
M 1997 2859 
L 3584 1234 
Q 3769 1513 3872 1830 
Q 3975 2147 3994 2503 
L 4575 2503 
Q 4538 2091 4375 1687 
Q 4213 1284 3922 891 
L 4794 0 
L 4006 0 
L 3559 459 
Q 3234 181 2878 45 
Q 2522 -91 2113 -91 
Q 1359 -91 881 339 
Q 403 769 403 1441 
Q 403 1841 612 2192 
Q 822 2544 1241 2853 
Q 1091 3050 1012 3245 
Q 934 3441 934 3628 
Q 934 4134 1281 4442 
Q 1628 4750 2203 4750 
Q 2463 4750 2720 4694 
Q 2978 4638 3244 4525 
L 3244 3956 
Q 2972 4103 2725 4179 
Q 2478 4256 2266 4256 
Q 1938 4256 1733 4082 
Q 1528 3909 1528 3634 
Q 1528 3475 1620 3314 
Q 1713 3153 1997 2859 
z
" transform="scale(0.015625)"/>
       <path id="DejaVuSans-50" d="M 1259 4147 
L 1259 2394 
L 2053 2394 
Q 2494 2394 2734 2622 
Q 2975 2850 2975 3272 
Q 2975 3691 2734 3919 
Q 2494 4147 2053 4147 
L 1259 4147 
z
M 628 4666 
L 2053 4666 
Q 2838 4666 3239 4311 
Q 3641 3956 3641 3272 
Q 3641 2581 3239 2228 
Q 2838 1875 2053 1875 
L 1259 1875 
L 1259 0 
L 628 0 
L 628 4666 
z
" transform="scale(0.015625)"/>
       <path id="DejaVuSans-4c" d="M 628 4666 
L 1259 4666 
L 1259 531 
L 3531 531 
L 3531 0 
L 628 0 
L 628 4666 
z
" transform="scale(0.015625)"/>
       <path id="DejaVuSans-67" d="M 2906 1791 
Q 2906 2416 2648 2759 
Q 2391 3103 1925 3103 
Q 1463 3103 1205 2759 
Q 947 2416 947 1791 
Q 947 1169 1205 825 
Q 1463 481 1925 481 
Q 2391 481 2648 825 
Q 2906 1169 2906 1791 
z
M 3481 434 
Q 3481 -459 3084 -895 
Q 2688 -1331 1869 -1331 
Q 1566 -1331 1297 -1286 
Q 1028 -1241 775 -1147 
L 775 -588 
Q 1028 -725 1275 -790 
Q 1522 -856 1778 -856 
Q 2344 -856 2625 -561 
Q 2906 -266 2906 331 
L 2906 616 
Q 2728 306 2450 153 
Q 2172 0 1784 0 
Q 1141 0 747 490 
Q 353 981 353 1791 
Q 353 2603 747 3093 
Q 1141 3584 1784 3584 
Q 2172 3584 2450 3431 
Q 2728 3278 2906 2969 
L 2906 3500 
L 3481 3500 
L 3481 434 
z
" transform="scale(0.015625)"/>
      </defs>
      <use xlink:href="#DejaVuSans-53"/>
      <use xlink:href="#DejaVuSans-26" x="63.476562"/>
      <use xlink:href="#DejaVuSans-50" x="141.455078"/>
      <use xlink:href="#DejaVuSans-20" x="201.757812"/>
      <use xlink:href="#DejaVuSans-35" x="233.544922"/>
      <use xlink:href="#DejaVuSans-30" x="297.167969"/>
      <use xlink:href="#DejaVuSans-30" x="360.791016"/>
      <use xlink:href="#DejaVuSans-20" x="424.414062"/>
      <use xlink:href="#DejaVuSans-64" x="456.201172"/>
      <use xlink:href="#DejaVuSans-61" x="519.677734"/>
      <use xlink:href="#DejaVuSans-69" x="580.957031"/>
      <use xlink:href="#DejaVuSans-6c" x="608.740234"/>
      <use xlink:href="#DejaVuSans-79" x="636.523438"/>
      <use xlink:href="#DejaVuSans-20" x="695.703125"/>
      <use xlink:href="#DejaVuSans-4c" x="727.490234"/>
      <use xlink:href="#DejaVuSans-6f" x="781.453125"/>
      <use xlink:href="#DejaVuSans-67" x="842.634766"/>
      <use xlink:href="#DejaVuSans-2d" x="906.111328"/>
      <use xlink:href="#DejaVuSans-56" x="936.320312"/>
      <use xlink:href="#DejaVuSans-6f" x="996.978516"/>
      <use xlink:href="#DejaVuSans-6c" x="1058.160156"/>
      <use xlink:href="#DejaVuSans-61" x="1085.943359"/>
      <use xlink:href="#DejaVuSans-74" x="1147.222656"/>
      <use xlink:href="#DejaVuSans-69" x="1186.431641"/>
      <use xlink:href="#DejaVuSans-6c" x="1214.214844"/>
      <use xlink:href="#DejaVuSans-69" x="1241.998047"/>
      <use xlink:href="#DejaVuSans-74" x="1269.78125"/>
      <use xlink:href="#DejaVuSans-79" x="1308.990234"/>
     </g>
    </g>
    <g id="line2d_41">
     <path d="M 81.9 68.600563 
L 91.9 68.600563 
L 101.9 68.600563 
" style="fill: none; stroke-dasharray: 1.5,2.475; stroke-dashoffset: 0; stroke: #ff0000; stroke-width: 1.5"/>
    </g>
    <g id="text_20">
     <!-- R/S Hurst -->
     <g transform="translate(109.9 72.100563)scale(0.1 -0.1)">
      <defs>
       <path id="DejaVuSans-52" d="M 2841 2188 
Q 3044 2119 3236 1894 
Q 3428 1669 3622 1275 
L 4263 0 
L 3584 0 
L 2988 1197 
Q 2756 1666 2539 1819 
Q 2322 1972 1947 1972 
L 1259 1972 
L 1259 0 
L 628 0 
L 628 4666 
L 2053 4666 
Q 2853 4666 3247 4331 
Q 3641 3997 3641 3322 
Q 3641 2881 3436 2590 
Q 3231 2300 2841 2188 
z
M 1259 4147 
L 1259 2491 
L 2053 2491 
Q 2509 2491 2742 2702 
Q 2975 2913 2975 3322 
Q 2975 3731 2742 3939 
Q 2509 4147 2053 4147 
L 1259 4147 
z
" transform="scale(0.015625)"/>
       <path id="DejaVuSans-2f" d="M 1625 4666 
L 2156 4666 
L 531 -594 
L 0 -594 
L 1625 4666 
z
" transform="scale(0.015625)"/>
      </defs>
      <use xlink:href="#DejaVuSans-52"/>
      <use xlink:href="#DejaVuSans-2f" x="69.482422"/>
      <use xlink:href="#DejaVuSans-53" x="103.173828"/>
      <use xlink:href="#DejaVuSans-20" x="166.650391"/>
      <use xlink:href="#DejaVuSans-48" x="198.4375"/>
      <use xlink:href="#DejaVuSans-75" x="273.632812"/>
      <use xlink:href="#DejaVuSans-72" x="337.011719"/>
      <use xlink:href="#DejaVuSans-73" x="378.125"/>
      <use xlink:href="#DejaVuSans-74" x="430.224609"/>
     </g>
    </g>
    <g id="line2d_42">
     <path d="M 81.9 83.278687 
L 91.9 83.278687 
L 101.9 83.278687 
" style="fill: none; stroke-dasharray: 9.6,2.4,1.5,2.4; stroke-dashoffset: 0; stroke: #ff0000; stroke-width: 1.5"/>
    </g>
    <g id="text_21">
     <!-- variogram Hurst -->
     <g transform="translate(109.9 86.778687)scale(0.1 -0.1)">
      <defs>
       <path id="DejaVuSans-76" d="M 191 3500 
L 800 3500 
L 1894 563 
L 2988 3500 
L 3597 3500 
L 2284 0 
L 1503 0 
L 191 3500 
z
" transform="scale(0.015625)"/>
      </defs>
      <use xlink:href="#DejaVuSans-76"/>
      <use xlink:href="#DejaVuSans-61" x="59.179688"/>
      <use xlink:href="#DejaVuSans-72" x="120.458984"/>
      <use xlink:href="#DejaVuSans-69" x="161.572266"/>
      <use xlink:href="#DejaVuSans-6f" x="189.355469"/>
      <use xlink:href="#DejaVuSans-67" x="250.537109"/>
      <use xlink:href="#DejaVuSans-72" x="314.013672"/>
      <use xlink:href="#DejaVuSans-61" x="355.126953"/>
      <use xlink:href="#DejaVuSans-6d" x="416.40625"/>
      <use xlink:href="#DejaVuSans-20" x="513.818359"/>
      <use xlink:href="#DejaVuSans-48" x="545.605469"/>
      <use xlink:href="#DejaVuSans-75" x="620.800781"/>
      <use xlink:href="#DejaVuSans-72" x="684.179688"/>
      <use xlink:href="#DejaVuSans-73" x="725.292969"/>
      <use xlink:href="#DejaVuSans-74" x="777.392578"/>
     </g>
    </g>
    <g id="line2d_43">
     <path d="M 81.9 97.956813 
L 91.9 97.956813 
L 101.9 97.956813 
" style="fill: none; stroke-dasharray: 5.55,2.4; stroke-dashoffset: 0; stroke: #ff0000; stroke-width: 1.5"/>
    </g>
    <g id="text_22">
     <!-- Higuchi Hurst -->
     <g transform="translate(109.9 101.456813)scale(0.1 -0.1)">
      <defs>
       <path id="DejaVuSans-63" d="M 3122 3366 
L 3122 2828 
Q 2878 2963 2633 3030 
Q 2388 3097 2138 3097 
Q 1578 3097 1268 2742 
Q 959 2388 959 1747 
Q 959 1106 1268 751 
Q 1578 397 2138 397 
Q 2388 397 2633 464 
Q 2878 531 3122 666 
L 3122 134 
Q 2881 22 2623 -34 
Q 2366 -91 2075 -91 
Q 1284 -91 818 406 
Q 353 903 353 1747 
Q 353 2603 823 3093 
Q 1294 3584 2113 3584 
Q 2378 3584 2631 3529 
Q 2884 3475 3122 3366 
z
" transform="scale(0.015625)"/>
       <path id="DejaVuSans-68" d="M 3513 2113 
L 3513 0 
L 2938 0 
L 2938 2094 
Q 2938 2591 2744 2837 
Q 2550 3084 2163 3084 
Q 1697 3084 1428 2787 
Q 1159 2491 1159 1978 
L 1159 0 
L 581 0 
L 581 4863 
L 1159 4863 
L 1159 2956 
Q 1366 3272 1645 3428 
Q 1925 3584 2291 3584 
Q 2894 3584 3203 3211 
Q 3513 2838 3513 2113 
z
" transform="scale(0.015625)"/>
      </defs>
      <use xlink:href="#DejaVuSans-48"/>
      <use xlink:href="#DejaVuSans-69" x="75.195312"/>
      <use xlink:href="#DejaVuSans-67" x="102.978516"/>
      <use xlink:href="#DejaVuSans-75" x="166.455078"/>
      <use xlink:href="#DejaVuSans-63" x="229.833984"/>
      <use xlink:href="#DejaVuSans-68" x="284.814453"/>
      <use xlink:href="#DejaVuSans-69" x="348.193359"/>
      <use xlink:href="#DejaVuSans-20" x="375.976562"/>
      <use xlink:href="#DejaVuSans-48" x="407.763672"/>
      <use xlink:href="#DejaVuSans-75" x="482.958984"/>
      <use xlink:href="#DejaVuSans-72" x="546.337891"/>
      <use xlink:href="#DejaVuSans-73" x="587.451172"/>
      <use xlink:href="#DejaVuSans-74" x="639.550781"/>
     </g>
    </g>
    <g id="line2d_44">
     <path d="M 81.9 112.634938 
L 91.9 112.634938 
L 101.9 112.634938 
" style="fill: none; stroke: #ff0000; stroke-width: 1.5; stroke-linecap: square"/>
    </g>
    <g id="text_23">
     <!-- Whittle Hurst -->
     <g transform="translate(109.9 116.134938)scale(0.1 -0.1)">
      <defs>
       <path id="DejaVuSans-57" d="M 213 4666 
L 850 4666 
L 1831 722 
L 2809 4666 
L 3519 4666 
L 4500 722 
L 5478 4666 
L 6119 4666 
L 4947 0 
L 4153 0 
L 3169 4050 
L 2175 0 
L 1381 0 
L 213 4666 
z
" transform="scale(0.015625)"/>
      </defs>
      <use xlink:href="#DejaVuSans-57"/>
      <use xlink:href="#DejaVuSans-68" x="98.876953"/>
      <use xlink:href="#DejaVuSans-69" x="162.255859"/>
      <use xlink:href="#DejaVuSans-74" x="190.039062"/>
      <use xlink:href="#DejaVuSans-74" x="229.248047"/>
      <use xlink:href="#DejaVuSans-6c" x="268.457031"/>
      <use xlink:href="#DejaVuSans-65" x="296.240234"/>
      <use xlink:href="#DejaVuSans-20" x="357.763672"/>
      <use xlink:href="#DejaVuSans-48" x="389.550781"/>
      <use xlink:href="#DejaVuSans-75" x="464.746094"/>
      <use xlink:href="#DejaVuSans-72" x="528.125"/>
      <use xlink:href="#DejaVuSans-73" x="569.238281"/>
      <use xlink:href="#DejaVuSans-74" x="621.337891"/>
     </g>
    </g>
    <g id="line2d_45">
     <path d="M 81.9 127.313063 
L 91.9 127.313063 
L 101.9 127.313063 
" style="fill: none; stroke: #ff7f0e; stroke-width: 1.5; stroke-linecap: square"/>
    </g>
    <g id="text_24">
     <!-- 1D CNN Hurst -->
     <g transform="translate(109.9 130.813063)scale(0.1 -0.1)">
      <defs>
       <path id="DejaVuSans-43" d="M 4122 4306 
L 4122 3641 
Q 3803 3938 3442 4084 
Q 3081 4231 2675 4231 
Q 1875 4231 1450 3742 
Q 1025 3253 1025 2328 
Q 1025 1406 1450 917 
Q 1875 428 2675 428 
Q 3081 428 3442 575 
Q 3803 722 4122 1019 
L 4122 359 
Q 3791 134 3420 21 
Q 3050 -91 2638 -91 
Q 1578 -91 968 557 
Q 359 1206 359 2328 
Q 359 3453 968 4101 
Q 1578 4750 2638 4750 
Q 3056 4750 3426 4639 
Q 3797 4528 4122 4306 
z
" transform="scale(0.015625)"/>
       <path id="DejaVuSans-4e" d="M 628 4666 
L 1478 4666 
L 3547 763 
L 3547 4666 
L 4159 4666 
L 4159 0 
L 3309 0 
L 1241 3903 
L 1241 0 
L 628 0 
L 628 4666 
z
" transform="scale(0.015625)"/>
      </defs>
      <use xlink:href="#DejaVuSans-31"/>
      <use xlink:href="#DejaVuSans-44" x="63.623047"/>
      <use xlink:href="#DejaVuSans-20" x="140.625"/>
      <use xlink:href="#DejaVuSans-43" x="172.412109"/>
      <use xlink:href="#DejaVuSans-4e" x="242.236328"/>
      <use xlink:href="#DejaVuSans-4e" x="317.041016"/>
      <use xlink:href="#DejaVuSans-20" x="391.845703"/>
      <use xlink:href="#DejaVuSans-48" x="423.632812"/>
      <use xlink:href="#DejaVuSans-75" x="498.828125"/>
      <use xlink:href="#DejaVuSans-72" x="562.207031"/>
      <use xlink:href="#DejaVuSans-73" x="603.320312"/>
      <use xlink:href="#DejaVuSans-74" x="655.419922"/>
     </g>
    </g>
    <g id="line2d_46">
     <path d="M 81.9 141.991187 
L 91.9 141.991187 
L 101.9 141.991187 
" style="fill: none; stroke: #1f77b4; stroke-width: 1.5; stroke-linecap: square"/>
    </g>
    <g id="text_25">
     <!-- LSTM Hurst -->
     <g transform="translate(109.9 145.491187)scale(0.1 -0.1)">
      <defs>
       <path id="DejaVuSans-54" d="M -19 4666 
L 3928 4666 
L 3928 4134 
L 2272 4134 
L 2272 0 
L 1638 0 
L 1638 4134 
L -19 4134 
L -19 4666 
z
" transform="scale(0.015625)"/>
       <path id="DejaVuSans-4d" d="M 628 4666 
L 1569 4666 
L 2759 1491 
L 3956 4666 
L 4897 4666 
L 4897 0 
L 4281 0 
L 4281 4097 
L 3078 897 
L 2444 897 
L 1241 4097 
L 1241 0 
L 628 0 
L 628 4666 
z
" transform="scale(0.015625)"/>
      </defs>
      <use xlink:href="#DejaVuSans-4c"/>
      <use xlink:href="#DejaVuSans-53" x="55.712891"/>
      <use xlink:href="#DejaVuSans-54" x="119.189453"/>
      <use xlink:href="#DejaVuSans-4d" x="180.273438"/>
      <use xlink:href="#DejaVuSans-20" x="266.552734"/>
      <use xlink:href="#DejaVuSans-48" x="298.339844"/>
      <use xlink:href="#DejaVuSans-75" x="373.535156"/>
      <use xlink:href="#DejaVuSans-72" x="436.914062"/>
      <use xlink:href="#DejaVuSans-73" x="478.027344"/>
      <use xlink:href="#DejaVuSans-74" x="530.126953"/>
     </g>
    </g>
   </g>
  </g>
 </g>
 <defs>
  <clipPath id="pdb6430d389">
   <rect x="72.9" y="40.824" width="451.98" height="261.954"/>
  </clipPath>
 </defs>
</svg>
