<?xml version="1.0" encoding="utf-8" standalone="no"?>
<!DOCTYPE svg PUBLIC "-//W3C//DTD SVG 1.1//EN"
  "http://www.w3.org/Graphics/SVG/1.1/DTD/svg11.dtd">
<svg xmlns:xlink="http://www.w3.org/1999/xlink" width="720pt" height="900pt" viewBox="0 0 720 900" xmlns="http://www.w3.org/2000/svg" version="1.1">
 <metadata>
  <rdf:RDF xmlns:dc="http://purl.org/dc/elements/1.1/" xmlns:cc="http://creativecommons.org/ns#" xmlns:rdf="http://www.w3.org/1999/02/22-rdf-syntax-ns#">
   <cc:Work>
    <dc:type rdf:resource="http://purl.org/dc/dcmitype/StillImage"/>
    <dc:date>2024-06-28T11:09:43.084865</dc:date>
    <dc:format>image/svg+xml</dc:format>
    <dc:creator>
     <cc:Agent>
      <dc:title>Matplotlib v3.5.1, https://matplotlib.org/</dc:title>
     </cc:Agent>
    </dc:creator>
   </cc:Work>
  </rdf:RDF>
 </metadata>
 <defs>
  <style type="text/css">*{stroke-linejoin: round; stroke-linecap: butt}</style>
 </defs>
 <g id="figure_1">
  <g id="patch_1">
   <path d="M 0 900 
L 720 900 
L 720 0 
L 0 0 
z
" style="fill: #ffffff"/>
  </g>
  <g id="axes_1">
   <g id="patch_2">
    <path d="M 64.29 146.58 
L 709.2 146.58 
L 709.2 31.2 
L 64.29 31.2 
L 64.29 146.58 
z
" style="fill: none; opacity: 0"/>
   </g>
   <g id="matplotlib.axis_1">
    <g id="xtick_1">
     <g id="line2d_1">
      <path d="M 91.304947 146.58 
L 91.304947 31.2 
" clip-path="url(#p4111f8417c)" style="fill: none; stroke: #e6e6e6; stroke-width: 1.6; stroke-linecap: square"/>
     </g>
     <g id="line2d_2">
      <defs>
       <path id="m04f05ad2b4" d="M 0 0 
L 0 3.5 
" style="stroke: #000000; stroke-width: 1.6"/>
      </defs>
      <g>
       <use xlink:href="#m04f05ad2b4" x="91.304947" y="146.58" style="stroke: #000000; stroke-width: 1.6"/>
      </g>
     </g>
     <g id="text_1">
      <!-- 0 -->
      <g transform="translate(86.214947 173.4375)scale(0.16 -0.16)">
       <defs>
        <path id="DejaVuSans-30" d="M 2034 4250 
Q 1547 4250 1301 3770 
Q 1056 3291 1056 2328 
Q 1056 1369 1301 889 
Q 1547 409 2034 409 
Q 2525 409 2770 889 
Q 3016 1369 3016 2328 
Q 3016 3291 2770 3770 
Q 2525 4250 2034 4250 
z
M 2034 4750 
Q 2819 4750 3233 4129 
Q 3647 3509 3647 2328 
Q 3647 1150 3233 529 
Q 2819 -91 2034 -91 
Q 1250 -91 836 529 
Q 422 1150 422 2328 
Q 422 3509 836 4129 
Q 1250 4750 2034 4750 
z
" transform="scale(0.015625)"/>
       </defs>
       <use xlink:href="#DejaVuSans-30"/>
      </g>
     </g>
    </g>
    <g id="xtick_2">
     <g id="line2d_3">
      <path d="M 206.262166 146.58 
L 206.262166 31.2 
" clip-path="url(#p4111f8417c)" style="fill: none; stroke: #e6e6e6; stroke-width: 1.6; stroke-linecap: square"/>
     </g>
     <g id="line2d_4">
      <g>
       <use xlink:href="#m04f05ad2b4" x="206.262166" y="146.58" style="stroke: #000000; stroke-width: 1.6"/>
      </g>
     </g>
     <g id="text_2">
      <!-- 50 -->
      <g transform="translate(196.082166 173.4375)scale(0.16 -0.16)">
       <defs>
        <path id="DejaVuSans-35" d="M 691 4666 
L 3169 4666 
L 3169 4134 
L 1269 4134 
L 1269 2991 
Q 1406 3038 1543 3061 
Q 1681 3084 1819 3084 
Q 2600 3084 3056 2656 
Q 3513 2228 3513 1497 
Q 3513 744 3044 326 
Q 2575 -91 1722 -91 
Q 1428 -91 1123 -41 
Q 819 9 494 109 
L 494 744 
Q 775 591 1075 516 
Q 1375 441 1709 441 
Q 2250 441 2565 725 
Q 2881 1009 2881 1497 
Q 2881 1984 2565 2268 
Q 2250 2553 1709 2553 
Q 1456 2553 1204 2497 
Q 953 2441 691 2322 
L 691 4666 
z
" transform="scale(0.015625)"/>
       </defs>
       <use xlink:href="#DejaVuSans-35"/>
       <use xlink:href="#DejaVuSans-30" x="63.623047"/>
      </g>
     </g>
    </g>
    <g id="xtick_3">
     <g id="line2d_5">
      <path d="M 321.219385 146.58 
L 321.219385 31.2 
" clip-path="url(#p4111f8417c)" style="fill: none; stroke: #e6e6e6; stroke-width: 1.6; stroke-linecap: square"/>
     </g>
     <g id="line2d_6">
      <g>
       <use xlink:href="#m04f05ad2b4" x="321.219385" y="146.58" style="stroke: #000000; stroke-width: 1.6"/>
      </g>
     </g>
     <g id="text_3">
      <!-- 100 -->
      <g transform="translate(305.949385 173.4375)scale(0.16 -0.16)">
       <defs>
        <path id="DejaVuSans-31" d="M 794 531 
L 1825 531 
L 1825 4091 
L 703 3866 
L 703 4441 
L 1819 4666 
L 2450 4666 
L 2450 531 
L 3481 531 
L 3481 0 
L 794 0 
L 794 531 
z
" transform="scale(0.015625)"/>
       </defs>
       <use xlink:href="#DejaVuSans-31"/>
       <use xlink:href="#DejaVuSans-30" x="63.623047"/>
       <use xlink:href="#DejaVuSans-30" x="127.246094"/>
      </g>
     </g>
    </g>
    <g id="xtick_4">
     <g id="line2d_7">
      <path d="M 436.176604 146.58 
L 436.176604 31.2 
" clip-path="url(#p4111f8417c)" style="fill: none; stroke: #e6e6e6; stroke-width: 1.6; stroke-linecap: square"/>
     </g>
     <g id="line2d_8">
      <g>
       <use xlink:href="#m04f05ad2b4" x="436.176604" y="146.58" style="stroke: #000000; stroke-width: 1.6"/>
      </g>
     </g>
     <g id="text_4">
      <!-- 150 -->
      <g transform="translate(420.906604 173.4375)scale(0.16 -0.16)">
       <use xlink:href="#DejaVuSans-31"/>
       <use xlink:href="#DejaVuSans-35" x="63.623047"/>
       <use xlink:href="#DejaVuSans-30" x="127.246094"/>
      </g>
     </g>
    </g>
    <g id="xtick_5">
     <g id="line2d_9">
      <path d="M 551.133824 146.58 
L 551.133824 31.2 
" clip-path="url(#p4111f8417c)" style="fill: none; stroke: #e6e6e6; stroke-width: 1.6; stroke-linecap: square"/>
     </g>
     <g id="line2d_10">
      <g>
       <use xlink:href="#m04f05ad2b4" x="551.133824" y="146.58" style="stroke: #000000; stroke-width: 1.6"/>
      </g>
     </g>
     <g id="text_5">
      <!-- 200 -->
      <g transform="translate(535.863824 173.4375)scale(0.16 -0.16)">
       <defs>
        <path id="DejaVuSans-32" d="M 1228 531 
L 3431 531 
L 3431 0 
L 469 0 
L 469 531 
Q 828 903 1448 1529 
Q 2069 2156 2228 2338 
Q 2531 2678 2651 2914 
Q 2772 3150 2772 3378 
Q 2772 3750 2511 3984 
Q 2250 4219 1831 4219 
Q 1534 4219 1204 4116 
Q 875 4013 500 3803 
L 500 4441 
Q 881 4594 1212 4672 
Q 1544 4750 1819 4750 
Q 2544 4750 2975 4387 
Q 3406 4025 3406 3419 
Q 3406 3131 3298 2873 
Q 3191 2616 2906 2266 
Q 2828 2175 2409 1742 
Q 1991 1309 1228 531 
z
" transform="scale(0.015625)"/>
       </defs>
       <use xlink:href="#DejaVuSans-32"/>
       <use xlink:href="#DejaVuSans-30" x="63.623047"/>
       <use xlink:href="#DejaVuSans-30" x="127.246094"/>
      </g>
     </g>
    </g>
    <g id="xtick_6">
     <g id="line2d_11">
      <path d="M 666.091043 146.58 
L 666.091043 31.2 
" clip-path="url(#p4111f8417c)" style="fill: none; stroke: #e6e6e6; stroke-width: 1.6; stroke-linecap: square"/>
     </g>
     <g id="line2d_12">
      <g>
       <use xlink:href="#m04f05ad2b4" x="666.091043" y="146.58" style="stroke: #000000; stroke-width: 1.6"/>
      </g>
     </g>
     <g id="text_6">
      <!-- 250 -->
      <g transform="translate(650.821043 173.4375)scale(0.16 -0.16)">
       <use xlink:href="#DejaVuSans-32"/>
       <use xlink:href="#DejaVuSans-35" x="63.623047"/>
       <use xlink:href="#DejaVuSans-30" x="127.246094"/>
      </g>
     </g>
    </g>
   </g>
   <g id="matplotlib.axis_2">
    <g id="ytick_1">
     <g id="line2d_13">
      <path d="M 64.29 121.908421 
L 709.2 121.908421 
" clip-path="url(#p4111f8417c)" style="fill: none; stroke: #e6e6e6; stroke-width: 1.6; stroke-linecap: square"/>
     </g>
     <g id="line2d_14">
      <defs>
       <path id="mf980985d65" d="M 0 0 
L -3.5 0 
" style="stroke: #000000; stroke-width: 1.6"/>
      </defs>
      <g>
       <use xlink:href="#mf980985d65" x="64.29" y="121.908421" style="stroke: #000000; stroke-width: 1.6"/>
      </g>
     </g>
     <g id="text_7">
      <!-- −2.5 -->
      <g transform="translate(10.7375 127.987171)scale(0.16 -0.16)">
       <defs>
        <path id="DejaVuSans-2212" d="M 678 2272 
L 4684 2272 
L 4684 1741 
L 678 1741 
L 678 2272 
z
" transform="scale(0.015625)"/>
        <path id="DejaVuSans-2e" d="M 684 794 
L 1344 794 
L 1344 0 
L 684 0 
L 684 794 
z
" transform="scale(0.015625)"/>
       </defs>
       <use xlink:href="#DejaVuSans-2212"/>
       <use xlink:href="#DejaVuSans-32" x="83.789062"/>
       <use xlink:href="#DejaVuSans-2e" x="147.412109"/>
       <use xlink:href="#DejaVuSans-35" x="179.199219"/>
      </g>
     </g>
    </g>
    <g id="ytick_2">
     <g id="line2d_15">
      <path d="M 64.29 87.290986 
L 709.2 87.290986 
" clip-path="url(#p4111f8417c)" style="fill: none; stroke: #e6e6e6; stroke-width: 1.6; stroke-linecap: square"/>
     </g>
     <g id="line2d_16">
      <g>
       <use xlink:href="#mf980985d65" x="64.29" y="87.290986" style="stroke: #000000; stroke-width: 1.6"/>
      </g>
     </g>
     <g id="text_8">
      <!-- 0.0 -->
      <g transform="translate(24.145 93.369736)scale(0.16 -0.16)">
       <use xlink:href="#DejaVuSans-30"/>
       <use xlink:href="#DejaVuSans-2e" x="63.623047"/>
       <use xlink:href="#DejaVuSans-30" x="95.410156"/>
      </g>
     </g>
    </g>
    <g id="ytick_3">
     <g id="line2d_17">
      <path d="M 64.29 52.673552 
L 709.2 52.673552 
" clip-path="url(#p4111f8417c)" style="fill: none; stroke: #e6e6e6; stroke-width: 1.6; stroke-linecap: square"/>
     </g>
     <g id="line2d_18">
      <g>
       <use xlink:href="#mf980985d65" x="64.29" y="52.673552" style="stroke: #000000; stroke-width: 1.6"/>
      </g>
     </g>
     <g id="text_9">
      <!-- 2.5 -->
      <g transform="translate(24.145 58.752302)scale(0.16 -0.16)">
       <use xlink:href="#DejaVuSans-32"/>
       <use xlink:href="#DejaVuSans-2e" x="63.623047"/>
       <use xlink:href="#DejaVuSans-35" x="95.410156"/>
      </g>
     </g>
    </g>
   </g>
   <g id="patch_3">
    <path d="M 64.29 146.58 
L 64.29 31.2 
" style="fill: none; stroke: #000000; stroke-width: 0.8; stroke-linejoin: miter; stroke-linecap: square"/>
   </g>
   <g id="patch_4">
    <path d="M 709.2 146.58 
L 709.2 31.2 
" style="fill: none; stroke: #e6e6e6; stroke-width: 0.8; stroke-linejoin: miter; stroke-linecap: square"/>
   </g>
   <g id="patch_5">
    <path d="M 64.29 146.58 
L 709.2 146.58 
" style="fill: none; stroke: #000000; stroke-width: 0.8; stroke-linejoin: miter; stroke-linecap: square"/>
   </g>
   <g id="patch_6">
    <path d="M 64.29 31.2 
L 709.2 31.2 
" style="fill: none; stroke: #e6e6e6; stroke-width: 0.8; stroke-linejoin: miter; stroke-linecap: square"/>
   </g>
   <g id="text_10">
    <!-- d = -0.49 -->
    <g transform="translate(341.6655 25.2)scale(0.192 -0.192)">
     <defs>
      <path id="DejaVuSans-64" d="M 2906 2969 
L 2906 4863 
L 3481 4863 
L 3481 0 
L 2906 0 
L 2906 525 
Q 2725 213 2448 61 
Q 2172 -91 1784 -91 
Q 1150 -91 751 415 
Q 353 922 353 1747 
Q 353 2572 751 3078 
Q 1150 3584 1784 3584 
Q 2172 3584 2448 3432 
Q 2725 3281 2906 2969 
z
M 947 1747 
Q 947 1113 1208 752 
Q 1469 391 1925 391 
Q 2381 391 2643 752 
Q 2906 1113 2906 1747 
Q 2906 2381 2643 2742 
Q 2381 3103 1925 3103 
Q 1469 3103 1208 2742 
Q 947 2381 947 1747 
z
" transform="scale(0.015625)"/>
      <path id="DejaVuSans-20" transform="scale(0.015625)"/>
      <path id="DejaVuSans-3d" d="M 678 2906 
L 4684 2906 
L 4684 2381 
L 678 2381 
L 678 2906 
z
M 678 1631 
L 4684 1631 
L 4684 1100 
L 678 1100 
L 678 1631 
z
" transform="scale(0.015625)"/>
      <path id="DejaVuSans-2d" d="M 313 2009 
L 1997 2009 
L 1997 1497 
L 313 1497 
L 313 2009 
z
" transform="scale(0.015625)"/>
      <path id="DejaVuSans-34" d="M 2419 4116 
L 825 1625 
L 2419 1625 
L 2419 4116 
z
M 2253 4666 
L 3047 4666 
L 3047 1625 
L 3713 1625 
L 3713 1100 
L 3047 1100 
L 3047 0 
L 2419 0 
L 2419 1100 
L 313 1100 
L 313 1709 
L 2253 4666 
z
" transform="scale(0.015625)"/>
      <path id="DejaVuSans-39" d="M 703 97 
L 703 672 
Q 941 559 1184 500 
Q 1428 441 1663 441 
Q 2288 441 2617 861 
Q 2947 1281 2994 2138 
Q 2813 1869 2534 1725 
Q 2256 1581 1919 1581 
Q 1219 1581 811 2004 
Q 403 2428 403 3163 
Q 403 3881 828 4315 
Q 1253 4750 1959 4750 
Q 2769 4750 3195 4129 
Q 3622 3509 3622 2328 
Q 3622 1225 3098 567 
Q 2575 -91 1691 -91 
Q 1453 -91 1209 -44 
Q 966 3 703 97 
z
M 1959 2075 
Q 2384 2075 2632 2365 
Q 2881 2656 2881 3163 
Q 2881 3666 2632 3958 
Q 2384 4250 1959 4250 
Q 1534 4250 1286 3958 
Q 1038 3666 1038 3163 
Q 1038 2656 1286 2365 
Q 1534 2075 1959 2075 
z
" transform="scale(0.015625)"/>
     </defs>
     <use xlink:href="#DejaVuSans-64"/>
     <use xlink:href="#DejaVuSans-20" x="63.476562"/>
     <use xlink:href="#DejaVuSans-3d" x="95.263672"/>
     <use xlink:href="#DejaVuSans-20" x="179.052734"/>
     <use xlink:href="#DejaVuSans-2d" x="210.839844"/>
     <use xlink:href="#DejaVuSans-30" x="246.923828"/>
     <use xlink:href="#DejaVuSans-2e" x="310.546875"/>
     <use xlink:href="#DejaVuSans-34" x="342.333984"/>
     <use xlink:href="#DejaVuSans-39" x="405.957031"/>
    </g>
   </g>
   <g id="line2d_19">
    <path d="M 93.604091 91.476908 
L 95.903235 76.623807 
L 98.20238 94.865226 
L 100.501524 93.96315 
L 102.800668 104.773571 
L 105.099813 94.751816 
L 107.398957 76.327589 
L 109.698102 85.573541 
L 111.997246 99.1776 
L 114.29639 48.909455 
L 116.595535 82.993572 
L 118.894679 90.407989 
L 121.193824 103.147377 
L 123.492968 66.392779 
L 125.792112 98.186487 
L 128.091257 88.396524 
L 130.390401 73.812733 
L 132.689545 86.42267 
L 134.98869 93.454994 
L 137.287834 76.291451 
L 139.586979 88.003025 
L 141.886123 106.716732 
L 144.185267 99.536876 
L 146.484412 82.940929 
L 148.783556 106.970063 
L 151.082701 91.421419 
L 153.381845 61.682068 
L 155.680989 87.84243 
L 157.980134 72.029186 
L 160.279278 99.586215 
L 162.578422 90.713433 
L 164.877567 70.773521 
L 167.176711 82.994724 
L 169.475856 85.96045 
L 171.775 96.720876 
L 174.074144 91.606497 
L 176.373289 79.434245 
L 178.672433 99.064687 
L 180.971578 116.475567 
L 183.270722 66.941647 
L 185.569866 80.665074 
L 187.869011 82.853166 
L 190.168155 86.161028 
L 192.467299 85.242474 
L 194.766444 96.30033 
L 197.065588 84.640082 
L 199.364733 84.804517 
L 201.663877 84.814321 
L 203.963021 89.178813 
L 206.262166 76.948638 
L 208.56131 95.026414 
L 210.860455 85.896488 
L 213.159599 58.390115 
L 215.458743 103.886262 
L 217.757888 58.374475 
L 220.057032 138.487205 
L 222.356176 52.755871 
L 224.655321 104.691012 
L 226.954465 88.072647 
L 229.25361 64.880769 
L 231.552754 96.073548 
L 233.851898 82.124876 
L 236.151043 108.811539 
L 238.450187 67.019854 
L 240.749332 104.022552 
L 243.048476 86.638907 
L 245.34762 71.247542 
L 247.646765 118.120216 
L 249.945909 88.231934 
L 252.245053 95.826888 
L 254.544198 99.267935 
L 256.843342 84.234565 
L 259.142487 55.302699 
L 261.441631 103.947126 
L 263.740775 87.872166 
L 266.03992 83.598265 
L 268.339064 106.933645 
L 270.638209 36.444545 
L 272.937353 107.460457 
L 275.236497 86.521384 
L 277.535642 108.136235 
L 279.834786 78.11116 
L 282.13393 77.417614 
L 286.732219 98.13478 
L 289.031364 89.276881 
L 291.330508 75.829463 
L 293.629652 95.009211 
L 295.928797 73.38244 
L 298.227941 90.102816 
L 300.527086 96.756382 
L 302.82623 62.858604 
L 305.125374 87.642035 
L 307.424519 90.712397 
L 309.723663 78.85636 
L 312.022807 97.626534 
L 314.321952 91.122241 
L 316.621096 93.319009 
L 318.920241 84.935186 
L 321.219385 98.156797 
L 323.518529 70.05769 
L 325.817674 85.416551 
L 328.116818 115.591861 
L 330.415963 98.571395 
L 332.715107 69.486415 
L 335.014251 80.937885 
L 337.313396 94.780829 
L 339.61254 104.106373 
L 341.911684 74.774895 
L 344.210829 76.214872 
L 346.509973 104.221977 
L 348.809118 91.097362 
L 351.108262 85.375128 
L 353.407406 84.013419 
L 355.706551 83.81218 
L 358.005695 66.976546 
L 360.30484 81.647756 
L 362.603984 99.158379 
L 364.903128 80.990935 
L 367.202273 88.931513 
L 369.501417 80.976083 
L 371.800561 89.758444 
L 374.099706 105.247563 
L 376.39885 72.539108 
L 378.697995 73.953042 
L 380.997139 91.66033 
L 383.296283 98.020332 
L 385.595428 99.077463 
L 387.894572 85.89944 
L 390.193717 99.752344 
L 392.492861 89.465498 
L 394.792005 71.641605 
L 397.09115 67.130656 
L 399.390294 99.304941 
L 401.689439 87.911368 
L 403.988583 98.627543 
L 406.287727 86.820994 
L 408.586872 77.390781 
L 410.886016 81.491312 
L 413.18516 87.9364 
L 415.484305 86.313537 
L 417.783449 77.614536 
L 420.082594 111.047616 
L 422.381738 74.655141 
L 424.680882 95.432858 
L 426.980027 86.428988 
L 429.279171 71.505282 
L 431.578316 76.565945 
L 433.87746 108.81217 
L 436.176604 75.667948 
L 438.475749 94.704967 
L 440.774893 80.852003 
L 443.074037 103.328945 
L 445.373182 67.9201 
L 447.672326 79.568214 
L 449.971471 97.689461 
L 452.270615 96.901314 
L 454.569759 64.053737 
L 456.868904 88.205795 
L 459.168048 104.653671 
L 461.467193 95.167646 
L 463.766337 120.106524 
L 466.065481 60.748329 
L 468.364626 75.457783 
L 470.66377 120.801266 
L 472.962914 62.754737 
L 477.561203 95.328226 
L 479.860348 79.16461 
L 482.159492 88.95765 
L 484.458636 61.292897 
L 486.757781 84.626044 
L 489.056925 116.315819 
L 491.35607 100.159771 
L 493.655214 70.015015 
L 495.954358 63.227582 
L 498.253503 104.681458 
L 500.552647 66.682734 
L 502.851791 78.777418 
L 505.150936 68.695564 
L 507.45008 109.191797 
L 509.749225 122.2698 
L 512.048369 84.74512 
L 514.347513 79.43184 
L 516.646658 108.41406 
L 518.945802 91.429967 
L 521.244947 101.547631 
L 523.544091 47.683634 
L 525.843235 110.371642 
L 528.14238 80.286668 
L 530.441524 91.791636 
L 532.740668 89.10209 
L 535.039813 75.212139 
L 537.338957 74.914537 
L 539.638102 113.991887 
L 541.937246 96.628669 
L 544.23639 84.354745 
L 546.535535 88.299766 
L 548.834679 67.089603 
L 551.133824 60.178425 
L 553.432968 100.400333 
L 555.732112 82.291556 
L 558.031257 93.566327 
L 560.330401 77.808247 
L 562.629545 86.711119 
L 564.92869 141.335455 
L 567.227834 58.980192 
L 569.526979 81.308151 
L 571.826123 61.54146 
L 574.125267 98.540836 
L 576.424412 103.775099 
L 578.723556 106.871982 
L 581.022701 65.817023 
L 583.321845 92.672688 
L 585.620989 88.741592 
L 587.920134 89.363424 
L 590.219278 69.775781 
L 592.518422 97.699149 
L 594.817567 58.561308 
L 597.116711 106.298553 
L 599.415856 86.9025 
L 601.715 86.933019 
L 604.014144 75.199068 
L 606.313289 88.807074 
L 608.612433 104.800463 
L 610.911578 85.891618 
L 613.210722 96.522092 
L 615.509866 71.775226 
L 617.809011 93.924535 
L 620.108155 66.835845 
L 622.407299 80.78362 
L 624.706444 76.545955 
L 627.005588 109.429163 
L 629.304733 110.906578 
L 631.603877 92.886269 
L 633.903021 83.415697 
L 636.202166 77.826752 
L 638.50131 75.607942 
L 640.800455 97.620891 
L 643.099599 80.409522 
L 645.398743 93.789194 
L 647.697888 93.810891 
L 649.997032 96.238108 
L 652.296176 82.325097 
L 654.595321 75.238363 
L 656.894465 74.358618 
L 659.19361 96.29427 
L 661.492754 58.459454 
L 663.791898 123.18272 
L 666.091043 71.379559 
L 668.390187 94.512052 
L 670.689332 101.900381 
L 672.988476 52.928713 
L 675.28762 125.432537 
L 677.586765 86.054416 
L 679.885909 73.391271 
L 679.885909 73.391271 
" clip-path="url(#p4111f8417c)" style="fill: none; stroke: #1f77b3; stroke-width: 2.8; stroke-linecap: square"/>
   </g>
  </g>
  <g id="axes_2">
   <g id="patch_7">
    <path d="M 64.29 324.42 
L 709.2 324.42 
L 709.2 209.04 
L 64.29 209.04 
L 64.29 324.42 
z
" style="fill: none; opacity: 0"/>
   </g>
   <g id="matplotlib.axis_3">
    <g id="xtick_7">
     <g id="line2d_20">
      <path d="M 91.304947 324.42 
L 91.304947 209.04 
" clip-path="url(#p91dde03a0b)" style="fill: none; stroke: #e6e6e6; stroke-width: 1.6; stroke-linecap: square"/>
     </g>
     <g id="line2d_21">
      <g>
       <use xlink:href="#m04f05ad2b4" x="91.304947" y="324.42" style="stroke: #000000; stroke-width: 1.6"/>
      </g>
     </g>
     <g id="text_11">
      <!-- 0 -->
      <g transform="translate(86.214947 351.2775)scale(0.16 -0.16)">
       <use xlink:href="#DejaVuSans-30"/>
      </g>
     </g>
    </g>
    <g id="xtick_8">
     <g id="line2d_22">
      <path d="M 206.262166 324.42 
L 206.262166 209.04 
" clip-path="url(#p91dde03a0b)" style="fill: none; stroke: #e6e6e6; stroke-width: 1.6; stroke-linecap: square"/>
     </g>
     <g id="line2d_23">
      <g>
       <use xlink:href="#m04f05ad2b4" x="206.262166" y="324.42" style="stroke: #000000; stroke-width: 1.6"/>
      </g>
     </g>
     <g id="text_12">
      <!-- 50 -->
      <g transform="translate(196.082166 351.2775)scale(0.16 -0.16)">
       <use xlink:href="#DejaVuSans-35"/>
       <use xlink:href="#DejaVuSans-30" x="63.623047"/>
      </g>
     </g>
    </g>
    <g id="xtick_9">
     <g id="line2d_24">
      <path d="M 321.219385 324.42 
L 321.219385 209.04 
" clip-path="url(#p91dde03a0b)" style="fill: none; stroke: #e6e6e6; stroke-width: 1.6; stroke-linecap: square"/>
     </g>
     <g id="line2d_25">
      <g>
       <use xlink:href="#m04f05ad2b4" x="321.219385" y="324.42" style="stroke: #000000; stroke-width: 1.6"/>
      </g>
     </g>
     <g id="text_13">
      <!-- 100 -->
      <g transform="translate(305.949385 351.2775)scale(0.16 -0.16)">
       <use xlink:href="#DejaVuSans-31"/>
       <use xlink:href="#DejaVuSans-30" x="63.623047"/>
       <use xlink:href="#DejaVuSans-30" x="127.246094"/>
      </g>
     </g>
    </g>
    <g id="xtick_10">
     <g id="line2d_26">
      <path d="M 436.176604 324.42 
L 436.176604 209.04 
" clip-path="url(#p91dde03a0b)" style="fill: none; stroke: #e6e6e6; stroke-width: 1.6; stroke-linecap: square"/>
     </g>
     <g id="line2d_27">
      <g>
       <use xlink:href="#m04f05ad2b4" x="436.176604" y="324.42" style="stroke: #000000; stroke-width: 1.6"/>
      </g>
     </g>
     <g id="text_14">
      <!-- 150 -->
      <g transform="translate(420.906604 351.2775)scale(0.16 -0.16)">
       <use xlink:href="#DejaVuSans-31"/>
       <use xlink:href="#DejaVuSans-35" x="63.623047"/>
       <use xlink:href="#DejaVuSans-30" x="127.246094"/>
      </g>
     </g>
    </g>
    <g id="xtick_11">
     <g id="line2d_28">
      <path d="M 551.133824 324.42 
L 551.133824 209.04 
" clip-path="url(#p91dde03a0b)" style="fill: none; stroke: #e6e6e6; stroke-width: 1.6; stroke-linecap: square"/>
     </g>
     <g id="line2d_29">
      <g>
       <use xlink:href="#m04f05ad2b4" x="551.133824" y="324.42" style="stroke: #000000; stroke-width: 1.6"/>
      </g>
     </g>
     <g id="text_15">
      <!-- 200 -->
      <g transform="translate(535.863824 351.2775)scale(0.16 -0.16)">
       <use xlink:href="#DejaVuSans-32"/>
       <use xlink:href="#DejaVuSans-30" x="63.623047"/>
       <use xlink:href="#DejaVuSans-30" x="127.246094"/>
      </g>
     </g>
    </g>
    <g id="xtick_12">
     <g id="line2d_30">
      <path d="M 666.091043 324.42 
L 666.091043 209.04 
" clip-path="url(#p91dde03a0b)" style="fill: none; stroke: #e6e6e6; stroke-width: 1.6; stroke-linecap: square"/>
     </g>
     <g id="line2d_31">
      <g>
       <use xlink:href="#m04f05ad2b4" x="666.091043" y="324.42" style="stroke: #000000; stroke-width: 1.6"/>
      </g>
     </g>
     <g id="text_16">
      <!-- 250 -->
      <g transform="translate(650.821043 351.2775)scale(0.16 -0.16)">
       <use xlink:href="#DejaVuSans-32"/>
       <use xlink:href="#DejaVuSans-35" x="63.623047"/>
       <use xlink:href="#DejaVuSans-30" x="127.246094"/>
      </g>
     </g>
    </g>
   </g>
   <g id="matplotlib.axis_4">
    <g id="ytick_4">
     <g id="line2d_32">
      <path d="M 64.29 305.45706 
L 709.2 305.45706 
" clip-path="url(#p91dde03a0b)" style="fill: none; stroke: #e6e6e6; stroke-width: 1.6; stroke-linecap: square"/>
     </g>
     <g id="line2d_33">
      <g>
       <use xlink:href="#mf980985d65" x="64.29" y="305.45706" style="stroke: #000000; stroke-width: 1.6"/>
      </g>
     </g>
     <g id="text_17">
      <!-- −2.5 -->
      <g transform="translate(10.7375 311.53581)scale(0.16 -0.16)">
       <use xlink:href="#DejaVuSans-2212"/>
       <use xlink:href="#DejaVuSans-32" x="83.789062"/>
       <use xlink:href="#DejaVuSans-2e" x="147.412109"/>
       <use xlink:href="#DejaVuSans-35" x="179.199219"/>
      </g>
     </g>
    </g>
    <g id="ytick_5">
     <g id="line2d_34">
      <path d="M 64.29 264.865292 
L 709.2 264.865292 
" clip-path="url(#p91dde03a0b)" style="fill: none; stroke: #e6e6e6; stroke-width: 1.6; stroke-linecap: square"/>
     </g>
     <g id="line2d_35">
      <g>
       <use xlink:href="#mf980985d65" x="64.29" y="264.865292" style="stroke: #000000; stroke-width: 1.6"/>
      </g>
     </g>
     <g id="text_18">
      <!-- 0.0 -->
      <g transform="translate(24.145 270.944042)scale(0.16 -0.16)">
       <use xlink:href="#DejaVuSans-30"/>
       <use xlink:href="#DejaVuSans-2e" x="63.623047"/>
       <use xlink:href="#DejaVuSans-30" x="95.410156"/>
      </g>
     </g>
    </g>
    <g id="ytick_6">
     <g id="line2d_36">
      <path d="M 64.29 224.273525 
L 709.2 224.273525 
" clip-path="url(#p91dde03a0b)" style="fill: none; stroke: #e6e6e6; stroke-width: 1.6; stroke-linecap: square"/>
     </g>
     <g id="line2d_37">
      <g>
       <use xlink:href="#mf980985d65" x="64.29" y="224.273525" style="stroke: #000000; stroke-width: 1.6"/>
      </g>
     </g>
     <g id="text_19">
      <!-- 2.5 -->
      <g transform="translate(24.145 230.352275)scale(0.16 -0.16)">
       <use xlink:href="#DejaVuSans-32"/>
       <use xlink:href="#DejaVuSans-2e" x="63.623047"/>
       <use xlink:href="#DejaVuSans-35" x="95.410156"/>
      </g>
     </g>
    </g>
   </g>
   <g id="patch_8">
    <path d="M 64.29 324.42 
L 64.29 209.04 
" style="fill: none; stroke: #000000; stroke-width: 0.8; stroke-linejoin: miter; stroke-linecap: square"/>
   </g>
   <g id="patch_9">
    <path d="M 709.2 324.42 
L 709.2 209.04 
" style="fill: none; stroke: #e6e6e6; stroke-width: 0.8; stroke-linejoin: miter; stroke-linecap: square"/>
   </g>
   <g id="patch_10">
    <path d="M 64.29 324.42 
L 709.2 324.42 
" style="fill: none; stroke: #000000; stroke-width: 0.8; stroke-linejoin: miter; stroke-linecap: square"/>
   </g>
   <g id="patch_11">
    <path d="M 64.29 209.04 
L 709.2 209.04 
" style="fill: none; stroke: #e6e6e6; stroke-width: 0.8; stroke-linejoin: miter; stroke-linecap: square"/>
   </g>
   <g id="text_20">
    <!-- d = -0.25 -->
    <g transform="translate(341.6655 203.04)scale(0.192 -0.192)">
     <use xlink:href="#DejaVuSans-64"/>
     <use xlink:href="#DejaVuSans-20" x="63.476562"/>
     <use xlink:href="#DejaVuSans-3d" x="95.263672"/>
     <use xlink:href="#DejaVuSans-20" x="179.052734"/>
     <use xlink:href="#DejaVuSans-2d" x="210.839844"/>
     <use xlink:href="#DejaVuSans-30" x="246.923828"/>
     <use xlink:href="#DejaVuSans-2e" x="310.546875"/>
     <use xlink:href="#DejaVuSans-32" x="342.333984"/>
     <use xlink:href="#DejaVuSans-35" x="405.957031"/>
    </g>
   </g>
   <g id="line2d_38">
    <path d="M 93.604091 266.823634 
L 95.903235 269.740381 
L 98.20238 251.05119 
L 100.501524 257.565991 
L 102.800668 300.935516 
L 105.099813 256.659225 
L 107.398957 260.228622 
L 109.698102 289.342787 
L 111.997246 310.044237 
L 114.29639 235.87985 
L 116.595535 282.393759 
L 118.894679 264.133878 
L 121.193824 263.330769 
L 123.492968 247.011664 
L 125.792112 259.618717 
L 128.091257 268.32803 
L 130.390401 265.96639 
L 132.689545 250.654857 
L 134.98869 234.070236 
L 137.287834 283.550196 
L 139.586979 284.120258 
L 141.886123 268.149531 
L 144.185267 261.857929 
L 146.484412 257.481091 
L 148.783556 265.706374 
L 151.082701 297.865096 
L 153.381845 241.651415 
L 155.680989 254.94327 
L 157.980134 282.467357 
L 162.578422 225.297939 
L 164.877567 298.802607 
L 167.176711 280.425741 
L 169.475856 249.042324 
L 171.775 286.725517 
L 174.074144 260.388539 
L 176.373289 241.84253 
L 178.672433 254.594131 
L 180.971578 297.78366 
L 183.270722 247.611626 
L 185.569866 280.078378 
L 187.869011 274.578552 
L 190.168155 253.042111 
L 192.467299 276.132948 
L 194.766444 266.559576 
L 197.065588 254.515277 
L 199.364733 247.87766 
L 201.663877 261.451324 
L 203.963021 259.57734 
L 206.262166 251.128115 
L 208.56131 257.745552 
L 210.860455 280.495101 
L 213.159599 262.592752 
L 215.458743 256.268773 
L 217.757888 224.980349 
L 220.057032 306.006923 
L 222.356176 262.23352 
L 224.655321 273.954188 
L 226.954465 254.149625 
L 229.25361 245.456969 
L 231.552754 282.501866 
L 233.851898 279.645211 
L 236.151043 254.516703 
L 238.450187 261.573624 
L 240.749332 267.82229 
L 243.048476 240.785707 
L 245.34762 299.069131 
L 247.646765 221.369245 
L 249.945909 286.819863 
L 252.245053 278.752131 
L 254.544198 284.511203 
L 256.843342 279.202302 
L 259.142487 220.243084 
L 261.441631 275.351482 
L 263.740775 266.541106 
L 266.03992 269.371878 
L 268.339064 271.056173 
L 270.638209 269.556737 
L 272.937353 284.701333 
L 275.236497 264.986818 
L 277.535642 247.612977 
L 279.834786 258.02057 
L 282.13393 231.131429 
L 284.433075 319.175455 
L 286.732219 244.519018 
L 289.031364 263.20483 
L 291.330508 253.702126 
L 293.629652 260.181673 
L 295.928797 258.307761 
L 298.227941 278.195081 
L 300.527086 276.345826 
L 302.82623 266.08432 
L 305.125374 275.80535 
L 307.424519 237.097772 
L 309.723663 262.50448 
L 312.022807 264.81095 
L 314.321952 286.753419 
L 316.621096 263.190401 
L 318.920241 289.398143 
L 321.219385 254.165828 
L 323.518529 269.01814 
L 325.817674 275.434114 
L 328.116818 261.19741 
L 330.415963 243.855791 
L 332.715107 248.301143 
L 335.014251 273.376711 
L 337.313396 233.545334 
L 339.61254 279.603078 
L 341.911684 245.629418 
L 344.210829 290.121362 
L 346.509973 284.363114 
L 348.809118 251.793478 
L 351.108262 250.90788 
L 353.407406 295.821239 
L 355.706551 283.298073 
L 358.005695 244.616243 
L 360.30484 251.125117 
L 362.603984 237.400347 
L 364.903128 270.372077 
L 367.202273 262.870986 
L 369.501417 262.991545 
L 371.800561 214.284545 
L 374.099706 279.64863 
L 376.39885 266.315875 
L 378.697995 295.54995 
L 380.997139 241.282373 
L 383.296283 277.803589 
L 385.595428 255.295826 
L 387.894572 265.159842 
L 390.193717 288.044712 
L 392.492861 253.97617 
L 394.792005 261.832438 
L 397.09115 275.971696 
L 399.390294 264.718493 
L 401.689439 308.726903 
L 403.988583 284.916937 
L 406.287727 275.541663 
L 408.586872 250.051783 
L 410.886016 267.243704 
L 413.18516 258.083042 
L 415.484305 269.918833 
L 417.783449 270.395409 
L 420.082594 272.157589 
L 422.381738 255.582205 
L 424.680882 267.635855 
L 426.980027 275.268424 
L 429.279171 259.805757 
L 431.578316 259.459961 
L 433.87746 288.301787 
L 436.176604 230.16575 
L 438.475749 273.221401 
L 440.774893 257.435182 
L 443.074037 262.318433 
L 445.373182 270.586352 
L 447.672326 262.361367 
L 449.971471 253.023992 
L 452.270615 249.17329 
L 454.569759 295.596353 
L 456.868904 259.514388 
L 459.168048 266.491889 
L 461.467193 236.226215 
L 463.766337 274.019644 
L 466.065481 254.904181 
L 468.364626 275.529294 
L 470.66377 243.898527 
L 472.962914 255.438004 
L 475.262059 281.418816 
L 477.561203 251.804996 
L 479.860348 256.420996 
L 484.458636 273.548285 
L 486.757781 265.679257 
L 489.056925 285.306382 
L 491.35607 271.460312 
L 493.655214 252.599543 
L 495.954358 272.382855 
L 498.253503 242.980999 
L 500.552647 243.069063 
L 502.851791 271.156765 
L 505.150936 267.460355 
L 507.45008 269.292349 
L 509.749225 260.191242 
L 512.048369 262.114077 
L 514.347513 269.949929 
L 516.646658 269.067105 
L 518.945802 268.880366 
L 521.244947 244.614617 
L 523.544091 275.86605 
L 525.843235 238.938626 
L 528.14238 277.640452 
L 530.441524 293.743459 
L 532.740668 265.459117 
L 535.039813 243.851574 
L 537.338957 265.438092 
L 539.638102 276.624915 
L 541.937246 243.518463 
L 544.23639 235.080403 
L 546.535535 288.006745 
L 548.834679 285.24433 
L 551.133824 276.401967 
L 553.432968 245.005328 
L 555.732112 295.737202 
L 558.031257 245.104684 
L 560.330401 277.385457 
L 562.629545 263.231264 
L 564.92869 261.911703 
L 567.227834 281.725862 
L 569.526979 242.697325 
L 571.826123 272.244542 
L 574.125267 251.330817 
L 576.424412 261.755817 
L 578.723556 283.351538 
L 581.022701 280.790248 
L 583.321845 248.767627 
L 585.620989 256.604012 
L 587.920134 240.192621 
L 590.219278 266.726907 
L 592.518422 280.766665 
L 594.817567 238.213877 
L 597.116711 285.173167 
L 599.415856 263.223725 
L 601.715 261.697867 
L 604.014144 263.393712 
L 606.313289 258.709515 
L 608.612433 284.556075 
L 610.911578 280.221864 
L 613.210722 267.226791 
L 615.509866 248.422892 
L 617.809011 277.678718 
L 620.108155 264.012393 
L 622.407299 248.874054 
L 624.706444 276.82289 
L 627.005588 284.772099 
L 629.304733 262.303262 
L 631.603877 242.001012 
L 633.903021 274.277271 
L 636.202166 283.233868 
L 638.50131 246.832529 
L 640.800455 295.370324 
L 643.099599 258.998935 
L 645.398743 249.648882 
L 647.697888 282.14031 
L 649.997032 262.536454 
L 652.296176 267.726843 
L 654.595321 283.307085 
L 656.894465 241.654863 
L 659.19361 268.751527 
L 661.492754 254.871884 
L 663.791898 236.585032 
L 666.091043 247.008745 
L 668.390187 290.457331 
L 670.689332 259.18365 
L 672.988476 266.877278 
L 675.28762 279.867704 
L 677.586765 260.708628 
L 679.885909 286.63535 
L 679.885909 286.63535 
" clip-path="url(#p91dde03a0b)" style="fill: none; stroke: #1f77b3; stroke-width: 2.8; stroke-linecap: square"/>
   </g>
  </g>
  <g id="axes_3">
   <g id="patch_12">
    <path d="M 64.29 502.26 
L 709.2 502.26 
L 709.2 386.88 
L 64.29 386.88 
L 64.29 502.26 
z
" style="fill: none; opacity: 0"/>
   </g>
   <g id="matplotlib.axis_5">
    <g id="xtick_13">
     <g id="line2d_39">
      <path d="M 91.304947 502.26 
L 91.304947 386.88 
" clip-path="url(#pc0b4196c5c)" style="fill: none; stroke: #e6e6e6; stroke-width: 1.6; stroke-linecap: square"/>
     </g>
     <g id="line2d_40">
      <g>
       <use xlink:href="#m04f05ad2b4" x="91.304947" y="502.26" style="stroke: #000000; stroke-width: 1.6"/>
      </g>
     </g>
     <g id="text_21">
      <!-- 0 -->
      <g transform="translate(86.214947 529.1175)scale(0.16 -0.16)">
       <use xlink:href="#DejaVuSans-30"/>
      </g>
     </g>
    </g>
    <g id="xtick_14">
     <g id="line2d_41">
      <path d="M 206.262166 502.26 
L 206.262166 386.88 
" clip-path="url(#pc0b4196c5c)" style="fill: none; stroke: #e6e6e6; stroke-width: 1.6; stroke-linecap: square"/>
     </g>
     <g id="line2d_42">
      <g>
       <use xlink:href="#m04f05ad2b4" x="206.262166" y="502.26" style="stroke: #000000; stroke-width: 1.6"/>
      </g>
     </g>
     <g id="text_22">
      <!-- 50 -->
      <g transform="translate(196.082166 529.1175)scale(0.16 -0.16)">
       <use xlink:href="#DejaVuSans-35"/>
       <use xlink:href="#DejaVuSans-30" x="63.623047"/>
      </g>
     </g>
    </g>
    <g id="xtick_15">
     <g id="line2d_43">
      <path d="M 321.219385 502.26 
L 321.219385 386.88 
" clip-path="url(#pc0b4196c5c)" style="fill: none; stroke: #e6e6e6; stroke-width: 1.6; stroke-linecap: square"/>
     </g>
     <g id="line2d_44">
      <g>
       <use xlink:href="#m04f05ad2b4" x="321.219385" y="502.26" style="stroke: #000000; stroke-width: 1.6"/>
      </g>
     </g>
     <g id="text_23">
      <!-- 100 -->
      <g transform="translate(305.949385 529.1175)scale(0.16 -0.16)">
       <use xlink:href="#DejaVuSans-31"/>
       <use xlink:href="#DejaVuSans-30" x="63.623047"/>
       <use xlink:href="#DejaVuSans-30" x="127.246094"/>
      </g>
     </g>
    </g>
    <g id="xtick_16">
     <g id="line2d_45">
      <path d="M 436.176604 502.26 
L 436.176604 386.88 
" clip-path="url(#pc0b4196c5c)" style="fill: none; stroke: #e6e6e6; stroke-width: 1.6; stroke-linecap: square"/>
     </g>
     <g id="line2d_46">
      <g>
       <use xlink:href="#m04f05ad2b4" x="436.176604" y="502.26" style="stroke: #000000; stroke-width: 1.6"/>
      </g>
     </g>
     <g id="text_24">
      <!-- 150 -->
      <g transform="translate(420.906604 529.1175)scale(0.16 -0.16)">
       <use xlink:href="#DejaVuSans-31"/>
       <use xlink:href="#DejaVuSans-35" x="63.623047"/>
       <use xlink:href="#DejaVuSans-30" x="127.246094"/>
      </g>
     </g>
    </g>
    <g id="xtick_17">
     <g id="line2d_47">
      <path d="M 551.133824 502.26 
L 551.133824 386.88 
" clip-path="url(#pc0b4196c5c)" style="fill: none; stroke: #e6e6e6; stroke-width: 1.6; stroke-linecap: square"/>
     </g>
     <g id="line2d_48">
      <g>
       <use xlink:href="#m04f05ad2b4" x="551.133824" y="502.26" style="stroke: #000000; stroke-width: 1.6"/>
      </g>
     </g>
     <g id="text_25">
      <!-- 200 -->
      <g transform="translate(535.863824 529.1175)scale(0.16 -0.16)">
       <use xlink:href="#DejaVuSans-32"/>
       <use xlink:href="#DejaVuSans-30" x="63.623047"/>
       <use xlink:href="#DejaVuSans-30" x="127.246094"/>
      </g>
     </g>
    </g>
    <g id="xtick_18">
     <g id="line2d_49">
      <path d="M 666.091043 502.26 
L 666.091043 386.88 
" clip-path="url(#pc0b4196c5c)" style="fill: none; stroke: #e6e6e6; stroke-width: 1.6; stroke-linecap: square"/>
     </g>
     <g id="line2d_50">
      <g>
       <use xlink:href="#m04f05ad2b4" x="666.091043" y="502.26" style="stroke: #000000; stroke-width: 1.6"/>
      </g>
     </g>
     <g id="text_26">
      <!-- 250 -->
      <g transform="translate(650.821043 529.1175)scale(0.16 -0.16)">
       <use xlink:href="#DejaVuSans-32"/>
       <use xlink:href="#DejaVuSans-35" x="63.623047"/>
       <use xlink:href="#DejaVuSans-30" x="127.246094"/>
      </g>
     </g>
    </g>
   </g>
   <g id="matplotlib.axis_6">
    <g id="ytick_7">
     <g id="line2d_51">
      <path d="M 64.29 495.967066 
L 709.2 495.967066 
" clip-path="url(#pc0b4196c5c)" style="fill: none; stroke: #e6e6e6; stroke-width: 1.6; stroke-linecap: square"/>
     </g>
     <g id="line2d_52">
      <g>
       <use xlink:href="#mf980985d65" x="64.29" y="495.967066" style="stroke: #000000; stroke-width: 1.6"/>
      </g>
     </g>
     <g id="text_27">
      <!-- −2.5 -->
      <g transform="translate(10.7375 502.045816)scale(0.16 -0.16)">
       <use xlink:href="#DejaVuSans-2212"/>
       <use xlink:href="#DejaVuSans-32" x="83.789062"/>
       <use xlink:href="#DejaVuSans-2e" x="147.412109"/>
       <use xlink:href="#DejaVuSans-35" x="179.199219"/>
      </g>
     </g>
    </g>
    <g id="ytick_8">
     <g id="line2d_53">
      <path d="M 64.29 450.48832 
L 709.2 450.48832 
" clip-path="url(#pc0b4196c5c)" style="fill: none; stroke: #e6e6e6; stroke-width: 1.6; stroke-linecap: square"/>
     </g>
     <g id="line2d_54">
      <g>
       <use xlink:href="#mf980985d65" x="64.29" y="450.48832" style="stroke: #000000; stroke-width: 1.6"/>
      </g>
     </g>
     <g id="text_28">
      <!-- 0.0 -->
      <g transform="translate(24.145 456.56707)scale(0.16 -0.16)">
       <use xlink:href="#DejaVuSans-30"/>
       <use xlink:href="#DejaVuSans-2e" x="63.623047"/>
       <use xlink:href="#DejaVuSans-30" x="95.410156"/>
      </g>
     </g>
    </g>
    <g id="ytick_9">
     <g id="line2d_55">
      <path d="M 64.29 405.009574 
L 709.2 405.009574 
" clip-path="url(#pc0b4196c5c)" style="fill: none; stroke: #e6e6e6; stroke-width: 1.6; stroke-linecap: square"/>
     </g>
     <g id="line2d_56">
      <g>
       <use xlink:href="#mf980985d65" x="64.29" y="405.009574" style="stroke: #000000; stroke-width: 1.6"/>
      </g>
     </g>
     <g id="text_29">
      <!-- 2.5 -->
      <g transform="translate(24.145 411.088324)scale(0.16 -0.16)">
       <use xlink:href="#DejaVuSans-32"/>
       <use xlink:href="#DejaVuSans-2e" x="63.623047"/>
       <use xlink:href="#DejaVuSans-35" x="95.410156"/>
      </g>
     </g>
    </g>
   </g>
   <g id="patch_13">
    <path d="M 64.29 502.26 
L 64.29 386.88 
" style="fill: none; stroke: #000000; stroke-width: 0.8; stroke-linejoin: miter; stroke-linecap: square"/>
   </g>
   <g id="patch_14">
    <path d="M 709.2 502.26 
L 709.2 386.88 
" style="fill: none; stroke: #e6e6e6; stroke-width: 0.8; stroke-linejoin: miter; stroke-linecap: square"/>
   </g>
   <g id="patch_15">
    <path d="M 64.29 502.26 
L 709.2 502.26 
" style="fill: none; stroke: #000000; stroke-width: 0.8; stroke-linejoin: miter; stroke-linecap: square"/>
   </g>
   <g id="patch_16">
    <path d="M 64.29 386.88 
L 709.2 386.88 
" style="fill: none; stroke: #e6e6e6; stroke-width: 0.8; stroke-linejoin: miter; stroke-linecap: square"/>
   </g>
   <g id="text_30">
    <!-- d = 0 -->
    <g transform="translate(360.396 380.88)scale(0.192 -0.192)">
     <use xlink:href="#DejaVuSans-64"/>
     <use xlink:href="#DejaVuSans-20" x="63.476562"/>
     <use xlink:href="#DejaVuSans-3d" x="95.263672"/>
     <use xlink:href="#DejaVuSans-20" x="179.052734"/>
     <use xlink:href="#DejaVuSans-30" x="210.839844"/>
    </g>
   </g>
   <g id="line2d_57">
    <path d="M 93.604091 476.094951 
L 95.903235 440.729319 
L 98.20238 459.31183 
L 100.501524 445.433067 
L 102.800668 423.422379 
L 105.099813 450.56879 
L 109.698102 425.445537 
L 111.997246 426.482109 
L 114.29639 434.410395 
L 116.595535 428.434686 
L 118.894679 459.790972 
L 121.193824 444.193956 
L 123.492968 456.72266 
L 125.792112 463.141874 
L 128.091257 463.084972 
L 130.390401 462.063363 
L 132.689545 469.646361 
L 134.98869 479.317595 
L 137.287834 435.369795 
L 139.586979 439.701923 
L 141.886123 457.216908 
L 144.185267 481.601113 
L 146.484412 442.248443 
L 148.783556 428.370545 
L 151.082701 457.914847 
L 153.381845 446.521349 
L 155.680989 473.001523 
L 157.980134 442.465644 
L 160.279278 464.26265 
L 162.578422 423.975887 
L 164.877567 466.113516 
L 167.176711 450.783158 
L 169.475856 442.275821 
L 171.775 428.522461 
L 174.074144 449.891129 
L 176.373289 474.783284 
L 178.672433 425.873884 
L 180.971578 450.052275 
L 183.270722 425.557338 
L 185.569866 451.605207 
L 187.869011 465.412799 
L 190.168155 438.391026 
L 192.467299 448.589573 
L 194.766444 442.588459 
L 197.065588 497.015455 
L 199.364733 438.239261 
L 201.663877 464.146538 
L 203.963021 440.201475 
L 206.262166 493.97219 
L 208.56131 459.216017 
L 210.860455 441.886464 
L 213.159599 481.824479 
L 215.458743 457.746427 
L 217.757888 460.546737 
L 220.057032 444.441518 
L 222.356176 477.092268 
L 224.655321 425.767329 
L 226.954465 475.96537 
L 229.25361 441.99584 
L 231.552754 431.555356 
L 233.851898 474.972159 
L 236.151043 439.543937 
L 238.450187 434.975511 
L 240.749332 452.107798 
L 245.34762 466.881936 
L 247.646765 451.780223 
L 249.945909 415.79135 
L 252.245053 418.422339 
L 254.544198 457.595433 
L 256.843342 479.204727 
L 259.142487 431.097847 
L 261.441631 475.095214 
L 263.740775 446.219584 
L 266.03992 463.549626 
L 268.339064 453.833182 
L 270.638209 446.679731 
L 272.937353 452.517511 
L 275.236497 470.647463 
L 277.535642 468.476045 
L 279.834786 464.549913 
L 282.13393 455.749961 
L 284.433075 453.215048 
L 286.732219 475.432203 
L 289.031364 449.268043 
L 291.330508 461.945674 
L 293.629652 463.34836 
L 295.928797 445.393042 
L 298.227941 445.850808 
L 300.527086 425.719466 
L 302.82623 482.784016 
L 305.125374 463.203688 
L 307.424519 461.18787 
L 309.723663 447.058675 
L 312.022807 428.154831 
L 314.321952 450.372923 
L 316.621096 439.493354 
L 318.920241 420.188106 
L 321.219385 450.643363 
L 323.518529 431.588798 
L 325.817674 463.795177 
L 328.116818 455.416425 
L 330.415963 432.039962 
L 332.715107 435.867468 
L 335.014251 433.354572 
L 337.313396 433.760664 
L 339.61254 460.616545 
L 341.911684 426.895628 
L 344.210829 447.402618 
L 346.509973 439.972081 
L 348.809118 459.720927 
L 351.108262 447.519444 
L 353.407406 454.494008 
L 355.706551 454.272879 
L 358.005695 461.481258 
L 360.30484 453.001548 
L 362.603984 469.783028 
L 364.903128 446.906627 
L 367.202273 479.117611 
L 369.501417 443.742836 
L 371.800561 458.034581 
L 374.099706 431.790019 
L 376.39885 460.543361 
L 378.697995 470.137143 
L 380.997139 434.363468 
L 383.296283 463.352928 
L 385.595428 470.167944 
L 387.894572 483.062324 
L 390.193717 456.313178 
L 392.492861 431.70973 
L 394.792005 477.038443 
L 397.09115 392.124545 
L 399.390294 464.118855 
L 401.689439 458.976025 
L 403.988583 433.806058 
L 406.287727 421.789415 
L 408.586872 435.647107 
L 410.886016 432.168921 
L 413.18516 437.578368 
L 415.484305 429.129505 
L 417.783449 450.464687 
L 420.082594 465.331947 
L 422.381738 463.628127 
L 424.680882 444.339476 
L 426.980027 438.891244 
L 429.279171 466.656243 
L 431.578316 468.569514 
L 433.87746 441.618456 
L 436.176604 448.019053 
L 438.475749 469.090397 
L 440.774893 467.909597 
L 443.074037 458.865942 
L 445.373182 459.884849 
L 447.672326 453.334489 
L 449.971471 461.885457 
L 452.270615 465.543301 
L 454.569759 472.695035 
L 456.868904 465.869106 
L 459.168048 465.478429 
L 461.467193 485.351496 
L 466.065481 435.064171 
L 468.364626 468.652923 
L 470.66377 460.291889 
L 472.962914 436.040158 
L 475.262059 483.855291 
L 477.561203 466.899586 
L 479.860348 417.866148 
L 482.159492 453.643322 
L 484.458636 443.222545 
L 486.757781 456.698355 
L 489.056925 417.97359 
L 491.35607 466.521478 
L 495.954358 454.634807 
L 498.253503 429.132802 
L 500.552647 418.77631 
L 502.851791 470.43273 
L 505.150936 446.648381 
L 507.45008 484.974258 
L 512.048369 440.259611 
L 514.347513 449.324127 
L 516.646658 466.561132 
L 518.945802 460.580637 
L 521.244947 455.549861 
L 523.544091 438.570021 
L 528.14238 491.769649 
L 530.441524 452.869493 
L 532.740668 432.627874 
L 535.039813 452.290844 
L 537.338957 468.089715 
L 539.638102 458.378835 
L 541.937246 446.02701 
L 544.23639 483.190327 
L 546.535535 435.229296 
L 548.834679 440.320123 
L 551.133824 434.542864 
L 553.432968 456.55184 
L 555.732112 467.389225 
L 558.031257 452.190497 
L 560.330401 427.874635 
L 562.629545 440.340345 
L 564.92869 443.197361 
L 567.227834 455.348217 
L 569.526979 451.296436 
L 571.826123 449.925209 
L 574.125267 425.175665 
L 576.424412 455.341776 
L 578.723556 459.036412 
L 581.022701 486.398348 
L 583.321845 478.06786 
L 585.620989 481.021361 
L 587.920134 457.029268 
L 590.219278 453.406058 
L 592.518422 424.455974 
L 594.817567 453.583794 
L 597.116711 423.258235 
L 599.415856 431.794259 
L 601.715 443.398362 
L 604.014144 446.892923 
L 606.313289 466.726361 
L 608.612433 451.231132 
L 610.911578 448.643162 
L 613.210722 458.22054 
L 615.509866 439.423937 
L 617.809011 479.950105 
L 620.108155 485.107417 
L 622.407299 425.731546 
L 624.706444 477.986443 
L 627.005588 449.617084 
L 629.304733 488.1578 
L 631.603877 440.255111 
L 633.903021 444.8773 
L 636.202166 442.578495 
L 638.50131 448.082638 
L 640.800455 427.392118 
L 643.099599 448.120059 
L 645.398743 478.084623 
L 647.697888 490.366906 
L 649.997032 442.231877 
L 652.296176 440.513559 
L 654.595321 446.383465 
L 656.894465 454.512743 
L 659.19361 459.156595 
L 661.492754 476.79803 
L 663.791898 417.285932 
L 666.091043 454.898559 
L 668.390187 441.451572 
L 670.689332 425.921539 
L 672.988476 452.740965 
L 675.28762 434.174325 
L 677.586765 419.368133 
L 679.885909 431.868179 
L 679.885909 431.868179 
" clip-path="url(#pc0b4196c5c)" style="fill: none; stroke: #1f77b3; stroke-width: 2.8; stroke-linecap: square"/>
   </g>
  </g>
  <g id="axes_4">
   <g id="patch_17">
    <path d="M 64.29 680.1 
L 709.2 680.1 
L 709.2 564.72 
L 64.29 564.72 
L 64.29 680.1 
z
" style="fill: none; opacity: 0"/>
   </g>
   <g id="matplotlib.axis_7">
    <g id="xtick_19">
     <g id="line2d_58">
      <path d="M 91.304947 680.1 
L 91.304947 564.72 
" clip-path="url(#pe2e7c34328)" style="fill: none; stroke: #e6e6e6; stroke-width: 1.6; stroke-linecap: square"/>
     </g>
     <g id="line2d_59">
      <g>
       <use xlink:href="#m04f05ad2b4" x="91.304947" y="680.1" style="stroke: #000000; stroke-width: 1.6"/>
      </g>
     </g>
     <g id="text_31">
      <!-- 0 -->
      <g transform="translate(86.214947 706.9575)scale(0.16 -0.16)">
       <use xlink:href="#DejaVuSans-30"/>
      </g>
     </g>
    </g>
    <g id="xtick_20">
     <g id="line2d_60">
      <path d="M 206.262166 680.1 
L 206.262166 564.72 
" clip-path="url(#pe2e7c34328)" style="fill: none; stroke: #e6e6e6; stroke-width: 1.6; stroke-linecap: square"/>
     </g>
     <g id="line2d_61">
      <g>
       <use xlink:href="#m04f05ad2b4" x="206.262166" y="680.1" style="stroke: #000000; stroke-width: 1.6"/>
      </g>
     </g>
     <g id="text_32">
      <!-- 50 -->
      <g transform="translate(196.082166 706.9575)scale(0.16 -0.16)">
       <use xlink:href="#DejaVuSans-35"/>
       <use xlink:href="#DejaVuSans-30" x="63.623047"/>
      </g>
     </g>
    </g>
    <g id="xtick_21">
     <g id="line2d_62">
      <path d="M 321.219385 680.1 
L 321.219385 564.72 
" clip-path="url(#pe2e7c34328)" style="fill: none; stroke: #e6e6e6; stroke-width: 1.6; stroke-linecap: square"/>
     </g>
     <g id="line2d_63">
      <g>
       <use xlink:href="#m04f05ad2b4" x="321.219385" y="680.1" style="stroke: #000000; stroke-width: 1.6"/>
      </g>
     </g>
     <g id="text_33">
      <!-- 100 -->
      <g transform="translate(305.949385 706.9575)scale(0.16 -0.16)">
       <use xlink:href="#DejaVuSans-31"/>
       <use xlink:href="#DejaVuSans-30" x="63.623047"/>
       <use xlink:href="#DejaVuSans-30" x="127.246094"/>
      </g>
     </g>
    </g>
    <g id="xtick_22">
     <g id="line2d_64">
      <path d="M 436.176604 680.1 
L 436.176604 564.72 
" clip-path="url(#pe2e7c34328)" style="fill: none; stroke: #e6e6e6; stroke-width: 1.6; stroke-linecap: square"/>
     </g>
     <g id="line2d_65">
      <g>
       <use xlink:href="#m04f05ad2b4" x="436.176604" y="680.1" style="stroke: #000000; stroke-width: 1.6"/>
      </g>
     </g>
     <g id="text_34">
      <!-- 150 -->
      <g transform="translate(420.906604 706.9575)scale(0.16 -0.16)">
       <use xlink:href="#DejaVuSans-31"/>
       <use xlink:href="#DejaVuSans-35" x="63.623047"/>
       <use xlink:href="#DejaVuSans-30" x="127.246094"/>
      </g>
     </g>
    </g>
    <g id="xtick_23">
     <g id="line2d_66">
      <path d="M 551.133824 680.1 
L 551.133824 564.72 
" clip-path="url(#pe2e7c34328)" style="fill: none; stroke: #e6e6e6; stroke-width: 1.6; stroke-linecap: square"/>
     </g>
     <g id="line2d_67">
      <g>
       <use xlink:href="#m04f05ad2b4" x="551.133824" y="680.1" style="stroke: #000000; stroke-width: 1.6"/>
      </g>
     </g>
     <g id="text_35">
      <!-- 200 -->
      <g transform="translate(535.863824 706.9575)scale(0.16 -0.16)">
       <use xlink:href="#DejaVuSans-32"/>
       <use xlink:href="#DejaVuSans-30" x="63.623047"/>
       <use xlink:href="#DejaVuSans-30" x="127.246094"/>
      </g>
     </g>
    </g>
    <g id="xtick_24">
     <g id="line2d_68">
      <path d="M 666.091043 680.1 
L 666.091043 564.72 
" clip-path="url(#pe2e7c34328)" style="fill: none; stroke: #e6e6e6; stroke-width: 1.6; stroke-linecap: square"/>
     </g>
     <g id="line2d_69">
      <g>
       <use xlink:href="#m04f05ad2b4" x="666.091043" y="680.1" style="stroke: #000000; stroke-width: 1.6"/>
      </g>
     </g>
     <g id="text_36">
      <!-- 250 -->
      <g transform="translate(650.821043 706.9575)scale(0.16 -0.16)">
       <use xlink:href="#DejaVuSans-32"/>
       <use xlink:href="#DejaVuSans-35" x="63.623047"/>
       <use xlink:href="#DejaVuSans-30" x="127.246094"/>
      </g>
     </g>
    </g>
   </g>
   <g id="matplotlib.axis_8">
    <g id="ytick_10">
     <g id="line2d_70">
      <path d="M 64.29 669.207108 
L 709.2 669.207108 
" clip-path="url(#pe2e7c34328)" style="fill: none; stroke: #e6e6e6; stroke-width: 1.6; stroke-linecap: square"/>
     </g>
     <g id="line2d_71">
      <g>
       <use xlink:href="#mf980985d65" x="64.29" y="669.207108" style="stroke: #000000; stroke-width: 1.6"/>
      </g>
     </g>
     <g id="text_37">
      <!-- −2.5 -->
      <g transform="translate(10.7375 675.285858)scale(0.16 -0.16)">
       <use xlink:href="#DejaVuSans-2212"/>
       <use xlink:href="#DejaVuSans-32" x="83.789062"/>
       <use xlink:href="#DejaVuSans-2e" x="147.412109"/>
       <use xlink:href="#DejaVuSans-35" x="179.199219"/>
      </g>
     </g>
    </g>
    <g id="ytick_11">
     <g id="line2d_72">
      <path d="M 64.29 623.264321 
L 709.2 623.264321 
" clip-path="url(#pe2e7c34328)" style="fill: none; stroke: #e6e6e6; stroke-width: 1.6; stroke-linecap: square"/>
     </g>
     <g id="line2d_73">
      <g>
       <use xlink:href="#mf980985d65" x="64.29" y="623.264321" style="stroke: #000000; stroke-width: 1.6"/>
      </g>
     </g>
     <g id="text_38">
      <!-- 0.0 -->
      <g transform="translate(24.145 629.343071)scale(0.16 -0.16)">
       <use xlink:href="#DejaVuSans-30"/>
       <use xlink:href="#DejaVuSans-2e" x="63.623047"/>
       <use xlink:href="#DejaVuSans-30" x="95.410156"/>
      </g>
     </g>
    </g>
    <g id="ytick_12">
     <g id="line2d_74">
      <path d="M 64.29 577.321534 
L 709.2 577.321534 
" clip-path="url(#pe2e7c34328)" style="fill: none; stroke: #e6e6e6; stroke-width: 1.6; stroke-linecap: square"/>
     </g>
     <g id="line2d_75">
      <g>
       <use xlink:href="#mf980985d65" x="64.29" y="577.321534" style="stroke: #000000; stroke-width: 1.6"/>
      </g>
     </g>
     <g id="text_39">
      <!-- 2.5 -->
      <g transform="translate(24.145 583.400284)scale(0.16 -0.16)">
       <use xlink:href="#DejaVuSans-32"/>
       <use xlink:href="#DejaVuSans-2e" x="63.623047"/>
       <use xlink:href="#DejaVuSans-35" x="95.410156"/>
      </g>
     </g>
    </g>
   </g>
   <g id="patch_18">
    <path d="M 64.29 680.1 
L 64.29 564.72 
" style="fill: none; stroke: #000000; stroke-width: 0.8; stroke-linejoin: miter; stroke-linecap: square"/>
   </g>
   <g id="patch_19">
    <path d="M 709.2 680.1 
L 709.2 564.72 
" style="fill: none; stroke: #e6e6e6; stroke-width: 0.8; stroke-linejoin: miter; stroke-linecap: square"/>
   </g>
   <g id="patch_20">
    <path d="M 64.29 680.1 
L 709.2 680.1 
" style="fill: none; stroke: #000000; stroke-width: 0.8; stroke-linejoin: miter; stroke-linecap: square"/>
   </g>
   <g id="patch_21">
    <path d="M 64.29 564.72 
L 709.2 564.72 
" style="fill: none; stroke: #e6e6e6; stroke-width: 0.8; stroke-linejoin: miter; stroke-linecap: square"/>
   </g>
   <g id="text_40">
    <!-- d = 0.25 -->
    <g transform="translate(345.129 558.72)scale(0.192 -0.192)">
     <use xlink:href="#DejaVuSans-64"/>
     <use xlink:href="#DejaVuSans-20" x="63.476562"/>
     <use xlink:href="#DejaVuSans-3d" x="95.263672"/>
     <use xlink:href="#DejaVuSans-20" x="179.052734"/>
     <use xlink:href="#DejaVuSans-30" x="210.839844"/>
     <use xlink:href="#DejaVuSans-2e" x="274.462891"/>
     <use xlink:href="#DejaVuSans-32" x="306.25"/>
     <use xlink:href="#DejaVuSans-35" x="369.873047"/>
    </g>
   </g>
   <g id="line2d_76">
    <path d="M 93.604091 641.868739 
L 95.903235 634.864851 
L 98.20238 618.826058 
L 100.501524 629.127281 
L 102.800668 641.672067 
L 105.099813 660.589768 
L 107.398957 660.609153 
L 109.698102 674.855455 
L 111.997246 661.717559 
L 114.29639 634.658047 
L 116.595535 646.095677 
L 118.894679 602.250882 
L 121.193824 628.404933 
L 123.492968 639.848806 
L 125.792112 642.136005 
L 128.091257 625.590565 
L 130.390401 622.837335 
L 132.689545 627.914363 
L 134.98869 629.008869 
L 137.287834 645.983412 
L 139.586979 636.557373 
L 141.886123 628.508509 
L 144.185267 638.849755 
L 146.484412 625.765539 
L 148.783556 632.376258 
L 151.082701 619.590795 
L 153.381845 609.948195 
L 155.680989 649.735897 
L 157.980134 623.569491 
L 160.279278 644.599734 
L 162.578422 623.88271 
L 164.877567 624.71288 
L 167.176711 633.384201 
L 169.475856 600.394016 
L 171.775 638.907092 
L 174.074144 599.46479 
L 176.373289 583.586759 
L 178.672433 614.944208 
L 183.270722 663.82931 
L 185.569866 624.514451 
L 187.869011 614.552709 
L 190.168155 626.662053 
L 192.467299 612.232843 
L 194.766444 592.577883 
L 197.065588 609.591749 
L 199.364733 622.085816 
L 201.663877 637.946252 
L 203.963021 611.639676 
L 206.262166 622.50889 
L 208.56131 634.228887 
L 210.860455 635.827841 
L 213.159599 645.141357 
L 215.458743 617.750503 
L 217.757888 633.006715 
L 220.057032 633.422293 
L 222.356176 644.32186 
L 224.655321 620.22787 
L 226.954465 617.702409 
L 229.25361 620.979624 
L 231.552754 621.1484 
L 233.851898 636.014125 
L 236.151043 637.047647 
L 238.450187 635.698166 
L 240.749332 609.440977 
L 243.048476 629.876388 
L 245.34762 602.377341 
L 247.646765 643.379511 
L 249.945909 632.322688 
L 254.544198 614.225845 
L 256.843342 598.11031 
L 259.142487 633.445404 
L 261.441631 604.246881 
L 263.740775 591.978856 
L 266.03992 630.680264 
L 268.339064 649.914701 
L 270.638209 628.783966 
L 272.937353 629.271287 
L 275.236497 615.67875 
L 277.535642 629.205551 
L 279.834786 618.116183 
L 282.13393 614.480591 
L 284.433075 624.869507 
L 286.732219 619.487082 
L 289.031364 627.956945 
L 291.330508 599.97333 
L 293.629652 629.131479 
L 295.928797 632.71724 
L 298.227941 581.21697 
L 300.527086 602.477672 
L 302.82623 590.269568 
L 305.125374 599.562837 
L 307.424519 593.285113 
L 309.723663 614.959244 
L 314.321952 581.124015 
L 316.621096 619.893698 
L 318.920241 609.931633 
L 321.219385 597.744585 
L 323.518529 604.810605 
L 325.817674 608.358679 
L 328.116818 581.57341 
L 330.415963 607.218295 
L 332.715107 600.501715 
L 335.014251 640.495973 
L 337.313396 670.10321 
L 339.61254 623.319925 
L 341.911684 594.585063 
L 344.210829 612.678111 
L 346.509973 645.342795 
L 348.809118 644.411725 
L 351.108262 635.781253 
L 353.407406 645.773362 
L 355.706551 633.612266 
L 358.005695 646.50787 
L 360.30484 585.397016 
L 362.603984 616.781002 
L 364.903128 627.443637 
L 367.202273 604.690858 
L 369.501417 590.739456 
L 371.800561 607.589187 
L 374.099706 586.083754 
L 376.39885 624.728247 
L 378.697995 606.240672 
L 380.997139 617.176655 
L 383.296283 601.171705 
L 385.595428 616.558524 
L 387.894572 635.03506 
L 390.193717 586.906395 
L 394.792005 619.449975 
L 397.09115 610.055914 
L 399.390294 578.188398 
L 401.689439 593.245699 
L 403.988583 575.042275 
L 406.287727 593.925507 
L 408.586872 601.215993 
L 410.886016 599.426066 
L 413.18516 612.555911 
L 415.484305 569.964545 
L 417.783449 576.854889 
L 420.082594 592.689026 
L 422.381738 603.436809 
L 424.680882 575.490632 
L 426.980027 584.619508 
L 429.279171 603.473265 
L 431.578316 573.823804 
L 433.87746 580.584238 
L 436.176604 602.280401 
L 438.475749 615.084934 
L 440.774893 630.866721 
L 443.074037 624.852246 
L 445.373182 601.27653 
L 447.672326 614.577287 
L 449.971471 607.342178 
L 452.270615 606.85956 
L 454.569759 617.976812 
L 456.868904 598.364488 
L 459.168048 598.241759 
L 461.467193 581.383518 
L 463.766337 599.975067 
L 466.065481 631.820856 
L 468.364626 622.301344 
L 470.66377 609.926301 
L 472.962914 629.110748 
L 475.262059 605.572694 
L 477.561203 621.076047 
L 479.860348 628.900575 
L 482.159492 630.038583 
L 484.458636 628.025292 
L 486.757781 627.532233 
L 489.056925 650.935047 
L 491.35607 652.539923 
L 493.655214 648.32295 
L 495.954358 602.494289 
L 498.253503 612.72043 
L 500.552647 613.256119 
L 502.851791 637.904744 
L 505.150936 603.524084 
L 507.45008 605.26672 
L 509.749225 641.114179 
L 512.048369 637.934624 
L 514.347513 635.249794 
L 516.646658 659.315629 
L 518.945802 610.819472 
L 521.244947 633.67105 
L 523.544091 600.284413 
L 525.843235 619.573328 
L 528.14238 612.651663 
L 530.441524 593.958245 
L 532.740668 647.934797 
L 535.039813 616.43785 
L 537.338957 629.903509 
L 539.638102 616.753081 
L 541.937246 576.109478 
L 544.23639 601.936405 
L 546.535535 606.74731 
L 548.834679 639.859537 
L 551.133824 611.606517 
L 553.432968 591.803299 
L 555.732112 620.913529 
L 558.031257 619.807102 
L 560.330401 654.081547 
L 562.629545 595.741021 
L 564.92869 625.535974 
L 567.227834 613.997519 
L 569.526979 597.642727 
L 571.826123 603.190708 
L 574.125267 605.603814 
L 576.424412 617.938735 
L 578.723556 632.981546 
L 581.022701 575.024952 
L 583.321845 607.673233 
L 585.620989 629.314337 
L 587.920134 654.595095 
L 590.219278 668.193908 
L 592.518422 671.048166 
L 594.817567 640.555988 
L 597.116711 634.517667 
L 599.415856 612.467713 
L 601.715 615.769158 
L 604.014144 639.532977 
L 606.313289 626.892415 
L 608.612433 647.033058 
L 610.911578 618.893671 
L 613.210722 594.917626 
L 615.509866 653.50879 
L 617.809011 621.578267 
L 620.108155 611.84527 
L 622.407299 584.737255 
L 624.706444 614.132853 
L 627.005588 610.892834 
L 629.304733 639.246086 
L 631.603877 610.95037 
L 633.903021 596.23206 
L 636.202166 623.537753 
L 638.50131 625.254978 
L 640.800455 597.022007 
L 643.099599 621.751759 
L 645.398743 625.321452 
L 647.697888 636.007399 
L 649.997032 619.17826 
L 652.296176 623.703445 
L 654.595321 637.90078 
L 656.894465 630.608739 
L 659.19361 585.726815 
L 661.492754 587.279987 
L 663.791898 607.834213 
L 666.091043 620.354978 
L 668.390187 598.748762 
L 670.689332 617.973853 
L 672.988476 575.541181 
L 675.28762 590.169696 
L 677.586765 600.647766 
L 679.885909 635.845858 
L 679.885909 635.845858 
" clip-path="url(#pe2e7c34328)" style="fill: none; stroke: #1f77b3; stroke-width: 2.8; stroke-linecap: square"/>
   </g>
  </g>
  <g id="axes_5">
   <g id="patch_22">
    <path d="M 64.29 857.94 
L 709.2 857.94 
L 709.2 742.56 
L 64.29 742.56 
L 64.29 857.94 
z
" style="fill: none; opacity: 0"/>
   </g>
   <g id="matplotlib.axis_9">
    <g id="xtick_25">
     <g id="line2d_77">
      <path d="M 91.304947 857.94 
L 91.304947 742.56 
" clip-path="url(#pa2fd1b6751)" style="fill: none; stroke: #e6e6e6; stroke-width: 1.6; stroke-linecap: square"/>
     </g>
     <g id="line2d_78">
      <g>
       <use xlink:href="#m04f05ad2b4" x="91.304947" y="857.94" style="stroke: #000000; stroke-width: 1.6"/>
      </g>
     </g>
     <g id="text_41">
      <!-- 0 -->
      <g transform="translate(86.214947 884.7975)scale(0.16 -0.16)">
       <use xlink:href="#DejaVuSans-30"/>
      </g>
     </g>
    </g>
    <g id="xtick_26">
     <g id="line2d_79">
      <path d="M 206.262166 857.94 
L 206.262166 742.56 
" clip-path="url(#pa2fd1b6751)" style="fill: none; stroke: #e6e6e6; stroke-width: 1.6; stroke-linecap: square"/>
     </g>
     <g id="line2d_80">
      <g>
       <use xlink:href="#m04f05ad2b4" x="206.262166" y="857.94" style="stroke: #000000; stroke-width: 1.6"/>
      </g>
     </g>
     <g id="text_42">
      <!-- 50 -->
      <g transform="translate(196.082166 884.7975)scale(0.16 -0.16)">
       <use xlink:href="#DejaVuSans-35"/>
       <use xlink:href="#DejaVuSans-30" x="63.623047"/>
      </g>
     </g>
    </g>
    <g id="xtick_27">
     <g id="line2d_81">
      <path d="M 321.219385 857.94 
L 321.219385 742.56 
" clip-path="url(#pa2fd1b6751)" style="fill: none; stroke: #e6e6e6; stroke-width: 1.6; stroke-linecap: square"/>
     </g>
     <g id="line2d_82">
      <g>
       <use xlink:href="#m04f05ad2b4" x="321.219385" y="857.94" style="stroke: #000000; stroke-width: 1.6"/>
      </g>
     </g>
     <g id="text_43">
      <!-- 100 -->
      <g transform="translate(305.949385 884.7975)scale(0.16 -0.16)">
       <use xlink:href="#DejaVuSans-31"/>
       <use xlink:href="#DejaVuSans-30" x="63.623047"/>
       <use xlink:href="#DejaVuSans-30" x="127.246094"/>
      </g>
     </g>
    </g>
    <g id="xtick_28">
     <g id="line2d_83">
      <path d="M 436.176604 857.94 
L 436.176604 742.56 
" clip-path="url(#pa2fd1b6751)" style="fill: none; stroke: #e6e6e6; stroke-width: 1.6; stroke-linecap: square"/>
     </g>
     <g id="line2d_84">
      <g>
       <use xlink:href="#m04f05ad2b4" x="436.176604" y="857.94" style="stroke: #000000; stroke-width: 1.6"/>
      </g>
     </g>
     <g id="text_44">
      <!-- 150 -->
      <g transform="translate(420.906604 884.7975)scale(0.16 -0.16)">
       <use xlink:href="#DejaVuSans-31"/>
       <use xlink:href="#DejaVuSans-35" x="63.623047"/>
       <use xlink:href="#DejaVuSans-30" x="127.246094"/>
      </g>
     </g>
    </g>
    <g id="xtick_29">
     <g id="line2d_85">
      <path d="M 551.133824 857.94 
L 551.133824 742.56 
" clip-path="url(#pa2fd1b6751)" style="fill: none; stroke: #e6e6e6; stroke-width: 1.6; stroke-linecap: square"/>
     </g>
     <g id="line2d_86">
      <g>
       <use xlink:href="#m04f05ad2b4" x="551.133824" y="857.94" style="stroke: #000000; stroke-width: 1.6"/>
      </g>
     </g>
     <g id="text_45">
      <!-- 200 -->
      <g transform="translate(535.863824 884.7975)scale(0.16 -0.16)">
       <use xlink:href="#DejaVuSans-32"/>
       <use xlink:href="#DejaVuSans-30" x="63.623047"/>
       <use xlink:href="#DejaVuSans-30" x="127.246094"/>
      </g>
     </g>
    </g>
    <g id="xtick_30">
     <g id="line2d_87">
      <path d="M 666.091043 857.94 
L 666.091043 742.56 
" clip-path="url(#pa2fd1b6751)" style="fill: none; stroke: #e6e6e6; stroke-width: 1.6; stroke-linecap: square"/>
     </g>
     <g id="line2d_88">
      <g>
       <use xlink:href="#m04f05ad2b4" x="666.091043" y="857.94" style="stroke: #000000; stroke-width: 1.6"/>
      </g>
     </g>
     <g id="text_46">
      <!-- 250 -->
      <g transform="translate(650.821043 884.7975)scale(0.16 -0.16)">
       <use xlink:href="#DejaVuSans-32"/>
       <use xlink:href="#DejaVuSans-35" x="63.623047"/>
       <use xlink:href="#DejaVuSans-30" x="127.246094"/>
      </g>
     </g>
    </g>
   </g>
   <g id="matplotlib.axis_10">
    <g id="ytick_13">
     <g id="line2d_89">
      <path d="M 64.29 837.04231 
L 709.2 837.04231 
" clip-path="url(#pa2fd1b6751)" style="fill: none; stroke: #e6e6e6; stroke-width: 1.6; stroke-linecap: square"/>
     </g>
     <g id="line2d_90">
      <g>
       <use xlink:href="#mf980985d65" x="64.29" y="837.04231" style="stroke: #000000; stroke-width: 1.6"/>
      </g>
     </g>
     <g id="text_47">
      <!-- −2.5 -->
      <g transform="translate(10.7375 843.12106)scale(0.16 -0.16)">
       <use xlink:href="#DejaVuSans-2212"/>
       <use xlink:href="#DejaVuSans-32" x="83.789062"/>
       <use xlink:href="#DejaVuSans-2e" x="147.412109"/>
       <use xlink:href="#DejaVuSans-35" x="179.199219"/>
      </g>
     </g>
    </g>
    <g id="ytick_14">
     <g id="line2d_91">
      <path d="M 64.29 800.421556 
L 709.2 800.421556 
" clip-path="url(#pa2fd1b6751)" style="fill: none; stroke: #e6e6e6; stroke-width: 1.6; stroke-linecap: square"/>
     </g>
     <g id="line2d_92">
      <g>
       <use xlink:href="#mf980985d65" x="64.29" y="800.421556" style="stroke: #000000; stroke-width: 1.6"/>
      </g>
     </g>
     <g id="text_48">
      <!-- 0.0 -->
      <g transform="translate(24.145 806.500306)scale(0.16 -0.16)">
       <use xlink:href="#DejaVuSans-30"/>
       <use xlink:href="#DejaVuSans-2e" x="63.623047"/>
       <use xlink:href="#DejaVuSans-30" x="95.410156"/>
      </g>
     </g>
    </g>
    <g id="ytick_15">
     <g id="line2d_93">
      <path d="M 64.29 763.800801 
L 709.2 763.800801 
" clip-path="url(#pa2fd1b6751)" style="fill: none; stroke: #e6e6e6; stroke-width: 1.6; stroke-linecap: square"/>
     </g>
     <g id="line2d_94">
      <g>
       <use xlink:href="#mf980985d65" x="64.29" y="763.800801" style="stroke: #000000; stroke-width: 1.6"/>
      </g>
     </g>
     <g id="text_49">
      <!-- 2.5 -->
      <g transform="translate(24.145 769.879551)scale(0.16 -0.16)">
       <use xlink:href="#DejaVuSans-32"/>
       <use xlink:href="#DejaVuSans-2e" x="63.623047"/>
       <use xlink:href="#DejaVuSans-35" x="95.410156"/>
      </g>
     </g>
    </g>
   </g>
   <g id="patch_23">
    <path d="M 64.29 857.94 
L 64.29 742.56 
" style="fill: none; stroke: #000000; stroke-width: 0.8; stroke-linejoin: miter; stroke-linecap: square"/>
   </g>
   <g id="patch_24">
    <path d="M 709.2 857.94 
L 709.2 742.56 
" style="fill: none; stroke: #e6e6e6; stroke-width: 0.8; stroke-linejoin: miter; stroke-linecap: square"/>
   </g>
   <g id="patch_25">
    <path d="M 64.29 857.94 
L 709.2 857.94 
" style="fill: none; stroke: #000000; stroke-width: 0.8; stroke-linejoin: miter; stroke-linecap: square"/>
   </g>
   <g id="patch_26">
    <path d="M 64.29 742.56 
L 709.2 742.56 
" style="fill: none; stroke: #e6e6e6; stroke-width: 0.8; stroke-linejoin: miter; stroke-linecap: square"/>
   </g>
   <g id="text_50">
    <!-- d = 0.49 -->
    <g transform="translate(345.129 736.56)scale(0.192 -0.192)">
     <use xlink:href="#DejaVuSans-64"/>
     <use xlink:href="#DejaVuSans-20" x="63.476562"/>
     <use xlink:href="#DejaVuSans-3d" x="95.263672"/>
     <use xlink:href="#DejaVuSans-20" x="179.052734"/>
     <use xlink:href="#DejaVuSans-30" x="210.839844"/>
     <use xlink:href="#DejaVuSans-2e" x="274.462891"/>
     <use xlink:href="#DejaVuSans-34" x="306.25"/>
     <use xlink:href="#DejaVuSans-39" x="369.873047"/>
    </g>
   </g>
   <g id="line2d_95">
    <path d="M 93.604091 782.921749 
L 95.903235 798.275701 
L 98.20238 803.347851 
L 100.501524 786.747955 
L 102.800668 771.647319 
L 105.099813 784.800353 
L 107.398957 799.823943 
L 109.698102 818.798654 
L 111.997246 819.50998 
L 114.29639 781.177897 
L 116.595535 797.279172 
L 118.894679 808.966753 
L 121.193824 789.487284 
L 123.492968 788.020594 
L 125.792112 807.384823 
L 128.091257 813.195068 
L 130.390401 812.221257 
L 132.689545 813.191073 
L 134.98869 827.281937 
L 137.287834 797.447453 
L 139.586979 826.049719 
L 141.886123 787.660888 
L 144.185267 783.360373 
L 146.484412 779.605385 
L 148.783556 803.897091 
L 151.082701 801.964083 
L 153.381845 804.375511 
L 155.680989 814.932994 
L 157.980134 803.056624 
L 160.279278 788.125036 
L 162.578422 815.22275 
L 164.877567 800.208631 
L 167.176711 796.620776 
L 169.475856 798.263306 
L 171.775 794.226178 
L 174.074144 807.692579 
L 176.373289 782.866083 
L 178.672433 801.387871 
L 180.971578 796.897719 
L 183.270722 798.387114 
L 185.569866 815.303305 
L 187.869011 789.627982 
L 190.168155 786.52656 
L 192.467299 776.79639 
L 194.766444 777.635937 
L 197.065588 802.445368 
L 199.364733 812.337932 
L 201.663877 787.083606 
L 203.963021 793.793698 
L 206.262166 806.112582 
L 208.56131 810.753702 
L 210.860455 812.658527 
L 213.159599 802.42867 
L 215.458743 831.383741 
L 217.757888 810.2688 
L 220.057032 815.930852 
L 222.356176 812.460689 
L 224.655321 806.056963 
L 226.954465 810.588729 
L 229.25361 823.709608 
L 231.552754 815.481241 
L 233.851898 838.702135 
L 236.151043 782.83914 
L 238.450187 789.606622 
L 240.749332 803.757546 
L 243.048476 804.122942 
L 245.34762 805.870173 
L 247.646765 788.24344 
L 249.945909 808.534761 
L 252.245053 803.232056 
L 254.544198 802.430423 
L 256.843342 798.221522 
L 259.142487 800.952977 
L 261.441631 814.763275 
L 263.740775 810.806712 
L 266.03992 826.074869 
L 268.339064 823.755262 
L 270.638209 811.928645 
L 272.937353 829.450826 
L 275.236497 812.588139 
L 277.535642 802.039591 
L 279.834786 800.238917 
L 282.13393 809.406117 
L 284.433075 781.223093 
L 286.732219 764.616913 
L 289.031364 788.988439 
L 291.330508 801.829068 
L 293.629652 790.420811 
L 295.928797 802.602158 
L 298.227941 819.140931 
L 300.527086 821.831378 
L 302.82623 818.959096 
L 305.125374 815.51068 
L 307.424519 810.506454 
L 309.723663 830.568963 
L 312.022807 808.977714 
L 314.321952 800.245833 
L 316.621096 795.870988 
L 318.920241 774.002424 
L 321.219385 801.090118 
L 323.518529 830.378156 
L 325.817674 822.242109 
L 328.116818 815.475749 
L 330.415963 817.501183 
L 332.715107 809.085307 
L 335.014251 826.689703 
L 337.313396 801.1978 
L 339.61254 803.969853 
L 341.911684 817.153299 
L 344.210829 804.309154 
L 348.809118 773.170147 
L 351.108262 787.518767 
L 353.407406 809.925254 
L 355.706551 805.528739 
L 358.005695 824.32357 
L 360.30484 803.100268 
L 362.603984 797.444024 
L 364.903128 795.651552 
L 367.202273 801.500099 
L 369.501417 813.09775 
L 371.800561 796.919079 
L 374.099706 778.206771 
L 376.39885 785.634606 
L 378.697995 772.754889 
L 380.997139 781.971281 
L 383.296283 794.887436 
L 385.595428 788.251961 
L 387.894572 797.009657 
L 390.193717 800.234714 
L 392.492861 795.901525 
L 394.792005 810.836489 
L 397.09115 787.135903 
L 399.390294 822.447421 
L 401.689439 789.975479 
L 403.988583 779.552953 
L 406.287727 798.478428 
L 408.586872 759.565744 
L 410.886016 777.293154 
L 413.18516 781.642898 
L 415.484305 763.587856 
L 417.783449 757.866678 
L 420.082594 779.617977 
L 422.381738 789.829557 
L 424.680882 815.955928 
L 426.980027 783.467645 
L 429.279171 780.27974 
L 431.578316 792.4911 
L 433.87746 786.98014 
L 436.176604 807.293952 
L 438.475749 778.34923 
L 440.774893 799.107396 
L 443.074037 806.171115 
L 445.373182 807.226034 
L 449.971471 777.301794 
L 452.270615 795.258799 
L 454.569759 785.440976 
L 456.868904 776.320544 
L 459.168048 774.351176 
L 461.467193 778.580081 
L 463.766337 799.585709 
L 466.065481 809.039327 
L 468.364626 798.832473 
L 470.66377 795.037641 
L 472.962914 784.671478 
L 475.262059 798.325811 
L 477.561203 800.143926 
L 479.860348 824.210157 
L 482.159492 814.689906 
L 484.458636 795.199579 
L 486.757781 803.387626 
L 489.056925 789.996453 
L 491.35607 783.700366 
L 493.655214 779.68515 
L 495.954358 781.183979 
L 498.253503 779.293917 
L 500.552647 792.676852 
L 505.150936 768.686121 
L 507.45008 799.453177 
L 509.749225 781.017492 
L 512.048369 796.435466 
L 514.347513 788.216574 
L 516.646658 815.123336 
L 518.945802 818.846862 
L 521.244947 810.056842 
L 523.544091 793.476735 
L 525.843235 794.940998 
L 528.14238 795.386803 
L 530.441524 782.224295 
L 532.740668 809.095862 
L 535.039813 814.536237 
L 537.338957 852.695455 
L 539.638102 827.537615 
L 541.937246 828.323838 
L 544.23639 816.230798 
L 546.535535 830.277339 
L 548.834679 827.232723 
L 551.133824 821.556207 
L 553.432968 826.271522 
L 555.732112 839.343413 
L 558.031257 824.420463 
L 560.330401 817.501293 
L 562.629545 779.162487 
L 564.92869 783.671292 
L 567.227834 802.990901 
L 569.526979 783.904179 
L 571.826123 791.420287 
L 574.125267 781.419622 
L 576.424412 807.361302 
L 581.022701 779.532988 
L 583.321845 797.886863 
L 585.620989 822.39028 
L 587.920134 810.949012 
L 590.219278 801.418039 
L 592.518422 791.358653 
L 594.817567 795.58393 
L 597.116711 787.913577 
L 599.415856 778.202078 
L 601.715 795.690994 
L 604.014144 810.951003 
L 606.313289 779.124659 
L 608.612433 804.183489 
L 610.911578 833.664567 
L 613.210722 832.83925 
L 615.509866 804.797173 
L 617.809011 825.791134 
L 620.108155 803.523759 
L 622.407299 791.759016 
L 624.706444 780.829238 
L 627.005588 770.682208 
L 629.304733 777.84791 
L 631.603877 797.696382 
L 633.903021 791.269093 
L 636.202166 747.804545 
L 638.50131 771.978947 
L 640.800455 793.227794 
L 643.099599 779.937681 
L 645.398743 788.78286 
L 647.697888 785.790466 
L 649.997032 800.113621 
L 652.296176 805.195083 
L 654.595321 798.22515 
L 656.894465 815.80828 
L 659.19361 801.11716 
L 661.492754 789.103307 
L 663.791898 790.861712 
L 666.091043 798.576714 
L 668.390187 796.462575 
L 670.689332 789.415668 
L 672.988476 803.38935 
L 675.28762 805.143906 
L 677.586765 811.179588 
L 679.885909 789.269219 
L 679.885909 789.269219 
" clip-path="url(#pa2fd1b6751)" style="fill: none; stroke: #1f77b3; stroke-width: 2.8; stroke-linecap: square"/>
   </g>
  </g>
 </g>
 <defs>
  <clipPath id="p4111f8417c">
   <rect x="64.29" y="31.2" width="644.91" height="115.38"/>
  </clipPath>
  <clipPath id="p91dde03a0b">
   <rect x="64.29" y="209.04" width="644.91" height="115.38"/>
  </clipPath>
  <clipPath id="pc0b4196c5c">
   <rect x="64.29" y="386.88" width="644.91" height="115.38"/>
  </clipPath>
  <clipPath id="pe2e7c34328">
   <rect x="64.29" y="564.72" width="644.91" height="115.38"/>
  </clipPath>
  <clipPath id="pa2fd1b6751">
   <rect x="64.29" y="742.56" width="644.91" height="115.38"/>
  </clipPath>
 </defs>
</svg>
