<?xml version="1.0" encoding="utf-8" standalone="no"?>
<!DOCTYPE svg PUBLIC "-//W3C//DTD SVG 1.1//EN"
  "http://www.w3.org/Graphics/SVG/1.1/DTD/svg11.dtd">
<svg xmlns:xlink="http://www.w3.org/1999/xlink" width="432pt" height="252pt" viewBox="0 0 432 252" xmlns="http://www.w3.org/2000/svg" version="1.1">
 <metadata>
  <rdf:RDF xmlns:dc="http://purl.org/dc/elements/1.1/" xmlns:cc="http://creativecommons.org/ns#" xmlns:rdf="http://www.w3.org/1999/02/22-rdf-syntax-ns#">
   <cc:Work>
    <dc:type rdf:resource="http://purl.org/dc/dcmitype/StillImage"/>
    <dc:date>2024-06-25T23:08:04.884359</dc:date>
    <dc:format>image/svg+xml</dc:format>
    <dc:creator>
     <cc:Agent>
      <dc:title>Matplotlib v3.5.1, https://matplotlib.org/</dc:title>
     </cc:Agent>
    </dc:creator>
   </cc:Work>
  </rdf:RDF>
 </metadata>
 <defs>
  <style type="text/css">*{stroke-linejoin: round; stroke-linecap: butt}</style>
 </defs>
 <g id="figure_1">
  <g id="patch_1">
   <path d="M 0 252 
L 432 252 
L 432 0 
L 0 0 
z
" style="fill: #ffffff"/>
  </g>
  <g id="axes_1">
   <g id="patch_2">
    <path d="M 54 224.28 
L 388.8 224.28 
L 388.8 30.24 
L 54 30.24 
L 54 224.28 
z
" style="fill: none; opacity: 0"/>
   </g>
   <g id="matplotlib.axis_1">
    <g id="xtick_1">
     <g id="line2d_1">
      <path d="M 99.654545 224.28 
L 99.654545 30.24 
" clip-path="url(#p96f69964c3)" style="fill: none; stroke: #e6e6e6; stroke-width: 0.8; stroke-linecap: square"/>
     </g>
     <g id="line2d_2">
      <defs>
       <path id="m4ae49e3573" d="M 0 0 
L 0 3.5 
" style="stroke: #000000; stroke-width: 0.8"/>
      </defs>
      <g>
       <use xlink:href="#m4ae49e3573" x="99.654545" y="224.28" style="stroke: #000000; stroke-width: 0.8"/>
      </g>
     </g>
     <g id="text_1">
      <!-- −0.4 -->
      <g transform="translate(87.513139 238.878438)scale(0.1 -0.1)">
       <defs>
        <path id="DejaVuSans-2212" d="M 678 2272 
L 4684 2272 
L 4684 1741 
L 678 1741 
L 678 2272 
z
" transform="scale(0.015625)"/>
        <path id="DejaVuSans-30" d="M 2034 4250 
Q 1547 4250 1301 3770 
Q 1056 3291 1056 2328 
Q 1056 1369 1301 889 
Q 1547 409 2034 409 
Q 2525 409 2770 889 
Q 3016 1369 3016 2328 
Q 3016 3291 2770 3770 
Q 2525 4250 2034 4250 
z
M 2034 4750 
Q 2819 4750 3233 4129 
Q 3647 3509 3647 2328 
Q 3647 1150 3233 529 
Q 2819 -91 2034 -91 
Q 1250 -91 836 529 
Q 422 1150 422 2328 
Q 422 3509 836 4129 
Q 1250 4750 2034 4750 
z
" transform="scale(0.015625)"/>
        <path id="DejaVuSans-2e" d="M 684 794 
L 1344 794 
L 1344 0 
L 684 0 
L 684 794 
z
" transform="scale(0.015625)"/>
        <path id="DejaVuSans-34" d="M 2419 4116 
L 825 1625 
L 2419 1625 
L 2419 4116 
z
M 2253 4666 
L 3047 4666 
L 3047 1625 
L 3713 1625 
L 3713 1100 
L 3047 1100 
L 3047 0 
L 2419 0 
L 2419 1100 
L 313 1100 
L 313 1709 
L 2253 4666 
z
" transform="scale(0.015625)"/>
       </defs>
       <use xlink:href="#DejaVuSans-2212"/>
       <use xlink:href="#DejaVuSans-30" x="83.789062"/>
       <use xlink:href="#DejaVuSans-2e" x="147.412109"/>
       <use xlink:href="#DejaVuSans-34" x="179.199219"/>
      </g>
     </g>
    </g>
    <g id="xtick_2">
     <g id="line2d_3">
      <path d="M 160.527273 224.28 
L 160.527273 30.24 
" clip-path="url(#p96f69964c3)" style="fill: none; stroke: #e6e6e6; stroke-width: 0.8; stroke-linecap: square"/>
     </g>
     <g id="line2d_4">
      <g>
       <use xlink:href="#m4ae49e3573" x="160.527273" y="224.28" style="stroke: #000000; stroke-width: 0.8"/>
      </g>
     </g>
     <g id="text_2">
      <!-- −0.2 -->
      <g transform="translate(148.385866 238.878438)scale(0.1 -0.1)">
       <defs>
        <path id="DejaVuSans-32" d="M 1228 531 
L 3431 531 
L 3431 0 
L 469 0 
L 469 531 
Q 828 903 1448 1529 
Q 2069 2156 2228 2338 
Q 2531 2678 2651 2914 
Q 2772 3150 2772 3378 
Q 2772 3750 2511 3984 
Q 2250 4219 1831 4219 
Q 1534 4219 1204 4116 
Q 875 4013 500 3803 
L 500 4441 
Q 881 4594 1212 4672 
Q 1544 4750 1819 4750 
Q 2544 4750 2975 4387 
Q 3406 4025 3406 3419 
Q 3406 3131 3298 2873 
Q 3191 2616 2906 2266 
Q 2828 2175 2409 1742 
Q 1991 1309 1228 531 
z
" transform="scale(0.015625)"/>
       </defs>
       <use xlink:href="#DejaVuSans-2212"/>
       <use xlink:href="#DejaVuSans-30" x="83.789062"/>
       <use xlink:href="#DejaVuSans-2e" x="147.412109"/>
       <use xlink:href="#DejaVuSans-32" x="179.199219"/>
      </g>
     </g>
    </g>
    <g id="xtick_3">
     <g id="line2d_5">
      <path d="M 221.4 224.28 
L 221.4 30.24 
" clip-path="url(#p96f69964c3)" style="fill: none; stroke: #e6e6e6; stroke-width: 0.8; stroke-linecap: square"/>
     </g>
     <g id="line2d_6">
      <g>
       <use xlink:href="#m4ae49e3573" x="221.4" y="224.28" style="stroke: #000000; stroke-width: 0.8"/>
      </g>
     </g>
     <g id="text_3">
      <!-- 0.0 -->
      <g transform="translate(213.448438 238.878438)scale(0.1 -0.1)">
       <use xlink:href="#DejaVuSans-30"/>
       <use xlink:href="#DejaVuSans-2e" x="63.623047"/>
       <use xlink:href="#DejaVuSans-30" x="95.410156"/>
      </g>
     </g>
    </g>
    <g id="xtick_4">
     <g id="line2d_7">
      <path d="M 282.272727 224.28 
L 282.272727 30.24 
" clip-path="url(#p96f69964c3)" style="fill: none; stroke: #e6e6e6; stroke-width: 0.8; stroke-linecap: square"/>
     </g>
     <g id="line2d_8">
      <g>
       <use xlink:href="#m4ae49e3573" x="282.272727" y="224.28" style="stroke: #000000; stroke-width: 0.8"/>
      </g>
     </g>
     <g id="text_4">
      <!-- 0.2 -->
      <g transform="translate(274.321165 238.878438)scale(0.1 -0.1)">
       <use xlink:href="#DejaVuSans-30"/>
       <use xlink:href="#DejaVuSans-2e" x="63.623047"/>
       <use xlink:href="#DejaVuSans-32" x="95.410156"/>
      </g>
     </g>
    </g>
    <g id="xtick_5">
     <g id="line2d_9">
      <path d="M 343.145455 224.28 
L 343.145455 30.24 
" clip-path="url(#p96f69964c3)" style="fill: none; stroke: #e6e6e6; stroke-width: 0.8; stroke-linecap: square"/>
     </g>
     <g id="line2d_10">
      <g>
       <use xlink:href="#m4ae49e3573" x="343.145455" y="224.28" style="stroke: #000000; stroke-width: 0.8"/>
      </g>
     </g>
     <g id="text_5">
      <!-- 0.4 -->
      <g transform="translate(335.193892 238.878438)scale(0.1 -0.1)">
       <use xlink:href="#DejaVuSans-30"/>
       <use xlink:href="#DejaVuSans-2e" x="63.623047"/>
       <use xlink:href="#DejaVuSans-34" x="95.410156"/>
      </g>
     </g>
    </g>
    <g id="text_6">
     <!-- d -->
     <g transform="translate(218.225781 252.556563)scale(0.1 -0.1)">
      <defs>
       <path id="DejaVuSans-64" d="M 2906 2969 
L 2906 4863 
L 3481 4863 
L 3481 0 
L 2906 0 
L 2906 525 
Q 2725 213 2448 61 
Q 2172 -91 1784 -91 
Q 1150 -91 751 415 
Q 353 922 353 1747 
Q 353 2572 751 3078 
Q 1150 3584 1784 3584 
Q 2172 3584 2448 3432 
Q 2725 3281 2906 2969 
z
M 947 1747 
Q 947 1113 1208 752 
Q 1469 391 1925 391 
Q 2381 391 2643 752 
Q 2906 1113 2906 1747 
Q 2906 2381 2643 2742 
Q 2381 3103 1925 3103 
Q 1469 3103 1208 2742 
Q 947 2381 947 1747 
z
" transform="scale(0.015625)"/>
      </defs>
      <use xlink:href="#DejaVuSans-64"/>
     </g>
    </g>
   </g>
   <g id="matplotlib.axis_2">
    <g id="ytick_1">
     <g id="line2d_11">
      <path d="M 54 197.723343 
L 388.8 197.723343 
" clip-path="url(#p96f69964c3)" style="fill: none; stroke: #e6e6e6; stroke-width: 0.8; stroke-linecap: square"/>
     </g>
     <g id="line2d_12">
      <defs>
       <path id="m95e64895af" d="M 0 0 
L -3.5 0 
" style="stroke: #000000; stroke-width: 0.8"/>
      </defs>
      <g>
       <use xlink:href="#m95e64895af" x="54" y="197.723343" style="stroke: #000000; stroke-width: 0.8"/>
      </g>
     </g>
     <g id="text_7">
      <!-- −0.05 -->
      <g transform="translate(16.354687 201.522561)scale(0.1 -0.1)">
       <defs>
        <path id="DejaVuSans-35" d="M 691 4666 
L 3169 4666 
L 3169 4134 
L 1269 4134 
L 1269 2991 
Q 1406 3038 1543 3061 
Q 1681 3084 1819 3084 
Q 2600 3084 3056 2656 
Q 3513 2228 3513 1497 
Q 3513 744 3044 326 
Q 2575 -91 1722 -91 
Q 1428 -91 1123 -41 
Q 819 9 494 109 
L 494 744 
Q 775 591 1075 516 
Q 1375 441 1709 441 
Q 2250 441 2565 725 
Q 2881 1009 2881 1497 
Q 2881 1984 2565 2268 
Q 2250 2553 1709 2553 
Q 1456 2553 1204 2497 
Q 953 2441 691 2322 
L 691 4666 
z
" transform="scale(0.015625)"/>
       </defs>
       <use xlink:href="#DejaVuSans-2212"/>
       <use xlink:href="#DejaVuSans-30" x="83.789062"/>
       <use xlink:href="#DejaVuSans-2e" x="147.412109"/>
       <use xlink:href="#DejaVuSans-30" x="179.199219"/>
       <use xlink:href="#DejaVuSans-35" x="242.822266"/>
      </g>
     </g>
    </g>
    <g id="ytick_2">
     <g id="line2d_13">
      <path d="M 54 166.178271 
L 388.8 166.178271 
" clip-path="url(#p96f69964c3)" style="fill: none; stroke: #e6e6e6; stroke-width: 0.8; stroke-linecap: square"/>
     </g>
     <g id="line2d_14">
      <g>
       <use xlink:href="#m95e64895af" x="54" y="166.178271" style="stroke: #000000; stroke-width: 0.8"/>
      </g>
     </g>
     <g id="text_8">
      <!-- 0.00 -->
      <g transform="translate(24.734375 169.97749)scale(0.1 -0.1)">
       <use xlink:href="#DejaVuSans-30"/>
       <use xlink:href="#DejaVuSans-2e" x="63.623047"/>
       <use xlink:href="#DejaVuSans-30" x="95.410156"/>
       <use xlink:href="#DejaVuSans-30" x="159.033203"/>
      </g>
     </g>
    </g>
    <g id="ytick_3">
     <g id="line2d_15">
      <path d="M 54 134.6332 
L 388.8 134.6332 
" clip-path="url(#p96f69964c3)" style="fill: none; stroke: #e6e6e6; stroke-width: 0.8; stroke-linecap: square"/>
     </g>
     <g id="line2d_16">
      <g>
       <use xlink:href="#m95e64895af" x="54" y="134.6332" style="stroke: #000000; stroke-width: 0.8"/>
      </g>
     </g>
     <g id="text_9">
      <!-- 0.05 -->
      <g transform="translate(24.734375 138.432418)scale(0.1 -0.1)">
       <use xlink:href="#DejaVuSans-30"/>
       <use xlink:href="#DejaVuSans-2e" x="63.623047"/>
       <use xlink:href="#DejaVuSans-30" x="95.410156"/>
       <use xlink:href="#DejaVuSans-35" x="159.033203"/>
      </g>
     </g>
    </g>
    <g id="ytick_4">
     <g id="line2d_17">
      <path d="M 54 103.088128 
L 388.8 103.088128 
" clip-path="url(#p96f69964c3)" style="fill: none; stroke: #e6e6e6; stroke-width: 0.8; stroke-linecap: square"/>
     </g>
     <g id="line2d_18">
      <g>
       <use xlink:href="#m95e64895af" x="54" y="103.088128" style="stroke: #000000; stroke-width: 0.8"/>
      </g>
     </g>
     <g id="text_10">
      <!-- 0.10 -->
      <g transform="translate(24.734375 106.887347)scale(0.1 -0.1)">
       <defs>
        <path id="DejaVuSans-31" d="M 794 531 
L 1825 531 
L 1825 4091 
L 703 3866 
L 703 4441 
L 1819 4666 
L 2450 4666 
L 2450 531 
L 3481 531 
L 3481 0 
L 794 0 
L 794 531 
z
" transform="scale(0.015625)"/>
       </defs>
       <use xlink:href="#DejaVuSans-30"/>
       <use xlink:href="#DejaVuSans-2e" x="63.623047"/>
       <use xlink:href="#DejaVuSans-31" x="95.410156"/>
       <use xlink:href="#DejaVuSans-30" x="159.033203"/>
      </g>
     </g>
    </g>
    <g id="ytick_5">
     <g id="line2d_19">
      <path d="M 54 71.543056 
L 388.8 71.543056 
" clip-path="url(#p96f69964c3)" style="fill: none; stroke: #e6e6e6; stroke-width: 0.8; stroke-linecap: square"/>
     </g>
     <g id="line2d_20">
      <g>
       <use xlink:href="#m95e64895af" x="54" y="71.543056" style="stroke: #000000; stroke-width: 0.8"/>
      </g>
     </g>
     <g id="text_11">
      <!-- 0.15 -->
      <g transform="translate(24.734375 75.342275)scale(0.1 -0.1)">
       <use xlink:href="#DejaVuSans-30"/>
       <use xlink:href="#DejaVuSans-2e" x="63.623047"/>
       <use xlink:href="#DejaVuSans-31" x="95.410156"/>
       <use xlink:href="#DejaVuSans-35" x="159.033203"/>
      </g>
     </g>
    </g>
    <g id="ytick_6">
     <g id="line2d_21">
      <path d="M 54 39.997985 
L 388.8 39.997985 
" clip-path="url(#p96f69964c3)" style="fill: none; stroke: #e6e6e6; stroke-width: 0.8; stroke-linecap: square"/>
     </g>
     <g id="line2d_22">
      <g>
       <use xlink:href="#m95e64895af" x="54" y="39.997985" style="stroke: #000000; stroke-width: 0.8"/>
      </g>
     </g>
     <g id="text_12">
      <!-- 0.20 -->
      <g transform="translate(24.734375 43.797204)scale(0.1 -0.1)">
       <use xlink:href="#DejaVuSans-30"/>
       <use xlink:href="#DejaVuSans-2e" x="63.623047"/>
       <use xlink:href="#DejaVuSans-32" x="95.410156"/>
       <use xlink:href="#DejaVuSans-30" x="159.033203"/>
      </g>
     </g>
    </g>
    <g id="text_13">
     <!-- bias -->
     <g transform="translate(10.275 137.492031)rotate(-90)scale(0.1 -0.1)">
      <defs>
       <path id="DejaVuSans-62" d="M 3116 1747 
Q 3116 2381 2855 2742 
Q 2594 3103 2138 3103 
Q 1681 3103 1420 2742 
Q 1159 2381 1159 1747 
Q 1159 1113 1420 752 
Q 1681 391 2138 391 
Q 2594 391 2855 752 
Q 3116 1113 3116 1747 
z
M 1159 2969 
Q 1341 3281 1617 3432 
Q 1894 3584 2278 3584 
Q 2916 3584 3314 3078 
Q 3713 2572 3713 1747 
Q 3713 922 3314 415 
Q 2916 -91 2278 -91 
Q 1894 -91 1617 61 
Q 1341 213 1159 525 
L 1159 0 
L 581 0 
L 581 4863 
L 1159 4863 
L 1159 2969 
z
" transform="scale(0.015625)"/>
       <path id="DejaVuSans-69" d="M 603 3500 
L 1178 3500 
L 1178 0 
L 603 0 
L 603 3500 
z
M 603 4863 
L 1178 4863 
L 1178 4134 
L 603 4134 
L 603 4863 
z
" transform="scale(0.015625)"/>
       <path id="DejaVuSans-61" d="M 2194 1759 
Q 1497 1759 1228 1600 
Q 959 1441 959 1056 
Q 959 750 1161 570 
Q 1363 391 1709 391 
Q 2188 391 2477 730 
Q 2766 1069 2766 1631 
L 2766 1759 
L 2194 1759 
z
M 3341 1997 
L 3341 0 
L 2766 0 
L 2766 531 
Q 2569 213 2275 61 
Q 1981 -91 1556 -91 
Q 1019 -91 701 211 
Q 384 513 384 1019 
Q 384 1609 779 1909 
Q 1175 2209 1959 2209 
L 2766 2209 
L 2766 2266 
Q 2766 2663 2505 2880 
Q 2244 3097 1772 3097 
Q 1472 3097 1187 3025 
Q 903 2953 641 2809 
L 641 3341 
Q 956 3463 1253 3523 
Q 1550 3584 1831 3584 
Q 2591 3584 2966 3190 
Q 3341 2797 3341 1997 
z
" transform="scale(0.015625)"/>
       <path id="DejaVuSans-73" d="M 2834 3397 
L 2834 2853 
Q 2591 2978 2328 3040 
Q 2066 3103 1784 3103 
Q 1356 3103 1142 2972 
Q 928 2841 928 2578 
Q 928 2378 1081 2264 
Q 1234 2150 1697 2047 
L 1894 2003 
Q 2506 1872 2764 1633 
Q 3022 1394 3022 966 
Q 3022 478 2636 193 
Q 2250 -91 1575 -91 
Q 1294 -91 989 -36 
Q 684 19 347 128 
L 347 722 
Q 666 556 975 473 
Q 1284 391 1588 391 
Q 1994 391 2212 530 
Q 2431 669 2431 922 
Q 2431 1156 2273 1281 
Q 2116 1406 1581 1522 
L 1381 1569 
Q 847 1681 609 1914 
Q 372 2147 372 2553 
Q 372 3047 722 3315 
Q 1072 3584 1716 3584 
Q 2034 3584 2315 3537 
Q 2597 3491 2834 3397 
z
" transform="scale(0.015625)"/>
      </defs>
      <use xlink:href="#DejaVuSans-62"/>
      <use xlink:href="#DejaVuSans-69" x="63.476562"/>
      <use xlink:href="#DejaVuSans-61" x="91.259766"/>
      <use xlink:href="#DejaVuSans-73" x="152.539062"/>
     </g>
    </g>
   </g>
   <g id="patch_3">
    <path d="M 54 224.28 
L 54 30.24 
" style="fill: none; stroke: #000000; stroke-width: 0.8; stroke-linejoin: miter; stroke-linecap: square"/>
   </g>
   <g id="patch_4">
    <path d="M 388.8 224.28 
L 388.8 30.24 
" style="fill: none; stroke: #e6e6e6; stroke-width: 0.8; stroke-linejoin: miter; stroke-linecap: square"/>
   </g>
   <g id="patch_5">
    <path d="M 54 224.28 
L 388.8 224.28 
" style="fill: none; stroke: #000000; stroke-width: 0.8; stroke-linejoin: miter; stroke-linecap: square"/>
   </g>
   <g id="patch_6">
    <path d="M 54 30.24 
L 388.8 30.24 
" style="fill: none; stroke: #e6e6e6; stroke-width: 0.8; stroke-linejoin: miter; stroke-linecap: square"/>
   </g>
   <g id="line2d_23">
    <path d="M 69.218182 43.836128 
L 70.132187 43.88487 
L 71.35086 44.887256 
L 71.960197 45.147819 
L 72.569533 45.583903 
L 75.00688 47.08188 
L 75.616216 47.528061 
L 77.139558 48.720294 
L 78.662899 50.602183 
L 80.795577 52.684015 
L 81.404914 53.363034 
L 82.318919 54.404205 
L 83.84226 56.158627 
L 84.451597 56.601793 
L 85.060934 57.187987 
L 85.974939 58.42772 
L 86.584275 59.041654 
L 87.193612 59.868051 
L 89.935627 62.312349 
L 90.240295 62.49243 
L 92.98231 65.79886 
L 93.591646 66.379344 
L 94.200983 66.990439 
L 94.505651 67.426339 
L 94.810319 67.57044 
L 96.333661 69.046057 
L 96.638329 69.219327 
L 97.857002 70.45452 
L 98.161671 70.619868 
L 104.255037 77.103844 
L 109.739066 81.984636 
L 110.348403 82.302128 
L 110.95774 82.85866 
L 111.567076 83.268057 
L 112.481081 84.153531 
L 113.395086 84.608048 
L 113.699754 84.914291 
L 114.004423 84.954602 
L 114.613759 85.350561 
L 114.918428 85.541421 
L 116.441769 87.071975 
L 118.269779 88.418821 
L 118.574447 88.795949 
L 118.879115 88.985937 
L 119.183784 89.324488 
L 119.79312 89.530843 
L 121.316462 90.856043 
L 121.62113 90.934432 
L 121.925799 91.173209 
L 122.230467 91.593291 
L 123.144472 92.087065 
L 123.44914 92.351826 
L 124.058477 93.033237 
L 124.667813 93.556619 
L 124.972482 93.675376 
L 125.581818 94.139085 
L 125.886486 94.158324 
L 126.191155 94.389583 
L 126.495823 94.454553 
L 128.323833 95.597716 
L 129.237838 96.879931 
L 130.456511 97.715563 
L 130.761179 97.865423 
L 131.065848 98.158736 
L 131.370516 98.712266 
L 132.284521 99.277085 
L 132.893857 99.78463 
L 133.807862 100.396543 
L 134.721867 101.302169 
L 135.940541 102.277861 
L 136.549877 102.679048 
L 137.159214 103.113743 
L 137.76855 103.484192 
L 138.073219 103.808704 
L 138.682555 104.132417 
L 138.987224 104.542995 
L 142.033907 106.289063 
L 142.338575 106.570793 
L 142.643243 106.674744 
L 142.947912 107.053722 
L 143.25258 107.163325 
L 143.557248 107.563836 
L 144.166585 107.670447 
L 144.775921 107.818628 
L 145.08059 108.154572 
L 148.431941 109.920763 
L 148.736609 110.298376 
L 149.345946 110.527699 
L 150.259951 111.335111 
L 151.173956 112.167486 
L 151.478624 112.348607 
L 152.087961 112.468221 
L 154.220639 113.856911 
L 154.829975 114.035599 
L 155.439312 114.6032 
L 155.74398 114.811052 
L 156.048649 114.881202 
L 156.657985 115.392444 
L 158.181327 116.192841 
L 159.704668 117.632742 
L 160.314005 118.024426 
L 160.618673 118.338169 
L 160.923342 118.424886 
L 161.22801 118.733769 
L 161.532678 118.780411 
L 166.407371 121.511053 
L 166.712039 121.490271 
L 168.540049 122.98596 
L 169.149386 122.958667 
L 169.454054 123.224096 
L 170.063391 123.548076 
L 171.586732 124.130228 
L 173.414742 124.631679 
L 174.938084 124.68707 
L 175.242752 124.718229 
L 176.156757 125.508035 
L 176.461425 125.473153 
L 177.070762 125.976363 
L 177.680098 126.196292 
L 177.984767 126.203623 
L 178.289435 126.566403 
L 178.898771 126.944528 
L 179.20344 126.955656 
L 179.508108 127.083245 
L 180.117445 127.603658 
L 180.726781 127.629834 
L 181.336118 127.908166 
L 181.640786 128.005583 
L 182.250123 128.429913 
L 182.859459 128.594023 
L 183.773464 128.925071 
L 184.078133 129.199614 
L 184.382801 129.289776 
L 184.992138 129.760185 
L 185.906143 130.361637 
L 187.124816 130.989816 
L 188.648157 132.339419 
L 189.257494 132.629362 
L 189.562162 133.044684 
L 189.86683 132.896012 
L 190.171499 132.900914 
L 190.476167 133.170284 
L 191.390172 133.332898 
L 191.69484 133.6081 
L 192.304177 133.852486 
L 192.608845 133.75269 
L 193.52285 134.338938 
L 193.827518 134.332284 
L 194.436855 134.590539 
L 194.741523 134.484253 
L 195.046192 134.579496 
L 195.35086 134.39019 
L 195.655528 134.562946 
L 195.960197 134.547445 
L 197.483538 135.307166 
L 197.788206 135.238335 
L 198.397543 135.440534 
L 198.702211 135.703448 
L 199.311548 135.923566 
L 199.616216 136.195641 
L 200.225553 136.154999 
L 200.834889 136.408308 
L 201.748894 136.793152 
L 202.967568 137.003681 
L 203.576904 136.87112 
L 204.186241 137.037874 
L 204.490909 137.382735 
L 204.795577 137.391532 
L 206.014251 138.107545 
L 206.318919 138.122145 
L 206.623587 138.384227 
L 207.232924 138.289755 
L 207.537592 138.490893 
L 207.84226 138.871141 
L 208.451597 139.215643 
L 208.756265 139.186891 
L 209.060934 139.561455 
L 209.365602 139.598748 
L 209.67027 139.966562 
L 210.279607 140.270547 
L 210.584275 140.772409 
L 211.193612 141.032446 
L 211.49828 141.186143 
L 212.107617 140.867252 
L 212.412285 140.950714 
L 212.716953 141.181225 
L 213.32629 141.961007 
L 214.240295 141.706138 
L 215.1543 141.808127 
L 215.458968 142.09321 
L 215.763636 142.027796 
L 216.372973 142.243181 
L 216.677641 142.439452 
L 217.286978 142.498975 
L 217.591646 142.625244 
L 217.896314 142.617367 
L 218.200983 142.935917 
L 218.505651 142.885553 
L 219.114988 143.228457 
L 219.419656 143.509175 
L 219.724324 143.595267 
L 220.028993 143.549116 
L 220.333661 143.760779 
L 220.638329 143.829143 
L 220.942998 144.084763 
L 221.247666 144.104466 
L 221.552334 144.490851 
L 221.857002 144.542186 
L 222.466339 145.018766 
L 223.075676 145.197421 
L 223.685012 145.262649 
L 223.989681 145.455554 
L 224.294349 145.412231 
L 224.599017 145.608752 
L 224.903686 145.512679 
L 225.208354 145.893347 
L 226.122359 145.831912 
L 226.731695 146.191914 
L 227.036364 146.405585 
L 227.341032 146.770984 
L 227.950369 146.975901 
L 228.559705 147.019118 
L 228.864373 147.323887 
L 229.47371 147.651175 
L 230.387715 148.755807 
L 230.692383 148.719913 
L 230.997052 148.879068 
L 231.30172 148.884332 
L 231.606388 149.009398 
L 231.911057 149.270258 
L 232.215725 149.140823 
L 232.825061 149.38329 
L 233.12973 149.763303 
L 233.434398 149.822601 
L 233.739066 150.204836 
L 234.348403 150.159548 
L 234.95774 150.350327 
L 235.567076 150.547324 
L 236.176413 150.55222 
L 236.481081 150.806915 
L 236.785749 150.729286 
L 237.090418 150.849146 
L 237.395086 150.759801 
L 237.699754 150.812536 
L 238.004423 150.698691 
L 238.309091 150.881997 
L 238.613759 150.895577 
L 238.918428 151.047896 
L 239.527764 151.081009 
L 239.832432 151.152403 
L 240.137101 151.058767 
L 240.441769 151.101594 
L 240.746437 151.380665 
L 241.051106 151.495084 
L 241.355774 151.865437 
L 241.660442 151.636835 
L 242.269779 151.637489 
L 243.183784 151.737828 
L 244.097789 152.232869 
L 245.011794 152.619891 
L 245.316462 152.476506 
L 245.62113 152.459048 
L 245.925799 152.832602 
L 246.230467 152.814664 
L 246.535135 153.072725 
L 246.839803 153.163561 
L 247.144472 152.896157 
L 247.753808 153.671805 
L 248.058477 153.664391 
L 248.363145 153.444941 
L 248.972482 153.486903 
L 249.27715 153.682376 
L 250.800491 153.796342 
L 251.10516 153.72827 
L 251.714496 153.938045 
L 252.019165 154.289026 
L 252.323833 154.188596 
L 252.93317 154.655237 
L 254.456511 155.238485 
L 254.761179 155.61218 
L 255.065848 155.679546 
L 255.370516 155.585493 
L 256.284521 156.074636 
L 256.589189 155.992476 
L 257.503194 156.528926 
L 258.112531 156.648176 
L 258.417199 157.06895 
L 259.331204 157.384226 
L 259.635872 157.545312 
L 260.245209 157.594163 
L 260.549877 157.873815 
L 261.76855 158.421309 
L 262.073219 158.261164 
L 262.682555 158.481099 
L 262.987224 158.543755 
L 263.291892 158.770848 
L 263.59656 158.742895 
L 263.901229 158.988001 
L 264.815233 158.868005 
L 265.119902 159.05129 
L 265.42457 158.934311 
L 266.033907 159.711098 
L 266.338575 160.085187 
L 266.947912 159.863851 
L 267.557248 159.697259 
L 267.861916 159.77543 
L 268.471253 160.131254 
L 268.775921 159.957346 
L 269.08059 160.326359 
L 269.689926 160.272784 
L 269.994595 160.178164 
L 270.603931 160.798963 
L 270.9086 160.552086 
L 271.213268 160.724583 
L 271.517936 160.711935 
L 271.822604 160.896527 
L 272.127273 160.831685 
L 272.431941 160.880468 
L 272.736609 161.281669 
L 273.345946 161.441147 
L 273.650614 161.176633 
L 273.955283 161.163107 
L 274.259951 160.997341 
L 274.564619 161.215671 
L 275.173956 161.35902 
L 275.478624 161.5715 
L 275.783292 161.344283 
L 276.087961 161.413343 
L 276.392629 161.266617 
L 276.697297 161.406724 
L 277.001966 161.38603 
L 277.306634 161.646115 
L 277.915971 161.702977 
L 278.220639 161.40052 
L 278.525307 161.489645 
L 279.134644 162.104539 
L 280.353317 162.915075 
L 280.657985 163.06738 
L 281.267322 162.991469 
L 281.57199 163.339251 
L 281.876658 163.479348 
L 282.790663 164.420386 
L 283.095332 164.515911 
L 283.4 164.317023 
L 283.704668 164.413081 
L 284.009337 164.688121 
L 284.314005 164.765068 
L 284.923342 165.130522 
L 285.532678 164.957013 
L 286.446683 165.675797 
L 287.05602 165.566245 
L 287.360688 165.880889 
L 287.665356 165.878702 
L 287.970025 165.698014 
L 288.274693 165.83404 
L 288.579361 165.800558 
L 288.884029 166.194676 
L 289.188698 166.037115 
L 289.493366 166.346631 
L 289.798034 166.308173 
L 290.102703 166.675121 
L 290.712039 166.605389 
L 291.321376 167.199507 
L 291.626044 167.195796 
L 293.758722 168.342823 
L 294.063391 168.377352 
L 294.368059 168.217713 
L 295.8914 168.838897 
L 296.196069 168.650791 
L 296.500737 168.71084 
L 296.805405 168.179461 
L 297.71941 168.533734 
L 298.024079 168.94133 
L 298.328747 169.102421 
L 298.633415 169.798802 
L 299.54742 169.916206 
L 299.852088 169.648827 
L 300.156757 169.889591 
L 300.461425 170.277543 
L 300.766093 170.150731 
L 301.070762 170.170097 
L 301.37543 170.340596 
L 301.680098 170.173413 
L 301.984767 170.339679 
L 302.594103 170.302554 
L 303.20344 170.792755 
L 303.508108 171.049859 
L 303.812776 170.914405 
L 304.117445 170.908941 
L 304.422113 171.478366 
L 305.03145 172.122828 
L 305.336118 172.051081 
L 306.250123 172.862097 
L 306.554791 172.77335 
L 306.859459 173.095243 
L 307.164128 173.172424 
L 307.773464 173.88487 
L 308.078133 173.915262 
L 308.382801 173.817206 
L 308.992138 174.463762 
L 309.296806 174.316112 
L 310.515479 174.914074 
L 310.820147 174.95823 
L 311.429484 175.792246 
L 311.734152 176.001826 
L 312.038821 176.533449 
L 312.648157 176.547249 
L 312.952826 176.667183 
L 313.257494 176.359955 
L 313.562162 176.458264 
L 313.86683 176.074087 
L 314.476167 176.197589 
L 314.780835 176.175236 
L 315.085504 176.455388 
L 315.69484 176.621109 
L 317.218182 178.062756 
L 317.827518 178.342456 
L 318.436855 178.565939 
L 318.741523 178.499647 
L 319.046192 178.904893 
L 319.655528 179.184597 
L 320.264865 179.179921 
L 320.874201 179.456484 
L 321.17887 179.296046 
L 321.788206 179.4498 
L 322.092875 179.879374 
L 323.00688 180.334744 
L 323.311548 180.75981 
L 324.225553 181.024659 
L 324.530221 181.551219 
L 324.834889 181.832149 
L 325.444226 182.086882 
L 326.053563 182.69474 
L 326.967568 182.761887 
L 327.272236 182.833613 
L 327.881572 183.263211 
L 328.186241 183.472469 
L 328.490909 184.007834 
L 328.795577 183.864059 
L 329.100246 184.160138 
L 329.404914 184.145562 
L 330.014251 185.089914 
L 330.318919 185.137135 
L 330.623587 185.025506 
L 330.928256 185.081519 
L 331.232924 185.344238 
L 331.84226 185.446077 
L 332.146929 185.578942 
L 332.451597 186.043559 
L 333.365602 186.910855 
L 334.279607 187.692398 
L 334.888943 187.876901 
L 335.193612 188.230881 
L 336.107617 188.671897 
L 336.412285 189.12308 
L 336.716953 189.283788 
L 337.021622 189.84196 
L 337.32629 189.874749 
L 338.849631 190.880913 
L 339.1543 190.785499 
L 339.763636 191.111367 
L 340.068305 191.148757 
L 340.98231 191.890112 
L 341.591646 192.576408 
L 342.200983 192.871803 
L 342.810319 193.657628 
L 343.114988 193.722664 
L 343.419656 193.659044 
L 344.333661 195.146153 
L 344.942998 195.472623 
L 346.466339 196.960025 
L 346.771007 197.340445 
L 347.685012 197.985715 
L 347.989681 198.52329 
L 348.599017 198.78557 
L 349.208354 199.662436 
L 349.513022 199.949379 
L 349.81769 199.909103 
L 350.122359 200.104548 
L 350.427027 199.977062 
L 350.731695 200.085339 
L 351.950369 201.337816 
L 352.559705 201.989939 
L 352.864373 202.543276 
L 353.47371 203.044126 
L 353.778378 203.339483 
L 354.083047 203.376297 
L 354.387715 204.173842 
L 354.692383 204.203897 
L 356.215725 204.871566 
L 357.739066 205.225717 
L 358.653071 206.323761 
L 358.95774 206.217565 
L 360.176413 207.850907 
L 360.481081 207.885717 
L 360.785749 208.135042 
L 361.090418 208.64975 
L 363.223096 210.397674 
L 363.527764 210.76125 
L 364.137101 210.927562 
L 364.441769 211.247426 
L 365.051106 211.474187 
L 365.660442 212.367615 
L 366.269779 212.654105 
L 366.574447 212.714248 
L 367.183784 212.711575 
L 367.488452 212.728704 
L 367.79312 212.549193 
L 368.097789 212.642085 
L 368.707125 212.461649 
L 370.230467 213.050448 
L 370.535135 213.292528 
L 371.44914 213.689594 
L 372.972482 215.46 
L 373.27715 215.13144 
L 373.581818 215.354715 
L 373.581818 215.354715 
" clip-path="url(#p96f69964c3)" style="fill: none; stroke-dasharray: 1.5,2.475; stroke-dashoffset: 0; stroke: #ff0000; stroke-width: 1.5"/>
   </g>
   <g id="line2d_24">
    <path d="M 69.218182 39.06 
L 70.132187 39.584889 
L 70.741523 39.870129 
L 72.569533 40.970923 
L 73.483538 41.342638 
L 74.702211 42.236139 
L 75.311548 42.522939 
L 76.530221 43.295594 
L 77.444226 44.304513 
L 77.748894 44.784557 
L 80.795577 47.434652 
L 82.014251 48.682127 
L 82.623587 49.240313 
L 83.537592 50.379085 
L 85.974939 52.715455 
L 88.107617 55.075826 
L 89.32629 56.139488 
L 89.630958 56.45065 
L 89.935627 56.59373 
L 90.544963 57.265936 
L 91.763636 58.592572 
L 92.068305 58.79838 
L 92.677641 59.488344 
L 93.896314 60.885551 
L 94.200983 61.136238 
L 94.505651 61.576863 
L 94.810319 61.718171 
L 96.333661 63.306342 
L 96.942998 63.814815 
L 97.857002 64.942096 
L 98.161671 65.122237 
L 98.466339 65.578771 
L 98.771007 65.810578 
L 99.075676 66.234276 
L 99.685012 66.705672 
L 100.903686 67.980389 
L 104.864373 72.111945 
L 105.169042 72.263313 
L 107.606388 74.743741 
L 107.911057 74.948893 
L 108.825061 76.017373 
L 109.739066 76.840492 
L 110.348403 77.150468 
L 111.567076 78.201474 
L 114.004423 80.236901 
L 114.613759 80.786094 
L 115.223096 81.36382 
L 115.832432 82.272333 
L 116.137101 82.525136 
L 116.746437 83.238929 
L 117.355774 83.621449 
L 118.269779 84.487156 
L 119.488452 85.856258 
L 121.316462 87.394294 
L 121.62113 87.579615 
L 122.839803 88.956953 
L 123.44914 89.524268 
L 124.058477 90.401943 
L 124.363145 90.58914 
L 124.667813 90.973475 
L 124.972482 91.121199 
L 129.847174 95.555775 
L 130.151843 95.938692 
L 130.761179 96.417586 
L 131.370516 97.259171 
L 133.198526 98.577128 
L 133.807862 99.464021 
L 134.112531 99.755505 
L 134.417199 100.249527 
L 135.026536 100.601974 
L 135.635872 101.60809 
L 136.245209 102.020006 
L 138.682555 103.909842 
L 139.901229 104.995108 
L 140.815233 105.480852 
L 142.033907 106.475231 
L 142.338575 106.617891 
L 143.25258 107.441461 
L 144.775921 108.843998 
L 145.385258 109.512067 
L 146.603931 110.590126 
L 147.822604 111.696041 
L 150.259951 113.592378 
L 151.173956 114.603413 
L 151.783292 114.969316 
L 152.697297 115.717662 
L 153.001966 115.821124 
L 153.306634 116.32902 
L 153.611302 116.526661 
L 154.829975 117.944279 
L 155.134644 118.117538 
L 155.74398 118.661767 
L 156.353317 119.005391 
L 157.57199 119.895558 
L 159.704668 121.35376 
L 160.009337 121.470327 
L 160.923342 122.308272 
L 161.532678 122.723961 
L 163.970025 124.496719 
L 164.274693 124.661229 
L 164.579361 124.978788 
L 165.188698 125.323089 
L 167.626044 127.369211 
L 168.540049 128.402812 
L 168.844717 128.532975 
L 170.977396 130.264317 
L 173.71941 132.236311 
L 174.328747 132.88424 
L 175.54742 133.782613 
L 175.852088 134.200559 
L 176.766093 134.844545 
L 177.37543 135.305234 
L 177.984767 135.757847 
L 179.20344 136.875832 
L 179.812776 137.255812 
L 183.468796 139.609973 
L 184.078133 139.896399 
L 184.687469 140.367926 
L 188.952826 143.238191 
L 189.562162 143.817145 
L 190.171499 144.257473 
L 192.304177 145.868171 
L 192.913514 146.125532 
L 193.52285 146.537719 
L 194.132187 147.027895 
L 195.35086 147.68344 
L 195.655528 147.94808 
L 195.960197 148.064866 
L 197.17887 149.047595 
L 198.092875 149.556027 
L 198.702211 150.020818 
L 199.311548 150.412061 
L 202.358231 152.31877 
L 202.662899 152.438619 
L 202.967568 152.69918 
L 203.576904 152.991345 
L 204.186241 153.278197 
L 205.100246 153.85174 
L 206.014251 154.325633 
L 210.279607 157.268152 
L 210.888943 157.466934 
L 211.193612 157.499991 
L 211.802948 157.84666 
L 213.021622 158.474179 
L 214.849631 159.496803 
L 215.458968 159.963015 
L 216.677641 160.613352 
L 217.591646 161.082296 
L 218.200983 161.395407 
L 218.810319 161.74077 
L 220.638329 162.664815 
L 221.247666 163.148589 
L 222.161671 163.638953 
L 222.771007 164.010464 
L 223.685012 164.379504 
L 225.513022 164.917888 
L 226.427027 165.348546 
L 227.341032 165.707049 
L 227.6457 165.727248 
L 229.778378 166.871301 
L 230.387715 167.094732 
L 230.692383 167.260325 
L 230.997052 167.28521 
L 231.606388 167.539491 
L 232.215725 167.76541 
L 232.520393 168.09654 
L 235.262408 169.086561 
L 236.176413 169.350399 
L 236.785749 169.4928 
L 238.309091 170.039635 
L 239.527764 170.496345 
L 239.832432 170.729992 
L 240.137101 170.775303 
L 240.746437 171.247647 
L 242.574447 171.795536 
L 243.488452 172.260847 
L 246.230467 173.516897 
L 246.535135 173.522195 
L 247.44914 173.887725 
L 248.363145 174.198917 
L 248.972482 174.465033 
L 250.495823 174.948234 
L 251.10516 174.957309 
L 253.847174 175.580538 
L 255.065848 176.053121 
L 255.979853 176.242026 
L 256.284521 176.379373 
L 256.893857 176.363493 
L 257.807862 176.704039 
L 263.59656 177.651382 
L 264.205897 177.677479 
L 265.42457 177.974873 
L 267.25258 178.411783 
L 267.861916 178.570513 
L 271.213268 178.834236 
L 272.127273 179.146958 
L 277.001966 179.374965 
L 277.611302 179.583847 
L 277.915971 179.50898 
L 278.525307 179.548081 
L 279.74398 179.533065 
L 280.353317 179.608335 
L 280.657985 179.461479 
L 281.876658 179.420632 
L 282.181327 179.537959 
L 283.4 179.435928 
L 284.009337 179.3591 
L 285.532678 179.202085 
L 286.142015 179.048762 
L 286.446683 179.11875 
L 286.751351 178.873807 
L 287.05602 179.049966 
L 287.970025 179.076595 
L 288.274693 179.077384 
L 288.884029 178.912848 
L 289.493366 179.033266 
L 289.798034 178.826287 
L 290.102703 178.943241 
L 290.407371 178.925871 
L 290.712039 178.78402 
L 291.016708 178.950783 
L 291.321376 178.968185 
L 291.930713 178.775386 
L 293.149386 178.864256 
L 293.454054 178.708669 
L 294.368059 178.890393 
L 294.672727 178.749959 
L 295.8914 178.942637 
L 296.500737 178.890334 
L 296.805405 179.006167 
L 297.414742 178.805346 
L 298.328747 178.584476 
L 298.938084 178.604126 
L 299.242752 178.251132 
L 300.766093 178.444272 
L 301.070762 178.20699 
L 301.680098 178.295241 
L 301.984767 178.414381 
L 302.594103 178.248868 
L 303.20344 178.41157 
L 303.508108 178.245547 
L 303.812776 178.330852 
L 304.117445 178.278598 
L 304.422113 178.498121 
L 304.726781 178.508334 
L 305.03145 178.844832 
L 305.336118 178.716339 
L 306.554791 178.746889 
L 307.164128 178.731406 
L 307.468796 178.571882 
L 308.078133 178.525501 
L 308.382801 178.373361 
L 308.992138 178.435475 
L 309.296806 178.254672 
L 310.210811 178.58191 
L 310.515479 178.310638 
L 311.124816 178.17857 
L 311.429484 178.155454 
L 312.038821 177.636891 
L 313.257494 177.449262 
L 313.562162 177.534314 
L 313.86683 177.805673 
L 314.171499 177.915051 
L 314.476167 178.177526 
L 315.085504 178.078686 
L 315.390172 178.329068 
L 315.69484 178.16242 
L 316.608845 178.822666 
L 317.218182 178.701452 
L 318.132187 178.374881 
L 318.436855 178.335666 
L 319.046192 178.402744 
L 319.35086 178.3671 
L 319.655528 178.208941 
L 320.264865 177.545972 
L 320.569533 177.593434 
L 322.092875 177.075159 
L 322.702211 177.293824 
L 323.00688 177.258186 
L 323.311548 177.413404 
L 324.225553 177.354673 
L 324.530221 177.58305 
L 325.139558 177.297588 
L 326.662899 177.547999 
L 326.967568 177.754493 
L 327.272236 177.819115 
L 327.576904 177.752161 
L 328.186241 177.928225 
L 328.490909 178.103964 
L 329.709582 177.793832 
L 330.318919 177.944257 
L 330.623587 177.643085 
L 331.537592 177.51106 
L 332.146929 177.136972 
L 332.756265 177.332048 
L 333.67027 177.699327 
L 333.974939 177.914394 
L 334.279607 177.80733 
L 334.584275 177.912299 
L 334.888943 177.892683 
L 335.193612 178.219439 
L 335.49828 178.371899 
L 335.802948 178.355365 
L 336.412285 178.717947 
L 337.935627 179.491018 
L 338.240295 179.485231 
L 339.1543 180.001935 
L 339.763636 179.903341 
L 340.372973 180.034066 
L 340.98231 180.001744 
L 341.286978 180.150817 
L 341.591646 180.141598 
L 341.896314 180.016007 
L 342.505651 180.498059 
L 342.810319 180.771934 
L 343.419656 180.755732 
L 344.028993 180.594664 
L 344.333661 180.749288 
L 345.552334 180.84054 
L 345.857002 180.722422 
L 346.161671 180.986029 
L 346.466339 181.04854 
L 347.685012 182.071874 
L 348.599017 182.340361 
L 349.208354 182.383154 
L 349.513022 182.743627 
L 350.731695 183.020811 
L 351.036364 183.166212 
L 351.341032 183.096567 
L 351.950369 183.483725 
L 352.255037 183.759955 
L 353.47371 184.144148 
L 353.778378 184.030766 
L 355.606388 184.574846 
L 356.215725 184.861502 
L 357.434398 185.659697 
L 358.348403 185.751722 
L 359.262408 186.777182 
L 359.567076 186.973928 
L 359.871744 187.303928 
L 360.785749 187.798915 
L 362.004423 188.764621 
L 362.309091 188.85152 
L 363.832432 189.838546 
L 364.746437 190.175409 
L 365.355774 190.568568 
L 365.965111 191.133049 
L 366.269779 191.116276 
L 367.183784 191.373608 
L 368.402457 191.50505 
L 369.62113 191.952304 
L 369.925799 191.989549 
L 370.839803 192.546622 
L 371.753808 193.07747 
L 372.058477 193.026129 
L 372.363145 193.320774 
L 372.667813 193.405927 
L 373.27715 194.021033 
L 373.581818 194.197516 
L 373.581818 194.197516 
" clip-path="url(#p96f69964c3)" style="fill: none; stroke-dasharray: 9.6,2.4,1.5,2.4; stroke-dashoffset: 0; stroke: #ff0000; stroke-width: 1.5"/>
   </g>
   <g id="line2d_25">
    <path d="M 69.218182 68.807809 
L 71.960197 70.39444 
L 72.569533 70.763997 
L 74.397543 71.564344 
L 75.00688 71.910451 
L 76.530221 72.883544 
L 77.139558 73.419623 
L 78.358231 74.750268 
L 79.576904 75.627572 
L 81.404914 77.245472 
L 82.318919 78.050938 
L 83.84226 79.701393 
L 86.584275 82.30977 
L 86.888943 82.768792 
L 88.107617 83.888068 
L 88.716953 84.444795 
L 89.021622 84.618183 
L 89.630958 85.24573 
L 90.240295 85.678168 
L 91.763636 87.271294 
L 92.068305 87.482528 
L 92.677641 88.160091 
L 93.591646 89.13872 
L 94.200983 89.588222 
L 94.505651 89.981387 
L 94.810319 90.087166 
L 102.427027 97.005538 
L 103.036364 97.442394 
L 103.950369 98.351135 
L 108.520393 102.106821 
L 109.12973 102.823767 
L 114.918428 106.993871 
L 116.746437 108.721005 
L 117.965111 109.5287 
L 119.183784 110.838222 
L 121.62113 112.458615 
L 122.535135 113.322172 
L 123.144472 113.61569 
L 124.667813 115.034278 
L 125.27715 115.40293 
L 127.714496 117.158902 
L 128.323833 117.547092 
L 129.542506 118.60193 
L 131.065848 119.759487 
L 131.675184 120.373205 
L 133.198526 121.252712 
L 133.807862 121.91224 
L 135.331204 123.02142 
L 135.940541 123.639406 
L 136.854545 124.022283 
L 138.987224 125.660839 
L 140.510565 126.500278 
L 141.119902 126.847561 
L 141.42457 127.055592 
L 141.729238 127.124071 
L 142.643243 127.699658 
L 146.9086 130.345359 
L 147.822604 131.075209 
L 149.345946 131.958874 
L 149.955283 132.406288 
L 150.259951 132.567845 
L 150.869287 133.038626 
L 152.392629 133.892409 
L 153.001966 134.207506 
L 153.306634 134.569804 
L 153.611302 134.688727 
L 154.829975 135.60898 
L 155.439312 135.962227 
L 159.704668 138.487711 
L 160.314005 138.762761 
L 160.923342 139.230223 
L 162.446683 139.940498 
L 165.798034 141.684446 
L 166.407371 142.193036 
L 168.235381 143.163629 
L 169.758722 144.025878 
L 170.063391 144.117592 
L 171.282064 144.910418 
L 172.805405 145.672434 
L 173.414742 145.998857 
L 173.71941 146.109244 
L 174.328747 146.548458 
L 175.242752 146.954067 
L 176.156757 147.705671 
L 182.554791 150.889569 
L 184.382801 151.741017 
L 185.906143 152.601394 
L 187.429484 153.205633 
L 188.038821 153.539062 
L 189.257494 154.175557 
L 189.86683 154.496211 
L 191.69484 155.364569 
L 192.304177 155.613766 
L 193.827518 156.231603 
L 194.741523 156.687453 
L 195.35086 156.774647 
L 201.139558 159.167086 
L 202.053563 159.379686 
L 203.272236 159.937044 
L 203.881572 160.039307 
L 207.84226 161.942665 
L 208.146929 162.160643 
L 208.756265 162.25475 
L 209.365602 162.646941 
L 209.974939 162.786329 
L 210.584275 163.182286 
L 211.802948 163.53259 
L 217.591646 165.637582 
L 218.200983 165.762606 
L 219.724324 166.361318 
L 220.028993 166.386514 
L 220.942998 166.788143 
L 221.552334 166.962846 
L 222.161671 167.091931 
L 222.771007 167.278417 
L 223.685012 167.481339 
L 224.294349 167.657493 
L 225.208354 167.823062 
L 227.950369 168.446441 
L 228.864373 168.773976 
L 231.30172 169.450263 
L 231.606388 169.437547 
L 232.825061 169.882978 
L 233.739066 170.129825 
L 234.043735 170.253098 
L 234.653071 170.299454 
L 236.481081 170.598961 
L 237.090418 170.686252 
L 240.137101 171.415245 
L 240.746437 171.709445 
L 241.355774 171.907523 
L 241.965111 171.952619 
L 243.79312 172.34041 
L 244.402457 172.504158 
L 245.925799 172.809005 
L 248.058477 173.548122 
L 248.667813 173.636701 
L 255.370516 175.094456 
L 256.284521 175.211103 
L 260.854545 176.093682 
L 266.338575 176.654416 
L 267.25258 176.808916 
L 269.994595 176.966949 
L 271.517936 177.365741 
L 275.173956 177.766735 
L 275.783292 177.825927 
L 277.001966 178.007196 
L 277.915971 178.146638 
L 279.134644 178.210256 
L 280.657985 178.320094 
L 281.876658 178.386938 
L 283.095332 178.543709 
L 284.009337 178.523295 
L 285.532678 178.494123 
L 287.05602 178.399628 
L 287.970025 178.5381 
L 289.188698 178.46362 
L 294.368059 178.977635 
L 296.805405 178.975744 
L 297.71941 178.994786 
L 298.938084 179.24034 
L 299.242752 179.132008 
L 299.852088 179.143265 
L 300.766093 179.262733 
L 301.070762 179.144832 
L 301.984767 179.315666 
L 302.898771 179.224521 
L 303.812776 179.308026 
L 304.117445 179.263569 
L 304.422113 179.445982 
L 304.726781 179.473493 
L 305.03145 179.617535 
L 305.336118 179.550259 
L 305.945455 179.616909 
L 309.601474 179.687793 
L 310.515479 179.818276 
L 310.820147 179.799584 
L 311.429484 179.938725 
L 312.343489 179.720497 
L 314.171499 179.837419 
L 314.780835 180.007893 
L 315.999509 180.289548 
L 316.608845 180.642895 
L 317.827518 180.819957 
L 319.046192 181.016103 
L 319.655528 181.041425 
L 320.569533 180.867596 
L 322.702211 180.9146 
L 325.444226 181.600538 
L 326.053563 181.733002 
L 327.272236 182.059025 
L 328.186241 182.179425 
L 328.490909 182.361926 
L 328.795577 182.313987 
L 329.100246 182.39306 
L 329.709582 182.386683 
L 330.318919 182.560245 
L 330.928256 182.340744 
L 331.232924 182.454548 
L 331.84226 182.344033 
L 332.146929 182.269351 
L 333.365602 182.77939 
L 333.974939 183.104679 
L 334.584275 183.163084 
L 334.888943 183.181227 
L 335.49828 183.542488 
L 335.802948 183.534777 
L 337.021622 184.077506 
L 337.630958 184.408402 
L 339.458968 185.009837 
L 340.677641 185.121548 
L 341.896314 185.219861 
L 342.200983 185.356864 
L 342.810319 185.843942 
L 345.857002 186.451719 
L 346.161671 186.728796 
L 346.466339 186.823645 
L 348.294349 188.055326 
L 349.208354 188.268858 
L 349.513022 188.514855 
L 351.6457 189.133867 
L 352.255037 189.599408 
L 352.559705 189.713797 
L 352.864373 190.009124 
L 354.083047 190.318177 
L 354.692383 190.586349 
L 355.30172 190.719624 
L 355.606388 191.02013 
L 356.215725 191.231679 
L 357.12973 191.865253 
L 357.434398 191.9977 
L 358.043735 192.06191 
L 358.348403 192.14107 
L 359.262408 192.986931 
L 360.176413 193.722377 
L 360.481081 193.791316 
L 362.004423 195.163523 
L 362.918428 195.496365 
L 363.527764 195.964374 
L 364.441769 196.464372 
L 365.051106 196.665942 
L 365.965111 197.493696 
L 366.574447 197.629794 
L 367.183784 197.770023 
L 369.011794 197.980588 
L 370.230467 198.353658 
L 370.535135 198.581001 
L 370.839803 198.646017 
L 371.753808 199.201709 
L 372.058477 199.207794 
L 372.363145 199.525677 
L 372.667813 199.632691 
L 372.972482 199.983991 
L 373.581818 200.347283 
L 373.581818 200.347283 
" clip-path="url(#p96f69964c3)" style="fill: none; stroke-dasharray: 5.55,2.4; stroke-dashoffset: 0; stroke: #ff0000; stroke-width: 1.5"/>
   </g>
   <g id="line2d_26">
    <path d="M 69.218182 165.790289 
L 70.132187 165.807171 
L 70.741523 165.709738 
L 71.35086 165.736688 
L 71.655528 165.706843 
L 72.264865 165.818938 
L 72.874201 165.793801 
L 73.788206 165.809671 
L 74.397543 165.82096 
L 75.311548 165.872777 
L 75.920885 165.846931 
L 77.139558 165.951689 
L 77.748894 166.016267 
L 80.490909 166.153261 
L 81.100246 166.169968 
L 81.709582 166.076602 
L 88.412285 166.449211 
L 92.98231 166.293577 
L 95.724324 166.282492 
L 96.638329 166.340853 
L 97.857002 166.395343 
L 98.771007 166.32569 
L 99.685012 166.377856 
L 101.81769 166.351309 
L 102.427027 166.316073 
L 103.6457 166.451469 
L 104.559705 166.422384 
L 106.997052 166.672607 
L 107.911057 166.684186 
L 109.739066 166.700788 
L 124.363145 166.072321 
L 124.972482 166.13936 
L 125.27715 166.062843 
L 125.886486 166.144903 
L 127.10516 166.162 
L 127.714496 166.065236 
L 128.93317 166.13337 
L 130.151843 166.195599 
L 130.456511 166.100303 
L 130.761179 166.135243 
L 131.065848 166.039073 
L 131.675184 166.133345 
L 132.589189 166.076265 
L 132.893857 166.157312 
L 133.503194 166.146951 
L 138.987224 166.286535 
L 141.42457 166.237098 
L 143.25258 166.245443 
L 144.471253 166.167029 
L 150.564619 166.325945 
L 151.173956 166.21258 
L 154.829975 166.171218 
L 155.439312 166.171554 
L 156.962654 166.199967 
L 161.532678 166.092507 
L 165.798034 165.824337 
L 166.712039 165.970624 
L 171.8914 166.065433 
L 173.110074 166.115423 
L 175.242752 166.119325 
L 176.156757 166.251606 
L 177.984767 166.314159 
L 178.594103 166.409231 
L 181.640786 166.479626 
L 189.257494 166.315202 
L 190.171499 166.309114 
L 192.608845 166.323994 
L 193.827518 166.269788 
L 194.741523 166.37914 
L 195.35086 166.198618 
L 197.17887 166.424096 
L 198.092875 166.417498 
L 199.920885 166.637809 
L 201.444226 166.499296 
L 203.272236 166.50062 
L 203.881572 166.409969 
L 206.014251 166.433675 
L 213.32629 166.746814 
L 215.1543 166.725609 
L 216.068305 166.832032 
L 216.98231 166.845109 
L 218.200983 166.737166 
L 220.333661 166.922044 
L 221.552334 166.989698 
L 222.161671 166.975194 
L 225.208354 166.812661 
L 226.122359 166.770975 
L 227.036364 166.727155 
L 232.520393 166.676701 
L 233.739066 166.730506 
L 238.918428 166.3296 
L 239.527764 166.346589 
L 240.137101 166.436738 
L 241.660442 166.418463 
L 242.574447 166.438717 
L 243.488452 166.410906 
L 244.097789 166.399797 
L 244.707125 166.372384 
L 245.316462 166.394913 
L 245.925799 166.328335 
L 248.363145 166.587968 
L 249.581818 166.646033 
L 250.495823 166.713985 
L 251.714496 166.728748 
L 252.628501 166.788063 
L 255.065848 166.855955 
L 256.284521 166.87438 
L 257.503194 166.933918 
L 258.112531 166.859732 
L 259.635872 166.960007 
L 263.59656 166.741806 
L 264.510565 166.719087 
L 265.729238 166.673683 
L 268.775921 166.624455 
L 269.994595 166.624701 
L 270.9086 166.710848 
L 271.822604 166.750742 
L 272.431941 166.657592 
L 273.650614 166.673464 
L 279.439312 166.74273 
L 280.048649 166.756818 
L 280.962654 166.750807 
L 281.57199 166.753106 
L 283.4 166.635338 
L 284.009337 166.614908 
L 285.22801 166.591786 
L 286.446683 166.468822 
L 287.05602 166.39864 
L 287.970025 166.396757 
L 290.102703 166.24128 
L 294.368059 166.341927 
L 295.586732 166.392012 
L 297.110074 166.143458 
L 298.633415 166.226455 
L 299.242752 166.298788 
L 301.680098 166.423158 
L 301.984767 166.504363 
L 303.20344 166.454925 
L 303.812776 166.532608 
L 304.117445 166.456332 
L 305.03145 166.565626 
L 306.250123 166.364386 
L 308.687469 166.438011 
L 310.820147 166.314608 
L 312.343489 166.418593 
L 313.86683 166.452471 
L 314.476167 166.44279 
L 316.304177 166.428159 
L 317.52285 166.343732 
L 318.132187 166.403935 
L 322.397543 166.582027 
L 323.616216 166.542146 
L 324.225553 166.613252 
L 325.139558 166.691806 
L 325.748894 166.686199 
L 326.358231 166.778958 
L 327.272236 166.68869 
L 328.795577 166.685422 
L 329.404914 166.642171 
L 330.928256 166.592953 
L 333.67027 166.651341 
L 337.021622 166.648174 
L 339.763636 166.643 
L 342.505651 166.631098 
L 343.724324 166.747448 
L 345.552334 166.723606 
L 347.380344 166.789164 
L 348.599017 166.724227 
L 351.6457 166.492399 
L 352.255037 166.425099 
L 354.997052 166.312922 
L 356.520393 166.249906 
L 357.12973 166.245946 
L 359.262408 165.957579 
L 359.871744 165.967044 
L 360.785749 165.91221 
L 362.613759 165.740194 
L 364.441769 165.590605 
L 365.660442 165.642216 
L 366.269779 165.698701 
L 367.183784 165.736472 
L 368.707125 165.62568 
L 372.667813 165.580085 
L 373.27715 165.714435 
L 373.581818 165.730029 
L 373.581818 165.730029 
" clip-path="url(#p96f69964c3)" style="fill: none; stroke: #ff0000; stroke-width: 1.5; stroke-linecap: square"/>
   </g>
   <g id="line2d_27">
    <path d="M 69.218182 164.405453 
L 71.35086 164.563387 
L 73.788206 164.829736 
L 75.920885 165.080279 
L 78.053563 165.375247 
L 80.490909 165.808955 
L 81.404914 165.89865 
L 86.888943 166.456498 
L 90.240295 166.44102 
L 91.1543 166.442046 
L 100.903686 166.306084 
L 103.950369 166.295871 
L 106.692383 166.161728 
L 108.215725 166.189732 
L 120.097789 166.207185 
L 130.456511 166.266125 
L 131.065848 166.263994 
L 131.979853 166.242466 
L 133.503194 166.249709 
L 135.635872 166.268808 
L 136.854545 166.191519 
L 139.291892 166.150527 
L 139.901229 166.078974 
L 141.119902 166.017248 
L 143.25258 166.080262 
L 144.471253 166.132726 
L 147.822604 166.164394 
L 152.087961 166.210295 
L 153.001966 166.161143 
L 160.618673 166.203326 
L 171.586732 166.138325 
L 172.805405 166.203079 
L 173.71941 166.188958 
L 190.171499 166.152088 
L 191.999509 166.150445 
L 193.827518 166.12574 
L 197.788206 166.091882 
L 200.834889 166.190252 
L 207.232924 166.311712 
L 211.193612 166.239768 
L 212.107617 166.279911 
L 223.989681 166.009128 
L 226.122359 166.084446 
L 227.341032 166.069619 
L 229.169042 166.134938 
L 230.083047 166.117616 
L 232.215725 166.181322 
L 280.962654 166.161143 
L 281.876658 166.150119 
L 283.704668 166.188266 
L 287.665356 166.188291 
L 290.102703 166.155124 
L 290.712039 166.160149 
L 291.930713 166.067242 
L 292.844717 166.119632 
L 294.977396 166.177779 
L 295.8914 166.134581 
L 298.328747 166.170519 
L 300.156757 166.124067 
L 309.601474 166.050878 
L 312.038821 166.031953 
L 315.390172 166.134175 
L 317.827518 166.223592 
L 319.35086 166.21126 
L 326.662899 166.255257 
L 332.146929 166.044827 
L 338.849631 166.158367 
L 339.458968 166.186504 
L 340.677641 166.156021 
L 342.505651 166.162687 
L 343.419656 166.132339 
L 344.942998 166.170583 
L 347.685012 166.150154 
L 352.864373 166.125407 
L 354.692383 166.078566 
L 355.911057 166.092957 
L 357.12973 166.117696 
L 360.785749 166.365112 
L 362.004423 166.424547 
L 366.879115 167.026797 
L 368.097789 167.125219 
L 373.581818 167.628675 
L 373.581818 167.628675 
" clip-path="url(#p96f69964c3)" style="fill: none; stroke: #1f77b4; stroke-width: 1.5; stroke-linecap: square"/>
   </g>
   <g id="legend_1">
    <g id="patch_7">
     <path d="M 298.417188 111.630625 
L 381.8 111.630625 
Q 383.8 111.630625 383.8 109.630625 
L 383.8 37.24 
Q 383.8 35.24 381.8 35.24 
L 298.417188 35.24 
Q 296.417188 35.24 296.417188 37.24 
L 296.417188 109.630625 
Q 296.417188 111.630625 298.417188 111.630625 
z
" style="fill: #ffffff; opacity: 0.8; stroke: #e6e6e6; stroke-linejoin: miter"/>
    </g>
    <g id="line2d_28">
     <path d="M 300.417188 43.338437 
L 310.417188 43.338437 
L 320.417188 43.338437 
" style="fill: none; stroke-dasharray: 1.5,2.475; stroke-dashoffset: 0; stroke: #ff0000; stroke-width: 1.5"/>
    </g>
    <g id="text_14">
     <!-- R/S -->
     <g transform="translate(328.417188 46.838437)scale(0.1 -0.1)">
      <defs>
       <path id="DejaVuSans-52" d="M 2841 2188 
Q 3044 2119 3236 1894 
Q 3428 1669 3622 1275 
L 4263 0 
L 3584 0 
L 2988 1197 
Q 2756 1666 2539 1819 
Q 2322 1972 1947 1972 
L 1259 1972 
L 1259 0 
L 628 0 
L 628 4666 
L 2053 4666 
Q 2853 4666 3247 4331 
Q 3641 3997 3641 3322 
Q 3641 2881 3436 2590 
Q 3231 2300 2841 2188 
z
M 1259 4147 
L 1259 2491 
L 2053 2491 
Q 2509 2491 2742 2702 
Q 2975 2913 2975 3322 
Q 2975 3731 2742 3939 
Q 2509 4147 2053 4147 
L 1259 4147 
z
" transform="scale(0.015625)"/>
       <path id="DejaVuSans-2f" d="M 1625 4666 
L 2156 4666 
L 531 -594 
L 0 -594 
L 1625 4666 
z
" transform="scale(0.015625)"/>
       <path id="DejaVuSans-53" d="M 3425 4513 
L 3425 3897 
Q 3066 4069 2747 4153 
Q 2428 4238 2131 4238 
Q 1616 4238 1336 4038 
Q 1056 3838 1056 3469 
Q 1056 3159 1242 3001 
Q 1428 2844 1947 2747 
L 2328 2669 
Q 3034 2534 3370 2195 
Q 3706 1856 3706 1288 
Q 3706 609 3251 259 
Q 2797 -91 1919 -91 
Q 1588 -91 1214 -16 
Q 841 59 441 206 
L 441 856 
Q 825 641 1194 531 
Q 1563 422 1919 422 
Q 2459 422 2753 634 
Q 3047 847 3047 1241 
Q 3047 1584 2836 1778 
Q 2625 1972 2144 2069 
L 1759 2144 
Q 1053 2284 737 2584 
Q 422 2884 422 3419 
Q 422 4038 858 4394 
Q 1294 4750 2059 4750 
Q 2388 4750 2728 4690 
Q 3069 4631 3425 4513 
z
" transform="scale(0.015625)"/>
      </defs>
      <use xlink:href="#DejaVuSans-52"/>
      <use xlink:href="#DejaVuSans-2f" x="69.482422"/>
      <use xlink:href="#DejaVuSans-53" x="103.173828"/>
     </g>
    </g>
    <g id="line2d_29">
     <path d="M 300.417188 58.016562 
L 310.417188 58.016562 
L 320.417188 58.016562 
" style="fill: none; stroke-dasharray: 9.6,2.4,1.5,2.4; stroke-dashoffset: 0; stroke: #ff0000; stroke-width: 1.5"/>
    </g>
    <g id="text_15">
     <!-- variogram -->
     <g transform="translate(328.417188 61.516562)scale(0.1 -0.1)">
      <defs>
       <path id="DejaVuSans-76" d="M 191 3500 
L 800 3500 
L 1894 563 
L 2988 3500 
L 3597 3500 
L 2284 0 
L 1503 0 
L 191 3500 
z
" transform="scale(0.015625)"/>
       <path id="DejaVuSans-72" d="M 2631 2963 
Q 2534 3019 2420 3045 
Q 2306 3072 2169 3072 
Q 1681 3072 1420 2755 
Q 1159 2438 1159 1844 
L 1159 0 
L 581 0 
L 581 3500 
L 1159 3500 
L 1159 2956 
Q 1341 3275 1631 3429 
Q 1922 3584 2338 3584 
Q 2397 3584 2469 3576 
Q 2541 3569 2628 3553 
L 2631 2963 
z
" transform="scale(0.015625)"/>
       <path id="DejaVuSans-6f" d="M 1959 3097 
Q 1497 3097 1228 2736 
Q 959 2375 959 1747 
Q 959 1119 1226 758 
Q 1494 397 1959 397 
Q 2419 397 2687 759 
Q 2956 1122 2956 1747 
Q 2956 2369 2687 2733 
Q 2419 3097 1959 3097 
z
M 1959 3584 
Q 2709 3584 3137 3096 
Q 3566 2609 3566 1747 
Q 3566 888 3137 398 
Q 2709 -91 1959 -91 
Q 1206 -91 779 398 
Q 353 888 353 1747 
Q 353 2609 779 3096 
Q 1206 3584 1959 3584 
z
" transform="scale(0.015625)"/>
       <path id="DejaVuSans-67" d="M 2906 1791 
Q 2906 2416 2648 2759 
Q 2391 3103 1925 3103 
Q 1463 3103 1205 2759 
Q 947 2416 947 1791 
Q 947 1169 1205 825 
Q 1463 481 1925 481 
Q 2391 481 2648 825 
Q 2906 1169 2906 1791 
z
M 3481 434 
Q 3481 -459 3084 -895 
Q 2688 -1331 1869 -1331 
Q 1566 -1331 1297 -1286 
Q 1028 -1241 775 -1147 
L 775 -588 
Q 1028 -725 1275 -790 
Q 1522 -856 1778 -856 
Q 2344 -856 2625 -561 
Q 2906 -266 2906 331 
L 2906 616 
Q 2728 306 2450 153 
Q 2172 0 1784 0 
Q 1141 0 747 490 
Q 353 981 353 1791 
Q 353 2603 747 3093 
Q 1141 3584 1784 3584 
Q 2172 3584 2450 3431 
Q 2728 3278 2906 2969 
L 2906 3500 
L 3481 3500 
L 3481 434 
z
" transform="scale(0.015625)"/>
       <path id="DejaVuSans-6d" d="M 3328 2828 
Q 3544 3216 3844 3400 
Q 4144 3584 4550 3584 
Q 5097 3584 5394 3201 
Q 5691 2819 5691 2113 
L 5691 0 
L 5113 0 
L 5113 2094 
Q 5113 2597 4934 2840 
Q 4756 3084 4391 3084 
Q 3944 3084 3684 2787 
Q 3425 2491 3425 1978 
L 3425 0 
L 2847 0 
L 2847 2094 
Q 2847 2600 2669 2842 
Q 2491 3084 2119 3084 
Q 1678 3084 1418 2786 
Q 1159 2488 1159 1978 
L 1159 0 
L 581 0 
L 581 3500 
L 1159 3500 
L 1159 2956 
Q 1356 3278 1631 3431 
Q 1906 3584 2284 3584 
Q 2666 3584 2933 3390 
Q 3200 3197 3328 2828 
z
" transform="scale(0.015625)"/>
      </defs>
      <use xlink:href="#DejaVuSans-76"/>
      <use xlink:href="#DejaVuSans-61" x="59.179688"/>
      <use xlink:href="#DejaVuSans-72" x="120.458984"/>
      <use xlink:href="#DejaVuSans-69" x="161.572266"/>
      <use xlink:href="#DejaVuSans-6f" x="189.355469"/>
      <use xlink:href="#DejaVuSans-67" x="250.537109"/>
      <use xlink:href="#DejaVuSans-72" x="314.013672"/>
      <use xlink:href="#DejaVuSans-61" x="355.126953"/>
      <use xlink:href="#DejaVuSans-6d" x="416.40625"/>
     </g>
    </g>
    <g id="line2d_30">
     <path d="M 300.417188 72.694687 
L 310.417188 72.694687 
L 320.417188 72.694687 
" style="fill: none; stroke-dasharray: 5.55,2.4; stroke-dashoffset: 0; stroke: #ff0000; stroke-width: 1.5"/>
    </g>
    <g id="text_16">
     <!-- Higuchi -->
     <g transform="translate(328.417188 76.194687)scale(0.1 -0.1)">
      <defs>
       <path id="DejaVuSans-48" d="M 628 4666 
L 1259 4666 
L 1259 2753 
L 3553 2753 
L 3553 4666 
L 4184 4666 
L 4184 0 
L 3553 0 
L 3553 2222 
L 1259 2222 
L 1259 0 
L 628 0 
L 628 4666 
z
" transform="scale(0.015625)"/>
       <path id="DejaVuSans-75" d="M 544 1381 
L 544 3500 
L 1119 3500 
L 1119 1403 
Q 1119 906 1312 657 
Q 1506 409 1894 409 
Q 2359 409 2629 706 
Q 2900 1003 2900 1516 
L 2900 3500 
L 3475 3500 
L 3475 0 
L 2900 0 
L 2900 538 
Q 2691 219 2414 64 
Q 2138 -91 1772 -91 
Q 1169 -91 856 284 
Q 544 659 544 1381 
z
M 1991 3584 
L 1991 3584 
z
" transform="scale(0.015625)"/>
       <path id="DejaVuSans-63" d="M 3122 3366 
L 3122 2828 
Q 2878 2963 2633 3030 
Q 2388 3097 2138 3097 
Q 1578 3097 1268 2742 
Q 959 2388 959 1747 
Q 959 1106 1268 751 
Q 1578 397 2138 397 
Q 2388 397 2633 464 
Q 2878 531 3122 666 
L 3122 134 
Q 2881 22 2623 -34 
Q 2366 -91 2075 -91 
Q 1284 -91 818 406 
Q 353 903 353 1747 
Q 353 2603 823 3093 
Q 1294 3584 2113 3584 
Q 2378 3584 2631 3529 
Q 2884 3475 3122 3366 
z
" transform="scale(0.015625)"/>
       <path id="DejaVuSans-68" d="M 3513 2113 
L 3513 0 
L 2938 0 
L 2938 2094 
Q 2938 2591 2744 2837 
Q 2550 3084 2163 3084 
Q 1697 3084 1428 2787 
Q 1159 2491 1159 1978 
L 1159 0 
L 581 0 
L 581 4863 
L 1159 4863 
L 1159 2956 
Q 1366 3272 1645 3428 
Q 1925 3584 2291 3584 
Q 2894 3584 3203 3211 
Q 3513 2838 3513 2113 
z
" transform="scale(0.015625)"/>
      </defs>
      <use xlink:href="#DejaVuSans-48"/>
      <use xlink:href="#DejaVuSans-69" x="75.195312"/>
      <use xlink:href="#DejaVuSans-67" x="102.978516"/>
      <use xlink:href="#DejaVuSans-75" x="166.455078"/>
      <use xlink:href="#DejaVuSans-63" x="229.833984"/>
      <use xlink:href="#DejaVuSans-68" x="284.814453"/>
      <use xlink:href="#DejaVuSans-69" x="348.193359"/>
     </g>
    </g>
    <g id="line2d_31">
     <path d="M 300.417188 87.372813 
L 310.417188 87.372813 
L 320.417188 87.372813 
" style="fill: none; stroke: #ff0000; stroke-width: 1.5; stroke-linecap: square"/>
    </g>
    <g id="text_17">
     <!-- Whittle -->
     <g transform="translate(328.417188 90.872813)scale(0.1 -0.1)">
      <defs>
       <path id="DejaVuSans-57" d="M 213 4666 
L 850 4666 
L 1831 722 
L 2809 4666 
L 3519 4666 
L 4500 722 
L 5478 4666 
L 6119 4666 
L 4947 0 
L 4153 0 
L 3169 4050 
L 2175 0 
L 1381 0 
L 213 4666 
z
" transform="scale(0.015625)"/>
       <path id="DejaVuSans-74" d="M 1172 4494 
L 1172 3500 
L 2356 3500 
L 2356 3053 
L 1172 3053 
L 1172 1153 
Q 1172 725 1289 603 
Q 1406 481 1766 481 
L 2356 481 
L 2356 0 
L 1766 0 
Q 1100 0 847 248 
Q 594 497 594 1153 
L 594 3053 
L 172 3053 
L 172 3500 
L 594 3500 
L 594 4494 
L 1172 4494 
z
" transform="scale(0.015625)"/>
       <path id="DejaVuSans-6c" d="M 603 4863 
L 1178 4863 
L 1178 0 
L 603 0 
L 603 4863 
z
" transform="scale(0.015625)"/>
       <path id="DejaVuSans-65" d="M 3597 1894 
L 3597 1613 
L 953 1613 
Q 991 1019 1311 708 
Q 1631 397 2203 397 
Q 2534 397 2845 478 
Q 3156 559 3463 722 
L 3463 178 
Q 3153 47 2828 -22 
Q 2503 -91 2169 -91 
Q 1331 -91 842 396 
Q 353 884 353 1716 
Q 353 2575 817 3079 
Q 1281 3584 2069 3584 
Q 2775 3584 3186 3129 
Q 3597 2675 3597 1894 
z
M 3022 2063 
Q 3016 2534 2758 2815 
Q 2500 3097 2075 3097 
Q 1594 3097 1305 2825 
Q 1016 2553 972 2059 
L 3022 2063 
z
" transform="scale(0.015625)"/>
      </defs>
      <use xlink:href="#DejaVuSans-57"/>
      <use xlink:href="#DejaVuSans-68" x="98.876953"/>
      <use xlink:href="#DejaVuSans-69" x="162.255859"/>
      <use xlink:href="#DejaVuSans-74" x="190.039062"/>
      <use xlink:href="#DejaVuSans-74" x="229.248047"/>
      <use xlink:href="#DejaVuSans-6c" x="268.457031"/>
      <use xlink:href="#DejaVuSans-65" x="296.240234"/>
     </g>
    </g>
    <g id="line2d_32">
     <path d="M 300.417188 102.050938 
L 310.417188 102.050938 
L 320.417188 102.050938 
" style="fill: none; stroke: #1f77b4; stroke-width: 1.5; stroke-linecap: square"/>
    </g>
    <g id="text_18">
     <!-- LSTM -->
     <g transform="translate(328.417188 105.550938)scale(0.1 -0.1)">
      <defs>
       <path id="DejaVuSans-4c" d="M 628 4666 
L 1259 4666 
L 1259 531 
L 3531 531 
L 3531 0 
L 628 0 
L 628 4666 
z
" transform="scale(0.015625)"/>
       <path id="DejaVuSans-54" d="M -19 4666 
L 3928 4666 
L 3928 4134 
L 2272 4134 
L 2272 0 
L 1638 0 
L 1638 4134 
L -19 4134 
L -19 4666 
z
" transform="scale(0.015625)"/>
       <path id="DejaVuSans-4d" d="M 628 4666 
L 1569 4666 
L 2759 1491 
L 3956 4666 
L 4897 4666 
L 4897 0 
L 4281 0 
L 4281 4097 
L 3078 897 
L 2444 897 
L 1241 4097 
L 1241 0 
L 628 0 
L 628 4666 
z
" transform="scale(0.015625)"/>
      </defs>
      <use xlink:href="#DejaVuSans-4c"/>
      <use xlink:href="#DejaVuSans-53" x="55.712891"/>
      <use xlink:href="#DejaVuSans-54" x="119.189453"/>
      <use xlink:href="#DejaVuSans-4d" x="180.273438"/>
     </g>
    </g>
   </g>
  </g>
 </g>
 <defs>
  <clipPath id="p96f69964c3">
   <rect x="54" y="30.24" width="334.8" height="194.04"/>
  </clipPath>
 </defs>
</svg>
