<?xml version="1.0" encoding="utf-8" standalone="no"?>
<!DOCTYPE svg PUBLIC "-//W3C//DTD SVG 1.1//EN"
  "http://www.w3.org/Graphics/SVG/1.1/DTD/svg11.dtd">
<svg xmlns:xlink="http://www.w3.org/1999/xlink" width="648pt" height="342pt" viewBox="0 0 648 342" xmlns="http://www.w3.org/2000/svg" version="1.1">
 <metadata>
  <rdf:RDF xmlns:dc="http://purl.org/dc/elements/1.1/" xmlns:cc="http://creativecommons.org/ns#" xmlns:rdf="http://www.w3.org/1999/02/22-rdf-syntax-ns#">
   <cc:Work>
    <dc:type rdf:resource="http://purl.org/dc/dcmitype/StillImage"/>
    <dc:date>2024-07-05T16:36:19.570784</dc:date>
    <dc:format>image/svg+xml</dc:format>
    <dc:creator>
     <cc:Agent>
      <dc:title>Matplotlib v3.5.1, https://matplotlib.org/</dc:title>
     </cc:Agent>
    </dc:creator>
   </cc:Work>
  </rdf:RDF>
 </metadata>
 <defs>
  <style type="text/css">*{stroke-linejoin: round; stroke-linecap: butt}</style>
 </defs>
 <g id="figure_1">
  <g id="patch_1">
   <path d="M 0 342 
L 648 342 
L 648 0 
L 0 0 
z
" style="fill: #ffffff"/>
  </g>
  <g id="axes_1">
   <g id="patch_2">
    <path d="M 81 304.38 
L 583.2 304.38 
L 583.2 41.04 
L 81 41.04 
L 81 304.38 
z
" style="fill: none; opacity: 0"/>
   </g>
   <g id="matplotlib.axis_1">
    <g id="xtick_1">
     <g id="line2d_1">
      <path d="M 149.481818 304.38 
L 149.481818 41.04 
" clip-path="url(#pa6a4a42810)" style="fill: none; stroke: #e6e6e6; stroke-width: 0.8; stroke-linecap: square"/>
     </g>
     <g id="line2d_2">
      <defs>
       <path id="mf5c73fa526" d="M 0 0 
L 0 3.5 
" style="stroke: #000000; stroke-width: 0.8"/>
      </defs>
      <g>
       <use xlink:href="#mf5c73fa526" x="149.481818" y="304.38" style="stroke: #000000; stroke-width: 0.8"/>
      </g>
     </g>
     <g id="text_1">
      <!-- −0.4 -->
      <g transform="translate(137.340412 318.978437)scale(0.1 -0.1)">
       <defs>
        <path id="DejaVuSans-2212" d="M 678 2272 
L 4684 2272 
L 4684 1741 
L 678 1741 
L 678 2272 
z
" transform="scale(0.015625)"/>
        <path id="DejaVuSans-30" d="M 2034 4250 
Q 1547 4250 1301 3770 
Q 1056 3291 1056 2328 
Q 1056 1369 1301 889 
Q 1547 409 2034 409 
Q 2525 409 2770 889 
Q 3016 1369 3016 2328 
Q 3016 3291 2770 3770 
Q 2525 4250 2034 4250 
z
M 2034 4750 
Q 2819 4750 3233 4129 
Q 3647 3509 3647 2328 
Q 3647 1150 3233 529 
Q 2819 -91 2034 -91 
Q 1250 -91 836 529 
Q 422 1150 422 2328 
Q 422 3509 836 4129 
Q 1250 4750 2034 4750 
z
" transform="scale(0.015625)"/>
        <path id="DejaVuSans-2e" d="M 684 794 
L 1344 794 
L 1344 0 
L 684 0 
L 684 794 
z
" transform="scale(0.015625)"/>
        <path id="DejaVuSans-34" d="M 2419 4116 
L 825 1625 
L 2419 1625 
L 2419 4116 
z
M 2253 4666 
L 3047 4666 
L 3047 1625 
L 3713 1625 
L 3713 1100 
L 3047 1100 
L 3047 0 
L 2419 0 
L 2419 1100 
L 313 1100 
L 313 1709 
L 2253 4666 
z
" transform="scale(0.015625)"/>
       </defs>
       <use xlink:href="#DejaVuSans-2212"/>
       <use xlink:href="#DejaVuSans-30" x="83.789062"/>
       <use xlink:href="#DejaVuSans-2e" x="147.412109"/>
       <use xlink:href="#DejaVuSans-34" x="179.199219"/>
      </g>
     </g>
    </g>
    <g id="xtick_2">
     <g id="line2d_3">
      <path d="M 240.790909 304.38 
L 240.790909 41.04 
" clip-path="url(#pa6a4a42810)" style="fill: none; stroke: #e6e6e6; stroke-width: 0.8; stroke-linecap: square"/>
     </g>
     <g id="line2d_4">
      <g>
       <use xlink:href="#mf5c73fa526" x="240.790909" y="304.38" style="stroke: #000000; stroke-width: 0.8"/>
      </g>
     </g>
     <g id="text_2">
      <!-- −0.2 -->
      <g transform="translate(228.649503 318.978437)scale(0.1 -0.1)">
       <defs>
        <path id="DejaVuSans-32" d="M 1228 531 
L 3431 531 
L 3431 0 
L 469 0 
L 469 531 
Q 828 903 1448 1529 
Q 2069 2156 2228 2338 
Q 2531 2678 2651 2914 
Q 2772 3150 2772 3378 
Q 2772 3750 2511 3984 
Q 2250 4219 1831 4219 
Q 1534 4219 1204 4116 
Q 875 4013 500 3803 
L 500 4441 
Q 881 4594 1212 4672 
Q 1544 4750 1819 4750 
Q 2544 4750 2975 4387 
Q 3406 4025 3406 3419 
Q 3406 3131 3298 2873 
Q 3191 2616 2906 2266 
Q 2828 2175 2409 1742 
Q 1991 1309 1228 531 
z
" transform="scale(0.015625)"/>
       </defs>
       <use xlink:href="#DejaVuSans-2212"/>
       <use xlink:href="#DejaVuSans-30" x="83.789062"/>
       <use xlink:href="#DejaVuSans-2e" x="147.412109"/>
       <use xlink:href="#DejaVuSans-32" x="179.199219"/>
      </g>
     </g>
    </g>
    <g id="xtick_3">
     <g id="line2d_5">
      <path d="M 332.1 304.38 
L 332.1 41.04 
" clip-path="url(#pa6a4a42810)" style="fill: none; stroke: #e6e6e6; stroke-width: 0.8; stroke-linecap: square"/>
     </g>
     <g id="line2d_6">
      <g>
       <use xlink:href="#mf5c73fa526" x="332.1" y="304.38" style="stroke: #000000; stroke-width: 0.8"/>
      </g>
     </g>
     <g id="text_3">
      <!-- 0.0 -->
      <g transform="translate(324.148438 318.978437)scale(0.1 -0.1)">
       <use xlink:href="#DejaVuSans-30"/>
       <use xlink:href="#DejaVuSans-2e" x="63.623047"/>
       <use xlink:href="#DejaVuSans-30" x="95.410156"/>
      </g>
     </g>
    </g>
    <g id="xtick_4">
     <g id="line2d_7">
      <path d="M 423.409091 304.38 
L 423.409091 41.04 
" clip-path="url(#pa6a4a42810)" style="fill: none; stroke: #e6e6e6; stroke-width: 0.8; stroke-linecap: square"/>
     </g>
     <g id="line2d_8">
      <g>
       <use xlink:href="#mf5c73fa526" x="423.409091" y="304.38" style="stroke: #000000; stroke-width: 0.8"/>
      </g>
     </g>
     <g id="text_4">
      <!-- 0.2 -->
      <g transform="translate(415.457528 318.978437)scale(0.1 -0.1)">
       <use xlink:href="#DejaVuSans-30"/>
       <use xlink:href="#DejaVuSans-2e" x="63.623047"/>
       <use xlink:href="#DejaVuSans-32" x="95.410156"/>
      </g>
     </g>
    </g>
    <g id="xtick_5">
     <g id="line2d_9">
      <path d="M 514.718182 304.38 
L 514.718182 41.04 
" clip-path="url(#pa6a4a42810)" style="fill: none; stroke: #e6e6e6; stroke-width: 0.8; stroke-linecap: square"/>
     </g>
     <g id="line2d_10">
      <g>
       <use xlink:href="#mf5c73fa526" x="514.718182" y="304.38" style="stroke: #000000; stroke-width: 0.8"/>
      </g>
     </g>
     <g id="text_5">
      <!-- 0.4 -->
      <g transform="translate(506.766619 318.978437)scale(0.1 -0.1)">
       <use xlink:href="#DejaVuSans-30"/>
       <use xlink:href="#DejaVuSans-2e" x="63.623047"/>
       <use xlink:href="#DejaVuSans-34" x="95.410156"/>
      </g>
     </g>
    </g>
    <g id="text_6">
     <!-- H - 1/2 -->
     <g transform="translate(315.310938 332.656563)scale(0.1 -0.1)">
      <defs>
       <path id="DejaVuSans-48" d="M 628 4666 
L 1259 4666 
L 1259 2753 
L 3553 2753 
L 3553 4666 
L 4184 4666 
L 4184 0 
L 3553 0 
L 3553 2222 
L 1259 2222 
L 1259 0 
L 628 0 
L 628 4666 
z
" transform="scale(0.015625)"/>
       <path id="DejaVuSans-20" transform="scale(0.015625)"/>
       <path id="DejaVuSans-2d" d="M 313 2009 
L 1997 2009 
L 1997 1497 
L 313 1497 
L 313 2009 
z
" transform="scale(0.015625)"/>
       <path id="DejaVuSans-31" d="M 794 531 
L 1825 531 
L 1825 4091 
L 703 3866 
L 703 4441 
L 1819 4666 
L 2450 4666 
L 2450 531 
L 3481 531 
L 3481 0 
L 794 0 
L 794 531 
z
" transform="scale(0.015625)"/>
       <path id="DejaVuSans-2f" d="M 1625 4666 
L 2156 4666 
L 531 -594 
L 0 -594 
L 1625 4666 
z
" transform="scale(0.015625)"/>
      </defs>
      <use xlink:href="#DejaVuSans-48"/>
      <use xlink:href="#DejaVuSans-20" x="75.195312"/>
      <use xlink:href="#DejaVuSans-2d" x="106.982422"/>
      <use xlink:href="#DejaVuSans-20" x="143.066406"/>
      <use xlink:href="#DejaVuSans-31" x="174.853516"/>
      <use xlink:href="#DejaVuSans-2f" x="238.476562"/>
      <use xlink:href="#DejaVuSans-32" x="272.167969"/>
     </g>
    </g>
   </g>
   <g id="matplotlib.axis_2">
    <g id="ytick_1">
     <g id="line2d_11">
      <path d="M 81 276.587977 
L 583.2 276.587977 
" clip-path="url(#pa6a4a42810)" style="fill: none; stroke: #e6e6e6; stroke-width: 0.8; stroke-linecap: square"/>
     </g>
     <g id="line2d_12">
      <defs>
       <path id="m30327d6e69" d="M 0 0 
L -3.5 0 
" style="stroke: #000000; stroke-width: 0.8"/>
      </defs>
      <g>
       <use xlink:href="#m30327d6e69" x="81" y="276.587977" style="stroke: #000000; stroke-width: 0.8"/>
      </g>
     </g>
     <g id="text_7">
      <!-- −0.15 -->
      <g transform="translate(43.354687 280.387196)scale(0.1 -0.1)">
       <defs>
        <path id="DejaVuSans-35" d="M 691 4666 
L 3169 4666 
L 3169 4134 
L 1269 4134 
L 1269 2991 
Q 1406 3038 1543 3061 
Q 1681 3084 1819 3084 
Q 2600 3084 3056 2656 
Q 3513 2228 3513 1497 
Q 3513 744 3044 326 
Q 2575 -91 1722 -91 
Q 1428 -91 1123 -41 
Q 819 9 494 109 
L 494 744 
Q 775 591 1075 516 
Q 1375 441 1709 441 
Q 2250 441 2565 725 
Q 2881 1009 2881 1497 
Q 2881 1984 2565 2268 
Q 2250 2553 1709 2553 
Q 1456 2553 1204 2497 
Q 953 2441 691 2322 
L 691 4666 
z
" transform="scale(0.015625)"/>
       </defs>
       <use xlink:href="#DejaVuSans-2212"/>
       <use xlink:href="#DejaVuSans-30" x="83.789062"/>
       <use xlink:href="#DejaVuSans-2e" x="147.412109"/>
       <use xlink:href="#DejaVuSans-31" x="179.199219"/>
       <use xlink:href="#DejaVuSans-35" x="242.822266"/>
      </g>
     </g>
    </g>
    <g id="ytick_2">
     <g id="line2d_13">
      <path d="M 81 235.179947 
L 583.2 235.179947 
" clip-path="url(#pa6a4a42810)" style="fill: none; stroke: #e6e6e6; stroke-width: 0.8; stroke-linecap: square"/>
     </g>
     <g id="line2d_14">
      <g>
       <use xlink:href="#m30327d6e69" x="81" y="235.179947" style="stroke: #000000; stroke-width: 0.8"/>
      </g>
     </g>
     <g id="text_8">
      <!-- −0.10 -->
      <g transform="translate(43.354687 238.979165)scale(0.1 -0.1)">
       <use xlink:href="#DejaVuSans-2212"/>
       <use xlink:href="#DejaVuSans-30" x="83.789062"/>
       <use xlink:href="#DejaVuSans-2e" x="147.412109"/>
       <use xlink:href="#DejaVuSans-31" x="179.199219"/>
       <use xlink:href="#DejaVuSans-30" x="242.822266"/>
      </g>
     </g>
    </g>
    <g id="ytick_3">
     <g id="line2d_15">
      <path d="M 81 193.771916 
L 583.2 193.771916 
" clip-path="url(#pa6a4a42810)" style="fill: none; stroke: #e6e6e6; stroke-width: 0.8; stroke-linecap: square"/>
     </g>
     <g id="line2d_16">
      <g>
       <use xlink:href="#m30327d6e69" x="81" y="193.771916" style="stroke: #000000; stroke-width: 0.8"/>
      </g>
     </g>
     <g id="text_9">
      <!-- −0.05 -->
      <g transform="translate(43.354687 197.571135)scale(0.1 -0.1)">
       <use xlink:href="#DejaVuSans-2212"/>
       <use xlink:href="#DejaVuSans-30" x="83.789062"/>
       <use xlink:href="#DejaVuSans-2e" x="147.412109"/>
       <use xlink:href="#DejaVuSans-30" x="179.199219"/>
       <use xlink:href="#DejaVuSans-35" x="242.822266"/>
      </g>
     </g>
    </g>
    <g id="ytick_4">
     <g id="line2d_17">
      <path d="M 81 152.363885 
L 583.2 152.363885 
" clip-path="url(#pa6a4a42810)" style="fill: none; stroke: #e6e6e6; stroke-width: 0.8; stroke-linecap: square"/>
     </g>
     <g id="line2d_18">
      <g>
       <use xlink:href="#m30327d6e69" x="81" y="152.363885" style="stroke: #000000; stroke-width: 0.8"/>
      </g>
     </g>
     <g id="text_10">
      <!-- 0.00 -->
      <g transform="translate(51.734375 156.163104)scale(0.1 -0.1)">
       <use xlink:href="#DejaVuSans-30"/>
       <use xlink:href="#DejaVuSans-2e" x="63.623047"/>
       <use xlink:href="#DejaVuSans-30" x="95.410156"/>
       <use xlink:href="#DejaVuSans-30" x="159.033203"/>
      </g>
     </g>
    </g>
    <g id="ytick_5">
     <g id="line2d_19">
      <path d="M 81 110.955855 
L 583.2 110.955855 
" clip-path="url(#pa6a4a42810)" style="fill: none; stroke: #e6e6e6; stroke-width: 0.8; stroke-linecap: square"/>
     </g>
     <g id="line2d_20">
      <g>
       <use xlink:href="#m30327d6e69" x="81" y="110.955855" style="stroke: #000000; stroke-width: 0.8"/>
      </g>
     </g>
     <g id="text_11">
      <!-- 0.05 -->
      <g transform="translate(51.734375 114.755074)scale(0.1 -0.1)">
       <use xlink:href="#DejaVuSans-30"/>
       <use xlink:href="#DejaVuSans-2e" x="63.623047"/>
       <use xlink:href="#DejaVuSans-30" x="95.410156"/>
       <use xlink:href="#DejaVuSans-35" x="159.033203"/>
      </g>
     </g>
    </g>
    <g id="ytick_6">
     <g id="line2d_21">
      <path d="M 81 69.547824 
L 583.2 69.547824 
" clip-path="url(#pa6a4a42810)" style="fill: none; stroke: #e6e6e6; stroke-width: 0.8; stroke-linecap: square"/>
     </g>
     <g id="line2d_22">
      <g>
       <use xlink:href="#m30327d6e69" x="81" y="69.547824" style="stroke: #000000; stroke-width: 0.8"/>
      </g>
     </g>
     <g id="text_12">
      <!-- 0.10 -->
      <g transform="translate(51.734375 73.347043)scale(0.1 -0.1)">
       <use xlink:href="#DejaVuSans-30"/>
       <use xlink:href="#DejaVuSans-2e" x="63.623047"/>
       <use xlink:href="#DejaVuSans-31" x="95.410156"/>
       <use xlink:href="#DejaVuSans-30" x="159.033203"/>
      </g>
     </g>
    </g>
    <g id="text_13">
     <!-- bias -->
     <g transform="translate(37.275 182.942031)rotate(-90)scale(0.1 -0.1)">
      <defs>
       <path id="DejaVuSans-62" d="M 3116 1747 
Q 3116 2381 2855 2742 
Q 2594 3103 2138 3103 
Q 1681 3103 1420 2742 
Q 1159 2381 1159 1747 
Q 1159 1113 1420 752 
Q 1681 391 2138 391 
Q 2594 391 2855 752 
Q 3116 1113 3116 1747 
z
M 1159 2969 
Q 1341 3281 1617 3432 
Q 1894 3584 2278 3584 
Q 2916 3584 3314 3078 
Q 3713 2572 3713 1747 
Q 3713 922 3314 415 
Q 2916 -91 2278 -91 
Q 1894 -91 1617 61 
Q 1341 213 1159 525 
L 1159 0 
L 581 0 
L 581 4863 
L 1159 4863 
L 1159 2969 
z
" transform="scale(0.015625)"/>
       <path id="DejaVuSans-69" d="M 603 3500 
L 1178 3500 
L 1178 0 
L 603 0 
L 603 3500 
z
M 603 4863 
L 1178 4863 
L 1178 4134 
L 603 4134 
L 603 4863 
z
" transform="scale(0.015625)"/>
       <path id="DejaVuSans-61" d="M 2194 1759 
Q 1497 1759 1228 1600 
Q 959 1441 959 1056 
Q 959 750 1161 570 
Q 1363 391 1709 391 
Q 2188 391 2477 730 
Q 2766 1069 2766 1631 
L 2766 1759 
L 2194 1759 
z
M 3341 1997 
L 3341 0 
L 2766 0 
L 2766 531 
Q 2569 213 2275 61 
Q 1981 -91 1556 -91 
Q 1019 -91 701 211 
Q 384 513 384 1019 
Q 384 1609 779 1909 
Q 1175 2209 1959 2209 
L 2766 2209 
L 2766 2266 
Q 2766 2663 2505 2880 
Q 2244 3097 1772 3097 
Q 1472 3097 1187 3025 
Q 903 2953 641 2809 
L 641 3341 
Q 956 3463 1253 3523 
Q 1550 3584 1831 3584 
Q 2591 3584 2966 3190 
Q 3341 2797 3341 1997 
z
" transform="scale(0.015625)"/>
       <path id="DejaVuSans-73" d="M 2834 3397 
L 2834 2853 
Q 2591 2978 2328 3040 
Q 2066 3103 1784 3103 
Q 1356 3103 1142 2972 
Q 928 2841 928 2578 
Q 928 2378 1081 2264 
Q 1234 2150 1697 2047 
L 1894 2003 
Q 2506 1872 2764 1633 
Q 3022 1394 3022 966 
Q 3022 478 2636 193 
Q 2250 -91 1575 -91 
Q 1294 -91 989 -36 
Q 684 19 347 128 
L 347 722 
Q 666 556 975 473 
Q 1284 391 1588 391 
Q 1994 391 2212 530 
Q 2431 669 2431 922 
Q 2431 1156 2273 1281 
Q 2116 1406 1581 1522 
L 1381 1569 
Q 847 1681 609 1914 
Q 372 2147 372 2553 
Q 372 3047 722 3315 
Q 1072 3584 1716 3584 
Q 2034 3584 2315 3537 
Q 2597 3491 2834 3397 
z
" transform="scale(0.015625)"/>
      </defs>
      <use xlink:href="#DejaVuSans-62"/>
      <use xlink:href="#DejaVuSans-69" x="63.476562"/>
      <use xlink:href="#DejaVuSans-61" x="91.259766"/>
      <use xlink:href="#DejaVuSans-73" x="152.539062"/>
     </g>
    </g>
   </g>
   <g id="patch_3">
    <path d="M 81 304.38 
L 81 41.04 
" style="fill: none; stroke: #000000; stroke-width: 0.8; stroke-linejoin: miter; stroke-linecap: square"/>
   </g>
   <g id="patch_4">
    <path d="M 583.2 304.38 
L 583.2 41.04 
" style="fill: none; stroke: #e6e6e6; stroke-width: 0.8; stroke-linejoin: miter; stroke-linecap: square"/>
   </g>
   <g id="patch_5">
    <path d="M 81 304.38 
L 583.2 304.38 
" style="fill: none; stroke: #000000; stroke-width: 0.8; stroke-linejoin: miter; stroke-linecap: square"/>
   </g>
   <g id="patch_6">
    <path d="M 81 41.04 
L 583.2 41.04 
" style="fill: none; stroke: #e6e6e6; stroke-width: 0.8; stroke-linejoin: miter; stroke-linecap: square"/>
   </g>
   <g id="text_14">
    <!-- Biases (steps: 250, interval:+-0.02) -->
    <g transform="translate(225.360938 35.04)scale(0.12 -0.12)">
     <defs>
      <path id="DejaVuSans-42" d="M 1259 2228 
L 1259 519 
L 2272 519 
Q 2781 519 3026 730 
Q 3272 941 3272 1375 
Q 3272 1813 3026 2020 
Q 2781 2228 2272 2228 
L 1259 2228 
z
M 1259 4147 
L 1259 2741 
L 2194 2741 
Q 2656 2741 2882 2914 
Q 3109 3088 3109 3444 
Q 3109 3797 2882 3972 
Q 2656 4147 2194 4147 
L 1259 4147 
z
M 628 4666 
L 2241 4666 
Q 2963 4666 3353 4366 
Q 3744 4066 3744 3513 
Q 3744 3084 3544 2831 
Q 3344 2578 2956 2516 
Q 3422 2416 3680 2098 
Q 3938 1781 3938 1306 
Q 3938 681 3513 340 
Q 3088 0 2303 0 
L 628 0 
L 628 4666 
z
" transform="scale(0.015625)"/>
      <path id="DejaVuSans-65" d="M 3597 1894 
L 3597 1613 
L 953 1613 
Q 991 1019 1311 708 
Q 1631 397 2203 397 
Q 2534 397 2845 478 
Q 3156 559 3463 722 
L 3463 178 
Q 3153 47 2828 -22 
Q 2503 -91 2169 -91 
Q 1331 -91 842 396 
Q 353 884 353 1716 
Q 353 2575 817 3079 
Q 1281 3584 2069 3584 
Q 2775 3584 3186 3129 
Q 3597 2675 3597 1894 
z
M 3022 2063 
Q 3016 2534 2758 2815 
Q 2500 3097 2075 3097 
Q 1594 3097 1305 2825 
Q 1016 2553 972 2059 
L 3022 2063 
z
" transform="scale(0.015625)"/>
      <path id="DejaVuSans-28" d="M 1984 4856 
Q 1566 4138 1362 3434 
Q 1159 2731 1159 2009 
Q 1159 1288 1364 580 
Q 1569 -128 1984 -844 
L 1484 -844 
Q 1016 -109 783 600 
Q 550 1309 550 2009 
Q 550 2706 781 3412 
Q 1013 4119 1484 4856 
L 1984 4856 
z
" transform="scale(0.015625)"/>
      <path id="DejaVuSans-74" d="M 1172 4494 
L 1172 3500 
L 2356 3500 
L 2356 3053 
L 1172 3053 
L 1172 1153 
Q 1172 725 1289 603 
Q 1406 481 1766 481 
L 2356 481 
L 2356 0 
L 1766 0 
Q 1100 0 847 248 
Q 594 497 594 1153 
L 594 3053 
L 172 3053 
L 172 3500 
L 594 3500 
L 594 4494 
L 1172 4494 
z
" transform="scale(0.015625)"/>
      <path id="DejaVuSans-70" d="M 1159 525 
L 1159 -1331 
L 581 -1331 
L 581 3500 
L 1159 3500 
L 1159 2969 
Q 1341 3281 1617 3432 
Q 1894 3584 2278 3584 
Q 2916 3584 3314 3078 
Q 3713 2572 3713 1747 
Q 3713 922 3314 415 
Q 2916 -91 2278 -91 
Q 1894 -91 1617 61 
Q 1341 213 1159 525 
z
M 3116 1747 
Q 3116 2381 2855 2742 
Q 2594 3103 2138 3103 
Q 1681 3103 1420 2742 
Q 1159 2381 1159 1747 
Q 1159 1113 1420 752 
Q 1681 391 2138 391 
Q 2594 391 2855 752 
Q 3116 1113 3116 1747 
z
" transform="scale(0.015625)"/>
      <path id="DejaVuSans-3a" d="M 750 794 
L 1409 794 
L 1409 0 
L 750 0 
L 750 794 
z
M 750 3309 
L 1409 3309 
L 1409 2516 
L 750 2516 
L 750 3309 
z
" transform="scale(0.015625)"/>
      <path id="DejaVuSans-2c" d="M 750 794 
L 1409 794 
L 1409 256 
L 897 -744 
L 494 -744 
L 750 256 
L 750 794 
z
" transform="scale(0.015625)"/>
      <path id="DejaVuSans-6e" d="M 3513 2113 
L 3513 0 
L 2938 0 
L 2938 2094 
Q 2938 2591 2744 2837 
Q 2550 3084 2163 3084 
Q 1697 3084 1428 2787 
Q 1159 2491 1159 1978 
L 1159 0 
L 581 0 
L 581 3500 
L 1159 3500 
L 1159 2956 
Q 1366 3272 1645 3428 
Q 1925 3584 2291 3584 
Q 2894 3584 3203 3211 
Q 3513 2838 3513 2113 
z
" transform="scale(0.015625)"/>
      <path id="DejaVuSans-72" d="M 2631 2963 
Q 2534 3019 2420 3045 
Q 2306 3072 2169 3072 
Q 1681 3072 1420 2755 
Q 1159 2438 1159 1844 
L 1159 0 
L 581 0 
L 581 3500 
L 1159 3500 
L 1159 2956 
Q 1341 3275 1631 3429 
Q 1922 3584 2338 3584 
Q 2397 3584 2469 3576 
Q 2541 3569 2628 3553 
L 2631 2963 
z
" transform="scale(0.015625)"/>
      <path id="DejaVuSans-76" d="M 191 3500 
L 800 3500 
L 1894 563 
L 2988 3500 
L 3597 3500 
L 2284 0 
L 1503 0 
L 191 3500 
z
" transform="scale(0.015625)"/>
      <path id="DejaVuSans-6c" d="M 603 4863 
L 1178 4863 
L 1178 0 
L 603 0 
L 603 4863 
z
" transform="scale(0.015625)"/>
      <path id="DejaVuSans-2b" d="M 2944 4013 
L 2944 2272 
L 4684 2272 
L 4684 1741 
L 2944 1741 
L 2944 0 
L 2419 0 
L 2419 1741 
L 678 1741 
L 678 2272 
L 2419 2272 
L 2419 4013 
L 2944 4013 
z
" transform="scale(0.015625)"/>
      <path id="DejaVuSans-29" d="M 513 4856 
L 1013 4856 
Q 1481 4119 1714 3412 
Q 1947 2706 1947 2009 
Q 1947 1309 1714 600 
Q 1481 -109 1013 -844 
L 513 -844 
Q 928 -128 1133 580 
Q 1338 1288 1338 2009 
Q 1338 2731 1133 3434 
Q 928 4138 513 4856 
z
" transform="scale(0.015625)"/>
     </defs>
     <use xlink:href="#DejaVuSans-42"/>
     <use xlink:href="#DejaVuSans-69" x="68.603516"/>
     <use xlink:href="#DejaVuSans-61" x="96.386719"/>
     <use xlink:href="#DejaVuSans-73" x="157.666016"/>
     <use xlink:href="#DejaVuSans-65" x="209.765625"/>
     <use xlink:href="#DejaVuSans-73" x="271.289062"/>
     <use xlink:href="#DejaVuSans-20" x="323.388672"/>
     <use xlink:href="#DejaVuSans-28" x="355.175781"/>
     <use xlink:href="#DejaVuSans-73" x="394.189453"/>
     <use xlink:href="#DejaVuSans-74" x="446.289062"/>
     <use xlink:href="#DejaVuSans-65" x="485.498047"/>
     <use xlink:href="#DejaVuSans-70" x="547.021484"/>
     <use xlink:href="#DejaVuSans-73" x="610.498047"/>
     <use xlink:href="#DejaVuSans-3a" x="662.597656"/>
     <use xlink:href="#DejaVuSans-20" x="696.289062"/>
     <use xlink:href="#DejaVuSans-32" x="728.076172"/>
     <use xlink:href="#DejaVuSans-35" x="791.699219"/>
     <use xlink:href="#DejaVuSans-30" x="855.322266"/>
     <use xlink:href="#DejaVuSans-2c" x="918.945312"/>
     <use xlink:href="#DejaVuSans-20" x="950.732422"/>
     <use xlink:href="#DejaVuSans-69" x="982.519531"/>
     <use xlink:href="#DejaVuSans-6e" x="1010.302734"/>
     <use xlink:href="#DejaVuSans-74" x="1073.681641"/>
     <use xlink:href="#DejaVuSans-65" x="1112.890625"/>
     <use xlink:href="#DejaVuSans-72" x="1174.414062"/>
     <use xlink:href="#DejaVuSans-76" x="1215.527344"/>
     <use xlink:href="#DejaVuSans-61" x="1274.707031"/>
     <use xlink:href="#DejaVuSans-6c" x="1335.986328"/>
     <use xlink:href="#DejaVuSans-3a" x="1363.769531"/>
     <use xlink:href="#DejaVuSans-2b" x="1397.460938"/>
     <use xlink:href="#DejaVuSans-2d" x="1481.25"/>
     <use xlink:href="#DejaVuSans-30" x="1517.333984"/>
     <use xlink:href="#DejaVuSans-2e" x="1580.957031"/>
     <use xlink:href="#DejaVuSans-30" x="1612.744141"/>
     <use xlink:href="#DejaVuSans-32" x="1676.367188"/>
     <use xlink:href="#DejaVuSans-29" x="1739.990234"/>
    </g>
   </g>
   <g id="line2d_23">
    <path d="M 103.827273 53.126173 
L 107.494304 53.01 
L 109.32782 53.287962 
L 114.828368 54.631758 
L 116.661884 54.760602 
L 120.328916 55.590512 
L 125.829463 57.646054 
L 127.662979 57.813492 
L 131.330011 58.707634 
L 133.163527 59.152811 
L 134.997043 60.225031 
L 138.664074 61.723614 
L 142.331106 62.768386 
L 144.164622 63.806856 
L 145.998138 64.303225 
L 149.66517 65.691526 
L 151.498686 66.736987 
L 153.332202 67.158225 
L 155.165717 67.735095 
L 156.999233 68.177636 
L 158.832749 68.941799 
L 160.666265 69.99514 
L 162.499781 70.419864 
L 164.333297 71.545502 
L 166.166813 72.095096 
L 168.000329 72.981604 
L 171.66736 74.292069 
L 173.500876 75.073547 
L 175.334392 75.556473 
L 179.001424 77.202647 
L 180.83494 77.77675 
L 184.501972 79.561346 
L 188.169003 80.297727 
L 193.669551 82.174182 
L 195.503067 82.538297 
L 197.336583 83.222799 
L 199.170099 83.769291 
L 201.003614 84.682933 
L 202.83713 85.256749 
L 204.670646 85.987595 
L 206.504162 87.31579 
L 208.337678 88.138928 
L 210.171194 88.652143 
L 213.838226 90.037489 
L 215.671742 90.314142 
L 217.505257 91.084772 
L 219.338773 91.215177 
L 223.005805 92.285619 
L 224.839321 93.038051 
L 226.672837 94.050522 
L 228.506353 95.20745 
L 230.339869 95.412714 
L 234.0069 96.146854 
L 235.840416 96.688581 
L 237.673932 97.661278 
L 239.507448 98.139085 
L 241.340964 98.436562 
L 243.17448 98.282088 
L 245.007996 98.684059 
L 246.841512 98.559317 
L 250.508543 100.557203 
L 252.342059 101.73985 
L 254.175575 102.274771 
L 256.009091 103.456041 
L 257.842607 103.746185 
L 259.676123 104.962846 
L 263.343154 106.291541 
L 265.17667 106.94006 
L 267.010186 107.257344 
L 268.843702 108.009032 
L 270.677218 108.379811 
L 272.510734 108.980629 
L 274.34425 108.980804 
L 276.177766 109.953699 
L 278.011281 110.270182 
L 281.678313 111.597795 
L 285.345345 112.515217 
L 287.178861 112.372686 
L 290.845893 113.904972 
L 292.679409 114.327823 
L 294.512924 114.597058 
L 296.34644 114.314126 
L 298.179956 113.851597 
L 300.013472 114.389906 
L 301.846988 115.245178 
L 303.680504 116.32234 
L 305.51402 116.818137 
L 309.181051 116.7718 
L 312.848083 117.940523 
L 314.681599 119.567887 
L 316.515115 120.940165 
L 318.348631 120.981304 
L 320.182147 121.369122 
L 322.015663 121.389258 
L 323.849179 123.139549 
L 325.682694 123.802585 
L 327.51621 124.711102 
L 331.183242 125.604088 
L 333.016758 125.137179 
L 334.850274 125.515216 
L 336.68379 126.589063 
L 338.517306 126.697413 
L 340.350821 126.967413 
L 342.184337 126.331937 
L 344.017853 127.55265 
L 345.851369 127.539638 
L 347.684885 127.686163 
L 349.518401 127.601059 
L 351.351917 129.137431 
L 358.68598 132.094796 
L 360.519496 132.760495 
L 362.353012 132.631126 
L 364.186528 133.105895 
L 366.020044 133.857986 
L 367.85356 134.833528 
L 371.520591 135.349767 
L 373.354107 134.875995 
L 375.187623 135.910916 
L 377.021139 135.988682 
L 378.854655 136.24044 
L 382.521687 137.922027 
L 386.188719 138.668143 
L 388.022234 138.523612 
L 389.85575 138.627235 
L 391.689266 139.745953 
L 395.356298 140.669214 
L 397.189814 141.453499 
L 399.02333 140.919113 
L 400.856846 141.959676 
L 404.523877 143.209449 
L 408.190909 144.098458 
L 411.857941 144.355125 
L 413.691457 145.310209 
L 415.524973 145.267147 
L 417.358488 146.884007 
L 419.192004 146.595834 
L 422.859036 146.826912 
L 424.692552 147.209788 
L 428.359584 149.181538 
L 430.1931 150.060373 
L 439.360679 153.761305 
L 441.194195 153.940593 
L 443.027711 155.297498 
L 444.861227 156.435938 
L 446.694743 156.18219 
L 448.528258 155.769233 
L 450.361774 156.801877 
L 452.19529 157.399454 
L 454.028806 157.138855 
L 455.862322 157.191627 
L 457.695838 158.054984 
L 459.529354 159.175742 
L 461.36287 159.877989 
L 463.196386 160.337116 
L 465.029901 162.074788 
L 466.863417 162.91815 
L 468.696933 163.097992 
L 470.530449 163.932586 
L 474.197481 166.067678 
L 476.030997 166.594167 
L 477.864513 166.729331 
L 479.698028 167.231329 
L 481.531544 168.693195 
L 483.36506 168.49071 
L 485.198576 169.485847 
L 487.032092 170.067785 
L 492.53264 173.440018 
L 494.366156 173.64774 
L 498.033187 176.509311 
L 499.866703 176.380219 
L 501.700219 178.248213 
L 505.367251 181.438058 
L 507.200767 181.909244 
L 509.034283 182.994533 
L 510.867798 183.742071 
L 512.701314 185.732537 
L 514.53483 187.019996 
L 516.368346 188.775846 
L 518.201862 190.793293 
L 520.035378 191.347251 
L 521.868894 192.537695 
L 523.70241 193.895092 
L 525.535926 194.580192 
L 527.369441 196.840516 
L 529.202957 198.173403 
L 531.036473 199.080988 
L 532.869989 200.438215 
L 534.703505 202.201884 
L 538.370537 205.131113 
L 542.037568 209.471763 
L 543.871084 211.056688 
L 545.7046 212.35337 
L 547.538116 213.976798 
L 549.371632 216.163644 
L 551.205148 218.572645 
L 553.038664 218.964973 
L 554.87218 219.508126 
L 556.705696 220.892184 
L 558.539211 221.216848 
L 560.372727 220.990436 
L 560.372727 220.990436 
" clip-path="url(#pa6a4a42810)" style="fill: none; stroke-dasharray: 1.5,2.475; stroke-dashoffset: 0; stroke: #808080; stroke-width: 1.5"/>
   </g>
   <g id="line2d_24">
    <path d="M 103.827273 151.976333 
L 105.660789 151.490428 
L 107.494304 151.969904 
L 109.32782 152.188269 
L 111.161336 152.148024 
L 114.828368 152.341556 
L 116.661884 152.07317 
L 118.4954 151.938562 
L 123.995947 152.766486 
L 125.829463 152.517934 
L 133.163527 152.076548 
L 136.830559 152.698669 
L 140.49759 151.972505 
L 145.998138 151.632288 
L 147.831654 151.911483 
L 149.66517 152.024824 
L 151.498686 151.784825 
L 155.165717 151.741089 
L 158.832749 152.075598 
L 162.499781 152.00281 
L 164.333297 152.271066 
L 168.000329 151.836362 
L 169.833844 152.0951 
L 171.66736 151.948854 
L 179.001424 151.925485 
L 180.83494 152.020393 
L 182.668456 151.945006 
L 184.501972 152.043166 
L 186.335487 151.915996 
L 188.169003 151.969019 
L 190.002519 151.691698 
L 191.836035 151.531948 
L 195.503067 151.831297 
L 199.170099 151.918624 
L 201.003614 151.927008 
L 202.83713 151.771184 
L 204.670646 152.04928 
L 206.504162 152.037697 
L 210.171194 152.444536 
L 212.00471 152.28217 
L 215.671742 152.278473 
L 219.338773 151.947064 
L 221.172289 152.249717 
L 224.839321 152.519526 
L 226.672837 152.220655 
L 230.339869 152.251347 
L 232.173384 152.449696 
L 234.0069 152.177878 
L 235.840416 152.537485 
L 237.673932 152.46185 
L 241.340964 151.99631 
L 243.17448 151.853686 
L 245.007996 151.917152 
L 246.841512 151.323938 
L 248.675027 151.276668 
L 250.508543 150.831462 
L 252.342059 151.207352 
L 254.175575 150.978901 
L 256.009091 150.949438 
L 257.842607 151.130878 
L 259.676123 150.962245 
L 261.509639 151.017714 
L 263.343154 150.88807 
L 265.17667 151.430387 
L 267.010186 151.228586 
L 268.843702 151.258481 
L 270.677218 150.827693 
L 272.510734 151.092559 
L 276.177766 150.850421 
L 281.678313 150.964255 
L 283.511829 150.701935 
L 285.345345 150.813869 
L 289.012377 150.804062 
L 290.845893 150.57266 
L 294.512924 150.583251 
L 303.680504 149.472872 
L 305.51402 149.157361 
L 307.347536 149.024782 
L 309.181051 148.573598 
L 312.848083 147.970475 
L 318.348631 147.722126 
L 323.849179 148.0237 
L 325.682694 148.340298 
L 329.349726 148.495977 
L 331.183242 148.535465 
L 333.016758 148.390133 
L 334.850274 148.717836 
L 338.517306 148.345909 
L 349.518401 146.999889 
L 351.351917 147.162385 
L 353.185433 146.48886 
L 355.018949 146.19978 
L 356.852464 146.056046 
L 358.68598 145.738265 
L 367.85356 144.948435 
L 369.687076 144.366201 
L 375.187623 144.114841 
L 377.021139 144.282583 
L 378.854655 144.26571 
L 386.188719 143.166925 
L 388.022234 143.366687 
L 389.85575 143.425253 
L 393.522782 142.674032 
L 397.189814 141.758819 
L 399.02333 141.483711 
L 400.856846 141.443532 
L 404.523877 140.543159 
L 406.357393 139.842952 
L 408.190909 139.767943 
L 410.024425 139.537154 
L 413.691457 139.307054 
L 415.524973 138.962952 
L 419.192004 138.647836 
L 421.02552 138.744096 
L 422.859036 138.553092 
L 424.692552 138.553596 
L 426.526068 137.926642 
L 428.359584 137.705804 
L 432.026616 136.819513 
L 433.860131 136.630753 
L 437.527163 135.997278 
L 439.360679 135.914771 
L 441.194195 135.573952 
L 444.861227 134.458538 
L 448.528258 133.653407 
L 454.028806 133.580622 
L 455.862322 132.890374 
L 457.695838 132.470732 
L 459.529354 132.309369 
L 461.36287 132.738127 
L 465.029901 132.693223 
L 466.863417 132.485448 
L 468.696933 131.698782 
L 470.530449 131.523443 
L 472.363965 130.734557 
L 477.864513 130.58692 
L 479.698028 130.124503 
L 481.531544 130.157053 
L 485.198576 129.802507 
L 487.032092 130.552467 
L 488.865608 130.88581 
L 490.699124 131.499393 
L 492.53264 132.376333 
L 494.366156 132.057923 
L 496.199671 132.390613 
L 498.033187 132.060301 
L 499.866703 132.11353 
L 503.533735 132.891683 
L 505.367251 133.194409 
L 509.034283 133.15016 
L 510.867798 133.122425 
L 512.701314 134.336548 
L 514.53483 134.706294 
L 516.368346 136.337924 
L 518.201862 137.340241 
L 521.868894 138.928929 
L 523.70241 139.280542 
L 525.535926 139.82741 
L 529.202957 141.678346 
L 531.036473 142.102422 
L 532.869989 143.079666 
L 536.537021 144.840771 
L 538.370537 145.233941 
L 540.204053 145.8945 
L 542.037568 146.889688 
L 543.871084 147.750718 
L 549.371632 151.24547 
L 551.205148 151.830795 
L 554.87218 152.270087 
L 556.705696 153.411967 
L 560.372727 155.163467 
L 560.372727 155.163467 
" clip-path="url(#pa6a4a42810)" style="fill: none; stroke-dasharray: 9.6,2.4,1.5,2.4; stroke-dashoffset: 0; stroke: #808080; stroke-width: 1.5"/>
   </g>
   <g id="line2d_25">
    <path d="M 103.827273 152.719083 
L 111.161336 152.665232 
L 114.828368 152.723469 
L 123.995947 152.564905 
L 131.330011 152.549334 
L 133.163527 152.437322 
L 138.664074 152.560836 
L 145.998138 152.350992 
L 175.334392 152.597858 
L 177.167908 152.484903 
L 179.001424 152.555343 
L 180.83494 152.502776 
L 184.501972 152.599085 
L 186.335487 152.570355 
L 188.169003 152.714041 
L 193.669551 152.686868 
L 195.503067 152.935266 
L 197.336583 152.966616 
L 199.170099 153.202565 
L 202.83713 153.036485 
L 204.670646 153.143497 
L 206.504162 153.032707 
L 212.00471 153.06005 
L 213.838226 152.907515 
L 215.671742 153.109855 
L 219.338773 152.969238 
L 221.172289 153.089201 
L 224.839321 153.017612 
L 226.672837 152.994314 
L 230.339869 152.754357 
L 232.173384 152.768098 
L 235.840416 152.452965 
L 237.673932 152.462929 
L 241.340964 152.1912 
L 245.007996 152.247099 
L 246.841512 152.373923 
L 250.508543 152.298086 
L 252.342059 152.425954 
L 256.009091 152.405606 
L 257.842607 152.691797 
L 259.676123 152.853874 
L 263.343154 152.399222 
L 265.17667 152.366235 
L 267.010186 152.493843 
L 270.677218 152.344582 
L 274.34425 152.460971 
L 278.011281 152.275544 
L 279.844797 152.717557 
L 281.678313 152.868476 
L 285.345345 152.833028 
L 287.178861 152.962012 
L 290.845893 152.876298 
L 292.679409 152.717123 
L 296.34644 152.889904 
L 298.179956 152.671206 
L 300.013472 152.644159 
L 303.680504 152.887356 
L 305.51402 152.710097 
L 307.347536 152.756486 
L 314.681599 152.096365 
L 320.182147 152.141916 
L 322.015663 151.833252 
L 327.51621 152.218595 
L 329.349726 152.519429 
L 336.68379 152.841365 
L 340.350821 152.813183 
L 342.184337 152.898177 
L 349.518401 152.627657 
L 351.351917 152.76318 
L 353.185433 152.764639 
L 356.852464 152.52648 
L 358.68598 152.440006 
L 360.519496 152.605476 
L 362.353012 152.599637 
L 364.186528 152.844111 
L 366.020044 152.684661 
L 373.354107 152.496394 
L 375.187623 152.810286 
L 377.021139 152.931136 
L 378.854655 152.794017 
L 380.688171 152.99421 
L 382.521687 152.841064 
L 386.188719 153.125758 
L 388.022234 152.985473 
L 391.689266 153.232708 
L 397.189814 153.296178 
L 399.02333 153.070098 
L 400.856846 153.321901 
L 404.523877 153.294307 
L 406.357393 153.559545 
L 408.190909 153.279836 
L 410.024425 153.37545 
L 411.857941 153.183548 
L 413.691457 153.254533 
L 415.524973 153.206357 
L 417.358488 153.417314 
L 421.02552 153.168411 
L 422.859036 153.150042 
L 424.692552 152.887116 
L 426.526068 153.094783 
L 430.1931 153.151372 
L 432.026616 152.980478 
L 435.693647 153.063104 
L 439.360679 153.271148 
L 441.194195 153.010052 
L 443.027711 153.116272 
L 446.694743 152.794964 
L 448.528258 152.649855 
L 450.361774 153.000076 
L 454.028806 152.954545 
L 455.862322 152.655705 
L 457.695838 152.639113 
L 459.529354 152.746974 
L 461.36287 153.004302 
L 463.196386 153.000799 
L 465.029901 153.275293 
L 466.863417 153.290191 
L 468.696933 152.790396 
L 470.530449 152.923584 
L 472.363965 152.648268 
L 474.197481 152.757107 
L 477.864513 152.702083 
L 479.698028 152.53714 
L 481.531544 152.813052 
L 483.36506 152.581187 
L 485.198576 152.644459 
L 487.032092 153.154668 
L 488.865608 153.234367 
L 492.53264 154.349655 
L 494.366156 154.025072 
L 496.199671 154.345329 
L 498.033187 154.278396 
L 499.866703 154.042388 
L 505.367251 154.947532 
L 507.200767 155.044811 
L 509.034283 154.884753 
L 510.867798 154.95479 
L 512.701314 156.23584 
L 514.53483 156.312785 
L 516.368346 157.54987 
L 518.201862 158.137676 
L 520.035378 158.587069 
L 523.70241 158.781479 
L 525.535926 158.999048 
L 529.202957 159.617456 
L 531.036473 159.36399 
L 532.869989 159.692442 
L 534.703505 159.817855 
L 536.537021 160.2036 
L 538.370537 159.656622 
L 543.871084 159.852082 
L 547.538116 160.768505 
L 549.371632 160.79073 
L 553.038664 159.968762 
L 554.87218 159.911691 
L 558.539211 161.234869 
L 560.372727 161.81508 
L 560.372727 161.81508 
" clip-path="url(#pa6a4a42810)" style="fill: none; stroke-dasharray: 5.55,2.4; stroke-dashoffset: 0; stroke: #808080; stroke-width: 1.5"/>
   </g>
   <g id="line2d_26">
    <path d="M 103.827273 160.876504 
L 105.660789 162.332689 
L 107.494304 164.089949 
L 109.32782 165.134547 
L 111.161336 167.366429 
L 112.994852 169.251772 
L 120.328916 181.166023 
L 122.162432 183.574312 
L 123.995947 185.047922 
L 125.829463 186.284743 
L 129.496495 186.981385 
L 131.330011 186.723405 
L 133.163527 185.660091 
L 136.830559 183.041669 
L 138.664074 181.58569 
L 140.49759 179.691086 
L 144.164622 176.463425 
L 147.831654 173.835926 
L 153.332202 170.504359 
L 155.165717 169.41716 
L 156.999233 168.752779 
L 162.499781 166.301177 
L 166.166813 164.959608 
L 168.000329 164.184664 
L 171.66736 163.118862 
L 173.500876 162.484429 
L 175.334392 162.075217 
L 177.167908 161.476782 
L 184.501972 159.711413 
L 191.836035 158.236058 
L 193.669551 157.992327 
L 195.503067 157.96718 
L 197.336583 157.72182 
L 199.170099 157.599521 
L 201.003614 157.192397 
L 204.670646 156.789876 
L 208.337678 156.437636 
L 210.171194 156.331545 
L 213.838226 155.801629 
L 215.671742 155.749821 
L 219.338773 155.112203 
L 224.839321 154.866156 
L 228.506353 154.413923 
L 235.840416 153.955717 
L 237.673932 153.972751 
L 243.17448 153.522297 
L 245.007996 153.495969 
L 246.841512 153.27082 
L 250.508543 153.005579 
L 252.342059 153.232624 
L 256.009091 153.017561 
L 257.842607 153.223867 
L 259.676123 153.29904 
L 263.343154 152.92694 
L 265.17667 153.125587 
L 268.843702 153.107362 
L 270.677218 152.918008 
L 272.510734 153.027698 
L 276.177766 152.871521 
L 278.011281 152.754907 
L 281.678313 153.179629 
L 283.511829 153.079058 
L 290.845893 153.114486 
L 292.679409 152.971946 
L 294.512924 153.084822 
L 298.179956 152.934843 
L 307.347536 152.640997 
L 309.181051 152.405039 
L 311.014567 152.383719 
L 312.848083 152.177554 
L 318.348631 152.01644 
L 320.182147 152.077133 
L 322.015663 151.995756 
L 329.349726 152.570803 
L 338.517306 152.867854 
L 349.518401 152.426562 
L 351.351917 152.589846 
L 355.018949 152.24541 
L 360.519496 152.237427 
L 362.353012 152.249789 
L 364.186528 152.412385 
L 366.020044 152.315555 
L 367.85356 152.41136 
L 369.687076 152.310427 
L 386.188719 152.528277 
L 388.022234 152.401252 
L 391.689266 152.582735 
L 397.189814 152.659254 
L 399.02333 152.513544 
L 402.690361 152.713196 
L 404.523877 152.613174 
L 406.357393 152.935441 
L 408.190909 152.805874 
L 422.859036 152.727756 
L 424.692552 152.514423 
L 437.527163 152.605934 
L 439.360679 152.597675 
L 443.027711 152.359249 
L 448.528258 152.173769 
L 474.197481 152.448018 
L 476.030997 152.330799 
L 481.531544 152.478098 
L 483.36506 152.274591 
L 487.032092 152.383617 
L 488.865608 152.234444 
L 490.699124 152.198403 
L 492.53264 152.439393 
L 494.366156 152.400605 
L 503.533735 152.724195 
L 507.200767 152.60763 
L 510.867798 152.518624 
L 512.701314 152.636709 
L 525.535926 151.945515 
L 529.202957 152.044922 
L 532.869989 152.014679 
L 534.703505 152.16485 
L 536.537021 152.075019 
L 540.204053 152.323032 
L 543.871084 152.385323 
L 549.371632 152.711524 
L 551.205148 152.988396 
L 554.87218 153.166685 
L 556.705696 153.367152 
L 558.539211 153.434729 
L 560.372727 153.719305 
L 560.372727 153.719305 
" clip-path="url(#pa6a4a42810)" style="fill: none; stroke: #808080; stroke-width: 1.5; stroke-linecap: square"/>
   </g>
   <g id="line2d_27">
    <path d="M 103.827273 160.979149 
L 105.660789 162.441484 
L 107.494304 164.206873 
L 109.32782 165.257524 
L 111.161336 167.507322 
L 112.994852 169.410812 
L 114.828368 172.441023 
L 120.328916 182.454627 
L 125.829463 192.695248 
L 127.662979 195.089756 
L 129.496495 198.648611 
L 133.163527 205.346768 
L 134.997043 208.859377 
L 138.664074 214.982539 
L 144.164622 226.000453 
L 145.998138 229.022894 
L 155.165717 246.087934 
L 156.999233 248.539094 
L 158.832749 251.822725 
L 160.666265 254.859023 
L 162.499781 257.28508 
L 164.333297 259.396137 
L 166.166813 261.04676 
L 168.000329 262.38364 
L 169.833844 263.08367 
L 171.66736 262.916567 
L 173.500876 262.568937 
L 175.334392 261.617085 
L 177.167908 259.988464 
L 179.001424 257.795655 
L 180.83494 255.831405 
L 182.668456 253.252056 
L 184.501972 250.961888 
L 190.002519 244.866999 
L 193.669551 241.37201 
L 195.503067 240.164392 
L 199.170099 236.797146 
L 201.003614 234.634952 
L 206.504162 230.088532 
L 208.337678 228.427998 
L 210.171194 227.093621 
L 217.505257 220.859905 
L 219.338773 218.633873 
L 224.839321 214.584647 
L 226.672837 212.627467 
L 228.506353 211.017405 
L 230.339869 209.611645 
L 232.173384 208.387597 
L 234.0069 207.008805 
L 239.507448 203.638746 
L 241.340964 202.709722 
L 245.007996 200.108334 
L 246.841512 198.440543 
L 250.508543 195.592628 
L 252.342059 194.700958 
L 256.009091 192.202721 
L 259.676123 190.414722 
L 263.343154 187.668717 
L 267.010186 185.862042 
L 268.843702 184.900063 
L 270.677218 183.699555 
L 272.510734 182.940786 
L 274.34425 182.011233 
L 276.177766 180.907443 
L 278.011281 179.629274 
L 281.678313 178.127581 
L 283.511829 176.901222 
L 285.345345 175.927765 
L 287.178861 175.16706 
L 289.012377 174.248041 
L 290.845893 173.104327 
L 292.679409 172.110476 
L 294.512924 171.465588 
L 305.51402 165.265032 
L 307.347536 164.48689 
L 309.181051 163.129575 
L 311.014567 162.350312 
L 312.848083 161.320958 
L 314.681599 160.422692 
L 316.515115 159.325184 
L 322.015663 156.553747 
L 323.849179 155.931573 
L 327.51621 154.540519 
L 329.349726 154.067542 
L 342.184337 149.030218 
L 345.851369 146.984791 
L 349.518401 145.235337 
L 351.351917 144.656908 
L 355.018949 142.647733 
L 358.68598 141.06348 
L 366.020044 138.464283 
L 369.687076 137.053872 
L 380.688171 132.761743 
L 382.521687 132.000797 
L 384.355203 131.488949 
L 388.022234 129.854967 
L 389.85575 129.452457 
L 393.522782 128.289761 
L 397.189814 126.890305 
L 399.02333 125.906463 
L 402.690361 124.901449 
L 404.523877 124.097715 
L 406.357393 123.805751 
L 413.691457 120.981916 
L 417.358488 119.864294 
L 421.02552 118.307194 
L 422.859036 117.676672 
L 424.692552 116.771754 
L 430.1931 115.150078 
L 432.026616 114.447969 
L 437.527163 112.709546 
L 439.360679 112.128491 
L 444.861227 109.625271 
L 448.528258 108.343126 
L 450.361774 107.738347 
L 452.19529 107.290948 
L 454.028806 106.608652 
L 459.529354 105.112636 
L 461.36287 104.764844 
L 463.196386 104.049396 
L 465.029901 103.560939 
L 476.030997 99.719805 
L 481.531544 98.370781 
L 483.36506 97.605076 
L 485.198576 97.017919 
L 487.032092 96.568367 
L 490.699124 95.107466 
L 492.53264 94.805927 
L 498.033187 93.204027 
L 503.533735 91.819727 
L 505.367251 91.122433 
L 509.034283 90.214628 
L 510.867798 89.62749 
L 514.53483 88.698843 
L 516.368346 88.453031 
L 518.201862 88.367132 
L 520.035378 88.833477 
L 521.868894 89.733248 
L 523.70241 91.052431 
L 525.535926 92.515779 
L 527.369441 94.59086 
L 529.202957 97.157453 
L 531.036473 99.420586 
L 534.703505 106.055303 
L 536.537021 109.010909 
L 538.370537 112.687643 
L 543.871084 122.008431 
L 547.538116 129.383857 
L 551.205148 136.088574 
L 553.038664 137.895189 
L 554.87218 139.171738 
L 556.705696 141.184888 
L 558.539211 142.783262 
L 560.372727 144.23081 
L 560.372727 144.23081 
" clip-path="url(#pa6a4a42810)" style="fill: none; stroke: #ff0000; stroke-width: 1.5; stroke-linecap: square"/>
   </g>
   <g id="line2d_28">
    <path d="M 103.827273 196.264151 
L 105.660789 197.286201 
L 107.494304 198.712221 
L 109.32782 199.568049 
L 111.161336 201.211043 
L 112.994852 202.658397 
L 116.661884 207.383793 
L 118.4954 209.747098 
L 122.162432 214.74218 
L 125.829463 219.537091 
L 127.662979 221.204844 
L 129.496495 223.671884 
L 136.830559 232.607018 
L 138.664074 234.603625 
L 144.164622 241.716396 
L 145.998138 243.507318 
L 151.498686 249.85901 
L 153.332202 251.753793 
L 155.165717 253.850038 
L 156.999233 255.272444 
L 158.832749 257.123787 
L 160.666265 258.755755 
L 164.333297 261.406638 
L 166.166813 262.347184 
L 168.000329 263.008461 
L 169.833844 263.410826 
L 171.66736 263.205915 
L 173.500876 262.757915 
L 175.334392 262.005559 
L 177.167908 260.674171 
L 180.83494 257.33287 
L 184.501972 253.090076 
L 190.002519 247.358178 
L 193.669551 244.040319 
L 195.503067 242.903036 
L 199.170099 239.503273 
L 201.003614 237.123999 
L 204.670646 233.679519 
L 208.337678 229.914977 
L 210.171194 228.417865 
L 213.838226 224.999587 
L 215.671742 223.644308 
L 217.505257 221.738159 
L 219.338773 219.559522 
L 224.839321 215.746324 
L 226.672837 213.843745 
L 228.506353 212.241545 
L 230.339869 210.838318 
L 232.173384 209.596739 
L 234.0069 208.15107 
L 239.507448 204.654283 
L 241.340964 203.686947 
L 243.17448 202.444103 
L 245.007996 201.05549 
L 246.841512 199.334839 
L 250.508543 196.296665 
L 252.342059 195.305063 
L 256.009091 192.620438 
L 259.676123 190.664708 
L 263.343154 187.752809 
L 267.010186 185.868209 
L 268.843702 184.835834 
L 270.677218 183.616231 
L 272.510734 182.831992 
L 274.34425 181.911598 
L 276.177766 180.77116 
L 278.011281 179.451537 
L 279.844797 178.772048 
L 281.678313 177.944182 
L 283.511829 176.715759 
L 285.345345 175.741659 
L 287.178861 175.030879 
L 289.012377 174.118596 
L 290.845893 172.91021 
L 292.679409 171.867918 
L 294.512924 171.206059 
L 296.34644 170.127717 
L 298.179956 168.911887 
L 305.51402 164.558804 
L 307.347536 163.736316 
L 309.181051 162.340236 
L 311.014567 161.536156 
L 318.348631 157.423104 
L 322.015663 155.505598 
L 336.68379 149.997835 
L 340.350821 148.339006 
L 342.184337 147.626666 
L 345.851369 145.438096 
L 349.518401 143.563806 
L 351.351917 142.91438 
L 355.018949 140.741921 
L 358.68598 139.029828 
L 367.85356 135.667724 
L 373.354107 133.47499 
L 377.021139 132.267719 
L 380.688171 130.691579 
L 382.521687 129.960748 
L 384.355203 129.440372 
L 388.022234 127.832897 
L 389.85575 127.433829 
L 393.522782 126.222255 
L 397.189814 124.831171 
L 399.02333 123.923557 
L 402.690361 123.061461 
L 404.523877 122.346981 
L 406.357393 122.141779 
L 408.190909 121.536205 
L 410.024425 121.064201 
L 411.857941 120.465356 
L 415.524973 119.669134 
L 417.358488 119.384867 
L 421.02552 118.446662 
L 422.859036 118.167141 
L 424.692552 117.609048 
L 433.860131 116.745728 
L 443.027711 116.163377 
L 446.694743 116.120583 
L 448.528258 116.147332 
L 452.19529 116.720535 
L 454.028806 116.9024 
L 457.695838 117.608832 
L 459.529354 118.007081 
L 463.196386 119.060535 
L 468.696933 121.209838 
L 470.530449 121.970865 
L 472.363965 122.929327 
L 476.030997 124.288497 
L 477.864513 125.214353 
L 479.698028 125.963167 
L 483.36506 127.722109 
L 490.699124 132.83587 
L 492.53264 134.571026 
L 494.366156 135.992179 
L 496.199671 137.625809 
L 498.033187 139.427809 
L 499.866703 141.453512 
L 501.700219 143.065804 
L 505.367251 147.038064 
L 507.200767 148.463668 
L 509.034283 150.343722 
L 510.867798 152.912221 
L 512.701314 156.039417 
L 514.53483 158.864721 
L 518.201862 165.757774 
L 520.035378 168.561603 
L 521.868894 171.84978 
L 523.70241 175.831177 
L 525.535926 179.060734 
L 527.369441 182.670259 
L 529.202957 187.317583 
L 531.036473 190.793616 
L 538.370537 210.982541 
L 542.037568 221.399105 
L 543.871084 227.627569 
L 545.7046 236.062114 
L 549.371632 254.434493 
L 551.205148 264.746308 
L 553.038664 269.297437 
L 554.87218 273.063513 
L 556.705696 279.806293 
L 558.539211 285.810979 
L 560.372727 292.41 
L 560.372727 292.41 
" clip-path="url(#pa6a4a42810)" style="fill: none; stroke: #1f77b4; stroke-width: 1.5; stroke-linecap: square"/>
   </g>
   <g id="legend_1">
    <g id="patch_7">
     <path d="M 88 137.10875 
L 267.395313 137.10875 
Q 269.395313 137.10875 269.395313 135.10875 
L 269.395313 48.04 
Q 269.395313 46.04 267.395313 46.04 
L 88 46.04 
Q 86 46.04 86 48.04 
L 86 135.10875 
Q 86 137.10875 88 137.10875 
z
" style="fill: #ffffff; opacity: 0.8; stroke: #e6e6e6; stroke-linejoin: miter"/>
    </g>
    <g id="line2d_29">
     <path d="M 90 54.138438 
L 100 54.138438 
L 110 54.138438 
" style="fill: none; stroke-dasharray: 1.5,2.475; stroke-dashoffset: 0; stroke: #808080; stroke-width: 1.5"/>
    </g>
    <g id="text_15">
     <!-- R/S (AUC:0.0518) -->
     <g transform="translate(118 57.638438)scale(0.1 -0.1)">
      <defs>
       <path id="DejaVuSans-52" d="M 2841 2188 
Q 3044 2119 3236 1894 
Q 3428 1669 3622 1275 
L 4263 0 
L 3584 0 
L 2988 1197 
Q 2756 1666 2539 1819 
Q 2322 1972 1947 1972 
L 1259 1972 
L 1259 0 
L 628 0 
L 628 4666 
L 2053 4666 
Q 2853 4666 3247 4331 
Q 3641 3997 3641 3322 
Q 3641 2881 3436 2590 
Q 3231 2300 2841 2188 
z
M 1259 4147 
L 1259 2491 
L 2053 2491 
Q 2509 2491 2742 2702 
Q 2975 2913 2975 3322 
Q 2975 3731 2742 3939 
Q 2509 4147 2053 4147 
L 1259 4147 
z
" transform="scale(0.015625)"/>
       <path id="DejaVuSans-53" d="M 3425 4513 
L 3425 3897 
Q 3066 4069 2747 4153 
Q 2428 4238 2131 4238 
Q 1616 4238 1336 4038 
Q 1056 3838 1056 3469 
Q 1056 3159 1242 3001 
Q 1428 2844 1947 2747 
L 2328 2669 
Q 3034 2534 3370 2195 
Q 3706 1856 3706 1288 
Q 3706 609 3251 259 
Q 2797 -91 1919 -91 
Q 1588 -91 1214 -16 
Q 841 59 441 206 
L 441 856 
Q 825 641 1194 531 
Q 1563 422 1919 422 
Q 2459 422 2753 634 
Q 3047 847 3047 1241 
Q 3047 1584 2836 1778 
Q 2625 1972 2144 2069 
L 1759 2144 
Q 1053 2284 737 2584 
Q 422 2884 422 3419 
Q 422 4038 858 4394 
Q 1294 4750 2059 4750 
Q 2388 4750 2728 4690 
Q 3069 4631 3425 4513 
z
" transform="scale(0.015625)"/>
       <path id="DejaVuSans-41" d="M 2188 4044 
L 1331 1722 
L 3047 1722 
L 2188 4044 
z
M 1831 4666 
L 2547 4666 
L 4325 0 
L 3669 0 
L 3244 1197 
L 1141 1197 
L 716 0 
L 50 0 
L 1831 4666 
z
" transform="scale(0.015625)"/>
       <path id="DejaVuSans-55" d="M 556 4666 
L 1191 4666 
L 1191 1831 
Q 1191 1081 1462 751 
Q 1734 422 2344 422 
Q 2950 422 3222 751 
Q 3494 1081 3494 1831 
L 3494 4666 
L 4128 4666 
L 4128 1753 
Q 4128 841 3676 375 
Q 3225 -91 2344 -91 
Q 1459 -91 1007 375 
Q 556 841 556 1753 
L 556 4666 
z
" transform="scale(0.015625)"/>
       <path id="DejaVuSans-43" d="M 4122 4306 
L 4122 3641 
Q 3803 3938 3442 4084 
Q 3081 4231 2675 4231 
Q 1875 4231 1450 3742 
Q 1025 3253 1025 2328 
Q 1025 1406 1450 917 
Q 1875 428 2675 428 
Q 3081 428 3442 575 
Q 3803 722 4122 1019 
L 4122 359 
Q 3791 134 3420 21 
Q 3050 -91 2638 -91 
Q 1578 -91 968 557 
Q 359 1206 359 2328 
Q 359 3453 968 4101 
Q 1578 4750 2638 4750 
Q 3056 4750 3426 4639 
Q 3797 4528 4122 4306 
z
" transform="scale(0.015625)"/>
       <path id="DejaVuSans-38" d="M 2034 2216 
Q 1584 2216 1326 1975 
Q 1069 1734 1069 1313 
Q 1069 891 1326 650 
Q 1584 409 2034 409 
Q 2484 409 2743 651 
Q 3003 894 3003 1313 
Q 3003 1734 2745 1975 
Q 2488 2216 2034 2216 
z
M 1403 2484 
Q 997 2584 770 2862 
Q 544 3141 544 3541 
Q 544 4100 942 4425 
Q 1341 4750 2034 4750 
Q 2731 4750 3128 4425 
Q 3525 4100 3525 3541 
Q 3525 3141 3298 2862 
Q 3072 2584 2669 2484 
Q 3125 2378 3379 2068 
Q 3634 1759 3634 1313 
Q 3634 634 3220 271 
Q 2806 -91 2034 -91 
Q 1263 -91 848 271 
Q 434 634 434 1313 
Q 434 1759 690 2068 
Q 947 2378 1403 2484 
z
M 1172 3481 
Q 1172 3119 1398 2916 
Q 1625 2713 2034 2713 
Q 2441 2713 2670 2916 
Q 2900 3119 2900 3481 
Q 2900 3844 2670 4047 
Q 2441 4250 2034 4250 
Q 1625 4250 1398 4047 
Q 1172 3844 1172 3481 
z
" transform="scale(0.015625)"/>
      </defs>
      <use xlink:href="#DejaVuSans-52"/>
      <use xlink:href="#DejaVuSans-2f" x="69.482422"/>
      <use xlink:href="#DejaVuSans-53" x="103.173828"/>
      <use xlink:href="#DejaVuSans-20" x="166.650391"/>
      <use xlink:href="#DejaVuSans-28" x="198.4375"/>
      <use xlink:href="#DejaVuSans-41" x="237.451172"/>
      <use xlink:href="#DejaVuSans-55" x="305.859375"/>
      <use xlink:href="#DejaVuSans-43" x="379.052734"/>
      <use xlink:href="#DejaVuSans-3a" x="448.876953"/>
      <use xlink:href="#DejaVuSans-30" x="482.568359"/>
      <use xlink:href="#DejaVuSans-2e" x="546.191406"/>
      <use xlink:href="#DejaVuSans-30" x="577.978516"/>
      <use xlink:href="#DejaVuSans-35" x="641.601562"/>
      <use xlink:href="#DejaVuSans-31" x="705.224609"/>
      <use xlink:href="#DejaVuSans-38" x="768.847656"/>
      <use xlink:href="#DejaVuSans-29" x="832.470703"/>
     </g>
    </g>
    <g id="line2d_30">
     <path d="M 90 68.816563 
L 100 68.816563 
L 110 68.816563 
" style="fill: none; stroke-dasharray: 9.6,2.4,1.5,2.4; stroke-dashoffset: 0; stroke: #808080; stroke-width: 1.5"/>
    </g>
    <g id="text_16">
     <!-- variogram (AUC:0.00825) -->
     <g transform="translate(118 72.316563)scale(0.1 -0.1)">
      <defs>
       <path id="DejaVuSans-6f" d="M 1959 3097 
Q 1497 3097 1228 2736 
Q 959 2375 959 1747 
Q 959 1119 1226 758 
Q 1494 397 1959 397 
Q 2419 397 2687 759 
Q 2956 1122 2956 1747 
Q 2956 2369 2687 2733 
Q 2419 3097 1959 3097 
z
M 1959 3584 
Q 2709 3584 3137 3096 
Q 3566 2609 3566 1747 
Q 3566 888 3137 398 
Q 2709 -91 1959 -91 
Q 1206 -91 779 398 
Q 353 888 353 1747 
Q 353 2609 779 3096 
Q 1206 3584 1959 3584 
z
" transform="scale(0.015625)"/>
       <path id="DejaVuSans-67" d="M 2906 1791 
Q 2906 2416 2648 2759 
Q 2391 3103 1925 3103 
Q 1463 3103 1205 2759 
Q 947 2416 947 1791 
Q 947 1169 1205 825 
Q 1463 481 1925 481 
Q 2391 481 2648 825 
Q 2906 1169 2906 1791 
z
M 3481 434 
Q 3481 -459 3084 -895 
Q 2688 -1331 1869 -1331 
Q 1566 -1331 1297 -1286 
Q 1028 -1241 775 -1147 
L 775 -588 
Q 1028 -725 1275 -790 
Q 1522 -856 1778 -856 
Q 2344 -856 2625 -561 
Q 2906 -266 2906 331 
L 2906 616 
Q 2728 306 2450 153 
Q 2172 0 1784 0 
Q 1141 0 747 490 
Q 353 981 353 1791 
Q 353 2603 747 3093 
Q 1141 3584 1784 3584 
Q 2172 3584 2450 3431 
Q 2728 3278 2906 2969 
L 2906 3500 
L 3481 3500 
L 3481 434 
z
" transform="scale(0.015625)"/>
       <path id="DejaVuSans-6d" d="M 3328 2828 
Q 3544 3216 3844 3400 
Q 4144 3584 4550 3584 
Q 5097 3584 5394 3201 
Q 5691 2819 5691 2113 
L 5691 0 
L 5113 0 
L 5113 2094 
Q 5113 2597 4934 2840 
Q 4756 3084 4391 3084 
Q 3944 3084 3684 2787 
Q 3425 2491 3425 1978 
L 3425 0 
L 2847 0 
L 2847 2094 
Q 2847 2600 2669 2842 
Q 2491 3084 2119 3084 
Q 1678 3084 1418 2786 
Q 1159 2488 1159 1978 
L 1159 0 
L 581 0 
L 581 3500 
L 1159 3500 
L 1159 2956 
Q 1356 3278 1631 3431 
Q 1906 3584 2284 3584 
Q 2666 3584 2933 3390 
Q 3200 3197 3328 2828 
z
" transform="scale(0.015625)"/>
      </defs>
      <use xlink:href="#DejaVuSans-76"/>
      <use xlink:href="#DejaVuSans-61" x="59.179688"/>
      <use xlink:href="#DejaVuSans-72" x="120.458984"/>
      <use xlink:href="#DejaVuSans-69" x="161.572266"/>
      <use xlink:href="#DejaVuSans-6f" x="189.355469"/>
      <use xlink:href="#DejaVuSans-67" x="250.537109"/>
      <use xlink:href="#DejaVuSans-72" x="314.013672"/>
      <use xlink:href="#DejaVuSans-61" x="355.126953"/>
      <use xlink:href="#DejaVuSans-6d" x="416.40625"/>
      <use xlink:href="#DejaVuSans-20" x="513.818359"/>
      <use xlink:href="#DejaVuSans-28" x="545.605469"/>
      <use xlink:href="#DejaVuSans-41" x="584.619141"/>
      <use xlink:href="#DejaVuSans-55" x="653.027344"/>
      <use xlink:href="#DejaVuSans-43" x="726.220703"/>
      <use xlink:href="#DejaVuSans-3a" x="796.044922"/>
      <use xlink:href="#DejaVuSans-30" x="829.736328"/>
      <use xlink:href="#DejaVuSans-2e" x="893.359375"/>
      <use xlink:href="#DejaVuSans-30" x="925.146484"/>
      <use xlink:href="#DejaVuSans-30" x="988.769531"/>
      <use xlink:href="#DejaVuSans-38" x="1052.392578"/>
      <use xlink:href="#DejaVuSans-32" x="1116.015625"/>
      <use xlink:href="#DejaVuSans-35" x="1179.638672"/>
      <use xlink:href="#DejaVuSans-29" x="1243.261719"/>
     </g>
    </g>
    <g id="line2d_31">
     <path d="M 90 83.494687 
L 100 83.494687 
L 110 83.494687 
" style="fill: none; stroke-dasharray: 5.55,2.4; stroke-dashoffset: 0; stroke: #808080; stroke-width: 1.5"/>
    </g>
    <g id="text_17">
     <!-- Higuchi (AUC:0.00147) -->
     <g transform="translate(118 86.994687)scale(0.1 -0.1)">
      <defs>
       <path id="DejaVuSans-75" d="M 544 1381 
L 544 3500 
L 1119 3500 
L 1119 1403 
Q 1119 906 1312 657 
Q 1506 409 1894 409 
Q 2359 409 2629 706 
Q 2900 1003 2900 1516 
L 2900 3500 
L 3475 3500 
L 3475 0 
L 2900 0 
L 2900 538 
Q 2691 219 2414 64 
Q 2138 -91 1772 -91 
Q 1169 -91 856 284 
Q 544 659 544 1381 
z
M 1991 3584 
L 1991 3584 
z
" transform="scale(0.015625)"/>
       <path id="DejaVuSans-63" d="M 3122 3366 
L 3122 2828 
Q 2878 2963 2633 3030 
Q 2388 3097 2138 3097 
Q 1578 3097 1268 2742 
Q 959 2388 959 1747 
Q 959 1106 1268 751 
Q 1578 397 2138 397 
Q 2388 397 2633 464 
Q 2878 531 3122 666 
L 3122 134 
Q 2881 22 2623 -34 
Q 2366 -91 2075 -91 
Q 1284 -91 818 406 
Q 353 903 353 1747 
Q 353 2603 823 3093 
Q 1294 3584 2113 3584 
Q 2378 3584 2631 3529 
Q 2884 3475 3122 3366 
z
" transform="scale(0.015625)"/>
       <path id="DejaVuSans-68" d="M 3513 2113 
L 3513 0 
L 2938 0 
L 2938 2094 
Q 2938 2591 2744 2837 
Q 2550 3084 2163 3084 
Q 1697 3084 1428 2787 
Q 1159 2491 1159 1978 
L 1159 0 
L 581 0 
L 581 4863 
L 1159 4863 
L 1159 2956 
Q 1366 3272 1645 3428 
Q 1925 3584 2291 3584 
Q 2894 3584 3203 3211 
Q 3513 2838 3513 2113 
z
" transform="scale(0.015625)"/>
       <path id="DejaVuSans-37" d="M 525 4666 
L 3525 4666 
L 3525 4397 
L 1831 0 
L 1172 0 
L 2766 4134 
L 525 4134 
L 525 4666 
z
" transform="scale(0.015625)"/>
      </defs>
      <use xlink:href="#DejaVuSans-48"/>
      <use xlink:href="#DejaVuSans-69" x="75.195312"/>
      <use xlink:href="#DejaVuSans-67" x="102.978516"/>
      <use xlink:href="#DejaVuSans-75" x="166.455078"/>
      <use xlink:href="#DejaVuSans-63" x="229.833984"/>
      <use xlink:href="#DejaVuSans-68" x="284.814453"/>
      <use xlink:href="#DejaVuSans-69" x="348.193359"/>
      <use xlink:href="#DejaVuSans-20" x="375.976562"/>
      <use xlink:href="#DejaVuSans-28" x="407.763672"/>
      <use xlink:href="#DejaVuSans-41" x="446.777344"/>
      <use xlink:href="#DejaVuSans-55" x="515.185547"/>
      <use xlink:href="#DejaVuSans-43" x="588.378906"/>
      <use xlink:href="#DejaVuSans-3a" x="658.203125"/>
      <use xlink:href="#DejaVuSans-30" x="691.894531"/>
      <use xlink:href="#DejaVuSans-2e" x="755.517578"/>
      <use xlink:href="#DejaVuSans-30" x="787.304688"/>
      <use xlink:href="#DejaVuSans-30" x="850.927734"/>
      <use xlink:href="#DejaVuSans-31" x="914.550781"/>
      <use xlink:href="#DejaVuSans-34" x="978.173828"/>
      <use xlink:href="#DejaVuSans-37" x="1041.796875"/>
      <use xlink:href="#DejaVuSans-29" x="1105.419922"/>
     </g>
    </g>
    <g id="line2d_32">
     <path d="M 90 98.172813 
L 100 98.172813 
L 110 98.172813 
" style="fill: none; stroke: #808080; stroke-width: 1.5; stroke-linecap: square"/>
    </g>
    <g id="text_18">
     <!-- Whittle fBm (AUC:0.00508) -->
     <g transform="translate(118 101.672813)scale(0.1 -0.1)">
      <defs>
       <path id="DejaVuSans-57" d="M 213 4666 
L 850 4666 
L 1831 722 
L 2809 4666 
L 3519 4666 
L 4500 722 
L 5478 4666 
L 6119 4666 
L 4947 0 
L 4153 0 
L 3169 4050 
L 2175 0 
L 1381 0 
L 213 4666 
z
" transform="scale(0.015625)"/>
       <path id="DejaVuSans-66" d="M 2375 4863 
L 2375 4384 
L 1825 4384 
Q 1516 4384 1395 4259 
Q 1275 4134 1275 3809 
L 1275 3500 
L 2222 3500 
L 2222 3053 
L 1275 3053 
L 1275 0 
L 697 0 
L 697 3053 
L 147 3053 
L 147 3500 
L 697 3500 
L 697 3744 
Q 697 4328 969 4595 
Q 1241 4863 1831 4863 
L 2375 4863 
z
" transform="scale(0.015625)"/>
      </defs>
      <use xlink:href="#DejaVuSans-57"/>
      <use xlink:href="#DejaVuSans-68" x="98.876953"/>
      <use xlink:href="#DejaVuSans-69" x="162.255859"/>
      <use xlink:href="#DejaVuSans-74" x="190.039062"/>
      <use xlink:href="#DejaVuSans-74" x="229.248047"/>
      <use xlink:href="#DejaVuSans-6c" x="268.457031"/>
      <use xlink:href="#DejaVuSans-65" x="296.240234"/>
      <use xlink:href="#DejaVuSans-20" x="357.763672"/>
      <use xlink:href="#DejaVuSans-66" x="389.550781"/>
      <use xlink:href="#DejaVuSans-42" x="424.755859"/>
      <use xlink:href="#DejaVuSans-6d" x="493.359375"/>
      <use xlink:href="#DejaVuSans-20" x="590.771484"/>
      <use xlink:href="#DejaVuSans-28" x="622.558594"/>
      <use xlink:href="#DejaVuSans-41" x="661.572266"/>
      <use xlink:href="#DejaVuSans-55" x="729.980469"/>
      <use xlink:href="#DejaVuSans-43" x="803.173828"/>
      <use xlink:href="#DejaVuSans-3a" x="872.998047"/>
      <use xlink:href="#DejaVuSans-30" x="906.689453"/>
      <use xlink:href="#DejaVuSans-2e" x="970.3125"/>
      <use xlink:href="#DejaVuSans-30" x="1002.099609"/>
      <use xlink:href="#DejaVuSans-30" x="1065.722656"/>
      <use xlink:href="#DejaVuSans-35" x="1129.345703"/>
      <use xlink:href="#DejaVuSans-30" x="1192.96875"/>
      <use xlink:href="#DejaVuSans-38" x="1256.591797"/>
      <use xlink:href="#DejaVuSans-29" x="1320.214844"/>
     </g>
    </g>
    <g id="line2d_33">
     <path d="M 90 112.850938 
L 100 112.850938 
L 110 112.850938 
" style="fill: none; stroke: #ff0000; stroke-width: 1.5; stroke-linecap: square"/>
    </g>
    <g id="text_19">
     <!-- Whittle ARFIMA (AUC:0.0523) -->
     <g transform="translate(118 116.350938)scale(0.1 -0.1)">
      <defs>
       <path id="DejaVuSans-46" d="M 628 4666 
L 3309 4666 
L 3309 4134 
L 1259 4134 
L 1259 2759 
L 3109 2759 
L 3109 2228 
L 1259 2228 
L 1259 0 
L 628 0 
L 628 4666 
z
" transform="scale(0.015625)"/>
       <path id="DejaVuSans-49" d="M 628 4666 
L 1259 4666 
L 1259 0 
L 628 0 
L 628 4666 
z
" transform="scale(0.015625)"/>
       <path id="DejaVuSans-4d" d="M 628 4666 
L 1569 4666 
L 2759 1491 
L 3956 4666 
L 4897 4666 
L 4897 0 
L 4281 0 
L 4281 4097 
L 3078 897 
L 2444 897 
L 1241 4097 
L 1241 0 
L 628 0 
L 628 4666 
z
" transform="scale(0.015625)"/>
       <path id="DejaVuSans-33" d="M 2597 2516 
Q 3050 2419 3304 2112 
Q 3559 1806 3559 1356 
Q 3559 666 3084 287 
Q 2609 -91 1734 -91 
Q 1441 -91 1130 -33 
Q 819 25 488 141 
L 488 750 
Q 750 597 1062 519 
Q 1375 441 1716 441 
Q 2309 441 2620 675 
Q 2931 909 2931 1356 
Q 2931 1769 2642 2001 
Q 2353 2234 1838 2234 
L 1294 2234 
L 1294 2753 
L 1863 2753 
Q 2328 2753 2575 2939 
Q 2822 3125 2822 3475 
Q 2822 3834 2567 4026 
Q 2313 4219 1838 4219 
Q 1578 4219 1281 4162 
Q 984 4106 628 3988 
L 628 4550 
Q 988 4650 1302 4700 
Q 1616 4750 1894 4750 
Q 2613 4750 3031 4423 
Q 3450 4097 3450 3541 
Q 3450 3153 3228 2886 
Q 3006 2619 2597 2516 
z
" transform="scale(0.015625)"/>
      </defs>
      <use xlink:href="#DejaVuSans-57"/>
      <use xlink:href="#DejaVuSans-68" x="98.876953"/>
      <use xlink:href="#DejaVuSans-69" x="162.255859"/>
      <use xlink:href="#DejaVuSans-74" x="190.039062"/>
      <use xlink:href="#DejaVuSans-74" x="229.248047"/>
      <use xlink:href="#DejaVuSans-6c" x="268.457031"/>
      <use xlink:href="#DejaVuSans-65" x="296.240234"/>
      <use xlink:href="#DejaVuSans-20" x="357.763672"/>
      <use xlink:href="#DejaVuSans-41" x="389.550781"/>
      <use xlink:href="#DejaVuSans-52" x="457.958984"/>
      <use xlink:href="#DejaVuSans-46" x="527.441406"/>
      <use xlink:href="#DejaVuSans-49" x="584.960938"/>
      <use xlink:href="#DejaVuSans-4d" x="614.453125"/>
      <use xlink:href="#DejaVuSans-41" x="700.732422"/>
      <use xlink:href="#DejaVuSans-20" x="769.140625"/>
      <use xlink:href="#DejaVuSans-28" x="800.927734"/>
      <use xlink:href="#DejaVuSans-41" x="839.941406"/>
      <use xlink:href="#DejaVuSans-55" x="908.349609"/>
      <use xlink:href="#DejaVuSans-43" x="981.542969"/>
      <use xlink:href="#DejaVuSans-3a" x="1051.367188"/>
      <use xlink:href="#DejaVuSans-30" x="1085.058594"/>
      <use xlink:href="#DejaVuSans-2e" x="1148.681641"/>
      <use xlink:href="#DejaVuSans-30" x="1180.46875"/>
      <use xlink:href="#DejaVuSans-35" x="1244.091797"/>
      <use xlink:href="#DejaVuSans-32" x="1307.714844"/>
      <use xlink:href="#DejaVuSans-33" x="1371.337891"/>
      <use xlink:href="#DejaVuSans-29" x="1434.960938"/>
     </g>
    </g>
    <g id="line2d_34">
     <path d="M 90 127.529063 
L 100 127.529063 
L 110 127.529063 
" style="fill: none; stroke: #1f77b4; stroke-width: 1.5; stroke-linecap: square"/>
    </g>
    <g id="text_20">
     <!-- LSTM (AUC:0.0539) -->
     <g transform="translate(118 131.029063)scale(0.1 -0.1)">
      <defs>
       <path id="DejaVuSans-4c" d="M 628 4666 
L 1259 4666 
L 1259 531 
L 3531 531 
L 3531 0 
L 628 0 
L 628 4666 
z
" transform="scale(0.015625)"/>
       <path id="DejaVuSans-54" d="M -19 4666 
L 3928 4666 
L 3928 4134 
L 2272 4134 
L 2272 0 
L 1638 0 
L 1638 4134 
L -19 4134 
L -19 4666 
z
" transform="scale(0.015625)"/>
       <path id="DejaVuSans-39" d="M 703 97 
L 703 672 
Q 941 559 1184 500 
Q 1428 441 1663 441 
Q 2288 441 2617 861 
Q 2947 1281 2994 2138 
Q 2813 1869 2534 1725 
Q 2256 1581 1919 1581 
Q 1219 1581 811 2004 
Q 403 2428 403 3163 
Q 403 3881 828 4315 
Q 1253 4750 1959 4750 
Q 2769 4750 3195 4129 
Q 3622 3509 3622 2328 
Q 3622 1225 3098 567 
Q 2575 -91 1691 -91 
Q 1453 -91 1209 -44 
Q 966 3 703 97 
z
M 1959 2075 
Q 2384 2075 2632 2365 
Q 2881 2656 2881 3163 
Q 2881 3666 2632 3958 
Q 2384 4250 1959 4250 
Q 1534 4250 1286 3958 
Q 1038 3666 1038 3163 
Q 1038 2656 1286 2365 
Q 1534 2075 1959 2075 
z
" transform="scale(0.015625)"/>
      </defs>
      <use xlink:href="#DejaVuSans-4c"/>
      <use xlink:href="#DejaVuSans-53" x="55.712891"/>
      <use xlink:href="#DejaVuSans-54" x="119.189453"/>
      <use xlink:href="#DejaVuSans-4d" x="180.273438"/>
      <use xlink:href="#DejaVuSans-20" x="266.552734"/>
      <use xlink:href="#DejaVuSans-28" x="298.339844"/>
      <use xlink:href="#DejaVuSans-41" x="337.353516"/>
      <use xlink:href="#DejaVuSans-55" x="405.761719"/>
      <use xlink:href="#DejaVuSans-43" x="478.955078"/>
      <use xlink:href="#DejaVuSans-3a" x="548.779297"/>
      <use xlink:href="#DejaVuSans-30" x="582.470703"/>
      <use xlink:href="#DejaVuSans-2e" x="646.09375"/>
      <use xlink:href="#DejaVuSans-30" x="677.880859"/>
      <use xlink:href="#DejaVuSans-35" x="741.503906"/>
      <use xlink:href="#DejaVuSans-33" x="805.126953"/>
      <use xlink:href="#DejaVuSans-39" x="868.75"/>
      <use xlink:href="#DejaVuSans-29" x="932.373047"/>
     </g>
    </g>
   </g>
  </g>
 </g>
 <defs>
  <clipPath id="pa6a4a42810">
   <rect x="81" y="41.04" width="502.2" height="263.34"/>
  </clipPath>
 </defs>
</svg>
