<?xml version="1.0" encoding="utf-8" standalone="no"?>
<!DOCTYPE svg PUBLIC "-//W3C//DTD SVG 1.1//EN"
  "http://www.w3.org/Graphics/SVG/1.1/DTD/svg11.dtd">
<svg xmlns:xlink="http://www.w3.org/1999/xlink" width="432pt" height="252pt" viewBox="0 0 432 252" xmlns="http://www.w3.org/2000/svg" version="1.1">
 <metadata>
  <rdf:RDF xmlns:dc="http://purl.org/dc/elements/1.1/" xmlns:cc="http://creativecommons.org/ns#" xmlns:rdf="http://www.w3.org/1999/02/22-rdf-syntax-ns#">
   <cc:Work>
    <dc:type rdf:resource="http://purl.org/dc/dcmitype/StillImage"/>
    <dc:date>2024-07-05T16:36:18.612837</dc:date>
    <dc:format>image/svg+xml</dc:format>
    <dc:creator>
     <cc:Agent>
      <dc:title>Matplotlib v3.5.1, https://matplotlib.org/</dc:title>
     </cc:Agent>
    </dc:creator>
   </cc:Work>
  </rdf:RDF>
 </metadata>
 <defs>
  <style type="text/css">*{stroke-linejoin: round; stroke-linecap: butt}</style>
 </defs>
 <g id="figure_1">
  <g id="patch_1">
   <path d="M 0 252 
L 432 252 
L 432 0 
L 0 0 
z
" style="fill: #ffffff"/>
  </g>
  <g id="axes_1">
   <g id="patch_2">
    <path d="M 54 224.28 
L 388.8 224.28 
L 388.8 30.24 
L 54 30.24 
L 54 224.28 
z
" style="fill: none; opacity: 0"/>
   </g>
   <g id="matplotlib.axis_1">
    <g id="xtick_1">
     <g id="line2d_1">
      <path d="M 99.654545 224.28 
L 99.654545 30.24 
" clip-path="url(#pd5d250a955)" style="fill: none; stroke: #e6e6e6; stroke-width: 0.8; stroke-linecap: square"/>
     </g>
     <g id="line2d_2">
      <defs>
       <path id="m5d21b1f369" d="M 0 0 
L 0 3.5 
" style="stroke: #000000; stroke-width: 0.8"/>
      </defs>
      <g>
       <use xlink:href="#m5d21b1f369" x="99.654545" y="224.28" style="stroke: #000000; stroke-width: 0.8"/>
      </g>
     </g>
     <g id="text_1">
      <!-- −0.4 -->
      <g transform="translate(87.513139 238.878438)scale(0.1 -0.1)">
       <defs>
        <path id="DejaVuSans-2212" d="M 678 2272 
L 4684 2272 
L 4684 1741 
L 678 1741 
L 678 2272 
z
" transform="scale(0.015625)"/>
        <path id="DejaVuSans-30" d="M 2034 4250 
Q 1547 4250 1301 3770 
Q 1056 3291 1056 2328 
Q 1056 1369 1301 889 
Q 1547 409 2034 409 
Q 2525 409 2770 889 
Q 3016 1369 3016 2328 
Q 3016 3291 2770 3770 
Q 2525 4250 2034 4250 
z
M 2034 4750 
Q 2819 4750 3233 4129 
Q 3647 3509 3647 2328 
Q 3647 1150 3233 529 
Q 2819 -91 2034 -91 
Q 1250 -91 836 529 
Q 422 1150 422 2328 
Q 422 3509 836 4129 
Q 1250 4750 2034 4750 
z
" transform="scale(0.015625)"/>
        <path id="DejaVuSans-2e" d="M 684 794 
L 1344 794 
L 1344 0 
L 684 0 
L 684 794 
z
" transform="scale(0.015625)"/>
        <path id="DejaVuSans-34" d="M 2419 4116 
L 825 1625 
L 2419 1625 
L 2419 4116 
z
M 2253 4666 
L 3047 4666 
L 3047 1625 
L 3713 1625 
L 3713 1100 
L 3047 1100 
L 3047 0 
L 2419 0 
L 2419 1100 
L 313 1100 
L 313 1709 
L 2253 4666 
z
" transform="scale(0.015625)"/>
       </defs>
       <use xlink:href="#DejaVuSans-2212"/>
       <use xlink:href="#DejaVuSans-30" x="83.789062"/>
       <use xlink:href="#DejaVuSans-2e" x="147.412109"/>
       <use xlink:href="#DejaVuSans-34" x="179.199219"/>
      </g>
     </g>
    </g>
    <g id="xtick_2">
     <g id="line2d_3">
      <path d="M 160.527273 224.28 
L 160.527273 30.24 
" clip-path="url(#pd5d250a955)" style="fill: none; stroke: #e6e6e6; stroke-width: 0.8; stroke-linecap: square"/>
     </g>
     <g id="line2d_4">
      <g>
       <use xlink:href="#m5d21b1f369" x="160.527273" y="224.28" style="stroke: #000000; stroke-width: 0.8"/>
      </g>
     </g>
     <g id="text_2">
      <!-- −0.2 -->
      <g transform="translate(148.385866 238.878438)scale(0.1 -0.1)">
       <defs>
        <path id="DejaVuSans-32" d="M 1228 531 
L 3431 531 
L 3431 0 
L 469 0 
L 469 531 
Q 828 903 1448 1529 
Q 2069 2156 2228 2338 
Q 2531 2678 2651 2914 
Q 2772 3150 2772 3378 
Q 2772 3750 2511 3984 
Q 2250 4219 1831 4219 
Q 1534 4219 1204 4116 
Q 875 4013 500 3803 
L 500 4441 
Q 881 4594 1212 4672 
Q 1544 4750 1819 4750 
Q 2544 4750 2975 4387 
Q 3406 4025 3406 3419 
Q 3406 3131 3298 2873 
Q 3191 2616 2906 2266 
Q 2828 2175 2409 1742 
Q 1991 1309 1228 531 
z
" transform="scale(0.015625)"/>
       </defs>
       <use xlink:href="#DejaVuSans-2212"/>
       <use xlink:href="#DejaVuSans-30" x="83.789062"/>
       <use xlink:href="#DejaVuSans-2e" x="147.412109"/>
       <use xlink:href="#DejaVuSans-32" x="179.199219"/>
      </g>
     </g>
    </g>
    <g id="xtick_3">
     <g id="line2d_5">
      <path d="M 221.4 224.28 
L 221.4 30.24 
" clip-path="url(#pd5d250a955)" style="fill: none; stroke: #e6e6e6; stroke-width: 0.8; stroke-linecap: square"/>
     </g>
     <g id="line2d_6">
      <g>
       <use xlink:href="#m5d21b1f369" x="221.4" y="224.28" style="stroke: #000000; stroke-width: 0.8"/>
      </g>
     </g>
     <g id="text_3">
      <!-- 0.0 -->
      <g transform="translate(213.448438 238.878438)scale(0.1 -0.1)">
       <use xlink:href="#DejaVuSans-30"/>
       <use xlink:href="#DejaVuSans-2e" x="63.623047"/>
       <use xlink:href="#DejaVuSans-30" x="95.410156"/>
      </g>
     </g>
    </g>
    <g id="xtick_4">
     <g id="line2d_7">
      <path d="M 282.272727 224.28 
L 282.272727 30.24 
" clip-path="url(#pd5d250a955)" style="fill: none; stroke: #e6e6e6; stroke-width: 0.8; stroke-linecap: square"/>
     </g>
     <g id="line2d_8">
      <g>
       <use xlink:href="#m5d21b1f369" x="282.272727" y="224.28" style="stroke: #000000; stroke-width: 0.8"/>
      </g>
     </g>
     <g id="text_4">
      <!-- 0.2 -->
      <g transform="translate(274.321165 238.878438)scale(0.1 -0.1)">
       <use xlink:href="#DejaVuSans-30"/>
       <use xlink:href="#DejaVuSans-2e" x="63.623047"/>
       <use xlink:href="#DejaVuSans-32" x="95.410156"/>
      </g>
     </g>
    </g>
    <g id="xtick_5">
     <g id="line2d_9">
      <path d="M 343.145455 224.28 
L 343.145455 30.24 
" clip-path="url(#pd5d250a955)" style="fill: none; stroke: #e6e6e6; stroke-width: 0.8; stroke-linecap: square"/>
     </g>
     <g id="line2d_10">
      <g>
       <use xlink:href="#m5d21b1f369" x="343.145455" y="224.28" style="stroke: #000000; stroke-width: 0.8"/>
      </g>
     </g>
     <g id="text_5">
      <!-- 0.4 -->
      <g transform="translate(335.193892 238.878438)scale(0.1 -0.1)">
       <use xlink:href="#DejaVuSans-30"/>
       <use xlink:href="#DejaVuSans-2e" x="63.623047"/>
       <use xlink:href="#DejaVuSans-34" x="95.410156"/>
      </g>
     </g>
    </g>
    <g id="text_6">
     <!-- H - 1/2 -->
     <g transform="translate(204.610938 252.556563)scale(0.1 -0.1)">
      <defs>
       <path id="DejaVuSans-48" d="M 628 4666 
L 1259 4666 
L 1259 2753 
L 3553 2753 
L 3553 4666 
L 4184 4666 
L 4184 0 
L 3553 0 
L 3553 2222 
L 1259 2222 
L 1259 0 
L 628 0 
L 628 4666 
z
" transform="scale(0.015625)"/>
       <path id="DejaVuSans-20" transform="scale(0.015625)"/>
       <path id="DejaVuSans-2d" d="M 313 2009 
L 1997 2009 
L 1997 1497 
L 313 1497 
L 313 2009 
z
" transform="scale(0.015625)"/>
       <path id="DejaVuSans-31" d="M 794 531 
L 1825 531 
L 1825 4091 
L 703 3866 
L 703 4441 
L 1819 4666 
L 2450 4666 
L 2450 531 
L 3481 531 
L 3481 0 
L 794 0 
L 794 531 
z
" transform="scale(0.015625)"/>
       <path id="DejaVuSans-2f" d="M 1625 4666 
L 2156 4666 
L 531 -594 
L 0 -594 
L 1625 4666 
z
" transform="scale(0.015625)"/>
      </defs>
      <use xlink:href="#DejaVuSans-48"/>
      <use xlink:href="#DejaVuSans-20" x="75.195312"/>
      <use xlink:href="#DejaVuSans-2d" x="106.982422"/>
      <use xlink:href="#DejaVuSans-20" x="143.066406"/>
      <use xlink:href="#DejaVuSans-31" x="174.853516"/>
      <use xlink:href="#DejaVuSans-2f" x="238.476562"/>
      <use xlink:href="#DejaVuSans-32" x="272.167969"/>
     </g>
    </g>
   </g>
   <g id="matplotlib.axis_2">
    <g id="ytick_1">
     <g id="line2d_11">
      <path d="M 54 222.913713 
L 388.8 222.913713 
" clip-path="url(#pd5d250a955)" style="fill: none; stroke: #e6e6e6; stroke-width: 0.8; stroke-linecap: square"/>
     </g>
     <g id="line2d_12">
      <defs>
       <path id="m0a29eea916" d="M 0 0 
L -3.5 0 
" style="stroke: #000000; stroke-width: 0.8"/>
      </defs>
      <g>
       <use xlink:href="#m0a29eea916" x="54" y="222.913713" style="stroke: #000000; stroke-width: 0.8"/>
      </g>
     </g>
     <g id="text_7">
      <!-- 0.00 -->
      <g transform="translate(24.734375 226.712932)scale(0.1 -0.1)">
       <use xlink:href="#DejaVuSans-30"/>
       <use xlink:href="#DejaVuSans-2e" x="63.623047"/>
       <use xlink:href="#DejaVuSans-30" x="95.410156"/>
       <use xlink:href="#DejaVuSans-30" x="159.033203"/>
      </g>
     </g>
    </g>
    <g id="ytick_2">
     <g id="line2d_13">
      <path d="M 54 193.635885 
L 388.8 193.635885 
" clip-path="url(#pd5d250a955)" style="fill: none; stroke: #e6e6e6; stroke-width: 0.8; stroke-linecap: square"/>
     </g>
     <g id="line2d_14">
      <g>
       <use xlink:href="#m0a29eea916" x="54" y="193.635885" style="stroke: #000000; stroke-width: 0.8"/>
      </g>
     </g>
     <g id="text_8">
      <!-- 0.01 -->
      <g transform="translate(24.734375 197.435104)scale(0.1 -0.1)">
       <use xlink:href="#DejaVuSans-30"/>
       <use xlink:href="#DejaVuSans-2e" x="63.623047"/>
       <use xlink:href="#DejaVuSans-30" x="95.410156"/>
       <use xlink:href="#DejaVuSans-31" x="159.033203"/>
      </g>
     </g>
    </g>
    <g id="ytick_3">
     <g id="line2d_15">
      <path d="M 54 164.358057 
L 388.8 164.358057 
" clip-path="url(#pd5d250a955)" style="fill: none; stroke: #e6e6e6; stroke-width: 0.8; stroke-linecap: square"/>
     </g>
     <g id="line2d_16">
      <g>
       <use xlink:href="#m0a29eea916" x="54" y="164.358057" style="stroke: #000000; stroke-width: 0.8"/>
      </g>
     </g>
     <g id="text_9">
      <!-- 0.02 -->
      <g transform="translate(24.734375 168.157276)scale(0.1 -0.1)">
       <use xlink:href="#DejaVuSans-30"/>
       <use xlink:href="#DejaVuSans-2e" x="63.623047"/>
       <use xlink:href="#DejaVuSans-30" x="95.410156"/>
       <use xlink:href="#DejaVuSans-32" x="159.033203"/>
      </g>
     </g>
    </g>
    <g id="ytick_4">
     <g id="line2d_17">
      <path d="M 54 135.080229 
L 388.8 135.080229 
" clip-path="url(#pd5d250a955)" style="fill: none; stroke: #e6e6e6; stroke-width: 0.8; stroke-linecap: square"/>
     </g>
     <g id="line2d_18">
      <g>
       <use xlink:href="#m0a29eea916" x="54" y="135.080229" style="stroke: #000000; stroke-width: 0.8"/>
      </g>
     </g>
     <g id="text_10">
      <!-- 0.03 -->
      <g transform="translate(24.734375 138.879448)scale(0.1 -0.1)">
       <defs>
        <path id="DejaVuSans-33" d="M 2597 2516 
Q 3050 2419 3304 2112 
Q 3559 1806 3559 1356 
Q 3559 666 3084 287 
Q 2609 -91 1734 -91 
Q 1441 -91 1130 -33 
Q 819 25 488 141 
L 488 750 
Q 750 597 1062 519 
Q 1375 441 1716 441 
Q 2309 441 2620 675 
Q 2931 909 2931 1356 
Q 2931 1769 2642 2001 
Q 2353 2234 1838 2234 
L 1294 2234 
L 1294 2753 
L 1863 2753 
Q 2328 2753 2575 2939 
Q 2822 3125 2822 3475 
Q 2822 3834 2567 4026 
Q 2313 4219 1838 4219 
Q 1578 4219 1281 4162 
Q 984 4106 628 3988 
L 628 4550 
Q 988 4650 1302 4700 
Q 1616 4750 1894 4750 
Q 2613 4750 3031 4423 
Q 3450 4097 3450 3541 
Q 3450 3153 3228 2886 
Q 3006 2619 2597 2516 
z
" transform="scale(0.015625)"/>
       </defs>
       <use xlink:href="#DejaVuSans-30"/>
       <use xlink:href="#DejaVuSans-2e" x="63.623047"/>
       <use xlink:href="#DejaVuSans-30" x="95.410156"/>
       <use xlink:href="#DejaVuSans-33" x="159.033203"/>
      </g>
     </g>
    </g>
    <g id="ytick_5">
     <g id="line2d_19">
      <path d="M 54 105.802401 
L 388.8 105.802401 
" clip-path="url(#pd5d250a955)" style="fill: none; stroke: #e6e6e6; stroke-width: 0.8; stroke-linecap: square"/>
     </g>
     <g id="line2d_20">
      <g>
       <use xlink:href="#m0a29eea916" x="54" y="105.802401" style="stroke: #000000; stroke-width: 0.8"/>
      </g>
     </g>
     <g id="text_11">
      <!-- 0.04 -->
      <g transform="translate(24.734375 109.60162)scale(0.1 -0.1)">
       <use xlink:href="#DejaVuSans-30"/>
       <use xlink:href="#DejaVuSans-2e" x="63.623047"/>
       <use xlink:href="#DejaVuSans-30" x="95.410156"/>
       <use xlink:href="#DejaVuSans-34" x="159.033203"/>
      </g>
     </g>
    </g>
    <g id="ytick_6">
     <g id="line2d_21">
      <path d="M 54 76.524573 
L 388.8 76.524573 
" clip-path="url(#pd5d250a955)" style="fill: none; stroke: #e6e6e6; stroke-width: 0.8; stroke-linecap: square"/>
     </g>
     <g id="line2d_22">
      <g>
       <use xlink:href="#m0a29eea916" x="54" y="76.524573" style="stroke: #000000; stroke-width: 0.8"/>
      </g>
     </g>
     <g id="text_12">
      <!-- 0.05 -->
      <g transform="translate(24.734375 80.323792)scale(0.1 -0.1)">
       <defs>
        <path id="DejaVuSans-35" d="M 691 4666 
L 3169 4666 
L 3169 4134 
L 1269 4134 
L 1269 2991 
Q 1406 3038 1543 3061 
Q 1681 3084 1819 3084 
Q 2600 3084 3056 2656 
Q 3513 2228 3513 1497 
Q 3513 744 3044 326 
Q 2575 -91 1722 -91 
Q 1428 -91 1123 -41 
Q 819 9 494 109 
L 494 744 
Q 775 591 1075 516 
Q 1375 441 1709 441 
Q 2250 441 2565 725 
Q 2881 1009 2881 1497 
Q 2881 1984 2565 2268 
Q 2250 2553 1709 2553 
Q 1456 2553 1204 2497 
Q 953 2441 691 2322 
L 691 4666 
z
" transform="scale(0.015625)"/>
       </defs>
       <use xlink:href="#DejaVuSans-30"/>
       <use xlink:href="#DejaVuSans-2e" x="63.623047"/>
       <use xlink:href="#DejaVuSans-30" x="95.410156"/>
       <use xlink:href="#DejaVuSans-35" x="159.033203"/>
      </g>
     </g>
    </g>
    <g id="ytick_7">
     <g id="line2d_23">
      <path d="M 54 47.246745 
L 388.8 47.246745 
" clip-path="url(#pd5d250a955)" style="fill: none; stroke: #e6e6e6; stroke-width: 0.8; stroke-linecap: square"/>
     </g>
     <g id="line2d_24">
      <g>
       <use xlink:href="#m0a29eea916" x="54" y="47.246745" style="stroke: #000000; stroke-width: 0.8"/>
      </g>
     </g>
     <g id="text_13">
      <!-- 0.06 -->
      <g transform="translate(24.734375 51.045964)scale(0.1 -0.1)">
       <defs>
        <path id="DejaVuSans-36" d="M 2113 2584 
Q 1688 2584 1439 2293 
Q 1191 2003 1191 1497 
Q 1191 994 1439 701 
Q 1688 409 2113 409 
Q 2538 409 2786 701 
Q 3034 994 3034 1497 
Q 3034 2003 2786 2293 
Q 2538 2584 2113 2584 
z
M 3366 4563 
L 3366 3988 
Q 3128 4100 2886 4159 
Q 2644 4219 2406 4219 
Q 1781 4219 1451 3797 
Q 1122 3375 1075 2522 
Q 1259 2794 1537 2939 
Q 1816 3084 2150 3084 
Q 2853 3084 3261 2657 
Q 3669 2231 3669 1497 
Q 3669 778 3244 343 
Q 2819 -91 2113 -91 
Q 1303 -91 875 529 
Q 447 1150 447 2328 
Q 447 3434 972 4092 
Q 1497 4750 2381 4750 
Q 2619 4750 2861 4703 
Q 3103 4656 3366 4563 
z
" transform="scale(0.015625)"/>
       </defs>
       <use xlink:href="#DejaVuSans-30"/>
       <use xlink:href="#DejaVuSans-2e" x="63.623047"/>
       <use xlink:href="#DejaVuSans-30" x="95.410156"/>
       <use xlink:href="#DejaVuSans-36" x="159.033203"/>
      </g>
     </g>
    </g>
    <g id="text_14">
     <!-- deviation -->
     <g transform="translate(18.654687 150.500625)rotate(-90)scale(0.1 -0.1)">
      <defs>
       <path id="DejaVuSans-64" d="M 2906 2969 
L 2906 4863 
L 3481 4863 
L 3481 0 
L 2906 0 
L 2906 525 
Q 2725 213 2448 61 
Q 2172 -91 1784 -91 
Q 1150 -91 751 415 
Q 353 922 353 1747 
Q 353 2572 751 3078 
Q 1150 3584 1784 3584 
Q 2172 3584 2448 3432 
Q 2725 3281 2906 2969 
z
M 947 1747 
Q 947 1113 1208 752 
Q 1469 391 1925 391 
Q 2381 391 2643 752 
Q 2906 1113 2906 1747 
Q 2906 2381 2643 2742 
Q 2381 3103 1925 3103 
Q 1469 3103 1208 2742 
Q 947 2381 947 1747 
z
" transform="scale(0.015625)"/>
       <path id="DejaVuSans-65" d="M 3597 1894 
L 3597 1613 
L 953 1613 
Q 991 1019 1311 708 
Q 1631 397 2203 397 
Q 2534 397 2845 478 
Q 3156 559 3463 722 
L 3463 178 
Q 3153 47 2828 -22 
Q 2503 -91 2169 -91 
Q 1331 -91 842 396 
Q 353 884 353 1716 
Q 353 2575 817 3079 
Q 1281 3584 2069 3584 
Q 2775 3584 3186 3129 
Q 3597 2675 3597 1894 
z
M 3022 2063 
Q 3016 2534 2758 2815 
Q 2500 3097 2075 3097 
Q 1594 3097 1305 2825 
Q 1016 2553 972 2059 
L 3022 2063 
z
" transform="scale(0.015625)"/>
       <path id="DejaVuSans-76" d="M 191 3500 
L 800 3500 
L 1894 563 
L 2988 3500 
L 3597 3500 
L 2284 0 
L 1503 0 
L 191 3500 
z
" transform="scale(0.015625)"/>
       <path id="DejaVuSans-69" d="M 603 3500 
L 1178 3500 
L 1178 0 
L 603 0 
L 603 3500 
z
M 603 4863 
L 1178 4863 
L 1178 4134 
L 603 4134 
L 603 4863 
z
" transform="scale(0.015625)"/>
       <path id="DejaVuSans-61" d="M 2194 1759 
Q 1497 1759 1228 1600 
Q 959 1441 959 1056 
Q 959 750 1161 570 
Q 1363 391 1709 391 
Q 2188 391 2477 730 
Q 2766 1069 2766 1631 
L 2766 1759 
L 2194 1759 
z
M 3341 1997 
L 3341 0 
L 2766 0 
L 2766 531 
Q 2569 213 2275 61 
Q 1981 -91 1556 -91 
Q 1019 -91 701 211 
Q 384 513 384 1019 
Q 384 1609 779 1909 
Q 1175 2209 1959 2209 
L 2766 2209 
L 2766 2266 
Q 2766 2663 2505 2880 
Q 2244 3097 1772 3097 
Q 1472 3097 1187 3025 
Q 903 2953 641 2809 
L 641 3341 
Q 956 3463 1253 3523 
Q 1550 3584 1831 3584 
Q 2591 3584 2966 3190 
Q 3341 2797 3341 1997 
z
" transform="scale(0.015625)"/>
       <path id="DejaVuSans-74" d="M 1172 4494 
L 1172 3500 
L 2356 3500 
L 2356 3053 
L 1172 3053 
L 1172 1153 
Q 1172 725 1289 603 
Q 1406 481 1766 481 
L 2356 481 
L 2356 0 
L 1766 0 
Q 1100 0 847 248 
Q 594 497 594 1153 
L 594 3053 
L 172 3053 
L 172 3500 
L 594 3500 
L 594 4494 
L 1172 4494 
z
" transform="scale(0.015625)"/>
       <path id="DejaVuSans-6f" d="M 1959 3097 
Q 1497 3097 1228 2736 
Q 959 2375 959 1747 
Q 959 1119 1226 758 
Q 1494 397 1959 397 
Q 2419 397 2687 759 
Q 2956 1122 2956 1747 
Q 2956 2369 2687 2733 
Q 2419 3097 1959 3097 
z
M 1959 3584 
Q 2709 3584 3137 3096 
Q 3566 2609 3566 1747 
Q 3566 888 3137 398 
Q 2709 -91 1959 -91 
Q 1206 -91 779 398 
Q 353 888 353 1747 
Q 353 2609 779 3096 
Q 1206 3584 1959 3584 
z
" transform="scale(0.015625)"/>
       <path id="DejaVuSans-6e" d="M 3513 2113 
L 3513 0 
L 2938 0 
L 2938 2094 
Q 2938 2591 2744 2837 
Q 2550 3084 2163 3084 
Q 1697 3084 1428 2787 
Q 1159 2491 1159 1978 
L 1159 0 
L 581 0 
L 581 3500 
L 1159 3500 
L 1159 2956 
Q 1366 3272 1645 3428 
Q 1925 3584 2291 3584 
Q 2894 3584 3203 3211 
Q 3513 2838 3513 2113 
z
" transform="scale(0.015625)"/>
      </defs>
      <use xlink:href="#DejaVuSans-64"/>
      <use xlink:href="#DejaVuSans-65" x="63.476562"/>
      <use xlink:href="#DejaVuSans-76" x="125"/>
      <use xlink:href="#DejaVuSans-69" x="184.179688"/>
      <use xlink:href="#DejaVuSans-61" x="211.962891"/>
      <use xlink:href="#DejaVuSans-74" x="273.242188"/>
      <use xlink:href="#DejaVuSans-69" x="312.451172"/>
      <use xlink:href="#DejaVuSans-6f" x="340.234375"/>
      <use xlink:href="#DejaVuSans-6e" x="401.416016"/>
     </g>
    </g>
   </g>
   <g id="patch_3">
    <path d="M 54 224.28 
L 54 30.24 
" style="fill: none; stroke: #000000; stroke-width: 0.8; stroke-linejoin: miter; stroke-linecap: square"/>
   </g>
   <g id="patch_4">
    <path d="M 388.8 224.28 
L 388.8 30.24 
" style="fill: none; stroke: #e6e6e6; stroke-width: 0.8; stroke-linejoin: miter; stroke-linecap: square"/>
   </g>
   <g id="patch_5">
    <path d="M 54 224.28 
L 388.8 224.28 
" style="fill: none; stroke: #000000; stroke-width: 0.8; stroke-linejoin: miter; stroke-linecap: square"/>
   </g>
   <g id="patch_6">
    <path d="M 54 30.24 
L 388.8 30.24 
" style="fill: none; stroke: #e6e6e6; stroke-width: 0.8; stroke-linejoin: miter; stroke-linecap: square"/>
   </g>
   <g id="text_15">
    <!-- Deviations (steps: 250, interval:+-0.02) -->
    <g transform="translate(102.239063 24.24)scale(0.12 -0.12)">
     <defs>
      <path id="DejaVuSans-44" d="M 1259 4147 
L 1259 519 
L 2022 519 
Q 2988 519 3436 956 
Q 3884 1394 3884 2338 
Q 3884 3275 3436 3711 
Q 2988 4147 2022 4147 
L 1259 4147 
z
M 628 4666 
L 1925 4666 
Q 3281 4666 3915 4102 
Q 4550 3538 4550 2338 
Q 4550 1131 3912 565 
Q 3275 0 1925 0 
L 628 0 
L 628 4666 
z
" transform="scale(0.015625)"/>
      <path id="DejaVuSans-73" d="M 2834 3397 
L 2834 2853 
Q 2591 2978 2328 3040 
Q 2066 3103 1784 3103 
Q 1356 3103 1142 2972 
Q 928 2841 928 2578 
Q 928 2378 1081 2264 
Q 1234 2150 1697 2047 
L 1894 2003 
Q 2506 1872 2764 1633 
Q 3022 1394 3022 966 
Q 3022 478 2636 193 
Q 2250 -91 1575 -91 
Q 1294 -91 989 -36 
Q 684 19 347 128 
L 347 722 
Q 666 556 975 473 
Q 1284 391 1588 391 
Q 1994 391 2212 530 
Q 2431 669 2431 922 
Q 2431 1156 2273 1281 
Q 2116 1406 1581 1522 
L 1381 1569 
Q 847 1681 609 1914 
Q 372 2147 372 2553 
Q 372 3047 722 3315 
Q 1072 3584 1716 3584 
Q 2034 3584 2315 3537 
Q 2597 3491 2834 3397 
z
" transform="scale(0.015625)"/>
      <path id="DejaVuSans-28" d="M 1984 4856 
Q 1566 4138 1362 3434 
Q 1159 2731 1159 2009 
Q 1159 1288 1364 580 
Q 1569 -128 1984 -844 
L 1484 -844 
Q 1016 -109 783 600 
Q 550 1309 550 2009 
Q 550 2706 781 3412 
Q 1013 4119 1484 4856 
L 1984 4856 
z
" transform="scale(0.015625)"/>
      <path id="DejaVuSans-70" d="M 1159 525 
L 1159 -1331 
L 581 -1331 
L 581 3500 
L 1159 3500 
L 1159 2969 
Q 1341 3281 1617 3432 
Q 1894 3584 2278 3584 
Q 2916 3584 3314 3078 
Q 3713 2572 3713 1747 
Q 3713 922 3314 415 
Q 2916 -91 2278 -91 
Q 1894 -91 1617 61 
Q 1341 213 1159 525 
z
M 3116 1747 
Q 3116 2381 2855 2742 
Q 2594 3103 2138 3103 
Q 1681 3103 1420 2742 
Q 1159 2381 1159 1747 
Q 1159 1113 1420 752 
Q 1681 391 2138 391 
Q 2594 391 2855 752 
Q 3116 1113 3116 1747 
z
" transform="scale(0.015625)"/>
      <path id="DejaVuSans-3a" d="M 750 794 
L 1409 794 
L 1409 0 
L 750 0 
L 750 794 
z
M 750 3309 
L 1409 3309 
L 1409 2516 
L 750 2516 
L 750 3309 
z
" transform="scale(0.015625)"/>
      <path id="DejaVuSans-2c" d="M 750 794 
L 1409 794 
L 1409 256 
L 897 -744 
L 494 -744 
L 750 256 
L 750 794 
z
" transform="scale(0.015625)"/>
      <path id="DejaVuSans-72" d="M 2631 2963 
Q 2534 3019 2420 3045 
Q 2306 3072 2169 3072 
Q 1681 3072 1420 2755 
Q 1159 2438 1159 1844 
L 1159 0 
L 581 0 
L 581 3500 
L 1159 3500 
L 1159 2956 
Q 1341 3275 1631 3429 
Q 1922 3584 2338 3584 
Q 2397 3584 2469 3576 
Q 2541 3569 2628 3553 
L 2631 2963 
z
" transform="scale(0.015625)"/>
      <path id="DejaVuSans-6c" d="M 603 4863 
L 1178 4863 
L 1178 0 
L 603 0 
L 603 4863 
z
" transform="scale(0.015625)"/>
      <path id="DejaVuSans-2b" d="M 2944 4013 
L 2944 2272 
L 4684 2272 
L 4684 1741 
L 2944 1741 
L 2944 0 
L 2419 0 
L 2419 1741 
L 678 1741 
L 678 2272 
L 2419 2272 
L 2419 4013 
L 2944 4013 
z
" transform="scale(0.015625)"/>
      <path id="DejaVuSans-29" d="M 513 4856 
L 1013 4856 
Q 1481 4119 1714 3412 
Q 1947 2706 1947 2009 
Q 1947 1309 1714 600 
Q 1481 -109 1013 -844 
L 513 -844 
Q 928 -128 1133 580 
Q 1338 1288 1338 2009 
Q 1338 2731 1133 3434 
Q 928 4138 513 4856 
z
" transform="scale(0.015625)"/>
     </defs>
     <use xlink:href="#DejaVuSans-44"/>
     <use xlink:href="#DejaVuSans-65" x="77.001953"/>
     <use xlink:href="#DejaVuSans-76" x="138.525391"/>
     <use xlink:href="#DejaVuSans-69" x="197.705078"/>
     <use xlink:href="#DejaVuSans-61" x="225.488281"/>
     <use xlink:href="#DejaVuSans-74" x="286.767578"/>
     <use xlink:href="#DejaVuSans-69" x="325.976562"/>
     <use xlink:href="#DejaVuSans-6f" x="353.759766"/>
     <use xlink:href="#DejaVuSans-6e" x="414.941406"/>
     <use xlink:href="#DejaVuSans-73" x="478.320312"/>
     <use xlink:href="#DejaVuSans-20" x="530.419922"/>
     <use xlink:href="#DejaVuSans-28" x="562.207031"/>
     <use xlink:href="#DejaVuSans-73" x="601.220703"/>
     <use xlink:href="#DejaVuSans-74" x="653.320312"/>
     <use xlink:href="#DejaVuSans-65" x="692.529297"/>
     <use xlink:href="#DejaVuSans-70" x="754.052734"/>
     <use xlink:href="#DejaVuSans-73" x="817.529297"/>
     <use xlink:href="#DejaVuSans-3a" x="869.628906"/>
     <use xlink:href="#DejaVuSans-20" x="903.320312"/>
     <use xlink:href="#DejaVuSans-32" x="935.107422"/>
     <use xlink:href="#DejaVuSans-35" x="998.730469"/>
     <use xlink:href="#DejaVuSans-30" x="1062.353516"/>
     <use xlink:href="#DejaVuSans-2c" x="1125.976562"/>
     <use xlink:href="#DejaVuSans-20" x="1157.763672"/>
     <use xlink:href="#DejaVuSans-69" x="1189.550781"/>
     <use xlink:href="#DejaVuSans-6e" x="1217.333984"/>
     <use xlink:href="#DejaVuSans-74" x="1280.712891"/>
     <use xlink:href="#DejaVuSans-65" x="1319.921875"/>
     <use xlink:href="#DejaVuSans-72" x="1381.445312"/>
     <use xlink:href="#DejaVuSans-76" x="1422.558594"/>
     <use xlink:href="#DejaVuSans-61" x="1481.738281"/>
     <use xlink:href="#DejaVuSans-6c" x="1543.017578"/>
     <use xlink:href="#DejaVuSans-3a" x="1570.800781"/>
     <use xlink:href="#DejaVuSans-2b" x="1604.492188"/>
     <use xlink:href="#DejaVuSans-2d" x="1688.28125"/>
     <use xlink:href="#DejaVuSans-30" x="1724.365234"/>
     <use xlink:href="#DejaVuSans-2e" x="1787.988281"/>
     <use xlink:href="#DejaVuSans-30" x="1819.775391"/>
     <use xlink:href="#DejaVuSans-32" x="1883.398438"/>
     <use xlink:href="#DejaVuSans-29" x="1947.021484"/>
    </g>
   </g>
   <g id="line2d_25">
    <path d="M 69.218182 200.074109 
L 70.440526 200.18733 
L 71.66287 198.634473 
L 75.329901 198.334706 
L 78.996933 197.633866 
L 80.219277 197.494778 
L 81.441621 197.572376 
L 82.663965 196.656202 
L 83.886309 197.493994 
L 85.108653 197.441106 
L 86.330997 196.785998 
L 87.553341 195.682794 
L 88.775685 195.477836 
L 89.998028 194.402178 
L 91.220372 193.026551 
L 92.442716 192.731824 
L 93.66506 192.984896 
L 94.887404 193.38451 
L 96.109748 192.287626 
L 97.332092 191.945037 
L 98.554436 190.956938 
L 100.999124 191.356468 
L 102.221468 190.909819 
L 103.443812 189.87766 
L 104.666156 189.351759 
L 105.888499 188.38582 
L 108.333187 187.513771 
L 109.555531 188.115269 
L 110.777875 187.884613 
L 112.000219 187.398224 
L 113.222563 186.634536 
L 114.444907 186.049215 
L 115.667251 186.18594 
L 116.889595 184.433067 
L 118.111939 185.327183 
L 119.334283 184.82389 
L 121.77897 184.390726 
L 123.001314 184.546155 
L 124.223658 183.818191 
L 125.446002 183.89185 
L 126.668346 182.474345 
L 127.89069 182.226518 
L 129.113034 183.47769 
L 131.557722 182.090529 
L 132.780066 181.905351 
L 134.00241 180.971595 
L 135.224754 179.548955 
L 136.447097 179.466799 
L 137.669441 178.757963 
L 138.891785 178.840253 
L 140.114129 178.036772 
L 141.336473 176.999127 
L 142.558817 176.32893 
L 143.781161 174.984492 
L 145.003505 174.031016 
L 146.225849 171.452445 
L 147.448193 172.427862 
L 148.670537 172.569787 
L 149.892881 171.845906 
L 151.115225 170.625267 
L 152.337568 170.780899 
L 153.559912 172.060979 
L 154.782256 172.008265 
L 156.0046 173.279904 
L 157.226944 172.932821 
L 158.449288 174.177579 
L 159.671632 173.042106 
L 160.893976 172.477738 
L 162.11632 172.631566 
L 163.338664 170.614292 
L 164.561008 168.914741 
L 165.783352 167.937723 
L 167.005696 167.82865 
L 168.228039 167.111451 
L 169.450383 166.656937 
L 170.672727 165.856769 
L 171.895071 167.058386 
L 173.117415 166.702633 
L 174.339759 166.863292 
L 175.562103 167.608062 
L 176.784447 169.140713 
L 178.006791 168.668084 
L 179.229135 167.993908 
L 180.451479 167.488376 
L 181.673823 167.109172 
L 182.896166 166.186759 
L 184.11851 165.657485 
L 185.340854 165.978332 
L 189.007886 163.436629 
L 190.23023 164.180295 
L 191.452574 162.159742 
L 192.674918 161.222822 
L 193.897262 160.869275 
L 195.119606 161.703128 
L 196.34195 160.212978 
L 197.564294 159.86925 
L 198.786637 160.117157 
L 200.008981 157.561982 
L 201.231325 157.33876 
L 202.453669 156.487026 
L 203.676013 157.512187 
L 204.898357 157.861304 
L 207.343045 156.537603 
L 209.787733 156.705923 
L 211.010077 157.612236 
L 212.232421 158.333783 
L 213.454765 157.715816 
L 214.677108 155.994945 
L 215.899452 154.835204 
L 217.121796 154.867617 
L 218.34414 155.291462 
L 219.566484 155.933613 
L 220.788828 156.227789 
L 222.011172 155.146956 
L 223.233516 152.609806 
L 224.45586 153.723975 
L 225.678204 153.05075 
L 226.900548 151.702203 
L 228.122892 150.785792 
L 230.567579 150.181677 
L 231.789923 148.40449 
L 233.012267 146.327291 
L 234.234611 145.335434 
L 235.456955 146.951969 
L 236.679299 145.800509 
L 237.901643 147.252968 
L 239.123987 146.640036 
L 240.346331 146.348324 
L 241.568675 145.337024 
L 244.013363 142.677802 
L 245.235706 144.731437 
L 246.45805 145.193448 
L 248.902738 142.487166 
L 250.125082 138.158542 
L 251.347426 139.288107 
L 252.56977 139.203341 
L 253.792114 138.6968 
L 255.014458 140.445394 
L 256.236802 140.603713 
L 257.459146 139.173218 
L 258.68149 137.167012 
L 261.126177 135.609898 
L 262.348521 137.20195 
L 263.570865 137.62275 
L 264.793209 136.336848 
L 266.015553 135.851408 
L 267.237897 133.66664 
L 268.460241 135.146373 
L 269.682585 134.753887 
L 270.904929 133.95522 
L 272.127273 135.58591 
L 273.349617 136.249498 
L 274.571961 136.364825 
L 275.794304 134.331312 
L 278.238992 134.085236 
L 279.461336 136.081267 
L 280.68368 134.721393 
L 281.906024 136.934477 
L 283.128368 138.834402 
L 284.350712 139.213913 
L 285.573056 139.198763 
L 286.7954 138.21025 
L 288.017744 137.575295 
L 289.240088 137.941036 
L 290.462432 136.452207 
L 291.684775 136.35107 
L 292.907119 135.104962 
L 294.129463 132.849861 
L 295.351807 129.927343 
L 297.796495 127.319101 
L 299.018839 126.600085 
L 300.241183 126.154852 
L 301.463527 126.737602 
L 302.685871 127.867213 
L 303.908215 126.071734 
L 305.130559 128.475332 
L 306.352903 129.091207 
L 307.575246 129.872852 
L 308.79759 129.127119 
L 310.019934 130.770413 
L 311.242278 134.124053 
L 312.464622 133.684212 
L 313.686966 132.377323 
L 314.90931 132.461282 
L 316.131654 134.089692 
L 317.353998 132.41919 
L 318.576342 132.469493 
L 319.798686 131.827745 
L 321.02103 129.142008 
L 322.243373 129.356474 
L 323.465717 127.987576 
L 324.688061 125.058245 
L 325.910405 125.948209 
L 327.132749 126.106961 
L 328.355093 124.448077 
L 329.577437 123.645653 
L 330.799781 124.107255 
L 332.022125 125.92267 
L 333.244469 125.372018 
L 334.466813 124.446681 
L 335.689157 125.930016 
L 336.911501 128.405226 
L 338.133844 126.117417 
L 339.356188 128.300464 
L 340.578532 129.120815 
L 341.800876 130.428662 
L 343.02322 128.209486 
L 344.245564 126.487231 
L 345.467908 128.659977 
L 346.690252 129.701313 
L 347.912596 126.972293 
L 349.13494 125.347025 
L 350.357284 126.710232 
L 351.579628 124.525131 
L 354.024315 126.791884 
L 355.246659 127.742277 
L 356.469003 125.183442 
L 357.691347 125.906248 
L 358.913691 124.609449 
L 360.136035 124.650934 
L 361.358379 126.002107 
L 362.580723 126.17747 
L 363.803067 126.239197 
L 365.025411 127.121461 
L 366.247755 126.160962 
L 367.470099 123.17853 
L 368.692442 123.202911 
L 369.914786 121.792584 
L 371.13713 123.227077 
L 372.359474 122.287492 
L 373.581818 121.680442 
L 373.581818 121.680442 
" clip-path="url(#pd5d250a955)" style="fill: none; stroke-dasharray: 1.5,2.475; stroke-dashoffset: 0; stroke: #808080; stroke-width: 1.5"/>
   </g>
   <g id="line2d_26">
    <path d="M 69.218182 189.897639 
L 70.440526 190.536609 
L 71.66287 190.71447 
L 72.885214 191.185591 
L 74.107558 191.52387 
L 75.329901 192.06006 
L 76.552245 192.021303 
L 77.774589 192.906621 
L 78.996933 192.744107 
L 83.886309 195.419528 
L 85.108653 194.373165 
L 86.330997 194.73316 
L 87.553341 194.587335 
L 88.775685 194.906776 
L 89.998028 194.856722 
L 91.220372 195.872988 
L 92.442716 196.359592 
L 94.887404 195.783932 
L 96.109748 195.351015 
L 97.332092 196.641961 
L 98.554436 196.647177 
L 99.77678 196.303808 
L 100.999124 195.844881 
L 102.221468 195.674082 
L 103.443812 195.275573 
L 105.888499 195.86445 
L 107.110843 196.514707 
L 109.555531 196.79491 
L 110.777875 197.385591 
L 112.000219 198.224724 
L 113.222563 198.457026 
L 114.444907 198.25019 
L 115.667251 198.366965 
L 116.889595 197.501171 
L 118.111939 197.391836 
L 119.334283 196.504452 
L 120.556627 195.265876 
L 121.77897 195.218666 
L 123.001314 194.484119 
L 124.223658 194.340795 
L 129.113034 195.353679 
L 130.335378 195.322666 
L 131.557722 196.160027 
L 132.780066 197.202456 
L 134.00241 197.003096 
L 135.224754 197.67404 
L 136.447097 198.08592 
L 137.669441 197.942959 
L 138.891785 198.029729 
L 140.114129 197.723744 
L 141.336473 198.207979 
L 142.558817 197.457122 
L 143.781161 197.529805 
L 145.003505 197.063591 
L 146.225849 197.253478 
L 147.448193 197.159999 
L 148.670537 196.621007 
L 149.892881 197.102222 
L 151.115225 197.222203 
L 152.337568 197.876504 
L 153.559912 197.171384 
L 154.782256 197.989056 
L 156.0046 197.879132 
L 157.226944 197.912687 
L 159.671632 197.498976 
L 160.893976 197.750886 
L 162.11632 197.33339 
L 163.338664 197.28173 
L 164.561008 196.628332 
L 167.005696 196.560951 
L 168.228039 196.43731 
L 169.450383 197.055018 
L 170.672727 197.469106 
L 171.895071 198.130996 
L 173.117415 197.55226 
L 175.562103 197.261776 
L 178.006791 197.972224 
L 179.229135 198.579616 
L 180.451479 198.010866 
L 181.673823 198.081847 
L 182.896166 197.679813 
L 184.11851 197.645059 
L 186.563198 198.69336 
L 187.785542 199.152722 
L 189.007886 199.133891 
L 190.23023 198.801044 
L 191.452574 198.621322 
L 192.674918 199.244336 
L 193.897262 199.161046 
L 195.119606 199.199569 
L 196.34195 198.749882 
L 197.564294 198.659063 
L 198.786637 198.42641 
L 200.008981 198.016653 
L 202.453669 198.591453 
L 203.676013 198.503464 
L 204.898357 198.561344 
L 206.120701 199.100956 
L 207.343045 199.274642 
L 208.565389 199.829433 
L 209.787733 200.062862 
L 211.010077 199.777028 
L 212.232421 200.318295 
L 213.454765 200.309616 
L 214.677108 200.787973 
L 215.899452 200.565505 
L 217.121796 199.529588 
L 218.34414 199.585446 
L 219.566484 199.889328 
L 220.788828 199.976065 
L 222.011172 199.2585 
L 223.233516 198.887531 
L 224.45586 198.90369 
L 225.678204 198.549082 
L 228.122892 198.355106 
L 229.345235 199.106761 
L 230.567579 198.568697 
L 233.012267 198.341333 
L 235.456955 198.671759 
L 236.679299 197.951032 
L 237.901643 197.474448 
L 241.568675 195.440962 
L 244.013363 194.411053 
L 245.235706 194.348245 
L 247.680394 193.657414 
L 250.125082 193.415994 
L 251.347426 192.595719 
L 252.56977 192.648486 
L 253.792114 192.061222 
L 255.014458 192.189408 
L 256.236802 191.880245 
L 257.459146 190.816487 
L 258.68149 190.721043 
L 259.903834 190.502481 
L 263.570865 188.848616 
L 264.793209 187.375404 
L 266.015553 186.468364 
L 268.460241 183.25017 
L 269.682585 182.523646 
L 270.904929 181.285509 
L 272.127273 181.409553 
L 273.349617 180.783232 
L 274.571961 180.455664 
L 277.016648 180.255668 
L 278.238992 179.861171 
L 279.461336 181.150122 
L 280.68368 180.27184 
L 283.128368 179.736308 
L 285.573056 177.837463 
L 286.7954 175.616799 
L 288.017744 174.475786 
L 289.240088 172.850352 
L 290.462432 172.180584 
L 291.684775 171.834056 
L 292.907119 172.001763 
L 294.129463 170.963821 
L 295.351807 170.701296 
L 296.574151 169.582234 
L 297.796495 169.194403 
L 299.018839 170.403165 
L 300.241183 169.89308 
L 301.463527 169.825564 
L 302.685871 169.043243 
L 303.908215 166.120473 
L 305.130559 164.585159 
L 307.575246 162.524423 
L 308.79759 162.4062 
L 310.019934 161.309832 
L 311.242278 159.039602 
L 312.464622 155.534897 
L 313.686966 155.105489 
L 314.90931 153.080664 
L 316.131654 153.471573 
L 317.353998 153.119436 
L 318.576342 151.563549 
L 321.02103 149.868083 
L 323.465717 150.608669 
L 324.688061 152.024028 
L 325.910405 150.88047 
L 327.132749 152.457366 
L 328.355093 150.713709 
L 329.577437 150.149314 
L 330.799781 150.462786 
L 332.022125 150.57644 
L 333.244469 149.765263 
L 334.466813 148.299422 
L 335.689157 148.965549 
L 336.911501 148.072109 
L 338.133844 148.655622 
L 339.356188 148.263651 
L 340.578532 150.401961 
L 341.800876 151.417971 
L 343.02322 150.688209 
L 344.245564 150.904663 
L 345.467908 150.900868 
L 346.690252 150.666421 
L 347.912596 149.531542 
L 349.13494 151.707625 
L 350.357284 151.872707 
L 352.801972 151.375379 
L 354.024315 150.927381 
L 355.246659 152.090789 
L 356.469003 151.035035 
L 357.691347 152.159328 
L 358.913691 154.741476 
L 360.136035 156.868264 
L 361.358379 157.720361 
L 362.580723 158.134806 
L 363.803067 161.052508 
L 365.025411 162.47906 
L 366.247755 165.207952 
L 367.470099 168.410102 
L 368.692442 169.931684 
L 369.914786 172.430885 
L 371.13713 174.010725 
L 372.359474 176.002874 
L 373.581818 178.268856 
L 373.581818 178.268856 
" clip-path="url(#pd5d250a955)" style="fill: none; stroke-dasharray: 9.6,2.4,1.5,2.4; stroke-dashoffset: 0; stroke: #808080; stroke-width: 1.5"/>
   </g>
   <g id="line2d_27">
    <path d="M 69.218182 215.40549 
L 71.66287 215.414483 
L 72.885214 215.454751 
L 81.441621 214.197484 
L 82.663965 213.775571 
L 85.108653 213.415868 
L 92.442716 212.155502 
L 96.109748 211.12235 
L 97.332092 211.019142 
L 100.999124 209.929662 
L 105.888499 209.606398 
L 107.110843 209.287671 
L 108.333187 209.145379 
L 113.222563 209.044704 
L 114.444907 208.829172 
L 115.667251 208.439817 
L 118.111939 208.034026 
L 119.334283 208.340783 
L 120.556627 208.485321 
L 124.223658 207.337741 
L 127.89069 207.321646 
L 129.113034 207.044779 
L 130.335378 207.23892 
L 132.780066 207.174164 
L 134.00241 206.700608 
L 136.447097 206.859553 
L 138.891785 205.976782 
L 140.114129 206.343376 
L 141.336473 206.122831 
L 142.558817 205.550672 
L 143.781161 205.115441 
L 145.003505 205.236724 
L 147.448193 205.781677 
L 148.670537 205.536469 
L 151.115225 206.236131 
L 152.337568 205.639968 
L 153.559912 205.905495 
L 154.782256 206.475185 
L 156.0046 206.159335 
L 158.449288 205.007567 
L 159.671632 204.615667 
L 160.893976 204.71327 
L 162.11632 204.588994 
L 163.338664 204.26574 
L 164.561008 203.777995 
L 165.783352 203.472173 
L 167.005696 203.312499 
L 169.450383 203.914576 
L 170.672727 204.032125 
L 173.117415 203.845255 
L 175.562103 202.984621 
L 176.784447 203.271635 
L 178.006791 202.613822 
L 180.451479 202.484663 
L 181.673823 202.634459 
L 182.896166 202.491143 
L 184.11851 202.706383 
L 185.340854 202.683997 
L 186.563198 202.927574 
L 187.785542 202.839998 
L 189.007886 202.528876 
L 190.23023 203.311097 
L 191.452574 203.005741 
L 192.674918 203.148157 
L 193.897262 203.162543 
L 195.119606 203.451157 
L 196.34195 203.235472 
L 197.564294 203.510994 
L 198.786637 203.478565 
L 200.008981 203.903552 
L 201.231325 204.129445 
L 202.453669 203.73568 
L 203.676013 204.064319 
L 204.898357 204.148404 
L 206.120701 203.91847 
L 207.343045 203.328671 
L 208.565389 203.084936 
L 209.787733 202.477303 
L 212.232421 201.75996 
L 214.677108 201.815063 
L 215.899452 201.769417 
L 218.34414 201.525614 
L 219.566484 201.790229 
L 223.233516 202.048087 
L 224.45586 202.280742 
L 225.678204 201.605244 
L 226.900548 202.075951 
L 229.345235 201.192248 
L 234.234611 200.965645 
L 235.456955 201.177673 
L 236.679299 200.917915 
L 237.901643 201.356645 
L 239.123987 201.053577 
L 240.346331 201.103291 
L 241.568675 201.288171 
L 242.791019 200.877173 
L 244.013363 200.654935 
L 250.125082 201.269146 
L 251.347426 200.695836 
L 252.56977 200.248221 
L 253.792114 199.607527 
L 255.014458 200.157157 
L 256.236802 200.532503 
L 257.459146 200.522106 
L 259.903834 200.27736 
L 261.126177 200.364215 
L 262.348521 199.379143 
L 263.570865 199.708724 
L 264.793209 200.425987 
L 266.015553 200.810496 
L 267.237897 200.056734 
L 268.460241 199.067587 
L 269.682585 198.839871 
L 270.904929 198.768643 
L 272.127273 198.869215 
L 273.349617 198.537341 
L 274.571961 199.264291 
L 275.794304 199.143667 
L 277.016648 198.428036 
L 278.238992 198.329462 
L 279.461336 198.702813 
L 280.68368 198.673397 
L 281.906024 198.113203 
L 283.128368 197.695699 
L 284.350712 196.948281 
L 285.573056 197.00608 
L 286.7954 195.79907 
L 288.017744 195.425371 
L 289.240088 194.631405 
L 290.462432 194.220166 
L 291.684775 194.11038 
L 292.907119 193.644231 
L 294.129463 193.410977 
L 297.796495 192.298211 
L 300.241183 191.997305 
L 301.463527 192.403591 
L 302.685871 192.319129 
L 303.908215 191.192102 
L 305.130559 191.002422 
L 306.352903 190.184323 
L 307.575246 189.841317 
L 308.79759 189.116361 
L 310.019934 188.129261 
L 311.242278 186.463751 
L 312.464622 181.883097 
L 313.686966 181.17712 
L 314.90931 178.871769 
L 316.131654 177.962642 
L 317.353998 176.669954 
L 318.576342 175.116577 
L 319.798686 174.286306 
L 321.02103 173.005163 
L 322.243373 173.054969 
L 323.465717 171.924355 
L 324.688061 173.13557 
L 325.910405 171.757762 
L 327.132749 171.94283 
L 330.799781 166.375725 
L 333.244469 164.014602 
L 334.466813 162.160646 
L 335.689157 162.387798 
L 336.911501 161.101985 
L 338.133844 160.42917 
L 339.356188 159.024197 
L 340.578532 159.163572 
L 341.800876 159.711836 
L 343.02322 158.535527 
L 344.245564 158.363204 
L 345.467908 155.653144 
L 346.690252 153.401723 
L 347.912596 150.192061 
L 350.357284 148.516068 
L 352.801972 144.725912 
L 354.024315 143.190275 
L 355.246659 142.574697 
L 356.469003 140.665815 
L 357.691347 140.615843 
L 358.913691 142.319365 
L 360.136035 142.896442 
L 361.358379 142.876132 
L 362.580723 142.682896 
L 363.803067 144.898337 
L 365.025411 145.704491 
L 366.247755 148.108392 
L 367.470099 150.867042 
L 368.692442 151.535091 
L 369.914786 153.704292 
L 371.13713 154.337766 
L 373.581818 158.239669 
L 373.581818 158.239669 
" clip-path="url(#pd5d250a955)" style="fill: none; stroke-dasharray: 5.55,2.4; stroke-dashoffset: 0; stroke: #808080; stroke-width: 1.5"/>
   </g>
   <g id="line2d_28">
    <path d="M 69.218182 206.138037 
L 70.440526 203.122298 
L 71.66287 199.662717 
L 72.885214 197.421154 
L 74.107558 192.556167 
L 75.329901 188.932904 
L 77.774589 189.785333 
L 78.996933 191.083129 
L 80.219277 193.798423 
L 81.441621 197.393259 
L 83.886309 205.750366 
L 85.108653 207.298279 
L 86.330997 207.434004 
L 87.553341 205.450923 
L 88.775685 202.228636 
L 89.998028 200.819192 
L 92.442716 200.864789 
L 93.66506 201.854282 
L 94.887404 202.194159 
L 96.109748 203.269623 
L 97.332092 203.826067 
L 98.554436 204.548052 
L 99.77678 205.064527 
L 100.999124 204.677442 
L 103.443812 206.876869 
L 105.888499 207.596142 
L 107.110843 207.478978 
L 108.333187 208.098377 
L 109.555531 207.704727 
L 110.777875 207.727826 
L 112.000219 208.346527 
L 113.222563 208.588623 
L 114.444907 208.569874 
L 115.667251 208.921794 
L 116.889595 209.052335 
L 118.111939 208.638778 
L 119.334283 208.950662 
L 120.556627 208.840802 
L 123.001314 209.050649 
L 124.223658 208.402858 
L 125.446002 208.619476 
L 126.668346 208.654218 
L 127.89069 208.999687 
L 131.557722 209.12679 
L 132.780066 209.437179 
L 134.00241 209.433483 
L 135.224754 209.177056 
L 136.447097 209.532654 
L 138.891785 209.056616 
L 140.114129 209.119539 
L 141.336473 208.945322 
L 142.558817 208.534543 
L 145.003505 208.132589 
L 146.225849 208.108026 
L 147.448193 208.552798 
L 148.670537 208.509832 
L 149.892881 209.086166 
L 151.115225 209.107472 
L 152.337568 208.928789 
L 154.782256 209.269553 
L 157.226944 209.121692 
L 158.449288 208.927633 
L 159.671632 208.426435 
L 163.338664 208.131429 
L 164.561008 207.712 
L 165.783352 207.576199 
L 167.005696 207.661822 
L 169.450383 207.644748 
L 170.672727 207.848522 
L 171.895071 208.198455 
L 173.117415 207.954191 
L 174.339759 207.51792 
L 175.562103 207.364092 
L 176.784447 207.569009 
L 178.006791 207.230412 
L 179.229135 207.008221 
L 180.451479 206.98377 
L 181.673823 207.336122 
L 182.896166 207.175815 
L 184.11851 207.223162 
L 185.340854 207.47344 
L 186.563198 207.853291 
L 187.785542 207.837252 
L 189.007886 207.640169 
L 190.23023 208.256901 
L 191.452574 207.893322 
L 192.674918 208.15943 
L 193.897262 207.697232 
L 195.119606 207.61682 
L 196.34195 207.279231 
L 198.786637 207.581573 
L 201.231325 207.726683 
L 202.453669 207.225178 
L 203.676013 207.476411 
L 206.120701 207.541301 
L 208.565389 207.507189 
L 211.010077 206.800846 
L 212.232421 206.874803 
L 213.454765 206.80007 
L 214.677108 207.128183 
L 215.899452 207.244085 
L 217.121796 206.84307 
L 220.788828 207.208993 
L 223.233516 207.048251 
L 224.45586 207.373895 
L 225.678204 206.812921 
L 226.900548 206.985822 
L 231.789923 206.340367 
L 234.234611 206.267622 
L 235.456955 206.54229 
L 236.679299 206.359797 
L 237.901643 206.617823 
L 239.123987 206.066803 
L 240.346331 206.0217 
L 241.568675 206.286009 
L 244.013363 205.80884 
L 246.45805 206.059604 
L 247.680394 206.048353 
L 250.125082 206.366177 
L 252.56977 205.686903 
L 253.792114 205.488316 
L 256.236802 206.116313 
L 258.68149 205.578622 
L 261.126177 205.522167 
L 262.348521 204.986625 
L 264.793209 206.375159 
L 268.460241 206.177194 
L 270.904929 206.839511 
L 272.127273 206.892202 
L 273.349617 206.76851 
L 274.571961 207.305207 
L 275.794304 206.782692 
L 277.016648 206.445096 
L 278.238992 206.657767 
L 279.461336 206.680598 
L 280.68368 206.387599 
L 281.906024 205.5885 
L 283.128368 205.544775 
L 284.350712 205.328992 
L 285.573056 205.279774 
L 286.7954 204.908949 
L 288.017744 205.156751 
L 290.462432 204.873809 
L 292.907119 205.009017 
L 294.129463 205.337119 
L 296.574151 205.224154 
L 297.796495 205.675765 
L 299.018839 205.935931 
L 300.241183 205.914307 
L 303.908215 205.225714 
L 306.352903 205.448249 
L 307.575246 205.208674 
L 308.79759 205.461124 
L 312.464622 204.573093 
L 313.686966 205.283825 
L 314.90931 205.323394 
L 316.131654 205.250321 
L 319.798686 205.88017 
L 321.02103 205.401863 
L 322.243373 205.709907 
L 323.465717 205.898072 
L 324.688061 205.778425 
L 325.910405 205.311497 
L 327.132749 205.685091 
L 329.577437 205.970836 
L 330.799781 205.857635 
L 332.022125 205.976762 
L 333.244469 206.333004 
L 334.466813 206.334974 
L 336.911501 206.645384 
L 339.356188 206.377528 
L 340.578532 205.856753 
L 343.02322 205.154494 
L 345.467908 204.323325 
L 349.13494 203.546426 
L 350.357284 203.829328 
L 351.579628 203.432316 
L 352.801972 203.937567 
L 355.246659 204.293025 
L 358.913691 204.951481 
L 360.136035 204.803809 
L 361.358379 205.204639 
L 362.580723 205.214672 
L 363.803067 205.932398 
L 365.025411 206.122142 
L 366.247755 206.521695 
L 371.13713 207.43214 
L 372.359474 208.124231 
L 373.581818 208.617935 
L 373.581818 208.617935 
" clip-path="url(#pd5d250a955)" style="fill: none; stroke: #808080; stroke-width: 1.5; stroke-linecap: square"/>
   </g>
   <g id="line2d_29">
    <path d="M 69.218182 206.085861 
L 70.440526 203.051961 
L 71.66287 199.57022 
L 72.885214 197.308595 
L 74.107558 192.377986 
L 75.329901 188.695594 
L 76.552245 188.938686 
L 77.774589 188.995947 
L 78.996933 189.243868 
L 80.219277 189.187391 
L 81.441621 189.675407 
L 82.663965 188.82372 
L 83.886309 189.772533 
L 85.108653 189.007958 
L 86.330997 189.82764 
L 87.553341 190.234151 
L 88.775685 189.190746 
L 89.998028 188.905651 
L 91.220372 188.480238 
L 92.442716 188.99638 
L 93.66506 188.18405 
L 94.887404 189.358729 
L 96.109748 189.1489 
L 98.554436 188.970173 
L 99.77678 187.784734 
L 100.999124 188.253147 
L 102.221468 189.547987 
L 103.443812 189.678743 
L 107.110843 190.717453 
L 108.333187 193.396372 
L 109.555531 195.754797 
L 110.777875 198.550951 
L 112.000219 201.91877 
L 113.222563 202.412802 
L 114.444907 201.004106 
L 115.667251 198.069302 
L 116.889595 195.608652 
L 118.111939 192.633468 
L 119.334283 191.447432 
L 120.556627 190.642611 
L 121.77897 191.626264 
L 123.001314 192.195971 
L 124.223658 191.853354 
L 125.446002 192.345452 
L 126.668346 193.320305 
L 127.89069 193.920881 
L 129.113034 194.80994 
L 130.335378 194.420108 
L 131.557722 194.742083 
L 132.780066 194.934902 
L 134.00241 196.178089 
L 135.224754 196.032437 
L 136.447097 196.847253 
L 137.669441 197.235446 
L 138.891785 196.746868 
L 140.114129 196.532237 
L 141.336473 196.602158 
L 142.558817 195.691441 
L 143.781161 196.046983 
L 145.003505 195.666586 
L 146.225849 195.104465 
L 147.448193 195.643406 
L 148.670537 195.962314 
L 149.892881 196.957545 
L 152.337568 197.792014 
L 153.559912 198.042713 
L 154.782256 198.561409 
L 158.449288 198.927085 
L 159.671632 198.337449 
L 160.893976 198.187918 
L 163.338664 198.460121 
L 164.561008 197.917651 
L 168.228039 198.892148 
L 169.450383 198.939206 
L 171.895071 200.855324 
L 173.117415 200.617982 
L 174.339759 198.81606 
L 175.562103 198.84957 
L 176.784447 199.252279 
L 179.229135 198.294393 
L 181.673823 199.176121 
L 182.896166 199.248102 
L 185.340854 200.586317 
L 186.563198 200.911468 
L 189.007886 200.364823 
L 190.23023 201.666607 
L 191.452574 201.046542 
L 192.674918 200.909601 
L 193.897262 200.428693 
L 195.119606 200.380771 
L 196.34195 200.502781 
L 197.564294 200.321026 
L 201.231325 201.242204 
L 206.120701 200.607953 
L 207.343045 200.333438 
L 208.565389 200.740947 
L 211.010077 199.696416 
L 214.677108 202.164326 
L 215.899452 201.969375 
L 217.121796 202.055761 
L 218.34414 201.581949 
L 220.788828 202.056568 
L 222.011172 201.517165 
L 223.233516 201.527772 
L 224.45586 202.12217 
L 225.678204 201.66145 
L 228.122892 201.06966 
L 229.345235 200.779778 
L 230.567579 200.313298 
L 231.789923 200.409918 
L 234.234611 200.336009 
L 235.456955 200.760127 
L 236.679299 200.970277 
L 237.901643 201.692255 
L 239.123987 200.799462 
L 240.346331 200.948459 
L 241.568675 201.274121 
L 242.791019 200.852351 
L 244.013363 200.760985 
L 246.45805 201.176378 
L 247.680394 201.037209 
L 248.902738 201.193635 
L 250.125082 201.728385 
L 251.347426 201.101639 
L 253.792114 200.581029 
L 255.014458 201.175846 
L 256.236802 201.370884 
L 257.459146 201.227203 
L 258.68149 200.367525 
L 259.903834 200.551165 
L 261.126177 200.521904 
L 262.348521 200.379779 
L 264.793209 201.829282 
L 266.015553 201.995264 
L 268.460241 201.814977 
L 269.682585 201.912799 
L 270.904929 202.278892 
L 272.127273 202.339514 
L 273.349617 202.133712 
L 274.571961 203.139055 
L 275.794304 202.513833 
L 277.016648 202.118919 
L 278.238992 202.256834 
L 279.461336 201.989924 
L 280.68368 201.964941 
L 281.906024 200.992434 
L 283.128368 201.100753 
L 284.350712 200.829286 
L 285.573056 200.840343 
L 286.7954 200.475296 
L 289.240088 200.693545 
L 290.462432 200.720331 
L 291.684775 200.399635 
L 292.907119 200.7801 
L 294.129463 200.679651 
L 295.351807 200.135724 
L 296.574151 200.245512 
L 297.796495 200.937692 
L 301.463527 202.219957 
L 303.908215 201.606216 
L 305.130559 202.021695 
L 306.352903 201.694868 
L 307.575246 201.154697 
L 308.79759 201.194121 
L 310.019934 200.945897 
L 311.242278 200.394137 
L 312.464622 200.348159 
L 313.686966 201.762586 
L 314.90931 201.679627 
L 316.131654 201.223421 
L 317.353998 201.612989 
L 318.576342 201.43651 
L 319.798686 201.681049 
L 321.02103 201.002429 
L 322.243373 201.067126 
L 323.465717 201.573071 
L 324.688061 201.931635 
L 325.910405 201.827637 
L 327.132749 202.333513 
L 328.355093 202.367666 
L 329.577437 202.241854 
L 332.022125 202.29202 
L 333.244469 202.8361 
L 334.466813 202.541874 
L 335.689157 202.628905 
L 336.911501 202.880688 
L 338.133844 202.768546 
L 339.356188 202.270845 
L 341.800876 202.028226 
L 343.02322 202.502406 
L 344.245564 203.468331 
L 345.467908 204.225012 
L 346.690252 204.128402 
L 347.912596 202.869224 
L 349.13494 200.724029 
L 351.579628 195.164804 
L 352.801972 192.097116 
L 354.024315 190.730014 
L 355.246659 190.48032 
L 356.469003 189.596075 
L 357.691347 190.058689 
L 358.913691 189.265104 
L 360.136035 189.10647 
L 361.358379 189.227307 
L 362.580723 189.033935 
L 363.803067 188.412318 
L 365.025411 189.322039 
L 366.247755 188.578421 
L 367.470099 188.853563 
L 368.692442 192.745817 
L 369.914786 195.384737 
L 371.13713 199.629722 
L 373.581818 206.578784 
L 373.581818 206.578784 
" clip-path="url(#pd5d250a955)" style="fill: none; stroke: #ff0000; stroke-width: 1.5; stroke-linecap: square"/>
   </g>
   <g id="line2d_30">
    <path d="M 69.218182 208.041241 
L 70.440526 206.567856 
L 71.66287 203.699566 
L 72.885214 201.843767 
L 74.107558 198.745031 
L 75.329901 196.091175 
L 76.552245 196.704235 
L 78.996933 197.357351 
L 81.441621 198.316524 
L 82.663965 198.727516 
L 83.886309 199.328462 
L 85.108653 198.448156 
L 86.330997 199.545413 
L 88.775685 199.691588 
L 91.220372 198.844577 
L 92.442716 199.430638 
L 93.66506 199.052826 
L 94.887404 200.581872 
L 96.109748 200.487855 
L 98.554436 200.941974 
L 99.77678 200.264655 
L 100.999124 201.257942 
L 102.221468 201.86416 
L 103.443812 201.829325 
L 107.110843 203.506988 
L 109.555531 205.95454 
L 110.777875 206.759949 
L 112.000219 208.127098 
L 113.222563 207.685173 
L 114.444907 206.088344 
L 115.667251 203.1512 
L 116.889595 201.199998 
L 118.111939 197.74373 
L 119.334283 195.814144 
L 120.556627 194.127443 
L 121.77897 194.534718 
L 123.001314 194.483944 
L 124.223658 193.687739 
L 125.446002 194.4686 
L 126.668346 195.672123 
L 127.89069 195.960712 
L 129.113034 196.654337 
L 130.335378 195.942183 
L 131.557722 195.445206 
L 132.780066 195.128816 
L 134.00241 195.270918 
L 135.224754 194.321574 
L 136.447097 194.585682 
L 137.669441 194.727563 
L 138.891785 194.321553 
L 140.114129 194.311146 
L 141.336473 195.100198 
L 142.558817 195.066128 
L 143.781161 196.019013 
L 145.003505 196.497918 
L 146.225849 196.713567 
L 147.448193 197.372041 
L 148.670537 197.511022 
L 149.892881 197.994971 
L 151.115225 197.800229 
L 152.337568 197.726501 
L 153.559912 197.957796 
L 154.782256 198.576268 
L 158.449288 198.71687 
L 159.671632 198.186051 
L 162.11632 197.974704 
L 163.338664 197.841085 
L 164.561008 197.335172 
L 168.228039 198.380187 
L 169.450383 198.249159 
L 171.895071 200.120112 
L 173.117415 200.067379 
L 174.339759 198.524703 
L 175.562103 198.511849 
L 176.784447 199.06368 
L 178.006791 198.668625 
L 179.229135 198.14194 
L 180.451479 198.46822 
L 181.673823 199.016834 
L 182.896166 199.072937 
L 185.340854 200.463893 
L 186.563198 200.683959 
L 187.785542 200.529365 
L 189.007886 200.525077 
L 190.23023 201.814616 
L 191.452574 201.133759 
L 192.674918 200.861124 
L 193.897262 200.174321 
L 196.34195 200.124132 
L 197.564294 199.751293 
L 200.008981 200.174361 
L 201.231325 200.51056 
L 203.676013 200.75639 
L 204.898357 200.698064 
L 206.120701 200.451176 
L 207.343045 200.069838 
L 208.565389 200.499587 
L 209.787733 199.86301 
L 211.010077 199.527117 
L 214.677108 201.890649 
L 215.899452 201.648623 
L 217.121796 201.678858 
L 218.34414 201.192128 
L 220.788828 201.746793 
L 222.011172 201.177913 
L 223.233516 201.196687 
L 224.45586 201.743539 
L 228.122892 200.494773 
L 229.345235 200.163631 
L 230.567579 199.630748 
L 231.789923 199.827904 
L 234.234611 199.717006 
L 236.679299 200.502133 
L 237.901643 201.314726 
L 239.123987 200.552292 
L 240.346331 200.80304 
L 241.568675 201.278544 
L 242.791019 200.972688 
L 244.013363 200.933271 
L 246.45805 201.495415 
L 247.680394 201.386409 
L 248.902738 201.545625 
L 250.125082 202.131443 
L 251.347426 201.357196 
L 253.792114 200.72573 
L 255.014458 201.307419 
L 256.236802 201.413552 
L 257.459146 201.262578 
L 258.68149 200.264914 
L 259.903834 200.433338 
L 262.348521 200.270192 
L 264.793209 201.956878 
L 266.015553 202.211761 
L 267.237897 202.193241 
L 268.460241 202.060804 
L 269.682585 202.254297 
L 270.904929 202.727555 
L 272.127273 202.871233 
L 273.349617 202.748199 
L 274.571961 203.674804 
L 277.016648 202.872767 
L 278.238992 203.180413 
L 279.461336 203.348458 
L 280.68368 203.34556 
L 281.906024 202.65369 
L 283.128368 202.783329 
L 284.350712 202.475253 
L 285.573056 202.444669 
L 286.7954 202.084833 
L 288.017744 202.421601 
L 290.462432 202.240143 
L 291.684775 202.458705 
L 292.907119 202.553591 
L 294.129463 202.879446 
L 295.351807 202.815358 
L 296.574151 202.911758 
L 297.796495 203.470948 
L 299.018839 203.700796 
L 300.241183 203.534815 
L 301.463527 203.17978 
L 303.908215 202.801243 
L 305.130559 202.643387 
L 306.352903 202.99444 
L 307.575246 202.867192 
L 308.79759 203.376895 
L 310.019934 202.924415 
L 311.242278 202.210647 
L 312.464622 201.640994 
L 313.686966 201.29265 
L 314.90931 201.320114 
L 317.353998 201.802473 
L 318.576342 201.917302 
L 319.798686 201.844625 
L 321.02103 201.503882 
L 322.243373 201.559421 
L 323.465717 201.174711 
L 324.688061 200.105997 
L 325.910405 198.500772 
L 328.355093 197.104392 
L 329.577437 196.909779 
L 330.799781 196.457562 
L 332.022125 196.297853 
L 333.244469 195.149352 
L 334.466813 195.50973 
L 335.689157 195.237016 
L 336.911501 193.077591 
L 338.133844 192.209776 
L 339.356188 191.941593 
L 340.578532 188.902644 
L 341.800876 186.668099 
L 344.245564 182.72649 
L 345.467908 181.350455 
L 346.690252 179.042836 
L 347.912596 177.099575 
L 349.13494 175.761355 
L 350.357284 172.057162 
L 351.579628 168.83583 
L 352.801972 163.726754 
L 354.024315 160.709423 
L 355.246659 158.139324 
L 356.469003 152.236701 
L 358.913691 146.470602 
L 360.136035 142.066546 
L 361.358379 136.545269 
L 363.803067 111.564068 
L 366.247755 73.194542 
L 367.470099 46.813277 
L 368.692442 44.291899 
L 369.914786 43.454706 
L 371.13713 40.784294 
L 372.359474 39.06 
L 373.581818 39.38861 
L 373.581818 39.38861 
" clip-path="url(#pd5d250a955)" style="fill: none; stroke: #1f77b4; stroke-width: 1.5; stroke-linecap: square"/>
   </g>
   <g id="legend_1">
    <g id="patch_7">
     <path d="M 61 126.30875 
L 246.757812 126.30875 
Q 248.757812 126.30875 248.757812 124.30875 
L 248.757812 37.24 
Q 248.757812 35.24 246.757812 35.24 
L 61 35.24 
Q 59 35.24 59 37.24 
L 59 124.30875 
Q 59 126.30875 61 126.30875 
z
" style="fill: #ffffff; opacity: 0.8; stroke: #e6e6e6; stroke-linejoin: miter"/>
    </g>
    <g id="line2d_31">
     <path d="M 63 43.338437 
L 73 43.338437 
L 83 43.338437 
" style="fill: none; stroke-dasharray: 1.5,2.475; stroke-dashoffset: 0; stroke: #808080; stroke-width: 1.5"/>
    </g>
    <g id="text_16">
     <!-- R/S (AUC:0.0232) -->
     <g transform="translate(91 46.838437)scale(0.1 -0.1)">
      <defs>
       <path id="DejaVuSans-52" d="M 2841 2188 
Q 3044 2119 3236 1894 
Q 3428 1669 3622 1275 
L 4263 0 
L 3584 0 
L 2988 1197 
Q 2756 1666 2539 1819 
Q 2322 1972 1947 1972 
L 1259 1972 
L 1259 0 
L 628 0 
L 628 4666 
L 2053 4666 
Q 2853 4666 3247 4331 
Q 3641 3997 3641 3322 
Q 3641 2881 3436 2590 
Q 3231 2300 2841 2188 
z
M 1259 4147 
L 1259 2491 
L 2053 2491 
Q 2509 2491 2742 2702 
Q 2975 2913 2975 3322 
Q 2975 3731 2742 3939 
Q 2509 4147 2053 4147 
L 1259 4147 
z
" transform="scale(0.015625)"/>
       <path id="DejaVuSans-53" d="M 3425 4513 
L 3425 3897 
Q 3066 4069 2747 4153 
Q 2428 4238 2131 4238 
Q 1616 4238 1336 4038 
Q 1056 3838 1056 3469 
Q 1056 3159 1242 3001 
Q 1428 2844 1947 2747 
L 2328 2669 
Q 3034 2534 3370 2195 
Q 3706 1856 3706 1288 
Q 3706 609 3251 259 
Q 2797 -91 1919 -91 
Q 1588 -91 1214 -16 
Q 841 59 441 206 
L 441 856 
Q 825 641 1194 531 
Q 1563 422 1919 422 
Q 2459 422 2753 634 
Q 3047 847 3047 1241 
Q 3047 1584 2836 1778 
Q 2625 1972 2144 2069 
L 1759 2144 
Q 1053 2284 737 2584 
Q 422 2884 422 3419 
Q 422 4038 858 4394 
Q 1294 4750 2059 4750 
Q 2388 4750 2728 4690 
Q 3069 4631 3425 4513 
z
" transform="scale(0.015625)"/>
       <path id="DejaVuSans-41" d="M 2188 4044 
L 1331 1722 
L 3047 1722 
L 2188 4044 
z
M 1831 4666 
L 2547 4666 
L 4325 0 
L 3669 0 
L 3244 1197 
L 1141 1197 
L 716 0 
L 50 0 
L 1831 4666 
z
" transform="scale(0.015625)"/>
       <path id="DejaVuSans-55" d="M 556 4666 
L 1191 4666 
L 1191 1831 
Q 1191 1081 1462 751 
Q 1734 422 2344 422 
Q 2950 422 3222 751 
Q 3494 1081 3494 1831 
L 3494 4666 
L 4128 4666 
L 4128 1753 
Q 4128 841 3676 375 
Q 3225 -91 2344 -91 
Q 1459 -91 1007 375 
Q 556 841 556 1753 
L 556 4666 
z
" transform="scale(0.015625)"/>
       <path id="DejaVuSans-43" d="M 4122 4306 
L 4122 3641 
Q 3803 3938 3442 4084 
Q 3081 4231 2675 4231 
Q 1875 4231 1450 3742 
Q 1025 3253 1025 2328 
Q 1025 1406 1450 917 
Q 1875 428 2675 428 
Q 3081 428 3442 575 
Q 3803 722 4122 1019 
L 4122 359 
Q 3791 134 3420 21 
Q 3050 -91 2638 -91 
Q 1578 -91 968 557 
Q 359 1206 359 2328 
Q 359 3453 968 4101 
Q 1578 4750 2638 4750 
Q 3056 4750 3426 4639 
Q 3797 4528 4122 4306 
z
" transform="scale(0.015625)"/>
      </defs>
      <use xlink:href="#DejaVuSans-52"/>
      <use xlink:href="#DejaVuSans-2f" x="69.482422"/>
      <use xlink:href="#DejaVuSans-53" x="103.173828"/>
      <use xlink:href="#DejaVuSans-20" x="166.650391"/>
      <use xlink:href="#DejaVuSans-28" x="198.4375"/>
      <use xlink:href="#DejaVuSans-41" x="237.451172"/>
      <use xlink:href="#DejaVuSans-55" x="305.859375"/>
      <use xlink:href="#DejaVuSans-43" x="379.052734"/>
      <use xlink:href="#DejaVuSans-3a" x="448.876953"/>
      <use xlink:href="#DejaVuSans-30" x="482.568359"/>
      <use xlink:href="#DejaVuSans-2e" x="546.191406"/>
      <use xlink:href="#DejaVuSans-30" x="577.978516"/>
      <use xlink:href="#DejaVuSans-32" x="641.601562"/>
      <use xlink:href="#DejaVuSans-33" x="705.224609"/>
      <use xlink:href="#DejaVuSans-32" x="768.847656"/>
      <use xlink:href="#DejaVuSans-29" x="832.470703"/>
     </g>
    </g>
    <g id="line2d_32">
     <path d="M 63 58.016562 
L 73 58.016562 
L 83 58.016562 
" style="fill: none; stroke-dasharray: 9.6,2.4,1.5,2.4; stroke-dashoffset: 0; stroke: #808080; stroke-width: 1.5"/>
    </g>
    <g id="text_17">
     <!-- variogram (AUC:0.0132) -->
     <g transform="translate(91 61.516562)scale(0.1 -0.1)">
      <defs>
       <path id="DejaVuSans-67" d="M 2906 1791 
Q 2906 2416 2648 2759 
Q 2391 3103 1925 3103 
Q 1463 3103 1205 2759 
Q 947 2416 947 1791 
Q 947 1169 1205 825 
Q 1463 481 1925 481 
Q 2391 481 2648 825 
Q 2906 1169 2906 1791 
z
M 3481 434 
Q 3481 -459 3084 -895 
Q 2688 -1331 1869 -1331 
Q 1566 -1331 1297 -1286 
Q 1028 -1241 775 -1147 
L 775 -588 
Q 1028 -725 1275 -790 
Q 1522 -856 1778 -856 
Q 2344 -856 2625 -561 
Q 2906 -266 2906 331 
L 2906 616 
Q 2728 306 2450 153 
Q 2172 0 1784 0 
Q 1141 0 747 490 
Q 353 981 353 1791 
Q 353 2603 747 3093 
Q 1141 3584 1784 3584 
Q 2172 3584 2450 3431 
Q 2728 3278 2906 2969 
L 2906 3500 
L 3481 3500 
L 3481 434 
z
" transform="scale(0.015625)"/>
       <path id="DejaVuSans-6d" d="M 3328 2828 
Q 3544 3216 3844 3400 
Q 4144 3584 4550 3584 
Q 5097 3584 5394 3201 
Q 5691 2819 5691 2113 
L 5691 0 
L 5113 0 
L 5113 2094 
Q 5113 2597 4934 2840 
Q 4756 3084 4391 3084 
Q 3944 3084 3684 2787 
Q 3425 2491 3425 1978 
L 3425 0 
L 2847 0 
L 2847 2094 
Q 2847 2600 2669 2842 
Q 2491 3084 2119 3084 
Q 1678 3084 1418 2786 
Q 1159 2488 1159 1978 
L 1159 0 
L 581 0 
L 581 3500 
L 1159 3500 
L 1159 2956 
Q 1356 3278 1631 3431 
Q 1906 3584 2284 3584 
Q 2666 3584 2933 3390 
Q 3200 3197 3328 2828 
z
" transform="scale(0.015625)"/>
      </defs>
      <use xlink:href="#DejaVuSans-76"/>
      <use xlink:href="#DejaVuSans-61" x="59.179688"/>
      <use xlink:href="#DejaVuSans-72" x="120.458984"/>
      <use xlink:href="#DejaVuSans-69" x="161.572266"/>
      <use xlink:href="#DejaVuSans-6f" x="189.355469"/>
      <use xlink:href="#DejaVuSans-67" x="250.537109"/>
      <use xlink:href="#DejaVuSans-72" x="314.013672"/>
      <use xlink:href="#DejaVuSans-61" x="355.126953"/>
      <use xlink:href="#DejaVuSans-6d" x="416.40625"/>
      <use xlink:href="#DejaVuSans-20" x="513.818359"/>
      <use xlink:href="#DejaVuSans-28" x="545.605469"/>
      <use xlink:href="#DejaVuSans-41" x="584.619141"/>
      <use xlink:href="#DejaVuSans-55" x="653.027344"/>
      <use xlink:href="#DejaVuSans-43" x="726.220703"/>
      <use xlink:href="#DejaVuSans-3a" x="796.044922"/>
      <use xlink:href="#DejaVuSans-30" x="829.736328"/>
      <use xlink:href="#DejaVuSans-2e" x="893.359375"/>
      <use xlink:href="#DejaVuSans-30" x="925.146484"/>
      <use xlink:href="#DejaVuSans-31" x="988.769531"/>
      <use xlink:href="#DejaVuSans-33" x="1052.392578"/>
      <use xlink:href="#DejaVuSans-32" x="1116.015625"/>
      <use xlink:href="#DejaVuSans-29" x="1179.638672"/>
     </g>
    </g>
    <g id="line2d_33">
     <path d="M 63 72.694687 
L 73 72.694687 
L 83 72.694687 
" style="fill: none; stroke-dasharray: 5.55,2.4; stroke-dashoffset: 0; stroke: #808080; stroke-width: 1.5"/>
    </g>
    <g id="text_18">
     <!-- Higuchi (AUC:0.00977) -->
     <g transform="translate(91 76.194687)scale(0.1 -0.1)">
      <defs>
       <path id="DejaVuSans-75" d="M 544 1381 
L 544 3500 
L 1119 3500 
L 1119 1403 
Q 1119 906 1312 657 
Q 1506 409 1894 409 
Q 2359 409 2629 706 
Q 2900 1003 2900 1516 
L 2900 3500 
L 3475 3500 
L 3475 0 
L 2900 0 
L 2900 538 
Q 2691 219 2414 64 
Q 2138 -91 1772 -91 
Q 1169 -91 856 284 
Q 544 659 544 1381 
z
M 1991 3584 
L 1991 3584 
z
" transform="scale(0.015625)"/>
       <path id="DejaVuSans-63" d="M 3122 3366 
L 3122 2828 
Q 2878 2963 2633 3030 
Q 2388 3097 2138 3097 
Q 1578 3097 1268 2742 
Q 959 2388 959 1747 
Q 959 1106 1268 751 
Q 1578 397 2138 397 
Q 2388 397 2633 464 
Q 2878 531 3122 666 
L 3122 134 
Q 2881 22 2623 -34 
Q 2366 -91 2075 -91 
Q 1284 -91 818 406 
Q 353 903 353 1747 
Q 353 2603 823 3093 
Q 1294 3584 2113 3584 
Q 2378 3584 2631 3529 
Q 2884 3475 3122 3366 
z
" transform="scale(0.015625)"/>
       <path id="DejaVuSans-68" d="M 3513 2113 
L 3513 0 
L 2938 0 
L 2938 2094 
Q 2938 2591 2744 2837 
Q 2550 3084 2163 3084 
Q 1697 3084 1428 2787 
Q 1159 2491 1159 1978 
L 1159 0 
L 581 0 
L 581 4863 
L 1159 4863 
L 1159 2956 
Q 1366 3272 1645 3428 
Q 1925 3584 2291 3584 
Q 2894 3584 3203 3211 
Q 3513 2838 3513 2113 
z
" transform="scale(0.015625)"/>
       <path id="DejaVuSans-39" d="M 703 97 
L 703 672 
Q 941 559 1184 500 
Q 1428 441 1663 441 
Q 2288 441 2617 861 
Q 2947 1281 2994 2138 
Q 2813 1869 2534 1725 
Q 2256 1581 1919 1581 
Q 1219 1581 811 2004 
Q 403 2428 403 3163 
Q 403 3881 828 4315 
Q 1253 4750 1959 4750 
Q 2769 4750 3195 4129 
Q 3622 3509 3622 2328 
Q 3622 1225 3098 567 
Q 2575 -91 1691 -91 
Q 1453 -91 1209 -44 
Q 966 3 703 97 
z
M 1959 2075 
Q 2384 2075 2632 2365 
Q 2881 2656 2881 3163 
Q 2881 3666 2632 3958 
Q 2384 4250 1959 4250 
Q 1534 4250 1286 3958 
Q 1038 3666 1038 3163 
Q 1038 2656 1286 2365 
Q 1534 2075 1959 2075 
z
" transform="scale(0.015625)"/>
       <path id="DejaVuSans-37" d="M 525 4666 
L 3525 4666 
L 3525 4397 
L 1831 0 
L 1172 0 
L 2766 4134 
L 525 4134 
L 525 4666 
z
" transform="scale(0.015625)"/>
      </defs>
      <use xlink:href="#DejaVuSans-48"/>
      <use xlink:href="#DejaVuSans-69" x="75.195312"/>
      <use xlink:href="#DejaVuSans-67" x="102.978516"/>
      <use xlink:href="#DejaVuSans-75" x="166.455078"/>
      <use xlink:href="#DejaVuSans-63" x="229.833984"/>
      <use xlink:href="#DejaVuSans-68" x="284.814453"/>
      <use xlink:href="#DejaVuSans-69" x="348.193359"/>
      <use xlink:href="#DejaVuSans-20" x="375.976562"/>
      <use xlink:href="#DejaVuSans-28" x="407.763672"/>
      <use xlink:href="#DejaVuSans-41" x="446.777344"/>
      <use xlink:href="#DejaVuSans-55" x="515.185547"/>
      <use xlink:href="#DejaVuSans-43" x="588.378906"/>
      <use xlink:href="#DejaVuSans-3a" x="658.203125"/>
      <use xlink:href="#DejaVuSans-30" x="691.894531"/>
      <use xlink:href="#DejaVuSans-2e" x="755.517578"/>
      <use xlink:href="#DejaVuSans-30" x="787.304688"/>
      <use xlink:href="#DejaVuSans-30" x="850.927734"/>
      <use xlink:href="#DejaVuSans-39" x="914.550781"/>
      <use xlink:href="#DejaVuSans-37" x="978.173828"/>
      <use xlink:href="#DejaVuSans-37" x="1041.796875"/>
      <use xlink:href="#DejaVuSans-29" x="1105.419922"/>
     </g>
    </g>
    <g id="line2d_34">
     <path d="M 63 87.372813 
L 73 87.372813 
L 83 87.372813 
" style="fill: none; stroke: #808080; stroke-width: 1.5; stroke-linecap: square"/>
    </g>
    <g id="text_19">
     <!-- Whittle fBm (AUC:0.00577) -->
     <g transform="translate(91 90.872813)scale(0.1 -0.1)">
      <defs>
       <path id="DejaVuSans-57" d="M 213 4666 
L 850 4666 
L 1831 722 
L 2809 4666 
L 3519 4666 
L 4500 722 
L 5478 4666 
L 6119 4666 
L 4947 0 
L 4153 0 
L 3169 4050 
L 2175 0 
L 1381 0 
L 213 4666 
z
" transform="scale(0.015625)"/>
       <path id="DejaVuSans-66" d="M 2375 4863 
L 2375 4384 
L 1825 4384 
Q 1516 4384 1395 4259 
Q 1275 4134 1275 3809 
L 1275 3500 
L 2222 3500 
L 2222 3053 
L 1275 3053 
L 1275 0 
L 697 0 
L 697 3053 
L 147 3053 
L 147 3500 
L 697 3500 
L 697 3744 
Q 697 4328 969 4595 
Q 1241 4863 1831 4863 
L 2375 4863 
z
" transform="scale(0.015625)"/>
       <path id="DejaVuSans-42" d="M 1259 2228 
L 1259 519 
L 2272 519 
Q 2781 519 3026 730 
Q 3272 941 3272 1375 
Q 3272 1813 3026 2020 
Q 2781 2228 2272 2228 
L 1259 2228 
z
M 1259 4147 
L 1259 2741 
L 2194 2741 
Q 2656 2741 2882 2914 
Q 3109 3088 3109 3444 
Q 3109 3797 2882 3972 
Q 2656 4147 2194 4147 
L 1259 4147 
z
M 628 4666 
L 2241 4666 
Q 2963 4666 3353 4366 
Q 3744 4066 3744 3513 
Q 3744 3084 3544 2831 
Q 3344 2578 2956 2516 
Q 3422 2416 3680 2098 
Q 3938 1781 3938 1306 
Q 3938 681 3513 340 
Q 3088 0 2303 0 
L 628 0 
L 628 4666 
z
" transform="scale(0.015625)"/>
      </defs>
      <use xlink:href="#DejaVuSans-57"/>
      <use xlink:href="#DejaVuSans-68" x="98.876953"/>
      <use xlink:href="#DejaVuSans-69" x="162.255859"/>
      <use xlink:href="#DejaVuSans-74" x="190.039062"/>
      <use xlink:href="#DejaVuSans-74" x="229.248047"/>
      <use xlink:href="#DejaVuSans-6c" x="268.457031"/>
      <use xlink:href="#DejaVuSans-65" x="296.240234"/>
      <use xlink:href="#DejaVuSans-20" x="357.763672"/>
      <use xlink:href="#DejaVuSans-66" x="389.550781"/>
      <use xlink:href="#DejaVuSans-42" x="424.755859"/>
      <use xlink:href="#DejaVuSans-6d" x="493.359375"/>
      <use xlink:href="#DejaVuSans-20" x="590.771484"/>
      <use xlink:href="#DejaVuSans-28" x="622.558594"/>
      <use xlink:href="#DejaVuSans-41" x="661.572266"/>
      <use xlink:href="#DejaVuSans-55" x="729.980469"/>
      <use xlink:href="#DejaVuSans-43" x="803.173828"/>
      <use xlink:href="#DejaVuSans-3a" x="872.998047"/>
      <use xlink:href="#DejaVuSans-30" x="906.689453"/>
      <use xlink:href="#DejaVuSans-2e" x="970.3125"/>
      <use xlink:href="#DejaVuSans-30" x="1002.099609"/>
      <use xlink:href="#DejaVuSans-30" x="1065.722656"/>
      <use xlink:href="#DejaVuSans-35" x="1129.345703"/>
      <use xlink:href="#DejaVuSans-37" x="1192.96875"/>
      <use xlink:href="#DejaVuSans-37" x="1256.591797"/>
      <use xlink:href="#DejaVuSans-29" x="1320.214844"/>
     </g>
    </g>
    <g id="line2d_35">
     <path d="M 63 102.050938 
L 73 102.050938 
L 83 102.050938 
" style="fill: none; stroke: #ff0000; stroke-width: 1.5; stroke-linecap: square"/>
    </g>
    <g id="text_20">
     <!-- Whittle ARFIMA (AUC:0.00846) -->
     <g transform="translate(91 105.550938)scale(0.1 -0.1)">
      <defs>
       <path id="DejaVuSans-46" d="M 628 4666 
L 3309 4666 
L 3309 4134 
L 1259 4134 
L 1259 2759 
L 3109 2759 
L 3109 2228 
L 1259 2228 
L 1259 0 
L 628 0 
L 628 4666 
z
" transform="scale(0.015625)"/>
       <path id="DejaVuSans-49" d="M 628 4666 
L 1259 4666 
L 1259 0 
L 628 0 
L 628 4666 
z
" transform="scale(0.015625)"/>
       <path id="DejaVuSans-4d" d="M 628 4666 
L 1569 4666 
L 2759 1491 
L 3956 4666 
L 4897 4666 
L 4897 0 
L 4281 0 
L 4281 4097 
L 3078 897 
L 2444 897 
L 1241 4097 
L 1241 0 
L 628 0 
L 628 4666 
z
" transform="scale(0.015625)"/>
       <path id="DejaVuSans-38" d="M 2034 2216 
Q 1584 2216 1326 1975 
Q 1069 1734 1069 1313 
Q 1069 891 1326 650 
Q 1584 409 2034 409 
Q 2484 409 2743 651 
Q 3003 894 3003 1313 
Q 3003 1734 2745 1975 
Q 2488 2216 2034 2216 
z
M 1403 2484 
Q 997 2584 770 2862 
Q 544 3141 544 3541 
Q 544 4100 942 4425 
Q 1341 4750 2034 4750 
Q 2731 4750 3128 4425 
Q 3525 4100 3525 3541 
Q 3525 3141 3298 2862 
Q 3072 2584 2669 2484 
Q 3125 2378 3379 2068 
Q 3634 1759 3634 1313 
Q 3634 634 3220 271 
Q 2806 -91 2034 -91 
Q 1263 -91 848 271 
Q 434 634 434 1313 
Q 434 1759 690 2068 
Q 947 2378 1403 2484 
z
M 1172 3481 
Q 1172 3119 1398 2916 
Q 1625 2713 2034 2713 
Q 2441 2713 2670 2916 
Q 2900 3119 2900 3481 
Q 2900 3844 2670 4047 
Q 2441 4250 2034 4250 
Q 1625 4250 1398 4047 
Q 1172 3844 1172 3481 
z
" transform="scale(0.015625)"/>
      </defs>
      <use xlink:href="#DejaVuSans-57"/>
      <use xlink:href="#DejaVuSans-68" x="98.876953"/>
      <use xlink:href="#DejaVuSans-69" x="162.255859"/>
      <use xlink:href="#DejaVuSans-74" x="190.039062"/>
      <use xlink:href="#DejaVuSans-74" x="229.248047"/>
      <use xlink:href="#DejaVuSans-6c" x="268.457031"/>
      <use xlink:href="#DejaVuSans-65" x="296.240234"/>
      <use xlink:href="#DejaVuSans-20" x="357.763672"/>
      <use xlink:href="#DejaVuSans-41" x="389.550781"/>
      <use xlink:href="#DejaVuSans-52" x="457.958984"/>
      <use xlink:href="#DejaVuSans-46" x="527.441406"/>
      <use xlink:href="#DejaVuSans-49" x="584.960938"/>
      <use xlink:href="#DejaVuSans-4d" x="614.453125"/>
      <use xlink:href="#DejaVuSans-41" x="700.732422"/>
      <use xlink:href="#DejaVuSans-20" x="769.140625"/>
      <use xlink:href="#DejaVuSans-28" x="800.927734"/>
      <use xlink:href="#DejaVuSans-41" x="839.941406"/>
      <use xlink:href="#DejaVuSans-55" x="908.349609"/>
      <use xlink:href="#DejaVuSans-43" x="981.542969"/>
      <use xlink:href="#DejaVuSans-3a" x="1051.367188"/>
      <use xlink:href="#DejaVuSans-30" x="1085.058594"/>
      <use xlink:href="#DejaVuSans-2e" x="1148.681641"/>
      <use xlink:href="#DejaVuSans-30" x="1180.46875"/>
      <use xlink:href="#DejaVuSans-30" x="1244.091797"/>
      <use xlink:href="#DejaVuSans-38" x="1307.714844"/>
      <use xlink:href="#DejaVuSans-34" x="1371.337891"/>
      <use xlink:href="#DejaVuSans-36" x="1434.960938"/>
      <use xlink:href="#DejaVuSans-29" x="1498.583984"/>
     </g>
    </g>
    <g id="line2d_36">
     <path d="M 63 116.729062 
L 73 116.729062 
L 83 116.729062 
" style="fill: none; stroke: #1f77b4; stroke-width: 1.5; stroke-linecap: square"/>
    </g>
    <g id="text_21">
     <!-- LSTM (AUC:0.0105) -->
     <g transform="translate(91 120.229062)scale(0.1 -0.1)">
      <defs>
       <path id="DejaVuSans-4c" d="M 628 4666 
L 1259 4666 
L 1259 531 
L 3531 531 
L 3531 0 
L 628 0 
L 628 4666 
z
" transform="scale(0.015625)"/>
       <path id="DejaVuSans-54" d="M -19 4666 
L 3928 4666 
L 3928 4134 
L 2272 4134 
L 2272 0 
L 1638 0 
L 1638 4134 
L -19 4134 
L -19 4666 
z
" transform="scale(0.015625)"/>
      </defs>
      <use xlink:href="#DejaVuSans-4c"/>
      <use xlink:href="#DejaVuSans-53" x="55.712891"/>
      <use xlink:href="#DejaVuSans-54" x="119.189453"/>
      <use xlink:href="#DejaVuSans-4d" x="180.273438"/>
      <use xlink:href="#DejaVuSans-20" x="266.552734"/>
      <use xlink:href="#DejaVuSans-28" x="298.339844"/>
      <use xlink:href="#DejaVuSans-41" x="337.353516"/>
      <use xlink:href="#DejaVuSans-55" x="405.761719"/>
      <use xlink:href="#DejaVuSans-43" x="478.955078"/>
      <use xlink:href="#DejaVuSans-3a" x="548.779297"/>
      <use xlink:href="#DejaVuSans-30" x="582.470703"/>
      <use xlink:href="#DejaVuSans-2e" x="646.09375"/>
      <use xlink:href="#DejaVuSans-30" x="677.880859"/>
      <use xlink:href="#DejaVuSans-31" x="741.503906"/>
      <use xlink:href="#DejaVuSans-30" x="805.126953"/>
      <use xlink:href="#DejaVuSans-35" x="868.75"/>
      <use xlink:href="#DejaVuSans-29" x="932.373047"/>
     </g>
    </g>
   </g>
  </g>
 </g>
 <defs>
  <clipPath id="pd5d250a955">
   <rect x="54" y="30.24" width="334.8" height="194.04"/>
  </clipPath>
 </defs>
</svg>
