<?xml version="1.0" encoding="utf-8" standalone="no"?>
<!DOCTYPE svg PUBLIC "-//W3C//DTD SVG 1.1//EN"
  "http://www.w3.org/Graphics/SVG/1.1/DTD/svg11.dtd">
<svg xmlns:xlink="http://www.w3.org/1999/xlink" width="648pt" height="342pt" viewBox="0 0 648 342" xmlns="http://www.w3.org/2000/svg" version="1.1">
 <metadata>
  <rdf:RDF xmlns:dc="http://purl.org/dc/elements/1.1/" xmlns:cc="http://creativecommons.org/ns#" xmlns:rdf="http://www.w3.org/1999/02/22-rdf-syntax-ns#">
   <cc:Work>
    <dc:type rdf:resource="http://purl.org/dc/dcmitype/StillImage"/>
    <dc:date>2024-07-04T23:36:22.416959</dc:date>
    <dc:format>image/svg+xml</dc:format>
    <dc:creator>
     <cc:Agent>
      <dc:title>Matplotlib v3.5.1, https://matplotlib.org/</dc:title>
     </cc:Agent>
    </dc:creator>
   </cc:Work>
  </rdf:RDF>
 </metadata>
 <defs>
  <style type="text/css">*{stroke-linejoin: round; stroke-linecap: butt}</style>
 </defs>
 <g id="figure_1">
  <g id="patch_1">
   <path d="M 0 342 
L 648 342 
L 648 0 
L 0 0 
z
" style="fill: #ffffff"/>
  </g>
  <g id="axes_1">
   <g id="patch_2">
    <path d="M 81 304.38 
L 583.2 304.38 
L 583.2 41.04 
L 81 41.04 
L 81 304.38 
z
" style="fill: none; opacity: 0"/>
   </g>
   <g id="matplotlib.axis_1">
    <g id="xtick_1">
     <g id="line2d_1">
      <path d="M 103.827273 304.38 
L 103.827273 41.04 
" clip-path="url(#peeacae0568)" style="fill: none; stroke: #e6e6e6; stroke-width: 0.8; stroke-linecap: square"/>
     </g>
     <g id="line2d_2">
      <defs>
       <path id="m1cc3c63b8f" d="M 0 0 
L 0 3.5 
" style="stroke: #000000; stroke-width: 0.8"/>
      </defs>
      <g>
       <use xlink:href="#m1cc3c63b8f" x="103.827273" y="304.38" style="stroke: #000000; stroke-width: 0.8"/>
      </g>
     </g>
     <g id="text_1">
      <!-- 0.0 -->
      <g transform="translate(95.87571 318.978437)scale(0.1 -0.1)">
       <defs>
        <path id="DejaVuSans-30" d="M 2034 4250 
Q 1547 4250 1301 3770 
Q 1056 3291 1056 2328 
Q 1056 1369 1301 889 
Q 1547 409 2034 409 
Q 2525 409 2770 889 
Q 3016 1369 3016 2328 
Q 3016 3291 2770 3770 
Q 2525 4250 2034 4250 
z
M 2034 4750 
Q 2819 4750 3233 4129 
Q 3647 3509 3647 2328 
Q 3647 1150 3233 529 
Q 2819 -91 2034 -91 
Q 1250 -91 836 529 
Q 422 1150 422 2328 
Q 422 3509 836 4129 
Q 1250 4750 2034 4750 
z
" transform="scale(0.015625)"/>
        <path id="DejaVuSans-2e" d="M 684 794 
L 1344 794 
L 1344 0 
L 684 0 
L 684 794 
z
" transform="scale(0.015625)"/>
       </defs>
       <use xlink:href="#DejaVuSans-30"/>
       <use xlink:href="#DejaVuSans-2e" x="63.623047"/>
       <use xlink:href="#DejaVuSans-30" x="95.410156"/>
      </g>
     </g>
    </g>
    <g id="xtick_2">
     <g id="line2d_3">
      <path d="M 195.136364 304.38 
L 195.136364 41.04 
" clip-path="url(#peeacae0568)" style="fill: none; stroke: #e6e6e6; stroke-width: 0.8; stroke-linecap: square"/>
     </g>
     <g id="line2d_4">
      <g>
       <use xlink:href="#m1cc3c63b8f" x="195.136364" y="304.38" style="stroke: #000000; stroke-width: 0.8"/>
      </g>
     </g>
     <g id="text_2">
      <!-- 0.2 -->
      <g transform="translate(187.184801 318.978437)scale(0.1 -0.1)">
       <defs>
        <path id="DejaVuSans-32" d="M 1228 531 
L 3431 531 
L 3431 0 
L 469 0 
L 469 531 
Q 828 903 1448 1529 
Q 2069 2156 2228 2338 
Q 2531 2678 2651 2914 
Q 2772 3150 2772 3378 
Q 2772 3750 2511 3984 
Q 2250 4219 1831 4219 
Q 1534 4219 1204 4116 
Q 875 4013 500 3803 
L 500 4441 
Q 881 4594 1212 4672 
Q 1544 4750 1819 4750 
Q 2544 4750 2975 4387 
Q 3406 4025 3406 3419 
Q 3406 3131 3298 2873 
Q 3191 2616 2906 2266 
Q 2828 2175 2409 1742 
Q 1991 1309 1228 531 
z
" transform="scale(0.015625)"/>
       </defs>
       <use xlink:href="#DejaVuSans-30"/>
       <use xlink:href="#DejaVuSans-2e" x="63.623047"/>
       <use xlink:href="#DejaVuSans-32" x="95.410156"/>
      </g>
     </g>
    </g>
    <g id="xtick_3">
     <g id="line2d_5">
      <path d="M 286.445455 304.38 
L 286.445455 41.04 
" clip-path="url(#peeacae0568)" style="fill: none; stroke: #e6e6e6; stroke-width: 0.8; stroke-linecap: square"/>
     </g>
     <g id="line2d_6">
      <g>
       <use xlink:href="#m1cc3c63b8f" x="286.445455" y="304.38" style="stroke: #000000; stroke-width: 0.8"/>
      </g>
     </g>
     <g id="text_3">
      <!-- 0.4 -->
      <g transform="translate(278.493892 318.978437)scale(0.1 -0.1)">
       <defs>
        <path id="DejaVuSans-34" d="M 2419 4116 
L 825 1625 
L 2419 1625 
L 2419 4116 
z
M 2253 4666 
L 3047 4666 
L 3047 1625 
L 3713 1625 
L 3713 1100 
L 3047 1100 
L 3047 0 
L 2419 0 
L 2419 1100 
L 313 1100 
L 313 1709 
L 2253 4666 
z
" transform="scale(0.015625)"/>
       </defs>
       <use xlink:href="#DejaVuSans-30"/>
       <use xlink:href="#DejaVuSans-2e" x="63.623047"/>
       <use xlink:href="#DejaVuSans-34" x="95.410156"/>
      </g>
     </g>
    </g>
    <g id="xtick_4">
     <g id="line2d_7">
      <path d="M 377.754545 304.38 
L 377.754545 41.04 
" clip-path="url(#peeacae0568)" style="fill: none; stroke: #e6e6e6; stroke-width: 0.8; stroke-linecap: square"/>
     </g>
     <g id="line2d_8">
      <g>
       <use xlink:href="#m1cc3c63b8f" x="377.754545" y="304.38" style="stroke: #000000; stroke-width: 0.8"/>
      </g>
     </g>
     <g id="text_4">
      <!-- 0.6 -->
      <g transform="translate(369.802983 318.978437)scale(0.1 -0.1)">
       <defs>
        <path id="DejaVuSans-36" d="M 2113 2584 
Q 1688 2584 1439 2293 
Q 1191 2003 1191 1497 
Q 1191 994 1439 701 
Q 1688 409 2113 409 
Q 2538 409 2786 701 
Q 3034 994 3034 1497 
Q 3034 2003 2786 2293 
Q 2538 2584 2113 2584 
z
M 3366 4563 
L 3366 3988 
Q 3128 4100 2886 4159 
Q 2644 4219 2406 4219 
Q 1781 4219 1451 3797 
Q 1122 3375 1075 2522 
Q 1259 2794 1537 2939 
Q 1816 3084 2150 3084 
Q 2853 3084 3261 2657 
Q 3669 2231 3669 1497 
Q 3669 778 3244 343 
Q 2819 -91 2113 -91 
Q 1303 -91 875 529 
Q 447 1150 447 2328 
Q 447 3434 972 4092 
Q 1497 4750 2381 4750 
Q 2619 4750 2861 4703 
Q 3103 4656 3366 4563 
z
" transform="scale(0.015625)"/>
       </defs>
       <use xlink:href="#DejaVuSans-30"/>
       <use xlink:href="#DejaVuSans-2e" x="63.623047"/>
       <use xlink:href="#DejaVuSans-36" x="95.410156"/>
      </g>
     </g>
    </g>
    <g id="xtick_5">
     <g id="line2d_9">
      <path d="M 469.063636 304.38 
L 469.063636 41.04 
" clip-path="url(#peeacae0568)" style="fill: none; stroke: #e6e6e6; stroke-width: 0.8; stroke-linecap: square"/>
     </g>
     <g id="line2d_10">
      <g>
       <use xlink:href="#m1cc3c63b8f" x="469.063636" y="304.38" style="stroke: #000000; stroke-width: 0.8"/>
      </g>
     </g>
     <g id="text_5">
      <!-- 0.8 -->
      <g transform="translate(461.112074 318.978437)scale(0.1 -0.1)">
       <defs>
        <path id="DejaVuSans-38" d="M 2034 2216 
Q 1584 2216 1326 1975 
Q 1069 1734 1069 1313 
Q 1069 891 1326 650 
Q 1584 409 2034 409 
Q 2484 409 2743 651 
Q 3003 894 3003 1313 
Q 3003 1734 2745 1975 
Q 2488 2216 2034 2216 
z
M 1403 2484 
Q 997 2584 770 2862 
Q 544 3141 544 3541 
Q 544 4100 942 4425 
Q 1341 4750 2034 4750 
Q 2731 4750 3128 4425 
Q 3525 4100 3525 3541 
Q 3525 3141 3298 2862 
Q 3072 2584 2669 2484 
Q 3125 2378 3379 2068 
Q 3634 1759 3634 1313 
Q 3634 634 3220 271 
Q 2806 -91 2034 -91 
Q 1263 -91 848 271 
Q 434 634 434 1313 
Q 434 1759 690 2068 
Q 947 2378 1403 2484 
z
M 1172 3481 
Q 1172 3119 1398 2916 
Q 1625 2713 2034 2713 
Q 2441 2713 2670 2916 
Q 2900 3119 2900 3481 
Q 2900 3844 2670 4047 
Q 2441 4250 2034 4250 
Q 1625 4250 1398 4047 
Q 1172 3844 1172 3481 
z
" transform="scale(0.015625)"/>
       </defs>
       <use xlink:href="#DejaVuSans-30"/>
       <use xlink:href="#DejaVuSans-2e" x="63.623047"/>
       <use xlink:href="#DejaVuSans-38" x="95.410156"/>
      </g>
     </g>
    </g>
    <g id="xtick_6">
     <g id="line2d_11">
      <path d="M 560.372727 304.38 
L 560.372727 41.04 
" clip-path="url(#peeacae0568)" style="fill: none; stroke: #e6e6e6; stroke-width: 0.8; stroke-linecap: square"/>
     </g>
     <g id="line2d_12">
      <g>
       <use xlink:href="#m1cc3c63b8f" x="560.372727" y="304.38" style="stroke: #000000; stroke-width: 0.8"/>
      </g>
     </g>
     <g id="text_6">
      <!-- 1.0 -->
      <g transform="translate(552.421165 318.978437)scale(0.1 -0.1)">
       <defs>
        <path id="DejaVuSans-31" d="M 794 531 
L 1825 531 
L 1825 4091 
L 703 3866 
L 703 4441 
L 1819 4666 
L 2450 4666 
L 2450 531 
L 3481 531 
L 3481 0 
L 794 0 
L 794 531 
z
" transform="scale(0.015625)"/>
       </defs>
       <use xlink:href="#DejaVuSans-31"/>
       <use xlink:href="#DejaVuSans-2e" x="63.623047"/>
       <use xlink:href="#DejaVuSans-30" x="95.410156"/>
      </g>
     </g>
    </g>
    <g id="text_7">
     <!-- H - 1/2 -->
     <g transform="translate(315.310938 332.656563)scale(0.1 -0.1)">
      <defs>
       <path id="DejaVuSans-48" d="M 628 4666 
L 1259 4666 
L 1259 2753 
L 3553 2753 
L 3553 4666 
L 4184 4666 
L 4184 0 
L 3553 0 
L 3553 2222 
L 1259 2222 
L 1259 0 
L 628 0 
L 628 4666 
z
" transform="scale(0.015625)"/>
       <path id="DejaVuSans-20" transform="scale(0.015625)"/>
       <path id="DejaVuSans-2d" d="M 313 2009 
L 1997 2009 
L 1997 1497 
L 313 1497 
L 313 2009 
z
" transform="scale(0.015625)"/>
       <path id="DejaVuSans-2f" d="M 1625 4666 
L 2156 4666 
L 531 -594 
L 0 -594 
L 1625 4666 
z
" transform="scale(0.015625)"/>
      </defs>
      <use xlink:href="#DejaVuSans-48"/>
      <use xlink:href="#DejaVuSans-20" x="75.195312"/>
      <use xlink:href="#DejaVuSans-2d" x="106.982422"/>
      <use xlink:href="#DejaVuSans-20" x="143.066406"/>
      <use xlink:href="#DejaVuSans-31" x="174.853516"/>
      <use xlink:href="#DejaVuSans-2f" x="238.476562"/>
      <use xlink:href="#DejaVuSans-32" x="272.167969"/>
     </g>
    </g>
   </g>
   <g id="matplotlib.axis_2">
    <g id="ytick_1">
     <g id="line2d_13">
      <path d="M 81 278.922447 
L 583.2 278.922447 
" clip-path="url(#peeacae0568)" style="fill: none; stroke: #e6e6e6; stroke-width: 0.8; stroke-linecap: square"/>
     </g>
     <g id="line2d_14">
      <defs>
       <path id="m6ce92ba317" d="M 0 0 
L -3.5 0 
" style="stroke: #000000; stroke-width: 0.8"/>
      </defs>
      <g>
       <use xlink:href="#m6ce92ba317" x="81" y="278.922447" style="stroke: #000000; stroke-width: 0.8"/>
      </g>
     </g>
     <g id="text_8">
      <!-- −0.20 -->
      <g transform="translate(43.354687 282.721666)scale(0.1 -0.1)">
       <defs>
        <path id="DejaVuSans-2212" d="M 678 2272 
L 4684 2272 
L 4684 1741 
L 678 1741 
L 678 2272 
z
" transform="scale(0.015625)"/>
       </defs>
       <use xlink:href="#DejaVuSans-2212"/>
       <use xlink:href="#DejaVuSans-30" x="83.789062"/>
       <use xlink:href="#DejaVuSans-2e" x="147.412109"/>
       <use xlink:href="#DejaVuSans-32" x="179.199219"/>
       <use xlink:href="#DejaVuSans-30" x="242.822266"/>
      </g>
     </g>
    </g>
    <g id="ytick_2">
     <g id="line2d_15">
      <path d="M 81 238.16838 
L 583.2 238.16838 
" clip-path="url(#peeacae0568)" style="fill: none; stroke: #e6e6e6; stroke-width: 0.8; stroke-linecap: square"/>
     </g>
     <g id="line2d_16">
      <g>
       <use xlink:href="#m6ce92ba317" x="81" y="238.16838" style="stroke: #000000; stroke-width: 0.8"/>
      </g>
     </g>
     <g id="text_9">
      <!-- −0.15 -->
      <g transform="translate(43.354687 241.967599)scale(0.1 -0.1)">
       <defs>
        <path id="DejaVuSans-35" d="M 691 4666 
L 3169 4666 
L 3169 4134 
L 1269 4134 
L 1269 2991 
Q 1406 3038 1543 3061 
Q 1681 3084 1819 3084 
Q 2600 3084 3056 2656 
Q 3513 2228 3513 1497 
Q 3513 744 3044 326 
Q 2575 -91 1722 -91 
Q 1428 -91 1123 -41 
Q 819 9 494 109 
L 494 744 
Q 775 591 1075 516 
Q 1375 441 1709 441 
Q 2250 441 2565 725 
Q 2881 1009 2881 1497 
Q 2881 1984 2565 2268 
Q 2250 2553 1709 2553 
Q 1456 2553 1204 2497 
Q 953 2441 691 2322 
L 691 4666 
z
" transform="scale(0.015625)"/>
       </defs>
       <use xlink:href="#DejaVuSans-2212"/>
       <use xlink:href="#DejaVuSans-30" x="83.789062"/>
       <use xlink:href="#DejaVuSans-2e" x="147.412109"/>
       <use xlink:href="#DejaVuSans-31" x="179.199219"/>
       <use xlink:href="#DejaVuSans-35" x="242.822266"/>
      </g>
     </g>
    </g>
    <g id="ytick_3">
     <g id="line2d_17">
      <path d="M 81 197.414313 
L 583.2 197.414313 
" clip-path="url(#peeacae0568)" style="fill: none; stroke: #e6e6e6; stroke-width: 0.8; stroke-linecap: square"/>
     </g>
     <g id="line2d_18">
      <g>
       <use xlink:href="#m6ce92ba317" x="81" y="197.414313" style="stroke: #000000; stroke-width: 0.8"/>
      </g>
     </g>
     <g id="text_10">
      <!-- −0.10 -->
      <g transform="translate(43.354687 201.213532)scale(0.1 -0.1)">
       <use xlink:href="#DejaVuSans-2212"/>
       <use xlink:href="#DejaVuSans-30" x="83.789062"/>
       <use xlink:href="#DejaVuSans-2e" x="147.412109"/>
       <use xlink:href="#DejaVuSans-31" x="179.199219"/>
       <use xlink:href="#DejaVuSans-30" x="242.822266"/>
      </g>
     </g>
    </g>
    <g id="ytick_4">
     <g id="line2d_19">
      <path d="M 81 156.660246 
L 583.2 156.660246 
" clip-path="url(#peeacae0568)" style="fill: none; stroke: #e6e6e6; stroke-width: 0.8; stroke-linecap: square"/>
     </g>
     <g id="line2d_20">
      <g>
       <use xlink:href="#m6ce92ba317" x="81" y="156.660246" style="stroke: #000000; stroke-width: 0.8"/>
      </g>
     </g>
     <g id="text_11">
      <!-- −0.05 -->
      <g transform="translate(43.354687 160.459465)scale(0.1 -0.1)">
       <use xlink:href="#DejaVuSans-2212"/>
       <use xlink:href="#DejaVuSans-30" x="83.789062"/>
       <use xlink:href="#DejaVuSans-2e" x="147.412109"/>
       <use xlink:href="#DejaVuSans-30" x="179.199219"/>
       <use xlink:href="#DejaVuSans-35" x="242.822266"/>
      </g>
     </g>
    </g>
    <g id="ytick_5">
     <g id="line2d_21">
      <path d="M 81 115.906179 
L 583.2 115.906179 
" clip-path="url(#peeacae0568)" style="fill: none; stroke: #e6e6e6; stroke-width: 0.8; stroke-linecap: square"/>
     </g>
     <g id="line2d_22">
      <g>
       <use xlink:href="#m6ce92ba317" x="81" y="115.906179" style="stroke: #000000; stroke-width: 0.8"/>
      </g>
     </g>
     <g id="text_12">
      <!-- 0.00 -->
      <g transform="translate(51.734375 119.705398)scale(0.1 -0.1)">
       <use xlink:href="#DejaVuSans-30"/>
       <use xlink:href="#DejaVuSans-2e" x="63.623047"/>
       <use xlink:href="#DejaVuSans-30" x="95.410156"/>
       <use xlink:href="#DejaVuSans-30" x="159.033203"/>
      </g>
     </g>
    </g>
    <g id="ytick_6">
     <g id="line2d_23">
      <path d="M 81 75.152112 
L 583.2 75.152112 
" clip-path="url(#peeacae0568)" style="fill: none; stroke: #e6e6e6; stroke-width: 0.8; stroke-linecap: square"/>
     </g>
     <g id="line2d_24">
      <g>
       <use xlink:href="#m6ce92ba317" x="81" y="75.152112" style="stroke: #000000; stroke-width: 0.8"/>
      </g>
     </g>
     <g id="text_13">
      <!-- 0.05 -->
      <g transform="translate(51.734375 78.951331)scale(0.1 -0.1)">
       <use xlink:href="#DejaVuSans-30"/>
       <use xlink:href="#DejaVuSans-2e" x="63.623047"/>
       <use xlink:href="#DejaVuSans-30" x="95.410156"/>
       <use xlink:href="#DejaVuSans-35" x="159.033203"/>
      </g>
     </g>
    </g>
    <g id="text_14">
     <!-- bias -->
     <g transform="translate(37.275 182.942031)rotate(-90)scale(0.1 -0.1)">
      <defs>
       <path id="DejaVuSans-62" d="M 3116 1747 
Q 3116 2381 2855 2742 
Q 2594 3103 2138 3103 
Q 1681 3103 1420 2742 
Q 1159 2381 1159 1747 
Q 1159 1113 1420 752 
Q 1681 391 2138 391 
Q 2594 391 2855 752 
Q 3116 1113 3116 1747 
z
M 1159 2969 
Q 1341 3281 1617 3432 
Q 1894 3584 2278 3584 
Q 2916 3584 3314 3078 
Q 3713 2572 3713 1747 
Q 3713 922 3314 415 
Q 2916 -91 2278 -91 
Q 1894 -91 1617 61 
Q 1341 213 1159 525 
L 1159 0 
L 581 0 
L 581 4863 
L 1159 4863 
L 1159 2969 
z
" transform="scale(0.015625)"/>
       <path id="DejaVuSans-69" d="M 603 3500 
L 1178 3500 
L 1178 0 
L 603 0 
L 603 3500 
z
M 603 4863 
L 1178 4863 
L 1178 4134 
L 603 4134 
L 603 4863 
z
" transform="scale(0.015625)"/>
       <path id="DejaVuSans-61" d="M 2194 1759 
Q 1497 1759 1228 1600 
Q 959 1441 959 1056 
Q 959 750 1161 570 
Q 1363 391 1709 391 
Q 2188 391 2477 730 
Q 2766 1069 2766 1631 
L 2766 1759 
L 2194 1759 
z
M 3341 1997 
L 3341 0 
L 2766 0 
L 2766 531 
Q 2569 213 2275 61 
Q 1981 -91 1556 -91 
Q 1019 -91 701 211 
Q 384 513 384 1019 
Q 384 1609 779 1909 
Q 1175 2209 1959 2209 
L 2766 2209 
L 2766 2266 
Q 2766 2663 2505 2880 
Q 2244 3097 1772 3097 
Q 1472 3097 1187 3025 
Q 903 2953 641 2809 
L 641 3341 
Q 956 3463 1253 3523 
Q 1550 3584 1831 3584 
Q 2591 3584 2966 3190 
Q 3341 2797 3341 1997 
z
" transform="scale(0.015625)"/>
       <path id="DejaVuSans-73" d="M 2834 3397 
L 2834 2853 
Q 2591 2978 2328 3040 
Q 2066 3103 1784 3103 
Q 1356 3103 1142 2972 
Q 928 2841 928 2578 
Q 928 2378 1081 2264 
Q 1234 2150 1697 2047 
L 1894 2003 
Q 2506 1872 2764 1633 
Q 3022 1394 3022 966 
Q 3022 478 2636 193 
Q 2250 -91 1575 -91 
Q 1294 -91 989 -36 
Q 684 19 347 128 
L 347 722 
Q 666 556 975 473 
Q 1284 391 1588 391 
Q 1994 391 2212 530 
Q 2431 669 2431 922 
Q 2431 1156 2273 1281 
Q 2116 1406 1581 1522 
L 1381 1569 
Q 847 1681 609 1914 
Q 372 2147 372 2553 
Q 372 3047 722 3315 
Q 1072 3584 1716 3584 
Q 2034 3584 2315 3537 
Q 2597 3491 2834 3397 
z
" transform="scale(0.015625)"/>
      </defs>
      <use xlink:href="#DejaVuSans-62"/>
      <use xlink:href="#DejaVuSans-69" x="63.476562"/>
      <use xlink:href="#DejaVuSans-61" x="91.259766"/>
      <use xlink:href="#DejaVuSans-73" x="152.539062"/>
     </g>
    </g>
   </g>
   <g id="patch_3">
    <path d="M 81 304.38 
L 81 41.04 
" style="fill: none; stroke: #000000; stroke-width: 0.8; stroke-linejoin: miter; stroke-linecap: square"/>
   </g>
   <g id="patch_4">
    <path d="M 583.2 304.38 
L 583.2 41.04 
" style="fill: none; stroke: #e6e6e6; stroke-width: 0.8; stroke-linejoin: miter; stroke-linecap: square"/>
   </g>
   <g id="patch_5">
    <path d="M 81 304.38 
L 583.2 304.38 
" style="fill: none; stroke: #000000; stroke-width: 0.8; stroke-linejoin: miter; stroke-linecap: square"/>
   </g>
   <g id="patch_6">
    <path d="M 81 41.04 
L 583.2 41.04 
" style="fill: none; stroke: #e6e6e6; stroke-width: 0.8; stroke-linejoin: miter; stroke-linecap: square"/>
   </g>
   <g id="text_15">
    <!-- Biases (steps: 250, interval:+-0.02) -->
    <g transform="translate(225.360938 35.04)scale(0.12 -0.12)">
     <defs>
      <path id="DejaVuSans-42" d="M 1259 2228 
L 1259 519 
L 2272 519 
Q 2781 519 3026 730 
Q 3272 941 3272 1375 
Q 3272 1813 3026 2020 
Q 2781 2228 2272 2228 
L 1259 2228 
z
M 1259 4147 
L 1259 2741 
L 2194 2741 
Q 2656 2741 2882 2914 
Q 3109 3088 3109 3444 
Q 3109 3797 2882 3972 
Q 2656 4147 2194 4147 
L 1259 4147 
z
M 628 4666 
L 2241 4666 
Q 2963 4666 3353 4366 
Q 3744 4066 3744 3513 
Q 3744 3084 3544 2831 
Q 3344 2578 2956 2516 
Q 3422 2416 3680 2098 
Q 3938 1781 3938 1306 
Q 3938 681 3513 340 
Q 3088 0 2303 0 
L 628 0 
L 628 4666 
z
" transform="scale(0.015625)"/>
      <path id="DejaVuSans-65" d="M 3597 1894 
L 3597 1613 
L 953 1613 
Q 991 1019 1311 708 
Q 1631 397 2203 397 
Q 2534 397 2845 478 
Q 3156 559 3463 722 
L 3463 178 
Q 3153 47 2828 -22 
Q 2503 -91 2169 -91 
Q 1331 -91 842 396 
Q 353 884 353 1716 
Q 353 2575 817 3079 
Q 1281 3584 2069 3584 
Q 2775 3584 3186 3129 
Q 3597 2675 3597 1894 
z
M 3022 2063 
Q 3016 2534 2758 2815 
Q 2500 3097 2075 3097 
Q 1594 3097 1305 2825 
Q 1016 2553 972 2059 
L 3022 2063 
z
" transform="scale(0.015625)"/>
      <path id="DejaVuSans-28" d="M 1984 4856 
Q 1566 4138 1362 3434 
Q 1159 2731 1159 2009 
Q 1159 1288 1364 580 
Q 1569 -128 1984 -844 
L 1484 -844 
Q 1016 -109 783 600 
Q 550 1309 550 2009 
Q 550 2706 781 3412 
Q 1013 4119 1484 4856 
L 1984 4856 
z
" transform="scale(0.015625)"/>
      <path id="DejaVuSans-74" d="M 1172 4494 
L 1172 3500 
L 2356 3500 
L 2356 3053 
L 1172 3053 
L 1172 1153 
Q 1172 725 1289 603 
Q 1406 481 1766 481 
L 2356 481 
L 2356 0 
L 1766 0 
Q 1100 0 847 248 
Q 594 497 594 1153 
L 594 3053 
L 172 3053 
L 172 3500 
L 594 3500 
L 594 4494 
L 1172 4494 
z
" transform="scale(0.015625)"/>
      <path id="DejaVuSans-70" d="M 1159 525 
L 1159 -1331 
L 581 -1331 
L 581 3500 
L 1159 3500 
L 1159 2969 
Q 1341 3281 1617 3432 
Q 1894 3584 2278 3584 
Q 2916 3584 3314 3078 
Q 3713 2572 3713 1747 
Q 3713 922 3314 415 
Q 2916 -91 2278 -91 
Q 1894 -91 1617 61 
Q 1341 213 1159 525 
z
M 3116 1747 
Q 3116 2381 2855 2742 
Q 2594 3103 2138 3103 
Q 1681 3103 1420 2742 
Q 1159 2381 1159 1747 
Q 1159 1113 1420 752 
Q 1681 391 2138 391 
Q 2594 391 2855 752 
Q 3116 1113 3116 1747 
z
" transform="scale(0.015625)"/>
      <path id="DejaVuSans-3a" d="M 750 794 
L 1409 794 
L 1409 0 
L 750 0 
L 750 794 
z
M 750 3309 
L 1409 3309 
L 1409 2516 
L 750 2516 
L 750 3309 
z
" transform="scale(0.015625)"/>
      <path id="DejaVuSans-2c" d="M 750 794 
L 1409 794 
L 1409 256 
L 897 -744 
L 494 -744 
L 750 256 
L 750 794 
z
" transform="scale(0.015625)"/>
      <path id="DejaVuSans-6e" d="M 3513 2113 
L 3513 0 
L 2938 0 
L 2938 2094 
Q 2938 2591 2744 2837 
Q 2550 3084 2163 3084 
Q 1697 3084 1428 2787 
Q 1159 2491 1159 1978 
L 1159 0 
L 581 0 
L 581 3500 
L 1159 3500 
L 1159 2956 
Q 1366 3272 1645 3428 
Q 1925 3584 2291 3584 
Q 2894 3584 3203 3211 
Q 3513 2838 3513 2113 
z
" transform="scale(0.015625)"/>
      <path id="DejaVuSans-72" d="M 2631 2963 
Q 2534 3019 2420 3045 
Q 2306 3072 2169 3072 
Q 1681 3072 1420 2755 
Q 1159 2438 1159 1844 
L 1159 0 
L 581 0 
L 581 3500 
L 1159 3500 
L 1159 2956 
Q 1341 3275 1631 3429 
Q 1922 3584 2338 3584 
Q 2397 3584 2469 3576 
Q 2541 3569 2628 3553 
L 2631 2963 
z
" transform="scale(0.015625)"/>
      <path id="DejaVuSans-76" d="M 191 3500 
L 800 3500 
L 1894 563 
L 2988 3500 
L 3597 3500 
L 2284 0 
L 1503 0 
L 191 3500 
z
" transform="scale(0.015625)"/>
      <path id="DejaVuSans-6c" d="M 603 4863 
L 1178 4863 
L 1178 0 
L 603 0 
L 603 4863 
z
" transform="scale(0.015625)"/>
      <path id="DejaVuSans-2b" d="M 2944 4013 
L 2944 2272 
L 4684 2272 
L 4684 1741 
L 2944 1741 
L 2944 0 
L 2419 0 
L 2419 1741 
L 678 1741 
L 678 2272 
L 2419 2272 
L 2419 4013 
L 2944 4013 
z
" transform="scale(0.015625)"/>
      <path id="DejaVuSans-29" d="M 513 4856 
L 1013 4856 
Q 1481 4119 1714 3412 
Q 1947 2706 1947 2009 
Q 1947 1309 1714 600 
Q 1481 -109 1013 -844 
L 513 -844 
Q 928 -128 1133 580 
Q 1338 1288 1338 2009 
Q 1338 2731 1133 3434 
Q 928 4138 513 4856 
z
" transform="scale(0.015625)"/>
     </defs>
     <use xlink:href="#DejaVuSans-42"/>
     <use xlink:href="#DejaVuSans-69" x="68.603516"/>
     <use xlink:href="#DejaVuSans-61" x="96.386719"/>
     <use xlink:href="#DejaVuSans-73" x="157.666016"/>
     <use xlink:href="#DejaVuSans-65" x="209.765625"/>
     <use xlink:href="#DejaVuSans-73" x="271.289062"/>
     <use xlink:href="#DejaVuSans-20" x="323.388672"/>
     <use xlink:href="#DejaVuSans-28" x="355.175781"/>
     <use xlink:href="#DejaVuSans-73" x="394.189453"/>
     <use xlink:href="#DejaVuSans-74" x="446.289062"/>
     <use xlink:href="#DejaVuSans-65" x="485.498047"/>
     <use xlink:href="#DejaVuSans-70" x="547.021484"/>
     <use xlink:href="#DejaVuSans-73" x="610.498047"/>
     <use xlink:href="#DejaVuSans-3a" x="662.597656"/>
     <use xlink:href="#DejaVuSans-20" x="696.289062"/>
     <use xlink:href="#DejaVuSans-32" x="728.076172"/>
     <use xlink:href="#DejaVuSans-35" x="791.699219"/>
     <use xlink:href="#DejaVuSans-30" x="855.322266"/>
     <use xlink:href="#DejaVuSans-2c" x="918.945312"/>
     <use xlink:href="#DejaVuSans-20" x="950.732422"/>
     <use xlink:href="#DejaVuSans-69" x="982.519531"/>
     <use xlink:href="#DejaVuSans-6e" x="1010.302734"/>
     <use xlink:href="#DejaVuSans-74" x="1073.681641"/>
     <use xlink:href="#DejaVuSans-65" x="1112.890625"/>
     <use xlink:href="#DejaVuSans-72" x="1174.414062"/>
     <use xlink:href="#DejaVuSans-76" x="1215.527344"/>
     <use xlink:href="#DejaVuSans-61" x="1274.707031"/>
     <use xlink:href="#DejaVuSans-6c" x="1335.986328"/>
     <use xlink:href="#DejaVuSans-3a" x="1363.769531"/>
     <use xlink:href="#DejaVuSans-2b" x="1397.460938"/>
     <use xlink:href="#DejaVuSans-2d" x="1481.25"/>
     <use xlink:href="#DejaVuSans-30" x="1517.333984"/>
     <use xlink:href="#DejaVuSans-2e" x="1580.957031"/>
     <use xlink:href="#DejaVuSans-30" x="1612.744141"/>
     <use xlink:href="#DejaVuSans-32" x="1676.367188"/>
     <use xlink:href="#DejaVuSans-29" x="1739.990234"/>
    </g>
   </g>
   <g id="line2d_25">
    <path d="M 103.827273 87.869613 
L 107.494304 88.614741 
L 109.32782 88.589368 
L 111.161336 88.971935 
L 112.994852 89.034331 
L 114.828368 89.291249 
L 116.661884 90.000293 
L 118.4954 90.84117 
L 120.328916 91.554296 
L 122.162432 92.065922 
L 123.995947 91.679539 
L 125.829463 91.962728 
L 129.496495 93.307824 
L 131.330011 93.784855 
L 133.163527 95.319813 
L 134.997043 95.893364 
L 136.830559 96.61778 
L 138.664074 97.55303 
L 140.49759 97.873448 
L 142.331106 99.127816 
L 144.164622 99.631302 
L 145.998138 100.006202 
L 149.66517 101.766688 
L 151.498686 101.550475 
L 153.332202 102.548172 
L 155.165717 102.863227 
L 156.999233 102.881118 
L 158.832749 103.886698 
L 160.666265 103.536717 
L 162.499781 104.014784 
L 164.333297 104.628104 
L 166.166813 104.954769 
L 168.000329 105.10321 
L 169.833844 104.605512 
L 171.66736 104.405742 
L 175.334392 104.918831 
L 179.001424 105.772482 
L 182.668456 106.628737 
L 184.501972 106.759217 
L 186.335487 108.17913 
L 188.169003 109.262888 
L 190.002519 110.130988 
L 191.836035 111.573636 
L 193.669551 112.025722 
L 195.503067 112.826423 
L 197.336583 113.332746 
L 199.170099 113.56729 
L 201.003614 113.510759 
L 202.83713 114.178343 
L 204.670646 113.410061 
L 206.504162 114.286969 
L 208.337678 115.02986 
L 210.171194 115.457948 
L 215.671742 118.354552 
L 217.505257 118.520439 
L 219.338773 119.200629 
L 221.172289 120.179231 
L 223.005805 120.825438 
L 224.839321 120.726019 
L 226.672837 121.640728 
L 228.506353 122.159691 
L 230.339869 123.29943 
L 232.173384 123.223914 
L 234.0069 123.775846 
L 235.840416 124.871728 
L 237.673932 125.257849 
L 239.507448 125.788896 
L 241.340964 126.830458 
L 243.17448 128.584759 
L 245.007996 128.970192 
L 246.841512 130.150276 
L 248.675027 129.847648 
L 250.508543 130.62314 
L 252.342059 131.062214 
L 256.009091 131.796291 
L 259.676123 134.385389 
L 261.509639 135.38179 
L 263.343154 136.703505 
L 265.17667 137.518879 
L 267.010186 138.173761 
L 268.843702 139.880355 
L 272.510734 142.231043 
L 274.34425 143.939124 
L 276.177766 144.96371 
L 278.011281 146.199316 
L 279.844797 147.580894 
L 281.678313 147.744326 
L 283.511829 149.288617 
L 285.345345 150.574121 
L 287.178861 151.264887 
L 289.012377 152.232811 
L 290.845893 153.533154 
L 292.679409 154.584401 
L 294.512924 155.169503 
L 296.34644 156.383262 
L 298.179956 156.765912 
L 300.013472 158.61264 
L 301.846988 159.591447 
L 303.680504 161.760103 
L 305.51402 162.583089 
L 307.347536 164.541065 
L 309.181051 165.58929 
L 311.014567 168.240373 
L 312.848083 169.521068 
L 314.681599 171.427206 
L 316.515115 172.795963 
L 318.348631 174.42512 
L 320.182147 176.407881 
L 322.015663 178.199645 
L 323.849179 179.602578 
L 325.682694 179.696982 
L 327.51621 181.490279 
L 331.183242 182.489618 
L 333.016758 182.920567 
L 334.850274 185.103946 
L 336.68379 185.704509 
L 338.517306 184.570326 
L 340.350821 187.4375 
L 342.184337 115.906179 
L 560.372727 115.906179 
L 560.372727 115.906179 
" clip-path="url(#peeacae0568)" style="fill: none; stroke-dasharray: 1.5,2.475; stroke-dashoffset: 0; stroke: #000000; stroke-width: 1.5"/>
   </g>
   <g id="line2d_26">
    <path d="M 103.827273 112.013169 
L 105.660789 112.063752 
L 112.994852 111.440394 
L 114.828368 111.096898 
L 120.328916 110.723166 
L 123.995947 110.417594 
L 125.829463 110.329963 
L 131.330011 109.761492 
L 134.997043 109.653193 
L 138.664074 109.033151 
L 144.164622 108.249885 
L 145.998138 108.390069 
L 147.831654 108.274248 
L 153.332202 107.487844 
L 156.999233 107.536023 
L 158.832749 107.2844 
L 160.666265 106.725205 
L 162.499781 106.755619 
L 164.333297 106.629029 
L 166.166813 106.663014 
L 168.000329 106.500042 
L 171.66736 105.336614 
L 175.334392 104.361712 
L 177.167908 104.367849 
L 180.83494 104.055723 
L 184.501972 103.37011 
L 188.169003 103.166058 
L 190.002519 103.297761 
L 193.669551 102.599244 
L 195.503067 102.003615 
L 197.336583 101.66759 
L 199.170099 100.944754 
L 201.003614 100.863511 
L 210.171194 99.095233 
L 212.00471 99.128598 
L 213.838226 99.302351 
L 215.671742 98.947373 
L 217.505257 98.955017 
L 219.338773 98.82692 
L 223.005805 96.995947 
L 224.839321 96.769621 
L 226.672837 96.721571 
L 228.506353 96.830531 
L 230.339869 96.260575 
L 232.173384 94.850563 
L 234.0069 94.770039 
L 239.507448 93.956477 
L 241.340964 94.00634 
L 245.007996 93.735214 
L 246.841512 92.92491 
L 248.675027 93.069335 
L 250.508543 94.356498 
L 252.342059 94.271326 
L 254.175575 93.882181 
L 256.009091 93.876698 
L 257.842607 94.421066 
L 259.676123 94.509033 
L 261.509639 95.233511 
L 263.343154 95.073894 
L 265.17667 95.676898 
L 267.010186 95.610019 
L 268.843702 95.272049 
L 270.677218 95.965382 
L 272.510734 96.888576 
L 276.177766 97.776472 
L 279.844797 97.894856 
L 281.678313 98.504742 
L 283.511829 99.611528 
L 285.345345 99.596785 
L 287.178861 100.045235 
L 289.012377 99.730813 
L 290.845893 100.169768 
L 292.679409 100.436758 
L 294.512924 100.837278 
L 296.34644 102.055826 
L 298.179956 102.782083 
L 300.013472 104.119066 
L 301.846988 104.933466 
L 305.51402 107.256639 
L 307.347536 107.976996 
L 309.181051 108.930819 
L 311.014567 109.563478 
L 312.848083 110.058238 
L 314.681599 111.863572 
L 316.515115 113.040318 
L 320.182147 114.009017 
L 322.015663 115.200405 
L 323.849179 115.666379 
L 327.51621 117.121732 
L 331.183242 119.476465 
L 333.016758 119.375229 
L 334.850274 118.106335 
L 336.68379 118.052104 
L 338.517306 117.75321 
L 340.350821 117.087721 
L 342.184337 115.906179 
L 560.372727 115.906179 
L 560.372727 115.906179 
" clip-path="url(#peeacae0568)" style="fill: none; stroke-dasharray: 9.6,2.4,1.5,2.4; stroke-dashoffset: 0; stroke: #000000; stroke-width: 1.5"/>
   </g>
   <g id="line2d_27">
    <path d="M 103.827273 116.219634 
L 105.660789 116.356354 
L 109.32782 116.245379 
L 111.161336 116.040759 
L 116.661884 116.133503 
L 118.4954 116.044731 
L 122.162432 116.442771 
L 123.995947 116.383563 
L 127.662979 116.512634 
L 131.330011 116.472811 
L 134.997043 116.447449 
L 136.830559 116.621702 
L 140.49759 116.520534 
L 147.831654 116.839383 
L 149.66517 116.601887 
L 151.498686 116.644156 
L 158.832749 116.351073 
L 160.666265 116.096493 
L 162.499781 116.005895 
L 164.333297 116.133983 
L 168.000329 116.098886 
L 169.833844 115.736477 
L 173.500876 115.600401 
L 179.001424 116.101766 
L 180.83494 116.129511 
L 182.668456 115.929501 
L 184.501972 116.061871 
L 186.335487 116.456836 
L 190.002519 116.938461 
L 191.836035 117.021066 
L 195.503067 116.567437 
L 197.336583 116.710846 
L 199.170099 116.641466 
L 201.003614 116.78262 
L 206.504162 116.285351 
L 208.337678 116.372107 
L 210.171194 116.258958 
L 213.838226 116.853284 
L 219.338773 116.851974 
L 223.005805 116.390457 
L 226.672837 116.589105 
L 228.506353 116.713658 
L 230.339869 116.639946 
L 232.173384 115.909533 
L 234.0069 115.952338 
L 235.840416 115.882285 
L 237.673932 115.949435 
L 239.507448 115.893676 
L 241.340964 115.722536 
L 248.675027 115.511831 
L 250.508543 116.311572 
L 256.009091 116.048205 
L 257.842607 116.634161 
L 261.509639 117.465083 
L 263.343154 117.557507 
L 265.17667 118.035699 
L 268.843702 117.698535 
L 270.677218 118.206214 
L 272.510734 119.060617 
L 274.34425 119.349805 
L 276.177766 119.460738 
L 278.011281 119.142444 
L 281.678313 119.3703 
L 283.511829 120.105765 
L 285.345345 119.928017 
L 287.178861 120.014918 
L 289.012377 119.497626 
L 292.679409 119.403604 
L 294.512924 119.421286 
L 296.34644 120.32857 
L 298.179956 120.576585 
L 300.013472 121.455871 
L 301.846988 121.632809 
L 303.680504 122.205836 
L 305.51402 123.035898 
L 307.347536 123.044815 
L 309.181051 123.306055 
L 311.014567 123.396729 
L 312.848083 123.225616 
L 314.681599 124.333539 
L 316.515115 125.020964 
L 318.348631 124.638674 
L 320.182147 124.475321 
L 322.015663 124.685272 
L 323.849179 124.17121 
L 325.682694 124.655787 
L 327.51621 124.687495 
L 329.349726 125.384282 
L 331.183242 126.360825 
L 333.016758 125.525661 
L 334.850274 123.093434 
L 336.68379 122.027325 
L 338.517306 120.699201 
L 340.350821 118.840888 
L 342.184337 115.906179 
L 560.372727 115.906179 
L 560.372727 115.906179 
" clip-path="url(#peeacae0568)" style="fill: none; stroke-dasharray: 5.55,2.4; stroke-dashoffset: 0; stroke: #000000; stroke-width: 1.5"/>
   </g>
   <g id="line2d_28">
    <path d="M 103.827273 116.261768 
L 109.32782 116.23102 
L 114.828368 115.993428 
L 116.661884 116.079081 
L 118.4954 115.879194 
L 122.162432 116.074057 
L 125.829463 116.10154 
L 127.662979 116.142569 
L 129.496495 116.054544 
L 136.830559 116.341214 
L 138.664074 116.148714 
L 147.831654 116.298681 
L 149.66517 116.082416 
L 151.498686 116.233008 
L 153.332202 116.086679 
L 156.999233 116.18042 
L 158.832749 116.173375 
L 160.666265 115.935101 
L 162.499781 115.929034 
L 166.166813 116.204741 
L 168.000329 116.231208 
L 169.833844 115.912594 
L 175.334392 115.811196 
L 179.001424 115.991336 
L 180.83494 115.974604 
L 182.668456 115.744412 
L 184.501972 115.738728 
L 188.169003 116.159718 
L 190.002519 116.215342 
L 191.836035 116.113834 
L 193.669551 116.182606 
L 195.503067 116.031083 
L 197.336583 116.074238 
L 199.170099 115.9763 
L 201.003614 116.128346 
L 215.671742 116.352605 
L 219.338773 116.379985 
L 223.005805 116.043318 
L 224.839321 116.108978 
L 226.672837 115.972274 
L 228.506353 116.070332 
L 230.339869 115.787241 
L 232.173384 115.688283 
L 234.0069 115.787801 
L 243.17448 115.618483 
L 246.841512 115.664767 
L 248.675027 115.923138 
L 250.508543 116.05165 
L 254.175575 115.692224 
L 256.009091 115.669561 
L 257.842607 115.818993 
L 259.676123 115.845122 
L 261.509639 115.734734 
L 263.343154 115.909092 
L 268.843702 115.586954 
L 272.510734 115.785863 
L 276.177766 115.886389 
L 278.011281 115.872051 
L 279.844797 116.04624 
L 281.678313 115.95364 
L 285.345345 116.102912 
L 292.679409 116.049298 
L 294.512924 115.902637 
L 296.34644 115.965411 
L 301.846988 115.708735 
L 303.680504 115.477782 
L 309.181051 115.430249 
L 314.681599 115.604663 
L 316.515115 115.499999 
L 318.348631 115.515346 
L 323.849179 116.406105 
L 327.51621 116.522888 
L 329.349726 116.683364 
L 333.016758 116.885827 
L 336.68379 117.980058 
L 338.517306 117.612012 
L 340.350821 118.531659 
L 342.184337 115.906179 
L 560.372727 115.906179 
L 560.372727 115.906179 
" clip-path="url(#peeacae0568)" style="fill: none; stroke: #000000; stroke-width: 1.5; stroke-linecap: square"/>
   </g>
   <g id="line2d_29">
    <path d="M 103.827273 116.453728 
L 107.494304 114.861305 
L 109.32782 114.175765 
L 114.828368 111.778113 
L 116.661884 111.190011 
L 118.4954 109.961328 
L 120.328916 109.326548 
L 123.995947 107.697617 
L 127.662979 106.638671 
L 129.496495 105.770546 
L 131.330011 105.163706 
L 134.997043 103.741331 
L 136.830559 103.118499 
L 138.664074 102.105653 
L 144.164622 100.126176 
L 147.831654 98.968843 
L 149.66517 97.964542 
L 151.498686 97.435582 
L 153.332202 96.453247 
L 155.165717 95.817375 
L 160.666265 93.407162 
L 162.499781 92.801021 
L 164.333297 92.337814 
L 168.000329 91.128076 
L 169.833844 90.15731 
L 175.334392 87.921743 
L 180.83494 86.391426 
L 182.668456 85.519585 
L 184.501972 84.84594 
L 188.169003 84.138933 
L 190.002519 83.629346 
L 191.836035 82.793852 
L 193.669551 82.20533 
L 195.503067 81.287956 
L 199.170099 79.856847 
L 201.003614 79.515547 
L 204.670646 78.262314 
L 219.338773 73.843837 
L 221.172289 73.095088 
L 223.005805 72.154019 
L 224.839321 71.701514 
L 226.672837 70.907424 
L 228.506353 70.44315 
L 230.339869 69.462977 
L 232.173384 68.738661 
L 234.0069 68.389733 
L 237.673932 67.287849 
L 246.841512 64.065606 
L 248.675027 63.765491 
L 250.508543 63.311112 
L 252.342059 62.553167 
L 265.17667 58.745491 
L 268.843702 57.416157 
L 272.510734 56.640863 
L 276.177766 55.650578 
L 278.011281 55.097704 
L 279.844797 54.761763 
L 281.678313 54.15386 
L 289.012377 53.01 
L 292.679409 54.090996 
L 294.512924 54.962286 
L 296.34644 56.816534 
L 298.179956 58.508341 
L 300.013472 60.807904 
L 301.846988 63.312378 
L 303.680504 66.451699 
L 307.347536 71.760267 
L 309.181051 75.590979 
L 311.014567 78.887527 
L 312.848083 81.332121 
L 314.681599 84.780287 
L 316.515115 87.569852 
L 318.348631 90.927965 
L 320.182147 93.770972 
L 322.015663 97.461581 
L 323.849179 100.012648 
L 325.682694 101.316394 
L 329.349726 105.34839 
L 331.183242 106.674051 
L 333.016758 108.568921 
L 336.68379 111.946182 
L 338.517306 113.417309 
L 340.350821 115.07088 
L 342.184337 115.906179 
L 560.372727 115.906179 
L 560.372727 115.906179 
" clip-path="url(#peeacae0568)" style="fill: none; stroke: #ff0000; stroke-width: 1.5; stroke-linecap: square"/>
   </g>
   <g id="line2d_30">
    <path d="M 103.827273 115.190342 
L 107.494304 113.525011 
L 109.32782 112.813947 
L 114.828368 110.307258 
L 116.661884 109.66456 
L 118.4954 108.36563 
L 120.328916 107.67415 
L 123.995947 105.934172 
L 127.662979 104.778569 
L 129.496495 103.853893 
L 131.330011 103.2165 
L 134.997043 101.721518 
L 136.830559 101.084201 
L 138.664074 100.045755 
L 144.164622 98.067116 
L 147.831654 96.922799 
L 149.66517 95.912997 
L 151.498686 95.391609 
L 153.332202 94.417119 
L 155.165717 93.776622 
L 162.499781 90.789677 
L 164.333297 90.353754 
L 168.000329 89.181906 
L 169.833844 88.234456 
L 175.334392 86.219361 
L 180.83494 85.018881 
L 182.668456 84.29233 
L 184.501972 83.812668 
L 188.169003 83.49688 
L 190.002519 83.189603 
L 191.836035 82.702532 
L 193.669551 82.370354 
L 195.503067 81.799283 
L 199.170099 81.183976 
L 201.003614 81.193386 
L 206.504162 80.699106 
L 212.00471 80.706587 
L 217.505257 80.930709 
L 221.172289 80.918073 
L 223.005805 80.872867 
L 224.839321 81.222022 
L 226.672837 81.378863 
L 228.506353 81.83867 
L 230.339869 81.9649 
L 232.173384 82.242606 
L 234.0069 82.758256 
L 235.840416 83.068312 
L 239.507448 84.146484 
L 241.340964 85.062903 
L 245.007996 86.597443 
L 246.841512 87.557838 
L 250.508543 89.850404 
L 254.175575 91.063333 
L 256.009091 92.074358 
L 263.343154 97.489266 
L 265.17667 98.706912 
L 268.843702 101.713075 
L 278.011281 110.820925 
L 281.678313 115.148269 
L 285.345345 120.235667 
L 289.012377 126.037636 
L 290.845893 129.663097 
L 294.512924 136.086902 
L 296.34644 140.441654 
L 298.179956 144.384545 
L 300.013472 149.080659 
L 301.846988 153.207077 
L 305.51402 162.272593 
L 307.347536 165.740258 
L 309.181051 171.624451 
L 311.014567 176.832394 
L 312.848083 180.691472 
L 314.681599 187.981929 
L 316.515115 194.465969 
L 318.348631 201.55274 
L 320.182147 207.642437 
L 322.015663 216.589373 
L 323.849179 224.206099 
L 325.682694 228.113126 
L 327.51621 233.609065 
L 329.349726 240.692625 
L 333.016758 251.599565 
L 334.850274 254.289379 
L 336.68379 259.868892 
L 338.517306 267.775037 
L 340.350821 292.41 
L 342.184337 115.906179 
L 560.372727 115.906179 
L 560.372727 115.906179 
" clip-path="url(#peeacae0568)" style="fill: none; stroke: #1f77b4; stroke-width: 1.5; stroke-linecap: square"/>
   </g>
   <g id="legend_1">
    <g id="patch_7">
     <path d="M 88 137.10875 
L 267.395313 137.10875 
Q 269.395313 137.10875 269.395313 135.10875 
L 269.395313 48.04 
Q 269.395313 46.04 267.395313 46.04 
L 88 46.04 
Q 86 46.04 86 48.04 
L 86 135.10875 
Q 86 137.10875 88 137.10875 
z
" style="fill: #ffffff; opacity: 0.8; stroke: #e6e6e6; stroke-linejoin: miter"/>
    </g>
    <g id="line2d_31">
     <path d="M 90 54.138438 
L 100 54.138438 
L 110 54.138438 
" style="fill: none; stroke-dasharray: 1.5,2.475; stroke-dashoffset: 0; stroke: #000000; stroke-width: 1.5"/>
    </g>
    <g id="text_16">
     <!-- R/S (AUC:0.0152) -->
     <g transform="translate(118 57.638438)scale(0.1 -0.1)">
      <defs>
       <path id="DejaVuSans-52" d="M 2841 2188 
Q 3044 2119 3236 1894 
Q 3428 1669 3622 1275 
L 4263 0 
L 3584 0 
L 2988 1197 
Q 2756 1666 2539 1819 
Q 2322 1972 1947 1972 
L 1259 1972 
L 1259 0 
L 628 0 
L 628 4666 
L 2053 4666 
Q 2853 4666 3247 4331 
Q 3641 3997 3641 3322 
Q 3641 2881 3436 2590 
Q 3231 2300 2841 2188 
z
M 1259 4147 
L 1259 2491 
L 2053 2491 
Q 2509 2491 2742 2702 
Q 2975 2913 2975 3322 
Q 2975 3731 2742 3939 
Q 2509 4147 2053 4147 
L 1259 4147 
z
" transform="scale(0.015625)"/>
       <path id="DejaVuSans-53" d="M 3425 4513 
L 3425 3897 
Q 3066 4069 2747 4153 
Q 2428 4238 2131 4238 
Q 1616 4238 1336 4038 
Q 1056 3838 1056 3469 
Q 1056 3159 1242 3001 
Q 1428 2844 1947 2747 
L 2328 2669 
Q 3034 2534 3370 2195 
Q 3706 1856 3706 1288 
Q 3706 609 3251 259 
Q 2797 -91 1919 -91 
Q 1588 -91 1214 -16 
Q 841 59 441 206 
L 441 856 
Q 825 641 1194 531 
Q 1563 422 1919 422 
Q 2459 422 2753 634 
Q 3047 847 3047 1241 
Q 3047 1584 2836 1778 
Q 2625 1972 2144 2069 
L 1759 2144 
Q 1053 2284 737 2584 
Q 422 2884 422 3419 
Q 422 4038 858 4394 
Q 1294 4750 2059 4750 
Q 2388 4750 2728 4690 
Q 3069 4631 3425 4513 
z
" transform="scale(0.015625)"/>
       <path id="DejaVuSans-41" d="M 2188 4044 
L 1331 1722 
L 3047 1722 
L 2188 4044 
z
M 1831 4666 
L 2547 4666 
L 4325 0 
L 3669 0 
L 3244 1197 
L 1141 1197 
L 716 0 
L 50 0 
L 1831 4666 
z
" transform="scale(0.015625)"/>
       <path id="DejaVuSans-55" d="M 556 4666 
L 1191 4666 
L 1191 1831 
Q 1191 1081 1462 751 
Q 1734 422 2344 422 
Q 2950 422 3222 751 
Q 3494 1081 3494 1831 
L 3494 4666 
L 4128 4666 
L 4128 1753 
Q 4128 841 3676 375 
Q 3225 -91 2344 -91 
Q 1459 -91 1007 375 
Q 556 841 556 1753 
L 556 4666 
z
" transform="scale(0.015625)"/>
       <path id="DejaVuSans-43" d="M 4122 4306 
L 4122 3641 
Q 3803 3938 3442 4084 
Q 3081 4231 2675 4231 
Q 1875 4231 1450 3742 
Q 1025 3253 1025 2328 
Q 1025 1406 1450 917 
Q 1875 428 2675 428 
Q 3081 428 3442 575 
Q 3803 722 4122 1019 
L 4122 359 
Q 3791 134 3420 21 
Q 3050 -91 2638 -91 
Q 1578 -91 968 557 
Q 359 1206 359 2328 
Q 359 3453 968 4101 
Q 1578 4750 2638 4750 
Q 3056 4750 3426 4639 
Q 3797 4528 4122 4306 
z
" transform="scale(0.015625)"/>
      </defs>
      <use xlink:href="#DejaVuSans-52"/>
      <use xlink:href="#DejaVuSans-2f" x="69.482422"/>
      <use xlink:href="#DejaVuSans-53" x="103.173828"/>
      <use xlink:href="#DejaVuSans-20" x="166.650391"/>
      <use xlink:href="#DejaVuSans-28" x="198.4375"/>
      <use xlink:href="#DejaVuSans-41" x="237.451172"/>
      <use xlink:href="#DejaVuSans-55" x="305.859375"/>
      <use xlink:href="#DejaVuSans-43" x="379.052734"/>
      <use xlink:href="#DejaVuSans-3a" x="448.876953"/>
      <use xlink:href="#DejaVuSans-30" x="482.568359"/>
      <use xlink:href="#DejaVuSans-2e" x="546.191406"/>
      <use xlink:href="#DejaVuSans-30" x="577.978516"/>
      <use xlink:href="#DejaVuSans-31" x="641.601562"/>
      <use xlink:href="#DejaVuSans-35" x="705.224609"/>
      <use xlink:href="#DejaVuSans-32" x="768.847656"/>
      <use xlink:href="#DejaVuSans-29" x="832.470703"/>
     </g>
    </g>
    <g id="line2d_32">
     <path d="M 90 68.816563 
L 100 68.816563 
L 110 68.816563 
" style="fill: none; stroke-dasharray: 9.6,2.4,1.5,2.4; stroke-dashoffset: 0; stroke: #000000; stroke-width: 1.5"/>
    </g>
    <g id="text_17">
     <!-- variogram (AUC:0.00769) -->
     <g transform="translate(118 72.316563)scale(0.1 -0.1)">
      <defs>
       <path id="DejaVuSans-6f" d="M 1959 3097 
Q 1497 3097 1228 2736 
Q 959 2375 959 1747 
Q 959 1119 1226 758 
Q 1494 397 1959 397 
Q 2419 397 2687 759 
Q 2956 1122 2956 1747 
Q 2956 2369 2687 2733 
Q 2419 3097 1959 3097 
z
M 1959 3584 
Q 2709 3584 3137 3096 
Q 3566 2609 3566 1747 
Q 3566 888 3137 398 
Q 2709 -91 1959 -91 
Q 1206 -91 779 398 
Q 353 888 353 1747 
Q 353 2609 779 3096 
Q 1206 3584 1959 3584 
z
" transform="scale(0.015625)"/>
       <path id="DejaVuSans-67" d="M 2906 1791 
Q 2906 2416 2648 2759 
Q 2391 3103 1925 3103 
Q 1463 3103 1205 2759 
Q 947 2416 947 1791 
Q 947 1169 1205 825 
Q 1463 481 1925 481 
Q 2391 481 2648 825 
Q 2906 1169 2906 1791 
z
M 3481 434 
Q 3481 -459 3084 -895 
Q 2688 -1331 1869 -1331 
Q 1566 -1331 1297 -1286 
Q 1028 -1241 775 -1147 
L 775 -588 
Q 1028 -725 1275 -790 
Q 1522 -856 1778 -856 
Q 2344 -856 2625 -561 
Q 2906 -266 2906 331 
L 2906 616 
Q 2728 306 2450 153 
Q 2172 0 1784 0 
Q 1141 0 747 490 
Q 353 981 353 1791 
Q 353 2603 747 3093 
Q 1141 3584 1784 3584 
Q 2172 3584 2450 3431 
Q 2728 3278 2906 2969 
L 2906 3500 
L 3481 3500 
L 3481 434 
z
" transform="scale(0.015625)"/>
       <path id="DejaVuSans-6d" d="M 3328 2828 
Q 3544 3216 3844 3400 
Q 4144 3584 4550 3584 
Q 5097 3584 5394 3201 
Q 5691 2819 5691 2113 
L 5691 0 
L 5113 0 
L 5113 2094 
Q 5113 2597 4934 2840 
Q 4756 3084 4391 3084 
Q 3944 3084 3684 2787 
Q 3425 2491 3425 1978 
L 3425 0 
L 2847 0 
L 2847 2094 
Q 2847 2600 2669 2842 
Q 2491 3084 2119 3084 
Q 1678 3084 1418 2786 
Q 1159 2488 1159 1978 
L 1159 0 
L 581 0 
L 581 3500 
L 1159 3500 
L 1159 2956 
Q 1356 3278 1631 3431 
Q 1906 3584 2284 3584 
Q 2666 3584 2933 3390 
Q 3200 3197 3328 2828 
z
" transform="scale(0.015625)"/>
       <path id="DejaVuSans-37" d="M 525 4666 
L 3525 4666 
L 3525 4397 
L 1831 0 
L 1172 0 
L 2766 4134 
L 525 4134 
L 525 4666 
z
" transform="scale(0.015625)"/>
       <path id="DejaVuSans-39" d="M 703 97 
L 703 672 
Q 941 559 1184 500 
Q 1428 441 1663 441 
Q 2288 441 2617 861 
Q 2947 1281 2994 2138 
Q 2813 1869 2534 1725 
Q 2256 1581 1919 1581 
Q 1219 1581 811 2004 
Q 403 2428 403 3163 
Q 403 3881 828 4315 
Q 1253 4750 1959 4750 
Q 2769 4750 3195 4129 
Q 3622 3509 3622 2328 
Q 3622 1225 3098 567 
Q 2575 -91 1691 -91 
Q 1453 -91 1209 -44 
Q 966 3 703 97 
z
M 1959 2075 
Q 2384 2075 2632 2365 
Q 2881 2656 2881 3163 
Q 2881 3666 2632 3958 
Q 2384 4250 1959 4250 
Q 1534 4250 1286 3958 
Q 1038 3666 1038 3163 
Q 1038 2656 1286 2365 
Q 1534 2075 1959 2075 
z
" transform="scale(0.015625)"/>
      </defs>
      <use xlink:href="#DejaVuSans-76"/>
      <use xlink:href="#DejaVuSans-61" x="59.179688"/>
      <use xlink:href="#DejaVuSans-72" x="120.458984"/>
      <use xlink:href="#DejaVuSans-69" x="161.572266"/>
      <use xlink:href="#DejaVuSans-6f" x="189.355469"/>
      <use xlink:href="#DejaVuSans-67" x="250.537109"/>
      <use xlink:href="#DejaVuSans-72" x="314.013672"/>
      <use xlink:href="#DejaVuSans-61" x="355.126953"/>
      <use xlink:href="#DejaVuSans-6d" x="416.40625"/>
      <use xlink:href="#DejaVuSans-20" x="513.818359"/>
      <use xlink:href="#DejaVuSans-28" x="545.605469"/>
      <use xlink:href="#DejaVuSans-41" x="584.619141"/>
      <use xlink:href="#DejaVuSans-55" x="653.027344"/>
      <use xlink:href="#DejaVuSans-43" x="726.220703"/>
      <use xlink:href="#DejaVuSans-3a" x="796.044922"/>
      <use xlink:href="#DejaVuSans-30" x="829.736328"/>
      <use xlink:href="#DejaVuSans-2e" x="893.359375"/>
      <use xlink:href="#DejaVuSans-30" x="925.146484"/>
      <use xlink:href="#DejaVuSans-30" x="988.769531"/>
      <use xlink:href="#DejaVuSans-37" x="1052.392578"/>
      <use xlink:href="#DejaVuSans-36" x="1116.015625"/>
      <use xlink:href="#DejaVuSans-39" x="1179.638672"/>
      <use xlink:href="#DejaVuSans-29" x="1243.261719"/>
     </g>
    </g>
    <g id="line2d_33">
     <path d="M 90 83.494687 
L 100 83.494687 
L 110 83.494687 
" style="fill: none; stroke-dasharray: 5.55,2.4; stroke-dashoffset: 0; stroke: #000000; stroke-width: 1.5"/>
    </g>
    <g id="text_18">
     <!-- Higuchi (AUC:0.00139) -->
     <g transform="translate(118 86.994687)scale(0.1 -0.1)">
      <defs>
       <path id="DejaVuSans-75" d="M 544 1381 
L 544 3500 
L 1119 3500 
L 1119 1403 
Q 1119 906 1312 657 
Q 1506 409 1894 409 
Q 2359 409 2629 706 
Q 2900 1003 2900 1516 
L 2900 3500 
L 3475 3500 
L 3475 0 
L 2900 0 
L 2900 538 
Q 2691 219 2414 64 
Q 2138 -91 1772 -91 
Q 1169 -91 856 284 
Q 544 659 544 1381 
z
M 1991 3584 
L 1991 3584 
z
" transform="scale(0.015625)"/>
       <path id="DejaVuSans-63" d="M 3122 3366 
L 3122 2828 
Q 2878 2963 2633 3030 
Q 2388 3097 2138 3097 
Q 1578 3097 1268 2742 
Q 959 2388 959 1747 
Q 959 1106 1268 751 
Q 1578 397 2138 397 
Q 2388 397 2633 464 
Q 2878 531 3122 666 
L 3122 134 
Q 2881 22 2623 -34 
Q 2366 -91 2075 -91 
Q 1284 -91 818 406 
Q 353 903 353 1747 
Q 353 2603 823 3093 
Q 1294 3584 2113 3584 
Q 2378 3584 2631 3529 
Q 2884 3475 3122 3366 
z
" transform="scale(0.015625)"/>
       <path id="DejaVuSans-68" d="M 3513 2113 
L 3513 0 
L 2938 0 
L 2938 2094 
Q 2938 2591 2744 2837 
Q 2550 3084 2163 3084 
Q 1697 3084 1428 2787 
Q 1159 2491 1159 1978 
L 1159 0 
L 581 0 
L 581 4863 
L 1159 4863 
L 1159 2956 
Q 1366 3272 1645 3428 
Q 1925 3584 2291 3584 
Q 2894 3584 3203 3211 
Q 3513 2838 3513 2113 
z
" transform="scale(0.015625)"/>
       <path id="DejaVuSans-33" d="M 2597 2516 
Q 3050 2419 3304 2112 
Q 3559 1806 3559 1356 
Q 3559 666 3084 287 
Q 2609 -91 1734 -91 
Q 1441 -91 1130 -33 
Q 819 25 488 141 
L 488 750 
Q 750 597 1062 519 
Q 1375 441 1716 441 
Q 2309 441 2620 675 
Q 2931 909 2931 1356 
Q 2931 1769 2642 2001 
Q 2353 2234 1838 2234 
L 1294 2234 
L 1294 2753 
L 1863 2753 
Q 2328 2753 2575 2939 
Q 2822 3125 2822 3475 
Q 2822 3834 2567 4026 
Q 2313 4219 1838 4219 
Q 1578 4219 1281 4162 
Q 984 4106 628 3988 
L 628 4550 
Q 988 4650 1302 4700 
Q 1616 4750 1894 4750 
Q 2613 4750 3031 4423 
Q 3450 4097 3450 3541 
Q 3450 3153 3228 2886 
Q 3006 2619 2597 2516 
z
" transform="scale(0.015625)"/>
      </defs>
      <use xlink:href="#DejaVuSans-48"/>
      <use xlink:href="#DejaVuSans-69" x="75.195312"/>
      <use xlink:href="#DejaVuSans-67" x="102.978516"/>
      <use xlink:href="#DejaVuSans-75" x="166.455078"/>
      <use xlink:href="#DejaVuSans-63" x="229.833984"/>
      <use xlink:href="#DejaVuSans-68" x="284.814453"/>
      <use xlink:href="#DejaVuSans-69" x="348.193359"/>
      <use xlink:href="#DejaVuSans-20" x="375.976562"/>
      <use xlink:href="#DejaVuSans-28" x="407.763672"/>
      <use xlink:href="#DejaVuSans-41" x="446.777344"/>
      <use xlink:href="#DejaVuSans-55" x="515.185547"/>
      <use xlink:href="#DejaVuSans-43" x="588.378906"/>
      <use xlink:href="#DejaVuSans-3a" x="658.203125"/>
      <use xlink:href="#DejaVuSans-30" x="691.894531"/>
      <use xlink:href="#DejaVuSans-2e" x="755.517578"/>
      <use xlink:href="#DejaVuSans-30" x="787.304688"/>
      <use xlink:href="#DejaVuSans-30" x="850.927734"/>
      <use xlink:href="#DejaVuSans-31" x="914.550781"/>
      <use xlink:href="#DejaVuSans-33" x="978.173828"/>
      <use xlink:href="#DejaVuSans-39" x="1041.796875"/>
      <use xlink:href="#DejaVuSans-29" x="1105.419922"/>
     </g>
    </g>
    <g id="line2d_34">
     <path d="M 90 98.172813 
L 100 98.172813 
L 110 98.172813 
" style="fill: none; stroke: #000000; stroke-width: 1.5; stroke-linecap: square"/>
    </g>
    <g id="text_19">
     <!-- Whittle fBm (AUC:0.000184) -->
     <g transform="translate(118 101.672813)scale(0.1 -0.1)">
      <defs>
       <path id="DejaVuSans-57" d="M 213 4666 
L 850 4666 
L 1831 722 
L 2809 4666 
L 3519 4666 
L 4500 722 
L 5478 4666 
L 6119 4666 
L 4947 0 
L 4153 0 
L 3169 4050 
L 2175 0 
L 1381 0 
L 213 4666 
z
" transform="scale(0.015625)"/>
       <path id="DejaVuSans-66" d="M 2375 4863 
L 2375 4384 
L 1825 4384 
Q 1516 4384 1395 4259 
Q 1275 4134 1275 3809 
L 1275 3500 
L 2222 3500 
L 2222 3053 
L 1275 3053 
L 1275 0 
L 697 0 
L 697 3053 
L 147 3053 
L 147 3500 
L 697 3500 
L 697 3744 
Q 697 4328 969 4595 
Q 1241 4863 1831 4863 
L 2375 4863 
z
" transform="scale(0.015625)"/>
      </defs>
      <use xlink:href="#DejaVuSans-57"/>
      <use xlink:href="#DejaVuSans-68" x="98.876953"/>
      <use xlink:href="#DejaVuSans-69" x="162.255859"/>
      <use xlink:href="#DejaVuSans-74" x="190.039062"/>
      <use xlink:href="#DejaVuSans-74" x="229.248047"/>
      <use xlink:href="#DejaVuSans-6c" x="268.457031"/>
      <use xlink:href="#DejaVuSans-65" x="296.240234"/>
      <use xlink:href="#DejaVuSans-20" x="357.763672"/>
      <use xlink:href="#DejaVuSans-66" x="389.550781"/>
      <use xlink:href="#DejaVuSans-42" x="424.755859"/>
      <use xlink:href="#DejaVuSans-6d" x="493.359375"/>
      <use xlink:href="#DejaVuSans-20" x="590.771484"/>
      <use xlink:href="#DejaVuSans-28" x="622.558594"/>
      <use xlink:href="#DejaVuSans-41" x="661.572266"/>
      <use xlink:href="#DejaVuSans-55" x="729.980469"/>
      <use xlink:href="#DejaVuSans-43" x="803.173828"/>
      <use xlink:href="#DejaVuSans-3a" x="872.998047"/>
      <use xlink:href="#DejaVuSans-30" x="906.689453"/>
      <use xlink:href="#DejaVuSans-2e" x="970.3125"/>
      <use xlink:href="#DejaVuSans-30" x="1002.099609"/>
      <use xlink:href="#DejaVuSans-30" x="1065.722656"/>
      <use xlink:href="#DejaVuSans-30" x="1129.345703"/>
      <use xlink:href="#DejaVuSans-31" x="1192.96875"/>
      <use xlink:href="#DejaVuSans-38" x="1256.591797"/>
      <use xlink:href="#DejaVuSans-34" x="1320.214844"/>
      <use xlink:href="#DejaVuSans-29" x="1383.837891"/>
     </g>
    </g>
    <g id="line2d_35">
     <path d="M 90 112.850938 
L 100 112.850938 
L 110 112.850938 
" style="fill: none; stroke: #ff0000; stroke-width: 1.5; stroke-linecap: square"/>
    </g>
    <g id="text_20">
     <!-- Whittle ARFIMA (AUC:0.0213) -->
     <g transform="translate(118 116.350938)scale(0.1 -0.1)">
      <defs>
       <path id="DejaVuSans-46" d="M 628 4666 
L 3309 4666 
L 3309 4134 
L 1259 4134 
L 1259 2759 
L 3109 2759 
L 3109 2228 
L 1259 2228 
L 1259 0 
L 628 0 
L 628 4666 
z
" transform="scale(0.015625)"/>
       <path id="DejaVuSans-49" d="M 628 4666 
L 1259 4666 
L 1259 0 
L 628 0 
L 628 4666 
z
" transform="scale(0.015625)"/>
       <path id="DejaVuSans-4d" d="M 628 4666 
L 1569 4666 
L 2759 1491 
L 3956 4666 
L 4897 4666 
L 4897 0 
L 4281 0 
L 4281 4097 
L 3078 897 
L 2444 897 
L 1241 4097 
L 1241 0 
L 628 0 
L 628 4666 
z
" transform="scale(0.015625)"/>
      </defs>
      <use xlink:href="#DejaVuSans-57"/>
      <use xlink:href="#DejaVuSans-68" x="98.876953"/>
      <use xlink:href="#DejaVuSans-69" x="162.255859"/>
      <use xlink:href="#DejaVuSans-74" x="190.039062"/>
      <use xlink:href="#DejaVuSans-74" x="229.248047"/>
      <use xlink:href="#DejaVuSans-6c" x="268.457031"/>
      <use xlink:href="#DejaVuSans-65" x="296.240234"/>
      <use xlink:href="#DejaVuSans-20" x="357.763672"/>
      <use xlink:href="#DejaVuSans-41" x="389.550781"/>
      <use xlink:href="#DejaVuSans-52" x="457.958984"/>
      <use xlink:href="#DejaVuSans-46" x="527.441406"/>
      <use xlink:href="#DejaVuSans-49" x="584.960938"/>
      <use xlink:href="#DejaVuSans-4d" x="614.453125"/>
      <use xlink:href="#DejaVuSans-41" x="700.732422"/>
      <use xlink:href="#DejaVuSans-20" x="769.140625"/>
      <use xlink:href="#DejaVuSans-28" x="800.927734"/>
      <use xlink:href="#DejaVuSans-41" x="839.941406"/>
      <use xlink:href="#DejaVuSans-55" x="908.349609"/>
      <use xlink:href="#DejaVuSans-43" x="981.542969"/>
      <use xlink:href="#DejaVuSans-3a" x="1051.367188"/>
      <use xlink:href="#DejaVuSans-30" x="1085.058594"/>
      <use xlink:href="#DejaVuSans-2e" x="1148.681641"/>
      <use xlink:href="#DejaVuSans-30" x="1180.46875"/>
      <use xlink:href="#DejaVuSans-32" x="1244.091797"/>
      <use xlink:href="#DejaVuSans-31" x="1307.714844"/>
      <use xlink:href="#DejaVuSans-33" x="1371.337891"/>
      <use xlink:href="#DejaVuSans-29" x="1434.960938"/>
     </g>
    </g>
    <g id="line2d_36">
     <path d="M 90 127.529063 
L 100 127.529063 
L 110 127.529063 
" style="fill: none; stroke: #1f77b4; stroke-width: 1.5; stroke-linecap: square"/>
    </g>
    <g id="text_21">
     <!-- LSTM (AUC:0.0223) -->
     <g transform="translate(118 131.029063)scale(0.1 -0.1)">
      <defs>
       <path id="DejaVuSans-4c" d="M 628 4666 
L 1259 4666 
L 1259 531 
L 3531 531 
L 3531 0 
L 628 0 
L 628 4666 
z
" transform="scale(0.015625)"/>
       <path id="DejaVuSans-54" d="M -19 4666 
L 3928 4666 
L 3928 4134 
L 2272 4134 
L 2272 0 
L 1638 0 
L 1638 4134 
L -19 4134 
L -19 4666 
z
" transform="scale(0.015625)"/>
      </defs>
      <use xlink:href="#DejaVuSans-4c"/>
      <use xlink:href="#DejaVuSans-53" x="55.712891"/>
      <use xlink:href="#DejaVuSans-54" x="119.189453"/>
      <use xlink:href="#DejaVuSans-4d" x="180.273438"/>
      <use xlink:href="#DejaVuSans-20" x="266.552734"/>
      <use xlink:href="#DejaVuSans-28" x="298.339844"/>
      <use xlink:href="#DejaVuSans-41" x="337.353516"/>
      <use xlink:href="#DejaVuSans-55" x="405.761719"/>
      <use xlink:href="#DejaVuSans-43" x="478.955078"/>
      <use xlink:href="#DejaVuSans-3a" x="548.779297"/>
      <use xlink:href="#DejaVuSans-30" x="582.470703"/>
      <use xlink:href="#DejaVuSans-2e" x="646.09375"/>
      <use xlink:href="#DejaVuSans-30" x="677.880859"/>
      <use xlink:href="#DejaVuSans-32" x="741.503906"/>
      <use xlink:href="#DejaVuSans-32" x="805.126953"/>
      <use xlink:href="#DejaVuSans-33" x="868.75"/>
      <use xlink:href="#DejaVuSans-29" x="932.373047"/>
     </g>
    </g>
   </g>
  </g>
 </g>
 <defs>
  <clipPath id="peeacae0568">
   <rect x="81" y="41.04" width="502.2" height="263.34"/>
  </clipPath>
 </defs>
</svg>
