<?xml version="1.0" encoding="utf-8" standalone="no"?>
<!DOCTYPE svg PUBLIC "-//W3C//DTD SVG 1.1//EN"
  "http://www.w3.org/Graphics/SVG/1.1/DTD/svg11.dtd">
<svg xmlns:xlink="http://www.w3.org/1999/xlink" width="432pt" height="252pt" viewBox="0 0 432 252" xmlns="http://www.w3.org/2000/svg" version="1.1">
 <metadata>
  <rdf:RDF xmlns:dc="http://purl.org/dc/elements/1.1/" xmlns:cc="http://creativecommons.org/ns#" xmlns:rdf="http://www.w3.org/1999/02/22-rdf-syntax-ns#">
   <cc:Work>
    <dc:type rdf:resource="http://purl.org/dc/dcmitype/StillImage"/>
    <dc:date>2024-07-04T23:36:21.469862</dc:date>
    <dc:format>image/svg+xml</dc:format>
    <dc:creator>
     <cc:Agent>
      <dc:title>Matplotlib v3.5.1, https://matplotlib.org/</dc:title>
     </cc:Agent>
    </dc:creator>
   </cc:Work>
  </rdf:RDF>
 </metadata>
 <defs>
  <style type="text/css">*{stroke-linejoin: round; stroke-linecap: butt}</style>
 </defs>
 <g id="figure_1">
  <g id="patch_1">
   <path d="M 0 252 
L 432 252 
L 432 0 
L 0 0 
z
" style="fill: #ffffff"/>
  </g>
  <g id="axes_1">
   <g id="patch_2">
    <path d="M 54 224.28 
L 388.8 224.28 
L 388.8 30.24 
L 54 30.24 
L 54 224.28 
z
" style="fill: none; opacity: 0"/>
   </g>
   <g id="matplotlib.axis_1">
    <g id="xtick_1">
     <g id="line2d_1">
      <path d="M 69.218182 224.28 
L 69.218182 30.24 
" clip-path="url(#pd97a3cb4a4)" style="fill: none; stroke: #e6e6e6; stroke-width: 0.8; stroke-linecap: square"/>
     </g>
     <g id="line2d_2">
      <defs>
       <path id="m5300c093a5" d="M 0 0 
L 0 3.5 
" style="stroke: #000000; stroke-width: 0.8"/>
      </defs>
      <g>
       <use xlink:href="#m5300c093a5" x="69.218182" y="224.28" style="stroke: #000000; stroke-width: 0.8"/>
      </g>
     </g>
     <g id="text_1">
      <!-- 0.0 -->
      <g transform="translate(61.266619 238.878438)scale(0.1 -0.1)">
       <defs>
        <path id="DejaVuSans-30" d="M 2034 4250 
Q 1547 4250 1301 3770 
Q 1056 3291 1056 2328 
Q 1056 1369 1301 889 
Q 1547 409 2034 409 
Q 2525 409 2770 889 
Q 3016 1369 3016 2328 
Q 3016 3291 2770 3770 
Q 2525 4250 2034 4250 
z
M 2034 4750 
Q 2819 4750 3233 4129 
Q 3647 3509 3647 2328 
Q 3647 1150 3233 529 
Q 2819 -91 2034 -91 
Q 1250 -91 836 529 
Q 422 1150 422 2328 
Q 422 3509 836 4129 
Q 1250 4750 2034 4750 
z
" transform="scale(0.015625)"/>
        <path id="DejaVuSans-2e" d="M 684 794 
L 1344 794 
L 1344 0 
L 684 0 
L 684 794 
z
" transform="scale(0.015625)"/>
       </defs>
       <use xlink:href="#DejaVuSans-30"/>
       <use xlink:href="#DejaVuSans-2e" x="63.623047"/>
       <use xlink:href="#DejaVuSans-30" x="95.410156"/>
      </g>
     </g>
    </g>
    <g id="xtick_2">
     <g id="line2d_3">
      <path d="M 127.967442 224.28 
L 127.967442 30.24 
" clip-path="url(#pd97a3cb4a4)" style="fill: none; stroke: #e6e6e6; stroke-width: 0.8; stroke-linecap: square"/>
     </g>
     <g id="line2d_4">
      <g>
       <use xlink:href="#m5300c093a5" x="127.967442" y="224.28" style="stroke: #000000; stroke-width: 0.8"/>
      </g>
     </g>
     <g id="text_2">
      <!-- 0.1 -->
      <g transform="translate(120.015879 238.878438)scale(0.1 -0.1)">
       <defs>
        <path id="DejaVuSans-31" d="M 794 531 
L 1825 531 
L 1825 4091 
L 703 3866 
L 703 4441 
L 1819 4666 
L 2450 4666 
L 2450 531 
L 3481 531 
L 3481 0 
L 794 0 
L 794 531 
z
" transform="scale(0.015625)"/>
       </defs>
       <use xlink:href="#DejaVuSans-30"/>
       <use xlink:href="#DejaVuSans-2e" x="63.623047"/>
       <use xlink:href="#DejaVuSans-31" x="95.410156"/>
      </g>
     </g>
    </g>
    <g id="xtick_3">
     <g id="line2d_5">
      <path d="M 186.716702 224.28 
L 186.716702 30.24 
" clip-path="url(#pd97a3cb4a4)" style="fill: none; stroke: #e6e6e6; stroke-width: 0.8; stroke-linecap: square"/>
     </g>
     <g id="line2d_6">
      <g>
       <use xlink:href="#m5300c093a5" x="186.716702" y="224.28" style="stroke: #000000; stroke-width: 0.8"/>
      </g>
     </g>
     <g id="text_3">
      <!-- 0.2 -->
      <g transform="translate(178.765139 238.878438)scale(0.1 -0.1)">
       <defs>
        <path id="DejaVuSans-32" d="M 1228 531 
L 3431 531 
L 3431 0 
L 469 0 
L 469 531 
Q 828 903 1448 1529 
Q 2069 2156 2228 2338 
Q 2531 2678 2651 2914 
Q 2772 3150 2772 3378 
Q 2772 3750 2511 3984 
Q 2250 4219 1831 4219 
Q 1534 4219 1204 4116 
Q 875 4013 500 3803 
L 500 4441 
Q 881 4594 1212 4672 
Q 1544 4750 1819 4750 
Q 2544 4750 2975 4387 
Q 3406 4025 3406 3419 
Q 3406 3131 3298 2873 
Q 3191 2616 2906 2266 
Q 2828 2175 2409 1742 
Q 1991 1309 1228 531 
z
" transform="scale(0.015625)"/>
       </defs>
       <use xlink:href="#DejaVuSans-30"/>
       <use xlink:href="#DejaVuSans-2e" x="63.623047"/>
       <use xlink:href="#DejaVuSans-32" x="95.410156"/>
      </g>
     </g>
    </g>
    <g id="xtick_4">
     <g id="line2d_7">
      <path d="M 245.465962 224.28 
L 245.465962 30.24 
" clip-path="url(#pd97a3cb4a4)" style="fill: none; stroke: #e6e6e6; stroke-width: 0.8; stroke-linecap: square"/>
     </g>
     <g id="line2d_8">
      <g>
       <use xlink:href="#m5300c093a5" x="245.465962" y="224.28" style="stroke: #000000; stroke-width: 0.8"/>
      </g>
     </g>
     <g id="text_4">
      <!-- 0.3 -->
      <g transform="translate(237.514399 238.878438)scale(0.1 -0.1)">
       <defs>
        <path id="DejaVuSans-33" d="M 2597 2516 
Q 3050 2419 3304 2112 
Q 3559 1806 3559 1356 
Q 3559 666 3084 287 
Q 2609 -91 1734 -91 
Q 1441 -91 1130 -33 
Q 819 25 488 141 
L 488 750 
Q 750 597 1062 519 
Q 1375 441 1716 441 
Q 2309 441 2620 675 
Q 2931 909 2931 1356 
Q 2931 1769 2642 2001 
Q 2353 2234 1838 2234 
L 1294 2234 
L 1294 2753 
L 1863 2753 
Q 2328 2753 2575 2939 
Q 2822 3125 2822 3475 
Q 2822 3834 2567 4026 
Q 2313 4219 1838 4219 
Q 1578 4219 1281 4162 
Q 984 4106 628 3988 
L 628 4550 
Q 988 4650 1302 4700 
Q 1616 4750 1894 4750 
Q 2613 4750 3031 4423 
Q 3450 4097 3450 3541 
Q 3450 3153 3228 2886 
Q 3006 2619 2597 2516 
z
" transform="scale(0.015625)"/>
       </defs>
       <use xlink:href="#DejaVuSans-30"/>
       <use xlink:href="#DejaVuSans-2e" x="63.623047"/>
       <use xlink:href="#DejaVuSans-33" x="95.410156"/>
      </g>
     </g>
    </g>
    <g id="xtick_5">
     <g id="line2d_9">
      <path d="M 304.215222 224.28 
L 304.215222 30.24 
" clip-path="url(#pd97a3cb4a4)" style="fill: none; stroke: #e6e6e6; stroke-width: 0.8; stroke-linecap: square"/>
     </g>
     <g id="line2d_10">
      <g>
       <use xlink:href="#m5300c093a5" x="304.215222" y="224.28" style="stroke: #000000; stroke-width: 0.8"/>
      </g>
     </g>
     <g id="text_5">
      <!-- 0.4 -->
      <g transform="translate(296.263659 238.878438)scale(0.1 -0.1)">
       <defs>
        <path id="DejaVuSans-34" d="M 2419 4116 
L 825 1625 
L 2419 1625 
L 2419 4116 
z
M 2253 4666 
L 3047 4666 
L 3047 1625 
L 3713 1625 
L 3713 1100 
L 3047 1100 
L 3047 0 
L 2419 0 
L 2419 1100 
L 313 1100 
L 313 1709 
L 2253 4666 
z
" transform="scale(0.015625)"/>
       </defs>
       <use xlink:href="#DejaVuSans-30"/>
       <use xlink:href="#DejaVuSans-2e" x="63.623047"/>
       <use xlink:href="#DejaVuSans-34" x="95.410156"/>
      </g>
     </g>
    </g>
    <g id="xtick_6">
     <g id="line2d_11">
      <path d="M 362.964482 224.28 
L 362.964482 30.24 
" clip-path="url(#pd97a3cb4a4)" style="fill: none; stroke: #e6e6e6; stroke-width: 0.8; stroke-linecap: square"/>
     </g>
     <g id="line2d_12">
      <g>
       <use xlink:href="#m5300c093a5" x="362.964482" y="224.28" style="stroke: #000000; stroke-width: 0.8"/>
      </g>
     </g>
     <g id="text_6">
      <!-- 0.5 -->
      <g transform="translate(355.01292 238.878438)scale(0.1 -0.1)">
       <defs>
        <path id="DejaVuSans-35" d="M 691 4666 
L 3169 4666 
L 3169 4134 
L 1269 4134 
L 1269 2991 
Q 1406 3038 1543 3061 
Q 1681 3084 1819 3084 
Q 2600 3084 3056 2656 
Q 3513 2228 3513 1497 
Q 3513 744 3044 326 
Q 2575 -91 1722 -91 
Q 1428 -91 1123 -41 
Q 819 9 494 109 
L 494 744 
Q 775 591 1075 516 
Q 1375 441 1709 441 
Q 2250 441 2565 725 
Q 2881 1009 2881 1497 
Q 2881 1984 2565 2268 
Q 2250 2553 1709 2553 
Q 1456 2553 1204 2497 
Q 953 2441 691 2322 
L 691 4666 
z
" transform="scale(0.015625)"/>
       </defs>
       <use xlink:href="#DejaVuSans-30"/>
       <use xlink:href="#DejaVuSans-2e" x="63.623047"/>
       <use xlink:href="#DejaVuSans-35" x="95.410156"/>
      </g>
     </g>
    </g>
    <g id="text_7">
     <!-- H - 1/2 -->
     <g transform="translate(204.610938 252.556563)scale(0.1 -0.1)">
      <defs>
       <path id="DejaVuSans-48" d="M 628 4666 
L 1259 4666 
L 1259 2753 
L 3553 2753 
L 3553 4666 
L 4184 4666 
L 4184 0 
L 3553 0 
L 3553 2222 
L 1259 2222 
L 1259 0 
L 628 0 
L 628 4666 
z
" transform="scale(0.015625)"/>
       <path id="DejaVuSans-20" transform="scale(0.015625)"/>
       <path id="DejaVuSans-2d" d="M 313 2009 
L 1997 2009 
L 1997 1497 
L 313 1497 
L 313 2009 
z
" transform="scale(0.015625)"/>
       <path id="DejaVuSans-2f" d="M 1625 4666 
L 2156 4666 
L 531 -594 
L 0 -594 
L 1625 4666 
z
" transform="scale(0.015625)"/>
      </defs>
      <use xlink:href="#DejaVuSans-48"/>
      <use xlink:href="#DejaVuSans-20" x="75.195312"/>
      <use xlink:href="#DejaVuSans-2d" x="106.982422"/>
      <use xlink:href="#DejaVuSans-20" x="143.066406"/>
      <use xlink:href="#DejaVuSans-31" x="174.853516"/>
      <use xlink:href="#DejaVuSans-2f" x="238.476562"/>
      <use xlink:href="#DejaVuSans-32" x="272.167969"/>
     </g>
    </g>
   </g>
   <g id="matplotlib.axis_2">
    <g id="ytick_1">
     <g id="line2d_13">
      <path d="M 54 216.928442 
L 388.8 216.928442 
" clip-path="url(#pd97a3cb4a4)" style="fill: none; stroke: #e6e6e6; stroke-width: 0.8; stroke-linecap: square"/>
     </g>
     <g id="line2d_14">
      <defs>
       <path id="mbef5b44484" d="M 0 0 
L -3.5 0 
" style="stroke: #000000; stroke-width: 0.8"/>
      </defs>
      <g>
       <use xlink:href="#mbef5b44484" x="54" y="216.928442" style="stroke: #000000; stroke-width: 0.8"/>
      </g>
     </g>
     <g id="text_8">
      <!-- 0.00 -->
      <g transform="translate(24.734375 220.72766)scale(0.1 -0.1)">
       <use xlink:href="#DejaVuSans-30"/>
       <use xlink:href="#DejaVuSans-2e" x="63.623047"/>
       <use xlink:href="#DejaVuSans-30" x="95.410156"/>
       <use xlink:href="#DejaVuSans-30" x="159.033203"/>
      </g>
     </g>
    </g>
    <g id="ytick_2">
     <g id="line2d_15">
      <path d="M 54 192.673409 
L 388.8 192.673409 
" clip-path="url(#pd97a3cb4a4)" style="fill: none; stroke: #e6e6e6; stroke-width: 0.8; stroke-linecap: square"/>
     </g>
     <g id="line2d_16">
      <g>
       <use xlink:href="#mbef5b44484" x="54" y="192.673409" style="stroke: #000000; stroke-width: 0.8"/>
      </g>
     </g>
     <g id="text_9">
      <!-- 0.01 -->
      <g transform="translate(24.734375 196.472627)scale(0.1 -0.1)">
       <use xlink:href="#DejaVuSans-30"/>
       <use xlink:href="#DejaVuSans-2e" x="63.623047"/>
       <use xlink:href="#DejaVuSans-30" x="95.410156"/>
       <use xlink:href="#DejaVuSans-31" x="159.033203"/>
      </g>
     </g>
    </g>
    <g id="ytick_3">
     <g id="line2d_17">
      <path d="M 54 168.418376 
L 388.8 168.418376 
" clip-path="url(#pd97a3cb4a4)" style="fill: none; stroke: #e6e6e6; stroke-width: 0.8; stroke-linecap: square"/>
     </g>
     <g id="line2d_18">
      <g>
       <use xlink:href="#mbef5b44484" x="54" y="168.418376" style="stroke: #000000; stroke-width: 0.8"/>
      </g>
     </g>
     <g id="text_10">
      <!-- 0.02 -->
      <g transform="translate(24.734375 172.217595)scale(0.1 -0.1)">
       <use xlink:href="#DejaVuSans-30"/>
       <use xlink:href="#DejaVuSans-2e" x="63.623047"/>
       <use xlink:href="#DejaVuSans-30" x="95.410156"/>
       <use xlink:href="#DejaVuSans-32" x="159.033203"/>
      </g>
     </g>
    </g>
    <g id="ytick_4">
     <g id="line2d_19">
      <path d="M 54 144.163343 
L 388.8 144.163343 
" clip-path="url(#pd97a3cb4a4)" style="fill: none; stroke: #e6e6e6; stroke-width: 0.8; stroke-linecap: square"/>
     </g>
     <g id="line2d_20">
      <g>
       <use xlink:href="#mbef5b44484" x="54" y="144.163343" style="stroke: #000000; stroke-width: 0.8"/>
      </g>
     </g>
     <g id="text_11">
      <!-- 0.03 -->
      <g transform="translate(24.734375 147.962562)scale(0.1 -0.1)">
       <use xlink:href="#DejaVuSans-30"/>
       <use xlink:href="#DejaVuSans-2e" x="63.623047"/>
       <use xlink:href="#DejaVuSans-30" x="95.410156"/>
       <use xlink:href="#DejaVuSans-33" x="159.033203"/>
      </g>
     </g>
    </g>
    <g id="ytick_5">
     <g id="line2d_21">
      <path d="M 54 119.90831 
L 388.8 119.90831 
" clip-path="url(#pd97a3cb4a4)" style="fill: none; stroke: #e6e6e6; stroke-width: 0.8; stroke-linecap: square"/>
     </g>
     <g id="line2d_22">
      <g>
       <use xlink:href="#mbef5b44484" x="54" y="119.90831" style="stroke: #000000; stroke-width: 0.8"/>
      </g>
     </g>
     <g id="text_12">
      <!-- 0.04 -->
      <g transform="translate(24.734375 123.707529)scale(0.1 -0.1)">
       <use xlink:href="#DejaVuSans-30"/>
       <use xlink:href="#DejaVuSans-2e" x="63.623047"/>
       <use xlink:href="#DejaVuSans-30" x="95.410156"/>
       <use xlink:href="#DejaVuSans-34" x="159.033203"/>
      </g>
     </g>
    </g>
    <g id="ytick_6">
     <g id="line2d_23">
      <path d="M 54 95.653277 
L 388.8 95.653277 
" clip-path="url(#pd97a3cb4a4)" style="fill: none; stroke: #e6e6e6; stroke-width: 0.8; stroke-linecap: square"/>
     </g>
     <g id="line2d_24">
      <g>
       <use xlink:href="#mbef5b44484" x="54" y="95.653277" style="stroke: #000000; stroke-width: 0.8"/>
      </g>
     </g>
     <g id="text_13">
      <!-- 0.05 -->
      <g transform="translate(24.734375 99.452496)scale(0.1 -0.1)">
       <use xlink:href="#DejaVuSans-30"/>
       <use xlink:href="#DejaVuSans-2e" x="63.623047"/>
       <use xlink:href="#DejaVuSans-30" x="95.410156"/>
       <use xlink:href="#DejaVuSans-35" x="159.033203"/>
      </g>
     </g>
    </g>
    <g id="ytick_7">
     <g id="line2d_25">
      <path d="M 54 71.398245 
L 388.8 71.398245 
" clip-path="url(#pd97a3cb4a4)" style="fill: none; stroke: #e6e6e6; stroke-width: 0.8; stroke-linecap: square"/>
     </g>
     <g id="line2d_26">
      <g>
       <use xlink:href="#mbef5b44484" x="54" y="71.398245" style="stroke: #000000; stroke-width: 0.8"/>
      </g>
     </g>
     <g id="text_14">
      <!-- 0.06 -->
      <g transform="translate(24.734375 75.197463)scale(0.1 -0.1)">
       <defs>
        <path id="DejaVuSans-36" d="M 2113 2584 
Q 1688 2584 1439 2293 
Q 1191 2003 1191 1497 
Q 1191 994 1439 701 
Q 1688 409 2113 409 
Q 2538 409 2786 701 
Q 3034 994 3034 1497 
Q 3034 2003 2786 2293 
Q 2538 2584 2113 2584 
z
M 3366 4563 
L 3366 3988 
Q 3128 4100 2886 4159 
Q 2644 4219 2406 4219 
Q 1781 4219 1451 3797 
Q 1122 3375 1075 2522 
Q 1259 2794 1537 2939 
Q 1816 3084 2150 3084 
Q 2853 3084 3261 2657 
Q 3669 2231 3669 1497 
Q 3669 778 3244 343 
Q 2819 -91 2113 -91 
Q 1303 -91 875 529 
Q 447 1150 447 2328 
Q 447 3434 972 4092 
Q 1497 4750 2381 4750 
Q 2619 4750 2861 4703 
Q 3103 4656 3366 4563 
z
" transform="scale(0.015625)"/>
       </defs>
       <use xlink:href="#DejaVuSans-30"/>
       <use xlink:href="#DejaVuSans-2e" x="63.623047"/>
       <use xlink:href="#DejaVuSans-30" x="95.410156"/>
       <use xlink:href="#DejaVuSans-36" x="159.033203"/>
      </g>
     </g>
    </g>
    <g id="ytick_8">
     <g id="line2d_27">
      <path d="M 54 47.143212 
L 388.8 47.143212 
" clip-path="url(#pd97a3cb4a4)" style="fill: none; stroke: #e6e6e6; stroke-width: 0.8; stroke-linecap: square"/>
     </g>
     <g id="line2d_28">
      <g>
       <use xlink:href="#mbef5b44484" x="54" y="47.143212" style="stroke: #000000; stroke-width: 0.8"/>
      </g>
     </g>
     <g id="text_15">
      <!-- 0.07 -->
      <g transform="translate(24.734375 50.942431)scale(0.1 -0.1)">
       <defs>
        <path id="DejaVuSans-37" d="M 525 4666 
L 3525 4666 
L 3525 4397 
L 1831 0 
L 1172 0 
L 2766 4134 
L 525 4134 
L 525 4666 
z
" transform="scale(0.015625)"/>
       </defs>
       <use xlink:href="#DejaVuSans-30"/>
       <use xlink:href="#DejaVuSans-2e" x="63.623047"/>
       <use xlink:href="#DejaVuSans-30" x="95.410156"/>
       <use xlink:href="#DejaVuSans-37" x="159.033203"/>
      </g>
     </g>
    </g>
    <g id="text_16">
     <!-- deviation -->
     <g transform="translate(18.654687 150.500625)rotate(-90)scale(0.1 -0.1)">
      <defs>
       <path id="DejaVuSans-64" d="M 2906 2969 
L 2906 4863 
L 3481 4863 
L 3481 0 
L 2906 0 
L 2906 525 
Q 2725 213 2448 61 
Q 2172 -91 1784 -91 
Q 1150 -91 751 415 
Q 353 922 353 1747 
Q 353 2572 751 3078 
Q 1150 3584 1784 3584 
Q 2172 3584 2448 3432 
Q 2725 3281 2906 2969 
z
M 947 1747 
Q 947 1113 1208 752 
Q 1469 391 1925 391 
Q 2381 391 2643 752 
Q 2906 1113 2906 1747 
Q 2906 2381 2643 2742 
Q 2381 3103 1925 3103 
Q 1469 3103 1208 2742 
Q 947 2381 947 1747 
z
" transform="scale(0.015625)"/>
       <path id="DejaVuSans-65" d="M 3597 1894 
L 3597 1613 
L 953 1613 
Q 991 1019 1311 708 
Q 1631 397 2203 397 
Q 2534 397 2845 478 
Q 3156 559 3463 722 
L 3463 178 
Q 3153 47 2828 -22 
Q 2503 -91 2169 -91 
Q 1331 -91 842 396 
Q 353 884 353 1716 
Q 353 2575 817 3079 
Q 1281 3584 2069 3584 
Q 2775 3584 3186 3129 
Q 3597 2675 3597 1894 
z
M 3022 2063 
Q 3016 2534 2758 2815 
Q 2500 3097 2075 3097 
Q 1594 3097 1305 2825 
Q 1016 2553 972 2059 
L 3022 2063 
z
" transform="scale(0.015625)"/>
       <path id="DejaVuSans-76" d="M 191 3500 
L 800 3500 
L 1894 563 
L 2988 3500 
L 3597 3500 
L 2284 0 
L 1503 0 
L 191 3500 
z
" transform="scale(0.015625)"/>
       <path id="DejaVuSans-69" d="M 603 3500 
L 1178 3500 
L 1178 0 
L 603 0 
L 603 3500 
z
M 603 4863 
L 1178 4863 
L 1178 4134 
L 603 4134 
L 603 4863 
z
" transform="scale(0.015625)"/>
       <path id="DejaVuSans-61" d="M 2194 1759 
Q 1497 1759 1228 1600 
Q 959 1441 959 1056 
Q 959 750 1161 570 
Q 1363 391 1709 391 
Q 2188 391 2477 730 
Q 2766 1069 2766 1631 
L 2766 1759 
L 2194 1759 
z
M 3341 1997 
L 3341 0 
L 2766 0 
L 2766 531 
Q 2569 213 2275 61 
Q 1981 -91 1556 -91 
Q 1019 -91 701 211 
Q 384 513 384 1019 
Q 384 1609 779 1909 
Q 1175 2209 1959 2209 
L 2766 2209 
L 2766 2266 
Q 2766 2663 2505 2880 
Q 2244 3097 1772 3097 
Q 1472 3097 1187 3025 
Q 903 2953 641 2809 
L 641 3341 
Q 956 3463 1253 3523 
Q 1550 3584 1831 3584 
Q 2591 3584 2966 3190 
Q 3341 2797 3341 1997 
z
" transform="scale(0.015625)"/>
       <path id="DejaVuSans-74" d="M 1172 4494 
L 1172 3500 
L 2356 3500 
L 2356 3053 
L 1172 3053 
L 1172 1153 
Q 1172 725 1289 603 
Q 1406 481 1766 481 
L 2356 481 
L 2356 0 
L 1766 0 
Q 1100 0 847 248 
Q 594 497 594 1153 
L 594 3053 
L 172 3053 
L 172 3500 
L 594 3500 
L 594 4494 
L 1172 4494 
z
" transform="scale(0.015625)"/>
       <path id="DejaVuSans-6f" d="M 1959 3097 
Q 1497 3097 1228 2736 
Q 959 2375 959 1747 
Q 959 1119 1226 758 
Q 1494 397 1959 397 
Q 2419 397 2687 759 
Q 2956 1122 2956 1747 
Q 2956 2369 2687 2733 
Q 2419 3097 1959 3097 
z
M 1959 3584 
Q 2709 3584 3137 3096 
Q 3566 2609 3566 1747 
Q 3566 888 3137 398 
Q 2709 -91 1959 -91 
Q 1206 -91 779 398 
Q 353 888 353 1747 
Q 353 2609 779 3096 
Q 1206 3584 1959 3584 
z
" transform="scale(0.015625)"/>
       <path id="DejaVuSans-6e" d="M 3513 2113 
L 3513 0 
L 2938 0 
L 2938 2094 
Q 2938 2591 2744 2837 
Q 2550 3084 2163 3084 
Q 1697 3084 1428 2787 
Q 1159 2491 1159 1978 
L 1159 0 
L 581 0 
L 581 3500 
L 1159 3500 
L 1159 2956 
Q 1366 3272 1645 3428 
Q 1925 3584 2291 3584 
Q 2894 3584 3203 3211 
Q 3513 2838 3513 2113 
z
" transform="scale(0.015625)"/>
      </defs>
      <use xlink:href="#DejaVuSans-64"/>
      <use xlink:href="#DejaVuSans-65" x="63.476562"/>
      <use xlink:href="#DejaVuSans-76" x="125"/>
      <use xlink:href="#DejaVuSans-69" x="184.179688"/>
      <use xlink:href="#DejaVuSans-61" x="211.962891"/>
      <use xlink:href="#DejaVuSans-74" x="273.242188"/>
      <use xlink:href="#DejaVuSans-69" x="312.451172"/>
      <use xlink:href="#DejaVuSans-6f" x="340.234375"/>
      <use xlink:href="#DejaVuSans-6e" x="401.416016"/>
     </g>
    </g>
   </g>
   <g id="patch_3">
    <path d="M 54 224.28 
L 54 30.24 
" style="fill: none; stroke: #000000; stroke-width: 0.8; stroke-linejoin: miter; stroke-linecap: square"/>
   </g>
   <g id="patch_4">
    <path d="M 388.8 224.28 
L 388.8 30.24 
" style="fill: none; stroke: #e6e6e6; stroke-width: 0.8; stroke-linejoin: miter; stroke-linecap: square"/>
   </g>
   <g id="patch_5">
    <path d="M 54 224.28 
L 388.8 224.28 
" style="fill: none; stroke: #000000; stroke-width: 0.8; stroke-linejoin: miter; stroke-linecap: square"/>
   </g>
   <g id="patch_6">
    <path d="M 54 30.24 
L 388.8 30.24 
" style="fill: none; stroke: #e6e6e6; stroke-width: 0.8; stroke-linejoin: miter; stroke-linecap: square"/>
   </g>
   <g id="text_17">
    <!-- Deviations (steps: 250, interval:+-0.02) -->
    <g transform="translate(102.239063 24.24)scale(0.12 -0.12)">
     <defs>
      <path id="DejaVuSans-44" d="M 1259 4147 
L 1259 519 
L 2022 519 
Q 2988 519 3436 956 
Q 3884 1394 3884 2338 
Q 3884 3275 3436 3711 
Q 2988 4147 2022 4147 
L 1259 4147 
z
M 628 4666 
L 1925 4666 
Q 3281 4666 3915 4102 
Q 4550 3538 4550 2338 
Q 4550 1131 3912 565 
Q 3275 0 1925 0 
L 628 0 
L 628 4666 
z
" transform="scale(0.015625)"/>
      <path id="DejaVuSans-73" d="M 2834 3397 
L 2834 2853 
Q 2591 2978 2328 3040 
Q 2066 3103 1784 3103 
Q 1356 3103 1142 2972 
Q 928 2841 928 2578 
Q 928 2378 1081 2264 
Q 1234 2150 1697 2047 
L 1894 2003 
Q 2506 1872 2764 1633 
Q 3022 1394 3022 966 
Q 3022 478 2636 193 
Q 2250 -91 1575 -91 
Q 1294 -91 989 -36 
Q 684 19 347 128 
L 347 722 
Q 666 556 975 473 
Q 1284 391 1588 391 
Q 1994 391 2212 530 
Q 2431 669 2431 922 
Q 2431 1156 2273 1281 
Q 2116 1406 1581 1522 
L 1381 1569 
Q 847 1681 609 1914 
Q 372 2147 372 2553 
Q 372 3047 722 3315 
Q 1072 3584 1716 3584 
Q 2034 3584 2315 3537 
Q 2597 3491 2834 3397 
z
" transform="scale(0.015625)"/>
      <path id="DejaVuSans-28" d="M 1984 4856 
Q 1566 4138 1362 3434 
Q 1159 2731 1159 2009 
Q 1159 1288 1364 580 
Q 1569 -128 1984 -844 
L 1484 -844 
Q 1016 -109 783 600 
Q 550 1309 550 2009 
Q 550 2706 781 3412 
Q 1013 4119 1484 4856 
L 1984 4856 
z
" transform="scale(0.015625)"/>
      <path id="DejaVuSans-70" d="M 1159 525 
L 1159 -1331 
L 581 -1331 
L 581 3500 
L 1159 3500 
L 1159 2969 
Q 1341 3281 1617 3432 
Q 1894 3584 2278 3584 
Q 2916 3584 3314 3078 
Q 3713 2572 3713 1747 
Q 3713 922 3314 415 
Q 2916 -91 2278 -91 
Q 1894 -91 1617 61 
Q 1341 213 1159 525 
z
M 3116 1747 
Q 3116 2381 2855 2742 
Q 2594 3103 2138 3103 
Q 1681 3103 1420 2742 
Q 1159 2381 1159 1747 
Q 1159 1113 1420 752 
Q 1681 391 2138 391 
Q 2594 391 2855 752 
Q 3116 1113 3116 1747 
z
" transform="scale(0.015625)"/>
      <path id="DejaVuSans-3a" d="M 750 794 
L 1409 794 
L 1409 0 
L 750 0 
L 750 794 
z
M 750 3309 
L 1409 3309 
L 1409 2516 
L 750 2516 
L 750 3309 
z
" transform="scale(0.015625)"/>
      <path id="DejaVuSans-2c" d="M 750 794 
L 1409 794 
L 1409 256 
L 897 -744 
L 494 -744 
L 750 256 
L 750 794 
z
" transform="scale(0.015625)"/>
      <path id="DejaVuSans-72" d="M 2631 2963 
Q 2534 3019 2420 3045 
Q 2306 3072 2169 3072 
Q 1681 3072 1420 2755 
Q 1159 2438 1159 1844 
L 1159 0 
L 581 0 
L 581 3500 
L 1159 3500 
L 1159 2956 
Q 1341 3275 1631 3429 
Q 1922 3584 2338 3584 
Q 2397 3584 2469 3576 
Q 2541 3569 2628 3553 
L 2631 2963 
z
" transform="scale(0.015625)"/>
      <path id="DejaVuSans-6c" d="M 603 4863 
L 1178 4863 
L 1178 0 
L 603 0 
L 603 4863 
z
" transform="scale(0.015625)"/>
      <path id="DejaVuSans-2b" d="M 2944 4013 
L 2944 2272 
L 4684 2272 
L 4684 1741 
L 2944 1741 
L 2944 0 
L 2419 0 
L 2419 1741 
L 678 1741 
L 678 2272 
L 2419 2272 
L 2419 4013 
L 2944 4013 
z
" transform="scale(0.015625)"/>
      <path id="DejaVuSans-29" d="M 513 4856 
L 1013 4856 
Q 1481 4119 1714 3412 
Q 1947 2706 1947 2009 
Q 1947 1309 1714 600 
Q 1481 -109 1013 -844 
L 513 -844 
Q 928 -128 1133 580 
Q 1338 1288 1338 2009 
Q 1338 2731 1133 3434 
Q 928 4138 513 4856 
z
" transform="scale(0.015625)"/>
     </defs>
     <use xlink:href="#DejaVuSans-44"/>
     <use xlink:href="#DejaVuSans-65" x="77.001953"/>
     <use xlink:href="#DejaVuSans-76" x="138.525391"/>
     <use xlink:href="#DejaVuSans-69" x="197.705078"/>
     <use xlink:href="#DejaVuSans-61" x="225.488281"/>
     <use xlink:href="#DejaVuSans-74" x="286.767578"/>
     <use xlink:href="#DejaVuSans-69" x="325.976562"/>
     <use xlink:href="#DejaVuSans-6f" x="353.759766"/>
     <use xlink:href="#DejaVuSans-6e" x="414.941406"/>
     <use xlink:href="#DejaVuSans-73" x="478.320312"/>
     <use xlink:href="#DejaVuSans-20" x="530.419922"/>
     <use xlink:href="#DejaVuSans-28" x="562.207031"/>
     <use xlink:href="#DejaVuSans-73" x="601.220703"/>
     <use xlink:href="#DejaVuSans-74" x="653.320312"/>
     <use xlink:href="#DejaVuSans-65" x="692.529297"/>
     <use xlink:href="#DejaVuSans-70" x="754.052734"/>
     <use xlink:href="#DejaVuSans-73" x="817.529297"/>
     <use xlink:href="#DejaVuSans-3a" x="869.628906"/>
     <use xlink:href="#DejaVuSans-20" x="903.320312"/>
     <use xlink:href="#DejaVuSans-32" x="935.107422"/>
     <use xlink:href="#DejaVuSans-35" x="998.730469"/>
     <use xlink:href="#DejaVuSans-30" x="1062.353516"/>
     <use xlink:href="#DejaVuSans-2c" x="1125.976562"/>
     <use xlink:href="#DejaVuSans-20" x="1157.763672"/>
     <use xlink:href="#DejaVuSans-69" x="1189.550781"/>
     <use xlink:href="#DejaVuSans-6e" x="1217.333984"/>
     <use xlink:href="#DejaVuSans-74" x="1280.712891"/>
     <use xlink:href="#DejaVuSans-65" x="1319.921875"/>
     <use xlink:href="#DejaVuSans-72" x="1381.445312"/>
     <use xlink:href="#DejaVuSans-76" x="1422.558594"/>
     <use xlink:href="#DejaVuSans-61" x="1481.738281"/>
     <use xlink:href="#DejaVuSans-6c" x="1543.017578"/>
     <use xlink:href="#DejaVuSans-3a" x="1570.800781"/>
     <use xlink:href="#DejaVuSans-2b" x="1604.492188"/>
     <use xlink:href="#DejaVuSans-2d" x="1688.28125"/>
     <use xlink:href="#DejaVuSans-30" x="1724.365234"/>
     <use xlink:href="#DejaVuSans-2e" x="1787.988281"/>
     <use xlink:href="#DejaVuSans-30" x="1819.775391"/>
     <use xlink:href="#DejaVuSans-32" x="1883.398438"/>
     <use xlink:href="#DejaVuSans-29" x="1947.021484"/>
    </g>
   </g>
   <g id="line2d_29">
    <path d="M 69.218182 155.23329 
L 71.57759 155.346284 
L 73.936998 155.925347 
L 76.296406 156.257724 
L 78.655814 154.693578 
L 81.015222 153.876078 
L 83.37463 153.541933 
L 85.734038 153.449178 
L 88.093446 154.12664 
L 90.452854 153.832495 
L 92.812262 155.327911 
L 95.17167 154.406498 
L 97.531078 152.460029 
L 99.890486 151.98288 
L 102.249894 153.413182 
L 104.609302 153.28442 
L 106.96871 152.857407 
L 109.328118 150.82859 
L 111.687526 149.916711 
L 114.046934 149.251292 
L 116.406342 148.400896 
L 121.125159 147.878076 
L 123.484567 147.362864 
L 125.843975 146.498798 
L 128.203383 146.647584 
L 130.562791 146.127159 
L 132.922199 147.29226 
L 135.281607 148.866545 
L 137.641015 149.219913 
L 140.000423 149.13818 
L 142.359831 148.933796 
L 144.719239 149.615509 
L 147.078647 148.782184 
L 149.438055 147.241669 
L 151.797463 147.335494 
L 154.156871 144.103158 
L 156.516279 143.833207 
L 158.875687 142.807878 
L 161.235095 140.807924 
L 163.594503 139.985811 
L 168.313319 139.837159 
L 170.672727 140.520582 
L 173.032135 139.824023 
L 175.391543 136.859687 
L 177.750951 140.629844 
L 180.110359 140.411977 
L 182.469767 141.502955 
L 184.829175 142.938905 
L 187.188584 142.345817 
L 189.547992 142.663972 
L 191.9074 142.344432 
L 194.266808 142.94539 
L 196.626216 142.490873 
L 198.985624 144.627933 
L 201.345032 141.803038 
L 206.063848 140.582465 
L 208.423256 140.95754 
L 210.782664 140.958765 
L 213.142072 140.592755 
L 215.50148 139.921781 
L 217.860888 139.691013 
L 220.220296 140.651578 
L 222.579704 141.351919 
L 224.939112 143.395807 
L 227.29852 143.634475 
L 229.657928 144.472016 
L 232.017336 142.731493 
L 234.376744 144.190566 
L 236.736152 142.274914 
L 239.09556 140.84495 
L 241.454968 141.281858 
L 243.814376 140.848301 
L 246.173784 140.701626 
L 248.533192 140.894373 
L 250.8926 140.481175 
L 255.611416 140.825384 
L 257.970825 138.469776 
L 260.330233 139.074111 
L 262.689641 140.946801 
L 265.049049 141.459115 
L 267.408457 139.574845 
L 269.767865 139.995695 
L 272.127273 140.708851 
L 274.486681 140.153541 
L 276.846089 140.598091 
L 279.205497 138.839075 
L 281.564905 136.038728 
L 283.924313 136.653678 
L 288.643129 135.231348 
L 291.002537 136.248518 
L 293.361945 135.445953 
L 295.721353 134.184453 
L 298.080761 134.507049 
L 300.440169 132.258819 
L 302.799577 135.734518 
L 305.158985 137.306141 
L 307.518393 136.231169 
L 309.877801 138.31387 
L 312.237209 139.618454 
L 314.596617 137.688305 
L 316.956025 139.128398 
L 321.674841 139.27767 
L 324.034249 138.090508 
L 326.393658 137.988454 
L 328.753066 138.196985 
L 331.112474 137.595648 
L 333.471882 136.657708 
L 335.83129 135.843252 
L 338.190698 137.707465 
L 340.550106 137.088933 
L 342.909514 137.000405 
L 345.268922 134.993164 
L 347.62833 136.53524 
L 349.987738 137.150784 
L 352.347146 138.850925 
L 354.706554 138.875227 
L 359.42537 140.560876 
L 361.784778 138.371982 
L 364.144186 137.475259 
L 366.503594 136.869145 
L 368.863002 143.943635 
L 371.22241 147.445358 
L 373.581818 156.67597 
L 373.581818 156.67597 
" clip-path="url(#pd97a3cb4a4)" style="fill: none; stroke-dasharray: 1.5,2.475; stroke-dashoffset: 0; stroke: #000000; stroke-width: 1.5"/>
   </g>
   <g id="line2d_30">
    <path d="M 69.218182 195.703657 
L 71.57759 196.150132 
L 76.296406 195.513302 
L 81.015222 195.713811 
L 83.37463 196.021741 
L 85.734038 195.935298 
L 88.093446 196.202907 
L 90.452854 195.825327 
L 92.812262 195.993402 
L 97.531078 196.09287 
L 99.890486 195.757127 
L 102.249894 195.304752 
L 104.609302 195.045434 
L 106.96871 194.310959 
L 109.328118 194.301082 
L 114.046934 193.8729 
L 116.406342 193.311956 
L 118.765751 193.312665 
L 123.484567 192.667607 
L 125.843975 192.4038 
L 128.203383 191.626169 
L 130.562791 191.8441 
L 132.922199 190.815439 
L 135.281607 190.263646 
L 137.641015 190.410565 
L 140.000423 190.197318 
L 142.359831 189.600103 
L 144.719239 189.241452 
L 147.078647 189.856119 
L 149.438055 188.886409 
L 151.797463 189.098425 
L 154.156871 188.411468 
L 156.516279 188.401894 
L 158.875687 188.225704 
L 161.235095 187.546534 
L 163.594503 186.50167 
L 165.953911 185.806943 
L 168.313319 185.423135 
L 170.672727 183.790792 
L 173.032135 183.430901 
L 175.391543 182.765344 
L 177.750951 181.357497 
L 180.110359 180.777035 
L 184.829175 179.157997 
L 187.188584 178.710676 
L 189.547992 178.055005 
L 191.9074 178.122774 
L 194.266808 178.317904 
L 196.626216 177.388876 
L 198.985624 176.623125 
L 201.345032 177.273023 
L 206.063848 175.77232 
L 208.423256 175.376164 
L 210.782664 175.498277 
L 213.142072 175.073887 
L 215.50148 173.941418 
L 217.860888 173.226936 
L 220.220296 172.304295 
L 222.579704 170.689765 
L 224.939112 170.05001 
L 227.29852 169.109329 
L 229.657928 167.767106 
L 232.017336 167.12745 
L 234.376744 164.721136 
L 236.736152 164.112571 
L 239.09556 162.948644 
L 241.454968 162.030212 
L 243.814376 161.482316 
L 246.173784 159.282489 
L 248.533192 158.414916 
L 250.8926 156.995162 
L 253.252008 155.932994 
L 255.611416 155.110316 
L 257.970825 155.858055 
L 260.330233 155.826579 
L 262.689641 154.614482 
L 265.049049 154.649647 
L 267.408457 155.129585 
L 269.767865 155.777775 
L 272.127273 155.94793 
L 274.486681 156.549479 
L 276.846089 158.695781 
L 279.205497 157.967693 
L 281.564905 156.314963 
L 283.924313 155.423158 
L 286.283721 157.978944 
L 288.643129 156.791828 
L 291.002537 156.222928 
L 295.721353 154.71758 
L 298.080761 153.584262 
L 300.440169 153.137791 
L 302.799577 153.207793 
L 305.158985 153.779614 
L 307.518393 153.961207 
L 309.877801 153.32482 
L 312.237209 153.541274 
L 314.596617 154.847103 
L 316.956025 156.819844 
L 319.315433 157.297505 
L 324.034249 155.714603 
L 326.393658 157.551472 
L 328.753066 159.76538 
L 331.112474 159.928344 
L 333.471882 160.55312 
L 335.83129 162.656355 
L 338.190698 163.419787 
L 340.550106 163.881041 
L 342.909514 164.178066 
L 347.62833 167.007508 
L 349.987738 169.471637 
L 352.347146 170.228795 
L 354.706554 172.093592 
L 357.065962 172.973382 
L 359.42537 174.415769 
L 361.784778 175.071557 
L 364.144186 178.406644 
L 366.503594 182.354675 
L 368.863002 184.56568 
L 371.22241 190.463803 
L 373.581818 200.027431 
L 373.581818 200.027431 
" clip-path="url(#pd97a3cb4a4)" style="fill: none; stroke-dasharray: 9.6,2.4,1.5,2.4; stroke-dashoffset: 0; stroke: #000000; stroke-width: 1.5"/>
   </g>
   <g id="line2d_31">
    <path d="M 69.218182 198.513634 
L 71.57759 198.789984 
L 76.296406 198.63614 
L 78.655814 198.711263 
L 81.015222 198.987083 
L 83.37463 198.971413 
L 88.093446 198.460673 
L 92.812262 199.528095 
L 95.17167 199.35136 
L 97.531078 199.319547 
L 99.890486 199.590793 
L 102.249894 199.263223 
L 104.609302 199.218541 
L 106.96871 198.657563 
L 109.328118 199.063368 
L 114.046934 198.899565 
L 116.406342 198.328951 
L 121.125159 198.443816 
L 123.484567 198.018606 
L 125.843975 198.45484 
L 128.203383 198.352126 
L 130.562791 198.720287 
L 132.922199 198.216932 
L 135.281607 198.437025 
L 137.641015 198.435077 
L 140.000423 198.226648 
L 142.359831 197.878702 
L 144.719239 197.759383 
L 147.078647 198.234616 
L 149.438055 197.741875 
L 151.797463 197.724456 
L 154.156871 197.42554 
L 156.516279 198.034261 
L 158.875687 198.147502 
L 161.235095 197.642412 
L 163.594503 197.696686 
L 165.953911 197.631593 
L 170.672727 196.951516 
L 173.032135 196.973994 
L 175.391543 196.292326 
L 180.110359 195.404969 
L 184.829175 194.962165 
L 187.188584 194.997887 
L 189.547992 194.765302 
L 191.9074 195.348104 
L 194.266808 194.594358 
L 198.985624 194.448259 
L 201.345032 194.438796 
L 203.70444 194.114131 
L 206.063848 193.357388 
L 208.423256 193.05336 
L 210.782664 192.565674 
L 213.142072 192.9649 
L 215.50148 192.106508 
L 217.860888 192.273346 
L 220.220296 191.121238 
L 222.579704 190.198142 
L 224.939112 190.80809 
L 229.657928 189.688323 
L 232.017336 188.900806 
L 234.376744 187.423898 
L 236.736152 186.475701 
L 239.09556 185.063022 
L 243.814376 184.321617 
L 246.173784 180.953676 
L 248.533192 180.074993 
L 250.8926 178.997928 
L 253.252008 177.26715 
L 255.611416 176.560322 
L 257.970825 176.775037 
L 260.330233 176.158078 
L 262.689641 174.789365 
L 265.049049 173.607044 
L 267.408457 173.048458 
L 272.127273 172.555271 
L 274.486681 171.580871 
L 276.846089 172.643685 
L 279.205497 170.63613 
L 281.564905 168.427537 
L 283.924313 167.178925 
L 286.283721 168.633298 
L 288.643129 166.782802 
L 291.002537 165.520511 
L 293.361945 163.803593 
L 295.721353 161.78031 
L 300.440169 159.762423 
L 302.799577 159.04086 
L 305.158985 157.416399 
L 307.518393 156.151824 
L 309.877801 154.430066 
L 312.237209 153.834746 
L 314.596617 153.897415 
L 319.315433 152.314033 
L 321.674841 150.927976 
L 324.034249 149.8278 
L 326.393658 150.222705 
L 328.753066 152.236662 
L 331.112474 150.728107 
L 333.471882 150.227165 
L 335.83129 150.445719 
L 338.190698 150.414378 
L 340.550106 151.006523 
L 342.909514 151.291739 
L 347.62833 152.303093 
L 349.987738 153.727608 
L 352.347146 154.141004 
L 354.706554 155.704951 
L 357.065962 156.229408 
L 359.42537 157.627962 
L 361.784778 157.864118 
L 364.144186 161.05714 
L 366.503594 164.633475 
L 368.863002 167.583915 
L 371.22241 176.301746 
L 373.581818 187.639046 
L 373.581818 187.639046 
" clip-path="url(#pd97a3cb4a4)" style="fill: none; stroke-dasharray: 5.55,2.4; stroke-dashoffset: 0; stroke: #000000; stroke-width: 1.5"/>
   </g>
   <g id="line2d_32">
    <path d="M 69.218182 203.415122 
L 71.57759 203.694109 
L 76.296406 203.390489 
L 78.655814 203.580262 
L 81.015222 203.585462 
L 83.37463 203.712086 
L 85.734038 203.462966 
L 95.17167 204.206081 
L 102.249894 204.650491 
L 104.609302 204.6388 
L 106.96871 204.386408 
L 109.328118 204.537202 
L 114.046934 204.160265 
L 116.406342 203.705913 
L 118.765751 203.441685 
L 121.125159 203.407322 
L 128.203383 202.928185 
L 130.562791 203.047799 
L 132.922199 202.856082 
L 135.281607 203.003476 
L 137.641015 202.960838 
L 140.000423 202.779648 
L 151.797463 203.318279 
L 154.156871 203.280247 
L 163.594503 203.537887 
L 165.953911 203.549508 
L 168.313319 203.053921 
L 177.750951 202.515864 
L 180.110359 202.588982 
L 182.469767 202.276894 
L 184.829175 202.236233 
L 187.188584 202.563713 
L 189.547992 202.609767 
L 191.9074 203.297048 
L 194.266808 203.011313 
L 196.626216 203.005017 
L 198.985624 203.125374 
L 203.70444 202.864189 
L 208.423256 202.506639 
L 213.142072 202.070963 
L 215.50148 201.723159 
L 217.860888 201.939705 
L 220.220296 201.857944 
L 222.579704 201.642936 
L 224.939112 201.979915 
L 227.29852 201.842091 
L 229.657928 202.018851 
L 232.017336 202.068694 
L 234.376744 202.410578 
L 239.09556 202.574842 
L 241.454968 202.853314 
L 243.814376 202.782245 
L 246.173784 203.118079 
L 248.533192 203.270837 
L 250.8926 203.221553 
L 255.611416 203.408345 
L 257.970825 203.371172 
L 262.689641 202.919349 
L 265.049049 202.989968 
L 267.408457 202.887752 
L 269.767865 202.965811 
L 274.486681 202.55382 
L 276.846089 202.095772 
L 279.205497 201.980338 
L 281.564905 201.470187 
L 283.924313 201.686179 
L 286.283721 201.666977 
L 288.643129 201.522473 
L 293.361945 201.7137 
L 295.721353 201.573408 
L 298.080761 201.904501 
L 300.440169 202.448865 
L 302.799577 202.216129 
L 305.158985 202.566405 
L 307.518393 202.334755 
L 312.237209 202.731755 
L 316.956025 202.312171 
L 321.674841 202.518047 
L 324.034249 202.649983 
L 326.393658 203.100906 
L 333.471882 203.248933 
L 338.190698 202.765197 
L 345.268922 203.365153 
L 347.62833 202.955519 
L 352.347146 203.754216 
L 354.706554 203.92739 
L 357.065962 203.888119 
L 361.784778 205.192598 
L 366.503594 205.869804 
L 368.863002 206.167325 
L 371.22241 209.487906 
L 373.581818 211.653456 
L 373.581818 211.653456 
" clip-path="url(#pd97a3cb4a4)" style="fill: none; stroke: #000000; stroke-width: 1.5; stroke-linecap: square"/>
   </g>
   <g id="line2d_33">
    <path d="M 69.218182 198.220582 
L 71.57759 198.820261 
L 73.936998 198.883675 
L 76.296406 198.342609 
L 81.015222 198.906956 
L 83.37463 198.99081 
L 85.734038 198.743383 
L 88.093446 198.71167 
L 90.452854 199.094098 
L 92.812262 199.821704 
L 97.531078 200.718105 
L 99.890486 200.688171 
L 102.249894 200.393852 
L 104.609302 200.524092 
L 106.96871 199.782986 
L 109.328118 200.415826 
L 111.687526 199.757584 
L 114.046934 199.751428 
L 116.406342 199.449386 
L 121.125159 199.768572 
L 128.203383 198.251196 
L 135.281607 198.951081 
L 140.000423 198.609381 
L 142.359831 198.848707 
L 144.719239 199.319473 
L 149.438055 199.671305 
L 151.797463 199.13879 
L 154.156871 198.927778 
L 158.875687 199.421642 
L 163.594503 200.11205 
L 165.953911 199.955327 
L 168.313319 199.565583 
L 170.672727 199.517613 
L 173.032135 199.824078 
L 175.391543 199.606868 
L 177.750951 199.028215 
L 180.110359 199.049001 
L 182.469767 198.613382 
L 184.829175 198.541212 
L 187.188584 199.042792 
L 189.547992 199.101755 
L 191.9074 199.870243 
L 194.266808 199.338717 
L 198.985624 199.831653 
L 201.345032 199.635984 
L 203.70444 199.646626 
L 206.063848 199.295547 
L 210.782664 198.821481 
L 215.50148 197.981417 
L 217.860888 198.123152 
L 220.220296 198.019088 
L 222.579704 197.566531 
L 224.939112 198.115757 
L 227.29852 197.984149 
L 232.017336 198.20223 
L 234.376744 198.776469 
L 241.454968 199.718253 
L 243.814376 199.269262 
L 246.173784 199.423538 
L 248.533192 199.893312 
L 250.8926 199.992552 
L 253.252008 200.53062 
L 255.611416 200.474289 
L 257.970825 200.736083 
L 260.330233 200.336875 
L 262.689641 199.703486 
L 269.767865 199.43548 
L 272.127273 199.094602 
L 274.486681 199.245453 
L 276.846089 198.84678 
L 279.205497 198.972741 
L 281.564905 198.511622 
L 283.924313 198.684654 
L 286.283721 198.306883 
L 288.643129 198.11515 
L 291.002537 198.428983 
L 295.721353 198.196345 
L 300.440169 199.594959 
L 302.799577 199.682675 
L 305.158985 200.987542 
L 309.877801 202.498487 
L 312.237209 202.513273 
L 314.596617 200.996783 
L 316.956025 198.811766 
L 319.315433 196.137033 
L 321.674841 193.105021 
L 324.034249 191.059143 
L 326.393658 189.779047 
L 328.753066 189.049168 
L 331.112474 189.494263 
L 333.471882 189.525407 
L 335.83129 188.990268 
L 338.190698 189.379175 
L 340.550106 189.527221 
L 342.909514 189.331268 
L 345.268922 189.017193 
L 347.62833 188.820216 
L 349.987738 189.357348 
L 352.347146 190.576947 
L 354.706554 192.631008 
L 357.065962 195.539794 
L 359.42537 198.922173 
L 361.784778 201.123817 
L 364.144186 204.288893 
L 366.503594 207.23213 
L 368.863002 209.997519 
L 371.22241 212.59056 
L 373.581818 215.46 
L 373.581818 215.46 
" clip-path="url(#pd97a3cb4a4)" style="fill: none; stroke: #ff0000; stroke-width: 1.5; stroke-linecap: square"/>
   </g>
   <g id="line2d_34">
    <path d="M 69.218182 198.05552 
L 71.57759 198.64752 
L 73.936998 198.655265 
L 76.296406 198.008617 
L 78.655814 198.357139 
L 81.015222 198.577043 
L 83.37463 198.657032 
L 85.734038 198.381097 
L 88.093446 198.271391 
L 90.452854 198.644877 
L 92.812262 199.410742 
L 97.531078 200.305598 
L 99.890486 200.257902 
L 102.249894 200.022569 
L 104.609302 200.285631 
L 106.96871 199.599547 
L 109.328118 200.300142 
L 111.687526 199.686854 
L 114.046934 199.795509 
L 116.406342 199.596581 
L 121.125159 199.952151 
L 125.843975 198.654657 
L 128.203383 198.266316 
L 135.281607 198.875304 
L 140.000423 198.58553 
L 144.719239 199.196994 
L 149.438055 199.533759 
L 151.797463 199.185251 
L 154.156871 199.062894 
L 156.516279 199.454302 
L 158.875687 199.686467 
L 163.594503 200.366885 
L 165.953911 200.265744 
L 168.313319 199.940297 
L 170.672727 199.967677 
L 173.032135 200.369086 
L 175.391543 200.074571 
L 177.750951 199.616179 
L 180.110359 199.595627 
L 182.469767 199.333906 
L 184.829175 199.516876 
L 187.188584 200.157986 
L 189.547992 200.358035 
L 191.9074 201.225098 
L 194.266808 200.762459 
L 196.626216 200.788874 
L 198.985624 201.110711 
L 201.345032 200.857743 
L 203.70444 200.798939 
L 213.142072 199.928745 
L 215.50148 199.623261 
L 217.860888 199.918719 
L 222.579704 199.702239 
L 224.939112 200.13496 
L 227.29852 199.968142 
L 229.657928 200.353133 
L 234.376744 200.767933 
L 236.736152 200.454502 
L 239.09556 200.270634 
L 241.454968 200.47968 
L 243.814376 200.870224 
L 246.173784 200.844357 
L 248.533192 200.520048 
L 250.8926 200.081343 
L 253.252008 199.361459 
L 257.970825 199.052373 
L 262.689641 198.719733 
L 265.049049 198.546979 
L 267.408457 197.93573 
L 272.127273 198.100821 
L 274.486681 196.491301 
L 276.846089 196.245538 
L 279.205497 195.400249 
L 281.564905 193.377197 
L 283.924313 192.752433 
L 286.283721 192.899017 
L 288.643129 191.930414 
L 291.002537 190.720289 
L 293.361945 190.734266 
L 295.721353 189.787096 
L 298.080761 187.824232 
L 300.440169 186.347555 
L 302.799577 185.550125 
L 305.158985 184.180889 
L 307.518393 181.961946 
L 309.877801 178.993875 
L 314.596617 177.251415 
L 316.956025 175.927544 
L 319.315433 172.229963 
L 321.674841 167.629007 
L 324.034249 163.627217 
L 326.393658 163.061211 
L 328.753066 161.119212 
L 331.112474 160.330488 
L 333.471882 154.946995 
L 335.83129 150.428795 
L 338.190698 148.750366 
L 340.550106 138.221286 
L 345.268922 114.906521 
L 347.62833 104.428243 
L 349.987738 92.954522 
L 352.347146 78.792417 
L 354.706554 79.172928 
L 357.065962 76.7629 
L 359.42537 75.488942 
L 361.784778 74.972698 
L 364.144186 69.034623 
L 368.863002 45.605454 
L 371.22241 39.94773 
L 373.581818 39.06 
L 373.581818 39.06 
" clip-path="url(#pd97a3cb4a4)" style="fill: none; stroke: #1f77b4; stroke-width: 1.5; stroke-linecap: square"/>
   </g>
   <g id="legend_1">
    <g id="patch_7">
     <path d="M 61 126.30875 
L 224.207813 126.30875 
Q 226.207813 126.30875 226.207813 124.30875 
L 226.207813 37.24 
Q 226.207813 35.24 224.207813 35.24 
L 61 35.24 
Q 59 35.24 59 37.24 
L 59 124.30875 
Q 59 126.30875 61 126.30875 
z
" style="fill: #ffffff; opacity: 0.8; stroke: #e6e6e6; stroke-linejoin: miter"/>
    </g>
    <g id="line2d_35">
     <path d="M 63 43.338437 
L 73 43.338437 
L 83 43.338437 
" style="fill: none; stroke-dasharray: 1.5,2.475; stroke-dashoffset: 0; stroke: #000000; stroke-width: 1.5"/>
    </g>
    <g id="text_18">
     <!-- R/S (AUC:nan) -->
     <g transform="translate(91 46.838437)scale(0.1 -0.1)">
      <defs>
       <path id="DejaVuSans-52" d="M 2841 2188 
Q 3044 2119 3236 1894 
Q 3428 1669 3622 1275 
L 4263 0 
L 3584 0 
L 2988 1197 
Q 2756 1666 2539 1819 
Q 2322 1972 1947 1972 
L 1259 1972 
L 1259 0 
L 628 0 
L 628 4666 
L 2053 4666 
Q 2853 4666 3247 4331 
Q 3641 3997 3641 3322 
Q 3641 2881 3436 2590 
Q 3231 2300 2841 2188 
z
M 1259 4147 
L 1259 2491 
L 2053 2491 
Q 2509 2491 2742 2702 
Q 2975 2913 2975 3322 
Q 2975 3731 2742 3939 
Q 2509 4147 2053 4147 
L 1259 4147 
z
" transform="scale(0.015625)"/>
       <path id="DejaVuSans-53" d="M 3425 4513 
L 3425 3897 
Q 3066 4069 2747 4153 
Q 2428 4238 2131 4238 
Q 1616 4238 1336 4038 
Q 1056 3838 1056 3469 
Q 1056 3159 1242 3001 
Q 1428 2844 1947 2747 
L 2328 2669 
Q 3034 2534 3370 2195 
Q 3706 1856 3706 1288 
Q 3706 609 3251 259 
Q 2797 -91 1919 -91 
Q 1588 -91 1214 -16 
Q 841 59 441 206 
L 441 856 
Q 825 641 1194 531 
Q 1563 422 1919 422 
Q 2459 422 2753 634 
Q 3047 847 3047 1241 
Q 3047 1584 2836 1778 
Q 2625 1972 2144 2069 
L 1759 2144 
Q 1053 2284 737 2584 
Q 422 2884 422 3419 
Q 422 4038 858 4394 
Q 1294 4750 2059 4750 
Q 2388 4750 2728 4690 
Q 3069 4631 3425 4513 
z
" transform="scale(0.015625)"/>
       <path id="DejaVuSans-41" d="M 2188 4044 
L 1331 1722 
L 3047 1722 
L 2188 4044 
z
M 1831 4666 
L 2547 4666 
L 4325 0 
L 3669 0 
L 3244 1197 
L 1141 1197 
L 716 0 
L 50 0 
L 1831 4666 
z
" transform="scale(0.015625)"/>
       <path id="DejaVuSans-55" d="M 556 4666 
L 1191 4666 
L 1191 1831 
Q 1191 1081 1462 751 
Q 1734 422 2344 422 
Q 2950 422 3222 751 
Q 3494 1081 3494 1831 
L 3494 4666 
L 4128 4666 
L 4128 1753 
Q 4128 841 3676 375 
Q 3225 -91 2344 -91 
Q 1459 -91 1007 375 
Q 556 841 556 1753 
L 556 4666 
z
" transform="scale(0.015625)"/>
       <path id="DejaVuSans-43" d="M 4122 4306 
L 4122 3641 
Q 3803 3938 3442 4084 
Q 3081 4231 2675 4231 
Q 1875 4231 1450 3742 
Q 1025 3253 1025 2328 
Q 1025 1406 1450 917 
Q 1875 428 2675 428 
Q 3081 428 3442 575 
Q 3803 722 4122 1019 
L 4122 359 
Q 3791 134 3420 21 
Q 3050 -91 2638 -91 
Q 1578 -91 968 557 
Q 359 1206 359 2328 
Q 359 3453 968 4101 
Q 1578 4750 2638 4750 
Q 3056 4750 3426 4639 
Q 3797 4528 4122 4306 
z
" transform="scale(0.015625)"/>
      </defs>
      <use xlink:href="#DejaVuSans-52"/>
      <use xlink:href="#DejaVuSans-2f" x="69.482422"/>
      <use xlink:href="#DejaVuSans-53" x="103.173828"/>
      <use xlink:href="#DejaVuSans-20" x="166.650391"/>
      <use xlink:href="#DejaVuSans-28" x="198.4375"/>
      <use xlink:href="#DejaVuSans-41" x="237.451172"/>
      <use xlink:href="#DejaVuSans-55" x="305.859375"/>
      <use xlink:href="#DejaVuSans-43" x="379.052734"/>
      <use xlink:href="#DejaVuSans-3a" x="448.876953"/>
      <use xlink:href="#DejaVuSans-6e" x="482.568359"/>
      <use xlink:href="#DejaVuSans-61" x="545.947266"/>
      <use xlink:href="#DejaVuSans-6e" x="607.226562"/>
      <use xlink:href="#DejaVuSans-29" x="670.605469"/>
     </g>
    </g>
    <g id="line2d_36">
     <path d="M 63 58.016562 
L 73 58.016562 
L 83 58.016562 
" style="fill: none; stroke-dasharray: 9.6,2.4,1.5,2.4; stroke-dashoffset: 0; stroke: #000000; stroke-width: 1.5"/>
    </g>
    <g id="text_19">
     <!-- variogram (AUC:nan) -->
     <g transform="translate(91 61.516562)scale(0.1 -0.1)">
      <defs>
       <path id="DejaVuSans-67" d="M 2906 1791 
Q 2906 2416 2648 2759 
Q 2391 3103 1925 3103 
Q 1463 3103 1205 2759 
Q 947 2416 947 1791 
Q 947 1169 1205 825 
Q 1463 481 1925 481 
Q 2391 481 2648 825 
Q 2906 1169 2906 1791 
z
M 3481 434 
Q 3481 -459 3084 -895 
Q 2688 -1331 1869 -1331 
Q 1566 -1331 1297 -1286 
Q 1028 -1241 775 -1147 
L 775 -588 
Q 1028 -725 1275 -790 
Q 1522 -856 1778 -856 
Q 2344 -856 2625 -561 
Q 2906 -266 2906 331 
L 2906 616 
Q 2728 306 2450 153 
Q 2172 0 1784 0 
Q 1141 0 747 490 
Q 353 981 353 1791 
Q 353 2603 747 3093 
Q 1141 3584 1784 3584 
Q 2172 3584 2450 3431 
Q 2728 3278 2906 2969 
L 2906 3500 
L 3481 3500 
L 3481 434 
z
" transform="scale(0.015625)"/>
       <path id="DejaVuSans-6d" d="M 3328 2828 
Q 3544 3216 3844 3400 
Q 4144 3584 4550 3584 
Q 5097 3584 5394 3201 
Q 5691 2819 5691 2113 
L 5691 0 
L 5113 0 
L 5113 2094 
Q 5113 2597 4934 2840 
Q 4756 3084 4391 3084 
Q 3944 3084 3684 2787 
Q 3425 2491 3425 1978 
L 3425 0 
L 2847 0 
L 2847 2094 
Q 2847 2600 2669 2842 
Q 2491 3084 2119 3084 
Q 1678 3084 1418 2786 
Q 1159 2488 1159 1978 
L 1159 0 
L 581 0 
L 581 3500 
L 1159 3500 
L 1159 2956 
Q 1356 3278 1631 3431 
Q 1906 3584 2284 3584 
Q 2666 3584 2933 3390 
Q 3200 3197 3328 2828 
z
" transform="scale(0.015625)"/>
      </defs>
      <use xlink:href="#DejaVuSans-76"/>
      <use xlink:href="#DejaVuSans-61" x="59.179688"/>
      <use xlink:href="#DejaVuSans-72" x="120.458984"/>
      <use xlink:href="#DejaVuSans-69" x="161.572266"/>
      <use xlink:href="#DejaVuSans-6f" x="189.355469"/>
      <use xlink:href="#DejaVuSans-67" x="250.537109"/>
      <use xlink:href="#DejaVuSans-72" x="314.013672"/>
      <use xlink:href="#DejaVuSans-61" x="355.126953"/>
      <use xlink:href="#DejaVuSans-6d" x="416.40625"/>
      <use xlink:href="#DejaVuSans-20" x="513.818359"/>
      <use xlink:href="#DejaVuSans-28" x="545.605469"/>
      <use xlink:href="#DejaVuSans-41" x="584.619141"/>
      <use xlink:href="#DejaVuSans-55" x="653.027344"/>
      <use xlink:href="#DejaVuSans-43" x="726.220703"/>
      <use xlink:href="#DejaVuSans-3a" x="796.044922"/>
      <use xlink:href="#DejaVuSans-6e" x="829.736328"/>
      <use xlink:href="#DejaVuSans-61" x="893.115234"/>
      <use xlink:href="#DejaVuSans-6e" x="954.394531"/>
      <use xlink:href="#DejaVuSans-29" x="1017.773438"/>
     </g>
    </g>
    <g id="line2d_37">
     <path d="M 63 72.694687 
L 73 72.694687 
L 83 72.694687 
" style="fill: none; stroke-dasharray: 5.55,2.4; stroke-dashoffset: 0; stroke: #000000; stroke-width: 1.5"/>
    </g>
    <g id="text_20">
     <!-- Higuchi (AUC:nan) -->
     <g transform="translate(91 76.194687)scale(0.1 -0.1)">
      <defs>
       <path id="DejaVuSans-75" d="M 544 1381 
L 544 3500 
L 1119 3500 
L 1119 1403 
Q 1119 906 1312 657 
Q 1506 409 1894 409 
Q 2359 409 2629 706 
Q 2900 1003 2900 1516 
L 2900 3500 
L 3475 3500 
L 3475 0 
L 2900 0 
L 2900 538 
Q 2691 219 2414 64 
Q 2138 -91 1772 -91 
Q 1169 -91 856 284 
Q 544 659 544 1381 
z
M 1991 3584 
L 1991 3584 
z
" transform="scale(0.015625)"/>
       <path id="DejaVuSans-63" d="M 3122 3366 
L 3122 2828 
Q 2878 2963 2633 3030 
Q 2388 3097 2138 3097 
Q 1578 3097 1268 2742 
Q 959 2388 959 1747 
Q 959 1106 1268 751 
Q 1578 397 2138 397 
Q 2388 397 2633 464 
Q 2878 531 3122 666 
L 3122 134 
Q 2881 22 2623 -34 
Q 2366 -91 2075 -91 
Q 1284 -91 818 406 
Q 353 903 353 1747 
Q 353 2603 823 3093 
Q 1294 3584 2113 3584 
Q 2378 3584 2631 3529 
Q 2884 3475 3122 3366 
z
" transform="scale(0.015625)"/>
       <path id="DejaVuSans-68" d="M 3513 2113 
L 3513 0 
L 2938 0 
L 2938 2094 
Q 2938 2591 2744 2837 
Q 2550 3084 2163 3084 
Q 1697 3084 1428 2787 
Q 1159 2491 1159 1978 
L 1159 0 
L 581 0 
L 581 4863 
L 1159 4863 
L 1159 2956 
Q 1366 3272 1645 3428 
Q 1925 3584 2291 3584 
Q 2894 3584 3203 3211 
Q 3513 2838 3513 2113 
z
" transform="scale(0.015625)"/>
      </defs>
      <use xlink:href="#DejaVuSans-48"/>
      <use xlink:href="#DejaVuSans-69" x="75.195312"/>
      <use xlink:href="#DejaVuSans-67" x="102.978516"/>
      <use xlink:href="#DejaVuSans-75" x="166.455078"/>
      <use xlink:href="#DejaVuSans-63" x="229.833984"/>
      <use xlink:href="#DejaVuSans-68" x="284.814453"/>
      <use xlink:href="#DejaVuSans-69" x="348.193359"/>
      <use xlink:href="#DejaVuSans-20" x="375.976562"/>
      <use xlink:href="#DejaVuSans-28" x="407.763672"/>
      <use xlink:href="#DejaVuSans-41" x="446.777344"/>
      <use xlink:href="#DejaVuSans-55" x="515.185547"/>
      <use xlink:href="#DejaVuSans-43" x="588.378906"/>
      <use xlink:href="#DejaVuSans-3a" x="658.203125"/>
      <use xlink:href="#DejaVuSans-6e" x="691.894531"/>
      <use xlink:href="#DejaVuSans-61" x="755.273438"/>
      <use xlink:href="#DejaVuSans-6e" x="816.552734"/>
      <use xlink:href="#DejaVuSans-29" x="879.931641"/>
     </g>
    </g>
    <g id="line2d_38">
     <path d="M 63 87.372813 
L 73 87.372813 
L 83 87.372813 
" style="fill: none; stroke: #000000; stroke-width: 1.5; stroke-linecap: square"/>
    </g>
    <g id="text_21">
     <!-- Whittle fBm (AUC:nan) -->
     <g transform="translate(91 90.872813)scale(0.1 -0.1)">
      <defs>
       <path id="DejaVuSans-57" d="M 213 4666 
L 850 4666 
L 1831 722 
L 2809 4666 
L 3519 4666 
L 4500 722 
L 5478 4666 
L 6119 4666 
L 4947 0 
L 4153 0 
L 3169 4050 
L 2175 0 
L 1381 0 
L 213 4666 
z
" transform="scale(0.015625)"/>
       <path id="DejaVuSans-66" d="M 2375 4863 
L 2375 4384 
L 1825 4384 
Q 1516 4384 1395 4259 
Q 1275 4134 1275 3809 
L 1275 3500 
L 2222 3500 
L 2222 3053 
L 1275 3053 
L 1275 0 
L 697 0 
L 697 3053 
L 147 3053 
L 147 3500 
L 697 3500 
L 697 3744 
Q 697 4328 969 4595 
Q 1241 4863 1831 4863 
L 2375 4863 
z
" transform="scale(0.015625)"/>
       <path id="DejaVuSans-42" d="M 1259 2228 
L 1259 519 
L 2272 519 
Q 2781 519 3026 730 
Q 3272 941 3272 1375 
Q 3272 1813 3026 2020 
Q 2781 2228 2272 2228 
L 1259 2228 
z
M 1259 4147 
L 1259 2741 
L 2194 2741 
Q 2656 2741 2882 2914 
Q 3109 3088 3109 3444 
Q 3109 3797 2882 3972 
Q 2656 4147 2194 4147 
L 1259 4147 
z
M 628 4666 
L 2241 4666 
Q 2963 4666 3353 4366 
Q 3744 4066 3744 3513 
Q 3744 3084 3544 2831 
Q 3344 2578 2956 2516 
Q 3422 2416 3680 2098 
Q 3938 1781 3938 1306 
Q 3938 681 3513 340 
Q 3088 0 2303 0 
L 628 0 
L 628 4666 
z
" transform="scale(0.015625)"/>
      </defs>
      <use xlink:href="#DejaVuSans-57"/>
      <use xlink:href="#DejaVuSans-68" x="98.876953"/>
      <use xlink:href="#DejaVuSans-69" x="162.255859"/>
      <use xlink:href="#DejaVuSans-74" x="190.039062"/>
      <use xlink:href="#DejaVuSans-74" x="229.248047"/>
      <use xlink:href="#DejaVuSans-6c" x="268.457031"/>
      <use xlink:href="#DejaVuSans-65" x="296.240234"/>
      <use xlink:href="#DejaVuSans-20" x="357.763672"/>
      <use xlink:href="#DejaVuSans-66" x="389.550781"/>
      <use xlink:href="#DejaVuSans-42" x="424.755859"/>
      <use xlink:href="#DejaVuSans-6d" x="493.359375"/>
      <use xlink:href="#DejaVuSans-20" x="590.771484"/>
      <use xlink:href="#DejaVuSans-28" x="622.558594"/>
      <use xlink:href="#DejaVuSans-41" x="661.572266"/>
      <use xlink:href="#DejaVuSans-55" x="729.980469"/>
      <use xlink:href="#DejaVuSans-43" x="803.173828"/>
      <use xlink:href="#DejaVuSans-3a" x="872.998047"/>
      <use xlink:href="#DejaVuSans-6e" x="906.689453"/>
      <use xlink:href="#DejaVuSans-61" x="970.068359"/>
      <use xlink:href="#DejaVuSans-6e" x="1031.347656"/>
      <use xlink:href="#DejaVuSans-29" x="1094.726562"/>
     </g>
    </g>
    <g id="line2d_39">
     <path d="M 63 102.050938 
L 73 102.050938 
L 83 102.050938 
" style="fill: none; stroke: #ff0000; stroke-width: 1.5; stroke-linecap: square"/>
    </g>
    <g id="text_22">
     <!-- Whittle ARFIMA (AUC:nan) -->
     <g transform="translate(91 105.550938)scale(0.1 -0.1)">
      <defs>
       <path id="DejaVuSans-46" d="M 628 4666 
L 3309 4666 
L 3309 4134 
L 1259 4134 
L 1259 2759 
L 3109 2759 
L 3109 2228 
L 1259 2228 
L 1259 0 
L 628 0 
L 628 4666 
z
" transform="scale(0.015625)"/>
       <path id="DejaVuSans-49" d="M 628 4666 
L 1259 4666 
L 1259 0 
L 628 0 
L 628 4666 
z
" transform="scale(0.015625)"/>
       <path id="DejaVuSans-4d" d="M 628 4666 
L 1569 4666 
L 2759 1491 
L 3956 4666 
L 4897 4666 
L 4897 0 
L 4281 0 
L 4281 4097 
L 3078 897 
L 2444 897 
L 1241 4097 
L 1241 0 
L 628 0 
L 628 4666 
z
" transform="scale(0.015625)"/>
      </defs>
      <use xlink:href="#DejaVuSans-57"/>
      <use xlink:href="#DejaVuSans-68" x="98.876953"/>
      <use xlink:href="#DejaVuSans-69" x="162.255859"/>
      <use xlink:href="#DejaVuSans-74" x="190.039062"/>
      <use xlink:href="#DejaVuSans-74" x="229.248047"/>
      <use xlink:href="#DejaVuSans-6c" x="268.457031"/>
      <use xlink:href="#DejaVuSans-65" x="296.240234"/>
      <use xlink:href="#DejaVuSans-20" x="357.763672"/>
      <use xlink:href="#DejaVuSans-41" x="389.550781"/>
      <use xlink:href="#DejaVuSans-52" x="457.958984"/>
      <use xlink:href="#DejaVuSans-46" x="527.441406"/>
      <use xlink:href="#DejaVuSans-49" x="584.960938"/>
      <use xlink:href="#DejaVuSans-4d" x="614.453125"/>
      <use xlink:href="#DejaVuSans-41" x="700.732422"/>
      <use xlink:href="#DejaVuSans-20" x="769.140625"/>
      <use xlink:href="#DejaVuSans-28" x="800.927734"/>
      <use xlink:href="#DejaVuSans-41" x="839.941406"/>
      <use xlink:href="#DejaVuSans-55" x="908.349609"/>
      <use xlink:href="#DejaVuSans-43" x="981.542969"/>
      <use xlink:href="#DejaVuSans-3a" x="1051.367188"/>
      <use xlink:href="#DejaVuSans-6e" x="1085.058594"/>
      <use xlink:href="#DejaVuSans-61" x="1148.4375"/>
      <use xlink:href="#DejaVuSans-6e" x="1209.716797"/>
      <use xlink:href="#DejaVuSans-29" x="1273.095703"/>
     </g>
    </g>
    <g id="line2d_40">
     <path d="M 63 116.729062 
L 73 116.729062 
L 83 116.729062 
" style="fill: none; stroke: #1f77b4; stroke-width: 1.5; stroke-linecap: square"/>
    </g>
    <g id="text_23">
     <!-- LSTM (AUC:nan) -->
     <g transform="translate(91 120.229062)scale(0.1 -0.1)">
      <defs>
       <path id="DejaVuSans-4c" d="M 628 4666 
L 1259 4666 
L 1259 531 
L 3531 531 
L 3531 0 
L 628 0 
L 628 4666 
z
" transform="scale(0.015625)"/>
       <path id="DejaVuSans-54" d="M -19 4666 
L 3928 4666 
L 3928 4134 
L 2272 4134 
L 2272 0 
L 1638 0 
L 1638 4134 
L -19 4134 
L -19 4666 
z
" transform="scale(0.015625)"/>
      </defs>
      <use xlink:href="#DejaVuSans-4c"/>
      <use xlink:href="#DejaVuSans-53" x="55.712891"/>
      <use xlink:href="#DejaVuSans-54" x="119.189453"/>
      <use xlink:href="#DejaVuSans-4d" x="180.273438"/>
      <use xlink:href="#DejaVuSans-20" x="266.552734"/>
      <use xlink:href="#DejaVuSans-28" x="298.339844"/>
      <use xlink:href="#DejaVuSans-41" x="337.353516"/>
      <use xlink:href="#DejaVuSans-55" x="405.761719"/>
      <use xlink:href="#DejaVuSans-43" x="478.955078"/>
      <use xlink:href="#DejaVuSans-3a" x="548.779297"/>
      <use xlink:href="#DejaVuSans-6e" x="582.470703"/>
      <use xlink:href="#DejaVuSans-61" x="645.849609"/>
      <use xlink:href="#DejaVuSans-6e" x="707.128906"/>
      <use xlink:href="#DejaVuSans-29" x="770.507812"/>
     </g>
    </g>
   </g>
  </g>
 </g>
 <defs>
  <clipPath id="pd97a3cb4a4">
   <rect x="54" y="30.24" width="334.8" height="194.04"/>
  </clipPath>
 </defs>
</svg>
