<?xml version="1.0" encoding="utf-8" standalone="no"?>
<!DOCTYPE svg PUBLIC "-//W3C//DTD SVG 1.1//EN"
  "http://www.w3.org/Graphics/SVG/1.1/DTD/svg11.dtd">
<svg xmlns:xlink="http://www.w3.org/1999/xlink" width="475.2pt" height="277.2pt" viewBox="0 0 475.2 277.2" xmlns="http://www.w3.org/2000/svg" version="1.1">
 <metadata>
  <rdf:RDF xmlns:dc="http://purl.org/dc/elements/1.1/" xmlns:cc="http://creativecommons.org/ns#" xmlns:rdf="http://www.w3.org/1999/02/22-rdf-syntax-ns#">
   <cc:Work>
    <dc:type rdf:resource="http://purl.org/dc/dcmitype/StillImage"/>
    <dc:date>2024-06-25T22:39:53.700866</dc:date>
    <dc:format>image/svg+xml</dc:format>
    <dc:creator>
     <cc:Agent>
      <dc:title>Matplotlib v3.5.1, https://matplotlib.org/</dc:title>
     </cc:Agent>
    </dc:creator>
   </cc:Work>
  </rdf:RDF>
 </metadata>
 <defs>
  <style type="text/css">*{stroke-linejoin: round; stroke-linecap: butt}</style>
 </defs>
 <g id="figure_1">
  <g id="patch_1">
   <path d="M 0 277.2 
L 475.2 277.2 
L 475.2 0 
L 0 0 
z
" style="fill: #ffffff"/>
  </g>
  <g id="axes_1">
   <g id="patch_2">
    <path d="M 59.4 246.708 
L 427.68 246.708 
L 427.68 33.264 
L 59.4 33.264 
L 59.4 246.708 
z
" style="fill: none; opacity: 0"/>
   </g>
   <g id="matplotlib.axis_1">
    <g id="xtick_1">
     <g id="line2d_1">
      <path d="M 76.14 246.708 
L 76.14 33.264 
" clip-path="url(#pa0504d4bfb)" style="fill: none; stroke: #e6e6e6; stroke-width: 0.8; stroke-linecap: square"/>
     </g>
     <g id="line2d_2">
      <defs>
       <path id="me2afb49fe5" d="M 0 0 
L 0 3.5 
" style="stroke: #000000; stroke-width: 0.8"/>
      </defs>
      <g>
       <use xlink:href="#me2afb49fe5" x="76.14" y="246.708" style="stroke: #000000; stroke-width: 0.8"/>
      </g>
     </g>
     <g id="text_1">
      <!-- 0.0 -->
      <g transform="translate(68.188438 261.306438)scale(0.1 -0.1)">
       <defs>
        <path id="DejaVuSans-30" d="M 2034 4250 
Q 1547 4250 1301 3770 
Q 1056 3291 1056 2328 
Q 1056 1369 1301 889 
Q 1547 409 2034 409 
Q 2525 409 2770 889 
Q 3016 1369 3016 2328 
Q 3016 3291 2770 3770 
Q 2525 4250 2034 4250 
z
M 2034 4750 
Q 2819 4750 3233 4129 
Q 3647 3509 3647 2328 
Q 3647 1150 3233 529 
Q 2819 -91 2034 -91 
Q 1250 -91 836 529 
Q 422 1150 422 2328 
Q 422 3509 836 4129 
Q 1250 4750 2034 4750 
z
" transform="scale(0.015625)"/>
        <path id="DejaVuSans-2e" d="M 684 794 
L 1344 794 
L 1344 0 
L 684 0 
L 684 794 
z
" transform="scale(0.015625)"/>
       </defs>
       <use xlink:href="#DejaVuSans-30"/>
       <use xlink:href="#DejaVuSans-2e" x="63.623047"/>
       <use xlink:href="#DejaVuSans-30" x="95.410156"/>
      </g>
     </g>
    </g>
    <g id="xtick_2">
     <g id="line2d_3">
      <path d="M 143.1 246.708 
L 143.1 33.264 
" clip-path="url(#pa0504d4bfb)" style="fill: none; stroke: #e6e6e6; stroke-width: 0.8; stroke-linecap: square"/>
     </g>
     <g id="line2d_4">
      <g>
       <use xlink:href="#me2afb49fe5" x="143.1" y="246.708" style="stroke: #000000; stroke-width: 0.8"/>
      </g>
     </g>
     <g id="text_2">
      <!-- 0.2 -->
      <g transform="translate(135.148438 261.306438)scale(0.1 -0.1)">
       <defs>
        <path id="DejaVuSans-32" d="M 1228 531 
L 3431 531 
L 3431 0 
L 469 0 
L 469 531 
Q 828 903 1448 1529 
Q 2069 2156 2228 2338 
Q 2531 2678 2651 2914 
Q 2772 3150 2772 3378 
Q 2772 3750 2511 3984 
Q 2250 4219 1831 4219 
Q 1534 4219 1204 4116 
Q 875 4013 500 3803 
L 500 4441 
Q 881 4594 1212 4672 
Q 1544 4750 1819 4750 
Q 2544 4750 2975 4387 
Q 3406 4025 3406 3419 
Q 3406 3131 3298 2873 
Q 3191 2616 2906 2266 
Q 2828 2175 2409 1742 
Q 1991 1309 1228 531 
z
" transform="scale(0.015625)"/>
       </defs>
       <use xlink:href="#DejaVuSans-30"/>
       <use xlink:href="#DejaVuSans-2e" x="63.623047"/>
       <use xlink:href="#DejaVuSans-32" x="95.410156"/>
      </g>
     </g>
    </g>
    <g id="xtick_3">
     <g id="line2d_5">
      <path d="M 210.06 246.708 
L 210.06 33.264 
" clip-path="url(#pa0504d4bfb)" style="fill: none; stroke: #e6e6e6; stroke-width: 0.8; stroke-linecap: square"/>
     </g>
     <g id="line2d_6">
      <g>
       <use xlink:href="#me2afb49fe5" x="210.06" y="246.708" style="stroke: #000000; stroke-width: 0.8"/>
      </g>
     </g>
     <g id="text_3">
      <!-- 0.4 -->
      <g transform="translate(202.108438 261.306438)scale(0.1 -0.1)">
       <defs>
        <path id="DejaVuSans-34" d="M 2419 4116 
L 825 1625 
L 2419 1625 
L 2419 4116 
z
M 2253 4666 
L 3047 4666 
L 3047 1625 
L 3713 1625 
L 3713 1100 
L 3047 1100 
L 3047 0 
L 2419 0 
L 2419 1100 
L 313 1100 
L 313 1709 
L 2253 4666 
z
" transform="scale(0.015625)"/>
       </defs>
       <use xlink:href="#DejaVuSans-30"/>
       <use xlink:href="#DejaVuSans-2e" x="63.623047"/>
       <use xlink:href="#DejaVuSans-34" x="95.410156"/>
      </g>
     </g>
    </g>
    <g id="xtick_4">
     <g id="line2d_7">
      <path d="M 277.02 246.708 
L 277.02 33.264 
" clip-path="url(#pa0504d4bfb)" style="fill: none; stroke: #e6e6e6; stroke-width: 0.8; stroke-linecap: square"/>
     </g>
     <g id="line2d_8">
      <g>
       <use xlink:href="#me2afb49fe5" x="277.02" y="246.708" style="stroke: #000000; stroke-width: 0.8"/>
      </g>
     </g>
     <g id="text_4">
      <!-- 0.6 -->
      <g transform="translate(269.068438 261.306438)scale(0.1 -0.1)">
       <defs>
        <path id="DejaVuSans-36" d="M 2113 2584 
Q 1688 2584 1439 2293 
Q 1191 2003 1191 1497 
Q 1191 994 1439 701 
Q 1688 409 2113 409 
Q 2538 409 2786 701 
Q 3034 994 3034 1497 
Q 3034 2003 2786 2293 
Q 2538 2584 2113 2584 
z
M 3366 4563 
L 3366 3988 
Q 3128 4100 2886 4159 
Q 2644 4219 2406 4219 
Q 1781 4219 1451 3797 
Q 1122 3375 1075 2522 
Q 1259 2794 1537 2939 
Q 1816 3084 2150 3084 
Q 2853 3084 3261 2657 
Q 3669 2231 3669 1497 
Q 3669 778 3244 343 
Q 2819 -91 2113 -91 
Q 1303 -91 875 529 
Q 447 1150 447 2328 
Q 447 3434 972 4092 
Q 1497 4750 2381 4750 
Q 2619 4750 2861 4703 
Q 3103 4656 3366 4563 
z
" transform="scale(0.015625)"/>
       </defs>
       <use xlink:href="#DejaVuSans-30"/>
       <use xlink:href="#DejaVuSans-2e" x="63.623047"/>
       <use xlink:href="#DejaVuSans-36" x="95.410156"/>
      </g>
     </g>
    </g>
    <g id="xtick_5">
     <g id="line2d_9">
      <path d="M 343.98 246.708 
L 343.98 33.264 
" clip-path="url(#pa0504d4bfb)" style="fill: none; stroke: #e6e6e6; stroke-width: 0.8; stroke-linecap: square"/>
     </g>
     <g id="line2d_10">
      <g>
       <use xlink:href="#me2afb49fe5" x="343.98" y="246.708" style="stroke: #000000; stroke-width: 0.8"/>
      </g>
     </g>
     <g id="text_5">
      <!-- 0.8 -->
      <g transform="translate(336.028437 261.306438)scale(0.1 -0.1)">
       <defs>
        <path id="DejaVuSans-38" d="M 2034 2216 
Q 1584 2216 1326 1975 
Q 1069 1734 1069 1313 
Q 1069 891 1326 650 
Q 1584 409 2034 409 
Q 2484 409 2743 651 
Q 3003 894 3003 1313 
Q 3003 1734 2745 1975 
Q 2488 2216 2034 2216 
z
M 1403 2484 
Q 997 2584 770 2862 
Q 544 3141 544 3541 
Q 544 4100 942 4425 
Q 1341 4750 2034 4750 
Q 2731 4750 3128 4425 
Q 3525 4100 3525 3541 
Q 3525 3141 3298 2862 
Q 3072 2584 2669 2484 
Q 3125 2378 3379 2068 
Q 3634 1759 3634 1313 
Q 3634 634 3220 271 
Q 2806 -91 2034 -91 
Q 1263 -91 848 271 
Q 434 634 434 1313 
Q 434 1759 690 2068 
Q 947 2378 1403 2484 
z
M 1172 3481 
Q 1172 3119 1398 2916 
Q 1625 2713 2034 2713 
Q 2441 2713 2670 2916 
Q 2900 3119 2900 3481 
Q 2900 3844 2670 4047 
Q 2441 4250 2034 4250 
Q 1625 4250 1398 4047 
Q 1172 3844 1172 3481 
z
" transform="scale(0.015625)"/>
       </defs>
       <use xlink:href="#DejaVuSans-30"/>
       <use xlink:href="#DejaVuSans-2e" x="63.623047"/>
       <use xlink:href="#DejaVuSans-38" x="95.410156"/>
      </g>
     </g>
    </g>
    <g id="xtick_6">
     <g id="line2d_11">
      <path d="M 410.94 246.708 
L 410.94 33.264 
" clip-path="url(#pa0504d4bfb)" style="fill: none; stroke: #e6e6e6; stroke-width: 0.8; stroke-linecap: square"/>
     </g>
     <g id="line2d_12">
      <g>
       <use xlink:href="#me2afb49fe5" x="410.94" y="246.708" style="stroke: #000000; stroke-width: 0.8"/>
      </g>
     </g>
     <g id="text_6">
      <!-- 1.0 -->
      <g transform="translate(402.988438 261.306438)scale(0.1 -0.1)">
       <defs>
        <path id="DejaVuSans-31" d="M 794 531 
L 1825 531 
L 1825 4091 
L 703 3866 
L 703 4441 
L 1819 4666 
L 2450 4666 
L 2450 531 
L 3481 531 
L 3481 0 
L 794 0 
L 794 531 
z
" transform="scale(0.015625)"/>
       </defs>
       <use xlink:href="#DejaVuSans-31"/>
       <use xlink:href="#DejaVuSans-2e" x="63.623047"/>
       <use xlink:href="#DejaVuSans-30" x="95.410156"/>
      </g>
     </g>
    </g>
    <g id="text_7">
     <!-- Hurst -->
     <g transform="translate(229.990781 274.984562)scale(0.1 -0.1)">
      <defs>
       <path id="DejaVuSans-48" d="M 628 4666 
L 1259 4666 
L 1259 2753 
L 3553 2753 
L 3553 4666 
L 4184 4666 
L 4184 0 
L 3553 0 
L 3553 2222 
L 1259 2222 
L 1259 0 
L 628 0 
L 628 4666 
z
" transform="scale(0.015625)"/>
       <path id="DejaVuSans-75" d="M 544 1381 
L 544 3500 
L 1119 3500 
L 1119 1403 
Q 1119 906 1312 657 
Q 1506 409 1894 409 
Q 2359 409 2629 706 
Q 2900 1003 2900 1516 
L 2900 3500 
L 3475 3500 
L 3475 0 
L 2900 0 
L 2900 538 
Q 2691 219 2414 64 
Q 2138 -91 1772 -91 
Q 1169 -91 856 284 
Q 544 659 544 1381 
z
M 1991 3584 
L 1991 3584 
z
" transform="scale(0.015625)"/>
       <path id="DejaVuSans-72" d="M 2631 2963 
Q 2534 3019 2420 3045 
Q 2306 3072 2169 3072 
Q 1681 3072 1420 2755 
Q 1159 2438 1159 1844 
L 1159 0 
L 581 0 
L 581 3500 
L 1159 3500 
L 1159 2956 
Q 1341 3275 1631 3429 
Q 1922 3584 2338 3584 
Q 2397 3584 2469 3576 
Q 2541 3569 2628 3553 
L 2631 2963 
z
" transform="scale(0.015625)"/>
       <path id="DejaVuSans-73" d="M 2834 3397 
L 2834 2853 
Q 2591 2978 2328 3040 
Q 2066 3103 1784 3103 
Q 1356 3103 1142 2972 
Q 928 2841 928 2578 
Q 928 2378 1081 2264 
Q 1234 2150 1697 2047 
L 1894 2003 
Q 2506 1872 2764 1633 
Q 3022 1394 3022 966 
Q 3022 478 2636 193 
Q 2250 -91 1575 -91 
Q 1294 -91 989 -36 
Q 684 19 347 128 
L 347 722 
Q 666 556 975 473 
Q 1284 391 1588 391 
Q 1994 391 2212 530 
Q 2431 669 2431 922 
Q 2431 1156 2273 1281 
Q 2116 1406 1581 1522 
L 1381 1569 
Q 847 1681 609 1914 
Q 372 2147 372 2553 
Q 372 3047 722 3315 
Q 1072 3584 1716 3584 
Q 2034 3584 2315 3537 
Q 2597 3491 2834 3397 
z
" transform="scale(0.015625)"/>
       <path id="DejaVuSans-74" d="M 1172 4494 
L 1172 3500 
L 2356 3500 
L 2356 3053 
L 1172 3053 
L 1172 1153 
Q 1172 725 1289 603 
Q 1406 481 1766 481 
L 2356 481 
L 2356 0 
L 1766 0 
Q 1100 0 847 248 
Q 594 497 594 1153 
L 594 3053 
L 172 3053 
L 172 3500 
L 594 3500 
L 594 4494 
L 1172 4494 
z
" transform="scale(0.015625)"/>
      </defs>
      <use xlink:href="#DejaVuSans-48"/>
      <use xlink:href="#DejaVuSans-75" x="75.195312"/>
      <use xlink:href="#DejaVuSans-72" x="138.574219"/>
      <use xlink:href="#DejaVuSans-73" x="179.6875"/>
      <use xlink:href="#DejaVuSans-74" x="231.787109"/>
     </g>
    </g>
   </g>
   <g id="matplotlib.axis_2">
    <g id="ytick_1">
     <g id="line2d_13">
      <path d="M 59.4 226.305991 
L 427.68 226.305991 
" clip-path="url(#pa0504d4bfb)" style="fill: none; stroke: #e6e6e6; stroke-width: 0.8; stroke-linecap: square"/>
     </g>
     <g id="line2d_14">
      <defs>
       <path id="mdbbdb01086" d="M 0 0 
L -3.5 0 
" style="stroke: #000000; stroke-width: 0.8"/>
      </defs>
      <g>
       <use xlink:href="#mdbbdb01086" x="59.4" y="226.305991" style="stroke: #000000; stroke-width: 0.8"/>
      </g>
     </g>
     <g id="text_8">
      <!-- −0.04 -->
      <g transform="translate(21.754687 230.10521)scale(0.1 -0.1)">
       <defs>
        <path id="DejaVuSans-2212" d="M 678 2272 
L 4684 2272 
L 4684 1741 
L 678 1741 
L 678 2272 
z
" transform="scale(0.015625)"/>
       </defs>
       <use xlink:href="#DejaVuSans-2212"/>
       <use xlink:href="#DejaVuSans-30" x="83.789062"/>
       <use xlink:href="#DejaVuSans-2e" x="147.412109"/>
       <use xlink:href="#DejaVuSans-30" x="179.199219"/>
       <use xlink:href="#DejaVuSans-34" x="242.822266"/>
      </g>
     </g>
    </g>
    <g id="ytick_2">
     <g id="line2d_15">
      <path d="M 59.4 183.035449 
L 427.68 183.035449 
" clip-path="url(#pa0504d4bfb)" style="fill: none; stroke: #e6e6e6; stroke-width: 0.8; stroke-linecap: square"/>
     </g>
     <g id="line2d_16">
      <g>
       <use xlink:href="#mdbbdb01086" x="59.4" y="183.035449" style="stroke: #000000; stroke-width: 0.8"/>
      </g>
     </g>
     <g id="text_9">
      <!-- −0.02 -->
      <g transform="translate(21.754687 186.834668)scale(0.1 -0.1)">
       <use xlink:href="#DejaVuSans-2212"/>
       <use xlink:href="#DejaVuSans-30" x="83.789062"/>
       <use xlink:href="#DejaVuSans-2e" x="147.412109"/>
       <use xlink:href="#DejaVuSans-30" x="179.199219"/>
       <use xlink:href="#DejaVuSans-32" x="242.822266"/>
      </g>
     </g>
    </g>
    <g id="ytick_3">
     <g id="line2d_17">
      <path d="M 59.4 139.764907 
L 427.68 139.764907 
" clip-path="url(#pa0504d4bfb)" style="fill: none; stroke: #e6e6e6; stroke-width: 0.8; stroke-linecap: square"/>
     </g>
     <g id="line2d_18">
      <g>
       <use xlink:href="#mdbbdb01086" x="59.4" y="139.764907" style="stroke: #000000; stroke-width: 0.8"/>
      </g>
     </g>
     <g id="text_10">
      <!-- 0.00 -->
      <g transform="translate(30.134375 143.564126)scale(0.1 -0.1)">
       <use xlink:href="#DejaVuSans-30"/>
       <use xlink:href="#DejaVuSans-2e" x="63.623047"/>
       <use xlink:href="#DejaVuSans-30" x="95.410156"/>
       <use xlink:href="#DejaVuSans-30" x="159.033203"/>
      </g>
     </g>
    </g>
    <g id="ytick_4">
     <g id="line2d_19">
      <path d="M 59.4 96.494365 
L 427.68 96.494365 
" clip-path="url(#pa0504d4bfb)" style="fill: none; stroke: #e6e6e6; stroke-width: 0.8; stroke-linecap: square"/>
     </g>
     <g id="line2d_20">
      <g>
       <use xlink:href="#mdbbdb01086" x="59.4" y="96.494365" style="stroke: #000000; stroke-width: 0.8"/>
      </g>
     </g>
     <g id="text_11">
      <!-- 0.02 -->
      <g transform="translate(30.134375 100.293584)scale(0.1 -0.1)">
       <use xlink:href="#DejaVuSans-30"/>
       <use xlink:href="#DejaVuSans-2e" x="63.623047"/>
       <use xlink:href="#DejaVuSans-30" x="95.410156"/>
       <use xlink:href="#DejaVuSans-32" x="159.033203"/>
      </g>
     </g>
    </g>
    <g id="ytick_5">
     <g id="line2d_21">
      <path d="M 59.4 53.223823 
L 427.68 53.223823 
" clip-path="url(#pa0504d4bfb)" style="fill: none; stroke: #e6e6e6; stroke-width: 0.8; stroke-linecap: square"/>
     </g>
     <g id="line2d_22">
      <g>
       <use xlink:href="#mdbbdb01086" x="59.4" y="53.223823" style="stroke: #000000; stroke-width: 0.8"/>
      </g>
     </g>
     <g id="text_12">
      <!-- 0.04 -->
      <g transform="translate(30.134375 57.023041)scale(0.1 -0.1)">
       <use xlink:href="#DejaVuSans-30"/>
       <use xlink:href="#DejaVuSans-2e" x="63.623047"/>
       <use xlink:href="#DejaVuSans-30" x="95.410156"/>
       <use xlink:href="#DejaVuSans-34" x="159.033203"/>
      </g>
     </g>
    </g>
    <g id="text_13">
     <!-- bias -->
     <g transform="translate(15.675 150.218031)rotate(-90)scale(0.1 -0.1)">
      <defs>
       <path id="DejaVuSans-62" d="M 3116 1747 
Q 3116 2381 2855 2742 
Q 2594 3103 2138 3103 
Q 1681 3103 1420 2742 
Q 1159 2381 1159 1747 
Q 1159 1113 1420 752 
Q 1681 391 2138 391 
Q 2594 391 2855 752 
Q 3116 1113 3116 1747 
z
M 1159 2969 
Q 1341 3281 1617 3432 
Q 1894 3584 2278 3584 
Q 2916 3584 3314 3078 
Q 3713 2572 3713 1747 
Q 3713 922 3314 415 
Q 2916 -91 2278 -91 
Q 1894 -91 1617 61 
Q 1341 213 1159 525 
L 1159 0 
L 581 0 
L 581 4863 
L 1159 4863 
L 1159 2969 
z
" transform="scale(0.015625)"/>
       <path id="DejaVuSans-69" d="M 603 3500 
L 1178 3500 
L 1178 0 
L 603 0 
L 603 3500 
z
M 603 4863 
L 1178 4863 
L 1178 4134 
L 603 4134 
L 603 4863 
z
" transform="scale(0.015625)"/>
       <path id="DejaVuSans-61" d="M 2194 1759 
Q 1497 1759 1228 1600 
Q 959 1441 959 1056 
Q 959 750 1161 570 
Q 1363 391 1709 391 
Q 2188 391 2477 730 
Q 2766 1069 2766 1631 
L 2766 1759 
L 2194 1759 
z
M 3341 1997 
L 3341 0 
L 2766 0 
L 2766 531 
Q 2569 213 2275 61 
Q 1981 -91 1556 -91 
Q 1019 -91 701 211 
Q 384 513 384 1019 
Q 384 1609 779 1909 
Q 1175 2209 1959 2209 
L 2766 2209 
L 2766 2266 
Q 2766 2663 2505 2880 
Q 2244 3097 1772 3097 
Q 1472 3097 1187 3025 
Q 903 2953 641 2809 
L 641 3341 
Q 956 3463 1253 3523 
Q 1550 3584 1831 3584 
Q 2591 3584 2966 3190 
Q 3341 2797 3341 1997 
z
" transform="scale(0.015625)"/>
      </defs>
      <use xlink:href="#DejaVuSans-62"/>
      <use xlink:href="#DejaVuSans-69" x="63.476562"/>
      <use xlink:href="#DejaVuSans-61" x="91.259766"/>
      <use xlink:href="#DejaVuSans-73" x="152.539062"/>
     </g>
    </g>
   </g>
   <g id="patch_3">
    <path d="M 59.4 246.708 
L 59.4 33.264 
" style="fill: none; stroke: #000000; stroke-width: 0.8; stroke-linejoin: miter; stroke-linecap: square"/>
   </g>
   <g id="patch_4">
    <path d="M 427.68 246.708 
L 427.68 33.264 
" style="fill: none; stroke: #e6e6e6; stroke-width: 0.8; stroke-linejoin: miter; stroke-linecap: square"/>
   </g>
   <g id="patch_5">
    <path d="M 59.4 246.708 
L 427.68 246.708 
" style="fill: none; stroke: #000000; stroke-width: 0.8; stroke-linejoin: miter; stroke-linecap: square"/>
   </g>
   <g id="patch_6">
    <path d="M 59.4 33.264 
L 427.68 33.264 
" style="fill: none; stroke: #e6e6e6; stroke-width: 0.8; stroke-linejoin: miter; stroke-linecap: square"/>
   </g>
   <g id="line2d_23">
    <path d="M 230.302162 42.966 
L 231.307568 44.163743 
L 231.642703 44.745593 
L 231.977838 45.076198 
L 232.312973 45.612887 
L 232.648108 46.365319 
L 232.983243 46.496742 
L 233.318378 46.768927 
L 233.653514 46.887135 
L 234.323784 47.753399 
L 234.994054 48.211104 
L 235.329189 48.136932 
L 235.999459 48.475815 
L 236.334595 48.241397 
L 236.66973 48.418134 
L 237.34 48.956764 
L 237.675135 49.179919 
L 238.680541 49.083291 
L 239.015676 49.612964 
L 240.691351 51.205289 
L 241.026486 51.06363 
L 241.361622 51.291382 
L 241.696757 51.780526 
L 242.031892 52.771683 
L 242.367027 52.721249 
L 242.702162 52.540506 
L 243.707568 53.729321 
L 244.042703 53.855914 
L 244.377838 54.255101 
L 245.048108 55.425482 
L 245.383243 55.709576 
L 245.718378 55.824629 
L 246.053514 56.162426 
L 247.058919 56.41598 
L 247.394054 56.516935 
L 247.729189 56.923529 
L 248.064324 57.031739 
L 248.399459 56.74328 
L 248.734595 56.884428 
L 249.06973 57.176797 
L 249.404865 56.965962 
L 251.080541 58.432979 
L 251.415676 58.592039 
L 251.750811 59.014658 
L 252.085946 59.842377 
L 252.756216 60.584919 
L 253.091351 61.132604 
L 253.426486 61.445896 
L 254.767027 63.361543 
L 255.437297 64.853941 
L 255.772432 64.806156 
L 256.442703 65.254361 
L 256.777838 65.391273 
L 257.448108 66.043574 
L 257.783243 66.677327 
L 258.453514 67.081054 
L 258.788649 67.090678 
L 259.123784 67.714079 
L 259.458919 68.065633 
L 259.794054 68.246954 
L 260.129189 68.622776 
L 260.464324 68.745201 
L 260.799459 69.336542 
L 261.134595 69.198316 
L 261.46973 69.717123 
L 262.14 69.693161 
L 262.475135 70.187229 
L 262.81027 70.420265 
L 263.145405 70.332111 
L 263.815676 71.413173 
L 264.150811 71.617407 
L 264.485946 71.535959 
L 265.826486 73.146045 
L 266.161622 73.363943 
L 266.831892 74.256431 
L 267.167027 74.600193 
L 267.502162 74.62337 
L 268.172432 76.170485 
L 268.507568 76.288196 
L 268.842703 76.233771 
L 269.848108 76.8891 
L 270.853514 77.781518 
L 271.188649 77.654504 
L 271.523784 78.322082 
L 271.858919 78.205816 
L 273.199459 79.221335 
L 273.534595 79.275547 
L 273.86973 79.48153 
L 274.204865 79.370873 
L 274.54 79.710474 
L 274.875135 79.782169 
L 275.21027 80.298591 
L 276.215676 80.876091 
L 276.550811 81.35634 
L 276.885946 81.572351 
L 277.221081 82.053838 
L 277.556216 81.788374 
L 277.891351 82.335026 
L 278.226486 82.438013 
L 278.561622 83.335416 
L 278.896757 83.874627 
L 279.231892 84.121673 
L 279.902162 85.091865 
L 280.572432 85.12082 
L 281.242703 85.550556 
L 281.577838 85.527186 
L 281.912973 85.694033 
L 282.583243 86.35248 
L 282.918378 86.996853 
L 283.253514 87.031673 
L 283.588649 87.670888 
L 283.923784 87.888416 
L 284.594054 88.069905 
L 285.599459 88.821158 
L 286.26973 89.473251 
L 286.604865 90.023796 
L 286.94 90.077811 
L 287.61027 89.788566 
L 287.945405 90.19842 
L 288.280541 90.33524 
L 288.615676 90.852573 
L 288.950811 90.561816 
L 289.285946 91.111935 
L 289.621081 91.427308 
L 290.291351 91.612566 
L 290.961622 92.491631 
L 292.302162 93.387067 
L 292.972432 93.899503 
L 293.307568 94.172403 
L 293.642703 94.222177 
L 293.977838 94.525755 
L 294.312973 95.533761 
L 294.983243 95.434245 
L 295.988649 96.035464 
L 296.323784 95.808091 
L 296.994054 96.646696 
L 297.329189 97.041372 
L 297.664324 97.145603 
L 298.334595 97.921937 
L 299.675135 98.980577 
L 300.01027 99.411562 
L 300.345405 99.285547 
L 301.015676 100.542678 
L 301.350811 100.646704 
L 302.021081 101.274035 
L 303.026486 101.560836 
L 303.361622 101.525784 
L 303.696757 102.179444 
L 304.031892 101.919535 
L 304.702162 103.176348 
L 305.037297 103.166387 
L 305.372432 103.399681 
L 306.712973 105.766906 
L 307.048108 106.596579 
L 307.383243 106.921002 
L 308.388649 108.499967 
L 308.723784 109.155257 
L 309.394054 109.721724 
L 310.064324 109.777118 
L 310.399459 109.749908 
L 310.734595 110.34203 
L 311.06973 110.4411 
L 312.075135 111.940608 
L 312.41027 112.430193 
L 312.745405 112.667215 
L 313.415676 114.062923 
L 314.085946 114.479664 
L 314.756216 116.047201 
L 315.091351 116.280294 
L 315.426486 116.760625 
L 316.096757 117.39955 
L 316.431892 118.187702 
L 316.767027 118.562934 
L 317.102162 119.118753 
L 318.107568 119.722585 
L 319.112973 120.603296 
L 319.448108 121.032228 
L 319.783243 121.771538 
L 320.453514 122.575728 
L 320.788649 123.817949 
L 321.458919 124.907302 
L 321.794054 125.539992 
L 322.129189 125.806872 
L 322.799459 125.755732 
L 323.134595 126.18394 
L 323.804865 126.750227 
L 324.475135 127.449843 
L 324.81027 127.563541 
L 325.145405 128.231414 
L 325.480541 128.184219 
L 326.485946 129.546628 
L 327.156216 131.17279 
L 327.491351 131.286743 
L 327.826486 131.872872 
L 328.161622 132.09562 
L 328.831892 132.946202 
L 329.167027 133.116987 
L 329.837297 134.406722 
L 330.172432 134.35707 
L 330.507568 135.231758 
L 331.848108 136.416535 
L 332.518378 137.65034 
L 332.853514 137.762196 
L 333.188649 137.693701 
L 333.523784 138.098662 
L 333.858919 138.258106 
L 334.864324 140.032684 
L 335.534595 140.876734 
L 335.86973 141.378006 
L 336.204865 141.545517 
L 336.875135 142.595014 
L 337.21027 142.617449 
L 337.545405 142.888976 
L 338.550811 144.938967 
L 339.221081 146.426376 
L 339.556216 146.64331 
L 340.226486 148.218506 
L 340.561622 147.941981 
L 341.231892 148.886183 
L 341.902162 149.788527 
L 342.907568 152.048911 
L 343.242703 152.831938 
L 343.577838 153.139177 
L 343.912973 153.728585 
L 344.583243 154.330285 
L 345.253514 155.27711 
L 345.923784 156.051002 
L 346.929189 157.717285 
L 347.264324 158.002613 
L 348.26973 160.046317 
L 348.94 161.227154 
L 349.275135 161.547289 
L 349.945405 163.012917 
L 350.280541 163.105024 
L 350.950811 163.840248 
L 351.285946 163.932554 
L 351.621081 164.713292 
L 351.956216 165.160046 
L 352.961622 167.157135 
L 353.631892 168.663346 
L 354.637297 169.727509 
L 354.972432 169.622081 
L 355.307568 169.814819 
L 355.642703 170.212512 
L 356.312973 171.710065 
L 356.983243 172.426486 
L 357.318378 173.577191 
L 357.653514 173.831057 
L 358.658919 175.712117 
L 358.994054 176.465747 
L 359.329189 176.629663 
L 359.999459 177.469092 
L 360.66973 178.597722 
L 361.34 180.353239 
L 362.01027 181.543349 
L 362.680541 182.682469 
L 363.015676 182.835301 
L 363.685946 184.702308 
L 365.026486 187.60283 
L 365.361622 188.133497 
L 365.696757 188.271338 
L 366.031892 188.752097 
L 366.367027 189.862878 
L 366.702162 190.287971 
L 368.377838 195.241798 
L 368.712973 195.867087 
L 369.383243 197.888391 
L 370.053514 198.266801 
L 370.723784 199.451121 
L 371.729189 202.824442 
L 372.064324 203.353093 
L 372.399459 204.132524 
L 372.734595 204.588157 
L 373.06973 205.460119 
L 373.404865 205.73845 
L 373.74 206.513364 
L 374.075135 206.810477 
L 374.745405 208.289527 
L 376.756216 213.318963 
L 377.091351 213.675576 
L 377.426486 214.77443 
L 377.761622 215.133943 
L 378.767027 217.161387 
L 379.437297 217.977095 
L 380.777838 221.557306 
L 381.448108 222.034531 
L 381.783243 222.980161 
L 382.118378 223.490183 
L 382.788649 225.516686 
L 383.123784 226.011335 
L 383.794054 227.773784 
L 384.129189 228.596968 
L 384.464324 229.114404 
L 384.799459 230.291475 
L 385.134595 230.93852 
L 385.804865 232.476991 
L 386.14 232.700857 
L 387.480541 237.006 
L 387.480541 237.006 
" clip-path="url(#pa0504d4bfb)" style="fill: none; stroke-dasharray: 1.5,2.475; stroke-dashoffset: 0; stroke: #ff0000; stroke-width: 1.5"/>
   </g>
   <g id="line2d_24">
    <path d="M 76.14 138.982012 
L 76.475135 139.104738 
L 76.81027 139.428444 
L 77.480541 139.336923 
L 77.815676 139.44194 
L 78.821081 139.298283 
L 79.491351 139.42589 
L 80.161622 139.31646 
L 81.502162 139.455594 
L 82.172432 139.559445 
L 82.842703 139.751969 
L 84.183243 139.495841 
L 85.188649 139.402592 
L 85.523784 139.531484 
L 85.858919 139.441636 
L 86.194054 139.524308 
L 86.529189 139.442542 
L 87.199459 139.501752 
L 87.86973 139.267338 
L 90.550811 139.166048 
L 90.885946 139.053129 
L 93.231892 139.243093 
L 93.567027 139.103789 
L 94.907568 139.195445 
L 95.242703 139.280891 
L 98.594054 138.946968 
L 99.599459 138.523092 
L 101.945405 139.087344 
L 102.280541 138.994281 
L 102.950811 139.088117 
L 103.621081 139.073512 
L 104.291351 139.007348 
L 105.296757 138.948641 
L 105.631892 139.046527 
L 105.967027 138.873968 
L 106.637297 138.914445 
L 106.972432 138.944803 
L 107.307568 138.83218 
L 109.318378 138.962741 
L 109.988649 139.118441 
L 110.323784 139.052822 
L 110.658919 139.160975 
L 111.329189 139.139152 
L 111.664324 139.180701 
L 111.999459 139.095961 
L 112.66973 139.257585 
L 113.34 139.44394 
L 114.01027 139.594237 
L 115.350811 139.465391 
L 115.685946 139.633938 
L 116.021081 139.61066 
L 116.356216 139.726579 
L 117.361622 139.714067 
L 118.031892 139.674574 
L 118.367027 139.535084 
L 120.042703 139.640449 
L 121.383243 139.696863 
L 121.718378 139.640372 
L 122.723784 139.811694 
L 125.404865 140.023316 
L 128.756216 139.535889 
L 129.426486 139.583007 
L 130.767027 139.277931 
L 134.788649 138.68058 
L 135.123784 138.835949 
L 136.129189 138.54495 
L 137.46973 138.422328 
L 139.145405 138.545782 
L 140.821081 138.471677 
L 141.156216 138.390315 
L 141.826486 138.454673 
L 143.502162 138.216906 
L 143.837297 138.273623 
L 144.507568 138.035104 
L 145.512973 138.261463 
L 147.188649 138.001041 
L 148.529189 138.228435 
L 151.21027 138.600428 
L 152.215676 138.458749 
L 153.556216 138.529424 
L 154.896757 138.413792 
L 155.231892 138.386658 
L 155.902162 138.175588 
L 156.237297 138.195755 
L 156.572432 138.359876 
L 158.248108 138.251556 
L 158.583243 137.983364 
L 159.253514 138.098852 
L 159.588649 137.988503 
L 160.258919 137.953756 
L 160.929189 137.989883 
L 161.264324 138.092027 
L 162.26973 137.824648 
L 162.604865 137.701366 
L 163.61027 137.886774 
L 163.945405 137.946749 
L 164.280541 137.861694 
L 164.615676 137.925705 
L 165.285946 137.828492 
L 166.291351 137.627114 
L 166.626486 137.578822 
L 166.961622 137.41194 
L 168.972432 137.468761 
L 170.312973 137.239002 
L 170.983243 137.224339 
L 171.318378 137.249761 
L 171.653514 137.118128 
L 172.994054 137.100411 
L 173.329189 136.862902 
L 174.334595 136.908522 
L 174.66973 136.872292 
L 175.004865 136.719788 
L 175.34 136.891875 
L 176.01027 136.719312 
L 176.345405 136.915836 
L 178.356216 136.666722 
L 179.026486 136.706229 
L 179.361622 136.731624 
L 180.367027 136.33163 
L 182.377838 136.218093 
L 182.712973 136.105863 
L 184.053514 136.196493 
L 184.388649 136.234664 
L 185.058919 136.039578 
L 186.064324 135.968533 
L 187.74 136.225703 
L 188.075135 136.08823 
L 189.415676 136.180103 
L 190.421081 136.085863 
L 190.756216 136.065576 
L 191.426486 135.88746 
L 192.767027 136.044183 
L 193.102162 135.877454 
L 193.437297 135.92887 
L 193.772432 135.742151 
L 194.442703 135.951457 
L 194.777838 135.830174 
L 196.788649 135.97062 
L 197.123784 135.926765 
L 197.458919 135.758934 
L 198.799459 135.629662 
L 199.46973 135.830358 
L 199.804865 135.708581 
L 200.475135 135.672363 
L 201.145405 135.628521 
L 202.150811 135.609924 
L 203.156216 135.42141 
L 204.161622 135.127909 
L 204.496757 134.998484 
L 204.831892 135.029602 
L 205.837297 134.72867 
L 206.507568 134.847606 
L 206.842703 134.823646 
L 207.177838 134.912204 
L 207.848108 134.914684 
L 208.183243 134.995345 
L 209.188649 134.747293 
L 210.529189 134.752521 
L 211.199459 134.437279 
L 211.86973 134.399632 
L 212.875135 134.110712 
L 213.880541 133.924775 
L 214.550811 133.840887 
L 215.221081 133.722765 
L 216.226486 133.385758 
L 219.242703 133.018971 
L 219.577838 133.068165 
L 220.248108 132.741179 
L 221.253514 133.00996 
L 221.923784 132.739264 
L 222.594054 132.695543 
L 224.94 131.87946 
L 225.61027 131.854498 
L 226.280541 131.788479 
L 226.615676 131.827351 
L 228.291351 131.510981 
L 230.302162 131.419679 
L 230.637297 131.31977 
L 231.642703 131.288449 
L 232.312973 131.201638 
L 232.983243 131.178472 
L 233.318378 131.16982 
L 233.653514 131.027092 
L 234.323784 130.950976 
L 234.994054 130.801047 
L 235.329189 130.7894 
L 235.999459 130.496069 
L 236.66973 130.435246 
L 237.004865 130.509606 
L 238.01027 130.017488 
L 238.680541 130.072441 
L 239.350811 129.802008 
L 241.696757 129.360147 
L 242.367027 129.289734 
L 243.372432 129.019526 
L 243.707568 128.849346 
L 244.042703 128.892435 
L 244.712973 128.630808 
L 245.048108 128.583815 
L 245.383243 128.412157 
L 246.388649 128.25987 
L 247.058919 127.911773 
L 249.74 127.366276 
L 250.745405 126.939519 
L 251.080541 126.740746 
L 251.750811 126.670677 
L 252.421081 126.536285 
L 252.756216 126.573804 
L 253.426486 126.155751 
L 254.096757 126.048931 
L 255.102162 125.842569 
L 255.772432 125.731199 
L 259.794054 124.533312 
L 261.134595 124.164072 
L 261.46973 124.09109 
L 261.804865 123.89169 
L 262.475135 123.794566 
L 263.145405 123.498364 
L 263.815676 123.353018 
L 264.485946 122.937245 
L 265.491351 122.370423 
L 266.161622 122.27911 
L 266.831892 121.860995 
L 268.172432 121.398613 
L 268.842703 121.060858 
L 269.177838 120.967625 
L 269.512973 120.745514 
L 269.848108 120.721539 
L 271.523784 119.918122 
L 271.858919 119.975181 
L 277.221081 117.650908 
L 277.556216 117.22293 
L 277.891351 117.152551 
L 278.226486 116.964736 
L 278.561622 116.956823 
L 278.896757 116.717947 
L 279.231892 116.647167 
L 280.237297 116.127485 
L 280.907568 115.893411 
L 283.253514 114.61982 
L 283.588649 114.651076 
L 283.923784 114.351373 
L 284.594054 114.228249 
L 284.929189 113.901637 
L 285.264324 113.88352 
L 285.599459 113.629713 
L 286.604865 113.414733 
L 286.94 113.449657 
L 287.61027 113.16333 
L 287.945405 113.062054 
L 288.950811 112.370077 
L 289.621081 112.127411 
L 289.956216 111.791499 
L 290.291351 111.698665 
L 290.626486 111.372354 
L 291.296757 111.278615 
L 291.967027 110.960051 
L 292.302162 110.805438 
L 292.637297 110.884617 
L 292.972432 110.745857 
L 293.642703 110.145683 
L 294.312973 109.918255 
L 294.983243 109.548973 
L 295.318378 109.22462 
L 295.653514 109.158346 
L 295.988649 108.790971 
L 297.329189 108.755188 
L 299.34 107.865414 
L 299.675135 107.421025 
L 300.01027 107.300382 
L 300.345405 107.004656 
L 300.680541 106.940058 
L 301.015676 106.350496 
L 301.350811 106.170829 
L 301.685946 106.14439 
L 302.356216 105.361331 
L 302.691351 105.208824 
L 303.361622 104.628907 
L 306.712973 103.358004 
L 307.383243 102.932509 
L 307.718378 102.853313 
L 308.388649 102.507155 
L 309.058919 102.063057 
L 309.729189 101.680589 
L 310.734595 101.239132 
L 311.404865 100.983421 
L 311.74 101.014074 
L 312.41027 100.410811 
L 312.745405 100.386968 
L 313.750811 99.753385 
L 314.085946 99.352649 
L 315.426486 98.892121 
L 316.767027 98.106263 
L 317.437297 97.887566 
L 317.772432 98.195075 
L 318.107568 98.108717 
L 318.442703 97.811813 
L 319.112973 97.643976 
L 319.448108 97.322112 
L 319.783243 97.251129 
L 320.118378 96.915433 
L 320.453514 96.766013 
L 321.123784 96.283254 
L 322.799459 95.462289 
L 324.14 94.873139 
L 324.475135 94.592191 
L 325.145405 93.756989 
L 325.480541 93.628078 
L 325.815676 93.731432 
L 326.150811 93.459776 
L 326.821081 93.403104 
L 327.156216 93.404485 
L 328.161622 92.832882 
L 330.172432 92.512814 
L 331.177838 92.388233 
L 331.512973 91.87019 
L 331.848108 91.755658 
L 332.183243 91.940065 
L 332.518378 91.927533 
L 332.853514 91.767363 
L 333.188649 91.820426 
L 333.523784 91.646135 
L 334.194054 91.089039 
L 334.529189 90.862577 
L 335.86973 90.564017 
L 336.54 90.168171 
L 337.545405 90.165026 
L 337.880541 89.749233 
L 338.215676 89.812094 
L 339.221081 89.50104 
L 339.556216 89.250827 
L 339.891351 89.498332 
L 340.226486 89.344654 
L 340.896757 89.468936 
L 341.231892 89.283436 
L 341.567027 89.428898 
L 341.902162 89.445085 
L 342.237297 89.283959 
L 342.572432 88.919494 
L 342.907568 88.800472 
L 343.242703 88.854632 
L 343.912973 88.302138 
L 344.583243 88.213352 
L 345.253514 87.43645 
L 346.258919 87.240801 
L 346.594054 87.050741 
L 347.264324 87.178313 
L 347.599459 86.997772 
L 347.934595 86.661787 
L 348.604865 87.020831 
L 348.94 86.915075 
L 349.275135 86.559977 
L 349.61027 86.433749 
L 349.945405 86.045615 
L 350.615676 86.445152 
L 350.950811 86.026938 
L 351.621081 85.962288 
L 351.956216 86.069027 
L 352.291351 85.899001 
L 353.296757 86.188471 
L 353.631892 86.219783 
L 353.967027 86.045071 
L 354.302162 86.166953 
L 354.637297 86.499399 
L 354.972432 86.367011 
L 355.307568 86.074611 
L 355.642703 85.967122 
L 355.977838 86.176281 
L 356.312973 86.118912 
L 356.648108 85.597128 
L 356.983243 85.478093 
L 357.318378 85.603082 
L 357.988649 85.514785 
L 358.658919 85.683106 
L 358.994054 85.970326 
L 359.329189 86.107632 
L 359.664324 86.112847 
L 359.999459 85.976231 
L 360.334595 86.06475 
L 360.66973 86.268884 
L 361.004865 85.753587 
L 361.34 85.766072 
L 361.675135 85.941379 
L 362.680541 85.622092 
L 363.015676 85.350728 
L 363.350811 85.408961 
L 363.685946 84.970592 
L 364.021081 84.9196 
L 364.356216 85.132438 
L 364.691351 85.493092 
L 365.026486 85.658718 
L 365.361622 85.491441 
L 365.696757 85.061361 
L 366.367027 85.31388 
L 366.702162 85.746676 
L 367.372432 85.505497 
L 367.707568 86.066573 
L 369.048108 86.239656 
L 369.383243 86.519754 
L 369.718378 87.088755 
L 370.053514 87.038063 
L 370.388649 87.328014 
L 370.723784 87.165032 
L 371.394054 87.429697 
L 372.064324 88.231872 
L 372.399459 88.052014 
L 373.06973 88.49599 
L 373.74 89.501548 
L 374.075135 89.472056 
L 374.41027 89.692284 
L 374.745405 90.083132 
L 375.080541 90.240224 
L 375.415676 90.55142 
L 375.750811 90.478447 
L 376.085946 90.678509 
L 376.421081 91.240389 
L 377.426486 91.582814 
L 377.761622 92.285378 
L 378.431892 92.764412 
L 381.112973 96.4925 
L 381.448108 96.612305 
L 381.783243 97.027071 
L 382.788649 99.093595 
L 383.123784 99.683525 
L 383.458919 99.967198 
L 383.794054 100.943262 
L 384.129189 101.441038 
L 384.464324 101.697548 
L 385.134595 102.556686 
L 386.14 104.351839 
L 386.475135 104.339413 
L 386.81027 105.291708 
L 387.145405 105.65925 
L 387.815676 107.181423 
L 388.150811 107.392445 
L 388.821081 108.441104 
L 389.156216 109.590059 
L 389.491351 110.026193 
L 390.161622 111.488315 
L 390.496757 111.894672 
L 391.837297 114.440751 
L 392.172432 114.779792 
L 392.842703 116.50901 
L 393.177838 116.6624 
L 394.518378 119.709103 
L 396.194054 123.843102 
L 396.864324 125.052539 
L 399.21027 130.688753 
L 399.880541 131.786044 
L 400.215676 132.71431 
L 400.550811 133.237243 
L 401.556216 135.838529 
L 401.891351 136.288201 
L 402.226486 137.030726 
L 403.231892 138.035935 
L 403.567027 138.132851 
L 403.902162 138.635934 
L 404.572432 139.177666 
L 404.907568 139.825953 
L 405.577838 140.417382 
L 405.912973 140.604094 
L 407.923784 142.751946 
L 408.258919 142.853204 
L 408.929189 143.889006 
L 409.599459 144.389364 
L 410.26973 145.509517 
L 410.94 146.124947 
L 410.94 146.124947 
" clip-path="url(#pa0504d4bfb)" style="fill: none; stroke-dasharray: 9.6,2.4,1.5,2.4; stroke-dashoffset: 0; stroke: #ff0000; stroke-width: 1.5"/>
   </g>
   <g id="line2d_25">
    <path d="M 76.14 140.605548 
L 86.529189 140.532997 
L 88.54 140.461716 
L 89.545405 140.398428 
L 91.891351 140.330447 
L 92.561622 140.357194 
L 93.231892 140.321468 
L 94.907568 140.27046 
L 95.577838 140.173155 
L 96.918378 140.234955 
L 99.599459 140.242688 
L 115.015676 140.508769 
L 116.691351 140.426952 
L 121.383243 140.612962 
L 125.404865 140.481856 
L 126.075135 140.457217 
L 128.756216 140.445736 
L 129.091351 140.511702 
L 130.096757 140.388174 
L 131.102162 140.39304 
L 132.442703 140.449109 
L 134.788649 140.542587 
L 135.794054 140.380752 
L 138.475135 140.357919 
L 139.145405 140.488236 
L 141.156216 140.381441 
L 142.496757 140.406508 
L 143.167027 140.403116 
L 145.512973 140.368824 
L 146.183243 140.286298 
L 146.853514 140.477951 
L 149.534595 140.567276 
L 150.204865 140.53369 
L 156.907568 140.423706 
L 157.577838 140.522085 
L 158.583243 140.536185 
L 159.253514 140.521377 
L 159.588649 140.678433 
L 161.934595 140.490633 
L 162.604865 140.548285 
L 163.61027 140.518041 
L 164.950811 140.280419 
L 171.318378 140.126947 
L 171.653514 140.052375 
L 172.658919 140.236256 
L 172.994054 140.224702 
L 173.329189 140.324805 
L 174.334595 140.148721 
L 175.34 140.201827 
L 175.675135 140.221222 
L 176.01027 140.077122 
L 178.691351 140.258427 
L 179.361622 140.216217 
L 180.367027 140.152121 
L 180.702162 140.174264 
L 181.037297 140.352626 
L 184.388649 140.458755 
L 186.064324 140.594096 
L 186.734595 140.619986 
L 187.06973 140.759665 
L 187.74 140.784382 
L 188.41027 140.960685 
L 189.080541 140.726097 
L 190.085946 140.780944 
L 191.761622 140.733767 
L 192.096757 140.634046 
L 192.767027 140.707779 
L 193.772432 140.537246 
L 196.118378 140.530201 
L 196.788649 140.683984 
L 197.123784 140.611951 
L 197.458919 140.717492 
L 197.794054 140.697851 
L 198.129189 140.838359 
L 201.480541 140.867274 
L 202.485946 140.891254 
L 203.491351 140.907596 
L 203.826486 140.809337 
L 206.172432 141.005957 
L 206.507568 140.986667 
L 206.842703 141.084216 
L 207.512973 141.025227 
L 209.188649 141.213829 
L 210.194054 141.127148 
L 211.86973 140.996643 
L 212.875135 141.214109 
L 213.880541 141.25783 
L 215.891351 140.829857 
L 217.567027 140.779392 
L 217.902162 140.653196 
L 219.577838 140.786518 
L 220.248108 140.715732 
L 220.918378 140.800389 
L 221.588649 140.651246 
L 222.594054 140.582198 
L 223.264324 140.354731 
L 226.280541 140.153351 
L 226.615676 140.251071 
L 229.296757 139.930048 
L 229.967027 139.951222 
L 230.972432 139.986826 
L 231.642703 140.132134 
L 231.977838 140.080325 
L 232.312973 140.262681 
L 232.983243 140.191869 
L 233.318378 140.297521 
L 234.323784 140.256127 
L 234.658919 140.358523 
L 235.999459 140.22621 
L 237.004865 140.286302 
L 237.675135 140.174756 
L 238.345405 140.264429 
L 239.350811 140.294236 
L 240.021081 140.484656 
L 240.691351 140.602031 
L 241.361622 140.735484 
L 241.696757 140.750316 
L 242.031892 140.909983 
L 243.372432 141.05883 
L 245.718378 141.42371 
L 246.388649 141.330763 
L 248.064324 141.322829 
L 248.734595 141.500699 
L 249.06973 141.376669 
L 250.075135 141.379363 
L 250.745405 141.309414 
L 252.756216 141.022144 
L 257.112973 140.990857 
L 258.788649 140.587767 
L 259.458919 140.650135 
L 260.129189 140.533374 
L 262.14 140.188627 
L 262.475135 140.33584 
L 266.831892 140.240786 
L 267.167027 140.115817 
L 269.177838 140.397655 
L 269.848108 140.560786 
L 270.518378 140.40664 
L 271.523784 140.38439 
L 272.194054 140.435771 
L 273.534595 140.504648 
L 273.86973 140.474351 
L 274.875135 140.623236 
L 275.880541 140.709379 
L 276.550811 140.672663 
L 277.556216 140.834857 
L 278.561622 140.814593 
L 278.896757 140.782915 
L 279.231892 140.628379 
L 281.912973 140.604799 
L 282.583243 140.598242 
L 283.253514 140.661272 
L 283.588649 140.636436 
L 284.258919 140.788069 
L 285.264324 140.524255 
L 285.599459 140.534357 
L 286.26973 140.377193 
L 286.604865 140.313659 
L 287.61027 140.50207 
L 290.626486 140.546158 
L 290.961622 140.439659 
L 291.631892 140.448328 
L 293.977838 140.3092 
L 294.648108 140.421737 
L 298.334595 140.612206 
L 300.01027 140.393478 
L 301.015676 140.48828 
L 301.350811 140.443445 
L 303.026486 140.835301 
L 304.367027 140.781891 
L 305.037297 140.737975 
L 305.707568 140.632939 
L 307.383243 140.706987 
L 307.718378 140.903883 
L 309.058919 141.017591 
L 310.064324 141.216107 
L 310.399459 141.211725 
L 310.734595 141.337792 
L 311.404865 141.445806 
L 313.415676 141.488975 
L 314.421081 141.256055 
L 317.102162 141.357009 
L 317.772432 141.146346 
L 318.442703 141.254522 
L 319.112973 141.248448 
L 319.783243 141.14113 
L 320.118378 141.159881 
L 320.788649 141.001118 
L 321.123784 141.008932 
L 321.458919 140.888027 
L 321.794054 140.929753 
L 322.129189 141.115663 
L 324.14 141.159114 
L 324.475135 141.009816 
L 325.145405 140.882047 
L 326.485946 140.667197 
L 327.156216 140.80185 
L 327.491351 140.58434 
L 327.826486 140.50878 
L 328.161622 140.227923 
L 329.502162 140.217916 
L 329.837297 140.317033 
L 330.172432 140.286171 
L 330.842703 140.605511 
L 331.848108 140.356834 
L 332.183243 140.50848 
L 332.853514 140.330871 
L 334.864324 140.573718 
L 335.534595 140.495421 
L 335.86973 140.436417 
L 336.204865 140.537385 
L 336.54 140.500793 
L 336.875135 140.7482 
L 337.21027 140.684041 
L 338.550811 141.150122 
L 339.221081 141.095685 
L 339.556216 141.320735 
L 340.226486 141.138635 
L 340.561622 140.936195 
L 340.896757 141.10422 
L 342.572432 141.401165 
L 343.242703 141.519522 
L 343.577838 141.377006 
L 343.912973 141.467912 
L 344.248108 141.41933 
L 345.253514 141.84001 
L 345.588649 141.700829 
L 345.923784 141.836544 
L 346.929189 141.824726 
L 347.264324 141.506385 
L 348.26973 141.737974 
L 348.604865 141.671106 
L 348.94 141.463219 
L 349.61027 142.073667 
L 352.291351 142.894235 
L 352.626486 143.15494 
L 353.296757 143.218248 
L 353.631892 142.828814 
L 353.967027 143.186566 
L 354.637297 142.968005 
L 354.972432 143.054401 
L 355.307568 142.937119 
L 355.642703 142.987133 
L 355.977838 143.150786 
L 356.312973 142.879845 
L 357.318378 143.485626 
L 357.653514 143.151054 
L 357.988649 143.257683 
L 358.323784 143.573033 
L 358.994054 143.760892 
L 359.329189 143.606718 
L 360.334595 144.036238 
L 361.004865 144.060513 
L 361.34 143.880331 
L 361.675135 143.979973 
L 362.345405 143.883146 
L 362.680541 144.287454 
L 363.350811 143.929434 
L 363.685946 144.083179 
L 364.021081 144.666682 
L 365.026486 144.463243 
L 365.696757 145.027714 
L 366.031892 144.788702 
L 366.367027 144.945478 
L 367.037297 144.855393 
L 367.372432 144.525743 
L 368.042703 144.694071 
L 368.377838 144.581971 
L 369.048108 145.133752 
L 369.383243 144.878869 
L 369.718378 145.270483 
L 370.388649 145.476314 
L 370.723784 145.314795 
L 371.058919 145.405786 
L 371.394054 145.935912 
L 371.729189 145.609286 
L 372.064324 145.618764 
L 373.74 146.236957 
L 374.41027 147.01865 
L 374.745405 146.924513 
L 375.080541 146.952574 
L 375.415676 146.729212 
L 375.750811 146.817024 
L 376.085946 147.233159 
L 376.421081 146.911117 
L 376.756216 147.139244 
L 377.091351 147.129352 
L 378.767027 148.533555 
L 379.102162 148.465119 
L 379.437297 147.917498 
L 380.442703 148.997082 
L 380.777838 149.120307 
L 381.112973 149.054685 
L 381.783243 149.772745 
L 382.118378 149.89021 
L 382.453514 149.723862 
L 382.788649 150.179767 
L 383.458919 150.324469 
L 383.794054 150.174124 
L 384.129189 150.675771 
L 384.464324 150.372277 
L 384.799459 150.345214 
L 385.134595 150.628942 
L 385.804865 150.353123 
L 386.475135 150.939491 
L 386.81027 150.924112 
L 387.480541 151.709252 
L 387.815676 151.733338 
L 388.150811 151.900913 
L 388.821081 153.534549 
L 389.156216 153.612999 
L 389.491351 153.291716 
L 390.161622 153.504011 
L 390.496757 153.580952 
L 390.831892 153.856552 
L 391.167027 153.867195 
L 391.502162 154.362922 
L 391.837297 154.458169 
L 392.507568 155.007034 
L 392.842703 155.093645 
L 393.177838 155.993025 
L 393.512973 155.893204 
L 393.848108 156.116372 
L 394.183243 156.202379 
L 394.518378 156.640775 
L 394.853514 156.6169 
L 395.858919 157.370181 
L 396.529189 158.39789 
L 397.199459 158.391099 
L 397.534595 158.002965 
L 397.86973 158.56512 
L 398.204865 158.586825 
L 398.54 158.88528 
L 398.875135 159.027457 
L 399.21027 159.349689 
L 399.545405 159.187915 
L 400.215676 159.480142 
L 400.550811 159.761435 
L 400.885946 159.638075 
L 401.221081 160.205021 
L 401.556216 160.180287 
L 401.891351 160.029051 
L 402.561622 160.009406 
L 402.896757 159.965962 
L 403.231892 159.719491 
L 403.567027 159.897212 
L 404.237297 159.786062 
L 404.572432 160.141084 
L 404.907568 159.962133 
L 405.577838 159.127246 
L 405.912973 159.189594 
L 406.248108 159.553181 
L 406.583243 159.587623 
L 406.918378 159.486097 
L 407.253514 159.877207 
L 407.588649 159.611665 
L 407.923784 159.850802 
L 408.258919 159.421077 
L 408.929189 159.427246 
L 409.599459 159.311468 
L 409.934595 158.756564 
L 410.604865 159.063208 
L 410.94 158.641986 
L 410.94 158.641986 
" clip-path="url(#pa0504d4bfb)" style="fill: none; stroke-dasharray: 5.55,2.4; stroke-dashoffset: 0; stroke: #ff0000; stroke-width: 1.5"/>
   </g>
   <g id="line2d_26">
    <path d="M 76.14 167.169712 
L 79.156216 177.193295 
L 81.502162 184.247464 
L 82.507568 187.392672 
L 84.518378 193.341302 
L 85.188649 197.490114 
L 86.529189 204.724246 
L 87.86973 210.851044 
L 89.545405 216.930351 
L 91.556216 222.346688 
L 92.561622 224.384626 
L 94.237297 226.369125 
L 94.572432 226.482468 
L 94.907568 226.466179 
L 95.577838 226.680775 
L 96.583243 226.230787 
L 97.588649 225.319952 
L 99.264324 222.308823 
L 101.275135 217.183362 
L 102.615676 212.908672 
L 104.626486 207.090788 
L 108.648108 196.1402 
L 109.653514 193.827911 
L 109.988649 193.258082 
L 112.66973 187.190498 
L 116.356216 180.255787 
L 120.042703 174.622114 
L 121.718378 172.460349 
L 123.394054 170.601933 
L 124.734595 168.994927 
L 128.085946 165.446731 
L 129.091351 164.492969 
L 129.761622 163.82453 
L 131.437297 162.486544 
L 132.107568 161.94168 
L 132.777838 161.472333 
L 133.783243 160.556763 
L 139.815676 155.9832 
L 140.821081 155.29498 
L 142.496757 154.20911 
L 143.502162 153.795895 
L 146.518378 152.255608 
L 147.523784 151.958687 
L 149.199459 151.131801 
L 150.54 150.548773 
L 152.215676 149.841509 
L 152.550811 149.79362 
L 153.891351 149.172509 
L 154.226486 149.145938 
L 155.567027 148.669594 
L 156.907568 148.357728 
L 159.923784 147.362027 
L 160.594054 147.124006 
L 163.61027 146.096277 
L 164.280541 145.832954 
L 165.285946 145.666372 
L 167.296757 145.072644 
L 168.972432 144.947947 
L 169.642703 144.709258 
L 170.983243 144.559342 
L 178.356216 143.338136 
L 180.031892 143.370937 
L 180.702162 143.236683 
L 181.707568 142.914739 
L 182.377838 142.814716 
L 184.723784 142.56082 
L 189.415676 141.946982 
L 190.085946 141.760971 
L 190.756216 141.725597 
L 194.442703 141.518616 
L 195.448108 141.549504 
L 197.458919 141.403484 
L 201.480541 141.393559 
L 202.485946 141.360724 
L 203.826486 141.371992 
L 205.167027 141.288315 
L 206.172432 141.394492 
L 206.842703 141.43014 
L 207.177838 141.401541 
L 207.848108 141.501639 
L 209.858919 141.509805 
L 210.194054 141.617421 
L 211.534595 141.497254 
L 212.875135 141.426371 
L 213.21027 141.356222 
L 213.545405 141.447322 
L 215.891351 141.210957 
L 216.561622 141.178623 
L 217.231892 141.031718 
L 217.902162 141.097315 
L 220.918378 140.727532 
L 221.588649 140.787493 
L 222.594054 140.644081 
L 224.94 140.41709 
L 225.945405 140.444308 
L 226.615676 140.377172 
L 226.950811 140.274833 
L 227.956216 140.311523 
L 229.296757 140.147563 
L 229.967027 140.26076 
L 230.637297 140.245619 
L 231.307568 140.214316 
L 232.648108 140.238229 
L 233.988649 140.241669 
L 235.329189 140.101362 
L 235.999459 140.223284 
L 238.01027 140.225239 
L 240.021081 140.261008 
L 240.691351 140.202844 
L 242.702162 140.071418 
L 244.712973 140.164768 
L 245.718378 140.148204 
L 246.388649 140.164686 
L 247.058919 140.049027 
L 248.064324 140.057483 
L 252.756216 140.113193 
L 253.091351 140.039025 
L 253.761622 140.132101 
L 254.767027 140.111655 
L 255.772432 140.23788 
L 257.448108 140.087867 
L 259.458919 140.120711 
L 260.129189 140.094174 
L 262.14 140.025824 
L 263.480541 140.011168 
L 264.485946 140.085473 
L 266.161622 140.087092 
L 267.837297 140.144487 
L 269.177838 140.065434 
L 269.848108 140.139098 
L 271.188649 139.907837 
L 271.523784 139.940317 
L 272.194054 139.770792 
L 272.864324 139.802351 
L 274.54 140.005022 
L 275.21027 139.906885 
L 278.226486 139.890118 
L 278.561622 139.813132 
L 279.567027 139.933477 
L 280.237297 139.961016 
L 280.907568 139.898526 
L 282.918378 139.81866 
L 284.594054 139.684725 
L 286.26973 139.784998 
L 287.275135 139.820682 
L 288.615676 139.820781 
L 289.285946 139.875541 
L 292.302162 139.704807 
L 293.307568 139.761357 
L 296.323784 139.848682 
L 296.994054 139.795723 
L 297.664324 139.866309 
L 298.334595 139.871972 
L 299.004865 139.853073 
L 300.345405 139.983708 
L 301.015676 139.988387 
L 302.691351 139.898819 
L 304.702162 139.996835 
L 306.377838 139.876965 
L 307.048108 140.021545 
L 307.383243 139.855442 
L 308.388649 139.933476 
L 310.399459 140.006327 
L 312.41027 139.89334 
L 313.080541 139.891059 
L 313.750811 139.982413 
L 314.421081 139.827928 
L 315.091351 139.848872 
L 316.096757 139.950291 
L 316.431892 139.860571 
L 317.772432 139.984953 
L 320.788649 139.702701 
L 321.123784 139.542203 
L 321.794054 139.556861 
L 322.464324 139.626943 
L 323.134595 139.801657 
L 324.81027 139.679063 
L 325.480541 139.694964 
L 325.815676 139.624311 
L 326.150811 139.733403 
L 327.491351 139.528006 
L 328.831892 139.567371 
L 329.837297 139.537519 
L 331.848108 139.645106 
L 334.864324 139.273074 
L 335.534595 139.376773 
L 336.204865 139.418855 
L 339.221081 139.448574 
L 340.896757 139.135678 
L 341.567027 139.224595 
L 342.237297 139.351274 
L 342.572432 139.407726 
L 342.907568 139.299941 
L 343.577838 139.369242 
L 344.583243 139.325073 
L 344.918378 139.253488 
L 345.588649 139.324301 
L 346.258919 139.213716 
L 348.26973 139.0613 
L 349.275135 139.024338 
L 350.615676 138.985019 
L 351.621081 139.168641 
L 352.961622 139.018436 
L 354.302162 138.990032 
L 355.642703 139.074717 
L 356.648108 138.960859 
L 357.653514 139.101569 
L 359.664324 138.770894 
L 362.680541 138.867533 
L 363.350811 139.050191 
L 364.021081 139.044243 
L 366.702162 139.052583 
L 367.372432 139.146464 
L 368.042703 138.970113 
L 371.058919 139.220193 
L 372.064324 139.035726 
L 373.404865 139.113213 
L 374.075135 139.016297 
L 376.756216 138.910254 
L 378.431892 138.930194 
L 380.107568 138.729838 
L 380.777838 138.846379 
L 381.448108 138.864746 
L 381.783243 138.815399 
L 382.453514 138.886807 
L 384.129189 138.694381 
L 385.804865 138.812466 
L 386.81027 138.67169 
L 387.145405 138.744546 
L 388.150811 138.563341 
L 388.821081 138.734434 
L 394.518378 139.241516 
L 394.853514 139.193843 
L 396.864324 139.648223 
L 397.534595 139.617697 
L 399.545405 140.019154 
L 400.215676 140.254124 
L 402.561622 141.410845 
L 405.577838 141.949841 
L 407.588649 142.282401 
L 408.594054 142.628293 
L 409.264324 142.686974 
L 409.934595 142.875866 
L 410.94 143.191865 
L 410.94 143.191865 
" clip-path="url(#pa0504d4bfb)" style="fill: none; stroke: #ff0000; stroke-width: 1.5; stroke-linecap: square"/>
   </g>
   <g id="line2d_27">
    <path d="M 76.14 138.732542 
L 83.848108 139.570223 
L 85.188649 139.711368 
L 89.21027 139.972344 
L 91.221081 139.816147 
L 92.896757 139.656352 
L 95.912973 139.532246 
L 97.588649 139.40129 
L 98.929189 139.329261 
L 100.604865 139.324945 
L 101.61027 139.397557 
L 103.621081 139.444329 
L 105.296757 139.543912 
L 110.994054 139.675565 
L 112.334595 139.537995 
L 112.66973 139.585909 
L 113.34 139.420988 
L 114.01027 139.453938 
L 118.031892 139.282766 
L 119.037297 139.284843 
L 120.712973 139.296631 
L 121.383243 139.427966 
L 122.388649 139.44989 
L 124.399459 139.494558 
L 125.404865 139.535096 
L 126.075135 139.660268 
L 128.421081 139.62241 
L 130.096757 139.764366 
L 130.767027 139.667867 
L 132.442703 139.643975 
L 133.112973 139.560955 
L 134.788649 139.514008 
L 135.458919 139.432189 
L 136.799459 139.545936 
L 137.46973 139.48524 
L 138.14 139.390431 
L 140.485946 139.399041 
L 142.161622 139.511682 
L 142.831892 139.670763 
L 143.502162 139.708188 
L 144.172432 139.774047 
L 145.177838 139.806445 
L 147.523784 139.840857 
L 149.86973 139.929886 
L 153.221081 139.729414 
L 156.237297 139.59948 
L 156.907568 139.575829 
L 157.577838 139.578381 
L 158.248108 139.59832 
L 160.258919 139.60476 
L 160.929189 139.652231 
L 161.599459 139.556719 
L 166.291351 139.786466 
L 166.961622 139.77331 
L 167.296757 139.902402 
L 169.642703 139.837579 
L 171.988649 139.706187 
L 172.658919 139.674126 
L 173.329189 139.664027 
L 176.01027 139.400233 
L 176.680541 139.452772 
L 177.685946 139.444166 
L 179.696757 139.80439 
L 181.037297 139.695217 
L 183.718378 139.864565 
L 184.053514 139.78519 
L 184.723784 139.790124 
L 186.064324 139.861635 
L 187.06973 139.97143 
L 188.41027 140.039671 
L 189.080541 140.006315 
L 190.421081 139.891624 
L 192.431892 139.956729 
L 193.102162 139.833679 
L 193.772432 139.69128 
L 195.783243 139.422068 
L 196.453514 139.429725 
L 196.788649 139.403901 
L 197.458919 139.544883 
L 198.464324 139.519467 
L 199.46973 139.403059 
L 200.81027 139.521541 
L 201.480541 139.520013 
L 205.502162 139.542767 
L 205.837297 139.630467 
L 206.172432 139.584648 
L 206.842703 139.679273 
L 208.183243 139.595538 
L 208.853514 139.557437 
L 210.529189 139.589129 
L 211.199459 139.493245 
L 215.556216 139.105058 
L 216.226486 139.155671 
L 218.572432 139.285488 
L 221.588649 139.577782 
L 222.258919 139.579151 
L 224.604865 139.920893 
L 226.950811 139.885668 
L 227.285946 139.868154 
L 227.956216 140.052998 
L 230.972432 140.151811 
L 235.999459 139.684671 
L 236.334595 139.622171 
L 236.66973 139.673755 
L 237.004865 139.604673 
L 237.34 139.657781 
L 238.345405 139.496568 
L 238.680541 139.587275 
L 242.031892 139.326149 
L 243.372432 139.682666 
L 244.377838 139.679601 
L 245.048108 139.563835 
L 246.053514 139.531655 
L 246.388649 139.635238 
L 246.723784 139.595769 
L 248.064324 139.838548 
L 249.06973 139.904492 
L 250.075135 139.908443 
L 250.745405 139.995355 
L 251.750811 140.079107 
L 252.421081 139.940509 
L 254.096757 140.113025 
L 255.437297 140.166899 
L 255.772432 140.061574 
L 258.118378 140.186362 
L 259.123784 140.145622 
L 259.794054 140.032491 
L 260.464324 139.909373 
L 265.156216 139.948566 
L 266.831892 140.094559 
L 269.177838 140.011052 
L 271.188649 139.880665 
L 272.194054 139.76716 
L 272.864324 139.898702 
L 274.54 139.952003 
L 276.215676 139.754231 
L 276.885946 139.881241 
L 277.891351 139.790995 
L 279.902162 139.853286 
L 280.572432 139.731576 
L 281.242703 139.67863 
L 281.912973 139.764637 
L 286.26973 139.517278 
L 286.94 139.514747 
L 288.950811 139.680047 
L 289.285946 139.759344 
L 291.296757 139.617456 
L 293.307568 139.65365 
L 294.312973 139.594073 
L 295.653514 139.772068 
L 296.658919 139.796119 
L 297.329189 139.891635 
L 299.675135 139.822064 
L 300.01027 139.869567 
L 300.680541 139.741395 
L 301.350811 139.888255 
L 302.691351 139.873148 
L 303.361622 139.956844 
L 314.756216 139.675119 
L 315.091351 139.585575 
L 315.761622 139.581837 
L 316.431892 139.562256 
L 316.767027 139.476145 
L 317.772432 139.518508 
L 318.107568 139.451852 
L 318.777838 139.473861 
L 319.448108 139.413752 
L 320.118378 139.333225 
L 327.156216 139.276836 
L 331.848108 139.564099 
L 333.188649 139.667066 
L 333.858919 139.7627 
L 334.194054 139.629723 
L 336.875135 139.841267 
L 337.545405 139.867006 
L 337.880541 139.940878 
L 338.215676 139.82741 
L 338.885946 139.811503 
L 340.226486 139.872747 
L 340.561622 139.928883 
L 340.896757 139.846913 
L 342.237297 139.993175 
L 346.594054 139.860161 
L 347.599459 139.81224 
L 350.615676 139.763858 
L 351.621081 140.074126 
L 352.291351 139.926419 
L 354.302162 139.953813 
L 361.004865 139.73379 
L 361.34 139.545161 
L 363.015676 139.294394 
L 364.021081 139.460775 
L 365.026486 139.502306 
L 365.361622 139.32394 
L 366.031892 139.371214 
L 367.707568 139.383932 
L 368.712973 139.259757 
L 370.053514 139.189314 
L 370.723784 139.283878 
L 371.058919 139.203062 
L 371.729189 139.290882 
L 372.734595 139.270201 
L 373.06973 139.338869 
L 374.41027 139.18798 
L 375.750811 139.393053 
L 376.421081 139.562628 
L 377.091351 139.559631 
L 377.426486 139.706488 
L 377.761622 139.613426 
L 378.431892 139.757514 
L 379.102162 139.668644 
L 379.772432 139.641809 
L 380.107568 139.594182 
L 380.442703 139.7098 
L 381.448108 139.623898 
L 382.453514 139.812062 
L 391.502162 139.679834 
L 393.177838 139.317845 
L 393.512973 139.478541 
L 394.183243 139.265641 
L 395.188649 139.468398 
L 396.194054 139.456984 
L 396.864324 139.627907 
L 397.199459 139.61181 
L 397.534595 139.733596 
L 398.54 139.804342 
L 398.875135 139.852528 
L 400.215676 140.466396 
L 400.885946 140.709635 
L 402.896757 141.93973 
L 404.572432 142.36215 
L 404.907568 142.31911 
L 405.577838 142.532996 
L 407.253514 142.944843 
L 410.94 144.859594 
L 410.94 144.859594 
" clip-path="url(#pa0504d4bfb)" style="fill: none; stroke: #ff7f0e; stroke-width: 1.5; stroke-linecap: square"/>
   </g>
   <g id="line2d_28">
    <path d="M 76.14 139.365599 
L 77.815676 139.478833 
L 84.518378 139.426321 
L 85.523784 139.421527 
L 87.534595 139.506379 
L 94.907568 139.485855 
L 97.588649 139.562362 
L 99.934595 139.525505 
L 100.604865 139.563808 
L 101.275135 139.529762 
L 103.621081 139.584118 
L 106.302162 139.583554 
L 107.977838 139.63337 
L 110.323784 139.494787 
L 110.994054 139.522688 
L 112.334595 139.538977 
L 114.01027 139.480999 
L 115.015676 139.515701 
L 119.372432 139.59621 
L 121.048108 139.621914 
L 121.718378 139.629213 
L 123.058919 139.5763 
L 125.404865 139.552131 
L 128.085946 139.586095 
L 131.102162 139.392421 
L 134.118378 139.512887 
L 134.788649 139.532229 
L 135.794054 139.567111 
L 136.464324 139.50279 
L 137.804865 139.53005 
L 138.81027 139.516759 
L 139.145405 139.617734 
L 139.815676 139.664209 
L 143.167027 139.809407 
L 143.837297 139.753051 
L 146.853514 140.092594 
L 148.194054 139.97236 
L 153.556216 139.919458 
L 154.561622 139.829373 
L 155.567027 139.89225 
L 156.572432 139.821565 
L 157.242703 139.851833 
L 157.912973 139.857815 
L 158.583243 139.834253 
L 159.253514 139.737489 
L 159.923784 139.720688 
L 161.264324 139.636521 
L 165.285946 139.766182 
L 165.621081 139.708527 
L 166.626486 139.786556 
L 167.296757 139.731811 
L 167.631892 139.609811 
L 168.637297 139.564995 
L 176.345405 139.373028 
L 177.015676 139.533609 
L 177.685946 139.424136 
L 179.026486 139.421356 
L 179.361622 139.310549 
L 181.037297 139.405243 
L 181.707568 139.390608 
L 182.377838 139.371541 
L 182.712973 139.330733 
L 183.383243 139.410787 
L 183.718378 139.370978 
L 185.058919 139.619301 
L 185.729189 139.673134 
L 187.404865 139.764833 
L 188.075135 139.657497 
L 190.085946 139.726636 
L 193.772432 139.617556 
L 194.777838 139.709593 
L 195.448108 139.650815 
L 196.453514 139.651381 
L 197.458919 139.63522 
L 197.794054 139.542564 
L 198.464324 139.694849 
L 207.848108 139.437167 
L 208.183243 139.573552 
L 208.518378 139.523028 
L 209.523784 139.631735 
L 210.864324 139.519463 
L 211.199459 139.563295 
L 211.534595 139.478089 
L 213.21027 139.614464 
L 214.215676 139.565428 
L 214.550811 139.657743 
L 215.221081 139.521234 
L 216.226486 139.568297 
L 219.577838 139.422879 
L 220.918378 139.592167 
L 221.588649 139.547594 
L 222.258919 139.548306 
L 224.94 139.43555 
L 225.61027 139.637945 
L 226.615676 139.692265 
L 227.285946 139.844513 
L 228.626486 139.788137 
L 228.961622 139.864714 
L 229.631892 139.782526 
L 231.307568 139.821615 
L 231.977838 139.916638 
L 232.983243 139.80177 
L 233.988649 139.715025 
L 234.994054 139.799564 
L 235.664324 139.716145 
L 235.999459 139.773667 
L 236.66973 139.682586 
L 237.675135 139.581289 
L 241.696757 139.934515 
L 242.367027 139.798355 
L 243.037297 139.899987 
L 243.372432 139.977789 
L 244.042703 139.958354 
L 246.053514 140.018596 
L 246.388649 139.905732 
L 247.729189 139.845038 
L 250.41027 139.835695 
L 251.750811 139.895876 
L 254.096757 139.952157 
L 256.107568 139.955266 
L 257.112973 139.898165 
L 260.129189 139.708297 
L 261.46973 139.69198 
L 264.821081 139.945384 
L 265.491351 139.960673 
L 267.837297 140.024411 
L 268.507568 139.974462 
L 281.242703 139.919608 
L 281.577838 139.829015 
L 282.583243 139.953555 
L 283.253514 139.839161 
L 284.258919 139.795937 
L 284.929189 139.941182 
L 285.934595 139.851804 
L 286.94 139.92661 
L 287.945405 139.847317 
L 289.621081 139.805233 
L 290.291351 139.761687 
L 290.961622 139.758049 
L 291.631892 139.716941 
L 294.648108 139.45752 
L 295.653514 139.364109 
L 296.323784 139.21376 
L 297.329189 139.290818 
L 299.34 139.21222 
L 300.345405 139.295195 
L 301.350811 139.305475 
L 302.021081 139.283943 
L 302.356216 139.432835 
L 303.696757 139.315051 
L 305.037297 139.507032 
L 305.707568 139.566525 
L 306.377838 139.488357 
L 306.712973 139.585456 
L 307.718378 139.502686 
L 309.058919 139.670855 
L 312.075135 139.747998 
L 313.080541 139.88688 
L 314.756216 139.847148 
L 315.426486 139.975975 
L 318.442703 139.758414 
L 319.112973 139.673592 
L 320.788649 139.783947 
L 321.794054 139.770932 
L 323.46973 139.499394 
L 323.804865 139.608941 
L 326.150811 139.538256 
L 326.821081 139.564543 
L 327.156216 139.502397 
L 328.161622 139.768201 
L 328.831892 139.772064 
L 330.507568 139.681595 
L 330.842703 139.619172 
L 331.512973 139.69737 
L 332.183243 139.540465 
L 333.188649 139.693535 
L 333.858919 139.745127 
L 334.864324 139.862877 
L 335.534595 139.951964 
L 336.54 140.009755 
L 337.21027 139.865378 
L 338.215676 139.801088 
L 339.891351 140.034456 
L 343.912973 140.169503 
L 344.918378 139.920831 
L 345.253514 139.9751 
L 345.588649 139.907068 
L 346.258919 139.954841 
L 349.61027 139.745689 
L 350.615676 139.795556 
L 352.291351 139.534061 
L 352.961622 139.375306 
L 354.302162 139.613061 
L 357.318378 139.504012 
L 357.988649 139.621128 
L 358.323784 139.675245 
L 358.994054 139.620547 
L 359.329189 139.614567 
L 359.999459 139.462473 
L 361.34 139.490782 
L 361.675135 139.351621 
L 362.680541 139.489156 
L 363.685946 139.679303 
L 364.356216 139.799914 
L 364.691351 139.799581 
L 365.026486 139.91562 
L 366.367027 139.809625 
L 368.042703 139.806594 
L 369.718378 139.838703 
L 370.723784 139.617903 
L 372.064324 139.532885 
L 372.734595 139.635386 
L 373.06973 139.567 
L 373.74 139.630844 
L 374.745405 139.484253 
L 375.080541 139.441937 
L 375.415676 139.52865 
L 376.756216 139.476826 
L 378.096757 139.56102 
L 378.431892 139.655812 
L 378.767027 139.51058 
L 381.112973 139.342473 
L 381.783243 139.115257 
L 382.788649 139.200692 
L 386.475135 139.256514 
L 388.150811 139.468186 
L 391.167027 139.395029 
L 391.502162 139.529818 
L 392.842703 139.539882 
L 393.512973 139.490835 
L 395.188649 139.495362 
L 395.858919 139.634616 
L 396.864324 139.568628 
L 398.204865 139.900919 
L 398.54 140.064674 
L 398.875135 140.071797 
L 400.215676 140.696348 
L 401.221081 141.229784 
L 401.891351 141.513411 
L 402.561622 142.023452 
L 404.572432 142.29383 
L 405.577838 142.487946 
L 407.588649 143.021132 
L 408.594054 143.194027 
L 409.934595 143.769573 
L 410.604865 144.177621 
L 410.94 144.305143 
L 410.94 144.305143 
" clip-path="url(#pa0504d4bfb)" style="fill: none; stroke: #1f77b4; stroke-width: 1.5; stroke-linecap: square"/>
   </g>
   <g id="legend_1">
    <g id="patch_7">
     <path d="M 66.4 129.33275 
L 149.782813 129.33275 
Q 151.782813 129.33275 151.782813 127.33275 
L 151.782813 40.264 
Q 151.782813 38.264 149.782813 38.264 
L 66.4 38.264 
Q 64.4 38.264 64.4 40.264 
L 64.4 127.33275 
Q 64.4 129.33275 66.4 129.33275 
z
" style="fill: #ffffff; opacity: 0.8; stroke: #e6e6e6; stroke-linejoin: miter"/>
    </g>
    <g id="line2d_29">
     <path d="M 68.4 46.362437 
L 78.4 46.362437 
L 88.4 46.362437 
" style="fill: none; stroke-dasharray: 1.5,2.475; stroke-dashoffset: 0; stroke: #ff0000; stroke-width: 1.5"/>
    </g>
    <g id="text_14">
     <!-- R/S -->
     <g transform="translate(96.4 49.862437)scale(0.1 -0.1)">
      <defs>
       <path id="DejaVuSans-52" d="M 2841 2188 
Q 3044 2119 3236 1894 
Q 3428 1669 3622 1275 
L 4263 0 
L 3584 0 
L 2988 1197 
Q 2756 1666 2539 1819 
Q 2322 1972 1947 1972 
L 1259 1972 
L 1259 0 
L 628 0 
L 628 4666 
L 2053 4666 
Q 2853 4666 3247 4331 
Q 3641 3997 3641 3322 
Q 3641 2881 3436 2590 
Q 3231 2300 2841 2188 
z
M 1259 4147 
L 1259 2491 
L 2053 2491 
Q 2509 2491 2742 2702 
Q 2975 2913 2975 3322 
Q 2975 3731 2742 3939 
Q 2509 4147 2053 4147 
L 1259 4147 
z
" transform="scale(0.015625)"/>
       <path id="DejaVuSans-2f" d="M 1625 4666 
L 2156 4666 
L 531 -594 
L 0 -594 
L 1625 4666 
z
" transform="scale(0.015625)"/>
       <path id="DejaVuSans-53" d="M 3425 4513 
L 3425 3897 
Q 3066 4069 2747 4153 
Q 2428 4238 2131 4238 
Q 1616 4238 1336 4038 
Q 1056 3838 1056 3469 
Q 1056 3159 1242 3001 
Q 1428 2844 1947 2747 
L 2328 2669 
Q 3034 2534 3370 2195 
Q 3706 1856 3706 1288 
Q 3706 609 3251 259 
Q 2797 -91 1919 -91 
Q 1588 -91 1214 -16 
Q 841 59 441 206 
L 441 856 
Q 825 641 1194 531 
Q 1563 422 1919 422 
Q 2459 422 2753 634 
Q 3047 847 3047 1241 
Q 3047 1584 2836 1778 
Q 2625 1972 2144 2069 
L 1759 2144 
Q 1053 2284 737 2584 
Q 422 2884 422 3419 
Q 422 4038 858 4394 
Q 1294 4750 2059 4750 
Q 2388 4750 2728 4690 
Q 3069 4631 3425 4513 
z
" transform="scale(0.015625)"/>
      </defs>
      <use xlink:href="#DejaVuSans-52"/>
      <use xlink:href="#DejaVuSans-2f" x="69.482422"/>
      <use xlink:href="#DejaVuSans-53" x="103.173828"/>
     </g>
    </g>
    <g id="line2d_30">
     <path d="M 68.4 61.040562 
L 78.4 61.040562 
L 88.4 61.040562 
" style="fill: none; stroke-dasharray: 9.6,2.4,1.5,2.4; stroke-dashoffset: 0; stroke: #ff0000; stroke-width: 1.5"/>
    </g>
    <g id="text_15">
     <!-- variogram -->
     <g transform="translate(96.4 64.540562)scale(0.1 -0.1)">
      <defs>
       <path id="DejaVuSans-76" d="M 191 3500 
L 800 3500 
L 1894 563 
L 2988 3500 
L 3597 3500 
L 2284 0 
L 1503 0 
L 191 3500 
z
" transform="scale(0.015625)"/>
       <path id="DejaVuSans-6f" d="M 1959 3097 
Q 1497 3097 1228 2736 
Q 959 2375 959 1747 
Q 959 1119 1226 758 
Q 1494 397 1959 397 
Q 2419 397 2687 759 
Q 2956 1122 2956 1747 
Q 2956 2369 2687 2733 
Q 2419 3097 1959 3097 
z
M 1959 3584 
Q 2709 3584 3137 3096 
Q 3566 2609 3566 1747 
Q 3566 888 3137 398 
Q 2709 -91 1959 -91 
Q 1206 -91 779 398 
Q 353 888 353 1747 
Q 353 2609 779 3096 
Q 1206 3584 1959 3584 
z
" transform="scale(0.015625)"/>
       <path id="DejaVuSans-67" d="M 2906 1791 
Q 2906 2416 2648 2759 
Q 2391 3103 1925 3103 
Q 1463 3103 1205 2759 
Q 947 2416 947 1791 
Q 947 1169 1205 825 
Q 1463 481 1925 481 
Q 2391 481 2648 825 
Q 2906 1169 2906 1791 
z
M 3481 434 
Q 3481 -459 3084 -895 
Q 2688 -1331 1869 -1331 
Q 1566 -1331 1297 -1286 
Q 1028 -1241 775 -1147 
L 775 -588 
Q 1028 -725 1275 -790 
Q 1522 -856 1778 -856 
Q 2344 -856 2625 -561 
Q 2906 -266 2906 331 
L 2906 616 
Q 2728 306 2450 153 
Q 2172 0 1784 0 
Q 1141 0 747 490 
Q 353 981 353 1791 
Q 353 2603 747 3093 
Q 1141 3584 1784 3584 
Q 2172 3584 2450 3431 
Q 2728 3278 2906 2969 
L 2906 3500 
L 3481 3500 
L 3481 434 
z
" transform="scale(0.015625)"/>
       <path id="DejaVuSans-6d" d="M 3328 2828 
Q 3544 3216 3844 3400 
Q 4144 3584 4550 3584 
Q 5097 3584 5394 3201 
Q 5691 2819 5691 2113 
L 5691 0 
L 5113 0 
L 5113 2094 
Q 5113 2597 4934 2840 
Q 4756 3084 4391 3084 
Q 3944 3084 3684 2787 
Q 3425 2491 3425 1978 
L 3425 0 
L 2847 0 
L 2847 2094 
Q 2847 2600 2669 2842 
Q 2491 3084 2119 3084 
Q 1678 3084 1418 2786 
Q 1159 2488 1159 1978 
L 1159 0 
L 581 0 
L 581 3500 
L 1159 3500 
L 1159 2956 
Q 1356 3278 1631 3431 
Q 1906 3584 2284 3584 
Q 2666 3584 2933 3390 
Q 3200 3197 3328 2828 
z
" transform="scale(0.015625)"/>
      </defs>
      <use xlink:href="#DejaVuSans-76"/>
      <use xlink:href="#DejaVuSans-61" x="59.179688"/>
      <use xlink:href="#DejaVuSans-72" x="120.458984"/>
      <use xlink:href="#DejaVuSans-69" x="161.572266"/>
      <use xlink:href="#DejaVuSans-6f" x="189.355469"/>
      <use xlink:href="#DejaVuSans-67" x="250.537109"/>
      <use xlink:href="#DejaVuSans-72" x="314.013672"/>
      <use xlink:href="#DejaVuSans-61" x="355.126953"/>
      <use xlink:href="#DejaVuSans-6d" x="416.40625"/>
     </g>
    </g>
    <g id="line2d_31">
     <path d="M 68.4 75.718687 
L 78.4 75.718687 
L 88.4 75.718687 
" style="fill: none; stroke-dasharray: 5.55,2.4; stroke-dashoffset: 0; stroke: #ff0000; stroke-width: 1.5"/>
    </g>
    <g id="text_16">
     <!-- Higuchi -->
     <g transform="translate(96.4 79.218687)scale(0.1 -0.1)">
      <defs>
       <path id="DejaVuSans-63" d="M 3122 3366 
L 3122 2828 
Q 2878 2963 2633 3030 
Q 2388 3097 2138 3097 
Q 1578 3097 1268 2742 
Q 959 2388 959 1747 
Q 959 1106 1268 751 
Q 1578 397 2138 397 
Q 2388 397 2633 464 
Q 2878 531 3122 666 
L 3122 134 
Q 2881 22 2623 -34 
Q 2366 -91 2075 -91 
Q 1284 -91 818 406 
Q 353 903 353 1747 
Q 353 2603 823 3093 
Q 1294 3584 2113 3584 
Q 2378 3584 2631 3529 
Q 2884 3475 3122 3366 
z
" transform="scale(0.015625)"/>
       <path id="DejaVuSans-68" d="M 3513 2113 
L 3513 0 
L 2938 0 
L 2938 2094 
Q 2938 2591 2744 2837 
Q 2550 3084 2163 3084 
Q 1697 3084 1428 2787 
Q 1159 2491 1159 1978 
L 1159 0 
L 581 0 
L 581 4863 
L 1159 4863 
L 1159 2956 
Q 1366 3272 1645 3428 
Q 1925 3584 2291 3584 
Q 2894 3584 3203 3211 
Q 3513 2838 3513 2113 
z
" transform="scale(0.015625)"/>
      </defs>
      <use xlink:href="#DejaVuSans-48"/>
      <use xlink:href="#DejaVuSans-69" x="75.195312"/>
      <use xlink:href="#DejaVuSans-67" x="102.978516"/>
      <use xlink:href="#DejaVuSans-75" x="166.455078"/>
      <use xlink:href="#DejaVuSans-63" x="229.833984"/>
      <use xlink:href="#DejaVuSans-68" x="284.814453"/>
      <use xlink:href="#DejaVuSans-69" x="348.193359"/>
     </g>
    </g>
    <g id="line2d_32">
     <path d="M 68.4 90.396813 
L 78.4 90.396813 
L 88.4 90.396813 
" style="fill: none; stroke: #ff0000; stroke-width: 1.5; stroke-linecap: square"/>
    </g>
    <g id="text_17">
     <!-- Whittle -->
     <g transform="translate(96.4 93.896813)scale(0.1 -0.1)">
      <defs>
       <path id="DejaVuSans-57" d="M 213 4666 
L 850 4666 
L 1831 722 
L 2809 4666 
L 3519 4666 
L 4500 722 
L 5478 4666 
L 6119 4666 
L 4947 0 
L 4153 0 
L 3169 4050 
L 2175 0 
L 1381 0 
L 213 4666 
z
" transform="scale(0.015625)"/>
       <path id="DejaVuSans-6c" d="M 603 4863 
L 1178 4863 
L 1178 0 
L 603 0 
L 603 4863 
z
" transform="scale(0.015625)"/>
       <path id="DejaVuSans-65" d="M 3597 1894 
L 3597 1613 
L 953 1613 
Q 991 1019 1311 708 
Q 1631 397 2203 397 
Q 2534 397 2845 478 
Q 3156 559 3463 722 
L 3463 178 
Q 3153 47 2828 -22 
Q 2503 -91 2169 -91 
Q 1331 -91 842 396 
Q 353 884 353 1716 
Q 353 2575 817 3079 
Q 1281 3584 2069 3584 
Q 2775 3584 3186 3129 
Q 3597 2675 3597 1894 
z
M 3022 2063 
Q 3016 2534 2758 2815 
Q 2500 3097 2075 3097 
Q 1594 3097 1305 2825 
Q 1016 2553 972 2059 
L 3022 2063 
z
" transform="scale(0.015625)"/>
      </defs>
      <use xlink:href="#DejaVuSans-57"/>
      <use xlink:href="#DejaVuSans-68" x="98.876953"/>
      <use xlink:href="#DejaVuSans-69" x="162.255859"/>
      <use xlink:href="#DejaVuSans-74" x="190.039062"/>
      <use xlink:href="#DejaVuSans-74" x="229.248047"/>
      <use xlink:href="#DejaVuSans-6c" x="268.457031"/>
      <use xlink:href="#DejaVuSans-65" x="296.240234"/>
     </g>
    </g>
    <g id="line2d_33">
     <path d="M 68.4 105.074938 
L 78.4 105.074938 
L 88.4 105.074938 
" style="fill: none; stroke: #ff7f0e; stroke-width: 1.5; stroke-linecap: square"/>
    </g>
    <g id="text_18">
     <!-- 1D CNN -->
     <g transform="translate(96.4 108.574938)scale(0.1 -0.1)">
      <defs>
       <path id="DejaVuSans-44" d="M 1259 4147 
L 1259 519 
L 2022 519 
Q 2988 519 3436 956 
Q 3884 1394 3884 2338 
Q 3884 3275 3436 3711 
Q 2988 4147 2022 4147 
L 1259 4147 
z
M 628 4666 
L 1925 4666 
Q 3281 4666 3915 4102 
Q 4550 3538 4550 2338 
Q 4550 1131 3912 565 
Q 3275 0 1925 0 
L 628 0 
L 628 4666 
z
" transform="scale(0.015625)"/>
       <path id="DejaVuSans-20" transform="scale(0.015625)"/>
       <path id="DejaVuSans-43" d="M 4122 4306 
L 4122 3641 
Q 3803 3938 3442 4084 
Q 3081 4231 2675 4231 
Q 1875 4231 1450 3742 
Q 1025 3253 1025 2328 
Q 1025 1406 1450 917 
Q 1875 428 2675 428 
Q 3081 428 3442 575 
Q 3803 722 4122 1019 
L 4122 359 
Q 3791 134 3420 21 
Q 3050 -91 2638 -91 
Q 1578 -91 968 557 
Q 359 1206 359 2328 
Q 359 3453 968 4101 
Q 1578 4750 2638 4750 
Q 3056 4750 3426 4639 
Q 3797 4528 4122 4306 
z
" transform="scale(0.015625)"/>
       <path id="DejaVuSans-4e" d="M 628 4666 
L 1478 4666 
L 3547 763 
L 3547 4666 
L 4159 4666 
L 4159 0 
L 3309 0 
L 1241 3903 
L 1241 0 
L 628 0 
L 628 4666 
z
" transform="scale(0.015625)"/>
      </defs>
      <use xlink:href="#DejaVuSans-31"/>
      <use xlink:href="#DejaVuSans-44" x="63.623047"/>
      <use xlink:href="#DejaVuSans-20" x="140.625"/>
      <use xlink:href="#DejaVuSans-43" x="172.412109"/>
      <use xlink:href="#DejaVuSans-4e" x="242.236328"/>
      <use xlink:href="#DejaVuSans-4e" x="317.041016"/>
     </g>
    </g>
    <g id="line2d_34">
     <path d="M 68.4 119.753062 
L 78.4 119.753062 
L 88.4 119.753062 
" style="fill: none; stroke: #1f77b4; stroke-width: 1.5; stroke-linecap: square"/>
    </g>
    <g id="text_19">
     <!-- LSTM -->
     <g transform="translate(96.4 123.253062)scale(0.1 -0.1)">
      <defs>
       <path id="DejaVuSans-4c" d="M 628 4666 
L 1259 4666 
L 1259 531 
L 3531 531 
L 3531 0 
L 628 0 
L 628 4666 
z
" transform="scale(0.015625)"/>
       <path id="DejaVuSans-54" d="M -19 4666 
L 3928 4666 
L 3928 4134 
L 2272 4134 
L 2272 0 
L 1638 0 
L 1638 4134 
L -19 4134 
L -19 4666 
z
" transform="scale(0.015625)"/>
       <path id="DejaVuSans-4d" d="M 628 4666 
L 1569 4666 
L 2759 1491 
L 3956 4666 
L 4897 4666 
L 4897 0 
L 4281 0 
L 4281 4097 
L 3078 897 
L 2444 897 
L 1241 4097 
L 1241 0 
L 628 0 
L 628 4666 
z
" transform="scale(0.015625)"/>
      </defs>
      <use xlink:href="#DejaVuSans-4c"/>
      <use xlink:href="#DejaVuSans-53" x="55.712891"/>
      <use xlink:href="#DejaVuSans-54" x="119.189453"/>
      <use xlink:href="#DejaVuSans-4d" x="180.273438"/>
     </g>
    </g>
   </g>
  </g>
 </g>
 <defs>
  <clipPath id="pa0504d4bfb">
   <rect x="59.4" y="33.264" width="368.28" height="213.444"/>
  </clipPath>
 </defs>
</svg>
