<?xml version="1.0" encoding="utf-8" standalone="no"?>
<!DOCTYPE svg PUBLIC "-//W3C//DTD SVG 1.1//EN"
  "http://www.w3.org/Graphics/SVG/1.1/DTD/svg11.dtd">
<svg xmlns:xlink="http://www.w3.org/1999/xlink" width="432pt" height="252pt" viewBox="0 0 432 252" xmlns="http://www.w3.org/2000/svg" version="1.1">
 <metadata>
  <rdf:RDF xmlns:dc="http://purl.org/dc/elements/1.1/" xmlns:cc="http://creativecommons.org/ns#" xmlns:rdf="http://www.w3.org/1999/02/22-rdf-syntax-ns#">
   <cc:Work>
    <dc:type rdf:resource="http://purl.org/dc/dcmitype/StillImage"/>
    <dc:date>2024-07-04T23:10:32.980031</dc:date>
    <dc:format>image/svg+xml</dc:format>
    <dc:creator>
     <cc:Agent>
      <dc:title>Matplotlib v3.5.1, https://matplotlib.org/</dc:title>
     </cc:Agent>
    </dc:creator>
   </cc:Work>
  </rdf:RDF>
 </metadata>
 <defs>
  <style type="text/css">*{stroke-linejoin: round; stroke-linecap: butt}</style>
 </defs>
 <g id="figure_1">
  <g id="patch_1">
   <path d="M 0 252 
L 432 252 
L 432 0 
L 0 0 
z
" style="fill: #ffffff"/>
  </g>
  <g id="axes_1">
   <g id="patch_2">
    <path d="M 54 224.28 
L 388.8 224.28 
L 388.8 30.24 
L 54 30.24 
L 54 224.28 
z
" style="fill: none; opacity: 0"/>
   </g>
   <g id="matplotlib.axis_1">
    <g id="xtick_1">
     <g id="line2d_1">
      <path d="M 66.143802 224.28 
L 66.143802 30.24 
" clip-path="url(#pecbeb93e55)" style="fill: none; stroke: #e6e6e6; stroke-width: 0.8; stroke-linecap: square"/>
     </g>
     <g id="line2d_2">
      <defs>
       <path id="m83846f8024" d="M 0 0 
L 0 3.5 
" style="stroke: #000000; stroke-width: 0.8"/>
      </defs>
      <g>
       <use xlink:href="#m83846f8024" x="66.143802" y="224.28" style="stroke: #000000; stroke-width: 0.8"/>
      </g>
     </g>
     <g id="text_1">
      <!-- 0 -->
      <g transform="translate(62.962552 238.878438)scale(0.1 -0.1)">
       <defs>
        <path id="DejaVuSans-30" d="M 2034 4250 
Q 1547 4250 1301 3770 
Q 1056 3291 1056 2328 
Q 1056 1369 1301 889 
Q 1547 409 2034 409 
Q 2525 409 2770 889 
Q 3016 1369 3016 2328 
Q 3016 3291 2770 3770 
Q 2525 4250 2034 4250 
z
M 2034 4750 
Q 2819 4750 3233 4129 
Q 3647 3509 3647 2328 
Q 3647 1150 3233 529 
Q 2819 -91 2034 -91 
Q 1250 -91 836 529 
Q 422 1150 422 2328 
Q 422 3509 836 4129 
Q 1250 4750 2034 4750 
z
" transform="scale(0.015625)"/>
       </defs>
       <use xlink:href="#DejaVuSans-30"/>
      </g>
     </g>
    </g>
    <g id="xtick_2">
     <g id="line2d_3">
      <path d="M 127.631405 224.28 
L 127.631405 30.24 
" clip-path="url(#pecbeb93e55)" style="fill: none; stroke: #e6e6e6; stroke-width: 0.8; stroke-linecap: square"/>
     </g>
     <g id="line2d_4">
      <g>
       <use xlink:href="#m83846f8024" x="127.631405" y="224.28" style="stroke: #000000; stroke-width: 0.8"/>
      </g>
     </g>
     <g id="text_2">
      <!-- 20 -->
      <g transform="translate(121.268905 238.878438)scale(0.1 -0.1)">
       <defs>
        <path id="DejaVuSans-32" d="M 1228 531 
L 3431 531 
L 3431 0 
L 469 0 
L 469 531 
Q 828 903 1448 1529 
Q 2069 2156 2228 2338 
Q 2531 2678 2651 2914 
Q 2772 3150 2772 3378 
Q 2772 3750 2511 3984 
Q 2250 4219 1831 4219 
Q 1534 4219 1204 4116 
Q 875 4013 500 3803 
L 500 4441 
Q 881 4594 1212 4672 
Q 1544 4750 1819 4750 
Q 2544 4750 2975 4387 
Q 3406 4025 3406 3419 
Q 3406 3131 3298 2873 
Q 3191 2616 2906 2266 
Q 2828 2175 2409 1742 
Q 1991 1309 1228 531 
z
" transform="scale(0.015625)"/>
       </defs>
       <use xlink:href="#DejaVuSans-32"/>
       <use xlink:href="#DejaVuSans-30" x="63.623047"/>
      </g>
     </g>
    </g>
    <g id="xtick_3">
     <g id="line2d_5">
      <path d="M 189.119008 224.28 
L 189.119008 30.24 
" clip-path="url(#pecbeb93e55)" style="fill: none; stroke: #e6e6e6; stroke-width: 0.8; stroke-linecap: square"/>
     </g>
     <g id="line2d_6">
      <g>
       <use xlink:href="#m83846f8024" x="189.119008" y="224.28" style="stroke: #000000; stroke-width: 0.8"/>
      </g>
     </g>
     <g id="text_3">
      <!-- 40 -->
      <g transform="translate(182.756508 238.878438)scale(0.1 -0.1)">
       <defs>
        <path id="DejaVuSans-34" d="M 2419 4116 
L 825 1625 
L 2419 1625 
L 2419 4116 
z
M 2253 4666 
L 3047 4666 
L 3047 1625 
L 3713 1625 
L 3713 1100 
L 3047 1100 
L 3047 0 
L 2419 0 
L 2419 1100 
L 313 1100 
L 313 1709 
L 2253 4666 
z
" transform="scale(0.015625)"/>
       </defs>
       <use xlink:href="#DejaVuSans-34"/>
       <use xlink:href="#DejaVuSans-30" x="63.623047"/>
      </g>
     </g>
    </g>
    <g id="xtick_4">
     <g id="line2d_7">
      <path d="M 250.606612 224.28 
L 250.606612 30.24 
" clip-path="url(#pecbeb93e55)" style="fill: none; stroke: #e6e6e6; stroke-width: 0.8; stroke-linecap: square"/>
     </g>
     <g id="line2d_8">
      <g>
       <use xlink:href="#m83846f8024" x="250.606612" y="224.28" style="stroke: #000000; stroke-width: 0.8"/>
      </g>
     </g>
     <g id="text_4">
      <!-- 60 -->
      <g transform="translate(244.244112 238.878438)scale(0.1 -0.1)">
       <defs>
        <path id="DejaVuSans-36" d="M 2113 2584 
Q 1688 2584 1439 2293 
Q 1191 2003 1191 1497 
Q 1191 994 1439 701 
Q 1688 409 2113 409 
Q 2538 409 2786 701 
Q 3034 994 3034 1497 
Q 3034 2003 2786 2293 
Q 2538 2584 2113 2584 
z
M 3366 4563 
L 3366 3988 
Q 3128 4100 2886 4159 
Q 2644 4219 2406 4219 
Q 1781 4219 1451 3797 
Q 1122 3375 1075 2522 
Q 1259 2794 1537 2939 
Q 1816 3084 2150 3084 
Q 2853 3084 3261 2657 
Q 3669 2231 3669 1497 
Q 3669 778 3244 343 
Q 2819 -91 2113 -91 
Q 1303 -91 875 529 
Q 447 1150 447 2328 
Q 447 3434 972 4092 
Q 1497 4750 2381 4750 
Q 2619 4750 2861 4703 
Q 3103 4656 3366 4563 
z
" transform="scale(0.015625)"/>
       </defs>
       <use xlink:href="#DejaVuSans-36"/>
       <use xlink:href="#DejaVuSans-30" x="63.623047"/>
      </g>
     </g>
    </g>
    <g id="xtick_5">
     <g id="line2d_9">
      <path d="M 312.094215 224.28 
L 312.094215 30.24 
" clip-path="url(#pecbeb93e55)" style="fill: none; stroke: #e6e6e6; stroke-width: 0.8; stroke-linecap: square"/>
     </g>
     <g id="line2d_10">
      <g>
       <use xlink:href="#m83846f8024" x="312.094215" y="224.28" style="stroke: #000000; stroke-width: 0.8"/>
      </g>
     </g>
     <g id="text_5">
      <!-- 80 -->
      <g transform="translate(305.731715 238.878438)scale(0.1 -0.1)">
       <defs>
        <path id="DejaVuSans-38" d="M 2034 2216 
Q 1584 2216 1326 1975 
Q 1069 1734 1069 1313 
Q 1069 891 1326 650 
Q 1584 409 2034 409 
Q 2484 409 2743 651 
Q 3003 894 3003 1313 
Q 3003 1734 2745 1975 
Q 2488 2216 2034 2216 
z
M 1403 2484 
Q 997 2584 770 2862 
Q 544 3141 544 3541 
Q 544 4100 942 4425 
Q 1341 4750 2034 4750 
Q 2731 4750 3128 4425 
Q 3525 4100 3525 3541 
Q 3525 3141 3298 2862 
Q 3072 2584 2669 2484 
Q 3125 2378 3379 2068 
Q 3634 1759 3634 1313 
Q 3634 634 3220 271 
Q 2806 -91 2034 -91 
Q 1263 -91 848 271 
Q 434 634 434 1313 
Q 434 1759 690 2068 
Q 947 2378 1403 2484 
z
M 1172 3481 
Q 1172 3119 1398 2916 
Q 1625 2713 2034 2713 
Q 2441 2713 2670 2916 
Q 2900 3119 2900 3481 
Q 2900 3844 2670 4047 
Q 2441 4250 2034 4250 
Q 1625 4250 1398 4047 
Q 1172 3844 1172 3481 
z
" transform="scale(0.015625)"/>
       </defs>
       <use xlink:href="#DejaVuSans-38"/>
       <use xlink:href="#DejaVuSans-30" x="63.623047"/>
      </g>
     </g>
    </g>
    <g id="xtick_6">
     <g id="line2d_11">
      <path d="M 373.581818 224.28 
L 373.581818 30.24 
" clip-path="url(#pecbeb93e55)" style="fill: none; stroke: #e6e6e6; stroke-width: 0.8; stroke-linecap: square"/>
     </g>
     <g id="line2d_12">
      <g>
       <use xlink:href="#m83846f8024" x="373.581818" y="224.28" style="stroke: #000000; stroke-width: 0.8"/>
      </g>
     </g>
     <g id="text_6">
      <!-- 100 -->
      <g transform="translate(364.038068 238.878438)scale(0.1 -0.1)">
       <defs>
        <path id="DejaVuSans-31" d="M 794 531 
L 1825 531 
L 1825 4091 
L 703 3866 
L 703 4441 
L 1819 4666 
L 2450 4666 
L 2450 531 
L 3481 531 
L 3481 0 
L 794 0 
L 794 531 
z
" transform="scale(0.015625)"/>
       </defs>
       <use xlink:href="#DejaVuSans-31"/>
       <use xlink:href="#DejaVuSans-30" x="63.623047"/>
       <use xlink:href="#DejaVuSans-30" x="127.246094"/>
      </g>
     </g>
    </g>
    <g id="text_7">
     <!-- epoch -->
     <g transform="translate(206.171875 252.556563)scale(0.1 -0.1)">
      <defs>
       <path id="DejaVuSans-65" d="M 3597 1894 
L 3597 1613 
L 953 1613 
Q 991 1019 1311 708 
Q 1631 397 2203 397 
Q 2534 397 2845 478 
Q 3156 559 3463 722 
L 3463 178 
Q 3153 47 2828 -22 
Q 2503 -91 2169 -91 
Q 1331 -91 842 396 
Q 353 884 353 1716 
Q 353 2575 817 3079 
Q 1281 3584 2069 3584 
Q 2775 3584 3186 3129 
Q 3597 2675 3597 1894 
z
M 3022 2063 
Q 3016 2534 2758 2815 
Q 2500 3097 2075 3097 
Q 1594 3097 1305 2825 
Q 1016 2553 972 2059 
L 3022 2063 
z
" transform="scale(0.015625)"/>
       <path id="DejaVuSans-70" d="M 1159 525 
L 1159 -1331 
L 581 -1331 
L 581 3500 
L 1159 3500 
L 1159 2969 
Q 1341 3281 1617 3432 
Q 1894 3584 2278 3584 
Q 2916 3584 3314 3078 
Q 3713 2572 3713 1747 
Q 3713 922 3314 415 
Q 2916 -91 2278 -91 
Q 1894 -91 1617 61 
Q 1341 213 1159 525 
z
M 3116 1747 
Q 3116 2381 2855 2742 
Q 2594 3103 2138 3103 
Q 1681 3103 1420 2742 
Q 1159 2381 1159 1747 
Q 1159 1113 1420 752 
Q 1681 391 2138 391 
Q 2594 391 2855 752 
Q 3116 1113 3116 1747 
z
" transform="scale(0.015625)"/>
       <path id="DejaVuSans-6f" d="M 1959 3097 
Q 1497 3097 1228 2736 
Q 959 2375 959 1747 
Q 959 1119 1226 758 
Q 1494 397 1959 397 
Q 2419 397 2687 759 
Q 2956 1122 2956 1747 
Q 2956 2369 2687 2733 
Q 2419 3097 1959 3097 
z
M 1959 3584 
Q 2709 3584 3137 3096 
Q 3566 2609 3566 1747 
Q 3566 888 3137 398 
Q 2709 -91 1959 -91 
Q 1206 -91 779 398 
Q 353 888 353 1747 
Q 353 2609 779 3096 
Q 1206 3584 1959 3584 
z
" transform="scale(0.015625)"/>
       <path id="DejaVuSans-63" d="M 3122 3366 
L 3122 2828 
Q 2878 2963 2633 3030 
Q 2388 3097 2138 3097 
Q 1578 3097 1268 2742 
Q 959 2388 959 1747 
Q 959 1106 1268 751 
Q 1578 397 2138 397 
Q 2388 397 2633 464 
Q 2878 531 3122 666 
L 3122 134 
Q 2881 22 2623 -34 
Q 2366 -91 2075 -91 
Q 1284 -91 818 406 
Q 353 903 353 1747 
Q 353 2603 823 3093 
Q 1294 3584 2113 3584 
Q 2378 3584 2631 3529 
Q 2884 3475 3122 3366 
z
" transform="scale(0.015625)"/>
       <path id="DejaVuSans-68" d="M 3513 2113 
L 3513 0 
L 2938 0 
L 2938 2094 
Q 2938 2591 2744 2837 
Q 2550 3084 2163 3084 
Q 1697 3084 1428 2787 
Q 1159 2491 1159 1978 
L 1159 0 
L 581 0 
L 581 4863 
L 1159 4863 
L 1159 2956 
Q 1366 3272 1645 3428 
Q 1925 3584 2291 3584 
Q 2894 3584 3203 3211 
Q 3513 2838 3513 2113 
z
" transform="scale(0.015625)"/>
      </defs>
      <use xlink:href="#DejaVuSans-65"/>
      <use xlink:href="#DejaVuSans-70" x="61.523438"/>
      <use xlink:href="#DejaVuSans-6f" x="125"/>
      <use xlink:href="#DejaVuSans-63" x="186.181641"/>
      <use xlink:href="#DejaVuSans-68" x="241.162109"/>
     </g>
    </g>
   </g>
   <g id="matplotlib.axis_2">
    <g id="ytick_1">
     <g id="line2d_13">
      <path d="M 54 222.273458 
L 388.8 222.273458 
" clip-path="url(#pecbeb93e55)" style="fill: none; stroke: #e6e6e6; stroke-width: 0.8; stroke-linecap: square"/>
     </g>
     <g id="line2d_14">
      <defs>
       <path id="mefb4bf4fba" d="M 0 0 
L -3.5 0 
" style="stroke: #000000; stroke-width: 0.8"/>
      </defs>
      <g>
       <use xlink:href="#mefb4bf4fba" x="54" y="222.273458" style="stroke: #000000; stroke-width: 0.8"/>
      </g>
     </g>
     <g id="text_8">
      <!-- $\mathdefault{10^{-4}}$ -->
      <g transform="translate(23.5 226.072677)scale(0.1 -0.1)">
       <defs>
        <path id="DejaVuSans-2212" d="M 678 2272 
L 4684 2272 
L 4684 1741 
L 678 1741 
L 678 2272 
z
" transform="scale(0.015625)"/>
       </defs>
       <use xlink:href="#DejaVuSans-31" transform="translate(0 0.684375)"/>
       <use xlink:href="#DejaVuSans-30" transform="translate(63.623047 0.684375)"/>
       <use xlink:href="#DejaVuSans-2212" transform="translate(128.203125 38.965625)scale(0.7)"/>
       <use xlink:href="#DejaVuSans-34" transform="translate(186.855469 38.965625)scale(0.7)"/>
      </g>
     </g>
    </g>
    <g id="ytick_2">
     <g id="line2d_15">
      <path d="M 54 122.273532 
L 388.8 122.273532 
" clip-path="url(#pecbeb93e55)" style="fill: none; stroke: #e6e6e6; stroke-width: 0.8; stroke-linecap: square"/>
     </g>
     <g id="line2d_16">
      <g>
       <use xlink:href="#mefb4bf4fba" x="54" y="122.273532" style="stroke: #000000; stroke-width: 0.8"/>
      </g>
     </g>
     <g id="text_9">
      <!-- $\mathdefault{10^{-3}}$ -->
      <g transform="translate(23.5 126.072751)scale(0.1 -0.1)">
       <defs>
        <path id="DejaVuSans-33" d="M 2597 2516 
Q 3050 2419 3304 2112 
Q 3559 1806 3559 1356 
Q 3559 666 3084 287 
Q 2609 -91 1734 -91 
Q 1441 -91 1130 -33 
Q 819 25 488 141 
L 488 750 
Q 750 597 1062 519 
Q 1375 441 1716 441 
Q 2309 441 2620 675 
Q 2931 909 2931 1356 
Q 2931 1769 2642 2001 
Q 2353 2234 1838 2234 
L 1294 2234 
L 1294 2753 
L 1863 2753 
Q 2328 2753 2575 2939 
Q 2822 3125 2822 3475 
Q 2822 3834 2567 4026 
Q 2313 4219 1838 4219 
Q 1578 4219 1281 4162 
Q 984 4106 628 3988 
L 628 4550 
Q 988 4650 1302 4700 
Q 1616 4750 1894 4750 
Q 2613 4750 3031 4423 
Q 3450 4097 3450 3541 
Q 3450 3153 3228 2886 
Q 3006 2619 2597 2516 
z
" transform="scale(0.015625)"/>
       </defs>
       <use xlink:href="#DejaVuSans-31" transform="translate(0 0.765625)"/>
       <use xlink:href="#DejaVuSans-30" transform="translate(63.623047 0.765625)"/>
       <use xlink:href="#DejaVuSans-2212" transform="translate(128.203125 39.046875)scale(0.7)"/>
       <use xlink:href="#DejaVuSans-33" transform="translate(186.855469 39.046875)scale(0.7)"/>
      </g>
     </g>
    </g>
    <g id="ytick_3">
     <g id="line2d_17">
      <defs>
       <path id="mab4d4f1500" d="M 0 0 
L -2 0 
" style="stroke: #000000; stroke-width: 0.6"/>
      </defs>
      <g>
       <use xlink:href="#mab4d4f1500" x="54" y="192.170481" style="stroke: #000000; stroke-width: 0.6"/>
      </g>
     </g>
    </g>
    <g id="ytick_4">
     <g id="line2d_18">
      <g>
       <use xlink:href="#mab4d4f1500" x="54" y="174.561368" style="stroke: #000000; stroke-width: 0.6"/>
      </g>
     </g>
    </g>
    <g id="ytick_5">
     <g id="line2d_19">
      <g>
       <use xlink:href="#mab4d4f1500" x="54" y="162.067504" style="stroke: #000000; stroke-width: 0.6"/>
      </g>
     </g>
    </g>
    <g id="ytick_6">
     <g id="line2d_20">
      <g>
       <use xlink:href="#mab4d4f1500" x="54" y="152.376509" style="stroke: #000000; stroke-width: 0.6"/>
      </g>
     </g>
    </g>
    <g id="ytick_7">
     <g id="line2d_21">
      <g>
       <use xlink:href="#mab4d4f1500" x="54" y="144.458391" style="stroke: #000000; stroke-width: 0.6"/>
      </g>
     </g>
    </g>
    <g id="ytick_8">
     <g id="line2d_22">
      <g>
       <use xlink:href="#mab4d4f1500" x="54" y="137.763717" style="stroke: #000000; stroke-width: 0.6"/>
      </g>
     </g>
    </g>
    <g id="ytick_9">
     <g id="line2d_23">
      <g>
       <use xlink:href="#mab4d4f1500" x="54" y="131.964526" style="stroke: #000000; stroke-width: 0.6"/>
      </g>
     </g>
    </g>
    <g id="ytick_10">
     <g id="line2d_24">
      <g>
       <use xlink:href="#mab4d4f1500" x="54" y="126.849278" style="stroke: #000000; stroke-width: 0.6"/>
      </g>
     </g>
    </g>
    <g id="ytick_11">
     <g id="line2d_25">
      <g>
       <use xlink:href="#mab4d4f1500" x="54" y="92.170555" style="stroke: #000000; stroke-width: 0.6"/>
      </g>
     </g>
    </g>
    <g id="ytick_12">
     <g id="line2d_26">
      <g>
       <use xlink:href="#mab4d4f1500" x="54" y="74.561442" style="stroke: #000000; stroke-width: 0.6"/>
      </g>
     </g>
    </g>
    <g id="ytick_13">
     <g id="line2d_27">
      <g>
       <use xlink:href="#mab4d4f1500" x="54" y="62.067578" style="stroke: #000000; stroke-width: 0.6"/>
      </g>
     </g>
    </g>
    <g id="ytick_14">
     <g id="line2d_28">
      <g>
       <use xlink:href="#mab4d4f1500" x="54" y="52.376584" style="stroke: #000000; stroke-width: 0.6"/>
      </g>
     </g>
    </g>
    <g id="ytick_15">
     <g id="line2d_29">
      <g>
       <use xlink:href="#mab4d4f1500" x="54" y="44.458465" style="stroke: #000000; stroke-width: 0.6"/>
      </g>
     </g>
    </g>
    <g id="ytick_16">
     <g id="line2d_30">
      <g>
       <use xlink:href="#mab4d4f1500" x="54" y="37.763791" style="stroke: #000000; stroke-width: 0.6"/>
      </g>
     </g>
    </g>
    <g id="ytick_17">
     <g id="line2d_31">
      <g>
       <use xlink:href="#mab4d4f1500" x="54" y="31.964601" style="stroke: #000000; stroke-width: 0.6"/>
      </g>
     </g>
    </g>
    <g id="text_10">
     <!-- MSE loss -->
     <g transform="translate(17.420312 149.154531)rotate(-90)scale(0.1 -0.1)">
      <defs>
       <path id="DejaVuSans-4d" d="M 628 4666 
L 1569 4666 
L 2759 1491 
L 3956 4666 
L 4897 4666 
L 4897 0 
L 4281 0 
L 4281 4097 
L 3078 897 
L 2444 897 
L 1241 4097 
L 1241 0 
L 628 0 
L 628 4666 
z
" transform="scale(0.015625)"/>
       <path id="DejaVuSans-53" d="M 3425 4513 
L 3425 3897 
Q 3066 4069 2747 4153 
Q 2428 4238 2131 4238 
Q 1616 4238 1336 4038 
Q 1056 3838 1056 3469 
Q 1056 3159 1242 3001 
Q 1428 2844 1947 2747 
L 2328 2669 
Q 3034 2534 3370 2195 
Q 3706 1856 3706 1288 
Q 3706 609 3251 259 
Q 2797 -91 1919 -91 
Q 1588 -91 1214 -16 
Q 841 59 441 206 
L 441 856 
Q 825 641 1194 531 
Q 1563 422 1919 422 
Q 2459 422 2753 634 
Q 3047 847 3047 1241 
Q 3047 1584 2836 1778 
Q 2625 1972 2144 2069 
L 1759 2144 
Q 1053 2284 737 2584 
Q 422 2884 422 3419 
Q 422 4038 858 4394 
Q 1294 4750 2059 4750 
Q 2388 4750 2728 4690 
Q 3069 4631 3425 4513 
z
" transform="scale(0.015625)"/>
       <path id="DejaVuSans-45" d="M 628 4666 
L 3578 4666 
L 3578 4134 
L 1259 4134 
L 1259 2753 
L 3481 2753 
L 3481 2222 
L 1259 2222 
L 1259 531 
L 3634 531 
L 3634 0 
L 628 0 
L 628 4666 
z
" transform="scale(0.015625)"/>
       <path id="DejaVuSans-20" transform="scale(0.015625)"/>
       <path id="DejaVuSans-6c" d="M 603 4863 
L 1178 4863 
L 1178 0 
L 603 0 
L 603 4863 
z
" transform="scale(0.015625)"/>
       <path id="DejaVuSans-73" d="M 2834 3397 
L 2834 2853 
Q 2591 2978 2328 3040 
Q 2066 3103 1784 3103 
Q 1356 3103 1142 2972 
Q 928 2841 928 2578 
Q 928 2378 1081 2264 
Q 1234 2150 1697 2047 
L 1894 2003 
Q 2506 1872 2764 1633 
Q 3022 1394 3022 966 
Q 3022 478 2636 193 
Q 2250 -91 1575 -91 
Q 1294 -91 989 -36 
Q 684 19 347 128 
L 347 722 
Q 666 556 975 473 
Q 1284 391 1588 391 
Q 1994 391 2212 530 
Q 2431 669 2431 922 
Q 2431 1156 2273 1281 
Q 2116 1406 1581 1522 
L 1381 1569 
Q 847 1681 609 1914 
Q 372 2147 372 2553 
Q 372 3047 722 3315 
Q 1072 3584 1716 3584 
Q 2034 3584 2315 3537 
Q 2597 3491 2834 3397 
z
" transform="scale(0.015625)"/>
      </defs>
      <use xlink:href="#DejaVuSans-4d"/>
      <use xlink:href="#DejaVuSans-53" x="86.279297"/>
      <use xlink:href="#DejaVuSans-45" x="149.755859"/>
      <use xlink:href="#DejaVuSans-20" x="212.939453"/>
      <use xlink:href="#DejaVuSans-6c" x="244.726562"/>
      <use xlink:href="#DejaVuSans-6f" x="272.509766"/>
      <use xlink:href="#DejaVuSans-73" x="333.691406"/>
      <use xlink:href="#DejaVuSans-73" x="385.791016"/>
     </g>
    </g>
   </g>
   <g id="patch_3">
    <path d="M 54 224.28 
L 54 30.24 
" style="fill: none; stroke: #000000; stroke-width: 0.8; stroke-linejoin: miter; stroke-linecap: square"/>
   </g>
   <g id="patch_4">
    <path d="M 388.8 224.28 
L 388.8 30.24 
" style="fill: none; stroke: #e6e6e6; stroke-width: 0.8; stroke-linejoin: miter; stroke-linecap: square"/>
   </g>
   <g id="patch_5">
    <path d="M 54 224.28 
L 388.8 224.28 
" style="fill: none; stroke: #000000; stroke-width: 0.8; stroke-linejoin: miter; stroke-linecap: square"/>
   </g>
   <g id="patch_6">
    <path d="M 54 30.24 
L 388.8 30.24 
" style="fill: none; stroke: #e6e6e6; stroke-width: 0.8; stroke-linejoin: miter; stroke-linecap: square"/>
   </g>
   <g id="line2d_32">
    <path d="M 69.218182 39.06 
L 72.292562 173.330432 
L 75.366942 185.161757 
L 78.441322 190.948351 
L 81.515702 193.756021 
L 84.590083 195.764402 
L 87.664463 197.902291 
L 90.738843 199.13778 
L 93.813223 200.30883 
L 96.887603 201.376803 
L 99.961983 200.855792 
L 103.036364 202.680683 
L 106.110744 203.620629 
L 109.185124 203.329448 
L 112.259504 204.016645 
L 115.333884 204.059506 
L 118.408264 205.023406 
L 121.482645 205.222245 
L 124.557025 205.706814 
L 127.631405 206.199067 
L 130.705785 205.681495 
L 133.780165 206.943809 
L 136.854545 206.317261 
L 139.928926 206.939164 
L 143.003306 207.351399 
L 146.077686 207.583916 
L 149.152066 208.18457 
L 152.226446 208.25021 
L 155.300826 208.865127 
L 158.375207 208.389197 
L 161.449587 208.884758 
L 164.523967 209.054331 
L 167.598347 209.874349 
L 170.672727 208.914989 
L 173.747107 210.390713 
L 176.821488 210.142108 
L 179.895868 210.012516 
L 182.970248 210.501642 
L 186.044628 210.20887 
L 189.119008 211.412022 
L 192.193388 210.360952 
L 195.267769 211.132251 
L 198.342149 211.494669 
L 201.416529 212.143905 
L 204.490909 211.627976 
L 207.565289 212.561483 
L 210.639669 212.430943 
L 213.71405 212.469339 
L 216.78843 212.50037 
L 219.86281 212.821853 
L 222.93719 212.560541 
L 226.01157 212.876129 
L 229.08595 213.05311 
L 232.160331 213.011782 
L 235.234711 213.493724 
L 238.309091 213.618087 
L 241.383471 213.404084 
L 244.457851 213.640044 
L 247.532231 213.989045 
L 250.606612 214.222926 
L 253.680992 214.2627 
L 256.755372 214.054098 
L 259.829752 214.220012 
L 262.904132 214.083459 
L 265.978512 214.250503 
L 269.052893 214.291971 
L 272.127273 214.773189 
L 275.201653 214.797007 
L 278.276033 214.14568 
L 281.350413 214.600682 
L 284.424793 214.739451 
L 287.499174 214.646177 
L 290.573554 214.679904 
L 293.647934 214.497187 
L 296.722314 214.823537 
L 299.796694 215.020615 
L 302.871074 215.091528 
L 305.945455 214.866801 
L 309.019835 215.011025 
L 312.094215 214.706181 
L 315.168595 214.707223 
L 318.242975 215.047334 
L 321.317355 215.153292 
L 324.391736 214.851808 
L 327.466116 214.899349 
L 330.540496 214.8655 
L 333.614876 214.596287 
L 336.689256 215.428844 
L 339.763636 215.393255 
L 342.838017 215.46 
L 345.912397 215.117936 
L 348.986777 215.168683 
L 352.061157 215.434412 
L 355.135537 215.311534 
L 358.209917 215.41449 
L 361.284298 215.144789 
L 364.358678 215.292092 
L 367.433058 215.341566 
L 370.507438 214.664429 
L 373.581818 215.312311 
" clip-path="url(#pecbeb93e55)" style="fill: none; stroke: #1f77b3; stroke-width: 1.5; stroke-linecap: square"/>
    <defs>
     <path id="m596b5ad333" d="M 0 1.5 
C 0.397805 1.5 0.77937 1.341951 1.06066 1.06066 
C 1.341951 0.77937 1.5 0.397805 1.5 0 
C 1.5 -0.397805 1.341951 -0.77937 1.06066 -1.06066 
C 0.77937 -1.341951 0.397805 -1.5 0 -1.5 
C -0.397805 -1.5 -0.77937 -1.341951 -1.06066 -1.06066 
C -1.341951 -0.77937 -1.5 -0.397805 -1.5 0 
C -1.5 0.397805 -1.341951 0.77937 -1.06066 1.06066 
C -0.77937 1.341951 -0.397805 1.5 0 1.5 
z
" style="stroke: #1f77b3"/>
    </defs>
    <g clip-path="url(#pecbeb93e55)">
     <use xlink:href="#m596b5ad333" x="69.218182" y="39.06" style="fill: #1f77b3; stroke: #1f77b3"/>
     <use xlink:href="#m596b5ad333" x="72.292562" y="173.330432" style="fill: #1f77b3; stroke: #1f77b3"/>
     <use xlink:href="#m596b5ad333" x="75.366942" y="185.161757" style="fill: #1f77b3; stroke: #1f77b3"/>
     <use xlink:href="#m596b5ad333" x="78.441322" y="190.948351" style="fill: #1f77b3; stroke: #1f77b3"/>
     <use xlink:href="#m596b5ad333" x="81.515702" y="193.756021" style="fill: #1f77b3; stroke: #1f77b3"/>
     <use xlink:href="#m596b5ad333" x="84.590083" y="195.764402" style="fill: #1f77b3; stroke: #1f77b3"/>
     <use xlink:href="#m596b5ad333" x="87.664463" y="197.902291" style="fill: #1f77b3; stroke: #1f77b3"/>
     <use xlink:href="#m596b5ad333" x="90.738843" y="199.13778" style="fill: #1f77b3; stroke: #1f77b3"/>
     <use xlink:href="#m596b5ad333" x="93.813223" y="200.30883" style="fill: #1f77b3; stroke: #1f77b3"/>
     <use xlink:href="#m596b5ad333" x="96.887603" y="201.376803" style="fill: #1f77b3; stroke: #1f77b3"/>
     <use xlink:href="#m596b5ad333" x="99.961983" y="200.855792" style="fill: #1f77b3; stroke: #1f77b3"/>
     <use xlink:href="#m596b5ad333" x="103.036364" y="202.680683" style="fill: #1f77b3; stroke: #1f77b3"/>
     <use xlink:href="#m596b5ad333" x="106.110744" y="203.620629" style="fill: #1f77b3; stroke: #1f77b3"/>
     <use xlink:href="#m596b5ad333" x="109.185124" y="203.329448" style="fill: #1f77b3; stroke: #1f77b3"/>
     <use xlink:href="#m596b5ad333" x="112.259504" y="204.016645" style="fill: #1f77b3; stroke: #1f77b3"/>
     <use xlink:href="#m596b5ad333" x="115.333884" y="204.059506" style="fill: #1f77b3; stroke: #1f77b3"/>
     <use xlink:href="#m596b5ad333" x="118.408264" y="205.023406" style="fill: #1f77b3; stroke: #1f77b3"/>
     <use xlink:href="#m596b5ad333" x="121.482645" y="205.222245" style="fill: #1f77b3; stroke: #1f77b3"/>
     <use xlink:href="#m596b5ad333" x="124.557025" y="205.706814" style="fill: #1f77b3; stroke: #1f77b3"/>
     <use xlink:href="#m596b5ad333" x="127.631405" y="206.199067" style="fill: #1f77b3; stroke: #1f77b3"/>
     <use xlink:href="#m596b5ad333" x="130.705785" y="205.681495" style="fill: #1f77b3; stroke: #1f77b3"/>
     <use xlink:href="#m596b5ad333" x="133.780165" y="206.943809" style="fill: #1f77b3; stroke: #1f77b3"/>
     <use xlink:href="#m596b5ad333" x="136.854545" y="206.317261" style="fill: #1f77b3; stroke: #1f77b3"/>
     <use xlink:href="#m596b5ad333" x="139.928926" y="206.939164" style="fill: #1f77b3; stroke: #1f77b3"/>
     <use xlink:href="#m596b5ad333" x="143.003306" y="207.351399" style="fill: #1f77b3; stroke: #1f77b3"/>
     <use xlink:href="#m596b5ad333" x="146.077686" y="207.583916" style="fill: #1f77b3; stroke: #1f77b3"/>
     <use xlink:href="#m596b5ad333" x="149.152066" y="208.18457" style="fill: #1f77b3; stroke: #1f77b3"/>
     <use xlink:href="#m596b5ad333" x="152.226446" y="208.25021" style="fill: #1f77b3; stroke: #1f77b3"/>
     <use xlink:href="#m596b5ad333" x="155.300826" y="208.865127" style="fill: #1f77b3; stroke: #1f77b3"/>
     <use xlink:href="#m596b5ad333" x="158.375207" y="208.389197" style="fill: #1f77b3; stroke: #1f77b3"/>
     <use xlink:href="#m596b5ad333" x="161.449587" y="208.884758" style="fill: #1f77b3; stroke: #1f77b3"/>
     <use xlink:href="#m596b5ad333" x="164.523967" y="209.054331" style="fill: #1f77b3; stroke: #1f77b3"/>
     <use xlink:href="#m596b5ad333" x="167.598347" y="209.874349" style="fill: #1f77b3; stroke: #1f77b3"/>
     <use xlink:href="#m596b5ad333" x="170.672727" y="208.914989" style="fill: #1f77b3; stroke: #1f77b3"/>
     <use xlink:href="#m596b5ad333" x="173.747107" y="210.390713" style="fill: #1f77b3; stroke: #1f77b3"/>
     <use xlink:href="#m596b5ad333" x="176.821488" y="210.142108" style="fill: #1f77b3; stroke: #1f77b3"/>
     <use xlink:href="#m596b5ad333" x="179.895868" y="210.012516" style="fill: #1f77b3; stroke: #1f77b3"/>
     <use xlink:href="#m596b5ad333" x="182.970248" y="210.501642" style="fill: #1f77b3; stroke: #1f77b3"/>
     <use xlink:href="#m596b5ad333" x="186.044628" y="210.20887" style="fill: #1f77b3; stroke: #1f77b3"/>
     <use xlink:href="#m596b5ad333" x="189.119008" y="211.412022" style="fill: #1f77b3; stroke: #1f77b3"/>
     <use xlink:href="#m596b5ad333" x="192.193388" y="210.360952" style="fill: #1f77b3; stroke: #1f77b3"/>
     <use xlink:href="#m596b5ad333" x="195.267769" y="211.132251" style="fill: #1f77b3; stroke: #1f77b3"/>
     <use xlink:href="#m596b5ad333" x="198.342149" y="211.494669" style="fill: #1f77b3; stroke: #1f77b3"/>
     <use xlink:href="#m596b5ad333" x="201.416529" y="212.143905" style="fill: #1f77b3; stroke: #1f77b3"/>
     <use xlink:href="#m596b5ad333" x="204.490909" y="211.627976" style="fill: #1f77b3; stroke: #1f77b3"/>
     <use xlink:href="#m596b5ad333" x="207.565289" y="212.561483" style="fill: #1f77b3; stroke: #1f77b3"/>
     <use xlink:href="#m596b5ad333" x="210.639669" y="212.430943" style="fill: #1f77b3; stroke: #1f77b3"/>
     <use xlink:href="#m596b5ad333" x="213.71405" y="212.469339" style="fill: #1f77b3; stroke: #1f77b3"/>
     <use xlink:href="#m596b5ad333" x="216.78843" y="212.50037" style="fill: #1f77b3; stroke: #1f77b3"/>
     <use xlink:href="#m596b5ad333" x="219.86281" y="212.821853" style="fill: #1f77b3; stroke: #1f77b3"/>
     <use xlink:href="#m596b5ad333" x="222.93719" y="212.560541" style="fill: #1f77b3; stroke: #1f77b3"/>
     <use xlink:href="#m596b5ad333" x="226.01157" y="212.876129" style="fill: #1f77b3; stroke: #1f77b3"/>
     <use xlink:href="#m596b5ad333" x="229.08595" y="213.05311" style="fill: #1f77b3; stroke: #1f77b3"/>
     <use xlink:href="#m596b5ad333" x="232.160331" y="213.011782" style="fill: #1f77b3; stroke: #1f77b3"/>
     <use xlink:href="#m596b5ad333" x="235.234711" y="213.493724" style="fill: #1f77b3; stroke: #1f77b3"/>
     <use xlink:href="#m596b5ad333" x="238.309091" y="213.618087" style="fill: #1f77b3; stroke: #1f77b3"/>
     <use xlink:href="#m596b5ad333" x="241.383471" y="213.404084" style="fill: #1f77b3; stroke: #1f77b3"/>
     <use xlink:href="#m596b5ad333" x="244.457851" y="213.640044" style="fill: #1f77b3; stroke: #1f77b3"/>
     <use xlink:href="#m596b5ad333" x="247.532231" y="213.989045" style="fill: #1f77b3; stroke: #1f77b3"/>
     <use xlink:href="#m596b5ad333" x="250.606612" y="214.222926" style="fill: #1f77b3; stroke: #1f77b3"/>
     <use xlink:href="#m596b5ad333" x="253.680992" y="214.2627" style="fill: #1f77b3; stroke: #1f77b3"/>
     <use xlink:href="#m596b5ad333" x="256.755372" y="214.054098" style="fill: #1f77b3; stroke: #1f77b3"/>
     <use xlink:href="#m596b5ad333" x="259.829752" y="214.220012" style="fill: #1f77b3; stroke: #1f77b3"/>
     <use xlink:href="#m596b5ad333" x="262.904132" y="214.083459" style="fill: #1f77b3; stroke: #1f77b3"/>
     <use xlink:href="#m596b5ad333" x="265.978512" y="214.250503" style="fill: #1f77b3; stroke: #1f77b3"/>
     <use xlink:href="#m596b5ad333" x="269.052893" y="214.291971" style="fill: #1f77b3; stroke: #1f77b3"/>
     <use xlink:href="#m596b5ad333" x="272.127273" y="214.773189" style="fill: #1f77b3; stroke: #1f77b3"/>
     <use xlink:href="#m596b5ad333" x="275.201653" y="214.797007" style="fill: #1f77b3; stroke: #1f77b3"/>
     <use xlink:href="#m596b5ad333" x="278.276033" y="214.14568" style="fill: #1f77b3; stroke: #1f77b3"/>
     <use xlink:href="#m596b5ad333" x="281.350413" y="214.600682" style="fill: #1f77b3; stroke: #1f77b3"/>
     <use xlink:href="#m596b5ad333" x="284.424793" y="214.739451" style="fill: #1f77b3; stroke: #1f77b3"/>
     <use xlink:href="#m596b5ad333" x="287.499174" y="214.646177" style="fill: #1f77b3; stroke: #1f77b3"/>
     <use xlink:href="#m596b5ad333" x="290.573554" y="214.679904" style="fill: #1f77b3; stroke: #1f77b3"/>
     <use xlink:href="#m596b5ad333" x="293.647934" y="214.497187" style="fill: #1f77b3; stroke: #1f77b3"/>
     <use xlink:href="#m596b5ad333" x="296.722314" y="214.823537" style="fill: #1f77b3; stroke: #1f77b3"/>
     <use xlink:href="#m596b5ad333" x="299.796694" y="215.020615" style="fill: #1f77b3; stroke: #1f77b3"/>
     <use xlink:href="#m596b5ad333" x="302.871074" y="215.091528" style="fill: #1f77b3; stroke: #1f77b3"/>
     <use xlink:href="#m596b5ad333" x="305.945455" y="214.866801" style="fill: #1f77b3; stroke: #1f77b3"/>
     <use xlink:href="#m596b5ad333" x="309.019835" y="215.011025" style="fill: #1f77b3; stroke: #1f77b3"/>
     <use xlink:href="#m596b5ad333" x="312.094215" y="214.706181" style="fill: #1f77b3; stroke: #1f77b3"/>
     <use xlink:href="#m596b5ad333" x="315.168595" y="214.707223" style="fill: #1f77b3; stroke: #1f77b3"/>
     <use xlink:href="#m596b5ad333" x="318.242975" y="215.047334" style="fill: #1f77b3; stroke: #1f77b3"/>
     <use xlink:href="#m596b5ad333" x="321.317355" y="215.153292" style="fill: #1f77b3; stroke: #1f77b3"/>
     <use xlink:href="#m596b5ad333" x="324.391736" y="214.851808" style="fill: #1f77b3; stroke: #1f77b3"/>
     <use xlink:href="#m596b5ad333" x="327.466116" y="214.899349" style="fill: #1f77b3; stroke: #1f77b3"/>
     <use xlink:href="#m596b5ad333" x="330.540496" y="214.8655" style="fill: #1f77b3; stroke: #1f77b3"/>
     <use xlink:href="#m596b5ad333" x="333.614876" y="214.596287" style="fill: #1f77b3; stroke: #1f77b3"/>
     <use xlink:href="#m596b5ad333" x="336.689256" y="215.428844" style="fill: #1f77b3; stroke: #1f77b3"/>
     <use xlink:href="#m596b5ad333" x="339.763636" y="215.393255" style="fill: #1f77b3; stroke: #1f77b3"/>
     <use xlink:href="#m596b5ad333" x="342.838017" y="215.46" style="fill: #1f77b3; stroke: #1f77b3"/>
     <use xlink:href="#m596b5ad333" x="345.912397" y="215.117936" style="fill: #1f77b3; stroke: #1f77b3"/>
     <use xlink:href="#m596b5ad333" x="348.986777" y="215.168683" style="fill: #1f77b3; stroke: #1f77b3"/>
     <use xlink:href="#m596b5ad333" x="352.061157" y="215.434412" style="fill: #1f77b3; stroke: #1f77b3"/>
     <use xlink:href="#m596b5ad333" x="355.135537" y="215.311534" style="fill: #1f77b3; stroke: #1f77b3"/>
     <use xlink:href="#m596b5ad333" x="358.209917" y="215.41449" style="fill: #1f77b3; stroke: #1f77b3"/>
     <use xlink:href="#m596b5ad333" x="361.284298" y="215.144789" style="fill: #1f77b3; stroke: #1f77b3"/>
     <use xlink:href="#m596b5ad333" x="364.358678" y="215.292092" style="fill: #1f77b3; stroke: #1f77b3"/>
     <use xlink:href="#m596b5ad333" x="367.433058" y="215.341566" style="fill: #1f77b3; stroke: #1f77b3"/>
     <use xlink:href="#m596b5ad333" x="370.507438" y="214.664429" style="fill: #1f77b3; stroke: #1f77b3"/>
     <use xlink:href="#m596b5ad333" x="373.581818" y="215.312311" style="fill: #1f77b3; stroke: #1f77b3"/>
    </g>
   </g>
   <g id="legend_1">
    <g id="patch_7">
     <path d="M 191.904687 52.918125 
L 381.8 52.918125 
Q 383.8 52.918125 383.8 50.918125 
L 383.8 37.24 
Q 383.8 35.24 381.8 35.24 
L 191.904687 35.24 
Q 189.904687 35.24 189.904687 37.24 
L 189.904687 50.918125 
Q 189.904687 52.918125 191.904687 52.918125 
z
" style="fill: #ffffff; opacity: 0.8; stroke: #e6e6e6; stroke-linejoin: miter"/>
    </g>
    <g id="line2d_33">
     <path d="M 193.904687 43.338437 
L 203.904687 43.338437 
L 213.904687 43.338437 
" style="fill: none; stroke: #1f77b3; stroke-width: 1.5; stroke-linecap: square"/>
     <g>
      <use xlink:href="#m596b5ad333" x="203.904687" y="43.338437" style="fill: #1f77b3; stroke: #1f77b3"/>
     </g>
    </g>
    <g id="text_11">
     <!-- fBm Hurst LSTM model n=3200 -->
     <g transform="translate(221.904687 46.838437)scale(0.1 -0.1)">
      <defs>
       <path id="DejaVuSans-66" d="M 2375 4863 
L 2375 4384 
L 1825 4384 
Q 1516 4384 1395 4259 
Q 1275 4134 1275 3809 
L 1275 3500 
L 2222 3500 
L 2222 3053 
L 1275 3053 
L 1275 0 
L 697 0 
L 697 3053 
L 147 3053 
L 147 3500 
L 697 3500 
L 697 3744 
Q 697 4328 969 4595 
Q 1241 4863 1831 4863 
L 2375 4863 
z
" transform="scale(0.015625)"/>
       <path id="DejaVuSans-42" d="M 1259 2228 
L 1259 519 
L 2272 519 
Q 2781 519 3026 730 
Q 3272 941 3272 1375 
Q 3272 1813 3026 2020 
Q 2781 2228 2272 2228 
L 1259 2228 
z
M 1259 4147 
L 1259 2741 
L 2194 2741 
Q 2656 2741 2882 2914 
Q 3109 3088 3109 3444 
Q 3109 3797 2882 3972 
Q 2656 4147 2194 4147 
L 1259 4147 
z
M 628 4666 
L 2241 4666 
Q 2963 4666 3353 4366 
Q 3744 4066 3744 3513 
Q 3744 3084 3544 2831 
Q 3344 2578 2956 2516 
Q 3422 2416 3680 2098 
Q 3938 1781 3938 1306 
Q 3938 681 3513 340 
Q 3088 0 2303 0 
L 628 0 
L 628 4666 
z
" transform="scale(0.015625)"/>
       <path id="DejaVuSans-6d" d="M 3328 2828 
Q 3544 3216 3844 3400 
Q 4144 3584 4550 3584 
Q 5097 3584 5394 3201 
Q 5691 2819 5691 2113 
L 5691 0 
L 5113 0 
L 5113 2094 
Q 5113 2597 4934 2840 
Q 4756 3084 4391 3084 
Q 3944 3084 3684 2787 
Q 3425 2491 3425 1978 
L 3425 0 
L 2847 0 
L 2847 2094 
Q 2847 2600 2669 2842 
Q 2491 3084 2119 3084 
Q 1678 3084 1418 2786 
Q 1159 2488 1159 1978 
L 1159 0 
L 581 0 
L 581 3500 
L 1159 3500 
L 1159 2956 
Q 1356 3278 1631 3431 
Q 1906 3584 2284 3584 
Q 2666 3584 2933 3390 
Q 3200 3197 3328 2828 
z
" transform="scale(0.015625)"/>
       <path id="DejaVuSans-48" d="M 628 4666 
L 1259 4666 
L 1259 2753 
L 3553 2753 
L 3553 4666 
L 4184 4666 
L 4184 0 
L 3553 0 
L 3553 2222 
L 1259 2222 
L 1259 0 
L 628 0 
L 628 4666 
z
" transform="scale(0.015625)"/>
       <path id="DejaVuSans-75" d="M 544 1381 
L 544 3500 
L 1119 3500 
L 1119 1403 
Q 1119 906 1312 657 
Q 1506 409 1894 409 
Q 2359 409 2629 706 
Q 2900 1003 2900 1516 
L 2900 3500 
L 3475 3500 
L 3475 0 
L 2900 0 
L 2900 538 
Q 2691 219 2414 64 
Q 2138 -91 1772 -91 
Q 1169 -91 856 284 
Q 544 659 544 1381 
z
M 1991 3584 
L 1991 3584 
z
" transform="scale(0.015625)"/>
       <path id="DejaVuSans-72" d="M 2631 2963 
Q 2534 3019 2420 3045 
Q 2306 3072 2169 3072 
Q 1681 3072 1420 2755 
Q 1159 2438 1159 1844 
L 1159 0 
L 581 0 
L 581 3500 
L 1159 3500 
L 1159 2956 
Q 1341 3275 1631 3429 
Q 1922 3584 2338 3584 
Q 2397 3584 2469 3576 
Q 2541 3569 2628 3553 
L 2631 2963 
z
" transform="scale(0.015625)"/>
       <path id="DejaVuSans-74" d="M 1172 4494 
L 1172 3500 
L 2356 3500 
L 2356 3053 
L 1172 3053 
L 1172 1153 
Q 1172 725 1289 603 
Q 1406 481 1766 481 
L 2356 481 
L 2356 0 
L 1766 0 
Q 1100 0 847 248 
Q 594 497 594 1153 
L 594 3053 
L 172 3053 
L 172 3500 
L 594 3500 
L 594 4494 
L 1172 4494 
z
" transform="scale(0.015625)"/>
       <path id="DejaVuSans-4c" d="M 628 4666 
L 1259 4666 
L 1259 531 
L 3531 531 
L 3531 0 
L 628 0 
L 628 4666 
z
" transform="scale(0.015625)"/>
       <path id="DejaVuSans-54" d="M -19 4666 
L 3928 4666 
L 3928 4134 
L 2272 4134 
L 2272 0 
L 1638 0 
L 1638 4134 
L -19 4134 
L -19 4666 
z
" transform="scale(0.015625)"/>
       <path id="DejaVuSans-64" d="M 2906 2969 
L 2906 4863 
L 3481 4863 
L 3481 0 
L 2906 0 
L 2906 525 
Q 2725 213 2448 61 
Q 2172 -91 1784 -91 
Q 1150 -91 751 415 
Q 353 922 353 1747 
Q 353 2572 751 3078 
Q 1150 3584 1784 3584 
Q 2172 3584 2448 3432 
Q 2725 3281 2906 2969 
z
M 947 1747 
Q 947 1113 1208 752 
Q 1469 391 1925 391 
Q 2381 391 2643 752 
Q 2906 1113 2906 1747 
Q 2906 2381 2643 2742 
Q 2381 3103 1925 3103 
Q 1469 3103 1208 2742 
Q 947 2381 947 1747 
z
" transform="scale(0.015625)"/>
       <path id="DejaVuSans-6e" d="M 3513 2113 
L 3513 0 
L 2938 0 
L 2938 2094 
Q 2938 2591 2744 2837 
Q 2550 3084 2163 3084 
Q 1697 3084 1428 2787 
Q 1159 2491 1159 1978 
L 1159 0 
L 581 0 
L 581 3500 
L 1159 3500 
L 1159 2956 
Q 1366 3272 1645 3428 
Q 1925 3584 2291 3584 
Q 2894 3584 3203 3211 
Q 3513 2838 3513 2113 
z
" transform="scale(0.015625)"/>
       <path id="DejaVuSans-3d" d="M 678 2906 
L 4684 2906 
L 4684 2381 
L 678 2381 
L 678 2906 
z
M 678 1631 
L 4684 1631 
L 4684 1100 
L 678 1100 
L 678 1631 
z
" transform="scale(0.015625)"/>
      </defs>
      <use xlink:href="#DejaVuSans-66"/>
      <use xlink:href="#DejaVuSans-42" x="35.205078"/>
      <use xlink:href="#DejaVuSans-6d" x="103.808594"/>
      <use xlink:href="#DejaVuSans-20" x="201.220703"/>
      <use xlink:href="#DejaVuSans-48" x="233.007812"/>
      <use xlink:href="#DejaVuSans-75" x="308.203125"/>
      <use xlink:href="#DejaVuSans-72" x="371.582031"/>
      <use xlink:href="#DejaVuSans-73" x="412.695312"/>
      <use xlink:href="#DejaVuSans-74" x="464.794922"/>
      <use xlink:href="#DejaVuSans-20" x="504.003906"/>
      <use xlink:href="#DejaVuSans-4c" x="535.791016"/>
      <use xlink:href="#DejaVuSans-53" x="591.503906"/>
      <use xlink:href="#DejaVuSans-54" x="654.980469"/>
      <use xlink:href="#DejaVuSans-4d" x="716.064453"/>
      <use xlink:href="#DejaVuSans-20" x="802.34375"/>
      <use xlink:href="#DejaVuSans-6d" x="834.130859"/>
      <use xlink:href="#DejaVuSans-6f" x="931.542969"/>
      <use xlink:href="#DejaVuSans-64" x="992.724609"/>
      <use xlink:href="#DejaVuSans-65" x="1056.201172"/>
      <use xlink:href="#DejaVuSans-6c" x="1117.724609"/>
      <use xlink:href="#DejaVuSans-20" x="1145.507812"/>
      <use xlink:href="#DejaVuSans-6e" x="1177.294922"/>
      <use xlink:href="#DejaVuSans-3d" x="1240.673828"/>
      <use xlink:href="#DejaVuSans-33" x="1324.462891"/>
      <use xlink:href="#DejaVuSans-32" x="1388.085938"/>
      <use xlink:href="#DejaVuSans-30" x="1451.708984"/>
      <use xlink:href="#DejaVuSans-30" x="1515.332031"/>
     </g>
    </g>
   </g>
  </g>
 </g>
 <defs>
  <clipPath id="pecbeb93e55">
   <rect x="54" y="30.24" width="334.8" height="194.04"/>
  </clipPath>
 </defs>
</svg>
