<?xml version="1.0" encoding="utf-8" standalone="no"?>
<!DOCTYPE svg PUBLIC "-//W3C//DTD SVG 1.1//EN"
  "http://www.w3.org/Graphics/SVG/1.1/DTD/svg11.dtd">
<svg xmlns:xlink="http://www.w3.org/1999/xlink" width="720pt" height="900pt" viewBox="0 0 720 900" xmlns="http://www.w3.org/2000/svg" version="1.1">
 <metadata>
  <rdf:RDF xmlns:dc="http://purl.org/dc/elements/1.1/" xmlns:cc="http://creativecommons.org/ns#" xmlns:rdf="http://www.w3.org/1999/02/22-rdf-syntax-ns#">
   <cc:Work>
    <dc:type rdf:resource="http://purl.org/dc/dcmitype/StillImage"/>
    <dc:date>2024-06-28T11:08:13.520493</dc:date>
    <dc:format>image/svg+xml</dc:format>
    <dc:creator>
     <cc:Agent>
      <dc:title>Matplotlib v3.5.1, https://matplotlib.org/</dc:title>
     </cc:Agent>
    </dc:creator>
   </cc:Work>
  </rdf:RDF>
 </metadata>
 <defs>
  <style type="text/css">*{stroke-linejoin: round; stroke-linecap: butt}</style>
 </defs>
 <g id="figure_1">
  <g id="patch_1">
   <path d="M 0 900 
L 720 900 
L 720 0 
L 0 0 
z
" style="fill: #ffffff"/>
  </g>
  <g id="axes_1">
   <g id="patch_2">
    <path d="M 64.29 146.58 
L 709.2 146.58 
L 709.2 31.2 
L 64.29 31.2 
L 64.29 146.58 
z
" style="fill: none; opacity: 0"/>
   </g>
   <g id="matplotlib.axis_1">
    <g id="xtick_1">
     <g id="line2d_1">
      <path d="M 91.304947 146.58 
L 91.304947 31.2 
" clip-path="url(#p9db5d4827d)" style="fill: none; stroke: #e6e6e6; stroke-width: 1.6; stroke-linecap: square"/>
     </g>
     <g id="line2d_2">
      <defs>
       <path id="m0fb1ddb6fb" d="M 0 0 
L 0 3.5 
" style="stroke: #000000; stroke-width: 1.6"/>
      </defs>
      <g>
       <use xlink:href="#m0fb1ddb6fb" x="91.304947" y="146.58" style="stroke: #000000; stroke-width: 1.6"/>
      </g>
     </g>
     <g id="text_1">
      <!-- 0 -->
      <g transform="translate(86.214947 173.4375)scale(0.16 -0.16)">
       <defs>
        <path id="DejaVuSans-30" d="M 2034 4250 
Q 1547 4250 1301 3770 
Q 1056 3291 1056 2328 
Q 1056 1369 1301 889 
Q 1547 409 2034 409 
Q 2525 409 2770 889 
Q 3016 1369 3016 2328 
Q 3016 3291 2770 3770 
Q 2525 4250 2034 4250 
z
M 2034 4750 
Q 2819 4750 3233 4129 
Q 3647 3509 3647 2328 
Q 3647 1150 3233 529 
Q 2819 -91 2034 -91 
Q 1250 -91 836 529 
Q 422 1150 422 2328 
Q 422 3509 836 4129 
Q 1250 4750 2034 4750 
z
" transform="scale(0.015625)"/>
       </defs>
       <use xlink:href="#DejaVuSans-30"/>
      </g>
     </g>
    </g>
    <g id="xtick_2">
     <g id="line2d_3">
      <path d="M 206.262166 146.58 
L 206.262166 31.2 
" clip-path="url(#p9db5d4827d)" style="fill: none; stroke: #e6e6e6; stroke-width: 1.6; stroke-linecap: square"/>
     </g>
     <g id="line2d_4">
      <g>
       <use xlink:href="#m0fb1ddb6fb" x="206.262166" y="146.58" style="stroke: #000000; stroke-width: 1.6"/>
      </g>
     </g>
     <g id="text_2">
      <!-- 50 -->
      <g transform="translate(196.082166 173.4375)scale(0.16 -0.16)">
       <defs>
        <path id="DejaVuSans-35" d="M 691 4666 
L 3169 4666 
L 3169 4134 
L 1269 4134 
L 1269 2991 
Q 1406 3038 1543 3061 
Q 1681 3084 1819 3084 
Q 2600 3084 3056 2656 
Q 3513 2228 3513 1497 
Q 3513 744 3044 326 
Q 2575 -91 1722 -91 
Q 1428 -91 1123 -41 
Q 819 9 494 109 
L 494 744 
Q 775 591 1075 516 
Q 1375 441 1709 441 
Q 2250 441 2565 725 
Q 2881 1009 2881 1497 
Q 2881 1984 2565 2268 
Q 2250 2553 1709 2553 
Q 1456 2553 1204 2497 
Q 953 2441 691 2322 
L 691 4666 
z
" transform="scale(0.015625)"/>
       </defs>
       <use xlink:href="#DejaVuSans-35"/>
       <use xlink:href="#DejaVuSans-30" x="63.623047"/>
      </g>
     </g>
    </g>
    <g id="xtick_3">
     <g id="line2d_5">
      <path d="M 321.219385 146.58 
L 321.219385 31.2 
" clip-path="url(#p9db5d4827d)" style="fill: none; stroke: #e6e6e6; stroke-width: 1.6; stroke-linecap: square"/>
     </g>
     <g id="line2d_6">
      <g>
       <use xlink:href="#m0fb1ddb6fb" x="321.219385" y="146.58" style="stroke: #000000; stroke-width: 1.6"/>
      </g>
     </g>
     <g id="text_3">
      <!-- 100 -->
      <g transform="translate(305.949385 173.4375)scale(0.16 -0.16)">
       <defs>
        <path id="DejaVuSans-31" d="M 794 531 
L 1825 531 
L 1825 4091 
L 703 3866 
L 703 4441 
L 1819 4666 
L 2450 4666 
L 2450 531 
L 3481 531 
L 3481 0 
L 794 0 
L 794 531 
z
" transform="scale(0.015625)"/>
       </defs>
       <use xlink:href="#DejaVuSans-31"/>
       <use xlink:href="#DejaVuSans-30" x="63.623047"/>
       <use xlink:href="#DejaVuSans-30" x="127.246094"/>
      </g>
     </g>
    </g>
    <g id="xtick_4">
     <g id="line2d_7">
      <path d="M 436.176604 146.58 
L 436.176604 31.2 
" clip-path="url(#p9db5d4827d)" style="fill: none; stroke: #e6e6e6; stroke-width: 1.6; stroke-linecap: square"/>
     </g>
     <g id="line2d_8">
      <g>
       <use xlink:href="#m0fb1ddb6fb" x="436.176604" y="146.58" style="stroke: #000000; stroke-width: 1.6"/>
      </g>
     </g>
     <g id="text_4">
      <!-- 150 -->
      <g transform="translate(420.906604 173.4375)scale(0.16 -0.16)">
       <use xlink:href="#DejaVuSans-31"/>
       <use xlink:href="#DejaVuSans-35" x="63.623047"/>
       <use xlink:href="#DejaVuSans-30" x="127.246094"/>
      </g>
     </g>
    </g>
    <g id="xtick_5">
     <g id="line2d_9">
      <path d="M 551.133824 146.58 
L 551.133824 31.2 
" clip-path="url(#p9db5d4827d)" style="fill: none; stroke: #e6e6e6; stroke-width: 1.6; stroke-linecap: square"/>
     </g>
     <g id="line2d_10">
      <g>
       <use xlink:href="#m0fb1ddb6fb" x="551.133824" y="146.58" style="stroke: #000000; stroke-width: 1.6"/>
      </g>
     </g>
     <g id="text_5">
      <!-- 200 -->
      <g transform="translate(535.863824 173.4375)scale(0.16 -0.16)">
       <defs>
        <path id="DejaVuSans-32" d="M 1228 531 
L 3431 531 
L 3431 0 
L 469 0 
L 469 531 
Q 828 903 1448 1529 
Q 2069 2156 2228 2338 
Q 2531 2678 2651 2914 
Q 2772 3150 2772 3378 
Q 2772 3750 2511 3984 
Q 2250 4219 1831 4219 
Q 1534 4219 1204 4116 
Q 875 4013 500 3803 
L 500 4441 
Q 881 4594 1212 4672 
Q 1544 4750 1819 4750 
Q 2544 4750 2975 4387 
Q 3406 4025 3406 3419 
Q 3406 3131 3298 2873 
Q 3191 2616 2906 2266 
Q 2828 2175 2409 1742 
Q 1991 1309 1228 531 
z
" transform="scale(0.015625)"/>
       </defs>
       <use xlink:href="#DejaVuSans-32"/>
       <use xlink:href="#DejaVuSans-30" x="63.623047"/>
       <use xlink:href="#DejaVuSans-30" x="127.246094"/>
      </g>
     </g>
    </g>
    <g id="xtick_6">
     <g id="line2d_11">
      <path d="M 666.091043 146.58 
L 666.091043 31.2 
" clip-path="url(#p9db5d4827d)" style="fill: none; stroke: #e6e6e6; stroke-width: 1.6; stroke-linecap: square"/>
     </g>
     <g id="line2d_12">
      <g>
       <use xlink:href="#m0fb1ddb6fb" x="666.091043" y="146.58" style="stroke: #000000; stroke-width: 1.6"/>
      </g>
     </g>
     <g id="text_6">
      <!-- 250 -->
      <g transform="translate(650.821043 173.4375)scale(0.16 -0.16)">
       <use xlink:href="#DejaVuSans-32"/>
       <use xlink:href="#DejaVuSans-35" x="63.623047"/>
       <use xlink:href="#DejaVuSans-30" x="127.246094"/>
      </g>
     </g>
    </g>
   </g>
   <g id="matplotlib.axis_2">
    <g id="ytick_1">
     <g id="line2d_13">
      <path d="M 64.29 93.834258 
L 709.2 93.834258 
" clip-path="url(#p9db5d4827d)" style="fill: none; stroke: #e6e6e6; stroke-width: 1.6; stroke-linecap: square"/>
     </g>
     <g id="line2d_14">
      <defs>
       <path id="ma63486ef1d" d="M 0 0 
L -3.5 0 
" style="stroke: #000000; stroke-width: 1.6"/>
      </defs>
      <g>
       <use xlink:href="#ma63486ef1d" x="64.29" y="93.834258" style="stroke: #000000; stroke-width: 1.6"/>
      </g>
     </g>
     <g id="text_7">
      <!-- 0 -->
      <g transform="translate(39.41 99.913008)scale(0.16 -0.16)">
       <use xlink:href="#DejaVuSans-30"/>
      </g>
     </g>
    </g>
    <g id="ytick_2">
     <g id="line2d_15">
      <path d="M 64.29 37.33579 
L 709.2 37.33579 
" clip-path="url(#p9db5d4827d)" style="fill: none; stroke: #e6e6e6; stroke-width: 1.6; stroke-linecap: square"/>
     </g>
     <g id="line2d_16">
      <g>
       <use xlink:href="#ma63486ef1d" x="64.29" y="37.33579" style="stroke: #000000; stroke-width: 1.6"/>
      </g>
     </g>
     <g id="text_8">
      <!-- 2 -->
      <g transform="translate(39.41 43.41454)scale(0.16 -0.16)">
       <use xlink:href="#DejaVuSans-32"/>
      </g>
     </g>
    </g>
   </g>
   <g id="patch_3">
    <path d="M 64.29 146.58 
L 64.29 31.2 
" style="fill: none; stroke: #000000; stroke-width: 0.8; stroke-linejoin: miter; stroke-linecap: square"/>
   </g>
   <g id="patch_4">
    <path d="M 709.2 146.58 
L 709.2 31.2 
" style="fill: none; stroke: #e6e6e6; stroke-width: 0.8; stroke-linejoin: miter; stroke-linecap: square"/>
   </g>
   <g id="patch_5">
    <path d="M 64.29 146.58 
L 709.2 146.58 
" style="fill: none; stroke: #000000; stroke-width: 0.8; stroke-linejoin: miter; stroke-linecap: square"/>
   </g>
   <g id="patch_6">
    <path d="M 64.29 31.2 
L 709.2 31.2 
" style="fill: none; stroke: #e6e6e6; stroke-width: 0.8; stroke-linejoin: miter; stroke-linecap: square"/>
   </g>
   <g id="text_9">
    <!-- H = 0.01 -->
    <g transform="translate(344.004 25.2)scale(0.192 -0.192)">
     <defs>
      <path id="DejaVuSans-48" d="M 628 4666 
L 1259 4666 
L 1259 2753 
L 3553 2753 
L 3553 4666 
L 4184 4666 
L 4184 0 
L 3553 0 
L 3553 2222 
L 1259 2222 
L 1259 0 
L 628 0 
L 628 4666 
z
" transform="scale(0.015625)"/>
      <path id="DejaVuSans-20" transform="scale(0.015625)"/>
      <path id="DejaVuSans-3d" d="M 678 2906 
L 4684 2906 
L 4684 2381 
L 678 2381 
L 678 2906 
z
M 678 1631 
L 4684 1631 
L 4684 1100 
L 678 1100 
L 678 1631 
z
" transform="scale(0.015625)"/>
      <path id="DejaVuSans-2e" d="M 684 794 
L 1344 794 
L 1344 0 
L 684 0 
L 684 794 
z
" transform="scale(0.015625)"/>
     </defs>
     <use xlink:href="#DejaVuSans-48"/>
     <use xlink:href="#DejaVuSans-20" x="75.195312"/>
     <use xlink:href="#DejaVuSans-3d" x="106.982422"/>
     <use xlink:href="#DejaVuSans-20" x="190.771484"/>
     <use xlink:href="#DejaVuSans-30" x="222.558594"/>
     <use xlink:href="#DejaVuSans-2e" x="286.181641"/>
     <use xlink:href="#DejaVuSans-30" x="317.96875"/>
     <use xlink:href="#DejaVuSans-31" x="381.591797"/>
    </g>
   </g>
   <g id="line2d_17">
    <path d="M 93.604091 93.834258 
L 95.903235 85.445666 
L 98.20238 122.793128 
L 100.501524 88.774385 
L 102.800668 80.924988 
L 105.099813 96.726763 
L 107.398957 60.64319 
L 109.698102 80.108212 
L 111.997246 81.304327 
L 114.29639 92.159138 
L 116.595535 102.327774 
L 118.894679 68.943819 
L 121.193824 81.132486 
L 123.492968 84.848492 
L 125.792112 89.978254 
L 128.091257 110.166777 
L 130.390401 96.174249 
L 132.689545 106.111862 
L 134.98869 105.389926 
L 137.287834 69.194923 
L 139.586979 82.776898 
L 141.886123 106.550651 
L 144.185267 76.521899 
L 146.484412 63.581253 
L 148.783556 107.879121 
L 151.082701 57.336398 
L 153.381845 57.233479 
L 155.680989 93.191489 
L 157.980134 81.891297 
L 160.279278 76.884174 
L 162.578422 73.934607 
L 164.877567 79.512919 
L 167.176711 95.526135 
L 169.475856 98.551682 
L 171.775 104.790508 
L 174.074144 66.722933 
L 176.373289 94.413928 
L 178.672433 69.821849 
L 180.971578 96.305654 
L 183.270722 72.299136 
L 185.569866 108.040015 
L 187.869011 73.843647 
L 190.168155 92.793267 
L 192.467299 66.280466 
L 194.766444 79.723283 
L 197.065588 65.046989 
L 199.364733 65.156371 
L 201.663877 60.019828 
L 203.963021 56.584114 
L 206.262166 78.410162 
L 208.56131 88.496963 
L 210.860455 55.385437 
L 213.159599 96.533981 
L 215.458743 115.069406 
L 217.757888 74.983018 
L 220.057032 66.254325 
L 222.356176 101.652834 
L 224.655321 84.56581 
L 226.954465 62.809028 
L 229.25361 62.145372 
L 231.552754 90.335912 
L 233.851898 78.569857 
L 236.151043 93.007922 
L 238.450187 83.654434 
L 240.749332 61.007455 
L 243.048476 104.204891 
L 245.34762 76.538123 
L 247.646765 99.418589 
L 249.945909 88.002413 
L 252.245053 73.71344 
L 254.544198 101.157292 
L 256.843342 41.805698 
L 259.142487 75.147443 
L 261.441631 61.932029 
L 263.740775 53.719264 
L 266.03992 116.808586 
L 268.339064 69.946816 
L 270.638209 65.581649 
L 272.937353 116.251215 
L 275.236497 116.582897 
L 277.535642 81.483715 
L 279.834786 49.168923 
L 282.13393 81.587767 
L 284.433075 84.880849 
L 286.732219 100.906404 
L 289.031364 96.058609 
L 291.330508 95.212865 
L 293.629652 52.84834 
L 295.928797 43.547237 
L 298.227941 51.903398 
L 300.527086 112.178084 
L 302.82623 88.511963 
L 305.125374 126.315167 
L 307.424519 102.338868 
L 309.723663 57.35424 
L 312.022807 82.13597 
L 314.321952 103.483017 
L 316.621096 104.919484 
L 318.920241 97.75646 
L 321.219385 87.811125 
L 323.518529 126.852946 
L 325.817674 86.79614 
L 328.116818 91.538175 
L 330.415963 88.119875 
L 332.715107 72.427442 
L 335.014251 90.433661 
L 337.313396 91.620031 
L 339.61254 140.527573 
L 341.911684 79.592739 
L 344.210829 79.937675 
L 346.509973 118.842801 
L 348.809118 77.431317 
L 351.108262 97.365547 
L 353.407406 56.309442 
L 355.706551 102.032904 
L 358.005695 85.585968 
L 360.30484 68.075631 
L 362.603984 75.670694 
L 364.903128 76.685002 
L 367.202273 71.917689 
L 369.501417 87.312935 
L 371.800561 86.732986 
L 374.099706 90.663344 
L 376.39885 103.96835 
L 378.697995 105.641429 
L 380.997139 66.131392 
L 383.296283 95.161685 
L 385.595428 70.050403 
L 387.894572 82.443556 
L 390.193717 89.849317 
L 392.492861 79.726822 
L 394.792005 78.424765 
L 397.09115 61.773931 
L 399.390294 96.176391 
L 401.689439 100.128761 
L 403.988583 95.965211 
L 406.287727 134.609213 
L 408.586872 94.600065 
L 410.886016 98.318504 
L 413.18516 86.095173 
L 415.484305 94.950535 
L 417.783449 117.58338 
L 422.381738 81.430158 
L 424.680882 84.844813 
L 426.980027 100.48721 
L 429.279171 115.228802 
L 431.578316 113.785378 
L 433.87746 69.522702 
L 436.176604 105.839996 
L 438.475749 81.281147 
L 440.774893 74.450922 
L 443.074037 75.056427 
L 445.373182 78.866824 
L 447.672326 76.412771 
L 449.971471 89.033202 
L 452.270615 94.679335 
L 454.569759 101.453924 
L 456.868904 101.691805 
L 459.168048 109.536152 
L 461.467193 102.150514 
L 463.766337 89.123474 
L 466.065481 50.241533 
L 468.364626 80.608567 
L 470.66377 99.545885 
L 472.962914 41.263848 
L 475.262059 110.972385 
L 477.561203 114.511535 
L 479.860348 79.675207 
L 482.159492 84.717758 
L 484.458636 106.333996 
L 486.757781 86.149263 
L 489.056925 86.632088 
L 491.35607 87.588315 
L 493.655214 88.202087 
L 495.954358 57.680677 
L 498.253503 82.701262 
L 500.552647 80.4782 
L 502.851791 95.466471 
L 505.150936 51.219805 
L 507.45008 78.248934 
L 509.749225 60.409139 
L 512.048369 71.825586 
L 514.347513 99.788854 
L 516.646658 72.174309 
L 518.945802 77.050891 
L 521.244947 72.39349 
L 523.544091 76.847338 
L 525.843235 73.782503 
L 528.14238 83.553485 
L 530.441524 78.907227 
L 532.740668 80.602266 
L 535.039813 91.212341 
L 537.338957 141.335455 
L 539.638102 51.406269 
L 541.937246 90.436941 
L 544.23639 97.938971 
L 546.535535 96.267513 
L 548.834679 90.581254 
L 551.133824 56.416285 
L 553.432968 101.668556 
L 555.732112 46.96301 
L 558.031257 65.103103 
L 560.330401 86.131803 
L 562.629545 58.807533 
L 564.92869 86.748904 
L 567.227834 83.211548 
L 569.526979 73.809165 
L 571.826123 100.851116 
L 574.125267 92.776706 
L 576.424412 68.605401 
L 578.723556 89.907501 
L 581.022701 64.767703 
L 583.321845 94.176327 
L 585.620989 72.456537 
L 587.920134 64.798102 
L 590.219278 116.000314 
L 592.518422 91.772919 
L 594.817567 51.635357 
L 597.116711 83.969546 
L 599.415856 85.327208 
L 601.715 82.578211 
L 604.014144 120.833657 
L 606.313289 37.81363 
L 608.612433 63.158135 
L 610.911578 36.444545 
L 613.210722 101.85549 
L 615.509866 91.394479 
L 617.809011 89.523596 
L 620.108155 55.235975 
L 622.407299 88.990769 
L 624.706444 79.218525 
L 627.005588 85.613217 
L 629.304733 76.52881 
L 631.603877 66.784645 
L 633.903021 110.555022 
L 636.202166 63.181829 
L 638.50131 72.381701 
L 640.800455 64.20638 
L 645.398743 117.914348 
L 647.697888 80.704669 
L 649.997032 53.867428 
L 652.296176 94.350834 
L 654.595321 79.69591 
L 656.894465 95.043183 
L 659.19361 47.858225 
L 661.492754 77.381195 
L 663.791898 51.091143 
L 666.091043 81.246722 
L 668.390187 54.091154 
L 670.689332 77.13319 
L 672.988476 89.400202 
L 675.28762 70.41941 
L 677.586765 87.762181 
L 679.885909 59.54548 
L 679.885909 59.54548 
" clip-path="url(#p9db5d4827d)" style="fill: none; stroke: #1f77b3; stroke-width: 2.8; stroke-linecap: square"/>
   </g>
  </g>
  <g id="axes_2">
   <g id="patch_7">
    <path d="M 64.29 324.42 
L 709.2 324.42 
L 709.2 209.04 
L 64.29 209.04 
L 64.29 324.42 
z
" style="fill: none; opacity: 0"/>
   </g>
   <g id="matplotlib.axis_3">
    <g id="xtick_7">
     <g id="line2d_18">
      <path d="M 91.304947 324.42 
L 91.304947 209.04 
" clip-path="url(#pe5b44eb7f0)" style="fill: none; stroke: #e6e6e6; stroke-width: 1.6; stroke-linecap: square"/>
     </g>
     <g id="line2d_19">
      <g>
       <use xlink:href="#m0fb1ddb6fb" x="91.304947" y="324.42" style="stroke: #000000; stroke-width: 1.6"/>
      </g>
     </g>
     <g id="text_10">
      <!-- 0 -->
      <g transform="translate(86.214947 351.2775)scale(0.16 -0.16)">
       <use xlink:href="#DejaVuSans-30"/>
      </g>
     </g>
    </g>
    <g id="xtick_8">
     <g id="line2d_20">
      <path d="M 206.262166 324.42 
L 206.262166 209.04 
" clip-path="url(#pe5b44eb7f0)" style="fill: none; stroke: #e6e6e6; stroke-width: 1.6; stroke-linecap: square"/>
     </g>
     <g id="line2d_21">
      <g>
       <use xlink:href="#m0fb1ddb6fb" x="206.262166" y="324.42" style="stroke: #000000; stroke-width: 1.6"/>
      </g>
     </g>
     <g id="text_11">
      <!-- 50 -->
      <g transform="translate(196.082166 351.2775)scale(0.16 -0.16)">
       <use xlink:href="#DejaVuSans-35"/>
       <use xlink:href="#DejaVuSans-30" x="63.623047"/>
      </g>
     </g>
    </g>
    <g id="xtick_9">
     <g id="line2d_22">
      <path d="M 321.219385 324.42 
L 321.219385 209.04 
" clip-path="url(#pe5b44eb7f0)" style="fill: none; stroke: #e6e6e6; stroke-width: 1.6; stroke-linecap: square"/>
     </g>
     <g id="line2d_23">
      <g>
       <use xlink:href="#m0fb1ddb6fb" x="321.219385" y="324.42" style="stroke: #000000; stroke-width: 1.6"/>
      </g>
     </g>
     <g id="text_12">
      <!-- 100 -->
      <g transform="translate(305.949385 351.2775)scale(0.16 -0.16)">
       <use xlink:href="#DejaVuSans-31"/>
       <use xlink:href="#DejaVuSans-30" x="63.623047"/>
       <use xlink:href="#DejaVuSans-30" x="127.246094"/>
      </g>
     </g>
    </g>
    <g id="xtick_10">
     <g id="line2d_24">
      <path d="M 436.176604 324.42 
L 436.176604 209.04 
" clip-path="url(#pe5b44eb7f0)" style="fill: none; stroke: #e6e6e6; stroke-width: 1.6; stroke-linecap: square"/>
     </g>
     <g id="line2d_25">
      <g>
       <use xlink:href="#m0fb1ddb6fb" x="436.176604" y="324.42" style="stroke: #000000; stroke-width: 1.6"/>
      </g>
     </g>
     <g id="text_13">
      <!-- 150 -->
      <g transform="translate(420.906604 351.2775)scale(0.16 -0.16)">
       <use xlink:href="#DejaVuSans-31"/>
       <use xlink:href="#DejaVuSans-35" x="63.623047"/>
       <use xlink:href="#DejaVuSans-30" x="127.246094"/>
      </g>
     </g>
    </g>
    <g id="xtick_11">
     <g id="line2d_26">
      <path d="M 551.133824 324.42 
L 551.133824 209.04 
" clip-path="url(#pe5b44eb7f0)" style="fill: none; stroke: #e6e6e6; stroke-width: 1.6; stroke-linecap: square"/>
     </g>
     <g id="line2d_27">
      <g>
       <use xlink:href="#m0fb1ddb6fb" x="551.133824" y="324.42" style="stroke: #000000; stroke-width: 1.6"/>
      </g>
     </g>
     <g id="text_14">
      <!-- 200 -->
      <g transform="translate(535.863824 351.2775)scale(0.16 -0.16)">
       <use xlink:href="#DejaVuSans-32"/>
       <use xlink:href="#DejaVuSans-30" x="63.623047"/>
       <use xlink:href="#DejaVuSans-30" x="127.246094"/>
      </g>
     </g>
    </g>
    <g id="xtick_12">
     <g id="line2d_28">
      <path d="M 666.091043 324.42 
L 666.091043 209.04 
" clip-path="url(#pe5b44eb7f0)" style="fill: none; stroke: #e6e6e6; stroke-width: 1.6; stroke-linecap: square"/>
     </g>
     <g id="line2d_29">
      <g>
       <use xlink:href="#m0fb1ddb6fb" x="666.091043" y="324.42" style="stroke: #000000; stroke-width: 1.6"/>
      </g>
     </g>
     <g id="text_15">
      <!-- 250 -->
      <g transform="translate(650.821043 351.2775)scale(0.16 -0.16)">
       <use xlink:href="#DejaVuSans-32"/>
       <use xlink:href="#DejaVuSans-35" x="63.623047"/>
       <use xlink:href="#DejaVuSans-30" x="127.246094"/>
      </g>
     </g>
    </g>
   </g>
   <g id="matplotlib.axis_4">
    <g id="ytick_3">
     <g id="line2d_30">
      <path d="M 64.29 313.337128 
L 709.2 313.337128 
" clip-path="url(#pe5b44eb7f0)" style="fill: none; stroke: #e6e6e6; stroke-width: 1.6; stroke-linecap: square"/>
     </g>
     <g id="line2d_31">
      <g>
       <use xlink:href="#ma63486ef1d" x="64.29" y="313.337128" style="stroke: #000000; stroke-width: 1.6"/>
      </g>
     </g>
     <g id="text_16">
      <!-- −2.5 -->
      <g transform="translate(10.7375 319.415878)scale(0.16 -0.16)">
       <defs>
        <path id="DejaVuSans-2212" d="M 678 2272 
L 4684 2272 
L 4684 1741 
L 678 1741 
L 678 2272 
z
" transform="scale(0.015625)"/>
       </defs>
       <use xlink:href="#DejaVuSans-2212"/>
       <use xlink:href="#DejaVuSans-32" x="83.789062"/>
       <use xlink:href="#DejaVuSans-2e" x="147.412109"/>
       <use xlink:href="#DejaVuSans-35" x="179.199219"/>
      </g>
     </g>
    </g>
    <g id="ytick_4">
     <g id="line2d_32">
      <path d="M 64.29 273.727971 
L 709.2 273.727971 
" clip-path="url(#pe5b44eb7f0)" style="fill: none; stroke: #e6e6e6; stroke-width: 1.6; stroke-linecap: square"/>
     </g>
     <g id="line2d_33">
      <g>
       <use xlink:href="#ma63486ef1d" x="64.29" y="273.727971" style="stroke: #000000; stroke-width: 1.6"/>
      </g>
     </g>
     <g id="text_17">
      <!-- 0.0 -->
      <g transform="translate(24.145 279.806721)scale(0.16 -0.16)">
       <use xlink:href="#DejaVuSans-30"/>
       <use xlink:href="#DejaVuSans-2e" x="63.623047"/>
       <use xlink:href="#DejaVuSans-30" x="95.410156"/>
      </g>
     </g>
    </g>
    <g id="ytick_5">
     <g id="line2d_34">
      <path d="M 64.29 234.118814 
L 709.2 234.118814 
" clip-path="url(#pe5b44eb7f0)" style="fill: none; stroke: #e6e6e6; stroke-width: 1.6; stroke-linecap: square"/>
     </g>
     <g id="line2d_35">
      <g>
       <use xlink:href="#ma63486ef1d" x="64.29" y="234.118814" style="stroke: #000000; stroke-width: 1.6"/>
      </g>
     </g>
     <g id="text_18">
      <!-- 2.5 -->
      <g transform="translate(24.145 240.197564)scale(0.16 -0.16)">
       <use xlink:href="#DejaVuSans-32"/>
       <use xlink:href="#DejaVuSans-2e" x="63.623047"/>
       <use xlink:href="#DejaVuSans-35" x="95.410156"/>
      </g>
     </g>
    </g>
   </g>
   <g id="patch_8">
    <path d="M 64.29 324.42 
L 64.29 209.04 
" style="fill: none; stroke: #000000; stroke-width: 0.8; stroke-linejoin: miter; stroke-linecap: square"/>
   </g>
   <g id="patch_9">
    <path d="M 709.2 324.42 
L 709.2 209.04 
" style="fill: none; stroke: #e6e6e6; stroke-width: 0.8; stroke-linejoin: miter; stroke-linecap: square"/>
   </g>
   <g id="patch_10">
    <path d="M 64.29 324.42 
L 709.2 324.42 
" style="fill: none; stroke: #000000; stroke-width: 0.8; stroke-linejoin: miter; stroke-linecap: square"/>
   </g>
   <g id="patch_11">
    <path d="M 64.29 209.04 
L 709.2 209.04 
" style="fill: none; stroke: #e6e6e6; stroke-width: 0.8; stroke-linejoin: miter; stroke-linecap: square"/>
   </g>
   <g id="text_19">
    <!-- H = 0.25 -->
    <g transform="translate(344.004 203.04)scale(0.192 -0.192)">
     <use xlink:href="#DejaVuSans-48"/>
     <use xlink:href="#DejaVuSans-20" x="75.195312"/>
     <use xlink:href="#DejaVuSans-3d" x="106.982422"/>
     <use xlink:href="#DejaVuSans-20" x="190.771484"/>
     <use xlink:href="#DejaVuSans-30" x="222.558594"/>
     <use xlink:href="#DejaVuSans-2e" x="286.181641"/>
     <use xlink:href="#DejaVuSans-32" x="317.96875"/>
     <use xlink:href="#DejaVuSans-35" x="381.591797"/>
    </g>
   </g>
   <g id="line2d_36">
    <path d="M 93.604091 273.727971 
L 95.903235 289.580326 
L 98.20238 283.920636 
L 100.501524 274.839747 
L 102.800668 280.143628 
L 105.099813 297.664582 
L 107.398957 300.631218 
L 109.698102 290.926351 
L 111.997246 289.766833 
L 114.29639 290.592814 
L 116.595535 294.904068 
L 118.894679 296.294823 
L 121.193824 294.39835 
L 123.492968 312.715285 
L 125.792112 313.233816 
L 128.091257 301.678249 
L 130.390401 265.752511 
L 132.689545 260.900825 
L 134.98869 267.067483 
L 137.287834 253.349243 
L 139.586979 235.064298 
L 141.886123 242.244078 
L 144.185267 251.33105 
L 146.484412 259.841152 
L 148.783556 280.591027 
L 151.082701 255.90599 
L 153.381845 268.753401 
L 155.680989 256.749791 
L 157.980134 270.343406 
L 160.279278 274.013833 
L 162.578422 256.718386 
L 164.877567 266.26785 
L 167.176711 276.530773 
L 169.475856 248.119093 
L 171.775 282.723295 
L 174.074144 279.738196 
L 176.373289 274.747935 
L 178.672433 282.778035 
L 180.971578 272.675395 
L 183.270722 257.04481 
L 185.569866 278.040551 
L 187.869011 268.426803 
L 190.168155 269.367177 
L 192.467299 264.099029 
L 194.766444 264.720139 
L 197.065588 248.323936 
L 199.364733 246.539864 
L 201.663877 267.62898 
L 203.963021 255.596176 
L 206.262166 235.817737 
L 208.56131 269.70821 
L 210.860455 246.391551 
L 213.159599 248.274395 
L 215.458743 259.632765 
L 217.757888 255.570279 
L 220.057032 267.258421 
L 222.356176 273.602383 
L 224.655321 278.337024 
L 226.954465 251.764877 
L 229.25361 249.494348 
L 231.552754 264.39504 
L 233.851898 270.388052 
L 236.151043 280.757573 
L 238.450187 297.456156 
L 240.749332 279.0174 
L 243.048476 255.898195 
L 245.34762 271.869446 
L 247.646765 285.899731 
L 249.945909 275.540474 
L 252.245053 272.737642 
L 254.544198 271.970835 
L 256.843342 286.73788 
L 259.142487 274.797761 
L 261.441631 266.265057 
L 263.740775 270.184113 
L 266.03992 270.572414 
L 268.339064 270.232446 
L 270.638209 254.169942 
L 272.937353 259.476121 
L 275.236497 267.231606 
L 277.535642 260.361849 
L 279.834786 255.415965 
L 282.13393 267.196908 
L 284.433075 232.42314 
L 286.732219 286.212296 
L 289.031364 294.343118 
L 291.330508 279.562065 
L 293.629652 296.75656 
L 295.928797 315.372845 
L 298.227941 308.370023 
L 300.527086 288.683748 
L 302.82623 314.730649 
L 305.125374 319.175455 
L 307.424519 275.609959 
L 309.723663 276.869763 
L 312.022807 301.548113 
L 314.321952 287.621065 
L 316.621096 295.310632 
L 318.920241 272.381318 
L 321.219385 299.333059 
L 323.518529 308.354271 
L 325.817674 294.181296 
L 328.116818 272.673528 
L 330.415963 272.265295 
L 332.715107 260.502696 
L 335.014251 239.049587 
L 337.313396 252.76741 
L 339.61254 261.398026 
L 341.911684 276.935995 
L 344.210829 273.284635 
L 346.509973 269.014091 
L 348.809118 258.261225 
L 351.108262 276.320905 
L 353.407406 272.341116 
L 355.706551 240.370542 
L 358.005695 259.793629 
L 360.30484 291.31366 
L 362.603984 290.742595 
L 364.903128 268.517313 
L 367.202273 264.120208 
L 369.501417 236.295423 
L 371.800561 225.415253 
L 374.099706 233.171181 
L 376.39885 231.928404 
L 378.697995 268.309981 
L 380.997139 259.688817 
L 383.296283 281.210677 
L 385.595428 269.741271 
L 387.894572 271.687292 
L 390.193717 272.722608 
L 392.492861 247.604823 
L 394.792005 255.836044 
L 397.09115 270.803944 
L 399.390294 260.877339 
L 401.689439 283.756208 
L 403.988583 282.370235 
L 406.287727 266.728905 
L 408.586872 259.554247 
L 410.886016 266.740221 
L 413.18516 237.894521 
L 415.484305 232.190858 
L 417.783449 252.877251 
L 420.082594 250.564187 
L 422.381738 267.879255 
L 424.680882 249.974093 
L 426.980027 269.809147 
L 429.279171 280.065531 
L 431.578316 269.975691 
L 433.87746 296.758832 
L 436.176604 279.658969 
L 438.475749 260.438631 
L 440.774893 282.879171 
L 443.074037 286.562035 
L 445.373182 276.627241 
L 447.672326 296.765339 
L 449.971471 286.917681 
L 452.270615 284.704719 
L 454.569759 281.613666 
L 456.868904 286.402219 
L 459.168048 279.077288 
L 461.467193 262.504917 
L 463.766337 259.332587 
L 466.065481 272.824813 
L 468.364626 281.934446 
L 470.66377 268.345034 
L 472.962914 258.5706 
L 475.262059 290.452432 
L 477.561203 283.302925 
L 479.860348 273.188089 
L 482.159492 284.691044 
L 484.458636 299.266914 
L 486.757781 309.502275 
L 489.056925 294.834811 
L 491.35607 267.593798 
L 493.655214 278.224578 
L 495.954358 276.174124 
L 498.253503 271.557257 
L 500.552647 270.225238 
L 502.851791 295.435237 
L 505.150936 279.677289 
L 507.45008 290.537765 
L 509.749225 268.715939 
L 512.048369 257.57441 
L 514.347513 261.502319 
L 516.646658 286.901716 
L 518.945802 273.364736 
L 521.244947 268.308205 
L 523.544091 262.426621 
L 525.843235 264.071903 
L 528.14238 262.417554 
L 530.441524 237.711131 
L 532.740668 292.776569 
L 535.039813 261.188769 
L 539.638102 268.382052 
L 541.937246 274.229659 
L 544.23639 242.812355 
L 546.535535 265.042567 
L 548.834679 252.215521 
L 551.133824 279.832155 
L 553.432968 262.694855 
L 555.732112 258.4372 
L 558.031257 251.704042 
L 560.330401 270.806767 
L 562.629545 278.971428 
L 564.92869 251.070716 
L 567.227834 281.405906 
L 569.526979 296.036964 
L 571.826123 257.920461 
L 574.125267 274.18076 
L 576.424412 266.064719 
L 578.723556 276.196686 
L 581.022701 244.207716 
L 583.321845 246.42696 
L 585.620989 235.04197 
L 587.920134 254.888842 
L 590.219278 273.469548 
L 592.518422 279.186161 
L 594.817567 299.166184 
L 597.116711 294.95214 
L 599.415856 283.154492 
L 601.715 286.964657 
L 604.014144 292.766478 
L 606.313289 304.846902 
L 608.612433 296.749988 
L 610.911578 253.603056 
L 613.210722 262.958382 
L 615.509866 290.503992 
L 617.809011 267.81918 
L 620.108155 270.579477 
L 622.407299 263.736326 
L 624.706444 256.162709 
L 627.005588 223.954194 
L 629.304733 214.284545 
L 631.603877 221.137072 
L 633.903021 222.924309 
L 636.202166 229.417073 
L 638.50131 241.345473 
L 640.800455 254.123298 
L 643.099599 244.176857 
L 645.398743 259.421865 
L 647.697888 228.644666 
L 649.997032 238.934774 
L 652.296176 268.072342 
L 654.595321 267.13824 
L 656.894465 254.083922 
L 659.19361 248.515232 
L 661.492754 248.225451 
L 663.791898 243.628756 
L 666.091043 228.30445 
L 668.390187 237.612608 
L 670.689332 273.605218 
L 672.988476 267.608244 
L 675.28762 256.438995 
L 677.586765 256.188843 
L 679.885909 255.351449 
L 679.885909 255.351449 
" clip-path="url(#pe5b44eb7f0)" style="fill: none; stroke: #1f77b3; stroke-width: 2.8; stroke-linecap: square"/>
   </g>
  </g>
  <g id="axes_3">
   <g id="patch_12">
    <path d="M 64.29 502.26 
L 709.2 502.26 
L 709.2 386.88 
L 64.29 386.88 
L 64.29 502.26 
z
" style="fill: none; opacity: 0"/>
   </g>
   <g id="matplotlib.axis_5">
    <g id="xtick_13">
     <g id="line2d_37">
      <path d="M 91.304947 502.26 
L 91.304947 386.88 
" clip-path="url(#p226fac4320)" style="fill: none; stroke: #e6e6e6; stroke-width: 1.6; stroke-linecap: square"/>
     </g>
     <g id="line2d_38">
      <g>
       <use xlink:href="#m0fb1ddb6fb" x="91.304947" y="502.26" style="stroke: #000000; stroke-width: 1.6"/>
      </g>
     </g>
     <g id="text_20">
      <!-- 0 -->
      <g transform="translate(86.214947 529.1175)scale(0.16 -0.16)">
       <use xlink:href="#DejaVuSans-30"/>
      </g>
     </g>
    </g>
    <g id="xtick_14">
     <g id="line2d_39">
      <path d="M 206.262166 502.26 
L 206.262166 386.88 
" clip-path="url(#p226fac4320)" style="fill: none; stroke: #e6e6e6; stroke-width: 1.6; stroke-linecap: square"/>
     </g>
     <g id="line2d_40">
      <g>
       <use xlink:href="#m0fb1ddb6fb" x="206.262166" y="502.26" style="stroke: #000000; stroke-width: 1.6"/>
      </g>
     </g>
     <g id="text_21">
      <!-- 50 -->
      <g transform="translate(196.082166 529.1175)scale(0.16 -0.16)">
       <use xlink:href="#DejaVuSans-35"/>
       <use xlink:href="#DejaVuSans-30" x="63.623047"/>
      </g>
     </g>
    </g>
    <g id="xtick_15">
     <g id="line2d_41">
      <path d="M 321.219385 502.26 
L 321.219385 386.88 
" clip-path="url(#p226fac4320)" style="fill: none; stroke: #e6e6e6; stroke-width: 1.6; stroke-linecap: square"/>
     </g>
     <g id="line2d_42">
      <g>
       <use xlink:href="#m0fb1ddb6fb" x="321.219385" y="502.26" style="stroke: #000000; stroke-width: 1.6"/>
      </g>
     </g>
     <g id="text_22">
      <!-- 100 -->
      <g transform="translate(305.949385 529.1175)scale(0.16 -0.16)">
       <use xlink:href="#DejaVuSans-31"/>
       <use xlink:href="#DejaVuSans-30" x="63.623047"/>
       <use xlink:href="#DejaVuSans-30" x="127.246094"/>
      </g>
     </g>
    </g>
    <g id="xtick_16">
     <g id="line2d_43">
      <path d="M 436.176604 502.26 
L 436.176604 386.88 
" clip-path="url(#p226fac4320)" style="fill: none; stroke: #e6e6e6; stroke-width: 1.6; stroke-linecap: square"/>
     </g>
     <g id="line2d_44">
      <g>
       <use xlink:href="#m0fb1ddb6fb" x="436.176604" y="502.26" style="stroke: #000000; stroke-width: 1.6"/>
      </g>
     </g>
     <g id="text_23">
      <!-- 150 -->
      <g transform="translate(420.906604 529.1175)scale(0.16 -0.16)">
       <use xlink:href="#DejaVuSans-31"/>
       <use xlink:href="#DejaVuSans-35" x="63.623047"/>
       <use xlink:href="#DejaVuSans-30" x="127.246094"/>
      </g>
     </g>
    </g>
    <g id="xtick_17">
     <g id="line2d_45">
      <path d="M 551.133824 502.26 
L 551.133824 386.88 
" clip-path="url(#p226fac4320)" style="fill: none; stroke: #e6e6e6; stroke-width: 1.6; stroke-linecap: square"/>
     </g>
     <g id="line2d_46">
      <g>
       <use xlink:href="#m0fb1ddb6fb" x="551.133824" y="502.26" style="stroke: #000000; stroke-width: 1.6"/>
      </g>
     </g>
     <g id="text_24">
      <!-- 200 -->
      <g transform="translate(535.863824 529.1175)scale(0.16 -0.16)">
       <use xlink:href="#DejaVuSans-32"/>
       <use xlink:href="#DejaVuSans-30" x="63.623047"/>
       <use xlink:href="#DejaVuSans-30" x="127.246094"/>
      </g>
     </g>
    </g>
    <g id="xtick_18">
     <g id="line2d_47">
      <path d="M 666.091043 502.26 
L 666.091043 386.88 
" clip-path="url(#p226fac4320)" style="fill: none; stroke: #e6e6e6; stroke-width: 1.6; stroke-linecap: square"/>
     </g>
     <g id="line2d_48">
      <g>
       <use xlink:href="#m0fb1ddb6fb" x="666.091043" y="502.26" style="stroke: #000000; stroke-width: 1.6"/>
      </g>
     </g>
     <g id="text_25">
      <!-- 250 -->
      <g transform="translate(650.821043 529.1175)scale(0.16 -0.16)">
       <use xlink:href="#DejaVuSans-32"/>
       <use xlink:href="#DejaVuSans-35" x="63.623047"/>
       <use xlink:href="#DejaVuSans-30" x="127.246094"/>
      </g>
     </g>
    </g>
   </g>
   <g id="matplotlib.axis_6">
    <g id="ytick_6">
     <g id="line2d_49">
      <path d="M 64.29 497.015455 
L 709.2 497.015455 
" clip-path="url(#p226fac4320)" style="fill: none; stroke: #e6e6e6; stroke-width: 1.6; stroke-linecap: square"/>
     </g>
     <g id="line2d_50">
      <g>
       <use xlink:href="#ma63486ef1d" x="64.29" y="497.015455" style="stroke: #000000; stroke-width: 1.6"/>
      </g>
     </g>
     <g id="text_26">
      <!-- 0 -->
      <g transform="translate(39.41 503.094205)scale(0.16 -0.16)">
       <use xlink:href="#DejaVuSans-30"/>
      </g>
     </g>
    </g>
    <g id="ytick_7">
     <g id="line2d_51">
      <path d="M 64.29 421.727174 
L 709.2 421.727174 
" clip-path="url(#p226fac4320)" style="fill: none; stroke: #e6e6e6; stroke-width: 1.6; stroke-linecap: square"/>
     </g>
     <g id="line2d_52">
      <g>
       <use xlink:href="#ma63486ef1d" x="64.29" y="421.727174" style="stroke: #000000; stroke-width: 1.6"/>
      </g>
     </g>
     <g id="text_27">
      <!-- 20 -->
      <g transform="translate(29.23 427.805924)scale(0.16 -0.16)">
       <use xlink:href="#DejaVuSans-32"/>
       <use xlink:href="#DejaVuSans-30" x="63.623047"/>
      </g>
     </g>
    </g>
   </g>
   <g id="patch_13">
    <path d="M 64.29 502.26 
L 64.29 386.88 
" style="fill: none; stroke: #000000; stroke-width: 0.8; stroke-linejoin: miter; stroke-linecap: square"/>
   </g>
   <g id="patch_14">
    <path d="M 709.2 502.26 
L 709.2 386.88 
" style="fill: none; stroke: #e6e6e6; stroke-width: 0.8; stroke-linejoin: miter; stroke-linecap: square"/>
   </g>
   <g id="patch_15">
    <path d="M 64.29 502.26 
L 709.2 502.26 
" style="fill: none; stroke: #000000; stroke-width: 0.8; stroke-linejoin: miter; stroke-linecap: square"/>
   </g>
   <g id="patch_16">
    <path d="M 64.29 386.88 
L 709.2 386.88 
" style="fill: none; stroke: #e6e6e6; stroke-width: 0.8; stroke-linejoin: miter; stroke-linecap: square"/>
   </g>
   <g id="text_28">
    <!-- H = 0.5 -->
    <g transform="translate(350.112 380.88)scale(0.192 -0.192)">
     <use xlink:href="#DejaVuSans-48"/>
     <use xlink:href="#DejaVuSans-20" x="75.195312"/>
     <use xlink:href="#DejaVuSans-3d" x="106.982422"/>
     <use xlink:href="#DejaVuSans-20" x="190.771484"/>
     <use xlink:href="#DejaVuSans-30" x="222.558594"/>
     <use xlink:href="#DejaVuSans-2e" x="286.181641"/>
     <use xlink:href="#DejaVuSans-35" x="317.96875"/>
    </g>
   </g>
   <g id="line2d_53">
    <path d="M 93.604091 497.015455 
L 95.903235 493.057107 
L 98.20238 496.321786 
L 100.501524 493.544839 
L 102.800668 487.618091 
L 105.099813 484.64158 
L 107.398957 484.520003 
L 109.698102 484.042476 
L 111.997246 486.207137 
L 114.29639 486.203268 
L 116.595535 484.88012 
L 118.894679 477.899236 
L 121.193824 473.348619 
L 123.492968 474.39287 
L 125.792112 474.591295 
L 128.091257 477.029137 
L 130.390401 476.503199 
L 132.689545 476.102087 
L 134.98869 476.273818 
L 137.287834 475.209192 
L 139.586979 477.530793 
L 141.886123 474.866949 
L 144.185267 475.847283 
L 146.484412 475.344896 
L 148.783556 474.220246 
L 151.082701 474.474269 
L 153.381845 477.835094 
L 155.680989 480.455745 
L 160.279278 486.937924 
L 162.578422 486.828678 
L 164.877567 485.464143 
L 167.176711 477.855535 
L 169.475856 471.324202 
L 171.775 467.08614 
L 174.074144 467.003277 
L 176.373289 468.267777 
L 178.672433 462.736201 
L 180.971578 466.846308 
L 183.270722 472.435444 
L 185.569866 472.850144 
L 187.869011 466.934424 
L 190.168155 467.349557 
L 192.467299 464.563063 
L 194.766444 466.428279 
L 197.065588 462.866658 
L 201.663877 451.461501 
L 203.963021 448.471708 
L 206.262166 448.756719 
L 208.56131 444.153016 
L 210.860455 446.668608 
L 213.159599 450.088415 
L 215.458743 446.326592 
L 217.757888 445.227682 
L 220.057032 443.246687 
L 222.356176 438.176301 
L 224.655321 430.340168 
L 226.954465 432.944426 
L 229.25361 434.335333 
L 231.552754 428.907937 
L 233.851898 426.78763 
L 236.151043 434.172772 
L 238.450187 434.126318 
L 240.749332 434.965014 
L 243.048476 434.727854 
L 245.34762 444.878096 
L 247.646765 442.90442 
L 249.945909 442.899796 
L 252.245053 446.127278 
L 254.544198 453.785034 
L 256.843342 454.191831 
L 259.142487 448.565154 
L 261.441631 453.653956 
L 263.740775 461.162676 
L 266.03992 460.228401 
L 268.339064 452.581308 
L 270.638209 454.996198 
L 272.937353 457.866715 
L 275.236497 457.030723 
L 277.535642 460.487275 
L 279.834786 456.929823 
L 284.433075 449.037695 
L 286.732219 445.448148 
L 289.031364 446.177625 
L 291.330508 447.612628 
L 293.629652 452.298242 
L 295.928797 452.6703 
L 298.227941 456.649527 
L 300.527086 448.983786 
L 302.82623 449.496406 
L 305.125374 448.693523 
L 307.424519 444.957484 
L 309.723663 440.856639 
L 312.022807 428.767362 
L 314.321952 427.426172 
L 316.621096 424.326691 
L 318.920241 429.277947 
L 321.219385 431.44409 
L 323.518529 427.645152 
L 325.817674 428.416444 
L 328.116818 421.317995 
L 330.415963 417.844697 
L 332.715107 412.14888 
L 335.014251 402.787809 
L 337.313396 411.466566 
L 339.61254 414.362938 
L 341.911684 407.890345 
L 344.210829 407.382466 
L 346.509973 412.015032 
L 348.809118 404.474597 
L 351.108262 399.350851 
L 353.407406 396.23836 
L 355.706551 396.486328 
L 358.005695 392.50222 
L 360.30484 396.9893 
L 362.603984 399.371448 
L 364.903128 400.174806 
L 367.202273 398.365316 
L 369.501417 397.98967 
L 371.800561 397.843501 
L 374.099706 396.592688 
L 376.39885 397.638044 
L 378.697995 397.520592 
L 380.997139 399.316815 
L 383.296283 392.124545 
L 385.595428 397.858668 
L 387.894572 394.748122 
L 390.193717 394.947007 
L 392.492861 398.716917 
L 394.792005 400.759086 
L 397.09115 406.403607 
L 399.390294 408.987976 
L 401.689439 412.005432 
L 403.988583 402.710669 
L 406.287727 404.275709 
L 408.586872 400.391463 
L 410.886016 395.795624 
L 413.18516 397.154337 
L 415.484305 400.782887 
L 417.783449 401.06083 
L 420.082594 395.644739 
L 424.680882 401.776915 
L 426.980027 402.844595 
L 429.279171 409.906879 
L 431.578316 410.980609 
L 433.87746 416.265705 
L 436.176604 414.580098 
L 438.475749 419.365924 
L 440.774893 421.53213 
L 443.074037 430.76408 
L 445.373182 435.245351 
L 449.971471 435.249741 
L 452.270615 440.001228 
L 454.569759 443.153748 
L 456.868904 444.450709 
L 459.168048 434.076365 
L 461.467193 434.159589 
L 463.766337 429.715182 
L 466.065481 428.99952 
L 468.364626 428.972367 
L 470.66377 434.44183 
L 472.962914 431.309037 
L 475.262059 427.752479 
L 479.860348 422.94399 
L 482.159492 421.329266 
L 484.458636 421.463579 
L 486.757781 422.09042 
L 489.056925 419.154771 
L 491.35607 417.505563 
L 493.655214 417.23736 
L 495.954358 419.151759 
L 498.253503 423.143925 
L 500.552647 426.074673 
L 502.851791 425.539885 
L 507.45008 428.539654 
L 509.749225 429.487335 
L 512.048369 432.779677 
L 514.347513 431.123451 
L 516.646658 431.793446 
L 518.945802 426.106697 
L 521.244947 433.248395 
L 523.544091 428.655763 
L 525.843235 432.072194 
L 528.14238 435.160782 
L 530.441524 436.265458 
L 532.740668 442.092068 
L 535.039813 444.016317 
L 537.338957 449.553516 
L 539.638102 450.805504 
L 541.937246 459.043333 
L 544.23639 459.218166 
L 546.535535 460.216659 
L 548.834679 460.931129 
L 551.133824 463.205029 
L 553.432968 467.001143 
L 555.732112 467.986185 
L 558.031257 460.897915 
L 560.330401 459.010633 
L 562.629545 460.933603 
L 564.92869 463.4817 
L 567.227834 462.791628 
L 569.526979 467.589674 
L 571.826123 470.258226 
L 574.125267 467.1574 
L 576.424412 468.20774 
L 578.723556 469.800882 
L 581.022701 467.352485 
L 583.321845 465.287392 
L 585.620989 459.495974 
L 587.920134 458.426246 
L 590.219278 456.51965 
L 592.518422 458.811483 
L 594.817567 459.247329 
L 597.116711 455.049136 
L 599.415856 449.956323 
L 601.715 454.146608 
L 604.014144 455.943763 
L 606.313289 457.460858 
L 608.612433 455.444778 
L 610.911578 456.705699 
L 613.210722 457.629728 
L 615.509866 455.640822 
L 617.809011 458.411069 
L 620.108155 453.897081 
L 622.407299 456.008387 
L 627.005588 457.409723 
L 629.304733 450.666389 
L 631.603877 454.754722 
L 633.903021 454.551215 
L 636.202166 455.098469 
L 638.50131 451.513175 
L 640.800455 453.331031 
L 643.099599 451.937822 
L 645.398743 450.384128 
L 647.697888 448.139618 
L 649.997032 449.263122 
L 652.296176 447.944053 
L 654.595321 452.306398 
L 656.894465 455.228995 
L 659.19361 453.217388 
L 661.492754 450.594556 
L 663.791898 450.561876 
L 666.091043 448.459611 
L 668.390187 445.14525 
L 670.689332 448.745955 
L 672.988476 444.069194 
L 675.28762 442.431975 
L 677.586765 446.552169 
L 679.885909 444.469633 
L 679.885909 444.469633 
" clip-path="url(#p226fac4320)" style="fill: none; stroke: #1f77b3; stroke-width: 2.8; stroke-linecap: square"/>
   </g>
  </g>
  <g id="axes_4">
   <g id="patch_17">
    <path d="M 64.29 680.1 
L 709.2 680.1 
L 709.2 564.72 
L 64.29 564.72 
L 64.29 680.1 
z
" style="fill: none; opacity: 0"/>
   </g>
   <g id="matplotlib.axis_7">
    <g id="xtick_19">
     <g id="line2d_54">
      <path d="M 91.304947 680.1 
L 91.304947 564.72 
" clip-path="url(#pc7bf41e098)" style="fill: none; stroke: #e6e6e6; stroke-width: 1.6; stroke-linecap: square"/>
     </g>
     <g id="line2d_55">
      <g>
       <use xlink:href="#m0fb1ddb6fb" x="91.304947" y="680.1" style="stroke: #000000; stroke-width: 1.6"/>
      </g>
     </g>
     <g id="text_29">
      <!-- 0 -->
      <g transform="translate(86.214947 706.9575)scale(0.16 -0.16)">
       <use xlink:href="#DejaVuSans-30"/>
      </g>
     </g>
    </g>
    <g id="xtick_20">
     <g id="line2d_56">
      <path d="M 206.262166 680.1 
L 206.262166 564.72 
" clip-path="url(#pc7bf41e098)" style="fill: none; stroke: #e6e6e6; stroke-width: 1.6; stroke-linecap: square"/>
     </g>
     <g id="line2d_57">
      <g>
       <use xlink:href="#m0fb1ddb6fb" x="206.262166" y="680.1" style="stroke: #000000; stroke-width: 1.6"/>
      </g>
     </g>
     <g id="text_30">
      <!-- 50 -->
      <g transform="translate(196.082166 706.9575)scale(0.16 -0.16)">
       <use xlink:href="#DejaVuSans-35"/>
       <use xlink:href="#DejaVuSans-30" x="63.623047"/>
      </g>
     </g>
    </g>
    <g id="xtick_21">
     <g id="line2d_58">
      <path d="M 321.219385 680.1 
L 321.219385 564.72 
" clip-path="url(#pc7bf41e098)" style="fill: none; stroke: #e6e6e6; stroke-width: 1.6; stroke-linecap: square"/>
     </g>
     <g id="line2d_59">
      <g>
       <use xlink:href="#m0fb1ddb6fb" x="321.219385" y="680.1" style="stroke: #000000; stroke-width: 1.6"/>
      </g>
     </g>
     <g id="text_31">
      <!-- 100 -->
      <g transform="translate(305.949385 706.9575)scale(0.16 -0.16)">
       <use xlink:href="#DejaVuSans-31"/>
       <use xlink:href="#DejaVuSans-30" x="63.623047"/>
       <use xlink:href="#DejaVuSans-30" x="127.246094"/>
      </g>
     </g>
    </g>
    <g id="xtick_22">
     <g id="line2d_60">
      <path d="M 436.176604 680.1 
L 436.176604 564.72 
" clip-path="url(#pc7bf41e098)" style="fill: none; stroke: #e6e6e6; stroke-width: 1.6; stroke-linecap: square"/>
     </g>
     <g id="line2d_61">
      <g>
       <use xlink:href="#m0fb1ddb6fb" x="436.176604" y="680.1" style="stroke: #000000; stroke-width: 1.6"/>
      </g>
     </g>
     <g id="text_32">
      <!-- 150 -->
      <g transform="translate(420.906604 706.9575)scale(0.16 -0.16)">
       <use xlink:href="#DejaVuSans-31"/>
       <use xlink:href="#DejaVuSans-35" x="63.623047"/>
       <use xlink:href="#DejaVuSans-30" x="127.246094"/>
      </g>
     </g>
    </g>
    <g id="xtick_23">
     <g id="line2d_62">
      <path d="M 551.133824 680.1 
L 551.133824 564.72 
" clip-path="url(#pc7bf41e098)" style="fill: none; stroke: #e6e6e6; stroke-width: 1.6; stroke-linecap: square"/>
     </g>
     <g id="line2d_63">
      <g>
       <use xlink:href="#m0fb1ddb6fb" x="551.133824" y="680.1" style="stroke: #000000; stroke-width: 1.6"/>
      </g>
     </g>
     <g id="text_33">
      <!-- 200 -->
      <g transform="translate(535.863824 706.9575)scale(0.16 -0.16)">
       <use xlink:href="#DejaVuSans-32"/>
       <use xlink:href="#DejaVuSans-30" x="63.623047"/>
       <use xlink:href="#DejaVuSans-30" x="127.246094"/>
      </g>
     </g>
    </g>
    <g id="xtick_24">
     <g id="line2d_64">
      <path d="M 666.091043 680.1 
L 666.091043 564.72 
" clip-path="url(#pc7bf41e098)" style="fill: none; stroke: #e6e6e6; stroke-width: 1.6; stroke-linecap: square"/>
     </g>
     <g id="line2d_65">
      <g>
       <use xlink:href="#m0fb1ddb6fb" x="666.091043" y="680.1" style="stroke: #000000; stroke-width: 1.6"/>
      </g>
     </g>
     <g id="text_34">
      <!-- 250 -->
      <g transform="translate(650.821043 706.9575)scale(0.16 -0.16)">
       <use xlink:href="#DejaVuSans-32"/>
       <use xlink:href="#DejaVuSans-35" x="63.623047"/>
       <use xlink:href="#DejaVuSans-30" x="127.246094"/>
      </g>
     </g>
    </g>
   </g>
   <g id="matplotlib.axis_8">
    <g id="ytick_8">
     <g id="line2d_66">
      <path d="M 64.29 668.298215 
L 709.2 668.298215 
" clip-path="url(#pc7bf41e098)" style="fill: none; stroke: #e6e6e6; stroke-width: 1.6; stroke-linecap: square"/>
     </g>
     <g id="line2d_67">
      <g>
       <use xlink:href="#ma63486ef1d" x="64.29" y="668.298215" style="stroke: #000000; stroke-width: 1.6"/>
      </g>
     </g>
     <g id="text_35">
      <!-- −10 -->
      <g transform="translate(15.8225 674.376965)scale(0.16 -0.16)">
       <use xlink:href="#DejaVuSans-2212"/>
       <use xlink:href="#DejaVuSans-31" x="83.789062"/>
       <use xlink:href="#DejaVuSans-30" x="147.412109"/>
      </g>
     </g>
    </g>
    <g id="ytick_9">
     <g id="line2d_68">
      <path d="M 64.29 630.569208 
L 709.2 630.569208 
" clip-path="url(#pc7bf41e098)" style="fill: none; stroke: #e6e6e6; stroke-width: 1.6; stroke-linecap: square"/>
     </g>
     <g id="line2d_69">
      <g>
       <use xlink:href="#ma63486ef1d" x="64.29" y="630.569208" style="stroke: #000000; stroke-width: 1.6"/>
      </g>
     </g>
     <g id="text_36">
      <!-- 0 -->
      <g transform="translate(39.41 636.647958)scale(0.16 -0.16)">
       <use xlink:href="#DejaVuSans-30"/>
      </g>
     </g>
    </g>
    <g id="ytick_10">
     <g id="line2d_70">
      <path d="M 64.29 592.840201 
L 709.2 592.840201 
" clip-path="url(#pc7bf41e098)" style="fill: none; stroke: #e6e6e6; stroke-width: 1.6; stroke-linecap: square"/>
     </g>
     <g id="line2d_71">
      <g>
       <use xlink:href="#ma63486ef1d" x="64.29" y="592.840201" style="stroke: #000000; stroke-width: 1.6"/>
      </g>
     </g>
     <g id="text_37">
      <!-- 10 -->
      <g transform="translate(29.23 598.918951)scale(0.16 -0.16)">
       <use xlink:href="#DejaVuSans-31"/>
       <use xlink:href="#DejaVuSans-30" x="63.623047"/>
      </g>
     </g>
    </g>
   </g>
   <g id="patch_18">
    <path d="M 64.29 680.1 
L 64.29 564.72 
" style="fill: none; stroke: #000000; stroke-width: 0.8; stroke-linejoin: miter; stroke-linecap: square"/>
   </g>
   <g id="patch_19">
    <path d="M 709.2 680.1 
L 709.2 564.72 
" style="fill: none; stroke: #e6e6e6; stroke-width: 0.8; stroke-linejoin: miter; stroke-linecap: square"/>
   </g>
   <g id="patch_20">
    <path d="M 64.29 680.1 
L 709.2 680.1 
" style="fill: none; stroke: #000000; stroke-width: 0.8; stroke-linejoin: miter; stroke-linecap: square"/>
   </g>
   <g id="patch_21">
    <path d="M 64.29 564.72 
L 709.2 564.72 
" style="fill: none; stroke: #e6e6e6; stroke-width: 0.8; stroke-linejoin: miter; stroke-linecap: square"/>
   </g>
   <g id="text_38">
    <!-- H = 0.75 -->
    <g transform="translate(344.004 558.72)scale(0.192 -0.192)">
     <defs>
      <path id="DejaVuSans-37" d="M 525 4666 
L 3525 4666 
L 3525 4397 
L 1831 0 
L 1172 0 
L 2766 4134 
L 525 4134 
L 525 4666 
z
" transform="scale(0.015625)"/>
     </defs>
     <use xlink:href="#DejaVuSans-48"/>
     <use xlink:href="#DejaVuSans-20" x="75.195312"/>
     <use xlink:href="#DejaVuSans-3d" x="106.982422"/>
     <use xlink:href="#DejaVuSans-20" x="190.771484"/>
     <use xlink:href="#DejaVuSans-30" x="222.558594"/>
     <use xlink:href="#DejaVuSans-2e" x="286.181641"/>
     <use xlink:href="#DejaVuSans-37" x="317.96875"/>
     <use xlink:href="#DejaVuSans-35" x="381.591797"/>
    </g>
   </g>
   <g id="line2d_72">
    <path d="M 93.604091 630.569208 
L 95.903235 626.920742 
L 98.20238 625.059119 
L 100.501524 622.699954 
L 102.800668 620.761138 
L 105.099813 619.948875 
L 107.398957 620.9453 
L 109.698102 622.93191 
L 111.997246 622.726431 
L 114.29639 621.371875 
L 116.595535 619.249803 
L 118.894679 617.908623 
L 121.193824 609.674823 
L 123.492968 606.220949 
L 125.792112 600.90325 
L 128.091257 605.837694 
L 130.390401 605.465909 
L 132.689545 606.186013 
L 134.98869 612.513824 
L 137.287834 610.839873 
L 139.586979 612.702342 
L 141.886123 616.148201 
L 144.185267 618.326108 
L 146.484412 617.938417 
L 148.783556 621.787145 
L 151.082701 616.09841 
L 153.381845 611.344008 
L 155.680989 609.709912 
L 157.980134 612.991425 
L 160.279278 613.898501 
L 162.578422 618.521855 
L 164.877567 619.614573 
L 167.176711 616.559902 
L 169.475856 610.423993 
L 171.775 610.629712 
L 174.074144 607.525855 
L 176.373289 608.140251 
L 178.672433 606.556878 
L 180.971578 605.717569 
L 183.270722 602.942102 
L 185.569866 594.303211 
L 187.869011 588.9687 
L 192.467299 581.982104 
L 194.766444 581.204629 
L 197.065588 580.810047 
L 199.364733 576.622676 
L 201.663877 580.080872 
L 203.963021 585.152512 
L 206.262166 588.252031 
L 208.56131 587.034835 
L 210.860455 587.875266 
L 213.159599 589.402428 
L 215.458743 589.323774 
L 217.757888 584.019212 
L 220.057032 577.736721 
L 222.356176 580.51155 
L 224.655321 579.035916 
L 226.954465 579.829885 
L 229.25361 583.717 
L 231.552754 591.036095 
L 233.851898 599.644909 
L 236.151043 602.077378 
L 238.450187 601.44506 
L 240.749332 604.624446 
L 243.048476 609.385204 
L 245.34762 611.573018 
L 247.646765 610.080762 
L 249.945909 611.572405 
L 252.245053 612.762273 
L 254.544198 613.00626 
L 256.843342 608.752827 
L 261.441631 601.398143 
L 263.740775 600.587908 
L 266.03992 602.922704 
L 268.339064 601.094166 
L 270.638209 606.143371 
L 272.937353 611.762177 
L 275.236497 615.200116 
L 277.535642 619.539119 
L 279.834786 615.496747 
L 282.13393 616.547084 
L 284.433075 613.721476 
L 286.732219 609.927392 
L 289.031364 602.766132 
L 291.330508 608.185833 
L 293.629652 612.343101 
L 295.928797 615.348153 
L 298.227941 611.324902 
L 300.527086 612.678473 
L 302.82623 608.114419 
L 305.125374 611.802483 
L 307.424519 612.620687 
L 309.723663 612.961308 
L 314.321952 616.142197 
L 316.621096 614.380368 
L 318.920241 616.166037 
L 321.219385 612.615882 
L 323.518529 603.544075 
L 325.817674 598.861851 
L 328.116818 591.683201 
L 330.415963 586.321099 
L 332.715107 584.877263 
L 335.014251 587.901101 
L 337.313396 591.331095 
L 339.61254 590.195913 
L 341.911684 584.840624 
L 344.210829 586.731807 
L 346.509973 579.286604 
L 348.809118 579.293291 
L 351.108262 576.020505 
L 353.407406 577.513444 
L 355.706551 580.251643 
L 358.005695 573.560024 
L 360.30484 569.964545 
L 362.603984 573.693775 
L 367.202273 570.107547 
L 369.501417 576.750599 
L 371.800561 580.647359 
L 374.099706 581.642411 
L 376.39885 586.291632 
L 378.697995 585.266937 
L 380.997139 582.810476 
L 385.595428 579.000098 
L 387.894572 583.276913 
L 390.193717 585.558817 
L 392.492861 594.052483 
L 399.390294 615.50785 
L 401.689439 623.275923 
L 403.988583 627.320552 
L 406.287727 629.810098 
L 408.586872 634.629957 
L 410.886016 639.739642 
L 413.18516 640.885856 
L 415.484305 645.510363 
L 417.783449 648.252673 
L 420.082594 652.358093 
L 422.381738 654.573274 
L 424.680882 654.028926 
L 426.980027 654.049992 
L 429.279171 650.513721 
L 431.578316 649.061229 
L 433.87746 652.660122 
L 436.176604 654.078553 
L 438.475749 652.10649 
L 440.774893 648.632811 
L 443.074037 651.847477 
L 445.373182 651.456513 
L 447.672326 651.186993 
L 449.971471 650.16725 
L 452.270615 648.824672 
L 454.569759 646.607866 
L 456.868904 646.870189 
L 459.168048 646.10561 
L 461.467193 646.378356 
L 466.065481 638.097676 
L 468.364626 627.747642 
L 470.66377 624.39368 
L 475.262059 622.748844 
L 477.561203 619.147363 
L 479.860348 621.33494 
L 482.159492 621.984303 
L 484.458636 620.701635 
L 486.757781 613.043786 
L 489.056925 608.117569 
L 491.35607 607.859922 
L 495.954358 609.940078 
L 498.253503 616.310369 
L 500.552647 615.695972 
L 502.851791 616.138242 
L 505.150936 617.242566 
L 507.45008 612.282406 
L 509.749225 610.804312 
L 512.048369 611.495665 
L 514.347513 615.572478 
L 516.646658 616.925756 
L 518.945802 619.19801 
L 521.244947 618.105576 
L 523.544091 618.806296 
L 525.843235 615.929687 
L 528.14238 618.691499 
L 530.441524 620.190309 
L 532.740668 617.934701 
L 535.039813 615.202199 
L 537.338957 614.844832 
L 539.638102 609.341842 
L 541.937246 605.599794 
L 544.23639 609.68621 
L 546.535535 607.733268 
L 548.834679 605.463579 
L 551.133824 601.631135 
L 553.432968 596.407453 
L 555.732112 595.729314 
L 558.031257 590.770123 
L 560.330401 590.538105 
L 562.629545 590.909169 
L 564.92869 593.831204 
L 567.227834 594.01822 
L 569.526979 589.72702 
L 571.826123 588.653189 
L 574.125267 592.264723 
L 576.424412 592.386333 
L 578.723556 592.355842 
L 581.022701 595.533036 
L 583.321845 590.350828 
L 585.620989 588.948674 
L 587.920134 597.036336 
L 590.219278 602.456538 
L 592.518422 610.422298 
L 594.817567 614.822125 
L 597.116711 620.374925 
L 599.415856 624.437968 
L 601.715 637.211469 
L 604.014144 640.336187 
L 606.313289 642.745424 
L 608.612433 647.199063 
L 610.911578 648.729863 
L 615.509866 652.033562 
L 617.809011 644.480738 
L 620.108155 641.75024 
L 622.407299 636.411361 
L 624.706444 637.194397 
L 627.005588 638.967066 
L 629.304733 639.221687 
L 631.603877 640.393605 
L 633.903021 640.15558 
L 636.202166 640.369044 
L 638.50131 635.852479 
L 640.800455 644.997864 
L 645.398743 655.988988 
L 647.697888 667.159347 
L 649.997032 672.178878 
L 652.296176 674.855455 
L 654.595321 669.409515 
L 656.894465 671.061415 
L 659.19361 672.546074 
L 661.492754 670.921391 
L 663.791898 670.169624 
L 666.091043 667.703238 
L 668.390187 663.657315 
L 670.689332 659.919837 
L 672.988476 659.747665 
L 675.28762 655.82766 
L 677.586765 660.316633 
L 679.885909 661.321604 
L 679.885909 661.321604 
" clip-path="url(#pc7bf41e098)" style="fill: none; stroke: #1f77b3; stroke-width: 2.8; stroke-linecap: square"/>
   </g>
  </g>
  <g id="axes_5">
   <g id="patch_22">
    <path d="M 64.29 857.94 
L 709.2 857.94 
L 709.2 742.56 
L 64.29 742.56 
L 64.29 857.94 
z
" style="fill: none; opacity: 0"/>
   </g>
   <g id="matplotlib.axis_9">
    <g id="xtick_25">
     <g id="line2d_73">
      <path d="M 91.304947 857.94 
L 91.304947 742.56 
" clip-path="url(#p10cf11f03b)" style="fill: none; stroke: #e6e6e6; stroke-width: 1.6; stroke-linecap: square"/>
     </g>
     <g id="line2d_74">
      <g>
       <use xlink:href="#m0fb1ddb6fb" x="91.304947" y="857.94" style="stroke: #000000; stroke-width: 1.6"/>
      </g>
     </g>
     <g id="text_39">
      <!-- 0 -->
      <g transform="translate(86.214947 884.7975)scale(0.16 -0.16)">
       <use xlink:href="#DejaVuSans-30"/>
      </g>
     </g>
    </g>
    <g id="xtick_26">
     <g id="line2d_75">
      <path d="M 206.262166 857.94 
L 206.262166 742.56 
" clip-path="url(#p10cf11f03b)" style="fill: none; stroke: #e6e6e6; stroke-width: 1.6; stroke-linecap: square"/>
     </g>
     <g id="line2d_76">
      <g>
       <use xlink:href="#m0fb1ddb6fb" x="206.262166" y="857.94" style="stroke: #000000; stroke-width: 1.6"/>
      </g>
     </g>
     <g id="text_40">
      <!-- 50 -->
      <g transform="translate(196.082166 884.7975)scale(0.16 -0.16)">
       <use xlink:href="#DejaVuSans-35"/>
       <use xlink:href="#DejaVuSans-30" x="63.623047"/>
      </g>
     </g>
    </g>
    <g id="xtick_27">
     <g id="line2d_77">
      <path d="M 321.219385 857.94 
L 321.219385 742.56 
" clip-path="url(#p10cf11f03b)" style="fill: none; stroke: #e6e6e6; stroke-width: 1.6; stroke-linecap: square"/>
     </g>
     <g id="line2d_78">
      <g>
       <use xlink:href="#m0fb1ddb6fb" x="321.219385" y="857.94" style="stroke: #000000; stroke-width: 1.6"/>
      </g>
     </g>
     <g id="text_41">
      <!-- 100 -->
      <g transform="translate(305.949385 884.7975)scale(0.16 -0.16)">
       <use xlink:href="#DejaVuSans-31"/>
       <use xlink:href="#DejaVuSans-30" x="63.623047"/>
       <use xlink:href="#DejaVuSans-30" x="127.246094"/>
      </g>
     </g>
    </g>
    <g id="xtick_28">
     <g id="line2d_79">
      <path d="M 436.176604 857.94 
L 436.176604 742.56 
" clip-path="url(#p10cf11f03b)" style="fill: none; stroke: #e6e6e6; stroke-width: 1.6; stroke-linecap: square"/>
     </g>
     <g id="line2d_80">
      <g>
       <use xlink:href="#m0fb1ddb6fb" x="436.176604" y="857.94" style="stroke: #000000; stroke-width: 1.6"/>
      </g>
     </g>
     <g id="text_42">
      <!-- 150 -->
      <g transform="translate(420.906604 884.7975)scale(0.16 -0.16)">
       <use xlink:href="#DejaVuSans-31"/>
       <use xlink:href="#DejaVuSans-35" x="63.623047"/>
       <use xlink:href="#DejaVuSans-30" x="127.246094"/>
      </g>
     </g>
    </g>
    <g id="xtick_29">
     <g id="line2d_81">
      <path d="M 551.133824 857.94 
L 551.133824 742.56 
" clip-path="url(#p10cf11f03b)" style="fill: none; stroke: #e6e6e6; stroke-width: 1.6; stroke-linecap: square"/>
     </g>
     <g id="line2d_82">
      <g>
       <use xlink:href="#m0fb1ddb6fb" x="551.133824" y="857.94" style="stroke: #000000; stroke-width: 1.6"/>
      </g>
     </g>
     <g id="text_43">
      <!-- 200 -->
      <g transform="translate(535.863824 884.7975)scale(0.16 -0.16)">
       <use xlink:href="#DejaVuSans-32"/>
       <use xlink:href="#DejaVuSans-30" x="63.623047"/>
       <use xlink:href="#DejaVuSans-30" x="127.246094"/>
      </g>
     </g>
    </g>
    <g id="xtick_30">
     <g id="line2d_83">
      <path d="M 666.091043 857.94 
L 666.091043 742.56 
" clip-path="url(#p10cf11f03b)" style="fill: none; stroke: #e6e6e6; stroke-width: 1.6; stroke-linecap: square"/>
     </g>
     <g id="line2d_84">
      <g>
       <use xlink:href="#m0fb1ddb6fb" x="666.091043" y="857.94" style="stroke: #000000; stroke-width: 1.6"/>
      </g>
     </g>
     <g id="text_44">
      <!-- 250 -->
      <g transform="translate(650.821043 884.7975)scale(0.16 -0.16)">
       <use xlink:href="#DejaVuSans-32"/>
       <use xlink:href="#DejaVuSans-35" x="63.623047"/>
       <use xlink:href="#DejaVuSans-30" x="127.246094"/>
      </g>
     </g>
    </g>
   </g>
   <g id="matplotlib.axis_10">
    <g id="ytick_11">
     <g id="line2d_85">
      <path d="M 64.29 819.606631 
L 709.2 819.606631 
" clip-path="url(#p10cf11f03b)" style="fill: none; stroke: #e6e6e6; stroke-width: 1.6; stroke-linecap: square"/>
     </g>
     <g id="line2d_86">
      <g>
       <use xlink:href="#ma63486ef1d" x="64.29" y="819.606631" style="stroke: #000000; stroke-width: 1.6"/>
      </g>
     </g>
     <g id="text_45">
      <!-- −50 -->
      <g transform="translate(15.8225 825.685381)scale(0.16 -0.16)">
       <use xlink:href="#DejaVuSans-2212"/>
       <use xlink:href="#DejaVuSans-35" x="83.789062"/>
       <use xlink:href="#DejaVuSans-30" x="147.412109"/>
      </g>
     </g>
    </g>
    <g id="ytick_12">
     <g id="line2d_87">
      <path d="M 64.29 747.804545 
L 709.2 747.804545 
" clip-path="url(#p10cf11f03b)" style="fill: none; stroke: #e6e6e6; stroke-width: 1.6; stroke-linecap: square"/>
     </g>
     <g id="line2d_88">
      <g>
       <use xlink:href="#ma63486ef1d" x="64.29" y="747.804545" style="stroke: #000000; stroke-width: 1.6"/>
      </g>
     </g>
     <g id="text_46">
      <!-- 0 -->
      <g transform="translate(39.41 753.883295)scale(0.16 -0.16)">
       <use xlink:href="#DejaVuSans-30"/>
      </g>
     </g>
    </g>
   </g>
   <g id="patch_23">
    <path d="M 64.29 857.94 
L 64.29 742.56 
" style="fill: none; stroke: #000000; stroke-width: 0.8; stroke-linejoin: miter; stroke-linecap: square"/>
   </g>
   <g id="patch_24">
    <path d="M 709.2 857.94 
L 709.2 742.56 
" style="fill: none; stroke: #e6e6e6; stroke-width: 0.8; stroke-linejoin: miter; stroke-linecap: square"/>
   </g>
   <g id="patch_25">
    <path d="M 64.29 857.94 
L 709.2 857.94 
" style="fill: none; stroke: #000000; stroke-width: 0.8; stroke-linejoin: miter; stroke-linecap: square"/>
   </g>
   <g id="patch_26">
    <path d="M 64.29 742.56 
L 709.2 742.56 
" style="fill: none; stroke: #e6e6e6; stroke-width: 0.8; stroke-linejoin: miter; stroke-linecap: square"/>
   </g>
   <g id="text_47">
    <!-- H = 0.99 -->
    <g transform="translate(344.004 736.56)scale(0.192 -0.192)">
     <defs>
      <path id="DejaVuSans-39" d="M 703 97 
L 703 672 
Q 941 559 1184 500 
Q 1428 441 1663 441 
Q 2288 441 2617 861 
Q 2947 1281 2994 2138 
Q 2813 1869 2534 1725 
Q 2256 1581 1919 1581 
Q 1219 1581 811 2004 
Q 403 2428 403 3163 
Q 403 3881 828 4315 
Q 1253 4750 1959 4750 
Q 2769 4750 3195 4129 
Q 3622 3509 3622 2328 
Q 3622 1225 3098 567 
Q 2575 -91 1691 -91 
Q 1453 -91 1209 -44 
Q 966 3 703 97 
z
M 1959 2075 
Q 2384 2075 2632 2365 
Q 2881 2656 2881 3163 
Q 2881 3666 2632 3958 
Q 2384 4250 1959 4250 
Q 1534 4250 1286 3958 
Q 1038 3666 1038 3163 
Q 1038 2656 1286 2365 
Q 1534 2075 1959 2075 
z
" transform="scale(0.015625)"/>
     </defs>
     <use xlink:href="#DejaVuSans-48"/>
     <use xlink:href="#DejaVuSans-20" x="75.195312"/>
     <use xlink:href="#DejaVuSans-3d" x="106.982422"/>
     <use xlink:href="#DejaVuSans-20" x="190.771484"/>
     <use xlink:href="#DejaVuSans-30" x="222.558594"/>
     <use xlink:href="#DejaVuSans-2e" x="286.181641"/>
     <use xlink:href="#DejaVuSans-39" x="317.96875"/>
     <use xlink:href="#DejaVuSans-39" x="381.591797"/>
    </g>
   </g>
   <g id="line2d_89">
    <path d="M 93.604091 747.804545 
L 95.903235 748.138989 
L 98.20238 748.733288 
L 100.501524 749.663889 
L 102.800668 750.437131 
L 105.099813 751.004129 
L 107.398957 751.813162 
L 109.698102 751.979861 
L 111.997246 751.778672 
L 114.29639 751.243325 
L 116.595535 751.191648 
L 121.193824 751.5945 
L 128.091257 751.861887 
L 130.390401 752.328665 
L 132.689545 752.273856 
L 141.886123 753.789928 
L 144.185267 754.267412 
L 148.783556 753.920149 
L 151.082701 754.091793 
L 153.381845 754.435975 
L 157.980134 755.60629 
L 164.877567 758.839275 
L 169.475856 760.02476 
L 171.775 760.888153 
L 174.074144 761.205782 
L 176.373289 761.643067 
L 178.672433 761.949766 
L 180.971578 761.578224 
L 183.270722 761.563232 
L 185.569866 761.407475 
L 187.869011 761.028024 
L 190.168155 761.165553 
L 199.364733 760.526269 
L 203.963021 761.079608 
L 206.262166 760.901096 
L 208.56131 761.372582 
L 210.860455 761.389411 
L 213.159599 761.588584 
L 215.458743 762.093023 
L 217.757888 762.840121 
L 220.057032 763.40922 
L 222.356176 763.852349 
L 224.655321 764.132603 
L 226.954465 764.86878 
L 229.25361 765.217143 
L 231.552754 765.745137 
L 233.851898 766.670481 
L 243.048476 769.323915 
L 245.34762 769.851602 
L 252.245053 770.678005 
L 256.843342 770.559147 
L 259.142487 770.843658 
L 261.441631 770.843257 
L 263.740775 771.045383 
L 266.03992 770.841382 
L 268.339064 770.889153 
L 270.638209 771.091693 
L 275.236497 771.168703 
L 277.535642 771.151537 
L 279.834786 771.022077 
L 284.433075 771.916689 
L 286.732219 772.141857 
L 291.330508 771.897196 
L 293.629652 772.300341 
L 295.928797 772.254152 
L 298.227941 772.774585 
L 300.527086 773.520923 
L 305.125374 773.212008 
L 307.424519 773.462665 
L 309.723663 774.436687 
L 312.022807 775.132822 
L 314.321952 775.220099 
L 318.920241 776.236353 
L 321.219385 776.44274 
L 328.116818 777.464478 
L 330.415963 777.985227 
L 335.014251 779.464275 
L 337.313396 780.609501 
L 339.61254 781.307373 
L 344.210829 781.075176 
L 346.509973 780.802559 
L 351.108262 780.718286 
L 353.407406 781.07662 
L 355.706551 781.227793 
L 358.005695 781.716872 
L 360.30484 781.996167 
L 364.903128 782.286138 
L 367.202273 782.808047 
L 371.800561 785.103268 
L 374.099706 785.561402 
L 376.39885 786.160444 
L 378.697995 786.330127 
L 380.997139 786.686235 
L 385.595428 788.18587 
L 387.894572 788.576388 
L 394.792005 790.685729 
L 397.09115 791.580398 
L 399.390294 792.721565 
L 401.689439 793.484 
L 403.988583 793.850651 
L 406.287727 794.640123 
L 410.886016 795.685883 
L 415.484305 797.348556 
L 417.783449 797.843878 
L 420.082594 798.800006 
L 422.381738 799.198224 
L 424.680882 799.341896 
L 426.980027 800.223322 
L 429.279171 801.321015 
L 431.578316 802.248975 
L 433.87746 802.630136 
L 436.176604 803.194198 
L 438.475749 803.476189 
L 443.074037 803.34727 
L 445.373182 803.639976 
L 447.672326 804.227376 
L 449.971471 804.55429 
L 452.270615 805.046866 
L 454.569759 805.985355 
L 456.868904 806.472072 
L 461.467193 807.983175 
L 463.766337 809.010801 
L 475.262059 813.307153 
L 477.561203 813.954215 
L 479.860348 814.910032 
L 484.458636 817.128983 
L 486.757781 818.067283 
L 489.056925 818.837734 
L 491.35607 820.025561 
L 493.655214 821.011415 
L 500.552647 822.900749 
L 505.150936 823.504012 
L 509.749225 824.193194 
L 514.347513 825.76696 
L 518.945802 827.870771 
L 521.244947 828.77535 
L 523.544091 829.545902 
L 525.843235 830.572487 
L 528.14238 831.764997 
L 530.441524 833.464187 
L 535.039813 835.626723 
L 537.338957 836.276928 
L 541.937246 836.435758 
L 546.535535 837.498415 
L 548.834679 837.844277 
L 551.133824 838.001782 
L 553.432968 837.973891 
L 555.732112 838.224435 
L 558.031257 839.062106 
L 562.629545 839.431322 
L 569.526979 840.598183 
L 571.826123 840.897993 
L 574.125267 841.009905 
L 576.424412 841.265542 
L 581.022701 841.526583 
L 585.620989 842.562806 
L 592.518422 843.383399 
L 594.817567 843.80186 
L 597.116711 844.004108 
L 604.014144 844.183319 
L 608.612433 843.904692 
L 610.911578 843.428093 
L 613.210722 843.078392 
L 615.509866 842.569257 
L 617.809011 843.496286 
L 620.108155 844.19965 
L 622.407299 844.47953 
L 624.706444 845.385279 
L 633.903021 846.383139 
L 636.202166 847.389112 
L 638.50131 847.980076 
L 640.800455 849.205152 
L 643.099599 850.918311 
L 645.398743 852.114813 
L 647.697888 852.667231 
L 649.997032 852.481448 
L 652.296176 852.596291 
L 654.595321 852.225221 
L 656.894465 851.675533 
L 661.492754 850.876809 
L 663.791898 850.786951 
L 666.091043 850.556002 
L 670.689332 850.279878 
L 672.988476 851.449951 
L 675.28762 851.759884 
L 677.586765 852.319618 
L 679.885909 852.695455 
L 679.885909 852.695455 
" clip-path="url(#p10cf11f03b)" style="fill: none; stroke: #1f77b3; stroke-width: 2.8; stroke-linecap: square"/>
   </g>
  </g>
 </g>
 <defs>
  <clipPath id="p9db5d4827d">
   <rect x="64.29" y="31.2" width="644.91" height="115.38"/>
  </clipPath>
  <clipPath id="pe5b44eb7f0">
   <rect x="64.29" y="209.04" width="644.91" height="115.38"/>
  </clipPath>
  <clipPath id="p226fac4320">
   <rect x="64.29" y="386.88" width="644.91" height="115.38"/>
  </clipPath>
  <clipPath id="pc7bf41e098">
   <rect x="64.29" y="564.72" width="644.91" height="115.38"/>
  </clipPath>
  <clipPath id="p10cf11f03b">
   <rect x="64.29" y="742.56" width="644.91" height="115.38"/>
  </clipPath>
 </defs>
</svg>
