<?xml version="1.0" encoding="utf-8" standalone="no"?>
<!DOCTYPE svg PUBLIC "-//W3C//DTD SVG 1.1//EN"
  "http://www.w3.org/Graphics/SVG/1.1/DTD/svg11.dtd">
<svg xmlns:xlink="http://www.w3.org/1999/xlink" width="648pt" height="342pt" viewBox="0 0 648 342" xmlns="http://www.w3.org/2000/svg" version="1.1">
 <metadata>
  <rdf:RDF xmlns:dc="http://purl.org/dc/elements/1.1/" xmlns:cc="http://creativecommons.org/ns#" xmlns:rdf="http://www.w3.org/1999/02/22-rdf-syntax-ns#">
   <cc:Work>
    <dc:type rdf:resource="http://purl.org/dc/dcmitype/StillImage"/>
    <dc:date>2024-07-05T11:28:55.977657</dc:date>
    <dc:format>image/svg+xml</dc:format>
    <dc:creator>
     <cc:Agent>
      <dc:title>Matplotlib v3.5.1, https://matplotlib.org/</dc:title>
     </cc:Agent>
    </dc:creator>
   </cc:Work>
  </rdf:RDF>
 </metadata>
 <defs>
  <style type="text/css">*{stroke-linejoin: round; stroke-linecap: butt}</style>
 </defs>
 <g id="figure_1">
  <g id="patch_1">
   <path d="M 0 342 
L 648 342 
L 648 0 
L 0 0 
z
" style="fill: #ffffff"/>
  </g>
  <g id="axes_1">
   <g id="patch_2">
    <path d="M 81 304.38 
L 583.2 304.38 
L 583.2 41.04 
L 81 41.04 
L 81 304.38 
z
" style="fill: none; opacity: 0"/>
   </g>
   <g id="matplotlib.axis_1">
    <g id="xtick_1">
     <g id="line2d_1">
      <path d="M 103.827273 304.38 
L 103.827273 41.04 
" clip-path="url(#p632805d3ea)" style="fill: none; stroke: #e6e6e6; stroke-width: 0.8; stroke-linecap: square"/>
     </g>
     <g id="line2d_2">
      <defs>
       <path id="mfcda5a48f0" d="M 0 0 
L 0 3.5 
" style="stroke: #000000; stroke-width: 0.8"/>
      </defs>
      <g>
       <use xlink:href="#mfcda5a48f0" x="103.827273" y="304.38" style="stroke: #000000; stroke-width: 0.8"/>
      </g>
     </g>
     <g id="text_1">
      <!-- 0.0 -->
      <g transform="translate(95.87571 318.978437)scale(0.1 -0.1)">
       <defs>
        <path id="DejaVuSans-30" d="M 2034 4250 
Q 1547 4250 1301 3770 
Q 1056 3291 1056 2328 
Q 1056 1369 1301 889 
Q 1547 409 2034 409 
Q 2525 409 2770 889 
Q 3016 1369 3016 2328 
Q 3016 3291 2770 3770 
Q 2525 4250 2034 4250 
z
M 2034 4750 
Q 2819 4750 3233 4129 
Q 3647 3509 3647 2328 
Q 3647 1150 3233 529 
Q 2819 -91 2034 -91 
Q 1250 -91 836 529 
Q 422 1150 422 2328 
Q 422 3509 836 4129 
Q 1250 4750 2034 4750 
z
" transform="scale(0.015625)"/>
        <path id="DejaVuSans-2e" d="M 684 794 
L 1344 794 
L 1344 0 
L 684 0 
L 684 794 
z
" transform="scale(0.015625)"/>
       </defs>
       <use xlink:href="#DejaVuSans-30"/>
       <use xlink:href="#DejaVuSans-2e" x="63.623047"/>
       <use xlink:href="#DejaVuSans-30" x="95.410156"/>
      </g>
     </g>
    </g>
    <g id="xtick_2">
     <g id="line2d_3">
      <path d="M 195.136364 304.38 
L 195.136364 41.04 
" clip-path="url(#p632805d3ea)" style="fill: none; stroke: #e6e6e6; stroke-width: 0.8; stroke-linecap: square"/>
     </g>
     <g id="line2d_4">
      <g>
       <use xlink:href="#mfcda5a48f0" x="195.136364" y="304.38" style="stroke: #000000; stroke-width: 0.8"/>
      </g>
     </g>
     <g id="text_2">
      <!-- 0.2 -->
      <g transform="translate(187.184801 318.978437)scale(0.1 -0.1)">
       <defs>
        <path id="DejaVuSans-32" d="M 1228 531 
L 3431 531 
L 3431 0 
L 469 0 
L 469 531 
Q 828 903 1448 1529 
Q 2069 2156 2228 2338 
Q 2531 2678 2651 2914 
Q 2772 3150 2772 3378 
Q 2772 3750 2511 3984 
Q 2250 4219 1831 4219 
Q 1534 4219 1204 4116 
Q 875 4013 500 3803 
L 500 4441 
Q 881 4594 1212 4672 
Q 1544 4750 1819 4750 
Q 2544 4750 2975 4387 
Q 3406 4025 3406 3419 
Q 3406 3131 3298 2873 
Q 3191 2616 2906 2266 
Q 2828 2175 2409 1742 
Q 1991 1309 1228 531 
z
" transform="scale(0.015625)"/>
       </defs>
       <use xlink:href="#DejaVuSans-30"/>
       <use xlink:href="#DejaVuSans-2e" x="63.623047"/>
       <use xlink:href="#DejaVuSans-32" x="95.410156"/>
      </g>
     </g>
    </g>
    <g id="xtick_3">
     <g id="line2d_5">
      <path d="M 286.445455 304.38 
L 286.445455 41.04 
" clip-path="url(#p632805d3ea)" style="fill: none; stroke: #e6e6e6; stroke-width: 0.8; stroke-linecap: square"/>
     </g>
     <g id="line2d_6">
      <g>
       <use xlink:href="#mfcda5a48f0" x="286.445455" y="304.38" style="stroke: #000000; stroke-width: 0.8"/>
      </g>
     </g>
     <g id="text_3">
      <!-- 0.4 -->
      <g transform="translate(278.493892 318.978437)scale(0.1 -0.1)">
       <defs>
        <path id="DejaVuSans-34" d="M 2419 4116 
L 825 1625 
L 2419 1625 
L 2419 4116 
z
M 2253 4666 
L 3047 4666 
L 3047 1625 
L 3713 1625 
L 3713 1100 
L 3047 1100 
L 3047 0 
L 2419 0 
L 2419 1100 
L 313 1100 
L 313 1709 
L 2253 4666 
z
" transform="scale(0.015625)"/>
       </defs>
       <use xlink:href="#DejaVuSans-30"/>
       <use xlink:href="#DejaVuSans-2e" x="63.623047"/>
       <use xlink:href="#DejaVuSans-34" x="95.410156"/>
      </g>
     </g>
    </g>
    <g id="xtick_4">
     <g id="line2d_7">
      <path d="M 377.754545 304.38 
L 377.754545 41.04 
" clip-path="url(#p632805d3ea)" style="fill: none; stroke: #e6e6e6; stroke-width: 0.8; stroke-linecap: square"/>
     </g>
     <g id="line2d_8">
      <g>
       <use xlink:href="#mfcda5a48f0" x="377.754545" y="304.38" style="stroke: #000000; stroke-width: 0.8"/>
      </g>
     </g>
     <g id="text_4">
      <!-- 0.6 -->
      <g transform="translate(369.802983 318.978437)scale(0.1 -0.1)">
       <defs>
        <path id="DejaVuSans-36" d="M 2113 2584 
Q 1688 2584 1439 2293 
Q 1191 2003 1191 1497 
Q 1191 994 1439 701 
Q 1688 409 2113 409 
Q 2538 409 2786 701 
Q 3034 994 3034 1497 
Q 3034 2003 2786 2293 
Q 2538 2584 2113 2584 
z
M 3366 4563 
L 3366 3988 
Q 3128 4100 2886 4159 
Q 2644 4219 2406 4219 
Q 1781 4219 1451 3797 
Q 1122 3375 1075 2522 
Q 1259 2794 1537 2939 
Q 1816 3084 2150 3084 
Q 2853 3084 3261 2657 
Q 3669 2231 3669 1497 
Q 3669 778 3244 343 
Q 2819 -91 2113 -91 
Q 1303 -91 875 529 
Q 447 1150 447 2328 
Q 447 3434 972 4092 
Q 1497 4750 2381 4750 
Q 2619 4750 2861 4703 
Q 3103 4656 3366 4563 
z
" transform="scale(0.015625)"/>
       </defs>
       <use xlink:href="#DejaVuSans-30"/>
       <use xlink:href="#DejaVuSans-2e" x="63.623047"/>
       <use xlink:href="#DejaVuSans-36" x="95.410156"/>
      </g>
     </g>
    </g>
    <g id="xtick_5">
     <g id="line2d_9">
      <path d="M 469.063636 304.38 
L 469.063636 41.04 
" clip-path="url(#p632805d3ea)" style="fill: none; stroke: #e6e6e6; stroke-width: 0.8; stroke-linecap: square"/>
     </g>
     <g id="line2d_10">
      <g>
       <use xlink:href="#mfcda5a48f0" x="469.063636" y="304.38" style="stroke: #000000; stroke-width: 0.8"/>
      </g>
     </g>
     <g id="text_5">
      <!-- 0.8 -->
      <g transform="translate(461.112074 318.978437)scale(0.1 -0.1)">
       <defs>
        <path id="DejaVuSans-38" d="M 2034 2216 
Q 1584 2216 1326 1975 
Q 1069 1734 1069 1313 
Q 1069 891 1326 650 
Q 1584 409 2034 409 
Q 2484 409 2743 651 
Q 3003 894 3003 1313 
Q 3003 1734 2745 1975 
Q 2488 2216 2034 2216 
z
M 1403 2484 
Q 997 2584 770 2862 
Q 544 3141 544 3541 
Q 544 4100 942 4425 
Q 1341 4750 2034 4750 
Q 2731 4750 3128 4425 
Q 3525 4100 3525 3541 
Q 3525 3141 3298 2862 
Q 3072 2584 2669 2484 
Q 3125 2378 3379 2068 
Q 3634 1759 3634 1313 
Q 3634 634 3220 271 
Q 2806 -91 2034 -91 
Q 1263 -91 848 271 
Q 434 634 434 1313 
Q 434 1759 690 2068 
Q 947 2378 1403 2484 
z
M 1172 3481 
Q 1172 3119 1398 2916 
Q 1625 2713 2034 2713 
Q 2441 2713 2670 2916 
Q 2900 3119 2900 3481 
Q 2900 3844 2670 4047 
Q 2441 4250 2034 4250 
Q 1625 4250 1398 4047 
Q 1172 3844 1172 3481 
z
" transform="scale(0.015625)"/>
       </defs>
       <use xlink:href="#DejaVuSans-30"/>
       <use xlink:href="#DejaVuSans-2e" x="63.623047"/>
       <use xlink:href="#DejaVuSans-38" x="95.410156"/>
      </g>
     </g>
    </g>
    <g id="xtick_6">
     <g id="line2d_11">
      <path d="M 560.372727 304.38 
L 560.372727 41.04 
" clip-path="url(#p632805d3ea)" style="fill: none; stroke: #e6e6e6; stroke-width: 0.8; stroke-linecap: square"/>
     </g>
     <g id="line2d_12">
      <g>
       <use xlink:href="#mfcda5a48f0" x="560.372727" y="304.38" style="stroke: #000000; stroke-width: 0.8"/>
      </g>
     </g>
     <g id="text_6">
      <!-- 1.0 -->
      <g transform="translate(552.421165 318.978437)scale(0.1 -0.1)">
       <defs>
        <path id="DejaVuSans-31" d="M 794 531 
L 1825 531 
L 1825 4091 
L 703 3866 
L 703 4441 
L 1819 4666 
L 2450 4666 
L 2450 531 
L 3481 531 
L 3481 0 
L 794 0 
L 794 531 
z
" transform="scale(0.015625)"/>
       </defs>
       <use xlink:href="#DejaVuSans-31"/>
       <use xlink:href="#DejaVuSans-2e" x="63.623047"/>
       <use xlink:href="#DejaVuSans-30" x="95.410156"/>
      </g>
     </g>
    </g>
    <g id="text_7">
     <!-- d + 1/2 -->
     <g transform="translate(313.510938 332.656563)scale(0.1 -0.1)">
      <defs>
       <path id="DejaVuSans-64" d="M 2906 2969 
L 2906 4863 
L 3481 4863 
L 3481 0 
L 2906 0 
L 2906 525 
Q 2725 213 2448 61 
Q 2172 -91 1784 -91 
Q 1150 -91 751 415 
Q 353 922 353 1747 
Q 353 2572 751 3078 
Q 1150 3584 1784 3584 
Q 2172 3584 2448 3432 
Q 2725 3281 2906 2969 
z
M 947 1747 
Q 947 1113 1208 752 
Q 1469 391 1925 391 
Q 2381 391 2643 752 
Q 2906 1113 2906 1747 
Q 2906 2381 2643 2742 
Q 2381 3103 1925 3103 
Q 1469 3103 1208 2742 
Q 947 2381 947 1747 
z
" transform="scale(0.015625)"/>
       <path id="DejaVuSans-20" transform="scale(0.015625)"/>
       <path id="DejaVuSans-2b" d="M 2944 4013 
L 2944 2272 
L 4684 2272 
L 4684 1741 
L 2944 1741 
L 2944 0 
L 2419 0 
L 2419 1741 
L 678 1741 
L 678 2272 
L 2419 2272 
L 2419 4013 
L 2944 4013 
z
" transform="scale(0.015625)"/>
       <path id="DejaVuSans-2f" d="M 1625 4666 
L 2156 4666 
L 531 -594 
L 0 -594 
L 1625 4666 
z
" transform="scale(0.015625)"/>
      </defs>
      <use xlink:href="#DejaVuSans-64"/>
      <use xlink:href="#DejaVuSans-20" x="63.476562"/>
      <use xlink:href="#DejaVuSans-2b" x="95.263672"/>
      <use xlink:href="#DejaVuSans-20" x="179.052734"/>
      <use xlink:href="#DejaVuSans-31" x="210.839844"/>
      <use xlink:href="#DejaVuSans-2f" x="274.462891"/>
      <use xlink:href="#DejaVuSans-32" x="308.154297"/>
     </g>
    </g>
   </g>
   <g id="matplotlib.axis_2">
    <g id="ytick_1">
     <g id="line2d_13">
      <path d="M 81 300.373952 
L 583.2 300.373952 
" clip-path="url(#p632805d3ea)" style="fill: none; stroke: #e6e6e6; stroke-width: 0.8; stroke-linecap: square"/>
     </g>
     <g id="line2d_14">
      <defs>
       <path id="me9577fcca3" d="M 0 0 
L -3.5 0 
" style="stroke: #000000; stroke-width: 0.8"/>
      </defs>
      <g>
       <use xlink:href="#me9577fcca3" x="81" y="300.373952" style="stroke: #000000; stroke-width: 0.8"/>
      </g>
     </g>
     <g id="text_8">
      <!-- −0.10 -->
      <g transform="translate(43.354687 304.173171)scale(0.1 -0.1)">
       <defs>
        <path id="DejaVuSans-2212" d="M 678 2272 
L 4684 2272 
L 4684 1741 
L 678 1741 
L 678 2272 
z
" transform="scale(0.015625)"/>
       </defs>
       <use xlink:href="#DejaVuSans-2212"/>
       <use xlink:href="#DejaVuSans-30" x="83.789062"/>
       <use xlink:href="#DejaVuSans-2e" x="147.412109"/>
       <use xlink:href="#DejaVuSans-31" x="179.199219"/>
       <use xlink:href="#DejaVuSans-30" x="242.822266"/>
      </g>
     </g>
    </g>
    <g id="ytick_2">
     <g id="line2d_15">
      <path d="M 81 259.334009 
L 583.2 259.334009 
" clip-path="url(#p632805d3ea)" style="fill: none; stroke: #e6e6e6; stroke-width: 0.8; stroke-linecap: square"/>
     </g>
     <g id="line2d_16">
      <g>
       <use xlink:href="#me9577fcca3" x="81" y="259.334009" style="stroke: #000000; stroke-width: 0.8"/>
      </g>
     </g>
     <g id="text_9">
      <!-- −0.05 -->
      <g transform="translate(43.354687 263.133228)scale(0.1 -0.1)">
       <defs>
        <path id="DejaVuSans-35" d="M 691 4666 
L 3169 4666 
L 3169 4134 
L 1269 4134 
L 1269 2991 
Q 1406 3038 1543 3061 
Q 1681 3084 1819 3084 
Q 2600 3084 3056 2656 
Q 3513 2228 3513 1497 
Q 3513 744 3044 326 
Q 2575 -91 1722 -91 
Q 1428 -91 1123 -41 
Q 819 9 494 109 
L 494 744 
Q 775 591 1075 516 
Q 1375 441 1709 441 
Q 2250 441 2565 725 
Q 2881 1009 2881 1497 
Q 2881 1984 2565 2268 
Q 2250 2553 1709 2553 
Q 1456 2553 1204 2497 
Q 953 2441 691 2322 
L 691 4666 
z
" transform="scale(0.015625)"/>
       </defs>
       <use xlink:href="#DejaVuSans-2212"/>
       <use xlink:href="#DejaVuSans-30" x="83.789062"/>
       <use xlink:href="#DejaVuSans-2e" x="147.412109"/>
       <use xlink:href="#DejaVuSans-30" x="179.199219"/>
       <use xlink:href="#DejaVuSans-35" x="242.822266"/>
      </g>
     </g>
    </g>
    <g id="ytick_3">
     <g id="line2d_17">
      <path d="M 81 218.294066 
L 583.2 218.294066 
" clip-path="url(#p632805d3ea)" style="fill: none; stroke: #e6e6e6; stroke-width: 0.8; stroke-linecap: square"/>
     </g>
     <g id="line2d_18">
      <g>
       <use xlink:href="#me9577fcca3" x="81" y="218.294066" style="stroke: #000000; stroke-width: 0.8"/>
      </g>
     </g>
     <g id="text_10">
      <!-- 0.00 -->
      <g transform="translate(51.734375 222.093284)scale(0.1 -0.1)">
       <use xlink:href="#DejaVuSans-30"/>
       <use xlink:href="#DejaVuSans-2e" x="63.623047"/>
       <use xlink:href="#DejaVuSans-30" x="95.410156"/>
       <use xlink:href="#DejaVuSans-30" x="159.033203"/>
      </g>
     </g>
    </g>
    <g id="ytick_4">
     <g id="line2d_19">
      <path d="M 81 177.254122 
L 583.2 177.254122 
" clip-path="url(#p632805d3ea)" style="fill: none; stroke: #e6e6e6; stroke-width: 0.8; stroke-linecap: square"/>
     </g>
     <g id="line2d_20">
      <g>
       <use xlink:href="#me9577fcca3" x="81" y="177.254122" style="stroke: #000000; stroke-width: 0.8"/>
      </g>
     </g>
     <g id="text_11">
      <!-- 0.05 -->
      <g transform="translate(51.734375 181.053341)scale(0.1 -0.1)">
       <use xlink:href="#DejaVuSans-30"/>
       <use xlink:href="#DejaVuSans-2e" x="63.623047"/>
       <use xlink:href="#DejaVuSans-30" x="95.410156"/>
       <use xlink:href="#DejaVuSans-35" x="159.033203"/>
      </g>
     </g>
    </g>
    <g id="ytick_5">
     <g id="line2d_21">
      <path d="M 81 136.214179 
L 583.2 136.214179 
" clip-path="url(#p632805d3ea)" style="fill: none; stroke: #e6e6e6; stroke-width: 0.8; stroke-linecap: square"/>
     </g>
     <g id="line2d_22">
      <g>
       <use xlink:href="#me9577fcca3" x="81" y="136.214179" style="stroke: #000000; stroke-width: 0.8"/>
      </g>
     </g>
     <g id="text_12">
      <!-- 0.10 -->
      <g transform="translate(51.734375 140.013398)scale(0.1 -0.1)">
       <use xlink:href="#DejaVuSans-30"/>
       <use xlink:href="#DejaVuSans-2e" x="63.623047"/>
       <use xlink:href="#DejaVuSans-31" x="95.410156"/>
       <use xlink:href="#DejaVuSans-30" x="159.033203"/>
      </g>
     </g>
    </g>
    <g id="ytick_6">
     <g id="line2d_23">
      <path d="M 81 95.174235 
L 583.2 95.174235 
" clip-path="url(#p632805d3ea)" style="fill: none; stroke: #e6e6e6; stroke-width: 0.8; stroke-linecap: square"/>
     </g>
     <g id="line2d_24">
      <g>
       <use xlink:href="#me9577fcca3" x="81" y="95.174235" style="stroke: #000000; stroke-width: 0.8"/>
      </g>
     </g>
     <g id="text_13">
      <!-- 0.15 -->
      <g transform="translate(51.734375 98.973454)scale(0.1 -0.1)">
       <use xlink:href="#DejaVuSans-30"/>
       <use xlink:href="#DejaVuSans-2e" x="63.623047"/>
       <use xlink:href="#DejaVuSans-31" x="95.410156"/>
       <use xlink:href="#DejaVuSans-35" x="159.033203"/>
      </g>
     </g>
    </g>
    <g id="ytick_7">
     <g id="line2d_25">
      <path d="M 81 54.134292 
L 583.2 54.134292 
" clip-path="url(#p632805d3ea)" style="fill: none; stroke: #e6e6e6; stroke-width: 0.8; stroke-linecap: square"/>
     </g>
     <g id="line2d_26">
      <g>
       <use xlink:href="#me9577fcca3" x="81" y="54.134292" style="stroke: #000000; stroke-width: 0.8"/>
      </g>
     </g>
     <g id="text_14">
      <!-- 0.20 -->
      <g transform="translate(51.734375 57.933511)scale(0.1 -0.1)">
       <use xlink:href="#DejaVuSans-30"/>
       <use xlink:href="#DejaVuSans-2e" x="63.623047"/>
       <use xlink:href="#DejaVuSans-32" x="95.410156"/>
       <use xlink:href="#DejaVuSans-30" x="159.033203"/>
      </g>
     </g>
    </g>
    <g id="text_15">
     <!-- bias -->
     <g transform="translate(37.275 182.942031)rotate(-90)scale(0.1 -0.1)">
      <defs>
       <path id="DejaVuSans-62" d="M 3116 1747 
Q 3116 2381 2855 2742 
Q 2594 3103 2138 3103 
Q 1681 3103 1420 2742 
Q 1159 2381 1159 1747 
Q 1159 1113 1420 752 
Q 1681 391 2138 391 
Q 2594 391 2855 752 
Q 3116 1113 3116 1747 
z
M 1159 2969 
Q 1341 3281 1617 3432 
Q 1894 3584 2278 3584 
Q 2916 3584 3314 3078 
Q 3713 2572 3713 1747 
Q 3713 922 3314 415 
Q 2916 -91 2278 -91 
Q 1894 -91 1617 61 
Q 1341 213 1159 525 
L 1159 0 
L 581 0 
L 581 4863 
L 1159 4863 
L 1159 2969 
z
" transform="scale(0.015625)"/>
       <path id="DejaVuSans-69" d="M 603 3500 
L 1178 3500 
L 1178 0 
L 603 0 
L 603 3500 
z
M 603 4863 
L 1178 4863 
L 1178 4134 
L 603 4134 
L 603 4863 
z
" transform="scale(0.015625)"/>
       <path id="DejaVuSans-61" d="M 2194 1759 
Q 1497 1759 1228 1600 
Q 959 1441 959 1056 
Q 959 750 1161 570 
Q 1363 391 1709 391 
Q 2188 391 2477 730 
Q 2766 1069 2766 1631 
L 2766 1759 
L 2194 1759 
z
M 3341 1997 
L 3341 0 
L 2766 0 
L 2766 531 
Q 2569 213 2275 61 
Q 1981 -91 1556 -91 
Q 1019 -91 701 211 
Q 384 513 384 1019 
Q 384 1609 779 1909 
Q 1175 2209 1959 2209 
L 2766 2209 
L 2766 2266 
Q 2766 2663 2505 2880 
Q 2244 3097 1772 3097 
Q 1472 3097 1187 3025 
Q 903 2953 641 2809 
L 641 3341 
Q 956 3463 1253 3523 
Q 1550 3584 1831 3584 
Q 2591 3584 2966 3190 
Q 3341 2797 3341 1997 
z
" transform="scale(0.015625)"/>
       <path id="DejaVuSans-73" d="M 2834 3397 
L 2834 2853 
Q 2591 2978 2328 3040 
Q 2066 3103 1784 3103 
Q 1356 3103 1142 2972 
Q 928 2841 928 2578 
Q 928 2378 1081 2264 
Q 1234 2150 1697 2047 
L 1894 2003 
Q 2506 1872 2764 1633 
Q 3022 1394 3022 966 
Q 3022 478 2636 193 
Q 2250 -91 1575 -91 
Q 1294 -91 989 -36 
Q 684 19 347 128 
L 347 722 
Q 666 556 975 473 
Q 1284 391 1588 391 
Q 1994 391 2212 530 
Q 2431 669 2431 922 
Q 2431 1156 2273 1281 
Q 2116 1406 1581 1522 
L 1381 1569 
Q 847 1681 609 1914 
Q 372 2147 372 2553 
Q 372 3047 722 3315 
Q 1072 3584 1716 3584 
Q 2034 3584 2315 3537 
Q 2597 3491 2834 3397 
z
" transform="scale(0.015625)"/>
      </defs>
      <use xlink:href="#DejaVuSans-62"/>
      <use xlink:href="#DejaVuSans-69" x="63.476562"/>
      <use xlink:href="#DejaVuSans-61" x="91.259766"/>
      <use xlink:href="#DejaVuSans-73" x="152.539062"/>
     </g>
    </g>
   </g>
   <g id="patch_3">
    <path d="M 81 304.38 
L 81 41.04 
" style="fill: none; stroke: #000000; stroke-width: 0.8; stroke-linejoin: miter; stroke-linecap: square"/>
   </g>
   <g id="patch_4">
    <path d="M 583.2 304.38 
L 583.2 41.04 
" style="fill: none; stroke: #e6e6e6; stroke-width: 0.8; stroke-linejoin: miter; stroke-linecap: square"/>
   </g>
   <g id="patch_5">
    <path d="M 81 304.38 
L 583.2 304.38 
" style="fill: none; stroke: #000000; stroke-width: 0.8; stroke-linejoin: miter; stroke-linecap: square"/>
   </g>
   <g id="patch_6">
    <path d="M 81 41.04 
L 583.2 41.04 
" style="fill: none; stroke: #e6e6e6; stroke-width: 0.8; stroke-linejoin: miter; stroke-linecap: square"/>
   </g>
   <g id="text_16">
    <!-- Biases (steps: 250, interval:+-0.02) -->
    <g transform="translate(225.360938 35.04)scale(0.12 -0.12)">
     <defs>
      <path id="DejaVuSans-42" d="M 1259 2228 
L 1259 519 
L 2272 519 
Q 2781 519 3026 730 
Q 3272 941 3272 1375 
Q 3272 1813 3026 2020 
Q 2781 2228 2272 2228 
L 1259 2228 
z
M 1259 4147 
L 1259 2741 
L 2194 2741 
Q 2656 2741 2882 2914 
Q 3109 3088 3109 3444 
Q 3109 3797 2882 3972 
Q 2656 4147 2194 4147 
L 1259 4147 
z
M 628 4666 
L 2241 4666 
Q 2963 4666 3353 4366 
Q 3744 4066 3744 3513 
Q 3744 3084 3544 2831 
Q 3344 2578 2956 2516 
Q 3422 2416 3680 2098 
Q 3938 1781 3938 1306 
Q 3938 681 3513 340 
Q 3088 0 2303 0 
L 628 0 
L 628 4666 
z
" transform="scale(0.015625)"/>
      <path id="DejaVuSans-65" d="M 3597 1894 
L 3597 1613 
L 953 1613 
Q 991 1019 1311 708 
Q 1631 397 2203 397 
Q 2534 397 2845 478 
Q 3156 559 3463 722 
L 3463 178 
Q 3153 47 2828 -22 
Q 2503 -91 2169 -91 
Q 1331 -91 842 396 
Q 353 884 353 1716 
Q 353 2575 817 3079 
Q 1281 3584 2069 3584 
Q 2775 3584 3186 3129 
Q 3597 2675 3597 1894 
z
M 3022 2063 
Q 3016 2534 2758 2815 
Q 2500 3097 2075 3097 
Q 1594 3097 1305 2825 
Q 1016 2553 972 2059 
L 3022 2063 
z
" transform="scale(0.015625)"/>
      <path id="DejaVuSans-28" d="M 1984 4856 
Q 1566 4138 1362 3434 
Q 1159 2731 1159 2009 
Q 1159 1288 1364 580 
Q 1569 -128 1984 -844 
L 1484 -844 
Q 1016 -109 783 600 
Q 550 1309 550 2009 
Q 550 2706 781 3412 
Q 1013 4119 1484 4856 
L 1984 4856 
z
" transform="scale(0.015625)"/>
      <path id="DejaVuSans-74" d="M 1172 4494 
L 1172 3500 
L 2356 3500 
L 2356 3053 
L 1172 3053 
L 1172 1153 
Q 1172 725 1289 603 
Q 1406 481 1766 481 
L 2356 481 
L 2356 0 
L 1766 0 
Q 1100 0 847 248 
Q 594 497 594 1153 
L 594 3053 
L 172 3053 
L 172 3500 
L 594 3500 
L 594 4494 
L 1172 4494 
z
" transform="scale(0.015625)"/>
      <path id="DejaVuSans-70" d="M 1159 525 
L 1159 -1331 
L 581 -1331 
L 581 3500 
L 1159 3500 
L 1159 2969 
Q 1341 3281 1617 3432 
Q 1894 3584 2278 3584 
Q 2916 3584 3314 3078 
Q 3713 2572 3713 1747 
Q 3713 922 3314 415 
Q 2916 -91 2278 -91 
Q 1894 -91 1617 61 
Q 1341 213 1159 525 
z
M 3116 1747 
Q 3116 2381 2855 2742 
Q 2594 3103 2138 3103 
Q 1681 3103 1420 2742 
Q 1159 2381 1159 1747 
Q 1159 1113 1420 752 
Q 1681 391 2138 391 
Q 2594 391 2855 752 
Q 3116 1113 3116 1747 
z
" transform="scale(0.015625)"/>
      <path id="DejaVuSans-3a" d="M 750 794 
L 1409 794 
L 1409 0 
L 750 0 
L 750 794 
z
M 750 3309 
L 1409 3309 
L 1409 2516 
L 750 2516 
L 750 3309 
z
" transform="scale(0.015625)"/>
      <path id="DejaVuSans-2c" d="M 750 794 
L 1409 794 
L 1409 256 
L 897 -744 
L 494 -744 
L 750 256 
L 750 794 
z
" transform="scale(0.015625)"/>
      <path id="DejaVuSans-6e" d="M 3513 2113 
L 3513 0 
L 2938 0 
L 2938 2094 
Q 2938 2591 2744 2837 
Q 2550 3084 2163 3084 
Q 1697 3084 1428 2787 
Q 1159 2491 1159 1978 
L 1159 0 
L 581 0 
L 581 3500 
L 1159 3500 
L 1159 2956 
Q 1366 3272 1645 3428 
Q 1925 3584 2291 3584 
Q 2894 3584 3203 3211 
Q 3513 2838 3513 2113 
z
" transform="scale(0.015625)"/>
      <path id="DejaVuSans-72" d="M 2631 2963 
Q 2534 3019 2420 3045 
Q 2306 3072 2169 3072 
Q 1681 3072 1420 2755 
Q 1159 2438 1159 1844 
L 1159 0 
L 581 0 
L 581 3500 
L 1159 3500 
L 1159 2956 
Q 1341 3275 1631 3429 
Q 1922 3584 2338 3584 
Q 2397 3584 2469 3576 
Q 2541 3569 2628 3553 
L 2631 2963 
z
" transform="scale(0.015625)"/>
      <path id="DejaVuSans-76" d="M 191 3500 
L 800 3500 
L 1894 563 
L 2988 3500 
L 3597 3500 
L 2284 0 
L 1503 0 
L 191 3500 
z
" transform="scale(0.015625)"/>
      <path id="DejaVuSans-6c" d="M 603 4863 
L 1178 4863 
L 1178 0 
L 603 0 
L 603 4863 
z
" transform="scale(0.015625)"/>
      <path id="DejaVuSans-2d" d="M 313 2009 
L 1997 2009 
L 1997 1497 
L 313 1497 
L 313 2009 
z
" transform="scale(0.015625)"/>
      <path id="DejaVuSans-29" d="M 513 4856 
L 1013 4856 
Q 1481 4119 1714 3412 
Q 1947 2706 1947 2009 
Q 1947 1309 1714 600 
Q 1481 -109 1013 -844 
L 513 -844 
Q 928 -128 1133 580 
Q 1338 1288 1338 2009 
Q 1338 2731 1133 3434 
Q 928 4138 513 4856 
z
" transform="scale(0.015625)"/>
     </defs>
     <use xlink:href="#DejaVuSans-42"/>
     <use xlink:href="#DejaVuSans-69" x="68.603516"/>
     <use xlink:href="#DejaVuSans-61" x="96.386719"/>
     <use xlink:href="#DejaVuSans-73" x="157.666016"/>
     <use xlink:href="#DejaVuSans-65" x="209.765625"/>
     <use xlink:href="#DejaVuSans-73" x="271.289062"/>
     <use xlink:href="#DejaVuSans-20" x="323.388672"/>
     <use xlink:href="#DejaVuSans-28" x="355.175781"/>
     <use xlink:href="#DejaVuSans-73" x="394.189453"/>
     <use xlink:href="#DejaVuSans-74" x="446.289062"/>
     <use xlink:href="#DejaVuSans-65" x="485.498047"/>
     <use xlink:href="#DejaVuSans-70" x="547.021484"/>
     <use xlink:href="#DejaVuSans-73" x="610.498047"/>
     <use xlink:href="#DejaVuSans-3a" x="662.597656"/>
     <use xlink:href="#DejaVuSans-20" x="696.289062"/>
     <use xlink:href="#DejaVuSans-32" x="728.076172"/>
     <use xlink:href="#DejaVuSans-35" x="791.699219"/>
     <use xlink:href="#DejaVuSans-30" x="855.322266"/>
     <use xlink:href="#DejaVuSans-2c" x="918.945312"/>
     <use xlink:href="#DejaVuSans-20" x="950.732422"/>
     <use xlink:href="#DejaVuSans-69" x="982.519531"/>
     <use xlink:href="#DejaVuSans-6e" x="1010.302734"/>
     <use xlink:href="#DejaVuSans-74" x="1073.681641"/>
     <use xlink:href="#DejaVuSans-65" x="1112.890625"/>
     <use xlink:href="#DejaVuSans-72" x="1174.414062"/>
     <use xlink:href="#DejaVuSans-76" x="1215.527344"/>
     <use xlink:href="#DejaVuSans-61" x="1274.707031"/>
     <use xlink:href="#DejaVuSans-6c" x="1335.986328"/>
     <use xlink:href="#DejaVuSans-3a" x="1363.769531"/>
     <use xlink:href="#DejaVuSans-2b" x="1397.460938"/>
     <use xlink:href="#DejaVuSans-2d" x="1481.25"/>
     <use xlink:href="#DejaVuSans-30" x="1517.333984"/>
     <use xlink:href="#DejaVuSans-2e" x="1580.957031"/>
     <use xlink:href="#DejaVuSans-30" x="1612.744141"/>
     <use xlink:href="#DejaVuSans-32" x="1676.367188"/>
     <use xlink:href="#DejaVuSans-29" x="1739.990234"/>
    </g>
   </g>
   <g id="line2d_27">
    <path d="M 103.827273 53.741604 
L 107.494304 55.953237 
L 109.32782 56.747405 
L 111.161336 57.301471 
L 112.994852 58.185372 
L 116.661884 61.787174 
L 118.4954 63.619313 
L 122.162432 67.745645 
L 123.995947 69.115522 
L 125.829463 70.927639 
L 127.662979 72.12637 
L 129.496495 73.60213 
L 131.330011 75.305668 
L 133.163527 77.342823 
L 134.997043 78.823746 
L 142.331106 85.968373 
L 144.164622 88.044201 
L 147.831654 91.127038 
L 151.498686 93.693968 
L 153.332202 95.205402 
L 156.999233 97.78646 
L 162.499781 101.47039 
L 164.333297 102.53089 
L 166.166813 103.926364 
L 168.000329 105.798234 
L 169.833844 107.426032 
L 171.66736 109.308378 
L 173.500876 110.404833 
L 175.334392 112.41682 
L 177.167908 113.303688 
L 179.001424 114.682867 
L 182.668456 116.470877 
L 184.501972 118.034345 
L 186.335487 118.970091 
L 188.169003 120.617414 
L 190.002519 121.805585 
L 191.836035 123.422116 
L 195.503067 125.628415 
L 197.336583 126.528862 
L 199.170099 128.102797 
L 201.003614 129.333895 
L 202.83713 130.28179 
L 204.670646 131.490626 
L 206.504162 132.154314 
L 208.337678 133.383578 
L 212.00471 134.283888 
L 213.838226 135.548884 
L 215.671742 136.509807 
L 217.505257 137.320952 
L 224.839321 141.575872 
L 226.672837 142.743757 
L 230.339869 145.591787 
L 232.173384 146.466372 
L 234.0069 147.170749 
L 235.840416 148.010092 
L 237.673932 148.652586 
L 239.507448 149.893455 
L 245.007996 152.442727 
L 246.841512 153.037905 
L 248.675027 153.819092 
L 250.508543 155.093256 
L 257.842607 158.462173 
L 259.676123 159.469822 
L 261.509639 159.652935 
L 263.343154 160.448557 
L 265.17667 161.8484 
L 267.010186 162.480608 
L 268.843702 162.264714 
L 270.677218 163.09875 
L 272.510734 163.739083 
L 274.34425 165.189731 
L 278.011281 166.589729 
L 279.844797 167.803231 
L 281.678313 167.889455 
L 285.345345 169.083331 
L 287.178861 170.11526 
L 289.012377 170.759818 
L 290.845893 171.637512 
L 292.679409 171.476131 
L 294.512924 172.130486 
L 296.34644 172.922364 
L 298.179956 173.370847 
L 301.846988 174.731256 
L 303.680504 175.86242 
L 307.347536 177.854593 
L 311.014567 179.024564 
L 312.848083 179.076665 
L 314.681599 179.496374 
L 316.515115 180.402026 
L 318.348631 181.163751 
L 320.182147 181.674391 
L 322.015663 181.82401 
L 323.849179 182.608099 
L 325.682694 183.134862 
L 327.51621 183.818216 
L 329.349726 183.864788 
L 331.183242 184.623996 
L 333.016758 185.580694 
L 334.850274 186.240772 
L 336.68379 186.451801 
L 338.517306 186.993281 
L 340.350821 187.851682 
L 342.184337 188.026005 
L 344.017853 188.043206 
L 345.851369 188.375763 
L 347.684885 189.093033 
L 351.351917 189.617065 
L 353.185433 190.167501 
L 355.018949 191.487566 
L 356.852464 191.976464 
L 358.68598 192.192996 
L 360.519496 193.570442 
L 362.353012 193.723095 
L 366.020044 194.912592 
L 369.687076 196.889763 
L 373.354107 197.371731 
L 375.187623 198.474308 
L 377.021139 200.058722 
L 378.854655 199.719191 
L 382.521687 201.124932 
L 384.355203 202.03225 
L 386.188719 202.252502 
L 388.022234 202.909227 
L 389.85575 203.942274 
L 391.689266 204.407101 
L 393.522782 205.008613 
L 397.189814 205.686225 
L 399.02333 206.702146 
L 400.856846 206.454359 
L 402.690361 205.700797 
L 406.357393 205.002825 
L 410.024425 205.413636 
L 411.857941 205.327388 
L 415.524973 206.1665 
L 417.358488 207.154775 
L 419.192004 208.629887 
L 421.02552 210.289601 
L 426.526068 213.464628 
L 430.1931 213.752617 
L 433.860131 214.786208 
L 435.693647 215.366046 
L 437.527163 216.564442 
L 439.360679 216.628886 
L 441.194195 217.022352 
L 443.027711 218.215575 
L 444.861227 218.688754 
L 446.694743 220.491775 
L 448.528258 221.389086 
L 450.361774 221.850238 
L 452.19529 222.628092 
L 454.028806 221.790752 
L 455.862322 221.940654 
L 457.695838 223.576079 
L 459.529354 224.870172 
L 461.36287 225.565538 
L 463.196386 225.485636 
L 465.029901 224.62375 
L 466.863417 225.697414 
L 468.696933 225.64247 
L 470.530449 226.449037 
L 472.363965 228.053869 
L 474.197481 228.153507 
L 476.030997 229.091684 
L 477.864513 229.625343 
L 479.698028 230.015843 
L 481.531544 232.006877 
L 483.36506 234.16851 
L 485.198576 234.869906 
L 487.032092 236.189935 
L 488.865608 236.235638 
L 490.699124 236.694195 
L 492.53264 237.98369 
L 494.366156 238.721762 
L 496.199671 237.83032 
L 498.033187 238.411798 
L 499.866703 238.736285 
L 501.700219 238.9146 
L 507.200767 240.440576 
L 510.867798 241.955143 
L 512.701314 243.222391 
L 514.53483 244.894868 
L 516.368346 246.342939 
L 518.201862 246.641739 
L 520.035378 248.487182 
L 521.868894 249.089378 
L 523.70241 251.173703 
L 525.535926 252.824923 
L 527.369441 254.806403 
L 529.202957 255.967763 
L 531.036473 256.406289 
L 532.869989 258.444042 
L 534.703505 259.141324 
L 536.537021 260.266276 
L 540.204053 263.628306 
L 542.037568 264.422409 
L 543.871084 266.756267 
L 545.7046 267.896948 
L 549.371632 272.268514 
L 551.205148 273.299761 
L 554.87218 275.884246 
L 556.705696 276.614271 
L 560.372727 279.470592 
L 560.372727 279.470592 
" clip-path="url(#p632805d3ea)" style="fill: none; stroke-dasharray: 1.5,2.475; stroke-dashoffset: 0; stroke: #ff0000; stroke-width: 1.5"/>
   </g>
   <g id="line2d_28">
    <path d="M 103.827273 53.01 
L 112.994852 57.105912 
L 114.828368 58.822025 
L 118.4954 61.957985 
L 120.328916 63.726357 
L 122.162432 65.696804 
L 123.995947 66.962826 
L 125.829463 68.686904 
L 129.496495 71.303931 
L 131.330011 72.752079 
L 136.830559 78.148359 
L 140.49759 82.102463 
L 142.331106 83.593275 
L 144.164622 85.761763 
L 145.998138 86.634673 
L 147.831654 87.856549 
L 151.498686 90.995242 
L 153.332202 92.809644 
L 158.832749 96.5477 
L 160.666265 97.641821 
L 162.499781 99.163499 
L 164.333297 100.872915 
L 166.166813 102.243127 
L 168.000329 104.231701 
L 171.66736 107.818971 
L 173.500876 109.242246 
L 175.334392 111.222873 
L 177.167908 112.635172 
L 179.001424 114.344963 
L 182.668456 117.294069 
L 184.501972 119.100132 
L 188.169003 121.722578 
L 190.002519 123.616265 
L 193.669551 126.01365 
L 199.170099 130.493074 
L 201.003614 131.490729 
L 204.670646 134.440642 
L 206.504162 135.749816 
L 208.337678 137.234645 
L 210.171194 139.201292 
L 213.838226 141.927661 
L 215.671742 143.108019 
L 219.338773 145.690543 
L 223.005805 148.816624 
L 224.839321 150.189513 
L 228.506353 152.317812 
L 230.339869 153.724418 
L 232.173384 155.416297 
L 239.507448 160.198175 
L 241.340964 161.336832 
L 245.007996 163.991351 
L 248.675027 166.538483 
L 250.508543 167.95769 
L 252.342059 168.945293 
L 256.009091 171.152999 
L 259.676123 173.8462 
L 261.509639 175.098424 
L 263.343154 176.121541 
L 265.17667 177.359138 
L 267.010186 178.788367 
L 270.677218 180.940056 
L 274.34425 183.43552 
L 276.177766 184.583921 
L 278.011281 185.957701 
L 281.678313 188.257037 
L 285.345345 190.936397 
L 289.012377 192.39003 
L 290.845893 193.860425 
L 294.512924 195.385236 
L 296.34644 196.555029 
L 298.179956 197.452547 
L 300.013472 198.113693 
L 301.846988 198.946832 
L 309.181051 202.903492 
L 312.848083 204.731172 
L 314.681599 205.315923 
L 316.515115 206.546743 
L 318.348631 207.578336 
L 322.015663 209.254889 
L 323.849179 210.146583 
L 325.682694 211.166307 
L 327.51621 211.779803 
L 331.183242 213.648871 
L 336.68379 215.829855 
L 338.517306 216.417253 
L 340.350821 217.329905 
L 342.184337 217.828211 
L 344.017853 218.651924 
L 349.518401 220.450966 
L 353.185433 221.975096 
L 355.018949 222.651089 
L 356.852464 223.445766 
L 358.68598 223.808478 
L 360.519496 224.608329 
L 362.353012 225.032989 
L 364.186528 225.80578 
L 367.85356 226.557967 
L 375.187623 229.133339 
L 377.021139 230.088064 
L 380.688171 230.909403 
L 382.521687 231.228176 
L 384.355203 231.860604 
L 388.022234 232.87667 
L 393.522782 233.628109 
L 397.189814 233.715565 
L 402.690361 234.652816 
L 404.523877 234.746881 
L 406.357393 235.156123 
L 411.857941 235.552672 
L 413.691457 235.34341 
L 417.358488 235.388674 
L 419.192004 235.483417 
L 421.02552 234.683721 
L 422.859036 234.938079 
L 424.692552 234.744209 
L 430.1931 234.769083 
L 432.026616 235.133227 
L 433.860131 235.164721 
L 435.693647 234.995989 
L 437.527163 235.038919 
L 439.360679 235.383203 
L 443.027711 235.710749 
L 444.861227 235.979151 
L 446.694743 236.075327 
L 448.528258 235.989342 
L 450.361774 236.356244 
L 452.19529 236.019679 
L 454.028806 236.290513 
L 455.862322 236.103703 
L 457.695838 236.050626 
L 459.529354 235.883145 
L 461.36287 235.590057 
L 463.196386 235.138174 
L 465.029901 234.425212 
L 466.863417 234.313026 
L 468.696933 234.004703 
L 470.530449 234.210761 
L 472.363965 234.147762 
L 474.197481 233.550474 
L 476.030997 233.419148 
L 477.864513 232.868221 
L 479.698028 232.758794 
L 481.531544 232.906734 
L 483.36506 233.254586 
L 485.198576 233.868178 
L 487.032092 234.328653 
L 488.865608 233.98838 
L 490.699124 233.18353 
L 494.366156 234.254922 
L 496.199671 234.443188 
L 498.033187 234.256037 
L 499.866703 233.645732 
L 501.700219 234.508998 
L 503.533735 234.32916 
L 505.367251 234.445837 
L 507.200767 234.870928 
L 512.701314 235.797147 
L 514.53483 236.615961 
L 516.368346 237.056222 
L 518.201862 238.172149 
L 520.035378 237.951955 
L 521.868894 238.286463 
L 525.535926 239.227941 
L 529.202957 240.72324 
L 531.036473 241.471141 
L 534.703505 243.650309 
L 536.537021 243.510357 
L 538.370537 244.810919 
L 540.204053 245.781482 
L 542.037568 246.921663 
L 545.7046 249.812727 
L 547.538116 250.757788 
L 549.371632 251.410844 
L 551.205148 252.259785 
L 553.038664 252.301504 
L 554.87218 253.614411 
L 556.705696 253.880386 
L 560.372727 254.878257 
L 560.372727 254.878257 
" clip-path="url(#p632805d3ea)" style="fill: none; stroke-dasharray: 9.6,2.4,1.5,2.4; stroke-dashoffset: 0; stroke: #ff0000; stroke-width: 1.5"/>
   </g>
   <g id="line2d_29">
    <path d="M 103.827273 90.640518 
L 111.161336 93.706376 
L 112.994852 94.416847 
L 122.162432 102.842529 
L 123.995947 104.101075 
L 125.829463 105.783165 
L 127.662979 106.90306 
L 131.330011 109.602913 
L 133.163527 111.267596 
L 134.997043 112.588641 
L 136.830559 114.183603 
L 140.49759 117.690425 
L 142.331106 119.187678 
L 144.164622 120.933977 
L 147.831654 123.344906 
L 151.498686 126.430403 
L 153.332202 128.028805 
L 156.999233 130.740523 
L 158.832749 131.914114 
L 160.666265 132.947492 
L 162.499781 134.548397 
L 166.166813 137.111042 
L 168.000329 138.732095 
L 169.833844 139.97369 
L 171.66736 141.448245 
L 173.500876 142.590252 
L 175.334392 144.100291 
L 177.167908 145.199035 
L 179.001424 146.699514 
L 182.668456 148.765343 
L 184.501972 150.250535 
L 188.169003 152.745701 
L 190.002519 154.132725 
L 191.836035 155.283062 
L 197.336583 158.432235 
L 199.170099 159.710057 
L 202.83713 161.712067 
L 208.337678 165.265001 
L 210.171194 166.630068 
L 213.838226 168.642109 
L 217.505257 170.355914 
L 219.338773 171.348199 
L 221.172289 172.672905 
L 230.339869 177.68234 
L 232.173384 179.044361 
L 241.340964 183.446218 
L 243.17448 184.59097 
L 246.841512 186.267998 
L 250.508543 188.303472 
L 254.175575 189.697524 
L 256.009091 190.510528 
L 259.676123 192.369481 
L 268.843702 196.172467 
L 272.510734 197.71137 
L 276.177766 199.196641 
L 278.011281 199.773627 
L 281.678313 201.338452 
L 285.345345 203.03894 
L 289.012377 204.208583 
L 290.845893 205.355848 
L 294.512924 206.49938 
L 296.34644 207.474686 
L 298.179956 208.138104 
L 300.013472 208.636592 
L 301.846988 209.304148 
L 303.680504 209.767608 
L 305.51402 210.506239 
L 311.014567 212.006509 
L 314.681599 212.870813 
L 318.348631 214.25099 
L 320.182147 214.666014 
L 323.849179 216.068553 
L 329.349726 217.739555 
L 331.183242 218.369547 
L 338.517306 220.262979 
L 340.350821 220.822022 
L 347.684885 222.391311 
L 351.351917 223.609812 
L 353.185433 224.014283 
L 362.353012 226.596311 
L 367.85356 227.219646 
L 369.687076 227.493781 
L 371.520591 228.009068 
L 375.187623 228.390562 
L 377.021139 228.853719 
L 378.854655 229.144946 
L 380.688171 229.31615 
L 384.355203 230.042826 
L 391.689266 231.136662 
L 393.522782 231.561438 
L 400.856846 232.163235 
L 402.690361 232.415878 
L 404.523877 232.476197 
L 406.357393 232.705426 
L 410.024425 232.833995 
L 413.691457 233.172597 
L 415.524973 233.149372 
L 419.192004 233.702798 
L 421.02552 233.784968 
L 422.859036 234.079472 
L 424.692552 234.039632 
L 428.359584 234.506457 
L 430.1931 234.509225 
L 432.026616 234.772922 
L 435.693647 234.788803 
L 437.527163 234.751326 
L 441.194195 235.100041 
L 443.027711 235.524661 
L 455.862322 236.33584 
L 457.695838 236.599265 
L 459.529354 236.708292 
L 465.029901 236.345119 
L 466.863417 236.535185 
L 468.696933 236.436346 
L 470.530449 236.506271 
L 472.363965 236.768016 
L 477.864513 236.612351 
L 479.698028 236.862448 
L 483.36506 237.941965 
L 485.198576 238.277769 
L 487.032092 238.800588 
L 488.865608 239.039534 
L 490.699124 239.118656 
L 492.53264 239.519154 
L 494.366156 240.308631 
L 498.033187 240.552111 
L 499.866703 240.440098 
L 501.700219 240.904227 
L 512.701314 242.270282 
L 514.53483 242.94348 
L 521.868894 245.021935 
L 531.036473 249.193624 
L 532.869989 250.383486 
L 534.703505 251.286108 
L 536.537021 251.344492 
L 538.370537 252.651413 
L 542.037568 254.869452 
L 545.7046 257.742231 
L 547.538116 258.943905 
L 551.205148 260.678298 
L 553.038664 260.950994 
L 554.87218 262.389278 
L 556.705696 262.62668 
L 558.539211 263.169347 
L 560.372727 263.56758 
L 560.372727 263.56758 
" clip-path="url(#p632805d3ea)" style="fill: none; stroke-dasharray: 5.55,2.4; stroke-dashoffset: 0; stroke: #ff0000; stroke-width: 1.5"/>
   </g>
   <g id="line2d_30">
    <path d="M 103.827273 102.010169 
L 105.660789 102.550943 
L 109.32782 103.855052 
L 112.994852 104.885056 
L 122.162432 111.017318 
L 123.995947 111.946002 
L 125.829463 113.195583 
L 127.662979 114.067088 
L 131.330011 116.080567 
L 133.163527 117.358188 
L 136.830559 119.695748 
L 140.49759 122.640263 
L 142.331106 123.791518 
L 144.164622 125.12982 
L 147.831654 126.90892 
L 151.498686 129.413933 
L 153.332202 130.686289 
L 155.165717 131.751942 
L 158.832749 133.491724 
L 160.666265 134.335908 
L 162.499781 135.608152 
L 166.166813 137.710304 
L 168.000329 139.071676 
L 169.833844 140.121764 
L 171.66736 141.354225 
L 173.500876 142.309983 
L 175.334392 143.692461 
L 177.167908 144.611462 
L 179.001424 145.77411 
L 182.668456 147.592895 
L 184.501972 148.825784 
L 188.169003 150.895308 
L 190.002519 152.136431 
L 199.170099 157.100122 
L 201.003614 157.883543 
L 208.337678 161.944491 
L 210.171194 163.184285 
L 213.838226 164.990332 
L 217.505257 166.59595 
L 219.338773 167.495613 
L 221.172289 168.665691 
L 226.672837 171.508696 
L 228.506353 172.265448 
L 230.339869 173.292442 
L 232.173384 174.579743 
L 241.340964 178.894186 
L 243.17448 179.936456 
L 246.841512 181.484194 
L 250.508543 183.55228 
L 256.009091 185.839184 
L 259.676123 187.767026 
L 263.343154 189.522345 
L 265.17667 190.488228 
L 267.010186 191.31427 
L 268.843702 191.952204 
L 270.677218 192.715151 
L 274.34425 194.581496 
L 278.011281 196.119829 
L 279.844797 197.006249 
L 281.678313 197.663723 
L 285.345345 199.671448 
L 289.012377 200.971433 
L 290.845893 202.154899 
L 294.512924 203.310335 
L 296.34644 204.347602 
L 303.680504 207.15307 
L 307.347536 208.699999 
L 311.014567 209.995218 
L 312.848083 210.724336 
L 314.681599 211.209854 
L 316.515115 212.205861 
L 318.348631 213.008129 
L 320.182147 213.605261 
L 323.849179 215.149493 
L 329.349726 217.403471 
L 333.016758 218.901861 
L 338.517306 220.779701 
L 340.350821 221.676796 
L 342.184337 222.422083 
L 349.518401 224.813022 
L 356.852464 228.066377 
L 358.68598 228.559162 
L 364.186528 230.679554 
L 367.85356 231.671101 
L 371.520591 233.025279 
L 373.354107 233.484681 
L 377.021139 234.75655 
L 378.854655 235.405251 
L 382.521687 236.410232 
L 384.355203 237.24696 
L 386.188719 237.761842 
L 388.022234 238.545697 
L 391.689266 239.59981 
L 395.356298 240.948954 
L 397.189814 241.429167 
L 402.690361 243.306508 
L 406.357393 244.215783 
L 410.024425 245.347917 
L 413.691457 246.503443 
L 415.524973 246.766979 
L 417.358488 247.373037 
L 419.192004 247.857983 
L 422.859036 249.182755 
L 424.692552 249.58377 
L 432.026616 251.839066 
L 437.527163 253.263082 
L 441.194195 254.245963 
L 443.027711 255.02202 
L 450.361774 256.941353 
L 452.19529 257.423325 
L 454.028806 257.689688 
L 457.695838 259.10053 
L 463.196386 260.489243 
L 465.029901 260.866858 
L 468.696933 261.997812 
L 470.530449 262.398853 
L 474.197481 263.34458 
L 476.030997 263.793718 
L 477.864513 264.018872 
L 483.36506 266.045312 
L 485.198576 266.331857 
L 488.865608 267.538855 
L 496.199671 269.557864 
L 499.866703 270.3498 
L 501.700219 270.939878 
L 509.034283 272.66876 
L 512.701314 273.508168 
L 514.53483 274.037061 
L 520.035378 275.182561 
L 521.868894 275.852093 
L 525.535926 276.90369 
L 527.369441 277.520522 
L 531.036473 278.428383 
L 532.869989 278.759328 
L 534.703505 279.311649 
L 536.537021 279.744567 
L 538.370537 280.323262 
L 543.871084 281.483467 
L 545.7046 281.963802 
L 551.205148 282.958397 
L 553.038664 283.033087 
L 554.87218 283.315949 
L 558.539211 283.335822 
L 560.372727 283.478543 
L 560.372727 283.478543 
" clip-path="url(#p632805d3ea)" style="fill: none; stroke: #ff0000; stroke-width: 1.5; stroke-linecap: square"/>
   </g>
   <g id="line2d_31">
    <path d="M 103.827273 217.013562 
L 120.328916 217.740224 
L 123.995947 217.668074 
L 127.662979 217.767419 
L 129.496495 217.98314 
L 131.330011 217.860334 
L 134.997043 217.920846 
L 136.830559 217.92042 
L 142.331106 218.5515 
L 147.831654 218.246631 
L 149.66517 218.251066 
L 155.165717 218.674561 
L 156.999233 218.284614 
L 160.666265 218.069504 
L 162.499781 218.211846 
L 166.166813 218.308838 
L 168.000329 218.632616 
L 173.500876 218.339341 
L 175.334392 218.629979 
L 180.83494 218.487055 
L 186.335487 218.329358 
L 190.002519 218.646354 
L 193.669551 218.596432 
L 201.003614 218.999817 
L 212.00471 218.602994 
L 213.838226 218.353827 
L 215.671742 218.393757 
L 217.505257 218.120194 
L 219.338773 218.141455 
L 221.172289 218.349846 
L 224.839321 218.246189 
L 226.672837 218.478666 
L 228.506353 218.373874 
L 234.0069 218.841084 
L 235.840416 218.874603 
L 241.340964 218.586447 
L 243.17448 218.699265 
L 245.007996 218.384169 
L 246.841512 218.363201 
L 250.508543 218.623661 
L 254.175575 218.485734 
L 257.842607 218.752387 
L 259.676123 218.974291 
L 261.509639 218.906286 
L 263.343154 219.03298 
L 265.17667 219.04374 
L 268.843702 218.618012 
L 270.677218 218.67016 
L 272.510734 218.54258 
L 274.34425 218.73761 
L 278.011281 218.481049 
L 279.844797 218.59402 
L 281.678313 218.584666 
L 287.178861 218.893395 
L 289.012377 218.887357 
L 290.845893 219.220353 
L 294.512924 218.846326 
L 296.34644 219.059514 
L 300.013472 218.663804 
L 307.347536 218.511777 
L 309.181051 218.337673 
L 312.848083 218.471022 
L 314.681599 218.304299 
L 316.515115 218.60352 
L 318.348631 218.662475 
L 322.015663 218.458113 
L 323.849179 218.616008 
L 327.51621 218.605423 
L 355.018949 219.122412 
L 356.852464 219.278794 
L 358.68598 219.123265 
L 360.519496 219.142714 
L 362.353012 219.335321 
L 364.186528 219.341014 
L 367.85356 219.193121 
L 369.687076 219.126365 
L 371.520591 219.209792 
L 375.187623 218.929018 
L 378.854655 219.095067 
L 380.688171 218.934381 
L 382.521687 218.982696 
L 384.355203 219.176338 
L 386.188719 219.15323 
L 388.022234 219.297996 
L 389.85575 219.136233 
L 393.522782 219.147592 
L 395.356298 219.170795 
L 397.189814 219.076939 
L 400.856846 219.243859 
L 408.190909 218.909625 
L 413.691457 218.932478 
L 415.524973 218.685841 
L 417.358488 218.693196 
L 419.192004 218.468139 
L 422.859036 218.600188 
L 424.692552 218.45316 
L 435.693647 218.577352 
L 439.360679 218.326411 
L 441.194195 218.337686 
L 443.027711 218.530184 
L 448.528258 218.324839 
L 454.028806 218.047547 
L 457.695838 218.393788 
L 459.529354 218.440933 
L 465.029901 218.008719 
L 468.696933 218.279584 
L 470.530449 218.178977 
L 472.363965 218.300226 
L 476.030997 218.207368 
L 477.864513 217.995815 
L 479.698028 218.187515 
L 481.531544 218.255128 
L 483.36506 218.438923 
L 485.198576 218.207311 
L 487.032092 218.358261 
L 490.699124 218.380668 
L 496.199671 218.632008 
L 499.866703 218.385677 
L 503.533735 218.448498 
L 507.200767 218.460053 
L 509.034283 218.322993 
L 518.201862 218.27579 
L 520.035378 218.15335 
L 521.868894 218.396949 
L 531.036473 218.654645 
L 532.869989 218.532735 
L 534.703505 218.783684 
L 536.537021 218.820794 
L 538.370537 219.000625 
L 543.871084 218.662047 
L 545.7046 218.692072 
L 549.371632 218.448844 
L 551.205148 218.55635 
L 553.038664 218.434242 
L 554.87218 218.540019 
L 558.539211 218.201687 
L 560.372727 218.193777 
L 560.372727 218.193777 
" clip-path="url(#p632805d3ea)" style="fill: none; stroke: #808080; stroke-width: 1.5; stroke-linecap: square"/>
   </g>
   <g id="line2d_32">
    <path d="M 103.827273 82.493985 
L 105.660789 83.218438 
L 107.494304 84.114714 
L 112.994852 86.315167 
L 116.661884 89.525436 
L 120.328916 92.698361 
L 122.162432 94.370375 
L 123.995947 95.572195 
L 125.829463 97.152536 
L 129.496495 99.420975 
L 131.330011 100.63457 
L 133.163527 102.189786 
L 134.997043 103.564001 
L 136.830559 105.081841 
L 140.49759 108.518781 
L 142.331106 109.921358 
L 144.164622 111.625896 
L 145.998138 112.653736 
L 147.831654 113.841682 
L 153.332202 118.483742 
L 156.999233 120.968799 
L 160.666265 123.006446 
L 162.499781 124.487945 
L 166.166813 126.948198 
L 168.000329 128.505018 
L 169.833844 129.726006 
L 171.66736 131.152412 
L 173.500876 132.296642 
L 175.334392 133.839074 
L 177.167908 134.981449 
L 179.001424 136.371933 
L 182.668456 138.65833 
L 184.501972 140.177793 
L 188.169003 142.671497 
L 190.002519 144.14574 
L 199.170099 149.778186 
L 201.003614 150.656311 
L 208.337678 155.339625 
L 210.171194 156.838164 
L 213.838226 159.0613 
L 215.671742 159.965985 
L 219.338773 162.10891 
L 221.172289 163.457034 
L 224.839321 165.610678 
L 226.672837 166.628611 
L 228.506353 167.440631 
L 230.339869 168.555179 
L 232.173384 169.95375 
L 237.673932 172.76119 
L 246.841512 177.891319 
L 250.508543 180.288616 
L 256.009091 182.903834 
L 257.842607 184.049714 
L 267.010186 188.969404 
L 270.677218 190.5332 
L 272.510734 191.664634 
L 274.34425 192.650626 
L 278.011281 194.420772 
L 279.844797 195.384514 
L 281.678313 196.183201 
L 285.345345 198.432695 
L 289.012377 199.840021 
L 290.845893 201.075224 
L 294.512924 202.310989 
L 296.34644 203.407785 
L 312.848083 210.572691 
L 314.681599 211.117417 
L 316.515115 212.158677 
L 318.348631 213.000948 
L 320.182147 213.634317 
L 323.849179 215.173045 
L 327.51621 216.542768 
L 331.183242 218.089028 
L 338.517306 220.634289 
L 342.184337 222.357405 
L 345.851369 223.62413 
L 347.684885 224.183447 
L 349.518401 224.93503 
L 353.185433 226.598336 
L 356.852464 228.15163 
L 358.68598 228.616849 
L 366.020044 231.09118 
L 367.85356 231.624168 
L 371.520591 233.075431 
L 373.354107 233.577172 
L 375.187623 234.199131 
L 378.854655 235.647161 
L 382.521687 236.737118 
L 384.355203 237.612289 
L 386.188719 238.173188 
L 388.022234 238.989565 
L 391.689266 240.140514 
L 395.356298 241.629219 
L 397.189814 242.143414 
L 402.690361 244.207254 
L 406.357393 245.232732 
L 410.024425 246.462578 
L 413.691457 247.687713 
L 415.524973 247.995447 
L 422.859036 250.630564 
L 424.692552 251.069913 
L 432.026616 253.70319 
L 435.693647 254.730633 
L 439.360679 256.033692 
L 441.194195 256.69814 
L 443.027711 257.636053 
L 448.528258 259.577097 
L 454.028806 261.097754 
L 455.862322 262.003209 
L 457.695838 262.761316 
L 463.196386 264.619795 
L 465.029901 265.08672 
L 468.696933 266.517371 
L 476.030997 268.779821 
L 477.864513 269.030422 
L 483.36506 271.419713 
L 485.198576 271.778793 
L 487.032092 272.574932 
L 492.53264 274.259095 
L 494.366156 274.992144 
L 498.033187 275.861705 
L 499.866703 276.235243 
L 503.533735 277.432321 
L 507.200767 278.382559 
L 509.034283 278.849002 
L 510.867798 279.197419 
L 518.201862 281.386966 
L 520.035378 281.804236 
L 529.202957 285.077126 
L 534.703505 286.739386 
L 536.537021 287.237761 
L 538.370537 288.040869 
L 540.204053 288.579695 
L 542.037568 288.95163 
L 547.538116 290.776161 
L 549.371632 291.084049 
L 551.205148 291.521727 
L 553.038664 291.719626 
L 554.87218 292.053129 
L 556.705696 292.001195 
L 560.372727 292.41 
L 560.372727 292.41 
" clip-path="url(#p632805d3ea)" style="fill: none; stroke: #ff7f0e; stroke-width: 1.5; stroke-linecap: square"/>
   </g>
   <g id="line2d_33">
    <path d="M 103.827273 88.793862 
L 105.660789 89.484544 
L 109.32782 91.080297 
L 112.994852 92.397599 
L 116.661884 95.428416 
L 120.328916 98.413173 
L 122.162432 99.980187 
L 123.995947 101.119884 
L 125.829463 102.622206 
L 129.496495 104.802696 
L 131.330011 105.993633 
L 133.163527 107.481675 
L 136.830559 110.253285 
L 140.49759 113.629279 
L 142.331106 114.953327 
L 144.164622 116.587864 
L 147.831654 118.735654 
L 155.165717 124.489334 
L 156.999233 125.683386 
L 160.666265 127.751454 
L 162.499781 129.244681 
L 166.166813 131.729222 
L 168.000329 133.261693 
L 169.833844 134.487035 
L 171.66736 135.883331 
L 173.500876 136.96181 
L 175.334392 138.458775 
L 177.167908 139.472328 
L 179.001424 140.728418 
L 182.668456 142.67621 
L 184.501972 143.95921 
L 188.169003 146.099 
L 190.002519 147.389687 
L 197.336583 151.457202 
L 199.170099 152.665187 
L 201.003614 153.534439 
L 208.337678 158.168971 
L 210.171194 159.609021 
L 213.838226 161.650856 
L 217.505257 163.427564 
L 219.338773 164.398263 
L 221.172289 165.63198 
L 226.672837 168.620396 
L 228.506353 169.388964 
L 230.339869 170.462923 
L 232.173384 171.819185 
L 245.007996 178.224316 
L 246.841512 179.074433 
L 250.508543 181.227353 
L 256.009091 183.660545 
L 259.676123 185.719033 
L 263.343154 187.605688 
L 267.010186 189.534395 
L 270.677218 191.038599 
L 274.34425 193.004337 
L 278.011281 194.640206 
L 279.844797 195.548744 
L 281.678313 196.261138 
L 285.345345 198.357176 
L 289.012377 199.704374 
L 290.845893 200.942327 
L 294.512924 202.192026 
L 296.34644 203.280988 
L 307.347536 207.885138 
L 311.014567 209.218664 
L 312.848083 209.977796 
L 314.681599 210.477808 
L 316.515115 211.496573 
L 318.348631 212.329175 
L 320.182147 212.960043 
L 323.849179 214.553574 
L 329.349726 216.857122 
L 333.016758 218.340272 
L 338.517306 220.206017 
L 340.350821 221.098953 
L 342.184337 221.835686 
L 345.851369 222.998589 
L 347.684885 223.510781 
L 349.518401 224.202358 
L 356.852464 227.408248 
L 358.68598 227.883428 
L 364.186528 229.980671 
L 367.85356 230.96342 
L 371.520591 232.352366 
L 375.187623 233.403245 
L 378.854655 234.781752 
L 382.521687 235.808077 
L 384.355203 236.675563 
L 386.188719 237.218733 
L 388.022234 238.028685 
L 391.689266 239.135977 
L 395.356298 240.510423 
L 397.189814 240.984361 
L 402.690361 242.877567 
L 406.357393 243.771782 
L 410.024425 244.913356 
L 413.691457 246.089944 
L 415.524973 246.373223 
L 422.859036 248.924634 
L 424.692552 249.376961 
L 432.026616 251.764911 
L 439.360679 253.653176 
L 441.194195 254.152561 
L 443.027711 254.914187 
L 448.528258 256.315021 
L 454.028806 257.302314 
L 457.695838 258.606286 
L 459.529354 259.040327 
L 465.029901 260.022075 
L 466.863417 260.570289 
L 472.363965 261.773886 
L 476.030997 262.431212 
L 477.864513 262.602029 
L 483.36506 264.422389 
L 485.198576 264.647306 
L 487.032092 265.294952 
L 492.53264 266.780243 
L 494.366156 267.416175 
L 499.866703 268.584122 
L 501.700219 269.182068 
L 507.200767 270.506879 
L 520.035378 273.60419 
L 523.70241 274.871535 
L 529.202957 276.671792 
L 531.036473 277.178062 
L 532.869989 277.555642 
L 538.370537 279.160977 
L 540.204053 279.571535 
L 542.037568 279.847813 
L 545.7046 280.848271 
L 551.205148 281.683215 
L 553.038664 281.775899 
L 554.87218 282.043404 
L 558.539211 281.998852 
L 560.372727 282.070093 
L 560.372727 282.070093 
" clip-path="url(#p632805d3ea)" style="fill: none; stroke: #1f77b4; stroke-width: 1.5; stroke-linecap: square"/>
   </g>
   <g id="legend_1">
    <g id="patch_7">
     <path d="M 384.079688 151.786875 
L 576.2 151.786875 
Q 578.2 151.786875 578.2 149.786875 
L 578.2 48.04 
Q 578.2 46.04 576.2 46.04 
L 384.079688 46.04 
Q 382.079688 46.04 382.079688 48.04 
L 382.079688 149.786875 
Q 382.079688 151.786875 384.079688 151.786875 
z
" style="fill: #ffffff; opacity: 0.8; stroke: #e6e6e6; stroke-linejoin: miter"/>
    </g>
    <g id="line2d_34">
     <path d="M 386.079688 54.138438 
L 396.079688 54.138438 
L 406.079688 54.138438 
" style="fill: none; stroke-dasharray: 1.5,2.475; stroke-dashoffset: 0; stroke: #ff0000; stroke-width: 1.5"/>
    </g>
    <g id="text_17">
     <!-- R/S (AUC:0.0663) -->
     <g transform="translate(414.079688 57.638438)scale(0.1 -0.1)">
      <defs>
       <path id="DejaVuSans-52" d="M 2841 2188 
Q 3044 2119 3236 1894 
Q 3428 1669 3622 1275 
L 4263 0 
L 3584 0 
L 2988 1197 
Q 2756 1666 2539 1819 
Q 2322 1972 1947 1972 
L 1259 1972 
L 1259 0 
L 628 0 
L 628 4666 
L 2053 4666 
Q 2853 4666 3247 4331 
Q 3641 3997 3641 3322 
Q 3641 2881 3436 2590 
Q 3231 2300 2841 2188 
z
M 1259 4147 
L 1259 2491 
L 2053 2491 
Q 2509 2491 2742 2702 
Q 2975 2913 2975 3322 
Q 2975 3731 2742 3939 
Q 2509 4147 2053 4147 
L 1259 4147 
z
" transform="scale(0.015625)"/>
       <path id="DejaVuSans-53" d="M 3425 4513 
L 3425 3897 
Q 3066 4069 2747 4153 
Q 2428 4238 2131 4238 
Q 1616 4238 1336 4038 
Q 1056 3838 1056 3469 
Q 1056 3159 1242 3001 
Q 1428 2844 1947 2747 
L 2328 2669 
Q 3034 2534 3370 2195 
Q 3706 1856 3706 1288 
Q 3706 609 3251 259 
Q 2797 -91 1919 -91 
Q 1588 -91 1214 -16 
Q 841 59 441 206 
L 441 856 
Q 825 641 1194 531 
Q 1563 422 1919 422 
Q 2459 422 2753 634 
Q 3047 847 3047 1241 
Q 3047 1584 2836 1778 
Q 2625 1972 2144 2069 
L 1759 2144 
Q 1053 2284 737 2584 
Q 422 2884 422 3419 
Q 422 4038 858 4394 
Q 1294 4750 2059 4750 
Q 2388 4750 2728 4690 
Q 3069 4631 3425 4513 
z
" transform="scale(0.015625)"/>
       <path id="DejaVuSans-41" d="M 2188 4044 
L 1331 1722 
L 3047 1722 
L 2188 4044 
z
M 1831 4666 
L 2547 4666 
L 4325 0 
L 3669 0 
L 3244 1197 
L 1141 1197 
L 716 0 
L 50 0 
L 1831 4666 
z
" transform="scale(0.015625)"/>
       <path id="DejaVuSans-55" d="M 556 4666 
L 1191 4666 
L 1191 1831 
Q 1191 1081 1462 751 
Q 1734 422 2344 422 
Q 2950 422 3222 751 
Q 3494 1081 3494 1831 
L 3494 4666 
L 4128 4666 
L 4128 1753 
Q 4128 841 3676 375 
Q 3225 -91 2344 -91 
Q 1459 -91 1007 375 
Q 556 841 556 1753 
L 556 4666 
z
" transform="scale(0.015625)"/>
       <path id="DejaVuSans-43" d="M 4122 4306 
L 4122 3641 
Q 3803 3938 3442 4084 
Q 3081 4231 2675 4231 
Q 1875 4231 1450 3742 
Q 1025 3253 1025 2328 
Q 1025 1406 1450 917 
Q 1875 428 2675 428 
Q 3081 428 3442 575 
Q 3803 722 4122 1019 
L 4122 359 
Q 3791 134 3420 21 
Q 3050 -91 2638 -91 
Q 1578 -91 968 557 
Q 359 1206 359 2328 
Q 359 3453 968 4101 
Q 1578 4750 2638 4750 
Q 3056 4750 3426 4639 
Q 3797 4528 4122 4306 
z
" transform="scale(0.015625)"/>
       <path id="DejaVuSans-33" d="M 2597 2516 
Q 3050 2419 3304 2112 
Q 3559 1806 3559 1356 
Q 3559 666 3084 287 
Q 2609 -91 1734 -91 
Q 1441 -91 1130 -33 
Q 819 25 488 141 
L 488 750 
Q 750 597 1062 519 
Q 1375 441 1716 441 
Q 2309 441 2620 675 
Q 2931 909 2931 1356 
Q 2931 1769 2642 2001 
Q 2353 2234 1838 2234 
L 1294 2234 
L 1294 2753 
L 1863 2753 
Q 2328 2753 2575 2939 
Q 2822 3125 2822 3475 
Q 2822 3834 2567 4026 
Q 2313 4219 1838 4219 
Q 1578 4219 1281 4162 
Q 984 4106 628 3988 
L 628 4550 
Q 988 4650 1302 4700 
Q 1616 4750 1894 4750 
Q 2613 4750 3031 4423 
Q 3450 4097 3450 3541 
Q 3450 3153 3228 2886 
Q 3006 2619 2597 2516 
z
" transform="scale(0.015625)"/>
      </defs>
      <use xlink:href="#DejaVuSans-52"/>
      <use xlink:href="#DejaVuSans-2f" x="69.482422"/>
      <use xlink:href="#DejaVuSans-53" x="103.173828"/>
      <use xlink:href="#DejaVuSans-20" x="166.650391"/>
      <use xlink:href="#DejaVuSans-28" x="198.4375"/>
      <use xlink:href="#DejaVuSans-41" x="237.451172"/>
      <use xlink:href="#DejaVuSans-55" x="305.859375"/>
      <use xlink:href="#DejaVuSans-43" x="379.052734"/>
      <use xlink:href="#DejaVuSans-3a" x="448.876953"/>
      <use xlink:href="#DejaVuSans-30" x="482.568359"/>
      <use xlink:href="#DejaVuSans-2e" x="546.191406"/>
      <use xlink:href="#DejaVuSans-30" x="577.978516"/>
      <use xlink:href="#DejaVuSans-36" x="641.601562"/>
      <use xlink:href="#DejaVuSans-36" x="705.224609"/>
      <use xlink:href="#DejaVuSans-33" x="768.847656"/>
      <use xlink:href="#DejaVuSans-29" x="832.470703"/>
     </g>
    </g>
    <g id="line2d_35">
     <path d="M 386.079688 68.816563 
L 396.079688 68.816563 
L 406.079688 68.816563 
" style="fill: none; stroke-dasharray: 9.6,2.4,1.5,2.4; stroke-dashoffset: 0; stroke: #ff0000; stroke-width: 1.5"/>
    </g>
    <g id="text_18">
     <!-- variogram (AUC:0.0578) -->
     <g transform="translate(414.079688 72.316563)scale(0.1 -0.1)">
      <defs>
       <path id="DejaVuSans-6f" d="M 1959 3097 
Q 1497 3097 1228 2736 
Q 959 2375 959 1747 
Q 959 1119 1226 758 
Q 1494 397 1959 397 
Q 2419 397 2687 759 
Q 2956 1122 2956 1747 
Q 2956 2369 2687 2733 
Q 2419 3097 1959 3097 
z
M 1959 3584 
Q 2709 3584 3137 3096 
Q 3566 2609 3566 1747 
Q 3566 888 3137 398 
Q 2709 -91 1959 -91 
Q 1206 -91 779 398 
Q 353 888 353 1747 
Q 353 2609 779 3096 
Q 1206 3584 1959 3584 
z
" transform="scale(0.015625)"/>
       <path id="DejaVuSans-67" d="M 2906 1791 
Q 2906 2416 2648 2759 
Q 2391 3103 1925 3103 
Q 1463 3103 1205 2759 
Q 947 2416 947 1791 
Q 947 1169 1205 825 
Q 1463 481 1925 481 
Q 2391 481 2648 825 
Q 2906 1169 2906 1791 
z
M 3481 434 
Q 3481 -459 3084 -895 
Q 2688 -1331 1869 -1331 
Q 1566 -1331 1297 -1286 
Q 1028 -1241 775 -1147 
L 775 -588 
Q 1028 -725 1275 -790 
Q 1522 -856 1778 -856 
Q 2344 -856 2625 -561 
Q 2906 -266 2906 331 
L 2906 616 
Q 2728 306 2450 153 
Q 2172 0 1784 0 
Q 1141 0 747 490 
Q 353 981 353 1791 
Q 353 2603 747 3093 
Q 1141 3584 1784 3584 
Q 2172 3584 2450 3431 
Q 2728 3278 2906 2969 
L 2906 3500 
L 3481 3500 
L 3481 434 
z
" transform="scale(0.015625)"/>
       <path id="DejaVuSans-6d" d="M 3328 2828 
Q 3544 3216 3844 3400 
Q 4144 3584 4550 3584 
Q 5097 3584 5394 3201 
Q 5691 2819 5691 2113 
L 5691 0 
L 5113 0 
L 5113 2094 
Q 5113 2597 4934 2840 
Q 4756 3084 4391 3084 
Q 3944 3084 3684 2787 
Q 3425 2491 3425 1978 
L 3425 0 
L 2847 0 
L 2847 2094 
Q 2847 2600 2669 2842 
Q 2491 3084 2119 3084 
Q 1678 3084 1418 2786 
Q 1159 2488 1159 1978 
L 1159 0 
L 581 0 
L 581 3500 
L 1159 3500 
L 1159 2956 
Q 1356 3278 1631 3431 
Q 1906 3584 2284 3584 
Q 2666 3584 2933 3390 
Q 3200 3197 3328 2828 
z
" transform="scale(0.015625)"/>
       <path id="DejaVuSans-37" d="M 525 4666 
L 3525 4666 
L 3525 4397 
L 1831 0 
L 1172 0 
L 2766 4134 
L 525 4134 
L 525 4666 
z
" transform="scale(0.015625)"/>
      </defs>
      <use xlink:href="#DejaVuSans-76"/>
      <use xlink:href="#DejaVuSans-61" x="59.179688"/>
      <use xlink:href="#DejaVuSans-72" x="120.458984"/>
      <use xlink:href="#DejaVuSans-69" x="161.572266"/>
      <use xlink:href="#DejaVuSans-6f" x="189.355469"/>
      <use xlink:href="#DejaVuSans-67" x="250.537109"/>
      <use xlink:href="#DejaVuSans-72" x="314.013672"/>
      <use xlink:href="#DejaVuSans-61" x="355.126953"/>
      <use xlink:href="#DejaVuSans-6d" x="416.40625"/>
      <use xlink:href="#DejaVuSans-20" x="513.818359"/>
      <use xlink:href="#DejaVuSans-28" x="545.605469"/>
      <use xlink:href="#DejaVuSans-41" x="584.619141"/>
      <use xlink:href="#DejaVuSans-55" x="653.027344"/>
      <use xlink:href="#DejaVuSans-43" x="726.220703"/>
      <use xlink:href="#DejaVuSans-3a" x="796.044922"/>
      <use xlink:href="#DejaVuSans-30" x="829.736328"/>
      <use xlink:href="#DejaVuSans-2e" x="893.359375"/>
      <use xlink:href="#DejaVuSans-30" x="925.146484"/>
      <use xlink:href="#DejaVuSans-35" x="988.769531"/>
      <use xlink:href="#DejaVuSans-37" x="1052.392578"/>
      <use xlink:href="#DejaVuSans-38" x="1116.015625"/>
      <use xlink:href="#DejaVuSans-29" x="1179.638672"/>
     </g>
    </g>
    <g id="line2d_36">
     <path d="M 386.079688 83.494687 
L 396.079688 83.494687 
L 406.079688 83.494687 
" style="fill: none; stroke-dasharray: 5.55,2.4; stroke-dashoffset: 0; stroke: #ff0000; stroke-width: 1.5"/>
    </g>
    <g id="text_19">
     <!-- Higuchi (AUC:0.0443) -->
     <g transform="translate(414.079688 86.994687)scale(0.1 -0.1)">
      <defs>
       <path id="DejaVuSans-48" d="M 628 4666 
L 1259 4666 
L 1259 2753 
L 3553 2753 
L 3553 4666 
L 4184 4666 
L 4184 0 
L 3553 0 
L 3553 2222 
L 1259 2222 
L 1259 0 
L 628 0 
L 628 4666 
z
" transform="scale(0.015625)"/>
       <path id="DejaVuSans-75" d="M 544 1381 
L 544 3500 
L 1119 3500 
L 1119 1403 
Q 1119 906 1312 657 
Q 1506 409 1894 409 
Q 2359 409 2629 706 
Q 2900 1003 2900 1516 
L 2900 3500 
L 3475 3500 
L 3475 0 
L 2900 0 
L 2900 538 
Q 2691 219 2414 64 
Q 2138 -91 1772 -91 
Q 1169 -91 856 284 
Q 544 659 544 1381 
z
M 1991 3584 
L 1991 3584 
z
" transform="scale(0.015625)"/>
       <path id="DejaVuSans-63" d="M 3122 3366 
L 3122 2828 
Q 2878 2963 2633 3030 
Q 2388 3097 2138 3097 
Q 1578 3097 1268 2742 
Q 959 2388 959 1747 
Q 959 1106 1268 751 
Q 1578 397 2138 397 
Q 2388 397 2633 464 
Q 2878 531 3122 666 
L 3122 134 
Q 2881 22 2623 -34 
Q 2366 -91 2075 -91 
Q 1284 -91 818 406 
Q 353 903 353 1747 
Q 353 2603 823 3093 
Q 1294 3584 2113 3584 
Q 2378 3584 2631 3529 
Q 2884 3475 3122 3366 
z
" transform="scale(0.015625)"/>
       <path id="DejaVuSans-68" d="M 3513 2113 
L 3513 0 
L 2938 0 
L 2938 2094 
Q 2938 2591 2744 2837 
Q 2550 3084 2163 3084 
Q 1697 3084 1428 2787 
Q 1159 2491 1159 1978 
L 1159 0 
L 581 0 
L 581 4863 
L 1159 4863 
L 1159 2956 
Q 1366 3272 1645 3428 
Q 1925 3584 2291 3584 
Q 2894 3584 3203 3211 
Q 3513 2838 3513 2113 
z
" transform="scale(0.015625)"/>
      </defs>
      <use xlink:href="#DejaVuSans-48"/>
      <use xlink:href="#DejaVuSans-69" x="75.195312"/>
      <use xlink:href="#DejaVuSans-67" x="102.978516"/>
      <use xlink:href="#DejaVuSans-75" x="166.455078"/>
      <use xlink:href="#DejaVuSans-63" x="229.833984"/>
      <use xlink:href="#DejaVuSans-68" x="284.814453"/>
      <use xlink:href="#DejaVuSans-69" x="348.193359"/>
      <use xlink:href="#DejaVuSans-20" x="375.976562"/>
      <use xlink:href="#DejaVuSans-28" x="407.763672"/>
      <use xlink:href="#DejaVuSans-41" x="446.777344"/>
      <use xlink:href="#DejaVuSans-55" x="515.185547"/>
      <use xlink:href="#DejaVuSans-43" x="588.378906"/>
      <use xlink:href="#DejaVuSans-3a" x="658.203125"/>
      <use xlink:href="#DejaVuSans-30" x="691.894531"/>
      <use xlink:href="#DejaVuSans-2e" x="755.517578"/>
      <use xlink:href="#DejaVuSans-30" x="787.304688"/>
      <use xlink:href="#DejaVuSans-34" x="850.927734"/>
      <use xlink:href="#DejaVuSans-34" x="914.550781"/>
      <use xlink:href="#DejaVuSans-33" x="978.173828"/>
      <use xlink:href="#DejaVuSans-29" x="1041.796875"/>
     </g>
    </g>
    <g id="line2d_37">
     <path d="M 386.079688 98.172813 
L 396.079688 98.172813 
L 406.079688 98.172813 
" style="fill: none; stroke: #ff0000; stroke-width: 1.5; stroke-linecap: square"/>
    </g>
    <g id="text_20">
     <!-- Whittle fBm (AUC:0.0555) -->
     <g transform="translate(414.079688 101.672813)scale(0.1 -0.1)">
      <defs>
       <path id="DejaVuSans-57" d="M 213 4666 
L 850 4666 
L 1831 722 
L 2809 4666 
L 3519 4666 
L 4500 722 
L 5478 4666 
L 6119 4666 
L 4947 0 
L 4153 0 
L 3169 4050 
L 2175 0 
L 1381 0 
L 213 4666 
z
" transform="scale(0.015625)"/>
       <path id="DejaVuSans-66" d="M 2375 4863 
L 2375 4384 
L 1825 4384 
Q 1516 4384 1395 4259 
Q 1275 4134 1275 3809 
L 1275 3500 
L 2222 3500 
L 2222 3053 
L 1275 3053 
L 1275 0 
L 697 0 
L 697 3053 
L 147 3053 
L 147 3500 
L 697 3500 
L 697 3744 
Q 697 4328 969 4595 
Q 1241 4863 1831 4863 
L 2375 4863 
z
" transform="scale(0.015625)"/>
      </defs>
      <use xlink:href="#DejaVuSans-57"/>
      <use xlink:href="#DejaVuSans-68" x="98.876953"/>
      <use xlink:href="#DejaVuSans-69" x="162.255859"/>
      <use xlink:href="#DejaVuSans-74" x="190.039062"/>
      <use xlink:href="#DejaVuSans-74" x="229.248047"/>
      <use xlink:href="#DejaVuSans-6c" x="268.457031"/>
      <use xlink:href="#DejaVuSans-65" x="296.240234"/>
      <use xlink:href="#DejaVuSans-20" x="357.763672"/>
      <use xlink:href="#DejaVuSans-66" x="389.550781"/>
      <use xlink:href="#DejaVuSans-42" x="424.755859"/>
      <use xlink:href="#DejaVuSans-6d" x="493.359375"/>
      <use xlink:href="#DejaVuSans-20" x="590.771484"/>
      <use xlink:href="#DejaVuSans-28" x="622.558594"/>
      <use xlink:href="#DejaVuSans-41" x="661.572266"/>
      <use xlink:href="#DejaVuSans-55" x="729.980469"/>
      <use xlink:href="#DejaVuSans-43" x="803.173828"/>
      <use xlink:href="#DejaVuSans-3a" x="872.998047"/>
      <use xlink:href="#DejaVuSans-30" x="906.689453"/>
      <use xlink:href="#DejaVuSans-2e" x="970.3125"/>
      <use xlink:href="#DejaVuSans-30" x="1002.099609"/>
      <use xlink:href="#DejaVuSans-35" x="1065.722656"/>
      <use xlink:href="#DejaVuSans-35" x="1129.345703"/>
      <use xlink:href="#DejaVuSans-35" x="1192.96875"/>
      <use xlink:href="#DejaVuSans-29" x="1256.591797"/>
     </g>
    </g>
    <g id="line2d_38">
     <path d="M 386.079688 112.850938 
L 396.079688 112.850938 
L 406.079688 112.850938 
" style="fill: none; stroke: #808080; stroke-width: 1.5; stroke-linecap: square"/>
    </g>
    <g id="text_21">
     <!-- Whittle ARFIMA (AUC:0.000461) -->
     <g transform="translate(414.079688 116.350938)scale(0.1 -0.1)">
      <defs>
       <path id="DejaVuSans-46" d="M 628 4666 
L 3309 4666 
L 3309 4134 
L 1259 4134 
L 1259 2759 
L 3109 2759 
L 3109 2228 
L 1259 2228 
L 1259 0 
L 628 0 
L 628 4666 
z
" transform="scale(0.015625)"/>
       <path id="DejaVuSans-49" d="M 628 4666 
L 1259 4666 
L 1259 0 
L 628 0 
L 628 4666 
z
" transform="scale(0.015625)"/>
       <path id="DejaVuSans-4d" d="M 628 4666 
L 1569 4666 
L 2759 1491 
L 3956 4666 
L 4897 4666 
L 4897 0 
L 4281 0 
L 4281 4097 
L 3078 897 
L 2444 897 
L 1241 4097 
L 1241 0 
L 628 0 
L 628 4666 
z
" transform="scale(0.015625)"/>
      </defs>
      <use xlink:href="#DejaVuSans-57"/>
      <use xlink:href="#DejaVuSans-68" x="98.876953"/>
      <use xlink:href="#DejaVuSans-69" x="162.255859"/>
      <use xlink:href="#DejaVuSans-74" x="190.039062"/>
      <use xlink:href="#DejaVuSans-74" x="229.248047"/>
      <use xlink:href="#DejaVuSans-6c" x="268.457031"/>
      <use xlink:href="#DejaVuSans-65" x="296.240234"/>
      <use xlink:href="#DejaVuSans-20" x="357.763672"/>
      <use xlink:href="#DejaVuSans-41" x="389.550781"/>
      <use xlink:href="#DejaVuSans-52" x="457.958984"/>
      <use xlink:href="#DejaVuSans-46" x="527.441406"/>
      <use xlink:href="#DejaVuSans-49" x="584.960938"/>
      <use xlink:href="#DejaVuSans-4d" x="614.453125"/>
      <use xlink:href="#DejaVuSans-41" x="700.732422"/>
      <use xlink:href="#DejaVuSans-20" x="769.140625"/>
      <use xlink:href="#DejaVuSans-28" x="800.927734"/>
      <use xlink:href="#DejaVuSans-41" x="839.941406"/>
      <use xlink:href="#DejaVuSans-55" x="908.349609"/>
      <use xlink:href="#DejaVuSans-43" x="981.542969"/>
      <use xlink:href="#DejaVuSans-3a" x="1051.367188"/>
      <use xlink:href="#DejaVuSans-30" x="1085.058594"/>
      <use xlink:href="#DejaVuSans-2e" x="1148.681641"/>
      <use xlink:href="#DejaVuSans-30" x="1180.46875"/>
      <use xlink:href="#DejaVuSans-30" x="1244.091797"/>
      <use xlink:href="#DejaVuSans-30" x="1307.714844"/>
      <use xlink:href="#DejaVuSans-34" x="1371.337891"/>
      <use xlink:href="#DejaVuSans-36" x="1434.960938"/>
      <use xlink:href="#DejaVuSans-31" x="1498.583984"/>
      <use xlink:href="#DejaVuSans-29" x="1562.207031"/>
     </g>
    </g>
    <g id="line2d_39">
     <path d="M 386.079688 127.529063 
L 396.079688 127.529063 
L 406.079688 127.529063 
" style="fill: none; stroke: #ff7f0e; stroke-width: 1.5; stroke-linecap: square"/>
    </g>
    <g id="text_22">
     <!-- 1D CNN (AUC:0.0619) -->
     <g transform="translate(414.079688 131.029063)scale(0.1 -0.1)">
      <defs>
       <path id="DejaVuSans-44" d="M 1259 4147 
L 1259 519 
L 2022 519 
Q 2988 519 3436 956 
Q 3884 1394 3884 2338 
Q 3884 3275 3436 3711 
Q 2988 4147 2022 4147 
L 1259 4147 
z
M 628 4666 
L 1925 4666 
Q 3281 4666 3915 4102 
Q 4550 3538 4550 2338 
Q 4550 1131 3912 565 
Q 3275 0 1925 0 
L 628 0 
L 628 4666 
z
" transform="scale(0.015625)"/>
       <path id="DejaVuSans-4e" d="M 628 4666 
L 1478 4666 
L 3547 763 
L 3547 4666 
L 4159 4666 
L 4159 0 
L 3309 0 
L 1241 3903 
L 1241 0 
L 628 0 
L 628 4666 
z
" transform="scale(0.015625)"/>
       <path id="DejaVuSans-39" d="M 703 97 
L 703 672 
Q 941 559 1184 500 
Q 1428 441 1663 441 
Q 2288 441 2617 861 
Q 2947 1281 2994 2138 
Q 2813 1869 2534 1725 
Q 2256 1581 1919 1581 
Q 1219 1581 811 2004 
Q 403 2428 403 3163 
Q 403 3881 828 4315 
Q 1253 4750 1959 4750 
Q 2769 4750 3195 4129 
Q 3622 3509 3622 2328 
Q 3622 1225 3098 567 
Q 2575 -91 1691 -91 
Q 1453 -91 1209 -44 
Q 966 3 703 97 
z
M 1959 2075 
Q 2384 2075 2632 2365 
Q 2881 2656 2881 3163 
Q 2881 3666 2632 3958 
Q 2384 4250 1959 4250 
Q 1534 4250 1286 3958 
Q 1038 3666 1038 3163 
Q 1038 2656 1286 2365 
Q 1534 2075 1959 2075 
z
" transform="scale(0.015625)"/>
      </defs>
      <use xlink:href="#DejaVuSans-31"/>
      <use xlink:href="#DejaVuSans-44" x="63.623047"/>
      <use xlink:href="#DejaVuSans-20" x="140.625"/>
      <use xlink:href="#DejaVuSans-43" x="172.412109"/>
      <use xlink:href="#DejaVuSans-4e" x="242.236328"/>
      <use xlink:href="#DejaVuSans-4e" x="317.041016"/>
      <use xlink:href="#DejaVuSans-20" x="391.845703"/>
      <use xlink:href="#DejaVuSans-28" x="423.632812"/>
      <use xlink:href="#DejaVuSans-41" x="462.646484"/>
      <use xlink:href="#DejaVuSans-55" x="531.054688"/>
      <use xlink:href="#DejaVuSans-43" x="604.248047"/>
      <use xlink:href="#DejaVuSans-3a" x="674.072266"/>
      <use xlink:href="#DejaVuSans-30" x="707.763672"/>
      <use xlink:href="#DejaVuSans-2e" x="771.386719"/>
      <use xlink:href="#DejaVuSans-30" x="803.173828"/>
      <use xlink:href="#DejaVuSans-36" x="866.796875"/>
      <use xlink:href="#DejaVuSans-31" x="930.419922"/>
      <use xlink:href="#DejaVuSans-39" x="994.042969"/>
      <use xlink:href="#DejaVuSans-29" x="1057.666016"/>
     </g>
    </g>
    <g id="line2d_40">
     <path d="M 386.079688 142.207188 
L 396.079688 142.207188 
L 406.079688 142.207188 
" style="fill: none; stroke: #1f77b4; stroke-width: 1.5; stroke-linecap: square"/>
    </g>
    <g id="text_23">
     <!-- LSTM (AUC:0.0577) -->
     <g transform="translate(414.079688 145.707188)scale(0.1 -0.1)">
      <defs>
       <path id="DejaVuSans-4c" d="M 628 4666 
L 1259 4666 
L 1259 531 
L 3531 531 
L 3531 0 
L 628 0 
L 628 4666 
z
" transform="scale(0.015625)"/>
       <path id="DejaVuSans-54" d="M -19 4666 
L 3928 4666 
L 3928 4134 
L 2272 4134 
L 2272 0 
L 1638 0 
L 1638 4134 
L -19 4134 
L -19 4666 
z
" transform="scale(0.015625)"/>
      </defs>
      <use xlink:href="#DejaVuSans-4c"/>
      <use xlink:href="#DejaVuSans-53" x="55.712891"/>
      <use xlink:href="#DejaVuSans-54" x="119.189453"/>
      <use xlink:href="#DejaVuSans-4d" x="180.273438"/>
      <use xlink:href="#DejaVuSans-20" x="266.552734"/>
      <use xlink:href="#DejaVuSans-28" x="298.339844"/>
      <use xlink:href="#DejaVuSans-41" x="337.353516"/>
      <use xlink:href="#DejaVuSans-55" x="405.761719"/>
      <use xlink:href="#DejaVuSans-43" x="478.955078"/>
      <use xlink:href="#DejaVuSans-3a" x="548.779297"/>
      <use xlink:href="#DejaVuSans-30" x="582.470703"/>
      <use xlink:href="#DejaVuSans-2e" x="646.09375"/>
      <use xlink:href="#DejaVuSans-30" x="677.880859"/>
      <use xlink:href="#DejaVuSans-35" x="741.503906"/>
      <use xlink:href="#DejaVuSans-37" x="805.126953"/>
      <use xlink:href="#DejaVuSans-37" x="868.75"/>
      <use xlink:href="#DejaVuSans-29" x="932.373047"/>
     </g>
    </g>
   </g>
  </g>
 </g>
 <defs>
  <clipPath id="p632805d3ea">
   <rect x="81" y="41.04" width="502.2" height="263.34"/>
  </clipPath>
 </defs>
</svg>
