<?xml version="1.0" encoding="utf-8" standalone="no"?>
<!DOCTYPE svg PUBLIC "-//W3C//DTD SVG 1.1//EN"
  "http://www.w3.org/Graphics/SVG/1.1/DTD/svg11.dtd">
<svg xmlns:xlink="http://www.w3.org/1999/xlink" width="648pt" height="342pt" viewBox="0 0 648 342" xmlns="http://www.w3.org/2000/svg" version="1.1">
 <metadata>
  <rdf:RDF xmlns:dc="http://purl.org/dc/elements/1.1/" xmlns:cc="http://creativecommons.org/ns#" xmlns:rdf="http://www.w3.org/1999/02/22-rdf-syntax-ns#">
   <cc:Work>
    <dc:type rdf:resource="http://purl.org/dc/dcmitype/StillImage"/>
    <dc:date>2024-07-05T11:28:54.186855</dc:date>
    <dc:format>image/svg+xml</dc:format>
    <dc:creator>
     <cc:Agent>
      <dc:title>Matplotlib v3.5.1, https://matplotlib.org/</dc:title>
     </cc:Agent>
    </dc:creator>
   </cc:Work>
  </rdf:RDF>
 </metadata>
 <defs>
  <style type="text/css">*{stroke-linejoin: round; stroke-linecap: butt}</style>
 </defs>
 <g id="figure_1">
  <g id="patch_1">
   <path d="M 0 342 
L 648 342 
L 648 0 
L 0 0 
z
" style="fill: #ffffff"/>
  </g>
  <g id="axes_1">
   <g id="patch_2">
    <path d="M 81 304.38 
L 583.2 304.38 
L 583.2 41.04 
L 81 41.04 
L 81 304.38 
z
" style="fill: none; opacity: 0"/>
   </g>
   <g id="matplotlib.axis_1">
    <g id="xtick_1">
     <g id="line2d_1">
      <path d="M 103.827273 304.38 
L 103.827273 41.04 
" clip-path="url(#pfdcb9aac47)" style="fill: none; stroke: #e6e6e6; stroke-width: 0.8; stroke-linecap: square"/>
     </g>
     <g id="line2d_2">
      <defs>
       <path id="m420a713a0d" d="M 0 0 
L 0 3.5 
" style="stroke: #000000; stroke-width: 0.8"/>
      </defs>
      <g>
       <use xlink:href="#m420a713a0d" x="103.827273" y="304.38" style="stroke: #000000; stroke-width: 0.8"/>
      </g>
     </g>
     <g id="text_1">
      <!-- 0.0 -->
      <g transform="translate(95.87571 318.978437)scale(0.1 -0.1)">
       <defs>
        <path id="DejaVuSans-30" d="M 2034 4250 
Q 1547 4250 1301 3770 
Q 1056 3291 1056 2328 
Q 1056 1369 1301 889 
Q 1547 409 2034 409 
Q 2525 409 2770 889 
Q 3016 1369 3016 2328 
Q 3016 3291 2770 3770 
Q 2525 4250 2034 4250 
z
M 2034 4750 
Q 2819 4750 3233 4129 
Q 3647 3509 3647 2328 
Q 3647 1150 3233 529 
Q 2819 -91 2034 -91 
Q 1250 -91 836 529 
Q 422 1150 422 2328 
Q 422 3509 836 4129 
Q 1250 4750 2034 4750 
z
" transform="scale(0.015625)"/>
        <path id="DejaVuSans-2e" d="M 684 794 
L 1344 794 
L 1344 0 
L 684 0 
L 684 794 
z
" transform="scale(0.015625)"/>
       </defs>
       <use xlink:href="#DejaVuSans-30"/>
       <use xlink:href="#DejaVuSans-2e" x="63.623047"/>
       <use xlink:href="#DejaVuSans-30" x="95.410156"/>
      </g>
     </g>
    </g>
    <g id="xtick_2">
     <g id="line2d_3">
      <path d="M 195.136364 304.38 
L 195.136364 41.04 
" clip-path="url(#pfdcb9aac47)" style="fill: none; stroke: #e6e6e6; stroke-width: 0.8; stroke-linecap: square"/>
     </g>
     <g id="line2d_4">
      <g>
       <use xlink:href="#m420a713a0d" x="195.136364" y="304.38" style="stroke: #000000; stroke-width: 0.8"/>
      </g>
     </g>
     <g id="text_2">
      <!-- 0.2 -->
      <g transform="translate(187.184801 318.978437)scale(0.1 -0.1)">
       <defs>
        <path id="DejaVuSans-32" d="M 1228 531 
L 3431 531 
L 3431 0 
L 469 0 
L 469 531 
Q 828 903 1448 1529 
Q 2069 2156 2228 2338 
Q 2531 2678 2651 2914 
Q 2772 3150 2772 3378 
Q 2772 3750 2511 3984 
Q 2250 4219 1831 4219 
Q 1534 4219 1204 4116 
Q 875 4013 500 3803 
L 500 4441 
Q 881 4594 1212 4672 
Q 1544 4750 1819 4750 
Q 2544 4750 2975 4387 
Q 3406 4025 3406 3419 
Q 3406 3131 3298 2873 
Q 3191 2616 2906 2266 
Q 2828 2175 2409 1742 
Q 1991 1309 1228 531 
z
" transform="scale(0.015625)"/>
       </defs>
       <use xlink:href="#DejaVuSans-30"/>
       <use xlink:href="#DejaVuSans-2e" x="63.623047"/>
       <use xlink:href="#DejaVuSans-32" x="95.410156"/>
      </g>
     </g>
    </g>
    <g id="xtick_3">
     <g id="line2d_5">
      <path d="M 286.445455 304.38 
L 286.445455 41.04 
" clip-path="url(#pfdcb9aac47)" style="fill: none; stroke: #e6e6e6; stroke-width: 0.8; stroke-linecap: square"/>
     </g>
     <g id="line2d_6">
      <g>
       <use xlink:href="#m420a713a0d" x="286.445455" y="304.38" style="stroke: #000000; stroke-width: 0.8"/>
      </g>
     </g>
     <g id="text_3">
      <!-- 0.4 -->
      <g transform="translate(278.493892 318.978437)scale(0.1 -0.1)">
       <defs>
        <path id="DejaVuSans-34" d="M 2419 4116 
L 825 1625 
L 2419 1625 
L 2419 4116 
z
M 2253 4666 
L 3047 4666 
L 3047 1625 
L 3713 1625 
L 3713 1100 
L 3047 1100 
L 3047 0 
L 2419 0 
L 2419 1100 
L 313 1100 
L 313 1709 
L 2253 4666 
z
" transform="scale(0.015625)"/>
       </defs>
       <use xlink:href="#DejaVuSans-30"/>
       <use xlink:href="#DejaVuSans-2e" x="63.623047"/>
       <use xlink:href="#DejaVuSans-34" x="95.410156"/>
      </g>
     </g>
    </g>
    <g id="xtick_4">
     <g id="line2d_7">
      <path d="M 377.754545 304.38 
L 377.754545 41.04 
" clip-path="url(#pfdcb9aac47)" style="fill: none; stroke: #e6e6e6; stroke-width: 0.8; stroke-linecap: square"/>
     </g>
     <g id="line2d_8">
      <g>
       <use xlink:href="#m420a713a0d" x="377.754545" y="304.38" style="stroke: #000000; stroke-width: 0.8"/>
      </g>
     </g>
     <g id="text_4">
      <!-- 0.6 -->
      <g transform="translate(369.802983 318.978437)scale(0.1 -0.1)">
       <defs>
        <path id="DejaVuSans-36" d="M 2113 2584 
Q 1688 2584 1439 2293 
Q 1191 2003 1191 1497 
Q 1191 994 1439 701 
Q 1688 409 2113 409 
Q 2538 409 2786 701 
Q 3034 994 3034 1497 
Q 3034 2003 2786 2293 
Q 2538 2584 2113 2584 
z
M 3366 4563 
L 3366 3988 
Q 3128 4100 2886 4159 
Q 2644 4219 2406 4219 
Q 1781 4219 1451 3797 
Q 1122 3375 1075 2522 
Q 1259 2794 1537 2939 
Q 1816 3084 2150 3084 
Q 2853 3084 3261 2657 
Q 3669 2231 3669 1497 
Q 3669 778 3244 343 
Q 2819 -91 2113 -91 
Q 1303 -91 875 529 
Q 447 1150 447 2328 
Q 447 3434 972 4092 
Q 1497 4750 2381 4750 
Q 2619 4750 2861 4703 
Q 3103 4656 3366 4563 
z
" transform="scale(0.015625)"/>
       </defs>
       <use xlink:href="#DejaVuSans-30"/>
       <use xlink:href="#DejaVuSans-2e" x="63.623047"/>
       <use xlink:href="#DejaVuSans-36" x="95.410156"/>
      </g>
     </g>
    </g>
    <g id="xtick_5">
     <g id="line2d_9">
      <path d="M 469.063636 304.38 
L 469.063636 41.04 
" clip-path="url(#pfdcb9aac47)" style="fill: none; stroke: #e6e6e6; stroke-width: 0.8; stroke-linecap: square"/>
     </g>
     <g id="line2d_10">
      <g>
       <use xlink:href="#m420a713a0d" x="469.063636" y="304.38" style="stroke: #000000; stroke-width: 0.8"/>
      </g>
     </g>
     <g id="text_5">
      <!-- 0.8 -->
      <g transform="translate(461.112074 318.978437)scale(0.1 -0.1)">
       <defs>
        <path id="DejaVuSans-38" d="M 2034 2216 
Q 1584 2216 1326 1975 
Q 1069 1734 1069 1313 
Q 1069 891 1326 650 
Q 1584 409 2034 409 
Q 2484 409 2743 651 
Q 3003 894 3003 1313 
Q 3003 1734 2745 1975 
Q 2488 2216 2034 2216 
z
M 1403 2484 
Q 997 2584 770 2862 
Q 544 3141 544 3541 
Q 544 4100 942 4425 
Q 1341 4750 2034 4750 
Q 2731 4750 3128 4425 
Q 3525 4100 3525 3541 
Q 3525 3141 3298 2862 
Q 3072 2584 2669 2484 
Q 3125 2378 3379 2068 
Q 3634 1759 3634 1313 
Q 3634 634 3220 271 
Q 2806 -91 2034 -91 
Q 1263 -91 848 271 
Q 434 634 434 1313 
Q 434 1759 690 2068 
Q 947 2378 1403 2484 
z
M 1172 3481 
Q 1172 3119 1398 2916 
Q 1625 2713 2034 2713 
Q 2441 2713 2670 2916 
Q 2900 3119 2900 3481 
Q 2900 3844 2670 4047 
Q 2441 4250 2034 4250 
Q 1625 4250 1398 4047 
Q 1172 3844 1172 3481 
z
" transform="scale(0.015625)"/>
       </defs>
       <use xlink:href="#DejaVuSans-30"/>
       <use xlink:href="#DejaVuSans-2e" x="63.623047"/>
       <use xlink:href="#DejaVuSans-38" x="95.410156"/>
      </g>
     </g>
    </g>
    <g id="xtick_6">
     <g id="line2d_11">
      <path d="M 560.372727 304.38 
L 560.372727 41.04 
" clip-path="url(#pfdcb9aac47)" style="fill: none; stroke: #e6e6e6; stroke-width: 0.8; stroke-linecap: square"/>
     </g>
     <g id="line2d_12">
      <g>
       <use xlink:href="#m420a713a0d" x="560.372727" y="304.38" style="stroke: #000000; stroke-width: 0.8"/>
      </g>
     </g>
     <g id="text_6">
      <!-- 1.0 -->
      <g transform="translate(552.421165 318.978437)scale(0.1 -0.1)">
       <defs>
        <path id="DejaVuSans-31" d="M 794 531 
L 1825 531 
L 1825 4091 
L 703 3866 
L 703 4441 
L 1819 4666 
L 2450 4666 
L 2450 531 
L 3481 531 
L 3481 0 
L 794 0 
L 794 531 
z
" transform="scale(0.015625)"/>
       </defs>
       <use xlink:href="#DejaVuSans-31"/>
       <use xlink:href="#DejaVuSans-2e" x="63.623047"/>
       <use xlink:href="#DejaVuSans-30" x="95.410156"/>
      </g>
     </g>
    </g>
    <g id="text_7">
     <!-- d + 1/2 -->
     <g transform="translate(313.510938 332.656563)scale(0.1 -0.1)">
      <defs>
       <path id="DejaVuSans-64" d="M 2906 2969 
L 2906 4863 
L 3481 4863 
L 3481 0 
L 2906 0 
L 2906 525 
Q 2725 213 2448 61 
Q 2172 -91 1784 -91 
Q 1150 -91 751 415 
Q 353 922 353 1747 
Q 353 2572 751 3078 
Q 1150 3584 1784 3584 
Q 2172 3584 2448 3432 
Q 2725 3281 2906 2969 
z
M 947 1747 
Q 947 1113 1208 752 
Q 1469 391 1925 391 
Q 2381 391 2643 752 
Q 2906 1113 2906 1747 
Q 2906 2381 2643 2742 
Q 2381 3103 1925 3103 
Q 1469 3103 1208 2742 
Q 947 2381 947 1747 
z
" transform="scale(0.015625)"/>
       <path id="DejaVuSans-20" transform="scale(0.015625)"/>
       <path id="DejaVuSans-2b" d="M 2944 4013 
L 2944 2272 
L 4684 2272 
L 4684 1741 
L 2944 1741 
L 2944 0 
L 2419 0 
L 2419 1741 
L 678 1741 
L 678 2272 
L 2419 2272 
L 2419 4013 
L 2944 4013 
z
" transform="scale(0.015625)"/>
       <path id="DejaVuSans-2f" d="M 1625 4666 
L 2156 4666 
L 531 -594 
L 0 -594 
L 1625 4666 
z
" transform="scale(0.015625)"/>
      </defs>
      <use xlink:href="#DejaVuSans-64"/>
      <use xlink:href="#DejaVuSans-20" x="63.476562"/>
      <use xlink:href="#DejaVuSans-2b" x="95.263672"/>
      <use xlink:href="#DejaVuSans-20" x="179.052734"/>
      <use xlink:href="#DejaVuSans-31" x="210.839844"/>
      <use xlink:href="#DejaVuSans-2f" x="274.462891"/>
      <use xlink:href="#DejaVuSans-32" x="308.154297"/>
     </g>
    </g>
   </g>
   <g id="matplotlib.axis_2">
    <g id="ytick_1">
     <g id="line2d_13">
      <path d="M 81 293.835206 
L 583.2 293.835206 
" clip-path="url(#pfdcb9aac47)" style="fill: none; stroke: #e6e6e6; stroke-width: 0.8; stroke-linecap: square"/>
     </g>
     <g id="line2d_14">
      <defs>
       <path id="mbde5121dfd" d="M 0 0 
L -3.5 0 
" style="stroke: #000000; stroke-width: 0.8"/>
      </defs>
      <g>
       <use xlink:href="#mbde5121dfd" x="81" y="293.835206" style="stroke: #000000; stroke-width: 0.8"/>
      </g>
     </g>
     <g id="text_8">
      <!-- 0.005 -->
      <g transform="translate(45.371875 297.634425)scale(0.1 -0.1)">
       <defs>
        <path id="DejaVuSans-35" d="M 691 4666 
L 3169 4666 
L 3169 4134 
L 1269 4134 
L 1269 2991 
Q 1406 3038 1543 3061 
Q 1681 3084 1819 3084 
Q 2600 3084 3056 2656 
Q 3513 2228 3513 1497 
Q 3513 744 3044 326 
Q 2575 -91 1722 -91 
Q 1428 -91 1123 -41 
Q 819 9 494 109 
L 494 744 
Q 775 591 1075 516 
Q 1375 441 1709 441 
Q 2250 441 2565 725 
Q 2881 1009 2881 1497 
Q 2881 1984 2565 2268 
Q 2250 2553 1709 2553 
Q 1456 2553 1204 2497 
Q 953 2441 691 2322 
L 691 4666 
z
" transform="scale(0.015625)"/>
       </defs>
       <use xlink:href="#DejaVuSans-30"/>
       <use xlink:href="#DejaVuSans-2e" x="63.623047"/>
       <use xlink:href="#DejaVuSans-30" x="95.410156"/>
       <use xlink:href="#DejaVuSans-30" x="159.033203"/>
       <use xlink:href="#DejaVuSans-35" x="222.65625"/>
      </g>
     </g>
    </g>
    <g id="ytick_2">
     <g id="line2d_15">
      <path d="M 81 253.009027 
L 583.2 253.009027 
" clip-path="url(#pfdcb9aac47)" style="fill: none; stroke: #e6e6e6; stroke-width: 0.8; stroke-linecap: square"/>
     </g>
     <g id="line2d_16">
      <g>
       <use xlink:href="#mbde5121dfd" x="81" y="253.009027" style="stroke: #000000; stroke-width: 0.8"/>
      </g>
     </g>
     <g id="text_9">
      <!-- 0.010 -->
      <g transform="translate(45.371875 256.808246)scale(0.1 -0.1)">
       <use xlink:href="#DejaVuSans-30"/>
       <use xlink:href="#DejaVuSans-2e" x="63.623047"/>
       <use xlink:href="#DejaVuSans-30" x="95.410156"/>
       <use xlink:href="#DejaVuSans-31" x="159.033203"/>
       <use xlink:href="#DejaVuSans-30" x="222.65625"/>
      </g>
     </g>
    </g>
    <g id="ytick_3">
     <g id="line2d_17">
      <path d="M 81 212.182848 
L 583.2 212.182848 
" clip-path="url(#pfdcb9aac47)" style="fill: none; stroke: #e6e6e6; stroke-width: 0.8; stroke-linecap: square"/>
     </g>
     <g id="line2d_18">
      <g>
       <use xlink:href="#mbde5121dfd" x="81" y="212.182848" style="stroke: #000000; stroke-width: 0.8"/>
      </g>
     </g>
     <g id="text_10">
      <!-- 0.015 -->
      <g transform="translate(45.371875 215.982066)scale(0.1 -0.1)">
       <use xlink:href="#DejaVuSans-30"/>
       <use xlink:href="#DejaVuSans-2e" x="63.623047"/>
       <use xlink:href="#DejaVuSans-30" x="95.410156"/>
       <use xlink:href="#DejaVuSans-31" x="159.033203"/>
       <use xlink:href="#DejaVuSans-35" x="222.65625"/>
      </g>
     </g>
    </g>
    <g id="ytick_4">
     <g id="line2d_19">
      <path d="M 81 171.356668 
L 583.2 171.356668 
" clip-path="url(#pfdcb9aac47)" style="fill: none; stroke: #e6e6e6; stroke-width: 0.8; stroke-linecap: square"/>
     </g>
     <g id="line2d_20">
      <g>
       <use xlink:href="#mbde5121dfd" x="81" y="171.356668" style="stroke: #000000; stroke-width: 0.8"/>
      </g>
     </g>
     <g id="text_11">
      <!-- 0.020 -->
      <g transform="translate(45.371875 175.155887)scale(0.1 -0.1)">
       <use xlink:href="#DejaVuSans-30"/>
       <use xlink:href="#DejaVuSans-2e" x="63.623047"/>
       <use xlink:href="#DejaVuSans-30" x="95.410156"/>
       <use xlink:href="#DejaVuSans-32" x="159.033203"/>
       <use xlink:href="#DejaVuSans-30" x="222.65625"/>
      </g>
     </g>
    </g>
    <g id="ytick_5">
     <g id="line2d_21">
      <path d="M 81 130.530489 
L 583.2 130.530489 
" clip-path="url(#pfdcb9aac47)" style="fill: none; stroke: #e6e6e6; stroke-width: 0.8; stroke-linecap: square"/>
     </g>
     <g id="line2d_22">
      <g>
       <use xlink:href="#mbde5121dfd" x="81" y="130.530489" style="stroke: #000000; stroke-width: 0.8"/>
      </g>
     </g>
     <g id="text_12">
      <!-- 0.025 -->
      <g transform="translate(45.371875 134.329708)scale(0.1 -0.1)">
       <use xlink:href="#DejaVuSans-30"/>
       <use xlink:href="#DejaVuSans-2e" x="63.623047"/>
       <use xlink:href="#DejaVuSans-30" x="95.410156"/>
       <use xlink:href="#DejaVuSans-32" x="159.033203"/>
       <use xlink:href="#DejaVuSans-35" x="222.65625"/>
      </g>
     </g>
    </g>
    <g id="ytick_6">
     <g id="line2d_23">
      <path d="M 81 89.70431 
L 583.2 89.70431 
" clip-path="url(#pfdcb9aac47)" style="fill: none; stroke: #e6e6e6; stroke-width: 0.8; stroke-linecap: square"/>
     </g>
     <g id="line2d_24">
      <g>
       <use xlink:href="#mbde5121dfd" x="81" y="89.70431" style="stroke: #000000; stroke-width: 0.8"/>
      </g>
     </g>
     <g id="text_13">
      <!-- 0.030 -->
      <g transform="translate(45.371875 93.503528)scale(0.1 -0.1)">
       <defs>
        <path id="DejaVuSans-33" d="M 2597 2516 
Q 3050 2419 3304 2112 
Q 3559 1806 3559 1356 
Q 3559 666 3084 287 
Q 2609 -91 1734 -91 
Q 1441 -91 1130 -33 
Q 819 25 488 141 
L 488 750 
Q 750 597 1062 519 
Q 1375 441 1716 441 
Q 2309 441 2620 675 
Q 2931 909 2931 1356 
Q 2931 1769 2642 2001 
Q 2353 2234 1838 2234 
L 1294 2234 
L 1294 2753 
L 1863 2753 
Q 2328 2753 2575 2939 
Q 2822 3125 2822 3475 
Q 2822 3834 2567 4026 
Q 2313 4219 1838 4219 
Q 1578 4219 1281 4162 
Q 984 4106 628 3988 
L 628 4550 
Q 988 4650 1302 4700 
Q 1616 4750 1894 4750 
Q 2613 4750 3031 4423 
Q 3450 4097 3450 3541 
Q 3450 3153 3228 2886 
Q 3006 2619 2597 2516 
z
" transform="scale(0.015625)"/>
       </defs>
       <use xlink:href="#DejaVuSans-30"/>
       <use xlink:href="#DejaVuSans-2e" x="63.623047"/>
       <use xlink:href="#DejaVuSans-30" x="95.410156"/>
       <use xlink:href="#DejaVuSans-33" x="159.033203"/>
       <use xlink:href="#DejaVuSans-30" x="222.65625"/>
      </g>
     </g>
    </g>
    <g id="ytick_7">
     <g id="line2d_25">
      <path d="M 81 48.87813 
L 583.2 48.87813 
" clip-path="url(#pfdcb9aac47)" style="fill: none; stroke: #e6e6e6; stroke-width: 0.8; stroke-linecap: square"/>
     </g>
     <g id="line2d_26">
      <g>
       <use xlink:href="#mbde5121dfd" x="81" y="48.87813" style="stroke: #000000; stroke-width: 0.8"/>
      </g>
     </g>
     <g id="text_14">
      <!-- 0.035 -->
      <g transform="translate(45.371875 52.677349)scale(0.1 -0.1)">
       <use xlink:href="#DejaVuSans-30"/>
       <use xlink:href="#DejaVuSans-2e" x="63.623047"/>
       <use xlink:href="#DejaVuSans-30" x="95.410156"/>
       <use xlink:href="#DejaVuSans-33" x="159.033203"/>
       <use xlink:href="#DejaVuSans-35" x="222.65625"/>
      </g>
     </g>
    </g>
    <g id="text_15">
     <!-- deviation -->
     <g transform="translate(39.292187 195.950625)rotate(-90)scale(0.1 -0.1)">
      <defs>
       <path id="DejaVuSans-65" d="M 3597 1894 
L 3597 1613 
L 953 1613 
Q 991 1019 1311 708 
Q 1631 397 2203 397 
Q 2534 397 2845 478 
Q 3156 559 3463 722 
L 3463 178 
Q 3153 47 2828 -22 
Q 2503 -91 2169 -91 
Q 1331 -91 842 396 
Q 353 884 353 1716 
Q 353 2575 817 3079 
Q 1281 3584 2069 3584 
Q 2775 3584 3186 3129 
Q 3597 2675 3597 1894 
z
M 3022 2063 
Q 3016 2534 2758 2815 
Q 2500 3097 2075 3097 
Q 1594 3097 1305 2825 
Q 1016 2553 972 2059 
L 3022 2063 
z
" transform="scale(0.015625)"/>
       <path id="DejaVuSans-76" d="M 191 3500 
L 800 3500 
L 1894 563 
L 2988 3500 
L 3597 3500 
L 2284 0 
L 1503 0 
L 191 3500 
z
" transform="scale(0.015625)"/>
       <path id="DejaVuSans-69" d="M 603 3500 
L 1178 3500 
L 1178 0 
L 603 0 
L 603 3500 
z
M 603 4863 
L 1178 4863 
L 1178 4134 
L 603 4134 
L 603 4863 
z
" transform="scale(0.015625)"/>
       <path id="DejaVuSans-61" d="M 2194 1759 
Q 1497 1759 1228 1600 
Q 959 1441 959 1056 
Q 959 750 1161 570 
Q 1363 391 1709 391 
Q 2188 391 2477 730 
Q 2766 1069 2766 1631 
L 2766 1759 
L 2194 1759 
z
M 3341 1997 
L 3341 0 
L 2766 0 
L 2766 531 
Q 2569 213 2275 61 
Q 1981 -91 1556 -91 
Q 1019 -91 701 211 
Q 384 513 384 1019 
Q 384 1609 779 1909 
Q 1175 2209 1959 2209 
L 2766 2209 
L 2766 2266 
Q 2766 2663 2505 2880 
Q 2244 3097 1772 3097 
Q 1472 3097 1187 3025 
Q 903 2953 641 2809 
L 641 3341 
Q 956 3463 1253 3523 
Q 1550 3584 1831 3584 
Q 2591 3584 2966 3190 
Q 3341 2797 3341 1997 
z
" transform="scale(0.015625)"/>
       <path id="DejaVuSans-74" d="M 1172 4494 
L 1172 3500 
L 2356 3500 
L 2356 3053 
L 1172 3053 
L 1172 1153 
Q 1172 725 1289 603 
Q 1406 481 1766 481 
L 2356 481 
L 2356 0 
L 1766 0 
Q 1100 0 847 248 
Q 594 497 594 1153 
L 594 3053 
L 172 3053 
L 172 3500 
L 594 3500 
L 594 4494 
L 1172 4494 
z
" transform="scale(0.015625)"/>
       <path id="DejaVuSans-6f" d="M 1959 3097 
Q 1497 3097 1228 2736 
Q 959 2375 959 1747 
Q 959 1119 1226 758 
Q 1494 397 1959 397 
Q 2419 397 2687 759 
Q 2956 1122 2956 1747 
Q 2956 2369 2687 2733 
Q 2419 3097 1959 3097 
z
M 1959 3584 
Q 2709 3584 3137 3096 
Q 3566 2609 3566 1747 
Q 3566 888 3137 398 
Q 2709 -91 1959 -91 
Q 1206 -91 779 398 
Q 353 888 353 1747 
Q 353 2609 779 3096 
Q 1206 3584 1959 3584 
z
" transform="scale(0.015625)"/>
       <path id="DejaVuSans-6e" d="M 3513 2113 
L 3513 0 
L 2938 0 
L 2938 2094 
Q 2938 2591 2744 2837 
Q 2550 3084 2163 3084 
Q 1697 3084 1428 2787 
Q 1159 2491 1159 1978 
L 1159 0 
L 581 0 
L 581 3500 
L 1159 3500 
L 1159 2956 
Q 1366 3272 1645 3428 
Q 1925 3584 2291 3584 
Q 2894 3584 3203 3211 
Q 3513 2838 3513 2113 
z
" transform="scale(0.015625)"/>
      </defs>
      <use xlink:href="#DejaVuSans-64"/>
      <use xlink:href="#DejaVuSans-65" x="63.476562"/>
      <use xlink:href="#DejaVuSans-76" x="125"/>
      <use xlink:href="#DejaVuSans-69" x="184.179688"/>
      <use xlink:href="#DejaVuSans-61" x="211.962891"/>
      <use xlink:href="#DejaVuSans-74" x="273.242188"/>
      <use xlink:href="#DejaVuSans-69" x="312.451172"/>
      <use xlink:href="#DejaVuSans-6f" x="340.234375"/>
      <use xlink:href="#DejaVuSans-6e" x="401.416016"/>
     </g>
    </g>
   </g>
   <g id="patch_3">
    <path d="M 81 304.38 
L 81 41.04 
" style="fill: none; stroke: #000000; stroke-width: 0.8; stroke-linejoin: miter; stroke-linecap: square"/>
   </g>
   <g id="patch_4">
    <path d="M 583.2 304.38 
L 583.2 41.04 
" style="fill: none; stroke: #e6e6e6; stroke-width: 0.8; stroke-linejoin: miter; stroke-linecap: square"/>
   </g>
   <g id="patch_5">
    <path d="M 81 304.38 
L 583.2 304.38 
" style="fill: none; stroke: #000000; stroke-width: 0.8; stroke-linejoin: miter; stroke-linecap: square"/>
   </g>
   <g id="patch_6">
    <path d="M 81 41.04 
L 583.2 41.04 
" style="fill: none; stroke: #e6e6e6; stroke-width: 0.8; stroke-linejoin: miter; stroke-linecap: square"/>
   </g>
   <g id="text_16">
    <!-- Deviations (steps: 250, interval:+-0.02) -->
    <g transform="translate(212.939063 35.04)scale(0.12 -0.12)">
     <defs>
      <path id="DejaVuSans-44" d="M 1259 4147 
L 1259 519 
L 2022 519 
Q 2988 519 3436 956 
Q 3884 1394 3884 2338 
Q 3884 3275 3436 3711 
Q 2988 4147 2022 4147 
L 1259 4147 
z
M 628 4666 
L 1925 4666 
Q 3281 4666 3915 4102 
Q 4550 3538 4550 2338 
Q 4550 1131 3912 565 
Q 3275 0 1925 0 
L 628 0 
L 628 4666 
z
" transform="scale(0.015625)"/>
      <path id="DejaVuSans-73" d="M 2834 3397 
L 2834 2853 
Q 2591 2978 2328 3040 
Q 2066 3103 1784 3103 
Q 1356 3103 1142 2972 
Q 928 2841 928 2578 
Q 928 2378 1081 2264 
Q 1234 2150 1697 2047 
L 1894 2003 
Q 2506 1872 2764 1633 
Q 3022 1394 3022 966 
Q 3022 478 2636 193 
Q 2250 -91 1575 -91 
Q 1294 -91 989 -36 
Q 684 19 347 128 
L 347 722 
Q 666 556 975 473 
Q 1284 391 1588 391 
Q 1994 391 2212 530 
Q 2431 669 2431 922 
Q 2431 1156 2273 1281 
Q 2116 1406 1581 1522 
L 1381 1569 
Q 847 1681 609 1914 
Q 372 2147 372 2553 
Q 372 3047 722 3315 
Q 1072 3584 1716 3584 
Q 2034 3584 2315 3537 
Q 2597 3491 2834 3397 
z
" transform="scale(0.015625)"/>
      <path id="DejaVuSans-28" d="M 1984 4856 
Q 1566 4138 1362 3434 
Q 1159 2731 1159 2009 
Q 1159 1288 1364 580 
Q 1569 -128 1984 -844 
L 1484 -844 
Q 1016 -109 783 600 
Q 550 1309 550 2009 
Q 550 2706 781 3412 
Q 1013 4119 1484 4856 
L 1984 4856 
z
" transform="scale(0.015625)"/>
      <path id="DejaVuSans-70" d="M 1159 525 
L 1159 -1331 
L 581 -1331 
L 581 3500 
L 1159 3500 
L 1159 2969 
Q 1341 3281 1617 3432 
Q 1894 3584 2278 3584 
Q 2916 3584 3314 3078 
Q 3713 2572 3713 1747 
Q 3713 922 3314 415 
Q 2916 -91 2278 -91 
Q 1894 -91 1617 61 
Q 1341 213 1159 525 
z
M 3116 1747 
Q 3116 2381 2855 2742 
Q 2594 3103 2138 3103 
Q 1681 3103 1420 2742 
Q 1159 2381 1159 1747 
Q 1159 1113 1420 752 
Q 1681 391 2138 391 
Q 2594 391 2855 752 
Q 3116 1113 3116 1747 
z
" transform="scale(0.015625)"/>
      <path id="DejaVuSans-3a" d="M 750 794 
L 1409 794 
L 1409 0 
L 750 0 
L 750 794 
z
M 750 3309 
L 1409 3309 
L 1409 2516 
L 750 2516 
L 750 3309 
z
" transform="scale(0.015625)"/>
      <path id="DejaVuSans-2c" d="M 750 794 
L 1409 794 
L 1409 256 
L 897 -744 
L 494 -744 
L 750 256 
L 750 794 
z
" transform="scale(0.015625)"/>
      <path id="DejaVuSans-72" d="M 2631 2963 
Q 2534 3019 2420 3045 
Q 2306 3072 2169 3072 
Q 1681 3072 1420 2755 
Q 1159 2438 1159 1844 
L 1159 0 
L 581 0 
L 581 3500 
L 1159 3500 
L 1159 2956 
Q 1341 3275 1631 3429 
Q 1922 3584 2338 3584 
Q 2397 3584 2469 3576 
Q 2541 3569 2628 3553 
L 2631 2963 
z
" transform="scale(0.015625)"/>
      <path id="DejaVuSans-6c" d="M 603 4863 
L 1178 4863 
L 1178 0 
L 603 0 
L 603 4863 
z
" transform="scale(0.015625)"/>
      <path id="DejaVuSans-2d" d="M 313 2009 
L 1997 2009 
L 1997 1497 
L 313 1497 
L 313 2009 
z
" transform="scale(0.015625)"/>
      <path id="DejaVuSans-29" d="M 513 4856 
L 1013 4856 
Q 1481 4119 1714 3412 
Q 1947 2706 1947 2009 
Q 1947 1309 1714 600 
Q 1481 -109 1013 -844 
L 513 -844 
Q 928 -128 1133 580 
Q 1338 1288 1338 2009 
Q 1338 2731 1133 3434 
Q 928 4138 513 4856 
z
" transform="scale(0.015625)"/>
     </defs>
     <use xlink:href="#DejaVuSans-44"/>
     <use xlink:href="#DejaVuSans-65" x="77.001953"/>
     <use xlink:href="#DejaVuSans-76" x="138.525391"/>
     <use xlink:href="#DejaVuSans-69" x="197.705078"/>
     <use xlink:href="#DejaVuSans-61" x="225.488281"/>
     <use xlink:href="#DejaVuSans-74" x="286.767578"/>
     <use xlink:href="#DejaVuSans-69" x="325.976562"/>
     <use xlink:href="#DejaVuSans-6f" x="353.759766"/>
     <use xlink:href="#DejaVuSans-6e" x="414.941406"/>
     <use xlink:href="#DejaVuSans-73" x="478.320312"/>
     <use xlink:href="#DejaVuSans-20" x="530.419922"/>
     <use xlink:href="#DejaVuSans-28" x="562.207031"/>
     <use xlink:href="#DejaVuSans-73" x="601.220703"/>
     <use xlink:href="#DejaVuSans-74" x="653.320312"/>
     <use xlink:href="#DejaVuSans-65" x="692.529297"/>
     <use xlink:href="#DejaVuSans-70" x="754.052734"/>
     <use xlink:href="#DejaVuSans-73" x="817.529297"/>
     <use xlink:href="#DejaVuSans-3a" x="869.628906"/>
     <use xlink:href="#DejaVuSans-20" x="903.320312"/>
     <use xlink:href="#DejaVuSans-32" x="935.107422"/>
     <use xlink:href="#DejaVuSans-35" x="998.730469"/>
     <use xlink:href="#DejaVuSans-30" x="1062.353516"/>
     <use xlink:href="#DejaVuSans-2c" x="1125.976562"/>
     <use xlink:href="#DejaVuSans-20" x="1157.763672"/>
     <use xlink:href="#DejaVuSans-69" x="1189.550781"/>
     <use xlink:href="#DejaVuSans-6e" x="1217.333984"/>
     <use xlink:href="#DejaVuSans-74" x="1280.712891"/>
     <use xlink:href="#DejaVuSans-65" x="1319.921875"/>
     <use xlink:href="#DejaVuSans-72" x="1381.445312"/>
     <use xlink:href="#DejaVuSans-76" x="1422.558594"/>
     <use xlink:href="#DejaVuSans-61" x="1481.738281"/>
     <use xlink:href="#DejaVuSans-6c" x="1543.017578"/>
     <use xlink:href="#DejaVuSans-3a" x="1570.800781"/>
     <use xlink:href="#DejaVuSans-2b" x="1604.492188"/>
     <use xlink:href="#DejaVuSans-2d" x="1688.28125"/>
     <use xlink:href="#DejaVuSans-30" x="1724.365234"/>
     <use xlink:href="#DejaVuSans-2e" x="1787.988281"/>
     <use xlink:href="#DejaVuSans-30" x="1819.775391"/>
     <use xlink:href="#DejaVuSans-32" x="1883.398438"/>
     <use xlink:href="#DejaVuSans-29" x="1947.021484"/>
    </g>
   </g>
   <g id="line2d_27">
    <path d="M 103.827273 254.702312 
L 105.660789 252.244372 
L 107.494304 247.927082 
L 109.32782 243.984325 
L 111.161336 242.930008 
L 112.994852 238.847912 
L 114.828368 239.10394 
L 116.661884 237.14517 
L 118.4954 236.11318 
L 120.328916 235.842235 
L 122.162432 234.934434 
L 123.995947 234.439584 
L 125.829463 232.57958 
L 127.662979 235.63673 
L 129.496495 236.523135 
L 131.330011 233.276166 
L 133.163527 235.918718 
L 134.997043 234.362646 
L 136.830559 234.692109 
L 138.664074 232.253837 
L 140.49759 233.661843 
L 142.331106 231.404731 
L 144.164622 230.67892 
L 145.998138 232.586222 
L 151.498686 234.789361 
L 153.332202 236.73802 
L 155.165717 236.340553 
L 156.999233 234.218744 
L 158.832749 231.777049 
L 160.666265 230.223958 
L 162.499781 229.467597 
L 164.333297 225.691819 
L 166.166813 218.389813 
L 168.000329 216.190193 
L 169.833844 217.431774 
L 171.66736 213.246723 
L 173.500876 213.283669 
L 175.334392 213.195795 
L 177.167908 215.025594 
L 179.001424 213.020468 
L 180.83494 214.549694 
L 182.668456 217.066862 
L 184.501972 216.008996 
L 186.335487 215.6665 
L 188.169003 211.649918 
L 190.002519 211.412577 
L 191.836035 211.549152 
L 193.669551 211.423094 
L 195.503067 209.242238 
L 197.336583 211.846158 
L 199.170099 216.079537 
L 201.003614 217.802276 
L 202.83713 217.095072 
L 204.670646 219.507768 
L 206.504162 216.769991 
L 208.337678 216.294649 
L 210.171194 213.792808 
L 212.00471 210.505652 
L 213.838226 205.20439 
L 215.671742 202.077498 
L 217.505257 195.016786 
L 219.338773 192.658214 
L 221.172289 191.988863 
L 223.005805 190.877234 
L 224.839321 184.25252 
L 226.672837 178.326877 
L 228.506353 179.698105 
L 230.339869 181.499022 
L 232.173384 185.051822 
L 234.0069 183.942783 
L 235.840416 189.051529 
L 237.673932 184.744655 
L 239.507448 179.150385 
L 241.340964 179.625448 
L 243.17448 181.870156 
L 245.007996 184.37347 
L 246.841512 185.556724 
L 248.675027 183.899253 
L 250.508543 182.078464 
L 252.342059 183.19467 
L 254.175575 181.444663 
L 256.009091 179.485223 
L 257.842607 179.933082 
L 259.676123 183.124372 
L 261.509639 182.402867 
L 263.343154 177.411279 
L 265.17667 173.002385 
L 267.010186 173.52746 
L 268.843702 171.705819 
L 270.677218 172.015578 
L 272.510734 170.470011 
L 274.34425 169.784543 
L 276.177766 169.664566 
L 278.011281 167.251061 
L 279.844797 168.298178 
L 281.678313 167.309748 
L 283.511829 165.472763 
L 285.345345 161.379592 
L 287.178861 164.134926 
L 290.845893 159.50093 
L 292.679409 158.364437 
L 294.512924 158.447923 
L 296.34644 157.763176 
L 298.179956 159.8214 
L 300.013472 165.634621 
L 301.846988 165.34862 
L 303.680504 167.648867 
L 305.51402 169.594495 
L 307.347536 168.010066 
L 309.181051 173.144136 
L 311.014567 174.515446 
L 312.848083 166.937416 
L 314.681599 163.095879 
L 316.515115 160.89906 
L 318.348631 153.472307 
L 320.182147 151.220226 
L 322.015663 150.824435 
L 323.849179 143.655314 
L 325.682694 141.458577 
L 327.51621 130.626569 
L 329.349726 128.540522 
L 331.183242 132.67471 
L 333.016758 137.184473 
L 334.850274 129.021269 
L 336.68379 130.268087 
L 338.517306 128.766236 
L 340.350821 123.975066 
L 342.184337 122.469234 
L 344.017853 123.751797 
L 345.851369 128.536824 
L 347.684885 129.318678 
L 349.518401 127.198407 
L 351.351917 124.188817 
L 353.185433 124.016881 
L 355.018949 119.375412 
L 356.852464 120.153439 
L 358.68598 118.272054 
L 360.519496 112.528858 
L 362.353012 108.695757 
L 364.186528 110.419018 
L 366.020044 110.027375 
L 367.85356 107.699861 
L 369.687076 108.905096 
L 373.354107 116.716092 
L 375.187623 114.614922 
L 377.021139 116.353075 
L 378.854655 115.650753 
L 380.688171 119.128345 
L 382.521687 118.240035 
L 384.355203 115.662356 
L 386.188719 110.620991 
L 388.022234 106.775619 
L 389.85575 101.795463 
L 391.689266 99.343991 
L 393.522782 92.693489 
L 395.356298 83.848329 
L 397.189814 82.79646 
L 399.02333 82.536783 
L 400.856846 81.909628 
L 402.690361 80.496617 
L 404.523877 74.631 
L 406.357393 76.083685 
L 408.190909 70.969332 
L 410.024425 63.703914 
L 411.857941 64.128948 
L 413.691457 65.079615 
L 415.524973 70.818603 
L 417.358488 70.647262 
L 419.192004 69.270932 
L 421.02552 70.108785 
L 422.859036 75.421715 
L 424.692552 74.857692 
L 426.526068 74.674259 
L 428.359584 80.186397 
L 430.1931 77.620455 
L 432.026616 80.177089 
L 433.860131 72.790164 
L 435.693647 71.929769 
L 437.527163 69.303596 
L 439.360679 69.031931 
L 441.194195 64.447792 
L 443.027711 64.123811 
L 444.861227 61.914362 
L 446.694743 56.706312 
L 448.528258 62.526209 
L 450.361774 57.982736 
L 452.19529 59.044182 
L 454.028806 56.024041 
L 455.862322 56.270584 
L 457.695838 53.01 
L 459.529354 55.402647 
L 461.36287 59.433594 
L 463.196386 65.548721 
L 465.029901 69.024101 
L 466.863417 73.666297 
L 468.696933 69.361561 
L 470.530449 68.683222 
L 472.363965 72.130457 
L 474.197481 71.677349 
L 476.030997 71.706956 
L 477.864513 70.352088 
L 479.698028 70.6176 
L 481.531544 72.672007 
L 483.36506 79.117773 
L 485.198576 71.839298 
L 487.032092 75.97735 
L 488.865608 80.577465 
L 490.699124 77.549765 
L 492.53264 75.070809 
L 494.366156 83.005859 
L 496.199671 81.457953 
L 498.033187 73.752457 
L 499.866703 69.744312 
L 501.700219 72.518518 
L 503.533735 78.813368 
L 505.367251 77.84884 
L 509.034283 80.962719 
L 510.867798 75.209778 
L 512.701314 61.56201 
L 514.53483 59.989557 
L 516.368346 63.945522 
L 518.201862 65.178253 
L 520.035378 64.445816 
L 521.868894 62.764675 
L 523.70241 61.629244 
L 525.535926 65.347605 
L 527.369441 59.2507 
L 529.202957 66.501946 
L 531.036473 72.493278 
L 532.869989 68.198863 
L 534.703505 69.520705 
L 536.537021 68.563236 
L 538.370537 67.305831 
L 540.204053 61.679226 
L 542.037568 64.687482 
L 543.871084 64.197706 
L 545.7046 67.981916 
L 547.538116 63.941455 
L 549.371632 62.722249 
L 551.205148 58.492232 
L 553.038664 56.733914 
L 554.87218 62.447413 
L 556.705696 59.531942 
L 558.539211 69.289281 
L 560.372727 62.597528 
L 560.372727 62.597528 
" clip-path="url(#pfdcb9aac47)" style="fill: none; stroke-dasharray: 1.5,2.475; stroke-dashoffset: 0; stroke: #ff0000; stroke-width: 1.5"/>
   </g>
   <g id="line2d_28">
    <path d="M 103.827273 254.654935 
L 105.660789 254.012302 
L 107.494304 252.663326 
L 109.32782 249.70891 
L 111.161336 247.685894 
L 112.994852 245.162875 
L 114.828368 245.339215 
L 116.661884 248.257934 
L 118.4954 245.908011 
L 120.328916 245.736286 
L 122.162432 247.854398 
L 123.995947 247.785674 
L 125.829463 249.075009 
L 127.662979 251.03171 
L 129.496495 248.339234 
L 131.330011 247.630612 
L 133.163527 245.17454 
L 134.997043 246.081882 
L 136.830559 246.341219 
L 138.664074 247.365795 
L 140.49759 251.459826 
L 142.331106 251.346437 
L 145.998138 254.218932 
L 147.831654 250.914713 
L 149.66517 254.522832 
L 153.332202 255.22461 
L 155.165717 254.74822 
L 156.999233 254.031523 
L 158.832749 255.27181 
L 160.666265 256.191968 
L 162.499781 254.04219 
L 164.333297 255.836913 
L 166.166813 254.668709 
L 168.000329 252.872641 
L 169.833844 250.05549 
L 171.66736 249.146346 
L 173.500876 247.303376 
L 175.334392 248.591853 
L 177.167908 249.395124 
L 179.001424 254.334225 
L 180.83494 254.198941 
L 182.668456 252.801814 
L 184.501972 256.076395 
L 186.335487 254.550331 
L 188.169003 253.448873 
L 190.002519 253.313037 
L 191.836035 252.697099 
L 193.669551 253.520734 
L 195.503067 251.947184 
L 197.336583 256.188735 
L 199.170099 252.213922 
L 201.003614 250.870933 
L 202.83713 251.890453 
L 204.670646 250.426511 
L 206.504162 249.702183 
L 208.337678 246.605009 
L 210.171194 248.924849 
L 212.00471 250.196629 
L 213.838226 250.939191 
L 215.671742 251.375873 
L 217.505257 250.863183 
L 219.338773 253.958992 
L 221.172289 254.009885 
L 223.005805 255.976404 
L 224.839321 258.193686 
L 226.672837 257.410003 
L 228.506353 258.655917 
L 230.339869 260.980516 
L 232.173384 262.984392 
L 234.0069 261.075159 
L 235.840416 260.424808 
L 237.673932 262.070596 
L 239.507448 259.433183 
L 241.340964 261.805004 
L 243.17448 262.212735 
L 245.007996 261.683014 
L 246.841512 260.777111 
L 248.675027 261.913127 
L 250.508543 260.129132 
L 252.342059 258.814363 
L 254.175575 258.713694 
L 256.009091 259.445812 
L 257.842607 259.081307 
L 259.676123 259.027656 
L 261.509639 259.234217 
L 263.343154 262.280059 
L 265.17667 262.386215 
L 267.010186 261.650154 
L 268.843702 261.090672 
L 270.677218 261.461461 
L 272.510734 259.487638 
L 274.34425 261.942366 
L 276.177766 261.289007 
L 278.011281 257.552306 
L 279.844797 256.832983 
L 281.678313 258.201267 
L 283.511829 257.700097 
L 285.345345 258.314695 
L 287.178861 258.556749 
L 289.012377 261.304461 
L 290.845893 262.525463 
L 292.679409 264.207427 
L 294.512924 263.432993 
L 296.34644 263.061044 
L 298.179956 263.058804 
L 300.013472 263.64344 
L 301.846988 262.812476 
L 303.680504 261.683821 
L 305.51402 262.576776 
L 309.181051 263.721735 
L 311.014567 264.093346 
L 312.848083 265.61992 
L 314.681599 263.050011 
L 316.515115 264.696713 
L 318.348631 264.868623 
L 320.182147 264.746248 
L 322.015663 265.05126 
L 323.849179 264.805579 
L 325.682694 265.575252 
L 327.51621 267.048368 
L 329.349726 264.947871 
L 331.183242 265.270228 
L 333.016758 266.552052 
L 334.850274 265.953255 
L 336.68379 264.946886 
L 338.517306 267.55062 
L 342.184337 264.369348 
L 344.017853 261.257734 
L 345.851369 262.522793 
L 347.684885 262.980391 
L 349.518401 260.875177 
L 353.185433 258.258812 
L 355.018949 258.507919 
L 356.852464 258.224928 
L 358.68598 257.670054 
L 360.519496 257.711404 
L 362.353012 253.922702 
L 364.186528 253.353328 
L 366.020044 253.174721 
L 367.85356 252.824894 
L 369.687076 251.021563 
L 371.520591 250.242838 
L 373.354107 247.393497 
L 375.187623 247.143855 
L 377.021139 247.422087 
L 378.854655 246.604088 
L 380.688171 246.335154 
L 382.521687 246.179824 
L 384.355203 243.96412 
L 386.188719 244.469418 
L 388.022234 245.85368 
L 389.85575 245.963592 
L 391.689266 246.771968 
L 393.522782 243.722628 
L 395.356298 241.702443 
L 397.189814 238.507502 
L 399.02333 234.097069 
L 400.856846 233.131308 
L 402.690361 233.770191 
L 404.523877 227.88054 
L 406.357393 225.319916 
L 410.024425 221.165218 
L 411.857941 219.494686 
L 413.691457 214.57229 
L 415.524973 214.51169 
L 417.358488 214.74318 
L 419.192004 215.901328 
L 421.02552 206.225671 
L 422.859036 207.88104 
L 424.692552 204.631094 
L 426.526068 197.91719 
L 428.359584 197.470019 
L 430.1931 194.50274 
L 432.026616 194.215624 
L 433.860131 191.268133 
L 437.527163 184.304749 
L 439.360679 184.922918 
L 441.194195 184.628204 
L 443.027711 183.810407 
L 444.861227 180.772878 
L 446.694743 176.335171 
L 448.528258 171.546148 
L 450.361774 170.487049 
L 452.19529 168.062744 
L 454.028806 168.674246 
L 455.862322 164.947887 
L 457.695838 164.162575 
L 459.529354 161.812702 
L 461.36287 160.937312 
L 463.196386 160.904414 
L 465.029901 159.73192 
L 466.863417 157.819216 
L 468.696933 155.173463 
L 470.530449 148.139735 
L 472.363965 142.811337 
L 474.197481 139.138323 
L 476.030997 132.749012 
L 477.864513 131.778831 
L 479.698028 125.774019 
L 483.36506 121.995931 
L 485.198576 124.513474 
L 487.032092 127.372575 
L 488.865608 132.78531 
L 490.699124 132.421938 
L 492.53264 133.594516 
L 494.366156 138.552153 
L 496.199671 137.66919 
L 498.033187 143.654402 
L 499.866703 144.168162 
L 501.700219 141.156241 
L 503.533735 138.364068 
L 505.367251 138.326622 
L 507.200767 133.371199 
L 509.034283 130.765819 
L 510.867798 127.291357 
L 512.701314 124.905392 
L 514.53483 123.243822 
L 516.368346 123.698011 
L 518.201862 127.05254 
L 520.035378 123.999662 
L 523.70241 122.972499 
L 525.535926 126.405969 
L 527.369441 132.695788 
L 529.202957 136.941847 
L 531.036473 138.277904 
L 532.869989 137.008657 
L 534.703505 135.592225 
L 536.537021 132.196857 
L 540.204053 140.605702 
L 542.037568 146.58189 
L 543.871084 144.627539 
L 545.7046 153.126003 
L 549.371632 162.184044 
L 551.205148 164.871455 
L 553.038664 166.170686 
L 554.87218 177.360966 
L 556.705696 179.641678 
L 558.539211 181.111068 
L 560.372727 178.894916 
L 560.372727 178.894916 
" clip-path="url(#pfdcb9aac47)" style="fill: none; stroke-dasharray: 9.6,2.4,1.5,2.4; stroke-dashoffset: 0; stroke: #ff0000; stroke-width: 1.5"/>
   </g>
   <g id="line2d_29">
    <path d="M 103.827273 285.438934 
L 105.660789 284.470853 
L 107.494304 281.122377 
L 109.32782 278.369065 
L 111.161336 275.855913 
L 112.994852 272.916038 
L 114.828368 273.560468 
L 116.661884 273.368998 
L 118.4954 271.660725 
L 120.328916 271.748383 
L 122.162432 272.064672 
L 123.995947 273.167988 
L 125.829463 272.953884 
L 127.662979 274.176799 
L 129.496495 274.280705 
L 131.330011 273.421101 
L 133.163527 272.43154 
L 134.997043 273.742276 
L 136.830559 273.025126 
L 138.664074 271.003375 
L 140.49759 272.55161 
L 142.331106 271.91127 
L 145.998138 273.001061 
L 147.831654 271.621198 
L 149.66517 273.324635 
L 151.498686 273.249926 
L 153.332202 274.762022 
L 155.165717 273.830334 
L 156.999233 272.16013 
L 158.832749 273.164539 
L 160.666265 271.522768 
L 162.499781 271.231538 
L 164.333297 271.411821 
L 166.166813 270.463918 
L 169.833844 272.353528 
L 171.66736 275.007565 
L 173.500876 273.961706 
L 175.334392 275.612561 
L 177.167908 275.681151 
L 179.001424 277.454302 
L 180.83494 277.179667 
L 182.668456 277.905723 
L 184.501972 276.376284 
L 186.335487 273.876692 
L 188.169003 273.866488 
L 190.002519 276.505153 
L 191.836035 276.564305 
L 193.669551 277.197644 
L 195.503067 276.392076 
L 197.336583 277.744796 
L 199.170099 275.64805 
L 201.003614 276.279107 
L 202.83713 275.573649 
L 204.670646 275.277796 
L 206.504162 274.822209 
L 208.337678 274.194122 
L 210.171194 274.498673 
L 212.00471 276.621882 
L 213.838226 275.959496 
L 215.671742 274.470063 
L 217.505257 275.422706 
L 219.338773 274.868878 
L 221.172289 274.157898 
L 223.005805 272.333214 
L 224.839321 272.507299 
L 226.672837 270.708365 
L 228.506353 271.954226 
L 230.339869 272.862136 
L 232.173384 275.298183 
L 234.0069 274.185024 
L 235.840416 274.340442 
L 237.673932 275.530426 
L 239.507448 274.853395 
L 241.340964 276.539975 
L 243.17448 276.538269 
L 245.007996 274.526196 
L 246.841512 274.817438 
L 248.675027 272.814187 
L 250.508543 272.751668 
L 252.342059 273.535758 
L 254.175575 273.962871 
L 256.009091 274.662395 
L 257.842607 273.596333 
L 259.676123 273.131108 
L 261.509639 272.07217 
L 263.343154 274.085636 
L 265.17667 272.806785 
L 267.010186 272.719724 
L 268.843702 272.845698 
L 270.677218 273.882969 
L 272.510734 274.573222 
L 274.34425 275.809152 
L 278.011281 276.341618 
L 279.844797 276.47871 
L 281.678313 274.595274 
L 283.511829 274.579735 
L 285.345345 274.265091 
L 290.845893 277.312625 
L 292.679409 276.732672 
L 294.512924 276.466605 
L 296.34644 275.877318 
L 298.179956 276.726071 
L 300.013472 275.822211 
L 301.846988 277.189817 
L 303.680504 277.112339 
L 305.51402 278.142218 
L 307.347536 276.830694 
L 309.181051 277.30452 
L 311.014567 276.653414 
L 312.848083 276.520281 
L 314.681599 275.478944 
L 318.348631 274.237872 
L 320.182147 274.112407 
L 322.015663 273.799988 
L 323.849179 272.670738 
L 325.682694 274.091722 
L 327.51621 274.396599 
L 329.349726 272.375255 
L 333.016758 274.911632 
L 334.850274 274.452665 
L 336.68379 274.260836 
L 338.517306 274.738424 
L 340.350821 275.844122 
L 342.184337 274.213346 
L 344.017853 273.899898 
L 345.851369 273.975354 
L 347.684885 274.953317 
L 349.518401 273.696863 
L 351.351917 272.014394 
L 353.185433 271.686425 
L 355.018949 273.290097 
L 356.852464 273.379543 
L 358.68598 275.27197 
L 360.519496 274.629121 
L 362.353012 273.839987 
L 364.186528 274.179766 
L 366.020044 274.400452 
L 367.85356 272.891123 
L 369.687076 271.944501 
L 371.520591 271.613933 
L 373.354107 270.432339 
L 375.187623 270.010219 
L 377.021139 269.057652 
L 378.854655 266.992206 
L 380.688171 267.155035 
L 384.355203 268.034103 
L 386.188719 269.095332 
L 388.022234 270.407477 
L 389.85575 268.824234 
L 391.689266 268.220969 
L 393.522782 266.61097 
L 397.189814 267.256286 
L 399.02333 266.13187 
L 400.856846 266.356628 
L 404.523877 265.776084 
L 406.357393 264.992247 
L 408.190909 266.04809 
L 410.024425 265.082372 
L 411.857941 265.583656 
L 413.691457 264.019429 
L 415.524973 265.36908 
L 417.358488 265.862388 
L 419.192004 264.976467 
L 421.02552 264.372267 
L 422.859036 264.768066 
L 424.692552 264.808749 
L 426.526068 261.115668 
L 428.359584 261.443988 
L 430.1931 259.621547 
L 432.026616 259.246332 
L 433.860131 258.474667 
L 435.693647 258.528658 
L 437.527163 256.306321 
L 439.360679 254.294565 
L 441.194195 252.66061 
L 443.027711 251.237115 
L 444.861227 249.54392 
L 446.694743 246.452081 
L 448.528258 245.019118 
L 450.361774 245.250862 
L 452.19529 242.767618 
L 454.028806 242.486541 
L 455.862322 241.881415 
L 457.695838 241.814885 
L 459.529354 241.539134 
L 461.36287 241.65313 
L 463.196386 241.242833 
L 465.029901 240.58982 
L 466.863417 238.812091 
L 468.696933 235.658913 
L 472.363965 226.685265 
L 474.197481 225.300201 
L 476.030997 221.816546 
L 477.864513 220.865015 
L 479.698028 214.686504 
L 481.531544 214.083115 
L 483.36506 212.19923 
L 485.198576 213.239114 
L 487.032092 212.059711 
L 488.865608 214.123384 
L 490.699124 210.98698 
L 492.53264 210.377879 
L 494.366156 211.67112 
L 496.199671 209.429635 
L 498.033187 211.217195 
L 499.866703 208.771019 
L 501.700219 207.420003 
L 503.533735 205.145841 
L 505.367251 204.999317 
L 507.200767 200.503906 
L 509.034283 197.70325 
L 510.867798 192.600818 
L 512.701314 189.067466 
L 514.53483 186.220842 
L 516.368346 185.506243 
L 518.201862 187.008675 
L 520.035378 183.094001 
L 521.868894 179.929943 
L 523.70241 179.599062 
L 525.535926 182.35533 
L 527.369441 187.297209 
L 529.202957 188.918674 
L 531.036473 188.621268 
L 532.869989 187.699045 
L 534.703505 185.975651 
L 536.537021 181.156133 
L 540.204053 185.40874 
L 542.037568 184.687097 
L 543.871084 179.139924 
L 545.7046 183.176336 
L 547.538116 184.567802 
L 549.371632 187.987229 
L 551.205148 187.619144 
L 553.038664 186.526553 
L 554.87218 198.325567 
L 556.705696 197.142094 
L 558.539211 196.906977 
L 560.372727 194.848919 
L 560.372727 194.848919 
" clip-path="url(#pfdcb9aac47)" style="fill: none; stroke-dasharray: 5.55,2.4; stroke-dashoffset: 0; stroke: #ff0000; stroke-width: 1.5"/>
   </g>
   <g id="line2d_30">
    <path d="M 103.827273 289.952703 
L 105.660789 289.904917 
L 107.494304 288.665441 
L 109.32782 286.413002 
L 111.161336 284.434669 
L 112.994852 282.176595 
L 114.828368 282.514212 
L 116.661884 284.641289 
L 118.4954 282.357437 
L 120.328916 281.529784 
L 122.162432 283.22216 
L 123.995947 283.191851 
L 125.829463 282.284712 
L 127.662979 282.666247 
L 129.496495 282.182214 
L 131.330011 280.968845 
L 133.163527 280.374638 
L 134.997043 282.151379 
L 136.830559 281.627163 
L 138.664074 279.564916 
L 140.49759 281.616859 
L 142.331106 282.490366 
L 144.164622 282.667991 
L 145.998138 283.473048 
L 147.831654 282.360315 
L 149.66517 284.215171 
L 151.498686 283.646534 
L 153.332202 284.970472 
L 155.165717 284.764854 
L 156.999233 283.868919 
L 158.832749 284.513352 
L 160.666265 283.480852 
L 162.499781 282.942457 
L 164.333297 282.940314 
L 166.166813 282.124124 
L 168.000329 282.390628 
L 169.833844 282.227341 
L 171.66736 283.098443 
L 173.500876 282.266174 
L 175.334392 284.647416 
L 177.167908 285.68233 
L 179.001424 287.844545 
L 180.83494 287.36233 
L 182.668456 287.742773 
L 184.501972 286.221888 
L 186.335487 284.249612 
L 188.169003 283.605002 
L 190.002519 285.747424 
L 191.836035 285.80036 
L 193.669551 286.513975 
L 195.503067 286.1774 
L 197.336583 288.290123 
L 199.170099 285.846621 
L 202.83713 286.847929 
L 204.670646 285.730977 
L 206.504162 284.84941 
L 208.337678 283.182145 
L 210.171194 283.325676 
L 212.00471 284.660373 
L 213.838226 284.723828 
L 215.671742 284.08891 
L 217.505257 283.184351 
L 219.338773 283.752262 
L 223.005805 281.979832 
L 224.839321 283.039388 
L 226.672837 281.73718 
L 228.506353 281.950828 
L 230.339869 283.102375 
L 232.173384 285.226944 
L 234.0069 283.577415 
L 235.840416 283.798686 
L 237.673932 285.506257 
L 239.507448 285.158155 
L 241.340964 287.161324 
L 243.17448 288.018852 
L 245.007996 286.570392 
L 246.841512 286.477162 
L 248.675027 285.048345 
L 250.508543 284.711952 
L 252.342059 285.196056 
L 254.175575 285.076429 
L 256.009091 285.780554 
L 257.842607 284.542533 
L 261.509639 283.763257 
L 263.343154 286.038298 
L 265.17667 287.023547 
L 267.010186 285.68483 
L 268.843702 285.092682 
L 270.677218 286.23127 
L 272.510734 286.168613 
L 274.34425 286.830988 
L 276.177766 285.871482 
L 278.011281 284.388448 
L 279.844797 284.401706 
L 281.678313 283.1116 
L 283.511829 282.698037 
L 285.345345 282.431972 
L 287.178861 283.818298 
L 289.012377 284.407187 
L 290.845893 285.477718 
L 294.512924 285.246782 
L 296.34644 284.880735 
L 298.179956 286.113748 
L 300.013472 286.509871 
L 301.846988 287.35285 
L 303.680504 286.516729 
L 305.51402 287.213718 
L 307.347536 287.01577 
L 309.181051 286.931148 
L 311.014567 286.255075 
L 312.848083 286.384612 
L 314.681599 284.997257 
L 316.515115 285.718598 
L 318.348631 285.267431 
L 322.015663 285.268168 
L 323.849179 284.500157 
L 325.682694 285.428213 
L 327.51621 286.980134 
L 329.349726 283.952119 
L 331.183242 284.263044 
L 333.016758 285.067207 
L 334.850274 283.882489 
L 336.68379 282.9963 
L 338.517306 283.793679 
L 340.350821 284.063002 
L 342.184337 282.341415 
L 344.017853 282.33852 
L 345.851369 283.471379 
L 347.684885 284.877963 
L 349.518401 283.381772 
L 351.351917 282.499736 
L 353.185433 282.915033 
L 355.018949 283.02415 
L 356.852464 284.31783 
L 358.68598 284.750289 
L 360.519496 283.875942 
L 362.353012 282.781794 
L 364.186528 283.707791 
L 366.020044 284.91223 
L 367.85356 284.327837 
L 369.687076 285.054138 
L 371.520591 283.305186 
L 373.354107 282.922709 
L 375.187623 283.185761 
L 377.021139 284.002638 
L 378.854655 283.2161 
L 380.688171 283.190948 
L 382.521687 284.274584 
L 384.355203 283.505786 
L 386.188719 284.377008 
L 388.022234 284.589506 
L 389.85575 285.135139 
L 391.689266 287.438895 
L 393.522782 288.100323 
L 395.356298 287.581454 
L 397.189814 285.543165 
L 399.02333 284.60742 
L 404.523877 285.070787 
L 406.357393 284.330306 
L 408.190909 284.570684 
L 410.024425 285.344166 
L 413.691457 286.378655 
L 415.524973 286.696722 
L 417.358488 287.503106 
L 421.02552 286.760657 
L 422.859036 286.149619 
L 424.692552 287.828384 
L 426.526068 285.583509 
L 430.1931 283.282461 
L 433.860131 283.866143 
L 435.693647 283.84108 
L 437.527163 284.516428 
L 441.194195 283.846356 
L 443.027711 283.815829 
L 446.694743 284.910365 
L 448.528258 286.218666 
L 450.361774 286.099259 
L 452.19529 285.207179 
L 454.028806 284.80893 
L 455.862322 286.026661 
L 457.695838 286.530833 
L 459.529354 286.269662 
L 461.36287 287.059137 
L 463.196386 286.482248 
L 465.029901 286.817048 
L 466.863417 286.073908 
L 468.696933 285.646002 
L 470.530449 285.044422 
L 474.197481 286.5802 
L 477.864513 284.903636 
L 479.698028 283.749364 
L 481.531544 284.526608 
L 483.36506 285.750763 
L 485.198576 286.022462 
L 487.032092 285.028212 
L 488.865608 286.126164 
L 492.53264 284.471194 
L 494.366156 283.615302 
L 496.199671 282.488131 
L 498.033187 283.776583 
L 499.866703 282.975682 
L 501.700219 281.811968 
L 503.533735 282.228083 
L 505.367251 281.717635 
L 507.200767 282.068733 
L 509.034283 283.441428 
L 510.867798 284.187384 
L 512.701314 283.135189 
L 516.368346 282.84854 
L 518.201862 283.522244 
L 520.035378 283.786819 
L 521.868894 283.383773 
L 523.70241 281.221985 
L 525.535926 282.254371 
L 527.369441 282.472418 
L 529.202957 281.62582 
L 531.036473 282.522395 
L 532.869989 283.041237 
L 534.703505 282.959345 
L 536.537021 284.067448 
L 538.370537 284.323974 
L 540.204053 283.523282 
L 542.037568 284.364223 
L 543.871084 283.962031 
L 545.7046 282.045294 
L 547.538116 281.161487 
L 549.371632 281.709034 
L 551.205148 282.538764 
L 553.038664 282.290496 
L 554.87218 282.32319 
L 556.705696 281.668822 
L 558.539211 280.674345 
L 560.372727 278.576468 
L 560.372727 278.576468 
" clip-path="url(#pfdcb9aac47)" style="fill: none; stroke: #ff0000; stroke-width: 1.5; stroke-linecap: square"/>
   </g>
   <g id="line2d_31">
    <path d="M 103.827273 280.661861 
L 105.660789 281.234828 
L 107.494304 281.39622 
L 109.32782 279.811368 
L 111.161336 277.647253 
L 112.994852 277.744757 
L 114.828368 276.902649 
L 116.661884 277.343243 
L 118.4954 276.053627 
L 120.328916 274.583532 
L 122.162432 274.945345 
L 123.995947 274.388723 
L 125.829463 274.733271 
L 127.662979 275.316977 
L 129.496495 276.638055 
L 131.330011 275.502756 
L 133.163527 275.624177 
L 134.997043 275.316477 
L 136.830559 275.372049 
L 138.664074 275.244781 
L 140.49759 275.23989 
L 142.331106 276.285058 
L 144.164622 275.396159 
L 145.998138 276.225195 
L 147.831654 276.679973 
L 149.66517 276.655499 
L 151.498686 276.034669 
L 155.165717 276.365847 
L 156.999233 276.198774 
L 158.832749 275.69453 
L 160.666265 275.475359 
L 162.499781 275.094874 
L 164.333297 275.526441 
L 166.166813 274.724357 
L 168.000329 275.449804 
L 169.833844 276.810079 
L 171.66736 276.102322 
L 175.334392 279.027166 
L 177.167908 279.374764 
L 179.001424 279.847728 
L 180.83494 279.84226 
L 182.668456 279.061984 
L 184.501972 278.710218 
L 186.335487 279.967186 
L 188.169003 279.257139 
L 190.002519 281.497662 
L 191.836035 281.307354 
L 193.669551 282.02736 
L 195.503067 281.995695 
L 197.336583 282.413742 
L 199.170099 281.929797 
L 201.003614 280.971003 
L 202.83713 281.036728 
L 204.670646 280.185954 
L 206.504162 278.897819 
L 208.337678 277.374374 
L 210.171194 276.298931 
L 212.00471 276.347055 
L 213.838226 275.227836 
L 215.671742 274.717982 
L 217.505257 275.126032 
L 219.338773 274.998963 
L 221.172289 275.187017 
L 223.005805 274.495314 
L 224.839321 275.442611 
L 226.672837 275.781249 
L 228.506353 275.20324 
L 230.339869 276.426926 
L 232.173384 277.085285 
L 234.0069 275.839891 
L 237.673932 276.715975 
L 239.507448 277.509423 
L 241.340964 279.270056 
L 243.17448 279.064243 
L 245.007996 279.20848 
L 246.841512 279.143455 
L 248.675027 278.381578 
L 250.508543 278.77062 
L 252.342059 280.207584 
L 254.175575 279.910489 
L 256.009091 279.259535 
L 257.842607 278.838176 
L 259.676123 278.116661 
L 261.509639 277.568243 
L 263.343154 278.846925 
L 265.17667 278.828229 
L 267.010186 277.95196 
L 268.843702 276.933022 
L 270.677218 277.588666 
L 272.510734 276.183991 
L 274.34425 277.977276 
L 276.177766 278.985044 
L 278.011281 278.154827 
L 279.844797 279.039351 
L 283.511829 276.263785 
L 285.345345 275.342335 
L 287.178861 276.141464 
L 289.012377 275.71105 
L 290.845893 276.31567 
L 292.679409 276.111293 
L 296.34644 276.195907 
L 298.179956 276.718495 
L 300.013472 277.375117 
L 301.846988 279.407046 
L 303.680504 280.409284 
L 305.51402 280.454209 
L 307.347536 279.965544 
L 309.181051 280.522709 
L 311.014567 280.646221 
L 312.848083 279.085235 
L 314.681599 278.49688 
L 316.515115 278.630809 
L 318.348631 278.352474 
L 322.015663 277.401215 
L 323.849179 277.23029 
L 327.51621 278.316621 
L 329.349726 275.453823 
L 331.183242 276.071723 
L 333.016758 277.569522 
L 334.850274 276.340375 
L 336.68379 275.577792 
L 338.517306 274.977688 
L 342.184337 274.705133 
L 344.017853 274.300393 
L 345.851369 274.331058 
L 347.684885 276.462705 
L 351.351917 275.095769 
L 353.185433 275.67077 
L 356.852464 277.779827 
L 358.68598 277.980224 
L 360.519496 277.504606 
L 362.353012 276.595821 
L 364.186528 275.958005 
L 366.020044 276.639901 
L 367.85356 276.19168 
L 369.687076 276.597261 
L 371.520591 275.710927 
L 373.354107 274.98462 
L 375.187623 274.588436 
L 377.021139 275.182697 
L 378.854655 275.459517 
L 380.688171 276.553206 
L 382.521687 277.035675 
L 384.355203 276.250891 
L 386.188719 277.497477 
L 388.022234 278.283834 
L 389.85575 279.356771 
L 391.689266 280.050621 
L 393.522782 279.990094 
L 397.189814 279.262462 
L 399.02333 277.667119 
L 400.856846 277.584612 
L 402.690361 277.866501 
L 404.523877 277.675236 
L 406.357393 277.119454 
L 408.190909 277.69679 
L 410.024425 277.508045 
L 415.524973 279.296734 
L 417.358488 281.858078 
L 419.192004 281.515421 
L 421.02552 281.525621 
L 422.859036 280.831333 
L 424.692552 281.366277 
L 428.359584 277.662499 
L 430.1931 276.82127 
L 432.026616 277.997173 
L 435.693647 278.391682 
L 439.360679 276.98592 
L 441.194195 277.629535 
L 443.027711 277.270544 
L 444.861227 278.362388 
L 446.694743 279.592761 
L 448.528258 280.966135 
L 450.361774 280.446587 
L 452.19529 280.115029 
L 454.028806 279.349764 
L 455.862322 279.94495 
L 457.695838 281.172469 
L 459.529354 281.798351 
L 461.36287 283.317202 
L 463.196386 282.218004 
L 465.029901 281.981277 
L 466.863417 281.436941 
L 468.696933 280.560937 
L 470.530449 280.128771 
L 474.197481 280.88272 
L 476.030997 279.977559 
L 477.864513 279.688825 
L 479.698028 278.805369 
L 481.531544 279.349085 
L 483.36506 280.503124 
L 485.198576 281.112037 
L 487.032092 280.435534 
L 488.865608 280.874635 
L 490.699124 279.664128 
L 492.53264 278.6689 
L 494.366156 278.379946 
L 496.199671 276.844213 
L 498.033187 278.689429 
L 499.866703 277.934623 
L 501.700219 276.592709 
L 503.533735 275.84188 
L 505.367251 276.31866 
L 507.200767 276.087145 
L 510.867798 278.230596 
L 512.701314 277.795661 
L 514.53483 278.363832 
L 516.368346 277.825596 
L 518.201862 278.001444 
L 520.035378 278.783678 
L 521.868894 279.308983 
L 523.70241 277.781453 
L 525.535926 278.194962 
L 527.369441 277.817698 
L 529.202957 277.814366 
L 531.036473 278.467592 
L 532.869989 278.764653 
L 534.703505 277.871258 
L 536.537021 278.498433 
L 540.204053 279.403927 
L 542.037568 280.678561 
L 543.871084 279.664689 
L 545.7046 276.966689 
L 547.538116 276.301029 
L 549.371632 277.567717 
L 551.205148 279.532288 
L 553.038664 279.799319 
L 554.87218 279.095976 
L 556.705696 279.043682 
L 558.539211 278.118853 
L 560.372727 277.321935 
L 560.372727 277.321935 
" clip-path="url(#pfdcb9aac47)" style="fill: none; stroke: #808080; stroke-width: 1.5; stroke-linecap: square"/>
   </g>
   <g id="line2d_32">
    <path d="M 103.827273 290.299417 
L 105.660789 288.899802 
L 107.494304 286.53367 
L 111.161336 279.99147 
L 112.994852 275.993082 
L 114.828368 276.196236 
L 116.661884 277.989365 
L 118.4954 275.597961 
L 120.328916 275.266661 
L 122.162432 277.303643 
L 123.995947 277.947087 
L 125.829463 277.468292 
L 127.662979 278.60384 
L 129.496495 277.622604 
L 133.163527 275.103127 
L 134.997043 277.192744 
L 136.830559 276.669021 
L 138.664074 275.119276 
L 140.49759 277.67846 
L 144.164622 278.769258 
L 145.998138 280.065495 
L 147.831654 278.070589 
L 149.66517 280.662037 
L 151.498686 280.107214 
L 153.332202 281.195139 
L 155.165717 280.529073 
L 156.999233 279.177513 
L 158.832749 280.673835 
L 160.666265 279.578595 
L 162.499781 279.06739 
L 164.333297 279.535768 
L 166.166813 278.909467 
L 168.000329 278.506606 
L 169.833844 278.353689 
L 171.66736 278.834156 
L 173.500876 277.352407 
L 175.334392 279.506764 
L 177.167908 280.613103 
L 179.001424 283.361197 
L 180.83494 282.306597 
L 182.668456 282.500566 
L 184.501972 281.651008 
L 186.335487 279.208201 
L 188.169003 279.035413 
L 190.002519 281.149886 
L 191.836035 281.60186 
L 193.669551 282.799629 
L 195.503067 282.13087 
L 197.336583 284.502477 
L 199.170099 281.816738 
L 201.003614 282.318757 
L 202.83713 282.453557 
L 204.670646 281.394488 
L 206.504162 280.521626 
L 208.337678 278.808695 
L 210.171194 279.079591 
L 212.00471 280.72544 
L 213.838226 280.721343 
L 217.505257 279.324397 
L 219.338773 280.368885 
L 221.172289 279.517482 
L 223.005805 278.81388 
L 224.839321 280.108279 
L 226.672837 278.640645 
L 228.506353 279.179856 
L 230.339869 280.613045 
L 232.173384 282.576159 
L 234.0069 280.832876 
L 235.840416 280.373379 
L 237.673932 281.929405 
L 239.507448 281.10158 
L 241.340964 283.003509 
L 243.17448 284.295182 
L 245.007996 283.021852 
L 246.841512 282.87867 
L 248.675027 281.895841 
L 250.508543 281.326 
L 252.342059 281.69477 
L 254.175575 281.797577 
L 256.009091 282.738672 
L 257.842607 281.834136 
L 259.676123 281.847633 
L 261.509639 281.198994 
L 263.343154 284.342499 
L 265.17667 285.294583 
L 267.010186 283.942565 
L 268.843702 283.541835 
L 270.677218 284.732935 
L 272.510734 284.308749 
L 274.34425 285.22323 
L 276.177766 284.054205 
L 278.011281 282.457219 
L 279.844797 282.348434 
L 281.678313 281.313981 
L 283.511829 281.292873 
L 285.345345 280.871151 
L 289.012377 283.209536 
L 290.845893 284.14086 
L 292.679409 284.524885 
L 294.512924 284.312475 
L 296.34644 283.797727 
L 298.179956 284.947446 
L 300.013472 284.636501 
L 301.846988 285.61243 
L 303.680504 284.461021 
L 305.51402 285.839173 
L 307.347536 285.276241 
L 309.181051 285.082407 
L 311.014567 284.373229 
L 312.848083 285.202369 
L 314.681599 283.643622 
L 316.515115 284.306171 
L 318.348631 283.968057 
L 323.849179 283.527056 
L 325.682694 284.565834 
L 327.51621 286.178093 
L 329.349726 283.522575 
L 331.183242 283.961557 
L 333.016758 284.7166 
L 334.850274 283.865842 
L 336.68379 282.721815 
L 338.517306 283.685676 
L 340.350821 283.920309 
L 342.184337 281.666707 
L 344.017853 281.865903 
L 347.684885 283.950872 
L 349.518401 282.508378 
L 351.351917 281.953042 
L 355.018949 282.511134 
L 356.852464 283.744399 
L 358.68598 284.207905 
L 360.519496 283.525524 
L 362.353012 281.835809 
L 364.186528 282.555729 
L 366.020044 283.844574 
L 367.85356 283.188825 
L 369.687076 283.930721 
L 371.520591 282.588893 
L 373.354107 282.296621 
L 375.187623 282.639939 
L 377.021139 283.566444 
L 378.854655 282.648543 
L 380.688171 282.576852 
L 382.521687 283.76986 
L 384.355203 283.222068 
L 386.188719 284.056046 
L 388.022234 284.093132 
L 389.85575 284.461833 
L 391.689266 286.948885 
L 393.522782 287.601142 
L 395.356298 287.160876 
L 397.189814 285.085117 
L 399.02333 284.389405 
L 402.690361 284.289325 
L 404.523877 284.598004 
L 406.357393 283.773396 
L 408.190909 283.901362 
L 410.024425 284.624299 
L 411.857941 285.211857 
L 413.691457 285.965571 
L 415.524973 286.275448 
L 417.358488 286.453524 
L 419.192004 285.95082 
L 421.02552 285.849184 
L 422.859036 285.270519 
L 424.692552 286.625393 
L 426.526068 284.212483 
L 428.359584 283.125259 
L 430.1931 281.884191 
L 432.026616 281.4526 
L 437.527163 282.183739 
L 443.027711 281.972694 
L 444.861227 282.837324 
L 446.694743 282.640371 
L 448.528258 283.896296 
L 450.361774 283.879791 
L 452.19529 283.115383 
L 454.028806 281.857494 
L 455.862322 283.188756 
L 457.695838 283.354055 
L 459.529354 281.825478 
L 461.36287 282.741418 
L 463.196386 282.263077 
L 465.029901 283.204854 
L 466.863417 283.257545 
L 468.696933 282.742445 
L 470.530449 281.687371 
L 472.363965 282.389816 
L 474.197481 283.248171 
L 476.030997 282.549893 
L 477.864513 281.999888 
L 479.698028 280.609541 
L 481.531544 281.236112 
L 483.36506 282.192043 
L 485.198576 281.787482 
L 487.032092 280.279201 
L 488.865608 281.805694 
L 492.53264 279.758711 
L 494.366156 279.147159 
L 496.199671 278.290026 
L 498.033187 279.839501 
L 499.866703 278.802007 
L 501.700219 276.672416 
L 503.533735 277.263578 
L 505.367251 276.440917 
L 507.200767 276.943638 
L 509.034283 278.042636 
L 510.867798 278.315185 
L 512.701314 276.307967 
L 516.368346 276.200523 
L 518.201862 276.989268 
L 520.035378 277.934562 
L 521.868894 278.229177 
L 523.70241 276.448529 
L 525.535926 276.605819 
L 527.369441 277.189251 
L 529.202957 276.169087 
L 531.036473 276.521143 
L 534.703505 276.250619 
L 536.537021 276.85475 
L 538.370537 277.248935 
L 540.204053 275.800542 
L 542.037568 275.766099 
L 543.871084 276.309477 
L 545.7046 273.773558 
L 547.538116 273.070578 
L 549.371632 273.908679 
L 551.205148 272.897675 
L 553.038664 272.675337 
L 554.87218 273.047337 
L 556.705696 271.156052 
L 558.539211 270.774988 
L 560.372727 268.462037 
L 560.372727 268.462037 
" clip-path="url(#pfdcb9aac47)" style="fill: none; stroke: #ff7f0e; stroke-width: 1.5; stroke-linecap: square"/>
   </g>
   <g id="line2d_33">
    <path d="M 103.827273 292.41 
L 105.660789 291.315136 
L 107.494304 289.006667 
L 112.994852 279.374757 
L 114.828368 279.582986 
L 116.661884 281.23782 
L 118.4954 279.031648 
L 120.328916 278.791463 
L 122.162432 280.850741 
L 123.995947 281.267558 
L 125.829463 280.657722 
L 127.662979 281.440516 
L 129.496495 280.432895 
L 131.330011 279.251276 
L 133.163527 277.917025 
L 134.997043 279.833 
L 136.830559 279.33673 
L 138.664074 277.477252 
L 140.49759 279.990177 
L 142.331106 280.82083 
L 144.164622 281.065072 
L 145.998138 281.987345 
L 147.831654 280.523661 
L 149.66517 282.557353 
L 151.498686 281.896329 
L 153.332202 282.912564 
L 155.165717 282.417196 
L 156.999233 281.454736 
L 158.832749 282.575817 
L 160.666265 281.595453 
L 162.499781 281.239376 
L 164.333297 281.319635 
L 166.166813 280.727767 
L 168.000329 281.282744 
L 169.833844 280.737175 
L 171.66736 281.515337 
L 173.500876 280.583403 
L 175.334392 283.14525 
L 177.167908 284.43894 
L 179.001424 286.877241 
L 180.83494 286.221423 
L 182.668456 286.617875 
L 184.501972 285.594727 
L 186.335487 283.605529 
L 188.169003 282.970498 
L 190.002519 284.920573 
L 191.836035 285.106567 
L 193.669551 285.711484 
L 195.503067 284.963939 
L 197.336583 286.90917 
L 199.170099 284.031922 
L 201.003614 284.596898 
L 202.83713 284.761141 
L 204.670646 283.596769 
L 206.504162 282.864026 
L 208.337678 281.374332 
L 210.171194 281.911496 
L 212.00471 283.409295 
L 213.838226 283.558739 
L 215.671742 283.109111 
L 217.505257 282.4249 
L 219.338773 283.160981 
L 221.172289 282.478221 
L 223.005805 281.526196 
L 224.839321 282.785677 
L 226.672837 281.467883 
L 228.506353 281.652783 
L 230.339869 282.725662 
L 232.173384 284.866411 
L 234.0069 283.197875 
L 235.840416 283.354235 
L 237.673932 284.905542 
L 239.507448 284.385637 
L 241.340964 286.409393 
L 243.17448 287.301443 
L 245.007996 285.953628 
L 246.841512 285.876293 
L 248.675027 284.321892 
L 250.508543 283.666946 
L 252.342059 283.876165 
L 254.175575 283.647507 
L 256.009091 284.499959 
L 257.842607 283.233695 
L 259.676123 283.2079 
L 261.509639 282.793118 
L 263.343154 285.47 
L 265.17667 286.350804 
L 267.010186 285.078596 
L 268.843702 284.500712 
L 270.677218 285.654662 
L 272.510734 285.358466 
L 274.34425 286.103943 
L 276.177766 285.026012 
L 278.011281 283.494567 
L 279.844797 283.502565 
L 281.678313 281.958273 
L 283.511829 281.67847 
L 285.345345 281.285887 
L 287.178861 282.4661 
L 289.012377 283.294724 
L 290.845893 284.618522 
L 292.679409 284.630121 
L 294.512924 284.409044 
L 296.34644 283.899294 
L 298.179956 285.372798 
L 300.013472 285.638356 
L 301.846988 286.617587 
L 303.680504 285.619142 
L 305.51402 286.535996 
L 309.181051 286.412795 
L 311.014567 285.775596 
L 312.848083 285.804801 
L 314.681599 284.278083 
L 316.515115 285.045368 
L 320.182147 284.456691 
L 322.015663 284.495665 
L 323.849179 283.766146 
L 325.682694 284.70543 
L 327.51621 286.339484 
L 329.349726 283.409792 
L 331.183242 283.610274 
L 333.016758 284.438668 
L 334.850274 283.411202 
L 336.68379 282.515717 
L 338.517306 283.448036 
L 340.350821 283.570073 
L 342.184337 281.790082 
L 344.017853 281.821014 
L 345.851369 282.88004 
L 347.684885 284.120491 
L 349.518401 282.802253 
L 351.351917 282.14 
L 353.185433 282.385243 
L 355.018949 282.454827 
L 356.852464 283.505756 
L 358.68598 283.897668 
L 360.519496 283.237078 
L 362.353012 281.704262 
L 364.186528 282.54912 
L 366.020044 283.86326 
L 367.85356 283.425183 
L 369.687076 284.25389 
L 371.520591 282.913945 
L 373.354107 282.640659 
L 375.187623 282.754247 
L 377.021139 283.590365 
L 378.854655 282.546278 
L 380.688171 282.413905 
L 382.521687 283.634331 
L 384.355203 282.988741 
L 386.188719 283.841478 
L 388.022234 283.947179 
L 389.85575 284.452522 
L 391.689266 286.834542 
L 393.522782 287.677761 
L 395.356298 287.168259 
L 397.189814 285.180842 
L 399.02333 284.2899 
L 400.856846 284.403708 
L 402.690361 284.190087 
L 404.523877 284.501077 
L 406.357393 283.703048 
L 408.190909 283.962338 
L 411.857941 285.548346 
L 413.691457 286.172127 
L 415.524973 286.245082 
L 417.358488 287.065743 
L 419.192004 286.810043 
L 421.02552 286.364864 
L 422.859036 285.545178 
L 424.692552 287.296604 
L 426.526068 285.088886 
L 430.1931 282.735729 
L 433.860131 283.389344 
L 435.693647 283.440102 
L 437.527163 284.046845 
L 439.360679 283.624725 
L 443.027711 283.273796 
L 444.861227 283.887591 
L 446.694743 284.213083 
L 448.528258 285.525956 
L 450.361774 285.303831 
L 452.19529 284.554469 
L 454.028806 284.201388 
L 455.862322 285.246124 
L 457.695838 285.572702 
L 459.529354 285.228715 
L 461.36287 286.15344 
L 463.196386 285.416453 
L 465.029901 285.755476 
L 466.863417 285.071395 
L 470.530449 284.028472 
L 472.363965 284.40465 
L 474.197481 285.009485 
L 476.030997 284.291625 
L 477.864513 283.437419 
L 479.698028 282.22476 
L 481.531544 282.890447 
L 483.36506 284.185257 
L 485.198576 284.239467 
L 487.032092 283.553781 
L 488.865608 284.539027 
L 490.699124 283.775778 
L 492.53264 282.845731 
L 494.366156 282.041468 
L 496.199671 280.666334 
L 498.033187 282.204345 
L 499.866703 281.287868 
L 501.700219 280.157253 
L 503.533735 280.479942 
L 505.367251 279.707641 
L 507.200767 280.114071 
L 509.034283 281.770266 
L 510.867798 282.451179 
L 512.701314 281.394455 
L 514.53483 281.589747 
L 516.368346 281.452332 
L 518.201862 282.062169 
L 520.035378 282.857834 
L 521.868894 282.654356 
L 523.70241 280.685019 
L 525.535926 281.797304 
L 527.369441 281.666729 
L 529.202957 280.392199 
L 531.036473 281.302645 
L 532.869989 281.40283 
L 534.703505 281.043212 
L 536.537021 281.699441 
L 538.370537 281.829529 
L 540.204053 280.553986 
L 542.037568 281.054061 
L 543.871084 280.604388 
L 545.7046 278.431706 
L 547.538116 277.158952 
L 551.205148 278.35155 
L 553.038664 278.138086 
L 554.87218 278.385343 
L 558.539211 276.524983 
L 560.372727 273.868232 
L 560.372727 273.868232 
" clip-path="url(#pfdcb9aac47)" style="fill: none; stroke: #1f77b4; stroke-width: 1.5; stroke-linecap: square"/>
   </g>
   <g id="legend_1">
    <g id="patch_7">
     <path d="M 88 151.786875 
L 273.757812 151.786875 
Q 275.757812 151.786875 275.757812 149.786875 
L 275.757812 48.04 
Q 275.757812 46.04 273.757812 46.04 
L 88 46.04 
Q 86 46.04 86 48.04 
L 86 149.786875 
Q 86 151.786875 88 151.786875 
z
" style="fill: #ffffff; opacity: 0.8; stroke: #e6e6e6; stroke-linejoin: miter"/>
    </g>
    <g id="line2d_34">
     <path d="M 90 54.138438 
L 100 54.138438 
L 110 54.138438 
" style="fill: none; stroke-dasharray: 1.5,2.475; stroke-dashoffset: 0; stroke: #ff0000; stroke-width: 1.5"/>
    </g>
    <g id="text_17">
     <!-- R/S (AUC:0.0239) -->
     <g transform="translate(118 57.638438)scale(0.1 -0.1)">
      <defs>
       <path id="DejaVuSans-52" d="M 2841 2188 
Q 3044 2119 3236 1894 
Q 3428 1669 3622 1275 
L 4263 0 
L 3584 0 
L 2988 1197 
Q 2756 1666 2539 1819 
Q 2322 1972 1947 1972 
L 1259 1972 
L 1259 0 
L 628 0 
L 628 4666 
L 2053 4666 
Q 2853 4666 3247 4331 
Q 3641 3997 3641 3322 
Q 3641 2881 3436 2590 
Q 3231 2300 2841 2188 
z
M 1259 4147 
L 1259 2491 
L 2053 2491 
Q 2509 2491 2742 2702 
Q 2975 2913 2975 3322 
Q 2975 3731 2742 3939 
Q 2509 4147 2053 4147 
L 1259 4147 
z
" transform="scale(0.015625)"/>
       <path id="DejaVuSans-53" d="M 3425 4513 
L 3425 3897 
Q 3066 4069 2747 4153 
Q 2428 4238 2131 4238 
Q 1616 4238 1336 4038 
Q 1056 3838 1056 3469 
Q 1056 3159 1242 3001 
Q 1428 2844 1947 2747 
L 2328 2669 
Q 3034 2534 3370 2195 
Q 3706 1856 3706 1288 
Q 3706 609 3251 259 
Q 2797 -91 1919 -91 
Q 1588 -91 1214 -16 
Q 841 59 441 206 
L 441 856 
Q 825 641 1194 531 
Q 1563 422 1919 422 
Q 2459 422 2753 634 
Q 3047 847 3047 1241 
Q 3047 1584 2836 1778 
Q 2625 1972 2144 2069 
L 1759 2144 
Q 1053 2284 737 2584 
Q 422 2884 422 3419 
Q 422 4038 858 4394 
Q 1294 4750 2059 4750 
Q 2388 4750 2728 4690 
Q 3069 4631 3425 4513 
z
" transform="scale(0.015625)"/>
       <path id="DejaVuSans-41" d="M 2188 4044 
L 1331 1722 
L 3047 1722 
L 2188 4044 
z
M 1831 4666 
L 2547 4666 
L 4325 0 
L 3669 0 
L 3244 1197 
L 1141 1197 
L 716 0 
L 50 0 
L 1831 4666 
z
" transform="scale(0.015625)"/>
       <path id="DejaVuSans-55" d="M 556 4666 
L 1191 4666 
L 1191 1831 
Q 1191 1081 1462 751 
Q 1734 422 2344 422 
Q 2950 422 3222 751 
Q 3494 1081 3494 1831 
L 3494 4666 
L 4128 4666 
L 4128 1753 
Q 4128 841 3676 375 
Q 3225 -91 2344 -91 
Q 1459 -91 1007 375 
Q 556 841 556 1753 
L 556 4666 
z
" transform="scale(0.015625)"/>
       <path id="DejaVuSans-43" d="M 4122 4306 
L 4122 3641 
Q 3803 3938 3442 4084 
Q 3081 4231 2675 4231 
Q 1875 4231 1450 3742 
Q 1025 3253 1025 2328 
Q 1025 1406 1450 917 
Q 1875 428 2675 428 
Q 3081 428 3442 575 
Q 3803 722 4122 1019 
L 4122 359 
Q 3791 134 3420 21 
Q 3050 -91 2638 -91 
Q 1578 -91 968 557 
Q 359 1206 359 2328 
Q 359 3453 968 4101 
Q 1578 4750 2638 4750 
Q 3056 4750 3426 4639 
Q 3797 4528 4122 4306 
z
" transform="scale(0.015625)"/>
       <path id="DejaVuSans-39" d="M 703 97 
L 703 672 
Q 941 559 1184 500 
Q 1428 441 1663 441 
Q 2288 441 2617 861 
Q 2947 1281 2994 2138 
Q 2813 1869 2534 1725 
Q 2256 1581 1919 1581 
Q 1219 1581 811 2004 
Q 403 2428 403 3163 
Q 403 3881 828 4315 
Q 1253 4750 1959 4750 
Q 2769 4750 3195 4129 
Q 3622 3509 3622 2328 
Q 3622 1225 3098 567 
Q 2575 -91 1691 -91 
Q 1453 -91 1209 -44 
Q 966 3 703 97 
z
M 1959 2075 
Q 2384 2075 2632 2365 
Q 2881 2656 2881 3163 
Q 2881 3666 2632 3958 
Q 2384 4250 1959 4250 
Q 1534 4250 1286 3958 
Q 1038 3666 1038 3163 
Q 1038 2656 1286 2365 
Q 1534 2075 1959 2075 
z
" transform="scale(0.015625)"/>
      </defs>
      <use xlink:href="#DejaVuSans-52"/>
      <use xlink:href="#DejaVuSans-2f" x="69.482422"/>
      <use xlink:href="#DejaVuSans-53" x="103.173828"/>
      <use xlink:href="#DejaVuSans-20" x="166.650391"/>
      <use xlink:href="#DejaVuSans-28" x="198.4375"/>
      <use xlink:href="#DejaVuSans-41" x="237.451172"/>
      <use xlink:href="#DejaVuSans-55" x="305.859375"/>
      <use xlink:href="#DejaVuSans-43" x="379.052734"/>
      <use xlink:href="#DejaVuSans-3a" x="448.876953"/>
      <use xlink:href="#DejaVuSans-30" x="482.568359"/>
      <use xlink:href="#DejaVuSans-2e" x="546.191406"/>
      <use xlink:href="#DejaVuSans-30" x="577.978516"/>
      <use xlink:href="#DejaVuSans-32" x="641.601562"/>
      <use xlink:href="#DejaVuSans-33" x="705.224609"/>
      <use xlink:href="#DejaVuSans-39" x="768.847656"/>
      <use xlink:href="#DejaVuSans-29" x="832.470703"/>
     </g>
    </g>
    <g id="line2d_35">
     <path d="M 90 68.816563 
L 100 68.816563 
L 110 68.816563 
" style="fill: none; stroke-dasharray: 9.6,2.4,1.5,2.4; stroke-dashoffset: 0; stroke: #ff0000; stroke-width: 1.5"/>
    </g>
    <g id="text_18">
     <!-- variogram (AUC:0.0138) -->
     <g transform="translate(118 72.316563)scale(0.1 -0.1)">
      <defs>
       <path id="DejaVuSans-67" d="M 2906 1791 
Q 2906 2416 2648 2759 
Q 2391 3103 1925 3103 
Q 1463 3103 1205 2759 
Q 947 2416 947 1791 
Q 947 1169 1205 825 
Q 1463 481 1925 481 
Q 2391 481 2648 825 
Q 2906 1169 2906 1791 
z
M 3481 434 
Q 3481 -459 3084 -895 
Q 2688 -1331 1869 -1331 
Q 1566 -1331 1297 -1286 
Q 1028 -1241 775 -1147 
L 775 -588 
Q 1028 -725 1275 -790 
Q 1522 -856 1778 -856 
Q 2344 -856 2625 -561 
Q 2906 -266 2906 331 
L 2906 616 
Q 2728 306 2450 153 
Q 2172 0 1784 0 
Q 1141 0 747 490 
Q 353 981 353 1791 
Q 353 2603 747 3093 
Q 1141 3584 1784 3584 
Q 2172 3584 2450 3431 
Q 2728 3278 2906 2969 
L 2906 3500 
L 3481 3500 
L 3481 434 
z
" transform="scale(0.015625)"/>
       <path id="DejaVuSans-6d" d="M 3328 2828 
Q 3544 3216 3844 3400 
Q 4144 3584 4550 3584 
Q 5097 3584 5394 3201 
Q 5691 2819 5691 2113 
L 5691 0 
L 5113 0 
L 5113 2094 
Q 5113 2597 4934 2840 
Q 4756 3084 4391 3084 
Q 3944 3084 3684 2787 
Q 3425 2491 3425 1978 
L 3425 0 
L 2847 0 
L 2847 2094 
Q 2847 2600 2669 2842 
Q 2491 3084 2119 3084 
Q 1678 3084 1418 2786 
Q 1159 2488 1159 1978 
L 1159 0 
L 581 0 
L 581 3500 
L 1159 3500 
L 1159 2956 
Q 1356 3278 1631 3431 
Q 1906 3584 2284 3584 
Q 2666 3584 2933 3390 
Q 3200 3197 3328 2828 
z
" transform="scale(0.015625)"/>
      </defs>
      <use xlink:href="#DejaVuSans-76"/>
      <use xlink:href="#DejaVuSans-61" x="59.179688"/>
      <use xlink:href="#DejaVuSans-72" x="120.458984"/>
      <use xlink:href="#DejaVuSans-69" x="161.572266"/>
      <use xlink:href="#DejaVuSans-6f" x="189.355469"/>
      <use xlink:href="#DejaVuSans-67" x="250.537109"/>
      <use xlink:href="#DejaVuSans-72" x="314.013672"/>
      <use xlink:href="#DejaVuSans-61" x="355.126953"/>
      <use xlink:href="#DejaVuSans-6d" x="416.40625"/>
      <use xlink:href="#DejaVuSans-20" x="513.818359"/>
      <use xlink:href="#DejaVuSans-28" x="545.605469"/>
      <use xlink:href="#DejaVuSans-41" x="584.619141"/>
      <use xlink:href="#DejaVuSans-55" x="653.027344"/>
      <use xlink:href="#DejaVuSans-43" x="726.220703"/>
      <use xlink:href="#DejaVuSans-3a" x="796.044922"/>
      <use xlink:href="#DejaVuSans-30" x="829.736328"/>
      <use xlink:href="#DejaVuSans-2e" x="893.359375"/>
      <use xlink:href="#DejaVuSans-30" x="925.146484"/>
      <use xlink:href="#DejaVuSans-31" x="988.769531"/>
      <use xlink:href="#DejaVuSans-33" x="1052.392578"/>
      <use xlink:href="#DejaVuSans-38" x="1116.015625"/>
      <use xlink:href="#DejaVuSans-29" x="1179.638672"/>
     </g>
    </g>
    <g id="line2d_36">
     <path d="M 90 83.494687 
L 100 83.494687 
L 110 83.494687 
" style="fill: none; stroke-dasharray: 5.55,2.4; stroke-dashoffset: 0; stroke: #ff0000; stroke-width: 1.5"/>
    </g>
    <g id="text_19">
     <!-- Higuchi (AUC:0.00968) -->
     <g transform="translate(118 86.994687)scale(0.1 -0.1)">
      <defs>
       <path id="DejaVuSans-48" d="M 628 4666 
L 1259 4666 
L 1259 2753 
L 3553 2753 
L 3553 4666 
L 4184 4666 
L 4184 0 
L 3553 0 
L 3553 2222 
L 1259 2222 
L 1259 0 
L 628 0 
L 628 4666 
z
" transform="scale(0.015625)"/>
       <path id="DejaVuSans-75" d="M 544 1381 
L 544 3500 
L 1119 3500 
L 1119 1403 
Q 1119 906 1312 657 
Q 1506 409 1894 409 
Q 2359 409 2629 706 
Q 2900 1003 2900 1516 
L 2900 3500 
L 3475 3500 
L 3475 0 
L 2900 0 
L 2900 538 
Q 2691 219 2414 64 
Q 2138 -91 1772 -91 
Q 1169 -91 856 284 
Q 544 659 544 1381 
z
M 1991 3584 
L 1991 3584 
z
" transform="scale(0.015625)"/>
       <path id="DejaVuSans-63" d="M 3122 3366 
L 3122 2828 
Q 2878 2963 2633 3030 
Q 2388 3097 2138 3097 
Q 1578 3097 1268 2742 
Q 959 2388 959 1747 
Q 959 1106 1268 751 
Q 1578 397 2138 397 
Q 2388 397 2633 464 
Q 2878 531 3122 666 
L 3122 134 
Q 2881 22 2623 -34 
Q 2366 -91 2075 -91 
Q 1284 -91 818 406 
Q 353 903 353 1747 
Q 353 2603 823 3093 
Q 1294 3584 2113 3584 
Q 2378 3584 2631 3529 
Q 2884 3475 3122 3366 
z
" transform="scale(0.015625)"/>
       <path id="DejaVuSans-68" d="M 3513 2113 
L 3513 0 
L 2938 0 
L 2938 2094 
Q 2938 2591 2744 2837 
Q 2550 3084 2163 3084 
Q 1697 3084 1428 2787 
Q 1159 2491 1159 1978 
L 1159 0 
L 581 0 
L 581 4863 
L 1159 4863 
L 1159 2956 
Q 1366 3272 1645 3428 
Q 1925 3584 2291 3584 
Q 2894 3584 3203 3211 
Q 3513 2838 3513 2113 
z
" transform="scale(0.015625)"/>
      </defs>
      <use xlink:href="#DejaVuSans-48"/>
      <use xlink:href="#DejaVuSans-69" x="75.195312"/>
      <use xlink:href="#DejaVuSans-67" x="102.978516"/>
      <use xlink:href="#DejaVuSans-75" x="166.455078"/>
      <use xlink:href="#DejaVuSans-63" x="229.833984"/>
      <use xlink:href="#DejaVuSans-68" x="284.814453"/>
      <use xlink:href="#DejaVuSans-69" x="348.193359"/>
      <use xlink:href="#DejaVuSans-20" x="375.976562"/>
      <use xlink:href="#DejaVuSans-28" x="407.763672"/>
      <use xlink:href="#DejaVuSans-41" x="446.777344"/>
      <use xlink:href="#DejaVuSans-55" x="515.185547"/>
      <use xlink:href="#DejaVuSans-43" x="588.378906"/>
      <use xlink:href="#DejaVuSans-3a" x="658.203125"/>
      <use xlink:href="#DejaVuSans-30" x="691.894531"/>
      <use xlink:href="#DejaVuSans-2e" x="755.517578"/>
      <use xlink:href="#DejaVuSans-30" x="787.304688"/>
      <use xlink:href="#DejaVuSans-30" x="850.927734"/>
      <use xlink:href="#DejaVuSans-39" x="914.550781"/>
      <use xlink:href="#DejaVuSans-36" x="978.173828"/>
      <use xlink:href="#DejaVuSans-38" x="1041.796875"/>
      <use xlink:href="#DejaVuSans-29" x="1105.419922"/>
     </g>
    </g>
    <g id="line2d_37">
     <path d="M 90 98.172813 
L 100 98.172813 
L 110 98.172813 
" style="fill: none; stroke: #ff0000; stroke-width: 1.5; stroke-linecap: square"/>
    </g>
    <g id="text_20">
     <!-- Whittle fBm (AUC:0.00618) -->
     <g transform="translate(118 101.672813)scale(0.1 -0.1)">
      <defs>
       <path id="DejaVuSans-57" d="M 213 4666 
L 850 4666 
L 1831 722 
L 2809 4666 
L 3519 4666 
L 4500 722 
L 5478 4666 
L 6119 4666 
L 4947 0 
L 4153 0 
L 3169 4050 
L 2175 0 
L 1381 0 
L 213 4666 
z
" transform="scale(0.015625)"/>
       <path id="DejaVuSans-66" d="M 2375 4863 
L 2375 4384 
L 1825 4384 
Q 1516 4384 1395 4259 
Q 1275 4134 1275 3809 
L 1275 3500 
L 2222 3500 
L 2222 3053 
L 1275 3053 
L 1275 0 
L 697 0 
L 697 3053 
L 147 3053 
L 147 3500 
L 697 3500 
L 697 3744 
Q 697 4328 969 4595 
Q 1241 4863 1831 4863 
L 2375 4863 
z
" transform="scale(0.015625)"/>
       <path id="DejaVuSans-42" d="M 1259 2228 
L 1259 519 
L 2272 519 
Q 2781 519 3026 730 
Q 3272 941 3272 1375 
Q 3272 1813 3026 2020 
Q 2781 2228 2272 2228 
L 1259 2228 
z
M 1259 4147 
L 1259 2741 
L 2194 2741 
Q 2656 2741 2882 2914 
Q 3109 3088 3109 3444 
Q 3109 3797 2882 3972 
Q 2656 4147 2194 4147 
L 1259 4147 
z
M 628 4666 
L 2241 4666 
Q 2963 4666 3353 4366 
Q 3744 4066 3744 3513 
Q 3744 3084 3544 2831 
Q 3344 2578 2956 2516 
Q 3422 2416 3680 2098 
Q 3938 1781 3938 1306 
Q 3938 681 3513 340 
Q 3088 0 2303 0 
L 628 0 
L 628 4666 
z
" transform="scale(0.015625)"/>
      </defs>
      <use xlink:href="#DejaVuSans-57"/>
      <use xlink:href="#DejaVuSans-68" x="98.876953"/>
      <use xlink:href="#DejaVuSans-69" x="162.255859"/>
      <use xlink:href="#DejaVuSans-74" x="190.039062"/>
      <use xlink:href="#DejaVuSans-74" x="229.248047"/>
      <use xlink:href="#DejaVuSans-6c" x="268.457031"/>
      <use xlink:href="#DejaVuSans-65" x="296.240234"/>
      <use xlink:href="#DejaVuSans-20" x="357.763672"/>
      <use xlink:href="#DejaVuSans-66" x="389.550781"/>
      <use xlink:href="#DejaVuSans-42" x="424.755859"/>
      <use xlink:href="#DejaVuSans-6d" x="493.359375"/>
      <use xlink:href="#DejaVuSans-20" x="590.771484"/>
      <use xlink:href="#DejaVuSans-28" x="622.558594"/>
      <use xlink:href="#DejaVuSans-41" x="661.572266"/>
      <use xlink:href="#DejaVuSans-55" x="729.980469"/>
      <use xlink:href="#DejaVuSans-43" x="803.173828"/>
      <use xlink:href="#DejaVuSans-3a" x="872.998047"/>
      <use xlink:href="#DejaVuSans-30" x="906.689453"/>
      <use xlink:href="#DejaVuSans-2e" x="970.3125"/>
      <use xlink:href="#DejaVuSans-30" x="1002.099609"/>
      <use xlink:href="#DejaVuSans-30" x="1065.722656"/>
      <use xlink:href="#DejaVuSans-36" x="1129.345703"/>
      <use xlink:href="#DejaVuSans-31" x="1192.96875"/>
      <use xlink:href="#DejaVuSans-38" x="1256.591797"/>
      <use xlink:href="#DejaVuSans-29" x="1320.214844"/>
     </g>
    </g>
    <g id="line2d_38">
     <path d="M 90 112.850938 
L 100 112.850938 
L 110 112.850938 
" style="fill: none; stroke: #808080; stroke-width: 1.5; stroke-linecap: square"/>
    </g>
    <g id="text_21">
     <!-- Whittle ARFIMA (AUC:0.00698) -->
     <g transform="translate(118 116.350938)scale(0.1 -0.1)">
      <defs>
       <path id="DejaVuSans-46" d="M 628 4666 
L 3309 4666 
L 3309 4134 
L 1259 4134 
L 1259 2759 
L 3109 2759 
L 3109 2228 
L 1259 2228 
L 1259 0 
L 628 0 
L 628 4666 
z
" transform="scale(0.015625)"/>
       <path id="DejaVuSans-49" d="M 628 4666 
L 1259 4666 
L 1259 0 
L 628 0 
L 628 4666 
z
" transform="scale(0.015625)"/>
       <path id="DejaVuSans-4d" d="M 628 4666 
L 1569 4666 
L 2759 1491 
L 3956 4666 
L 4897 4666 
L 4897 0 
L 4281 0 
L 4281 4097 
L 3078 897 
L 2444 897 
L 1241 4097 
L 1241 0 
L 628 0 
L 628 4666 
z
" transform="scale(0.015625)"/>
      </defs>
      <use xlink:href="#DejaVuSans-57"/>
      <use xlink:href="#DejaVuSans-68" x="98.876953"/>
      <use xlink:href="#DejaVuSans-69" x="162.255859"/>
      <use xlink:href="#DejaVuSans-74" x="190.039062"/>
      <use xlink:href="#DejaVuSans-74" x="229.248047"/>
      <use xlink:href="#DejaVuSans-6c" x="268.457031"/>
      <use xlink:href="#DejaVuSans-65" x="296.240234"/>
      <use xlink:href="#DejaVuSans-20" x="357.763672"/>
      <use xlink:href="#DejaVuSans-41" x="389.550781"/>
      <use xlink:href="#DejaVuSans-52" x="457.958984"/>
      <use xlink:href="#DejaVuSans-46" x="527.441406"/>
      <use xlink:href="#DejaVuSans-49" x="584.960938"/>
      <use xlink:href="#DejaVuSans-4d" x="614.453125"/>
      <use xlink:href="#DejaVuSans-41" x="700.732422"/>
      <use xlink:href="#DejaVuSans-20" x="769.140625"/>
      <use xlink:href="#DejaVuSans-28" x="800.927734"/>
      <use xlink:href="#DejaVuSans-41" x="839.941406"/>
      <use xlink:href="#DejaVuSans-55" x="908.349609"/>
      <use xlink:href="#DejaVuSans-43" x="981.542969"/>
      <use xlink:href="#DejaVuSans-3a" x="1051.367188"/>
      <use xlink:href="#DejaVuSans-30" x="1085.058594"/>
      <use xlink:href="#DejaVuSans-2e" x="1148.681641"/>
      <use xlink:href="#DejaVuSans-30" x="1180.46875"/>
      <use xlink:href="#DejaVuSans-30" x="1244.091797"/>
      <use xlink:href="#DejaVuSans-36" x="1307.714844"/>
      <use xlink:href="#DejaVuSans-39" x="1371.337891"/>
      <use xlink:href="#DejaVuSans-38" x="1434.960938"/>
      <use xlink:href="#DejaVuSans-29" x="1498.583984"/>
     </g>
    </g>
    <g id="line2d_39">
     <path d="M 90 127.529063 
L 100 127.529063 
L 110 127.529063 
" style="fill: none; stroke: #ff7f0e; stroke-width: 1.5; stroke-linecap: square"/>
    </g>
    <g id="text_22">
     <!-- 1D CNN (AUC:0.00657) -->
     <g transform="translate(118 131.029063)scale(0.1 -0.1)">
      <defs>
       <path id="DejaVuSans-4e" d="M 628 4666 
L 1478 4666 
L 3547 763 
L 3547 4666 
L 4159 4666 
L 4159 0 
L 3309 0 
L 1241 3903 
L 1241 0 
L 628 0 
L 628 4666 
z
" transform="scale(0.015625)"/>
       <path id="DejaVuSans-37" d="M 525 4666 
L 3525 4666 
L 3525 4397 
L 1831 0 
L 1172 0 
L 2766 4134 
L 525 4134 
L 525 4666 
z
" transform="scale(0.015625)"/>
      </defs>
      <use xlink:href="#DejaVuSans-31"/>
      <use xlink:href="#DejaVuSans-44" x="63.623047"/>
      <use xlink:href="#DejaVuSans-20" x="140.625"/>
      <use xlink:href="#DejaVuSans-43" x="172.412109"/>
      <use xlink:href="#DejaVuSans-4e" x="242.236328"/>
      <use xlink:href="#DejaVuSans-4e" x="317.041016"/>
      <use xlink:href="#DejaVuSans-20" x="391.845703"/>
      <use xlink:href="#DejaVuSans-28" x="423.632812"/>
      <use xlink:href="#DejaVuSans-41" x="462.646484"/>
      <use xlink:href="#DejaVuSans-55" x="531.054688"/>
      <use xlink:href="#DejaVuSans-43" x="604.248047"/>
      <use xlink:href="#DejaVuSans-3a" x="674.072266"/>
      <use xlink:href="#DejaVuSans-30" x="707.763672"/>
      <use xlink:href="#DejaVuSans-2e" x="771.386719"/>
      <use xlink:href="#DejaVuSans-30" x="803.173828"/>
      <use xlink:href="#DejaVuSans-30" x="866.796875"/>
      <use xlink:href="#DejaVuSans-36" x="930.419922"/>
      <use xlink:href="#DejaVuSans-35" x="994.042969"/>
      <use xlink:href="#DejaVuSans-37" x="1057.666016"/>
      <use xlink:href="#DejaVuSans-29" x="1121.289062"/>
     </g>
    </g>
    <g id="line2d_40">
     <path d="M 90 142.207188 
L 100 142.207188 
L 110 142.207188 
" style="fill: none; stroke: #1f77b4; stroke-width: 1.5; stroke-linecap: square"/>
    </g>
    <g id="text_23">
     <!-- LSTM (AUC:0.00632) -->
     <g transform="translate(118 145.707188)scale(0.1 -0.1)">
      <defs>
       <path id="DejaVuSans-4c" d="M 628 4666 
L 1259 4666 
L 1259 531 
L 3531 531 
L 3531 0 
L 628 0 
L 628 4666 
z
" transform="scale(0.015625)"/>
       <path id="DejaVuSans-54" d="M -19 4666 
L 3928 4666 
L 3928 4134 
L 2272 4134 
L 2272 0 
L 1638 0 
L 1638 4134 
L -19 4134 
L -19 4666 
z
" transform="scale(0.015625)"/>
      </defs>
      <use xlink:href="#DejaVuSans-4c"/>
      <use xlink:href="#DejaVuSans-53" x="55.712891"/>
      <use xlink:href="#DejaVuSans-54" x="119.189453"/>
      <use xlink:href="#DejaVuSans-4d" x="180.273438"/>
      <use xlink:href="#DejaVuSans-20" x="266.552734"/>
      <use xlink:href="#DejaVuSans-28" x="298.339844"/>
      <use xlink:href="#DejaVuSans-41" x="337.353516"/>
      <use xlink:href="#DejaVuSans-55" x="405.761719"/>
      <use xlink:href="#DejaVuSans-43" x="478.955078"/>
      <use xlink:href="#DejaVuSans-3a" x="548.779297"/>
      <use xlink:href="#DejaVuSans-30" x="582.470703"/>
      <use xlink:href="#DejaVuSans-2e" x="646.09375"/>
      <use xlink:href="#DejaVuSans-30" x="677.880859"/>
      <use xlink:href="#DejaVuSans-30" x="741.503906"/>
      <use xlink:href="#DejaVuSans-36" x="805.126953"/>
      <use xlink:href="#DejaVuSans-33" x="868.75"/>
      <use xlink:href="#DejaVuSans-32" x="932.373047"/>
      <use xlink:href="#DejaVuSans-29" x="995.996094"/>
     </g>
    </g>
   </g>
  </g>
 </g>
 <defs>
  <clipPath id="pfdcb9aac47">
   <rect x="81" y="41.04" width="502.2" height="263.34"/>
  </clipPath>
 </defs>
</svg>
