<?xml version="1.0" encoding="utf-8" standalone="no"?>
<!DOCTYPE svg PUBLIC "-//W3C//DTD SVG 1.1//EN"
  "http://www.w3.org/Graphics/SVG/1.1/DTD/svg11.dtd">
<svg xmlns:xlink="http://www.w3.org/1999/xlink" width="432pt" height="252pt" viewBox="0 0 432 252" xmlns="http://www.w3.org/2000/svg" version="1.1">
 <metadata>
  <rdf:RDF xmlns:dc="http://purl.org/dc/elements/1.1/" xmlns:cc="http://creativecommons.org/ns#" xmlns:rdf="http://www.w3.org/1999/02/22-rdf-syntax-ns#">
   <cc:Work>
    <dc:type rdf:resource="http://purl.org/dc/dcmitype/StillImage"/>
    <dc:date>2024-07-02T21:33:48.188343</dc:date>
    <dc:format>image/svg+xml</dc:format>
    <dc:creator>
     <cc:Agent>
      <dc:title>Matplotlib v3.5.1, https://matplotlib.org/</dc:title>
     </cc:Agent>
    </dc:creator>
   </cc:Work>
  </rdf:RDF>
 </metadata>
 <defs>
  <style type="text/css">*{stroke-linejoin: round; stroke-linecap: butt}</style>
 </defs>
 <g id="figure_1">
  <g id="patch_1">
   <path d="M 0 252 
L 432 252 
L 432 0 
L 0 0 
z
" style="fill: #ffffff"/>
  </g>
  <g id="axes_1">
   <g id="patch_2">
    <path d="M 54 224.28 
L 388.8 224.28 
L 388.8 30.24 
L 54 30.24 
L 54 224.28 
z
" style="fill: none; opacity: 0"/>
   </g>
   <g id="matplotlib.axis_1">
    <g id="xtick_1">
     <g id="line2d_1">
      <path d="M 69.218182 224.28 
L 69.218182 30.24 
" clip-path="url(#p851e99c000)" style="fill: none; stroke: #e6e6e6; stroke-width: 0.8; stroke-linecap: square"/>
     </g>
     <g id="line2d_2">
      <defs>
       <path id="m67ee08d3b6" d="M 0 0 
L 0 3.5 
" style="stroke: #000000; stroke-width: 0.8"/>
      </defs>
      <g>
       <use xlink:href="#m67ee08d3b6" x="69.218182" y="224.28" style="stroke: #000000; stroke-width: 0.8"/>
      </g>
     </g>
     <g id="text_1">
      <!-- 0.0 -->
      <g transform="translate(61.266619 238.878438)scale(0.1 -0.1)">
       <defs>
        <path id="DejaVuSans-30" d="M 2034 4250 
Q 1547 4250 1301 3770 
Q 1056 3291 1056 2328 
Q 1056 1369 1301 889 
Q 1547 409 2034 409 
Q 2525 409 2770 889 
Q 3016 1369 3016 2328 
Q 3016 3291 2770 3770 
Q 2525 4250 2034 4250 
z
M 2034 4750 
Q 2819 4750 3233 4129 
Q 3647 3509 3647 2328 
Q 3647 1150 3233 529 
Q 2819 -91 2034 -91 
Q 1250 -91 836 529 
Q 422 1150 422 2328 
Q 422 3509 836 4129 
Q 1250 4750 2034 4750 
z
" transform="scale(0.015625)"/>
        <path id="DejaVuSans-2e" d="M 684 794 
L 1344 794 
L 1344 0 
L 684 0 
L 684 794 
z
" transform="scale(0.015625)"/>
       </defs>
       <use xlink:href="#DejaVuSans-30"/>
       <use xlink:href="#DejaVuSans-2e" x="63.623047"/>
       <use xlink:href="#DejaVuSans-30" x="95.410156"/>
      </g>
     </g>
    </g>
    <g id="xtick_2">
     <g id="line2d_3">
      <path d="M 130.090909 224.28 
L 130.090909 30.24 
" clip-path="url(#p851e99c000)" style="fill: none; stroke: #e6e6e6; stroke-width: 0.8; stroke-linecap: square"/>
     </g>
     <g id="line2d_4">
      <g>
       <use xlink:href="#m67ee08d3b6" x="130.090909" y="224.28" style="stroke: #000000; stroke-width: 0.8"/>
      </g>
     </g>
     <g id="text_2">
      <!-- 0.2 -->
      <g transform="translate(122.139347 238.878438)scale(0.1 -0.1)">
       <defs>
        <path id="DejaVuSans-32" d="M 1228 531 
L 3431 531 
L 3431 0 
L 469 0 
L 469 531 
Q 828 903 1448 1529 
Q 2069 2156 2228 2338 
Q 2531 2678 2651 2914 
Q 2772 3150 2772 3378 
Q 2772 3750 2511 3984 
Q 2250 4219 1831 4219 
Q 1534 4219 1204 4116 
Q 875 4013 500 3803 
L 500 4441 
Q 881 4594 1212 4672 
Q 1544 4750 1819 4750 
Q 2544 4750 2975 4387 
Q 3406 4025 3406 3419 
Q 3406 3131 3298 2873 
Q 3191 2616 2906 2266 
Q 2828 2175 2409 1742 
Q 1991 1309 1228 531 
z
" transform="scale(0.015625)"/>
       </defs>
       <use xlink:href="#DejaVuSans-30"/>
       <use xlink:href="#DejaVuSans-2e" x="63.623047"/>
       <use xlink:href="#DejaVuSans-32" x="95.410156"/>
      </g>
     </g>
    </g>
    <g id="xtick_3">
     <g id="line2d_5">
      <path d="M 190.963636 224.28 
L 190.963636 30.24 
" clip-path="url(#p851e99c000)" style="fill: none; stroke: #e6e6e6; stroke-width: 0.8; stroke-linecap: square"/>
     </g>
     <g id="line2d_6">
      <g>
       <use xlink:href="#m67ee08d3b6" x="190.963636" y="224.28" style="stroke: #000000; stroke-width: 0.8"/>
      </g>
     </g>
     <g id="text_3">
      <!-- 0.4 -->
      <g transform="translate(183.012074 238.878438)scale(0.1 -0.1)">
       <defs>
        <path id="DejaVuSans-34" d="M 2419 4116 
L 825 1625 
L 2419 1625 
L 2419 4116 
z
M 2253 4666 
L 3047 4666 
L 3047 1625 
L 3713 1625 
L 3713 1100 
L 3047 1100 
L 3047 0 
L 2419 0 
L 2419 1100 
L 313 1100 
L 313 1709 
L 2253 4666 
z
" transform="scale(0.015625)"/>
       </defs>
       <use xlink:href="#DejaVuSans-30"/>
       <use xlink:href="#DejaVuSans-2e" x="63.623047"/>
       <use xlink:href="#DejaVuSans-34" x="95.410156"/>
      </g>
     </g>
    </g>
    <g id="xtick_4">
     <g id="line2d_7">
      <path d="M 251.836364 224.28 
L 251.836364 30.24 
" clip-path="url(#p851e99c000)" style="fill: none; stroke: #e6e6e6; stroke-width: 0.8; stroke-linecap: square"/>
     </g>
     <g id="line2d_8">
      <g>
       <use xlink:href="#m67ee08d3b6" x="251.836364" y="224.28" style="stroke: #000000; stroke-width: 0.8"/>
      </g>
     </g>
     <g id="text_4">
      <!-- 0.6 -->
      <g transform="translate(243.884801 238.878438)scale(0.1 -0.1)">
       <defs>
        <path id="DejaVuSans-36" d="M 2113 2584 
Q 1688 2584 1439 2293 
Q 1191 2003 1191 1497 
Q 1191 994 1439 701 
Q 1688 409 2113 409 
Q 2538 409 2786 701 
Q 3034 994 3034 1497 
Q 3034 2003 2786 2293 
Q 2538 2584 2113 2584 
z
M 3366 4563 
L 3366 3988 
Q 3128 4100 2886 4159 
Q 2644 4219 2406 4219 
Q 1781 4219 1451 3797 
Q 1122 3375 1075 2522 
Q 1259 2794 1537 2939 
Q 1816 3084 2150 3084 
Q 2853 3084 3261 2657 
Q 3669 2231 3669 1497 
Q 3669 778 3244 343 
Q 2819 -91 2113 -91 
Q 1303 -91 875 529 
Q 447 1150 447 2328 
Q 447 3434 972 4092 
Q 1497 4750 2381 4750 
Q 2619 4750 2861 4703 
Q 3103 4656 3366 4563 
z
" transform="scale(0.015625)"/>
       </defs>
       <use xlink:href="#DejaVuSans-30"/>
       <use xlink:href="#DejaVuSans-2e" x="63.623047"/>
       <use xlink:href="#DejaVuSans-36" x="95.410156"/>
      </g>
     </g>
    </g>
    <g id="xtick_5">
     <g id="line2d_9">
      <path d="M 312.709091 224.28 
L 312.709091 30.24 
" clip-path="url(#p851e99c000)" style="fill: none; stroke: #e6e6e6; stroke-width: 0.8; stroke-linecap: square"/>
     </g>
     <g id="line2d_10">
      <g>
       <use xlink:href="#m67ee08d3b6" x="312.709091" y="224.28" style="stroke: #000000; stroke-width: 0.8"/>
      </g>
     </g>
     <g id="text_5">
      <!-- 0.8 -->
      <g transform="translate(304.757528 238.878438)scale(0.1 -0.1)">
       <defs>
        <path id="DejaVuSans-38" d="M 2034 2216 
Q 1584 2216 1326 1975 
Q 1069 1734 1069 1313 
Q 1069 891 1326 650 
Q 1584 409 2034 409 
Q 2484 409 2743 651 
Q 3003 894 3003 1313 
Q 3003 1734 2745 1975 
Q 2488 2216 2034 2216 
z
M 1403 2484 
Q 997 2584 770 2862 
Q 544 3141 544 3541 
Q 544 4100 942 4425 
Q 1341 4750 2034 4750 
Q 2731 4750 3128 4425 
Q 3525 4100 3525 3541 
Q 3525 3141 3298 2862 
Q 3072 2584 2669 2484 
Q 3125 2378 3379 2068 
Q 3634 1759 3634 1313 
Q 3634 634 3220 271 
Q 2806 -91 2034 -91 
Q 1263 -91 848 271 
Q 434 634 434 1313 
Q 434 1759 690 2068 
Q 947 2378 1403 2484 
z
M 1172 3481 
Q 1172 3119 1398 2916 
Q 1625 2713 2034 2713 
Q 2441 2713 2670 2916 
Q 2900 3119 2900 3481 
Q 2900 3844 2670 4047 
Q 2441 4250 2034 4250 
Q 1625 4250 1398 4047 
Q 1172 3844 1172 3481 
z
" transform="scale(0.015625)"/>
       </defs>
       <use xlink:href="#DejaVuSans-30"/>
       <use xlink:href="#DejaVuSans-2e" x="63.623047"/>
       <use xlink:href="#DejaVuSans-38" x="95.410156"/>
      </g>
     </g>
    </g>
    <g id="xtick_6">
     <g id="line2d_11">
      <path d="M 373.581818 224.28 
L 373.581818 30.24 
" clip-path="url(#p851e99c000)" style="fill: none; stroke: #e6e6e6; stroke-width: 0.8; stroke-linecap: square"/>
     </g>
     <g id="line2d_12">
      <g>
       <use xlink:href="#m67ee08d3b6" x="373.581818" y="224.28" style="stroke: #000000; stroke-width: 0.8"/>
      </g>
     </g>
     <g id="text_6">
      <!-- 1.0 -->
      <g transform="translate(365.630256 238.878438)scale(0.1 -0.1)">
       <defs>
        <path id="DejaVuSans-31" d="M 794 531 
L 1825 531 
L 1825 4091 
L 703 3866 
L 703 4441 
L 1819 4666 
L 2450 4666 
L 2450 531 
L 3481 531 
L 3481 0 
L 794 0 
L 794 531 
z
" transform="scale(0.015625)"/>
       </defs>
       <use xlink:href="#DejaVuSans-31"/>
       <use xlink:href="#DejaVuSans-2e" x="63.623047"/>
       <use xlink:href="#DejaVuSans-30" x="95.410156"/>
      </g>
     </g>
    </g>
    <g id="text_7">
     <!-- d + 1/2 -->
     <g transform="translate(202.810937 252.556563)scale(0.1 -0.1)">
      <defs>
       <path id="DejaVuSans-64" d="M 2906 2969 
L 2906 4863 
L 3481 4863 
L 3481 0 
L 2906 0 
L 2906 525 
Q 2725 213 2448 61 
Q 2172 -91 1784 -91 
Q 1150 -91 751 415 
Q 353 922 353 1747 
Q 353 2572 751 3078 
Q 1150 3584 1784 3584 
Q 2172 3584 2448 3432 
Q 2725 3281 2906 2969 
z
M 947 1747 
Q 947 1113 1208 752 
Q 1469 391 1925 391 
Q 2381 391 2643 752 
Q 2906 1113 2906 1747 
Q 2906 2381 2643 2742 
Q 2381 3103 1925 3103 
Q 1469 3103 1208 2742 
Q 947 2381 947 1747 
z
" transform="scale(0.015625)"/>
       <path id="DejaVuSans-20" transform="scale(0.015625)"/>
       <path id="DejaVuSans-2b" d="M 2944 4013 
L 2944 2272 
L 4684 2272 
L 4684 1741 
L 2944 1741 
L 2944 0 
L 2419 0 
L 2419 1741 
L 678 1741 
L 678 2272 
L 2419 2272 
L 2419 4013 
L 2944 4013 
z
" transform="scale(0.015625)"/>
       <path id="DejaVuSans-2f" d="M 1625 4666 
L 2156 4666 
L 531 -594 
L 0 -594 
L 1625 4666 
z
" transform="scale(0.015625)"/>
      </defs>
      <use xlink:href="#DejaVuSans-64"/>
      <use xlink:href="#DejaVuSans-20" x="63.476562"/>
      <use xlink:href="#DejaVuSans-2b" x="95.263672"/>
      <use xlink:href="#DejaVuSans-20" x="179.052734"/>
      <use xlink:href="#DejaVuSans-31" x="210.839844"/>
      <use xlink:href="#DejaVuSans-2f" x="274.462891"/>
      <use xlink:href="#DejaVuSans-32" x="308.154297"/>
     </g>
    </g>
   </g>
   <g id="matplotlib.axis_2">
    <g id="ytick_1">
     <g id="line2d_13">
      <path d="M 54 213.993931 
L 388.8 213.993931 
" clip-path="url(#p851e99c000)" style="fill: none; stroke: #e6e6e6; stroke-width: 0.8; stroke-linecap: square"/>
     </g>
     <g id="line2d_14">
      <defs>
       <path id="m9120e833da" d="M 0 0 
L -3.5 0 
" style="stroke: #000000; stroke-width: 0.8"/>
      </defs>
      <g>
       <use xlink:href="#m9120e833da" x="54" y="213.993931" style="stroke: #000000; stroke-width: 0.8"/>
      </g>
     </g>
     <g id="text_8">
      <!-- 0.005 -->
      <g transform="translate(18.371875 217.793149)scale(0.1 -0.1)">
       <defs>
        <path id="DejaVuSans-35" d="M 691 4666 
L 3169 4666 
L 3169 4134 
L 1269 4134 
L 1269 2991 
Q 1406 3038 1543 3061 
Q 1681 3084 1819 3084 
Q 2600 3084 3056 2656 
Q 3513 2228 3513 1497 
Q 3513 744 3044 326 
Q 2575 -91 1722 -91 
Q 1428 -91 1123 -41 
Q 819 9 494 109 
L 494 744 
Q 775 591 1075 516 
Q 1375 441 1709 441 
Q 2250 441 2565 725 
Q 2881 1009 2881 1497 
Q 2881 1984 2565 2268 
Q 2250 2553 1709 2553 
Q 1456 2553 1204 2497 
Q 953 2441 691 2322 
L 691 4666 
z
" transform="scale(0.015625)"/>
       </defs>
       <use xlink:href="#DejaVuSans-30"/>
       <use xlink:href="#DejaVuSans-2e" x="63.623047"/>
       <use xlink:href="#DejaVuSans-30" x="95.410156"/>
       <use xlink:href="#DejaVuSans-30" x="159.033203"/>
       <use xlink:href="#DejaVuSans-35" x="222.65625"/>
      </g>
     </g>
    </g>
    <g id="ytick_2">
     <g id="line2d_15">
      <path d="M 54 185.306657 
L 388.8 185.306657 
" clip-path="url(#p851e99c000)" style="fill: none; stroke: #e6e6e6; stroke-width: 0.8; stroke-linecap: square"/>
     </g>
     <g id="line2d_16">
      <g>
       <use xlink:href="#m9120e833da" x="54" y="185.306657" style="stroke: #000000; stroke-width: 0.8"/>
      </g>
     </g>
     <g id="text_9">
      <!-- 0.010 -->
      <g transform="translate(18.371875 189.105876)scale(0.1 -0.1)">
       <use xlink:href="#DejaVuSans-30"/>
       <use xlink:href="#DejaVuSans-2e" x="63.623047"/>
       <use xlink:href="#DejaVuSans-30" x="95.410156"/>
       <use xlink:href="#DejaVuSans-31" x="159.033203"/>
       <use xlink:href="#DejaVuSans-30" x="222.65625"/>
      </g>
     </g>
    </g>
    <g id="ytick_3">
     <g id="line2d_17">
      <path d="M 54 156.619384 
L 388.8 156.619384 
" clip-path="url(#p851e99c000)" style="fill: none; stroke: #e6e6e6; stroke-width: 0.8; stroke-linecap: square"/>
     </g>
     <g id="line2d_18">
      <g>
       <use xlink:href="#m9120e833da" x="54" y="156.619384" style="stroke: #000000; stroke-width: 0.8"/>
      </g>
     </g>
     <g id="text_10">
      <!-- 0.015 -->
      <g transform="translate(18.371875 160.418603)scale(0.1 -0.1)">
       <use xlink:href="#DejaVuSans-30"/>
       <use xlink:href="#DejaVuSans-2e" x="63.623047"/>
       <use xlink:href="#DejaVuSans-30" x="95.410156"/>
       <use xlink:href="#DejaVuSans-31" x="159.033203"/>
       <use xlink:href="#DejaVuSans-35" x="222.65625"/>
      </g>
     </g>
    </g>
    <g id="ytick_4">
     <g id="line2d_19">
      <path d="M 54 127.932111 
L 388.8 127.932111 
" clip-path="url(#p851e99c000)" style="fill: none; stroke: #e6e6e6; stroke-width: 0.8; stroke-linecap: square"/>
     </g>
     <g id="line2d_20">
      <g>
       <use xlink:href="#m9120e833da" x="54" y="127.932111" style="stroke: #000000; stroke-width: 0.8"/>
      </g>
     </g>
     <g id="text_11">
      <!-- 0.020 -->
      <g transform="translate(18.371875 131.73133)scale(0.1 -0.1)">
       <use xlink:href="#DejaVuSans-30"/>
       <use xlink:href="#DejaVuSans-2e" x="63.623047"/>
       <use xlink:href="#DejaVuSans-30" x="95.410156"/>
       <use xlink:href="#DejaVuSans-32" x="159.033203"/>
       <use xlink:href="#DejaVuSans-30" x="222.65625"/>
      </g>
     </g>
    </g>
    <g id="ytick_5">
     <g id="line2d_21">
      <path d="M 54 99.244838 
L 388.8 99.244838 
" clip-path="url(#p851e99c000)" style="fill: none; stroke: #e6e6e6; stroke-width: 0.8; stroke-linecap: square"/>
     </g>
     <g id="line2d_22">
      <g>
       <use xlink:href="#m9120e833da" x="54" y="99.244838" style="stroke: #000000; stroke-width: 0.8"/>
      </g>
     </g>
     <g id="text_12">
      <!-- 0.025 -->
      <g transform="translate(18.371875 103.044056)scale(0.1 -0.1)">
       <use xlink:href="#DejaVuSans-30"/>
       <use xlink:href="#DejaVuSans-2e" x="63.623047"/>
       <use xlink:href="#DejaVuSans-30" x="95.410156"/>
       <use xlink:href="#DejaVuSans-32" x="159.033203"/>
       <use xlink:href="#DejaVuSans-35" x="222.65625"/>
      </g>
     </g>
    </g>
    <g id="ytick_6">
     <g id="line2d_23">
      <path d="M 54 70.557564 
L 388.8 70.557564 
" clip-path="url(#p851e99c000)" style="fill: none; stroke: #e6e6e6; stroke-width: 0.8; stroke-linecap: square"/>
     </g>
     <g id="line2d_24">
      <g>
       <use xlink:href="#m9120e833da" x="54" y="70.557564" style="stroke: #000000; stroke-width: 0.8"/>
      </g>
     </g>
     <g id="text_13">
      <!-- 0.030 -->
      <g transform="translate(18.371875 74.356783)scale(0.1 -0.1)">
       <defs>
        <path id="DejaVuSans-33" d="M 2597 2516 
Q 3050 2419 3304 2112 
Q 3559 1806 3559 1356 
Q 3559 666 3084 287 
Q 2609 -91 1734 -91 
Q 1441 -91 1130 -33 
Q 819 25 488 141 
L 488 750 
Q 750 597 1062 519 
Q 1375 441 1716 441 
Q 2309 441 2620 675 
Q 2931 909 2931 1356 
Q 2931 1769 2642 2001 
Q 2353 2234 1838 2234 
L 1294 2234 
L 1294 2753 
L 1863 2753 
Q 2328 2753 2575 2939 
Q 2822 3125 2822 3475 
Q 2822 3834 2567 4026 
Q 2313 4219 1838 4219 
Q 1578 4219 1281 4162 
Q 984 4106 628 3988 
L 628 4550 
Q 988 4650 1302 4700 
Q 1616 4750 1894 4750 
Q 2613 4750 3031 4423 
Q 3450 4097 3450 3541 
Q 3450 3153 3228 2886 
Q 3006 2619 2597 2516 
z
" transform="scale(0.015625)"/>
       </defs>
       <use xlink:href="#DejaVuSans-30"/>
       <use xlink:href="#DejaVuSans-2e" x="63.623047"/>
       <use xlink:href="#DejaVuSans-30" x="95.410156"/>
       <use xlink:href="#DejaVuSans-33" x="159.033203"/>
       <use xlink:href="#DejaVuSans-30" x="222.65625"/>
      </g>
     </g>
    </g>
    <g id="ytick_7">
     <g id="line2d_25">
      <path d="M 54 41.870291 
L 388.8 41.870291 
" clip-path="url(#p851e99c000)" style="fill: none; stroke: #e6e6e6; stroke-width: 0.8; stroke-linecap: square"/>
     </g>
     <g id="line2d_26">
      <g>
       <use xlink:href="#m9120e833da" x="54" y="41.870291" style="stroke: #000000; stroke-width: 0.8"/>
      </g>
     </g>
     <g id="text_14">
      <!-- 0.035 -->
      <g transform="translate(18.371875 45.66951)scale(0.1 -0.1)">
       <use xlink:href="#DejaVuSans-30"/>
       <use xlink:href="#DejaVuSans-2e" x="63.623047"/>
       <use xlink:href="#DejaVuSans-30" x="95.410156"/>
       <use xlink:href="#DejaVuSans-33" x="159.033203"/>
       <use xlink:href="#DejaVuSans-35" x="222.65625"/>
      </g>
     </g>
    </g>
    <g id="text_15">
     <!-- deviation -->
     <g transform="translate(12.292187 150.500625)rotate(-90)scale(0.1 -0.1)">
      <defs>
       <path id="DejaVuSans-65" d="M 3597 1894 
L 3597 1613 
L 953 1613 
Q 991 1019 1311 708 
Q 1631 397 2203 397 
Q 2534 397 2845 478 
Q 3156 559 3463 722 
L 3463 178 
Q 3153 47 2828 -22 
Q 2503 -91 2169 -91 
Q 1331 -91 842 396 
Q 353 884 353 1716 
Q 353 2575 817 3079 
Q 1281 3584 2069 3584 
Q 2775 3584 3186 3129 
Q 3597 2675 3597 1894 
z
M 3022 2063 
Q 3016 2534 2758 2815 
Q 2500 3097 2075 3097 
Q 1594 3097 1305 2825 
Q 1016 2553 972 2059 
L 3022 2063 
z
" transform="scale(0.015625)"/>
       <path id="DejaVuSans-76" d="M 191 3500 
L 800 3500 
L 1894 563 
L 2988 3500 
L 3597 3500 
L 2284 0 
L 1503 0 
L 191 3500 
z
" transform="scale(0.015625)"/>
       <path id="DejaVuSans-69" d="M 603 3500 
L 1178 3500 
L 1178 0 
L 603 0 
L 603 3500 
z
M 603 4863 
L 1178 4863 
L 1178 4134 
L 603 4134 
L 603 4863 
z
" transform="scale(0.015625)"/>
       <path id="DejaVuSans-61" d="M 2194 1759 
Q 1497 1759 1228 1600 
Q 959 1441 959 1056 
Q 959 750 1161 570 
Q 1363 391 1709 391 
Q 2188 391 2477 730 
Q 2766 1069 2766 1631 
L 2766 1759 
L 2194 1759 
z
M 3341 1997 
L 3341 0 
L 2766 0 
L 2766 531 
Q 2569 213 2275 61 
Q 1981 -91 1556 -91 
Q 1019 -91 701 211 
Q 384 513 384 1019 
Q 384 1609 779 1909 
Q 1175 2209 1959 2209 
L 2766 2209 
L 2766 2266 
Q 2766 2663 2505 2880 
Q 2244 3097 1772 3097 
Q 1472 3097 1187 3025 
Q 903 2953 641 2809 
L 641 3341 
Q 956 3463 1253 3523 
Q 1550 3584 1831 3584 
Q 2591 3584 2966 3190 
Q 3341 2797 3341 1997 
z
" transform="scale(0.015625)"/>
       <path id="DejaVuSans-74" d="M 1172 4494 
L 1172 3500 
L 2356 3500 
L 2356 3053 
L 1172 3053 
L 1172 1153 
Q 1172 725 1289 603 
Q 1406 481 1766 481 
L 2356 481 
L 2356 0 
L 1766 0 
Q 1100 0 847 248 
Q 594 497 594 1153 
L 594 3053 
L 172 3053 
L 172 3500 
L 594 3500 
L 594 4494 
L 1172 4494 
z
" transform="scale(0.015625)"/>
       <path id="DejaVuSans-6f" d="M 1959 3097 
Q 1497 3097 1228 2736 
Q 959 2375 959 1747 
Q 959 1119 1226 758 
Q 1494 397 1959 397 
Q 2419 397 2687 759 
Q 2956 1122 2956 1747 
Q 2956 2369 2687 2733 
Q 2419 3097 1959 3097 
z
M 1959 3584 
Q 2709 3584 3137 3096 
Q 3566 2609 3566 1747 
Q 3566 888 3137 398 
Q 2709 -91 1959 -91 
Q 1206 -91 779 398 
Q 353 888 353 1747 
Q 353 2609 779 3096 
Q 1206 3584 1959 3584 
z
" transform="scale(0.015625)"/>
       <path id="DejaVuSans-6e" d="M 3513 2113 
L 3513 0 
L 2938 0 
L 2938 2094 
Q 2938 2591 2744 2837 
Q 2550 3084 2163 3084 
Q 1697 3084 1428 2787 
Q 1159 2491 1159 1978 
L 1159 0 
L 581 0 
L 581 3500 
L 1159 3500 
L 1159 2956 
Q 1366 3272 1645 3428 
Q 1925 3584 2291 3584 
Q 2894 3584 3203 3211 
Q 3513 2838 3513 2113 
z
" transform="scale(0.015625)"/>
      </defs>
      <use xlink:href="#DejaVuSans-64"/>
      <use xlink:href="#DejaVuSans-65" x="63.476562"/>
      <use xlink:href="#DejaVuSans-76" x="125"/>
      <use xlink:href="#DejaVuSans-69" x="184.179688"/>
      <use xlink:href="#DejaVuSans-61" x="211.962891"/>
      <use xlink:href="#DejaVuSans-74" x="273.242188"/>
      <use xlink:href="#DejaVuSans-69" x="312.451172"/>
      <use xlink:href="#DejaVuSans-6f" x="340.234375"/>
      <use xlink:href="#DejaVuSans-6e" x="401.416016"/>
     </g>
    </g>
   </g>
   <g id="patch_3">
    <path d="M 54 224.28 
L 54 30.24 
" style="fill: none; stroke: #000000; stroke-width: 0.8; stroke-linejoin: miter; stroke-linecap: square"/>
   </g>
   <g id="patch_4">
    <path d="M 388.8 224.28 
L 388.8 30.24 
" style="fill: none; stroke: #e6e6e6; stroke-width: 0.8; stroke-linejoin: miter; stroke-linecap: square"/>
   </g>
   <g id="patch_5">
    <path d="M 54 224.28 
L 388.8 224.28 
" style="fill: none; stroke: #000000; stroke-width: 0.8; stroke-linejoin: miter; stroke-linecap: square"/>
   </g>
   <g id="patch_6">
    <path d="M 54 30.24 
L 388.8 30.24 
" style="fill: none; stroke: #e6e6e6; stroke-width: 0.8; stroke-linejoin: miter; stroke-linecap: square"/>
   </g>
   <g id="text_16">
    <!-- Deviations (steps: 250, interval:+-0.02) -->
    <g transform="translate(102.239063 24.24)scale(0.12 -0.12)">
     <defs>
      <path id="DejaVuSans-44" d="M 1259 4147 
L 1259 519 
L 2022 519 
Q 2988 519 3436 956 
Q 3884 1394 3884 2338 
Q 3884 3275 3436 3711 
Q 2988 4147 2022 4147 
L 1259 4147 
z
M 628 4666 
L 1925 4666 
Q 3281 4666 3915 4102 
Q 4550 3538 4550 2338 
Q 4550 1131 3912 565 
Q 3275 0 1925 0 
L 628 0 
L 628 4666 
z
" transform="scale(0.015625)"/>
      <path id="DejaVuSans-73" d="M 2834 3397 
L 2834 2853 
Q 2591 2978 2328 3040 
Q 2066 3103 1784 3103 
Q 1356 3103 1142 2972 
Q 928 2841 928 2578 
Q 928 2378 1081 2264 
Q 1234 2150 1697 2047 
L 1894 2003 
Q 2506 1872 2764 1633 
Q 3022 1394 3022 966 
Q 3022 478 2636 193 
Q 2250 -91 1575 -91 
Q 1294 -91 989 -36 
Q 684 19 347 128 
L 347 722 
Q 666 556 975 473 
Q 1284 391 1588 391 
Q 1994 391 2212 530 
Q 2431 669 2431 922 
Q 2431 1156 2273 1281 
Q 2116 1406 1581 1522 
L 1381 1569 
Q 847 1681 609 1914 
Q 372 2147 372 2553 
Q 372 3047 722 3315 
Q 1072 3584 1716 3584 
Q 2034 3584 2315 3537 
Q 2597 3491 2834 3397 
z
" transform="scale(0.015625)"/>
      <path id="DejaVuSans-28" d="M 1984 4856 
Q 1566 4138 1362 3434 
Q 1159 2731 1159 2009 
Q 1159 1288 1364 580 
Q 1569 -128 1984 -844 
L 1484 -844 
Q 1016 -109 783 600 
Q 550 1309 550 2009 
Q 550 2706 781 3412 
Q 1013 4119 1484 4856 
L 1984 4856 
z
" transform="scale(0.015625)"/>
      <path id="DejaVuSans-70" d="M 1159 525 
L 1159 -1331 
L 581 -1331 
L 581 3500 
L 1159 3500 
L 1159 2969 
Q 1341 3281 1617 3432 
Q 1894 3584 2278 3584 
Q 2916 3584 3314 3078 
Q 3713 2572 3713 1747 
Q 3713 922 3314 415 
Q 2916 -91 2278 -91 
Q 1894 -91 1617 61 
Q 1341 213 1159 525 
z
M 3116 1747 
Q 3116 2381 2855 2742 
Q 2594 3103 2138 3103 
Q 1681 3103 1420 2742 
Q 1159 2381 1159 1747 
Q 1159 1113 1420 752 
Q 1681 391 2138 391 
Q 2594 391 2855 752 
Q 3116 1113 3116 1747 
z
" transform="scale(0.015625)"/>
      <path id="DejaVuSans-3a" d="M 750 794 
L 1409 794 
L 1409 0 
L 750 0 
L 750 794 
z
M 750 3309 
L 1409 3309 
L 1409 2516 
L 750 2516 
L 750 3309 
z
" transform="scale(0.015625)"/>
      <path id="DejaVuSans-2c" d="M 750 794 
L 1409 794 
L 1409 256 
L 897 -744 
L 494 -744 
L 750 256 
L 750 794 
z
" transform="scale(0.015625)"/>
      <path id="DejaVuSans-72" d="M 2631 2963 
Q 2534 3019 2420 3045 
Q 2306 3072 2169 3072 
Q 1681 3072 1420 2755 
Q 1159 2438 1159 1844 
L 1159 0 
L 581 0 
L 581 3500 
L 1159 3500 
L 1159 2956 
Q 1341 3275 1631 3429 
Q 1922 3584 2338 3584 
Q 2397 3584 2469 3576 
Q 2541 3569 2628 3553 
L 2631 2963 
z
" transform="scale(0.015625)"/>
      <path id="DejaVuSans-6c" d="M 603 4863 
L 1178 4863 
L 1178 0 
L 603 0 
L 603 4863 
z
" transform="scale(0.015625)"/>
      <path id="DejaVuSans-2d" d="M 313 2009 
L 1997 2009 
L 1997 1497 
L 313 1497 
L 313 2009 
z
" transform="scale(0.015625)"/>
      <path id="DejaVuSans-29" d="M 513 4856 
L 1013 4856 
Q 1481 4119 1714 3412 
Q 1947 2706 1947 2009 
Q 1947 1309 1714 600 
Q 1481 -109 1013 -844 
L 513 -844 
Q 928 -128 1133 580 
Q 1338 1288 1338 2009 
Q 1338 2731 1133 3434 
Q 928 4138 513 4856 
z
" transform="scale(0.015625)"/>
     </defs>
     <use xlink:href="#DejaVuSans-44"/>
     <use xlink:href="#DejaVuSans-65" x="77.001953"/>
     <use xlink:href="#DejaVuSans-76" x="138.525391"/>
     <use xlink:href="#DejaVuSans-69" x="197.705078"/>
     <use xlink:href="#DejaVuSans-61" x="225.488281"/>
     <use xlink:href="#DejaVuSans-74" x="286.767578"/>
     <use xlink:href="#DejaVuSans-69" x="325.976562"/>
     <use xlink:href="#DejaVuSans-6f" x="353.759766"/>
     <use xlink:href="#DejaVuSans-6e" x="414.941406"/>
     <use xlink:href="#DejaVuSans-73" x="478.320312"/>
     <use xlink:href="#DejaVuSans-20" x="530.419922"/>
     <use xlink:href="#DejaVuSans-28" x="562.207031"/>
     <use xlink:href="#DejaVuSans-73" x="601.220703"/>
     <use xlink:href="#DejaVuSans-74" x="653.320312"/>
     <use xlink:href="#DejaVuSans-65" x="692.529297"/>
     <use xlink:href="#DejaVuSans-70" x="754.052734"/>
     <use xlink:href="#DejaVuSans-73" x="817.529297"/>
     <use xlink:href="#DejaVuSans-3a" x="869.628906"/>
     <use xlink:href="#DejaVuSans-20" x="903.320312"/>
     <use xlink:href="#DejaVuSans-32" x="935.107422"/>
     <use xlink:href="#DejaVuSans-35" x="998.730469"/>
     <use xlink:href="#DejaVuSans-30" x="1062.353516"/>
     <use xlink:href="#DejaVuSans-2c" x="1125.976562"/>
     <use xlink:href="#DejaVuSans-20" x="1157.763672"/>
     <use xlink:href="#DejaVuSans-69" x="1189.550781"/>
     <use xlink:href="#DejaVuSans-6e" x="1217.333984"/>
     <use xlink:href="#DejaVuSans-74" x="1280.712891"/>
     <use xlink:href="#DejaVuSans-65" x="1319.921875"/>
     <use xlink:href="#DejaVuSans-72" x="1381.445312"/>
     <use xlink:href="#DejaVuSans-76" x="1422.558594"/>
     <use xlink:href="#DejaVuSans-61" x="1481.738281"/>
     <use xlink:href="#DejaVuSans-6c" x="1543.017578"/>
     <use xlink:href="#DejaVuSans-3a" x="1570.800781"/>
     <use xlink:href="#DejaVuSans-2b" x="1604.492188"/>
     <use xlink:href="#DejaVuSans-2d" x="1688.28125"/>
     <use xlink:href="#DejaVuSans-30" x="1724.365234"/>
     <use xlink:href="#DejaVuSans-2e" x="1787.988281"/>
     <use xlink:href="#DejaVuSans-30" x="1819.775391"/>
     <use xlink:href="#DejaVuSans-32" x="1883.398438"/>
     <use xlink:href="#DejaVuSans-29" x="1947.021484"/>
    </g>
   </g>
   <g id="line2d_27">
    <path d="M 69.218182 186.794697 
L 70.440526 185.18104 
L 75.329901 176.845974 
L 76.552245 176.698981 
L 77.774589 175.483342 
L 78.996933 176.264832 
L 80.219277 173.879529 
L 81.441621 172.72599 
L 82.663965 172.182498 
L 83.886309 170.596059 
L 85.108653 170.285683 
L 86.330997 171.991379 
L 87.553341 172.400474 
L 88.775685 173.799147 
L 89.998028 173.370825 
L 91.220372 176.361798 
L 92.442716 174.995461 
L 93.66506 176.430324 
L 96.109748 174.014759 
L 97.332092 174.079207 
L 98.554436 174.856733 
L 99.77678 172.874486 
L 100.999124 173.149577 
L 102.221468 173.157268 
L 103.443812 170.679437 
L 104.666156 167.661538 
L 105.888499 167.59597 
L 108.333187 166.33911 
L 110.777875 163.806891 
L 112.000219 160.814898 
L 113.222563 163.625348 
L 114.444907 165.574908 
L 115.667251 165.85625 
L 116.889595 164.72667 
L 119.334283 164.09092 
L 120.556627 161.133374 
L 121.77897 160.835669 
L 123.001314 161.336823 
L 124.223658 160.755127 
L 125.446002 159.111136 
L 126.668346 158.236591 
L 127.89069 158.213936 
L 129.113034 157.14416 
L 130.335378 156.29619 
L 131.557722 154.627204 
L 132.780066 151.753977 
L 134.00241 153.220341 
L 135.224754 153.62685 
L 137.669441 147.060249 
L 138.891785 147.837767 
L 140.114129 146.893832 
L 141.336473 148.831462 
L 142.558817 147.798211 
L 143.781161 146.922004 
L 145.003505 146.414854 
L 147.448193 143.251715 
L 148.670537 144.427042 
L 149.892881 142.98712 
L 151.115225 138.619896 
L 152.337568 141.902057 
L 153.559912 139.491948 
L 154.782256 142.075884 
L 156.0046 141.793686 
L 157.226944 144.281459 
L 158.449288 142.231728 
L 159.671632 142.058335 
L 160.893976 140.0148 
L 162.11632 138.65702 
L 163.338664 138.282082 
L 164.561008 135.133082 
L 165.783352 134.418035 
L 167.005696 129.783182 
L 168.228039 128.908051 
L 169.450383 128.704159 
L 170.672727 128.641842 
L 171.895071 129.064116 
L 173.117415 125.461066 
L 174.339759 127.034653 
L 175.562103 127.404886 
L 176.784447 129.289004 
L 179.229135 130.718353 
L 180.451479 129.665122 
L 181.673823 126.351299 
L 182.896166 123.623867 
L 184.11851 122.717309 
L 185.340854 125.307715 
L 186.563198 126.313137 
L 187.785542 125.761787 
L 189.007886 127.429354 
L 190.23023 125.873946 
L 191.452574 123.293192 
L 192.674918 123.57177 
L 193.897262 124.344412 
L 195.119606 124.738635 
L 196.34195 120.222316 
L 197.564294 118.857213 
L 198.786637 116.159018 
L 200.008981 115.512521 
L 201.231325 111.956513 
L 202.453669 111.737233 
L 203.676013 112.466644 
L 204.898357 109.228766 
L 206.120701 109.473008 
L 207.343045 110.290695 
L 208.565389 110.015987 
L 209.787733 109.024 
L 211.010077 108.609853 
L 212.232421 106.212148 
L 213.454765 107.159933 
L 214.677108 103.401854 
L 215.899452 103.621642 
L 217.121796 102.888348 
L 218.34414 101.96748 
L 219.566484 101.930238 
L 220.788828 102.008868 
L 222.011172 100.110429 
L 224.45586 106.37428 
L 225.678204 104.014211 
L 226.900548 103.987358 
L 228.122892 100.896823 
L 229.345235 101.727772 
L 230.567579 99.808647 
L 231.789923 98.690281 
L 233.012267 101.412644 
L 234.234611 100.424991 
L 235.456955 99.612156 
L 236.679299 100.929118 
L 237.901643 100.660494 
L 239.123987 104.539047 
L 240.346331 103.900427 
L 241.568675 100.857015 
L 242.791019 96.909524 
L 244.013363 94.521703 
L 245.235706 94.114546 
L 246.45805 96.5353 
L 247.680394 95.145341 
L 248.902738 94.467182 
L 250.125082 95.310155 
L 251.347426 89.217597 
L 252.56977 87.642333 
L 253.792114 91.002301 
L 256.236802 96.489697 
L 257.459146 89.279937 
L 258.68149 84.961871 
L 259.903834 83.813208 
L 261.126177 81.931842 
L 262.348521 78.385989 
L 263.570865 76.326262 
L 264.793209 77.206142 
L 266.015553 72.593862 
L 267.237897 70.421294 
L 268.460241 66.076856 
L 269.682585 70.065828 
L 270.904929 70.610448 
L 272.127273 70.152539 
L 273.349617 67.913678 
L 274.571961 67.913596 
L 275.794304 69.512204 
L 277.016648 69.007765 
L 278.238992 70.017218 
L 279.461336 70.390954 
L 280.68368 67.988888 
L 281.906024 64.053404 
L 283.128368 65.098546 
L 284.350712 62.734276 
L 285.573056 61.393925 
L 286.7954 62.429987 
L 288.017744 62.463026 
L 289.240088 63.340992 
L 290.462432 62.491147 
L 291.684775 61.889961 
L 292.907119 62.485422 
L 294.129463 58.188738 
L 295.351807 57.466055 
L 296.574151 59.846943 
L 297.796495 60.149985 
L 299.018839 56.202333 
L 300.241183 58.160232 
L 301.463527 57.395676 
L 302.685871 55.514333 
L 303.908215 56.38097 
L 305.130559 56.669429 
L 306.352903 58.996594 
L 307.575246 55.080681 
L 308.79759 55.283812 
L 310.019934 53.340823 
L 311.242278 55.943082 
L 312.464622 56.0892 
L 313.686966 58.396083 
L 314.90931 62.743373 
L 316.131654 63.540118 
L 317.353998 64.797686 
L 318.576342 61.059224 
L 319.798686 61.595319 
L 321.02103 58.038523 
L 322.243373 56.222409 
L 323.465717 55.719573 
L 324.688061 50.717309 
L 325.910405 44.133342 
L 327.132749 40.033436 
L 329.577437 39.06 
L 330.799781 45.11797 
L 332.022125 48.45524 
L 333.244469 47.840509 
L 334.466813 53.204555 
L 335.689157 48.926532 
L 336.911501 52.263598 
L 338.133844 53.124468 
L 339.356188 52.544824 
L 340.578532 52.329552 
L 341.800876 50.519186 
L 344.245564 42.804553 
L 345.467908 47.372504 
L 346.690252 47.062056 
L 347.912596 51.309505 
L 349.13494 47.302204 
L 350.357284 48.139489 
L 351.579628 56.014908 
L 352.801972 55.197172 
L 354.024315 56.210676 
L 355.246659 58.55865 
L 356.469003 58.910133 
L 357.691347 59.381708 
L 360.136035 49.410184 
L 361.358379 53.048203 
L 362.580723 54.66855 
L 363.803067 51.581361 
L 365.025411 51.887164 
L 366.247755 43.354772 
L 367.470099 43.964093 
L 368.692442 45.309348 
L 369.914786 40.382255 
L 371.13713 44.860567 
L 372.359474 47.048992 
L 373.581818 44.976576 
L 373.581818 44.976576 
" clip-path="url(#p851e99c000)" style="fill: none; stroke-dasharray: 1.5,2.475; stroke-dashoffset: 0; stroke: #ff0000; stroke-width: 1.5"/>
   </g>
   <g id="line2d_28">
    <path d="M 69.218182 189.988662 
L 70.440526 186.795802 
L 72.885214 182.460929 
L 74.107558 181.699566 
L 75.329901 179.245118 
L 76.552245 178.534451 
L 77.774589 179.39711 
L 78.996933 182.061141 
L 80.219277 181.595718 
L 81.441621 182.448293 
L 82.663965 182.39952 
L 83.886309 180.510034 
L 85.108653 180.663017 
L 86.330997 182.195161 
L 87.553341 181.23571 
L 88.775685 181.881488 
L 89.998028 184.381161 
L 91.220372 184.572533 
L 92.442716 183.875969 
L 93.66506 183.630519 
L 94.887404 182.410438 
L 96.109748 181.682075 
L 97.332092 181.220397 
L 98.554436 183.141906 
L 99.77678 184.288431 
L 100.999124 184.017653 
L 103.443812 186.959051 
L 104.666156 187.355035 
L 105.888499 185.724248 
L 107.110843 183.807699 
L 108.333187 182.519018 
L 109.555531 181.014467 
L 110.777875 181.668068 
L 112.000219 183.607525 
L 113.222563 180.625006 
L 114.444907 181.726073 
L 115.667251 183.921591 
L 116.889595 185.644796 
L 118.111939 185.83057 
L 119.334283 185.710815 
L 120.556627 184.08578 
L 121.77897 183.917406 
L 123.001314 186.331438 
L 124.223658 185.994876 
L 125.446002 183.151247 
L 126.668346 182.657274 
L 127.89069 181.434699 
L 129.113034 179.325223 
L 130.335378 181.422571 
L 131.557722 181.060729 
L 132.780066 182.881203 
L 134.00241 183.285096 
L 135.224754 184.592314 
L 136.447097 186.884514 
L 137.669441 185.99112 
L 138.891785 189.024044 
L 141.336473 191.674528 
L 142.558817 191.426 
L 143.781161 190.404621 
L 145.003505 190.059575 
L 146.225849 188.606564 
L 147.448193 189.11354 
L 148.670537 189.350977 
L 149.892881 190.909174 
L 151.115225 189.415263 
L 152.337568 189.039066 
L 153.559912 187.802795 
L 154.782256 187.528551 
L 156.0046 188.280792 
L 157.226944 189.972195 
L 158.449288 189.364713 
L 159.671632 188.892271 
L 160.893976 186.587644 
L 162.11632 185.727224 
L 163.338664 187.175074 
L 164.561008 187.008757 
L 165.783352 188.111277 
L 167.005696 187.140766 
L 168.228039 186.76153 
L 170.672727 191.589245 
L 171.895071 189.960099 
L 173.117415 189.427341 
L 174.339759 187.039353 
L 175.562103 185.812624 
L 176.784447 187.387433 
L 178.006791 185.774845 
L 179.229135 187.893043 
L 180.451479 188.998621 
L 181.673823 190.989463 
L 184.11851 193.166794 
L 186.563198 192.807244 
L 187.785542 193.112651 
L 189.007886 192.030661 
L 190.23023 192.294848 
L 191.452574 192.103173 
L 192.674918 189.915558 
L 193.897262 191.908013 
L 195.119606 193.416365 
L 197.564294 192.749603 
L 198.786637 190.952292 
L 200.008981 190.525048 
L 201.231325 189.231468 
L 202.453669 188.699895 
L 203.676013 188.993271 
L 204.898357 189.442663 
L 206.120701 188.905305 
L 207.343045 189.200403 
L 208.565389 190.067164 
L 209.787733 190.160064 
L 211.010077 191.167063 
L 212.232421 191.912186 
L 213.454765 192.519747 
L 214.677108 193.418691 
L 217.121796 192.208818 
L 218.34414 193.415396 
L 219.566484 193.650753 
L 222.011172 193.62684 
L 223.233516 192.58997 
L 224.45586 192.296585 
L 225.678204 193.591278 
L 226.900548 192.442055 
L 228.122892 191.699086 
L 230.567579 190.70397 
L 231.789923 189.264531 
L 234.234611 187.970734 
L 235.456955 188.87865 
L 236.679299 189.53079 
L 239.123987 188.831338 
L 241.568675 186.867764 
L 242.791019 187.40837 
L 244.013363 186.39175 
L 245.235706 186.807653 
L 246.45805 187.488742 
L 247.680394 184.704486 
L 248.902738 183.069904 
L 250.125082 184.052912 
L 251.347426 183.875472 
L 252.56977 183.025358 
L 255.014458 180.082378 
L 256.236802 179.149115 
L 257.459146 175.430152 
L 258.68149 174.11851 
L 259.903834 175.825412 
L 261.126177 175.780792 
L 262.348521 174.319013 
L 264.793209 170.216817 
L 266.015553 170.545825 
L 267.237897 171.205838 
L 268.460241 169.323645 
L 269.682585 168.99614 
L 270.904929 167.692262 
L 273.349617 159.911143 
L 274.571961 158.794917 
L 275.794304 154.676435 
L 277.016648 152.73553 
L 278.238992 151.478874 
L 279.461336 149.131235 
L 280.68368 147.834933 
L 281.906024 148.707154 
L 283.128368 148.299877 
L 284.350712 144.822553 
L 285.573056 146.2803 
L 286.7954 145.051927 
L 288.017744 147.075462 
L 289.240088 143.707802 
L 290.462432 141.645283 
L 291.684775 140.625976 
L 292.907119 139.456924 
L 294.129463 138.804066 
L 295.351807 137.903551 
L 296.574151 139.522217 
L 300.241183 128.897377 
L 301.463527 131.288778 
L 302.685871 132.384511 
L 303.908215 131.352194 
L 305.130559 129.306573 
L 306.352903 124.767658 
L 307.575246 123.41982 
L 308.79759 119.764525 
L 310.019934 119.958205 
L 311.242278 118.877511 
L 312.464622 116.545598 
L 313.686966 112.265345 
L 314.90931 106.748417 
L 316.131654 102.268419 
L 317.353998 99.893017 
L 318.576342 97.061643 
L 319.798686 95.270086 
L 321.02103 96.511431 
L 322.243373 92.718974 
L 323.465717 94.287879 
L 324.688061 94.372385 
L 325.910405 95.273106 
L 327.132749 98.196308 
L 328.355093 98.159799 
L 329.577437 99.645469 
L 330.799781 99.327357 
L 332.022125 97.450517 
L 333.244469 92.366428 
L 334.466813 96.679969 
L 335.689157 96.942423 
L 336.911501 94.104698 
L 338.133844 92.244509 
L 339.356188 88.258163 
L 340.578532 91.009479 
L 341.800876 90.256368 
L 343.02322 90.980372 
L 344.245564 93.149251 
L 345.467908 97.958799 
L 346.690252 96.175449 
L 347.912596 93.106166 
L 349.13494 98.336571 
L 351.579628 106.858951 
L 352.801972 106.437293 
L 354.024315 103.36654 
L 355.246659 108.069077 
L 356.469003 110.285441 
L 357.691347 109.951982 
L 358.913691 110.371708 
L 360.136035 113.438805 
L 361.358379 113.445727 
L 362.580723 116.559636 
L 363.803067 116.400337 
L 365.025411 117.354335 
L 366.247755 121.968788 
L 367.470099 121.820233 
L 368.692442 122.454764 
L 369.914786 124.835493 
L 371.13713 125.131113 
L 372.359474 129.496662 
L 373.581818 132.217177 
L 373.581818 132.217177 
" clip-path="url(#p851e99c000)" style="fill: none; stroke-dasharray: 9.6,2.4,1.5,2.4; stroke-dashoffset: 0; stroke: #ff0000; stroke-width: 1.5"/>
   </g>
   <g id="line2d_29">
    <path d="M 69.218182 210.397445 
L 70.440526 209.229118 
L 71.66287 206.553035 
L 74.107558 201.97597 
L 75.329901 198.844597 
L 77.774589 200.138383 
L 78.996933 198.295004 
L 80.219277 197.870101 
L 82.663965 197.250157 
L 83.886309 196.405971 
L 85.108653 195.215078 
L 86.330997 197.108794 
L 87.553341 197.415023 
L 88.775685 199.471842 
L 89.998028 201.110725 
L 91.220372 201.439262 
L 92.442716 202.484397 
L 93.66506 202.230048 
L 94.887404 201.528724 
L 96.109748 200.125522 
L 98.554436 198.178421 
L 99.77678 197.738426 
L 100.999124 199.249629 
L 102.221468 199.780652 
L 103.443812 201.359956 
L 104.666156 202.150027 
L 105.888499 202.024867 
L 107.110843 200.856509 
L 108.333187 199.000148 
L 109.555531 199.893915 
L 110.777875 199.782336 
L 112.000219 198.56618 
L 113.222563 197.804087 
L 115.667251 201.65048 
L 116.889595 202.601959 
L 118.111939 202.222746 
L 119.334283 202.956636 
L 120.556627 200.918918 
L 121.77897 201.728291 
L 123.001314 201.436643 
L 125.446002 200.270799 
L 126.668346 201.993774 
L 127.89069 202.09218 
L 129.113034 200.780629 
L 130.335378 200.635766 
L 131.557722 200.819638 
L 132.780066 201.720362 
L 134.00241 199.797562 
L 135.224754 199.318414 
L 136.447097 201.569005 
L 137.669441 200.634087 
L 138.891785 200.785051 
L 140.114129 202.258202 
L 141.336473 201.813162 
L 142.558817 202.06911 
L 143.781161 201.266162 
L 145.003505 201.143328 
L 146.225849 201.640381 
L 147.448193 201.972858 
L 148.670537 202.894867 
L 149.892881 202.932375 
L 151.115225 200.818072 
L 152.337568 201.51758 
L 154.782256 199.486994 
L 156.0046 199.814574 
L 157.226944 201.131166 
L 158.449288 201.585557 
L 159.671632 201.678127 
L 160.893976 201.505837 
L 162.11632 200.991805 
L 163.338664 202.405498 
L 164.561008 201.594264 
L 165.783352 201.46532 
L 167.005696 200.478037 
L 169.450383 200.199233 
L 170.672727 200.240616 
L 171.895071 199.723431 
L 173.117415 200.560901 
L 174.339759 199.719521 
L 175.562103 200.348121 
L 176.784447 201.55527 
L 178.006791 200.429703 
L 179.229135 202.148675 
L 180.451479 201.513215 
L 181.673823 201.551183 
L 182.896166 202.723047 
L 184.11851 201.469493 
L 185.340854 200.60793 
L 186.563198 200.774391 
L 187.785542 199.959121 
L 189.007886 200.162432 
L 190.23023 199.562955 
L 191.452574 199.239312 
L 192.674918 199.547853 
L 193.897262 200.276067 
L 196.34195 200.49323 
L 197.564294 200.255813 
L 198.786637 200.297652 
L 200.008981 199.799175 
L 202.453669 199.638006 
L 203.676013 200.254785 
L 206.120701 199.614095 
L 207.343045 199.167555 
L 208.565389 199.240393 
L 209.787733 199.08597 
L 211.010077 200.166623 
L 213.454765 203.332757 
L 215.899452 202.105016 
L 218.34414 203.972838 
L 219.566484 204.221323 
L 220.788828 203.287923 
L 222.011172 203.962065 
L 223.233516 204.300661 
L 224.45586 203.364227 
L 226.900548 201.806963 
L 228.122892 201.765563 
L 229.345235 202.111515 
L 230.567579 201.064191 
L 231.789923 201.524146 
L 234.234611 199.309455 
L 235.456955 200.225218 
L 236.679299 200.350168 
L 237.901643 200.177664 
L 239.123987 200.503222 
L 240.346331 200.18759 
L 241.568675 199.097674 
L 242.791019 200.117409 
L 244.013363 200.519041 
L 245.235706 199.967447 
L 246.45805 200.703129 
L 247.680394 199.870823 
L 248.902738 199.545019 
L 250.125082 198.948284 
L 251.347426 198.583698 
L 252.56977 198.718608 
L 255.014458 198.753953 
L 257.459146 197.270247 
L 258.68149 196.643369 
L 259.903834 197.960662 
L 261.126177 198.949914 
L 262.348521 198.460387 
L 263.570865 197.181728 
L 264.793209 196.431178 
L 266.015553 196.487398 
L 267.237897 195.081832 
L 268.460241 195.054701 
L 269.682585 195.988629 
L 270.904929 196.674894 
L 273.349617 193.888314 
L 274.571961 194.354972 
L 275.794304 193.830069 
L 277.016648 193.182538 
L 278.238992 193.035484 
L 279.461336 193.064423 
L 280.68368 192.399932 
L 281.906024 192.501641 
L 283.128368 191.589094 
L 284.350712 191.145971 
L 286.7954 189.741904 
L 288.017744 190.300205 
L 289.240088 189.813096 
L 291.684775 188.217626 
L 292.907119 187.721932 
L 294.129463 186.190575 
L 295.351807 185.075656 
L 296.574151 185.910248 
L 297.796495 184.656123 
L 299.018839 183.22219 
L 300.241183 181.44781 
L 301.463527 181.112591 
L 302.685871 181.273076 
L 303.908215 180.591655 
L 305.130559 180.555073 
L 306.352903 178.337008 
L 307.575246 177.878559 
L 308.79759 174.55777 
L 310.019934 175.483178 
L 311.242278 174.597183 
L 312.464622 173.91647 
L 313.686966 171.614219 
L 316.131654 165.561966 
L 318.576342 160.296698 
L 319.798686 158.48026 
L 321.02103 158.213947 
L 322.243373 153.039221 
L 323.465717 153.250887 
L 324.688061 152.286089 
L 325.910405 152.39814 
L 327.132749 153.005285 
L 328.355093 152.894505 
L 329.577437 152.281926 
L 330.799781 150.725081 
L 332.022125 149.619416 
L 333.244469 146.163195 
L 334.466813 149.543688 
L 335.689157 148.296018 
L 336.911501 146.071193 
L 339.356188 139.674249 
L 340.578532 139.278516 
L 341.800876 137.168424 
L 344.245564 137.511969 
L 345.467908 140.092587 
L 347.912596 135.398746 
L 349.13494 135.973559 
L 350.357284 138.836099 
L 351.579628 141.079116 
L 352.801972 139.346589 
L 354.024315 136.807729 
L 355.246659 139.553624 
L 356.469003 140.202414 
L 357.691347 138.316838 
L 358.913691 137.321678 
L 360.136035 136.928587 
L 361.358379 136.391358 
L 362.580723 137.937358 
L 363.803067 136.33339 
L 365.025411 136.841027 
L 366.247755 140.480453 
L 367.470099 139.94551 
L 368.692442 139.912204 
L 369.914786 141.477629 
L 371.13713 142.666233 
L 372.359474 146.534329 
L 373.581818 149.832911 
L 373.581818 149.832911 
" clip-path="url(#p851e99c000)" style="fill: none; stroke-dasharray: 5.55,2.4; stroke-dashoffset: 0; stroke: #ff0000; stroke-width: 1.5"/>
   </g>
   <g id="line2d_30">
    <path d="M 69.218182 213.207094 
L 71.66287 210.557123 
L 72.885214 208.894231 
L 74.107558 207.919824 
L 75.329901 206.302508 
L 76.552245 206.62136 
L 77.774589 207.193164 
L 78.996933 206.283313 
L 80.219277 205.006941 
L 81.441621 205.596019 
L 83.886309 204.237136 
L 85.108653 203.416785 
L 86.330997 205.083371 
L 87.553341 205.326255 
L 88.775685 206.771892 
L 91.220372 208.897372 
L 92.442716 209.447391 
L 93.66506 209.247635 
L 97.332092 205.749871 
L 98.554436 205.91677 
L 99.77678 205.46706 
L 100.999124 206.700631 
L 102.221468 207.345372 
L 103.443812 208.985704 
L 104.666156 209.803249 
L 105.888499 209.016853 
L 107.110843 207.526121 
L 108.333187 205.722592 
L 109.555531 205.919692 
L 110.777875 206.244604 
L 112.000219 205.734185 
L 113.222563 204.968678 
L 114.444907 206.841794 
L 115.667251 208.232849 
L 116.889595 208.223154 
L 118.111939 208.460882 
L 119.334283 207.63863 
L 120.556627 206.300896 
L 121.77897 206.854705 
L 123.001314 207.639509 
L 124.223658 207.327828 
L 125.446002 206.495173 
L 126.668346 207.755861 
L 127.89069 207.209478 
L 129.113034 206.422222 
L 130.335378 207.041422 
L 131.557722 206.700986 
L 132.780066 207.195501 
L 134.00241 205.89709 
L 135.224754 206.475876 
L 136.447097 207.625037 
L 137.669441 206.840441 
L 138.891785 207.598408 
L 140.114129 208.871369 
L 141.336473 209.160476 
L 142.558817 209.222974 
L 143.781161 207.822719 
L 145.003505 207.777019 
L 146.225849 207.229811 
L 147.448193 207.408536 
L 148.670537 207.43012 
L 149.892881 207.640255 
L 151.115225 205.686656 
L 152.337568 207.117526 
L 153.559912 206.034077 
L 154.782256 205.867619 
L 156.0046 206.648275 
L 157.226944 208.05036 
L 158.449288 207.821582 
L 159.671632 208.472551 
L 160.893976 207.846888 
L 162.11632 207.363472 
L 163.338664 208.291908 
L 164.561008 208.273024 
L 165.783352 207.645594 
L 167.005696 206.752324 
L 168.228039 206.577108 
L 169.450383 206.89077 
L 170.672727 207.777397 
L 171.895071 207.217645 
L 173.117415 208.071571 
L 174.339759 206.869766 
L 175.562103 207.327414 
L 176.784447 208.734225 
L 178.006791 206.96242 
L 179.229135 208.180468 
L 180.451479 208.197493 
L 181.673823 208.990278 
L 182.896166 209.442398 
L 184.11851 208.617 
L 185.340854 207.937911 
L 186.563198 207.974859 
L 187.785542 207.046294 
L 189.007886 206.871013 
L 190.23023 206.432445 
L 191.452574 207.487368 
L 192.674918 207.708794 
L 193.897262 208.897202 
L 195.119606 209.386901 
L 196.34195 208.905219 
L 197.564294 208.661601 
L 200.008981 208.569096 
L 201.231325 208.322964 
L 202.453669 207.626943 
L 204.898357 207.411986 
L 206.120701 206.283057 
L 207.343045 206.155612 
L 209.787733 206.695784 
L 212.232421 208.892262 
L 213.454765 210.293596 
L 215.899452 209.487294 
L 217.121796 209.655597 
L 218.34414 211.330627 
L 219.566484 210.947693 
L 220.788828 210.785843 
L 222.011172 211.873344 
L 223.233516 212.165856 
L 224.45586 211.202245 
L 225.678204 211.074481 
L 226.900548 210.177146 
L 228.122892 209.085886 
L 229.345235 209.525044 
L 230.567579 209.199006 
L 233.012267 207.515036 
L 234.234611 207.133838 
L 235.456955 208.018612 
L 236.679299 209.224613 
L 237.901643 208.547257 
L 239.123987 208.397316 
L 240.346331 207.638164 
L 241.568675 206.161789 
L 244.013363 207.806891 
L 245.235706 207.59074 
L 248.902738 206.354701 
L 250.125082 206.844324 
L 251.347426 206.985366 
L 253.792114 208.278057 
L 255.014458 208.431527 
L 256.236802 207.957897 
L 257.459146 207.763571 
L 258.68149 207.155672 
L 259.903834 208.753981 
L 262.348521 208.910423 
L 263.570865 208.68547 
L 264.793209 209.103143 
L 266.015553 209.330961 
L 267.237897 208.468801 
L 268.460241 208.083121 
L 269.682585 207.983563 
L 270.904929 208.828134 
L 273.349617 207.983294 
L 275.794304 208.108689 
L 277.016648 208.395635 
L 279.461336 208.08458 
L 280.68368 207.654027 
L 281.906024 207.776153 
L 283.128368 207.548716 
L 285.573056 207.901742 
L 286.7954 207.156341 
L 288.017744 208.325297 
L 289.240088 209.05594 
L 290.462432 208.387003 
L 291.684775 208.888195 
L 292.907119 208.884743 
L 294.129463 208.999677 
L 295.351807 209.464286 
L 296.574151 208.746742 
L 297.796495 208.675078 
L 300.241183 206.807235 
L 301.463527 206.291668 
L 302.685871 205.916618 
L 303.908215 205.801095 
L 305.130559 205.393286 
L 306.352903 204.351918 
L 307.575246 205.67549 
L 308.79759 204.933141 
L 310.019934 205.491609 
L 311.242278 205.820245 
L 312.464622 205.647692 
L 313.686966 204.985005 
L 314.90931 205.57544 
L 318.576342 205.580571 
L 319.798686 206.084818 
L 321.02103 206.952116 
L 322.243373 208.353597 
L 323.465717 209.115234 
L 324.688061 208.84043 
L 325.910405 210.228505 
L 327.132749 210.637474 
L 329.577437 209.498978 
L 330.799781 209.459102 
L 332.022125 209.955314 
L 333.244469 209.042941 
L 334.466813 208.591868 
L 335.689157 207.847331 
L 336.911501 206.719008 
L 338.133844 206.293985 
L 339.356188 206.592077 
L 340.578532 205.831556 
L 341.800876 205.408706 
L 343.02322 205.824186 
L 344.245564 206.628283 
L 345.467908 205.935744 
L 349.13494 207.797911 
L 350.357284 208.086359 
L 351.579628 206.59805 
L 352.801972 206.216434 
L 354.024315 206.248839 
L 355.246659 206.988385 
L 356.469003 207.529529 
L 358.913691 205.86086 
L 360.136035 206.026053 
L 361.358379 207.106965 
L 362.580723 205.66375 
L 363.803067 205.537929 
L 365.025411 205.555769 
L 366.247755 204.274737 
L 367.470099 203.16855 
L 369.914786 203.286035 
L 371.13713 203.620872 
L 372.359474 203.736582 
L 373.581818 203.013879 
L 373.581818 203.013879 
" clip-path="url(#p851e99c000)" style="fill: none; stroke: #ff0000; stroke-width: 1.5; stroke-linecap: square"/>
   </g>
   <g id="line2d_31">
    <path d="M 69.218182 213.937283 
L 70.440526 211.458975 
L 72.885214 205.358018 
L 74.107558 203.913902 
L 75.329901 201.174491 
L 76.552245 201.322159 
L 77.774589 202.639253 
L 78.996933 202.419864 
L 80.219277 201.493215 
L 81.441621 202.151026 
L 85.108653 199.700405 
L 86.330997 201.382355 
L 87.553341 202.207791 
L 88.775685 204.004897 
L 89.998028 205.239302 
L 91.220372 206.228235 
L 92.442716 206.794781 
L 93.66506 205.912916 
L 94.887404 204.453766 
L 96.109748 202.559289 
L 97.332092 201.265086 
L 98.554436 201.822273 
L 99.77678 202.129961 
L 103.443812 206.010691 
L 104.666156 206.971024 
L 105.888499 206.383539 
L 107.110843 204.627362 
L 108.333187 202.636178 
L 109.555531 202.636013 
L 110.777875 203.220836 
L 112.000219 202.985283 
L 113.222563 201.796796 
L 114.444907 203.455535 
L 115.667251 204.801278 
L 118.111939 205.010112 
L 119.334283 204.330295 
L 120.556627 203.312929 
L 121.77897 203.779134 
L 123.001314 204.92546 
L 124.223658 204.882029 
L 125.446002 204.083573 
L 126.668346 205.393958 
L 127.89069 204.881335 
L 129.113034 203.393997 
L 130.335378 203.846422 
L 131.557722 203.780207 
L 132.780066 204.640099 
L 134.00241 203.156938 
L 135.224754 203.892282 
L 136.447097 204.986429 
L 137.669441 204.39203 
L 138.891785 205.123733 
L 140.114129 206.379833 
L 142.558817 206.726269 
L 143.781161 205.657731 
L 145.003505 205.964223 
L 146.225849 205.592864 
L 147.448193 205.935126 
L 148.670537 206.148217 
L 149.892881 206.541416 
L 151.115225 204.384233 
L 152.337568 205.479478 
L 153.559912 204.583847 
L 154.782256 204.329449 
L 156.0046 205.134679 
L 157.226944 206.502254 
L 158.449288 205.879597 
L 159.671632 206.027465 
L 162.11632 204.456586 
L 163.338664 205.447477 
L 165.783352 204.472055 
L 167.005696 203.641467 
L 168.228039 203.845434 
L 169.450383 204.398645 
L 170.672727 205.865873 
L 171.895071 205.182269 
L 173.117415 205.893385 
L 174.339759 204.837388 
L 175.562103 205.299621 
L 176.784447 206.787696 
L 178.006791 204.839491 
L 179.229135 206.410921 
L 180.451479 206.381951 
L 182.896166 207.851384 
L 184.11851 206.880945 
L 185.340854 206.096743 
L 186.563198 205.893839 
L 187.785542 204.986437 
L 189.007886 204.941202 
L 190.23023 204.52004 
L 191.452574 205.521871 
L 192.674918 205.634013 
L 193.897262 207.262236 
L 195.119606 207.926911 
L 196.34195 208.045559 
L 197.564294 207.707144 
L 198.786637 207.733517 
L 200.008981 207.566738 
L 201.231325 207.178876 
L 202.453669 206.363792 
L 203.676013 206.08833 
L 204.898357 205.95967 
L 206.120701 205.224834 
L 207.343045 205.158431 
L 209.787733 205.437053 
L 211.010077 206.889669 
L 212.232421 207.792486 
L 213.454765 209.418074 
L 215.899452 208.706122 
L 217.121796 209.191262 
L 218.34414 210.582553 
L 219.566484 210.076876 
L 220.788828 209.749062 
L 222.011172 210.791329 
L 223.233516 211.015605 
L 224.45586 210.041769 
L 225.678204 209.946726 
L 228.122892 208.37125 
L 229.345235 208.779328 
L 230.567579 208.504195 
L 231.789923 207.896888 
L 233.012267 207.065642 
L 234.234611 206.482248 
L 236.679299 208.643029 
L 237.901643 208.048038 
L 239.123987 207.96364 
L 240.346331 207.187559 
L 241.568675 205.748878 
L 242.791019 206.794911 
L 244.013363 207.497622 
L 245.235706 207.259359 
L 248.902738 206.150402 
L 250.125082 206.7797 
L 251.347426 207.104827 
L 252.56977 207.800347 
L 253.792114 208.17327 
L 255.014458 208.188765 
L 256.236802 207.572243 
L 257.459146 207.295764 
L 258.68149 206.788738 
L 259.903834 208.328705 
L 262.348521 208.445505 
L 263.570865 208.206248 
L 264.793209 208.9131 
L 266.015553 208.963315 
L 267.237897 208.215441 
L 268.460241 207.841826 
L 269.682585 207.685464 
L 270.904929 208.53639 
L 273.349617 207.743127 
L 275.794304 207.738663 
L 277.016648 207.978003 
L 280.68368 206.890774 
L 281.906024 206.96991 
L 284.350712 206.50305 
L 285.573056 206.654391 
L 286.7954 205.825494 
L 288.017744 207.047831 
L 289.240088 207.729452 
L 290.462432 206.974228 
L 291.684775 207.275407 
L 292.907119 207.790739 
L 294.129463 208.065626 
L 295.351807 208.541028 
L 297.796495 208.253953 
L 300.241183 206.382299 
L 301.463527 205.589094 
L 302.685871 205.04311 
L 303.908215 204.914221 
L 305.130559 203.447545 
L 306.352903 201.731237 
L 307.575246 203.288464 
L 308.79759 202.419038 
L 310.019934 202.917654 
L 312.464622 203.709602 
L 313.686966 202.698559 
L 314.90931 203.461339 
L 316.131654 203.54937 
L 317.353998 203.783624 
L 318.576342 204.147254 
L 319.798686 205.075439 
L 322.243373 207.188103 
L 323.465717 207.001778 
L 324.688061 206.268262 
L 325.910405 207.193698 
L 327.132749 207.546792 
L 329.577437 206.097181 
L 332.022125 206.55196 
L 333.244469 205.913422 
L 334.466813 205.873123 
L 335.689157 205.415993 
L 336.911501 204.415848 
L 340.578532 202.691211 
L 341.800876 201.191635 
L 343.02322 201.145101 
L 344.245564 202.072736 
L 345.467908 201.70942 
L 346.690252 201.804686 
L 347.912596 201.771751 
L 349.13494 202.254968 
L 350.357284 203.281793 
L 351.579628 203.065008 
L 352.801972 202.286936 
L 354.024315 202.187831 
L 355.246659 202.77103 
L 356.469003 202.982573 
L 357.691347 202.591385 
L 358.913691 201.566272 
L 360.136035 201.308886 
L 361.358379 202.516497 
L 362.580723 200.837639 
L 363.803067 199.635179 
L 365.025411 199.410625 
L 366.247755 197.15598 
L 367.470099 195.894883 
L 368.692442 195.593537 
L 369.914786 194.644999 
L 371.13713 195.586757 
L 372.359474 195.212893 
L 373.581818 194.060884 
L 373.581818 194.060884 
" clip-path="url(#p851e99c000)" style="fill: none; stroke: #ff7f0e; stroke-width: 1.5; stroke-linecap: square"/>
   </g>
   <g id="line2d_32">
    <path d="M 69.218182 215.46 
L 70.440526 213.408024 
L 72.885214 208.043515 
L 74.107558 206.469001 
L 75.329901 203.930702 
L 76.552245 204.175497 
L 77.774589 205.200877 
L 78.996933 204.576206 
L 80.219277 203.470139 
L 81.441621 204.169874 
L 82.663965 203.288264 
L 85.108653 201.879939 
L 86.330997 203.59467 
L 87.553341 204.074193 
L 88.775685 205.834128 
L 91.220372 207.637031 
L 92.442716 208.34043 
L 93.66506 207.809699 
L 94.887404 206.765582 
L 97.332092 203.842212 
L 98.554436 204.310976 
L 99.77678 204.068186 
L 100.999124 205.285847 
L 102.221468 206.060383 
L 103.443812 207.789589 
L 104.666156 208.726609 
L 105.888499 207.861985 
L 107.110843 206.10872 
L 108.333187 204.063127 
L 109.555531 204.406562 
L 110.777875 204.903901 
L 112.000219 204.723259 
L 113.222563 203.374506 
L 114.444907 205.305257 
L 115.667251 206.88809 
L 116.889595 207.165143 
L 118.111939 207.625842 
L 119.334283 206.992321 
L 120.556627 205.711066 
L 121.77897 206.197779 
L 123.001314 207.045833 
L 124.223658 206.765809 
L 125.446002 206.051081 
L 126.668346 207.356652 
L 127.89069 206.669658 
L 129.113034 205.625961 
L 130.335378 206.105371 
L 131.557722 205.624504 
L 132.780066 206.118713 
L 134.00241 204.476509 
L 135.224754 205.075329 
L 136.447097 206.313786 
L 137.669441 205.695362 
L 138.891785 206.623351 
L 140.114129 207.99703 
L 141.336473 208.546858 
L 142.558817 208.731901 
L 143.781161 207.391071 
L 145.003505 207.42171 
L 146.225849 207.061587 
L 148.670537 207.432453 
L 149.892881 207.494944 
L 151.115225 205.475586 
L 152.337568 206.686861 
L 153.559912 205.42343 
L 154.782256 205.168742 
L 156.0046 205.96695 
L 157.226944 207.377083 
L 158.449288 207.045812 
L 159.671632 207.865432 
L 162.11632 206.802783 
L 163.338664 207.822739 
L 164.561008 207.715761 
L 165.783352 207.196074 
L 167.005696 206.301915 
L 168.228039 206.013512 
L 169.450383 206.454366 
L 170.672727 207.460254 
L 171.895071 206.693075 
L 173.117415 207.545356 
L 174.339759 206.450508 
L 175.562103 206.839648 
L 176.784447 208.146502 
L 178.006791 206.267375 
L 179.229135 207.597449 
L 180.451479 207.620041 
L 181.673823 208.398243 
L 182.896166 208.996504 
L 185.340854 207.601718 
L 186.563198 207.447352 
L 187.785542 206.54954 
L 189.007886 206.404423 
L 190.23023 206.035286 
L 191.452574 207.14489 
L 192.674918 207.21489 
L 193.897262 208.441701 
L 195.119606 209.052714 
L 196.34195 208.783089 
L 197.564294 208.298236 
L 198.786637 208.173657 
L 200.008981 208.237092 
L 201.231325 208.022879 
L 202.453669 207.252106 
L 204.898357 207.187473 
L 206.120701 206.019803 
L 207.343045 205.86227 
L 209.787733 206.27687 
L 211.010077 207.594895 
L 212.232421 208.502862 
L 213.454765 210.078018 
L 215.899452 209.40226 
L 217.121796 209.674867 
L 218.34414 211.220674 
L 219.566484 210.750606 
L 220.788828 210.44065 
L 222.011172 211.588843 
L 223.233516 211.480262 
L 224.45586 210.72138 
L 225.678204 210.608365 
L 226.900548 209.672056 
L 228.122892 208.548329 
L 229.345235 208.833971 
L 230.567579 208.615019 
L 233.012267 207.053498 
L 234.234611 206.662848 
L 236.679299 208.774556 
L 237.901643 208.071301 
L 239.123987 208.093262 
L 240.346331 207.324219 
L 241.568675 205.751699 
L 244.013363 207.512709 
L 245.235706 207.338844 
L 247.680394 206.430691 
L 248.902738 206.165514 
L 250.125082 206.760507 
L 251.347426 207.017804 
L 252.56977 207.727378 
L 253.792114 208.246183 
L 255.014458 208.322035 
L 256.236802 207.705698 
L 257.459146 207.429581 
L 258.68149 206.77985 
L 259.903834 208.426322 
L 261.126177 208.40516 
L 262.348521 208.534386 
L 263.570865 208.353549 
L 264.793209 208.789112 
L 266.015553 209.023274 
L 267.237897 208.311397 
L 268.460241 207.866371 
L 269.682585 207.698427 
L 270.904929 208.439503 
L 272.127273 207.958559 
L 273.349617 207.705889 
L 274.571961 207.640691 
L 275.794304 207.919357 
L 277.016648 208.332906 
L 280.68368 207.494255 
L 281.906024 207.608374 
L 283.128368 207.4901 
L 285.573056 207.80873 
L 286.7954 207.204892 
L 288.017744 208.145092 
L 289.240088 208.822083 
L 290.462432 208.120646 
L 291.684775 208.791125 
L 292.907119 208.861563 
L 294.129463 209.097434 
L 295.351807 209.185631 
L 296.574151 208.435927 
L 297.796495 208.243994 
L 300.241183 206.219827 
L 302.685871 205.173538 
L 303.908215 204.895583 
L 305.130559 204.477408 
L 306.352903 203.485065 
L 307.575246 204.688386 
L 308.79759 203.866486 
L 310.019934 204.357621 
L 311.242278 204.722435 
L 312.464622 204.603828 
L 313.686966 203.792262 
L 314.90931 204.466504 
L 316.131654 204.600796 
L 317.353998 204.535122 
L 318.576342 204.649237 
L 319.798686 205.078692 
L 322.243373 207.421553 
L 323.465717 208.076426 
L 324.688061 207.972858 
L 325.910405 209.079932 
L 327.132749 209.62103 
L 328.355093 209.007725 
L 330.799781 208.241979 
L 332.022125 208.886899 
L 333.244469 207.838817 
L 334.466813 207.410321 
L 335.689157 206.631828 
L 336.911501 205.579185 
L 338.133844 205.130253 
L 339.356188 205.222328 
L 341.800876 203.964122 
L 344.245564 205.348139 
L 345.467908 204.640988 
L 346.690252 205.401673 
L 350.357284 206.638466 
L 351.579628 205.326305 
L 352.801972 204.886333 
L 354.024315 204.923323 
L 355.246659 205.911779 
L 356.469003 206.13414 
L 358.913691 204.308261 
L 360.136035 204.279822 
L 361.358379 205.411804 
L 362.580723 203.945811 
L 365.025411 203.364445 
L 366.247755 201.331971 
L 367.470099 200.212935 
L 368.692442 200.219193 
L 369.914786 199.966325 
L 371.13713 200.501622 
L 372.359474 200.166433 
L 373.581818 198.959213 
L 373.581818 198.959213 
" clip-path="url(#p851e99c000)" style="fill: none; stroke: #1f77b4; stroke-width: 1.5; stroke-linecap: square"/>
   </g>
   <g id="legend_1">
    <g id="patch_7">
     <path d="M 61 126.30875 
L 214.865625 126.30875 
Q 216.865625 126.30875 216.865625 124.30875 
L 216.865625 37.24 
Q 216.865625 35.24 214.865625 35.24 
L 61 35.24 
Q 59 35.24 59 37.24 
L 59 124.30875 
Q 59 126.30875 61 126.30875 
z
" style="fill: #ffffff; opacity: 0.8; stroke: #e6e6e6; stroke-linejoin: miter"/>
    </g>
    <g id="line2d_33">
     <path d="M 63 43.338437 
L 73 43.338437 
L 83 43.338437 
" style="fill: none; stroke-dasharray: 1.5,2.475; stroke-dashoffset: 0; stroke: #ff0000; stroke-width: 1.5"/>
    </g>
    <g id="text_17">
     <!-- R/S (AUC:0.0238) -->
     <g transform="translate(91 46.838437)scale(0.1 -0.1)">
      <defs>
       <path id="DejaVuSans-52" d="M 2841 2188 
Q 3044 2119 3236 1894 
Q 3428 1669 3622 1275 
L 4263 0 
L 3584 0 
L 2988 1197 
Q 2756 1666 2539 1819 
Q 2322 1972 1947 1972 
L 1259 1972 
L 1259 0 
L 628 0 
L 628 4666 
L 2053 4666 
Q 2853 4666 3247 4331 
Q 3641 3997 3641 3322 
Q 3641 2881 3436 2590 
Q 3231 2300 2841 2188 
z
M 1259 4147 
L 1259 2491 
L 2053 2491 
Q 2509 2491 2742 2702 
Q 2975 2913 2975 3322 
Q 2975 3731 2742 3939 
Q 2509 4147 2053 4147 
L 1259 4147 
z
" transform="scale(0.015625)"/>
       <path id="DejaVuSans-53" d="M 3425 4513 
L 3425 3897 
Q 3066 4069 2747 4153 
Q 2428 4238 2131 4238 
Q 1616 4238 1336 4038 
Q 1056 3838 1056 3469 
Q 1056 3159 1242 3001 
Q 1428 2844 1947 2747 
L 2328 2669 
Q 3034 2534 3370 2195 
Q 3706 1856 3706 1288 
Q 3706 609 3251 259 
Q 2797 -91 1919 -91 
Q 1588 -91 1214 -16 
Q 841 59 441 206 
L 441 856 
Q 825 641 1194 531 
Q 1563 422 1919 422 
Q 2459 422 2753 634 
Q 3047 847 3047 1241 
Q 3047 1584 2836 1778 
Q 2625 1972 2144 2069 
L 1759 2144 
Q 1053 2284 737 2584 
Q 422 2884 422 3419 
Q 422 4038 858 4394 
Q 1294 4750 2059 4750 
Q 2388 4750 2728 4690 
Q 3069 4631 3425 4513 
z
" transform="scale(0.015625)"/>
       <path id="DejaVuSans-41" d="M 2188 4044 
L 1331 1722 
L 3047 1722 
L 2188 4044 
z
M 1831 4666 
L 2547 4666 
L 4325 0 
L 3669 0 
L 3244 1197 
L 1141 1197 
L 716 0 
L 50 0 
L 1831 4666 
z
" transform="scale(0.015625)"/>
       <path id="DejaVuSans-55" d="M 556 4666 
L 1191 4666 
L 1191 1831 
Q 1191 1081 1462 751 
Q 1734 422 2344 422 
Q 2950 422 3222 751 
Q 3494 1081 3494 1831 
L 3494 4666 
L 4128 4666 
L 4128 1753 
Q 4128 841 3676 375 
Q 3225 -91 2344 -91 
Q 1459 -91 1007 375 
Q 556 841 556 1753 
L 556 4666 
z
" transform="scale(0.015625)"/>
       <path id="DejaVuSans-43" d="M 4122 4306 
L 4122 3641 
Q 3803 3938 3442 4084 
Q 3081 4231 2675 4231 
Q 1875 4231 1450 3742 
Q 1025 3253 1025 2328 
Q 1025 1406 1450 917 
Q 1875 428 2675 428 
Q 3081 428 3442 575 
Q 3803 722 4122 1019 
L 4122 359 
Q 3791 134 3420 21 
Q 3050 -91 2638 -91 
Q 1578 -91 968 557 
Q 359 1206 359 2328 
Q 359 3453 968 4101 
Q 1578 4750 2638 4750 
Q 3056 4750 3426 4639 
Q 3797 4528 4122 4306 
z
" transform="scale(0.015625)"/>
      </defs>
      <use xlink:href="#DejaVuSans-52"/>
      <use xlink:href="#DejaVuSans-2f" x="69.482422"/>
      <use xlink:href="#DejaVuSans-53" x="103.173828"/>
      <use xlink:href="#DejaVuSans-20" x="166.650391"/>
      <use xlink:href="#DejaVuSans-28" x="198.4375"/>
      <use xlink:href="#DejaVuSans-41" x="237.451172"/>
      <use xlink:href="#DejaVuSans-55" x="305.859375"/>
      <use xlink:href="#DejaVuSans-43" x="379.052734"/>
      <use xlink:href="#DejaVuSans-3a" x="448.876953"/>
      <use xlink:href="#DejaVuSans-30" x="482.568359"/>
      <use xlink:href="#DejaVuSans-2e" x="546.191406"/>
      <use xlink:href="#DejaVuSans-30" x="577.978516"/>
      <use xlink:href="#DejaVuSans-32" x="641.601562"/>
      <use xlink:href="#DejaVuSans-33" x="705.224609"/>
      <use xlink:href="#DejaVuSans-38" x="768.847656"/>
      <use xlink:href="#DejaVuSans-29" x="832.470703"/>
     </g>
    </g>
    <g id="line2d_34">
     <path d="M 63 58.016562 
L 73 58.016562 
L 83 58.016562 
" style="fill: none; stroke-dasharray: 9.6,2.4,1.5,2.4; stroke-dashoffset: 0; stroke: #ff0000; stroke-width: 1.5"/>
    </g>
    <g id="text_18">
     <!-- variogram (AUC:0.0139) -->
     <g transform="translate(91 61.516562)scale(0.1 -0.1)">
      <defs>
       <path id="DejaVuSans-67" d="M 2906 1791 
Q 2906 2416 2648 2759 
Q 2391 3103 1925 3103 
Q 1463 3103 1205 2759 
Q 947 2416 947 1791 
Q 947 1169 1205 825 
Q 1463 481 1925 481 
Q 2391 481 2648 825 
Q 2906 1169 2906 1791 
z
M 3481 434 
Q 3481 -459 3084 -895 
Q 2688 -1331 1869 -1331 
Q 1566 -1331 1297 -1286 
Q 1028 -1241 775 -1147 
L 775 -588 
Q 1028 -725 1275 -790 
Q 1522 -856 1778 -856 
Q 2344 -856 2625 -561 
Q 2906 -266 2906 331 
L 2906 616 
Q 2728 306 2450 153 
Q 2172 0 1784 0 
Q 1141 0 747 490 
Q 353 981 353 1791 
Q 353 2603 747 3093 
Q 1141 3584 1784 3584 
Q 2172 3584 2450 3431 
Q 2728 3278 2906 2969 
L 2906 3500 
L 3481 3500 
L 3481 434 
z
" transform="scale(0.015625)"/>
       <path id="DejaVuSans-6d" d="M 3328 2828 
Q 3544 3216 3844 3400 
Q 4144 3584 4550 3584 
Q 5097 3584 5394 3201 
Q 5691 2819 5691 2113 
L 5691 0 
L 5113 0 
L 5113 2094 
Q 5113 2597 4934 2840 
Q 4756 3084 4391 3084 
Q 3944 3084 3684 2787 
Q 3425 2491 3425 1978 
L 3425 0 
L 2847 0 
L 2847 2094 
Q 2847 2600 2669 2842 
Q 2491 3084 2119 3084 
Q 1678 3084 1418 2786 
Q 1159 2488 1159 1978 
L 1159 0 
L 581 0 
L 581 3500 
L 1159 3500 
L 1159 2956 
Q 1356 3278 1631 3431 
Q 1906 3584 2284 3584 
Q 2666 3584 2933 3390 
Q 3200 3197 3328 2828 
z
" transform="scale(0.015625)"/>
       <path id="DejaVuSans-39" d="M 703 97 
L 703 672 
Q 941 559 1184 500 
Q 1428 441 1663 441 
Q 2288 441 2617 861 
Q 2947 1281 2994 2138 
Q 2813 1869 2534 1725 
Q 2256 1581 1919 1581 
Q 1219 1581 811 2004 
Q 403 2428 403 3163 
Q 403 3881 828 4315 
Q 1253 4750 1959 4750 
Q 2769 4750 3195 4129 
Q 3622 3509 3622 2328 
Q 3622 1225 3098 567 
Q 2575 -91 1691 -91 
Q 1453 -91 1209 -44 
Q 966 3 703 97 
z
M 1959 2075 
Q 2384 2075 2632 2365 
Q 2881 2656 2881 3163 
Q 2881 3666 2632 3958 
Q 2384 4250 1959 4250 
Q 1534 4250 1286 3958 
Q 1038 3666 1038 3163 
Q 1038 2656 1286 2365 
Q 1534 2075 1959 2075 
z
" transform="scale(0.015625)"/>
      </defs>
      <use xlink:href="#DejaVuSans-76"/>
      <use xlink:href="#DejaVuSans-61" x="59.179688"/>
      <use xlink:href="#DejaVuSans-72" x="120.458984"/>
      <use xlink:href="#DejaVuSans-69" x="161.572266"/>
      <use xlink:href="#DejaVuSans-6f" x="189.355469"/>
      <use xlink:href="#DejaVuSans-67" x="250.537109"/>
      <use xlink:href="#DejaVuSans-72" x="314.013672"/>
      <use xlink:href="#DejaVuSans-61" x="355.126953"/>
      <use xlink:href="#DejaVuSans-6d" x="416.40625"/>
      <use xlink:href="#DejaVuSans-20" x="513.818359"/>
      <use xlink:href="#DejaVuSans-28" x="545.605469"/>
      <use xlink:href="#DejaVuSans-41" x="584.619141"/>
      <use xlink:href="#DejaVuSans-55" x="653.027344"/>
      <use xlink:href="#DejaVuSans-43" x="726.220703"/>
      <use xlink:href="#DejaVuSans-3a" x="796.044922"/>
      <use xlink:href="#DejaVuSans-30" x="829.736328"/>
      <use xlink:href="#DejaVuSans-2e" x="893.359375"/>
      <use xlink:href="#DejaVuSans-30" x="925.146484"/>
      <use xlink:href="#DejaVuSans-31" x="988.769531"/>
      <use xlink:href="#DejaVuSans-33" x="1052.392578"/>
      <use xlink:href="#DejaVuSans-39" x="1116.015625"/>
      <use xlink:href="#DejaVuSans-29" x="1179.638672"/>
     </g>
    </g>
    <g id="line2d_35">
     <path d="M 63 72.694687 
L 73 72.694687 
L 83 72.694687 
" style="fill: none; stroke-dasharray: 5.55,2.4; stroke-dashoffset: 0; stroke: #ff0000; stroke-width: 1.5"/>
    </g>
    <g id="text_19">
     <!-- Higuchi (AUC:0.00964) -->
     <g transform="translate(91 76.194687)scale(0.1 -0.1)">
      <defs>
       <path id="DejaVuSans-48" d="M 628 4666 
L 1259 4666 
L 1259 2753 
L 3553 2753 
L 3553 4666 
L 4184 4666 
L 4184 0 
L 3553 0 
L 3553 2222 
L 1259 2222 
L 1259 0 
L 628 0 
L 628 4666 
z
" transform="scale(0.015625)"/>
       <path id="DejaVuSans-75" d="M 544 1381 
L 544 3500 
L 1119 3500 
L 1119 1403 
Q 1119 906 1312 657 
Q 1506 409 1894 409 
Q 2359 409 2629 706 
Q 2900 1003 2900 1516 
L 2900 3500 
L 3475 3500 
L 3475 0 
L 2900 0 
L 2900 538 
Q 2691 219 2414 64 
Q 2138 -91 1772 -91 
Q 1169 -91 856 284 
Q 544 659 544 1381 
z
M 1991 3584 
L 1991 3584 
z
" transform="scale(0.015625)"/>
       <path id="DejaVuSans-63" d="M 3122 3366 
L 3122 2828 
Q 2878 2963 2633 3030 
Q 2388 3097 2138 3097 
Q 1578 3097 1268 2742 
Q 959 2388 959 1747 
Q 959 1106 1268 751 
Q 1578 397 2138 397 
Q 2388 397 2633 464 
Q 2878 531 3122 666 
L 3122 134 
Q 2881 22 2623 -34 
Q 2366 -91 2075 -91 
Q 1284 -91 818 406 
Q 353 903 353 1747 
Q 353 2603 823 3093 
Q 1294 3584 2113 3584 
Q 2378 3584 2631 3529 
Q 2884 3475 3122 3366 
z
" transform="scale(0.015625)"/>
       <path id="DejaVuSans-68" d="M 3513 2113 
L 3513 0 
L 2938 0 
L 2938 2094 
Q 2938 2591 2744 2837 
Q 2550 3084 2163 3084 
Q 1697 3084 1428 2787 
Q 1159 2491 1159 1978 
L 1159 0 
L 581 0 
L 581 4863 
L 1159 4863 
L 1159 2956 
Q 1366 3272 1645 3428 
Q 1925 3584 2291 3584 
Q 2894 3584 3203 3211 
Q 3513 2838 3513 2113 
z
" transform="scale(0.015625)"/>
      </defs>
      <use xlink:href="#DejaVuSans-48"/>
      <use xlink:href="#DejaVuSans-69" x="75.195312"/>
      <use xlink:href="#DejaVuSans-67" x="102.978516"/>
      <use xlink:href="#DejaVuSans-75" x="166.455078"/>
      <use xlink:href="#DejaVuSans-63" x="229.833984"/>
      <use xlink:href="#DejaVuSans-68" x="284.814453"/>
      <use xlink:href="#DejaVuSans-69" x="348.193359"/>
      <use xlink:href="#DejaVuSans-20" x="375.976562"/>
      <use xlink:href="#DejaVuSans-28" x="407.763672"/>
      <use xlink:href="#DejaVuSans-41" x="446.777344"/>
      <use xlink:href="#DejaVuSans-55" x="515.185547"/>
      <use xlink:href="#DejaVuSans-43" x="588.378906"/>
      <use xlink:href="#DejaVuSans-3a" x="658.203125"/>
      <use xlink:href="#DejaVuSans-30" x="691.894531"/>
      <use xlink:href="#DejaVuSans-2e" x="755.517578"/>
      <use xlink:href="#DejaVuSans-30" x="787.304688"/>
      <use xlink:href="#DejaVuSans-30" x="850.927734"/>
      <use xlink:href="#DejaVuSans-39" x="914.550781"/>
      <use xlink:href="#DejaVuSans-36" x="978.173828"/>
      <use xlink:href="#DejaVuSans-34" x="1041.796875"/>
      <use xlink:href="#DejaVuSans-29" x="1105.419922"/>
     </g>
    </g>
    <g id="line2d_36">
     <path d="M 63 87.372813 
L 73 87.372813 
L 83 87.372813 
" style="fill: none; stroke: #ff0000; stroke-width: 1.5; stroke-linecap: square"/>
    </g>
    <g id="text_20">
     <!-- Whittle (AUC:0.00615) -->
     <g transform="translate(91 90.872813)scale(0.1 -0.1)">
      <defs>
       <path id="DejaVuSans-57" d="M 213 4666 
L 850 4666 
L 1831 722 
L 2809 4666 
L 3519 4666 
L 4500 722 
L 5478 4666 
L 6119 4666 
L 4947 0 
L 4153 0 
L 3169 4050 
L 2175 0 
L 1381 0 
L 213 4666 
z
" transform="scale(0.015625)"/>
      </defs>
      <use xlink:href="#DejaVuSans-57"/>
      <use xlink:href="#DejaVuSans-68" x="98.876953"/>
      <use xlink:href="#DejaVuSans-69" x="162.255859"/>
      <use xlink:href="#DejaVuSans-74" x="190.039062"/>
      <use xlink:href="#DejaVuSans-74" x="229.248047"/>
      <use xlink:href="#DejaVuSans-6c" x="268.457031"/>
      <use xlink:href="#DejaVuSans-65" x="296.240234"/>
      <use xlink:href="#DejaVuSans-20" x="357.763672"/>
      <use xlink:href="#DejaVuSans-28" x="389.550781"/>
      <use xlink:href="#DejaVuSans-41" x="428.564453"/>
      <use xlink:href="#DejaVuSans-55" x="496.972656"/>
      <use xlink:href="#DejaVuSans-43" x="570.166016"/>
      <use xlink:href="#DejaVuSans-3a" x="639.990234"/>
      <use xlink:href="#DejaVuSans-30" x="673.681641"/>
      <use xlink:href="#DejaVuSans-2e" x="737.304688"/>
      <use xlink:href="#DejaVuSans-30" x="769.091797"/>
      <use xlink:href="#DejaVuSans-30" x="832.714844"/>
      <use xlink:href="#DejaVuSans-36" x="896.337891"/>
      <use xlink:href="#DejaVuSans-31" x="959.960938"/>
      <use xlink:href="#DejaVuSans-35" x="1023.583984"/>
      <use xlink:href="#DejaVuSans-29" x="1087.207031"/>
     </g>
    </g>
    <g id="line2d_37">
     <path d="M 63 102.050938 
L 73 102.050938 
L 83 102.050938 
" style="fill: none; stroke: #ff7f0e; stroke-width: 1.5; stroke-linecap: square"/>
    </g>
    <g id="text_21">
     <!-- 1D CNN (AUC:0.00654) -->
     <g transform="translate(91 105.550938)scale(0.1 -0.1)">
      <defs>
       <path id="DejaVuSans-4e" d="M 628 4666 
L 1478 4666 
L 3547 763 
L 3547 4666 
L 4159 4666 
L 4159 0 
L 3309 0 
L 1241 3903 
L 1241 0 
L 628 0 
L 628 4666 
z
" transform="scale(0.015625)"/>
      </defs>
      <use xlink:href="#DejaVuSans-31"/>
      <use xlink:href="#DejaVuSans-44" x="63.623047"/>
      <use xlink:href="#DejaVuSans-20" x="140.625"/>
      <use xlink:href="#DejaVuSans-43" x="172.412109"/>
      <use xlink:href="#DejaVuSans-4e" x="242.236328"/>
      <use xlink:href="#DejaVuSans-4e" x="317.041016"/>
      <use xlink:href="#DejaVuSans-20" x="391.845703"/>
      <use xlink:href="#DejaVuSans-28" x="423.632812"/>
      <use xlink:href="#DejaVuSans-41" x="462.646484"/>
      <use xlink:href="#DejaVuSans-55" x="531.054688"/>
      <use xlink:href="#DejaVuSans-43" x="604.248047"/>
      <use xlink:href="#DejaVuSans-3a" x="674.072266"/>
      <use xlink:href="#DejaVuSans-30" x="707.763672"/>
      <use xlink:href="#DejaVuSans-2e" x="771.386719"/>
      <use xlink:href="#DejaVuSans-30" x="803.173828"/>
      <use xlink:href="#DejaVuSans-30" x="866.796875"/>
      <use xlink:href="#DejaVuSans-36" x="930.419922"/>
      <use xlink:href="#DejaVuSans-35" x="994.042969"/>
      <use xlink:href="#DejaVuSans-34" x="1057.666016"/>
      <use xlink:href="#DejaVuSans-29" x="1121.289062"/>
     </g>
    </g>
    <g id="line2d_38">
     <path d="M 63 116.729062 
L 73 116.729062 
L 83 116.729062 
" style="fill: none; stroke: #1f77b4; stroke-width: 1.5; stroke-linecap: square"/>
    </g>
    <g id="text_22">
     <!-- LSTM (AUC:0.00629) -->
     <g transform="translate(91 120.229062)scale(0.1 -0.1)">
      <defs>
       <path id="DejaVuSans-4c" d="M 628 4666 
L 1259 4666 
L 1259 531 
L 3531 531 
L 3531 0 
L 628 0 
L 628 4666 
z
" transform="scale(0.015625)"/>
       <path id="DejaVuSans-54" d="M -19 4666 
L 3928 4666 
L 3928 4134 
L 2272 4134 
L 2272 0 
L 1638 0 
L 1638 4134 
L -19 4134 
L -19 4666 
z
" transform="scale(0.015625)"/>
       <path id="DejaVuSans-4d" d="M 628 4666 
L 1569 4666 
L 2759 1491 
L 3956 4666 
L 4897 4666 
L 4897 0 
L 4281 0 
L 4281 4097 
L 3078 897 
L 2444 897 
L 1241 4097 
L 1241 0 
L 628 0 
L 628 4666 
z
" transform="scale(0.015625)"/>
      </defs>
      <use xlink:href="#DejaVuSans-4c"/>
      <use xlink:href="#DejaVuSans-53" x="55.712891"/>
      <use xlink:href="#DejaVuSans-54" x="119.189453"/>
      <use xlink:href="#DejaVuSans-4d" x="180.273438"/>
      <use xlink:href="#DejaVuSans-20" x="266.552734"/>
      <use xlink:href="#DejaVuSans-28" x="298.339844"/>
      <use xlink:href="#DejaVuSans-41" x="337.353516"/>
      <use xlink:href="#DejaVuSans-55" x="405.761719"/>
      <use xlink:href="#DejaVuSans-43" x="478.955078"/>
      <use xlink:href="#DejaVuSans-3a" x="548.779297"/>
      <use xlink:href="#DejaVuSans-30" x="582.470703"/>
      <use xlink:href="#DejaVuSans-2e" x="646.09375"/>
      <use xlink:href="#DejaVuSans-30" x="677.880859"/>
      <use xlink:href="#DejaVuSans-30" x="741.503906"/>
      <use xlink:href="#DejaVuSans-36" x="805.126953"/>
      <use xlink:href="#DejaVuSans-32" x="868.75"/>
      <use xlink:href="#DejaVuSans-39" x="932.373047"/>
      <use xlink:href="#DejaVuSans-29" x="995.996094"/>
     </g>
    </g>
   </g>
  </g>
 </g>
 <defs>
  <clipPath id="p851e99c000">
   <rect x="54" y="30.24" width="334.8" height="194.04"/>
  </clipPath>
 </defs>
</svg>
