<?xml version="1.0" encoding="utf-8" standalone="no"?>
<!DOCTYPE svg PUBLIC "-//W3C//DTD SVG 1.1//EN"
  "http://www.w3.org/Graphics/SVG/1.1/DTD/svg11.dtd">
<svg xmlns:xlink="http://www.w3.org/1999/xlink" width="648pt" height="342pt" viewBox="0 0 648 342" xmlns="http://www.w3.org/2000/svg" version="1.1">
 <metadata>
  <rdf:RDF xmlns:dc="http://purl.org/dc/elements/1.1/" xmlns:cc="http://creativecommons.org/ns#" xmlns:rdf="http://www.w3.org/1999/02/22-rdf-syntax-ns#">
   <cc:Work>
    <dc:type rdf:resource="http://purl.org/dc/dcmitype/StillImage"/>
    <dc:date>2024-07-04T23:27:58.523548</dc:date>
    <dc:format>image/svg+xml</dc:format>
    <dc:creator>
     <cc:Agent>
      <dc:title>Matplotlib v3.5.1, https://matplotlib.org/</dc:title>
     </cc:Agent>
    </dc:creator>
   </cc:Work>
  </rdf:RDF>
 </metadata>
 <defs>
  <style type="text/css">*{stroke-linejoin: round; stroke-linecap: butt}</style>
 </defs>
 <g id="figure_1">
  <g id="patch_1">
   <path d="M 0 342 
L 648 342 
L 648 0 
L 0 0 
z
" style="fill: #ffffff"/>
  </g>
  <g id="axes_1">
   <g id="patch_2">
    <path d="M 81 304.38 
L 583.2 304.38 
L 583.2 41.04 
L 81 41.04 
L 81 304.38 
z
" style="fill: none; opacity: 0"/>
   </g>
   <g id="matplotlib.axis_1">
    <g id="xtick_1">
     <g id="line2d_1">
      <path d="M 103.827273 304.38 
L 103.827273 41.04 
" clip-path="url(#p21c48704fd)" style="fill: none; stroke: #e6e6e6; stroke-width: 0.8; stroke-linecap: square"/>
     </g>
     <g id="line2d_2">
      <defs>
       <path id="maa3e0adc33" d="M 0 0 
L 0 3.5 
" style="stroke: #000000; stroke-width: 0.8"/>
      </defs>
      <g>
       <use xlink:href="#maa3e0adc33" x="103.827273" y="304.38" style="stroke: #000000; stroke-width: 0.8"/>
      </g>
     </g>
     <g id="text_1">
      <!-- 0.0 -->
      <g transform="translate(95.87571 318.978437)scale(0.1 -0.1)">
       <defs>
        <path id="DejaVuSans-30" d="M 2034 4250 
Q 1547 4250 1301 3770 
Q 1056 3291 1056 2328 
Q 1056 1369 1301 889 
Q 1547 409 2034 409 
Q 2525 409 2770 889 
Q 3016 1369 3016 2328 
Q 3016 3291 2770 3770 
Q 2525 4250 2034 4250 
z
M 2034 4750 
Q 2819 4750 3233 4129 
Q 3647 3509 3647 2328 
Q 3647 1150 3233 529 
Q 2819 -91 2034 -91 
Q 1250 -91 836 529 
Q 422 1150 422 2328 
Q 422 3509 836 4129 
Q 1250 4750 2034 4750 
z
" transform="scale(0.015625)"/>
        <path id="DejaVuSans-2e" d="M 684 794 
L 1344 794 
L 1344 0 
L 684 0 
L 684 794 
z
" transform="scale(0.015625)"/>
       </defs>
       <use xlink:href="#DejaVuSans-30"/>
       <use xlink:href="#DejaVuSans-2e" x="63.623047"/>
       <use xlink:href="#DejaVuSans-30" x="95.410156"/>
      </g>
     </g>
    </g>
    <g id="xtick_2">
     <g id="line2d_3">
      <path d="M 195.136364 304.38 
L 195.136364 41.04 
" clip-path="url(#p21c48704fd)" style="fill: none; stroke: #e6e6e6; stroke-width: 0.8; stroke-linecap: square"/>
     </g>
     <g id="line2d_4">
      <g>
       <use xlink:href="#maa3e0adc33" x="195.136364" y="304.38" style="stroke: #000000; stroke-width: 0.8"/>
      </g>
     </g>
     <g id="text_2">
      <!-- 0.2 -->
      <g transform="translate(187.184801 318.978437)scale(0.1 -0.1)">
       <defs>
        <path id="DejaVuSans-32" d="M 1228 531 
L 3431 531 
L 3431 0 
L 469 0 
L 469 531 
Q 828 903 1448 1529 
Q 2069 2156 2228 2338 
Q 2531 2678 2651 2914 
Q 2772 3150 2772 3378 
Q 2772 3750 2511 3984 
Q 2250 4219 1831 4219 
Q 1534 4219 1204 4116 
Q 875 4013 500 3803 
L 500 4441 
Q 881 4594 1212 4672 
Q 1544 4750 1819 4750 
Q 2544 4750 2975 4387 
Q 3406 4025 3406 3419 
Q 3406 3131 3298 2873 
Q 3191 2616 2906 2266 
Q 2828 2175 2409 1742 
Q 1991 1309 1228 531 
z
" transform="scale(0.015625)"/>
       </defs>
       <use xlink:href="#DejaVuSans-30"/>
       <use xlink:href="#DejaVuSans-2e" x="63.623047"/>
       <use xlink:href="#DejaVuSans-32" x="95.410156"/>
      </g>
     </g>
    </g>
    <g id="xtick_3">
     <g id="line2d_5">
      <path d="M 286.445455 304.38 
L 286.445455 41.04 
" clip-path="url(#p21c48704fd)" style="fill: none; stroke: #e6e6e6; stroke-width: 0.8; stroke-linecap: square"/>
     </g>
     <g id="line2d_6">
      <g>
       <use xlink:href="#maa3e0adc33" x="286.445455" y="304.38" style="stroke: #000000; stroke-width: 0.8"/>
      </g>
     </g>
     <g id="text_3">
      <!-- 0.4 -->
      <g transform="translate(278.493892 318.978437)scale(0.1 -0.1)">
       <defs>
        <path id="DejaVuSans-34" d="M 2419 4116 
L 825 1625 
L 2419 1625 
L 2419 4116 
z
M 2253 4666 
L 3047 4666 
L 3047 1625 
L 3713 1625 
L 3713 1100 
L 3047 1100 
L 3047 0 
L 2419 0 
L 2419 1100 
L 313 1100 
L 313 1709 
L 2253 4666 
z
" transform="scale(0.015625)"/>
       </defs>
       <use xlink:href="#DejaVuSans-30"/>
       <use xlink:href="#DejaVuSans-2e" x="63.623047"/>
       <use xlink:href="#DejaVuSans-34" x="95.410156"/>
      </g>
     </g>
    </g>
    <g id="xtick_4">
     <g id="line2d_7">
      <path d="M 377.754545 304.38 
L 377.754545 41.04 
" clip-path="url(#p21c48704fd)" style="fill: none; stroke: #e6e6e6; stroke-width: 0.8; stroke-linecap: square"/>
     </g>
     <g id="line2d_8">
      <g>
       <use xlink:href="#maa3e0adc33" x="377.754545" y="304.38" style="stroke: #000000; stroke-width: 0.8"/>
      </g>
     </g>
     <g id="text_4">
      <!-- 0.6 -->
      <g transform="translate(369.802983 318.978437)scale(0.1 -0.1)">
       <defs>
        <path id="DejaVuSans-36" d="M 2113 2584 
Q 1688 2584 1439 2293 
Q 1191 2003 1191 1497 
Q 1191 994 1439 701 
Q 1688 409 2113 409 
Q 2538 409 2786 701 
Q 3034 994 3034 1497 
Q 3034 2003 2786 2293 
Q 2538 2584 2113 2584 
z
M 3366 4563 
L 3366 3988 
Q 3128 4100 2886 4159 
Q 2644 4219 2406 4219 
Q 1781 4219 1451 3797 
Q 1122 3375 1075 2522 
Q 1259 2794 1537 2939 
Q 1816 3084 2150 3084 
Q 2853 3084 3261 2657 
Q 3669 2231 3669 1497 
Q 3669 778 3244 343 
Q 2819 -91 2113 -91 
Q 1303 -91 875 529 
Q 447 1150 447 2328 
Q 447 3434 972 4092 
Q 1497 4750 2381 4750 
Q 2619 4750 2861 4703 
Q 3103 4656 3366 4563 
z
" transform="scale(0.015625)"/>
       </defs>
       <use xlink:href="#DejaVuSans-30"/>
       <use xlink:href="#DejaVuSans-2e" x="63.623047"/>
       <use xlink:href="#DejaVuSans-36" x="95.410156"/>
      </g>
     </g>
    </g>
    <g id="xtick_5">
     <g id="line2d_9">
      <path d="M 469.063636 304.38 
L 469.063636 41.04 
" clip-path="url(#p21c48704fd)" style="fill: none; stroke: #e6e6e6; stroke-width: 0.8; stroke-linecap: square"/>
     </g>
     <g id="line2d_10">
      <g>
       <use xlink:href="#maa3e0adc33" x="469.063636" y="304.38" style="stroke: #000000; stroke-width: 0.8"/>
      </g>
     </g>
     <g id="text_5">
      <!-- 0.8 -->
      <g transform="translate(461.112074 318.978437)scale(0.1 -0.1)">
       <defs>
        <path id="DejaVuSans-38" d="M 2034 2216 
Q 1584 2216 1326 1975 
Q 1069 1734 1069 1313 
Q 1069 891 1326 650 
Q 1584 409 2034 409 
Q 2484 409 2743 651 
Q 3003 894 3003 1313 
Q 3003 1734 2745 1975 
Q 2488 2216 2034 2216 
z
M 1403 2484 
Q 997 2584 770 2862 
Q 544 3141 544 3541 
Q 544 4100 942 4425 
Q 1341 4750 2034 4750 
Q 2731 4750 3128 4425 
Q 3525 4100 3525 3541 
Q 3525 3141 3298 2862 
Q 3072 2584 2669 2484 
Q 3125 2378 3379 2068 
Q 3634 1759 3634 1313 
Q 3634 634 3220 271 
Q 2806 -91 2034 -91 
Q 1263 -91 848 271 
Q 434 634 434 1313 
Q 434 1759 690 2068 
Q 947 2378 1403 2484 
z
M 1172 3481 
Q 1172 3119 1398 2916 
Q 1625 2713 2034 2713 
Q 2441 2713 2670 2916 
Q 2900 3119 2900 3481 
Q 2900 3844 2670 4047 
Q 2441 4250 2034 4250 
Q 1625 4250 1398 4047 
Q 1172 3844 1172 3481 
z
" transform="scale(0.015625)"/>
       </defs>
       <use xlink:href="#DejaVuSans-30"/>
       <use xlink:href="#DejaVuSans-2e" x="63.623047"/>
       <use xlink:href="#DejaVuSans-38" x="95.410156"/>
      </g>
     </g>
    </g>
    <g id="xtick_6">
     <g id="line2d_11">
      <path d="M 560.372727 304.38 
L 560.372727 41.04 
" clip-path="url(#p21c48704fd)" style="fill: none; stroke: #e6e6e6; stroke-width: 0.8; stroke-linecap: square"/>
     </g>
     <g id="line2d_12">
      <g>
       <use xlink:href="#maa3e0adc33" x="560.372727" y="304.38" style="stroke: #000000; stroke-width: 0.8"/>
      </g>
     </g>
     <g id="text_6">
      <!-- 1.0 -->
      <g transform="translate(552.421165 318.978437)scale(0.1 -0.1)">
       <defs>
        <path id="DejaVuSans-31" d="M 794 531 
L 1825 531 
L 1825 4091 
L 703 3866 
L 703 4441 
L 1819 4666 
L 2450 4666 
L 2450 531 
L 3481 531 
L 3481 0 
L 794 0 
L 794 531 
z
" transform="scale(0.015625)"/>
       </defs>
       <use xlink:href="#DejaVuSans-31"/>
       <use xlink:href="#DejaVuSans-2e" x="63.623047"/>
       <use xlink:href="#DejaVuSans-30" x="95.410156"/>
      </g>
     </g>
    </g>
    <g id="text_7">
     <!-- d + 1/2 -->
     <g transform="translate(313.510938 332.656563)scale(0.1 -0.1)">
      <defs>
       <path id="DejaVuSans-64" d="M 2906 2969 
L 2906 4863 
L 3481 4863 
L 3481 0 
L 2906 0 
L 2906 525 
Q 2725 213 2448 61 
Q 2172 -91 1784 -91 
Q 1150 -91 751 415 
Q 353 922 353 1747 
Q 353 2572 751 3078 
Q 1150 3584 1784 3584 
Q 2172 3584 2448 3432 
Q 2725 3281 2906 2969 
z
M 947 1747 
Q 947 1113 1208 752 
Q 1469 391 1925 391 
Q 2381 391 2643 752 
Q 2906 1113 2906 1747 
Q 2906 2381 2643 2742 
Q 2381 3103 1925 3103 
Q 1469 3103 1208 2742 
Q 947 2381 947 1747 
z
" transform="scale(0.015625)"/>
       <path id="DejaVuSans-20" transform="scale(0.015625)"/>
       <path id="DejaVuSans-2b" d="M 2944 4013 
L 2944 2272 
L 4684 2272 
L 4684 1741 
L 2944 1741 
L 2944 0 
L 2419 0 
L 2419 1741 
L 678 1741 
L 678 2272 
L 2419 2272 
L 2419 4013 
L 2944 4013 
z
" transform="scale(0.015625)"/>
       <path id="DejaVuSans-2f" d="M 1625 4666 
L 2156 4666 
L 531 -594 
L 0 -594 
L 1625 4666 
z
" transform="scale(0.015625)"/>
      </defs>
      <use xlink:href="#DejaVuSans-64"/>
      <use xlink:href="#DejaVuSans-20" x="63.476562"/>
      <use xlink:href="#DejaVuSans-2b" x="95.263672"/>
      <use xlink:href="#DejaVuSans-20" x="179.052734"/>
      <use xlink:href="#DejaVuSans-31" x="210.839844"/>
      <use xlink:href="#DejaVuSans-2f" x="274.462891"/>
      <use xlink:href="#DejaVuSans-32" x="308.154297"/>
     </g>
    </g>
   </g>
   <g id="matplotlib.axis_2">
    <g id="ytick_1">
     <g id="line2d_13">
      <path d="M 81 290.135699 
L 583.2 290.135699 
" clip-path="url(#p21c48704fd)" style="fill: none; stroke: #e6e6e6; stroke-width: 0.8; stroke-linecap: square"/>
     </g>
     <g id="line2d_14">
      <defs>
       <path id="mdf5e877bb8" d="M 0 0 
L -3.5 0 
" style="stroke: #000000; stroke-width: 0.8"/>
      </defs>
      <g>
       <use xlink:href="#mdf5e877bb8" x="81" y="290.135699" style="stroke: #000000; stroke-width: 0.8"/>
      </g>
     </g>
     <g id="text_8">
      <!-- 0.005 -->
      <g transform="translate(45.371875 293.934918)scale(0.1 -0.1)">
       <defs>
        <path id="DejaVuSans-35" d="M 691 4666 
L 3169 4666 
L 3169 4134 
L 1269 4134 
L 1269 2991 
Q 1406 3038 1543 3061 
Q 1681 3084 1819 3084 
Q 2600 3084 3056 2656 
Q 3513 2228 3513 1497 
Q 3513 744 3044 326 
Q 2575 -91 1722 -91 
Q 1428 -91 1123 -41 
Q 819 9 494 109 
L 494 744 
Q 775 591 1075 516 
Q 1375 441 1709 441 
Q 2250 441 2565 725 
Q 2881 1009 2881 1497 
Q 2881 1984 2565 2268 
Q 2250 2553 1709 2553 
Q 1456 2553 1204 2497 
Q 953 2441 691 2322 
L 691 4666 
z
" transform="scale(0.015625)"/>
       </defs>
       <use xlink:href="#DejaVuSans-30"/>
       <use xlink:href="#DejaVuSans-2e" x="63.623047"/>
       <use xlink:href="#DejaVuSans-30" x="95.410156"/>
       <use xlink:href="#DejaVuSans-30" x="159.033203"/>
       <use xlink:href="#DejaVuSans-35" x="222.65625"/>
      </g>
     </g>
    </g>
    <g id="ytick_2">
     <g id="line2d_15">
      <path d="M 81 249.40807 
L 583.2 249.40807 
" clip-path="url(#p21c48704fd)" style="fill: none; stroke: #e6e6e6; stroke-width: 0.8; stroke-linecap: square"/>
     </g>
     <g id="line2d_16">
      <g>
       <use xlink:href="#mdf5e877bb8" x="81" y="249.40807" style="stroke: #000000; stroke-width: 0.8"/>
      </g>
     </g>
     <g id="text_9">
      <!-- 0.010 -->
      <g transform="translate(45.371875 253.207288)scale(0.1 -0.1)">
       <use xlink:href="#DejaVuSans-30"/>
       <use xlink:href="#DejaVuSans-2e" x="63.623047"/>
       <use xlink:href="#DejaVuSans-30" x="95.410156"/>
       <use xlink:href="#DejaVuSans-31" x="159.033203"/>
       <use xlink:href="#DejaVuSans-30" x="222.65625"/>
      </g>
     </g>
    </g>
    <g id="ytick_3">
     <g id="line2d_17">
      <path d="M 81 208.68044 
L 583.2 208.68044 
" clip-path="url(#p21c48704fd)" style="fill: none; stroke: #e6e6e6; stroke-width: 0.8; stroke-linecap: square"/>
     </g>
     <g id="line2d_18">
      <g>
       <use xlink:href="#mdf5e877bb8" x="81" y="208.68044" style="stroke: #000000; stroke-width: 0.8"/>
      </g>
     </g>
     <g id="text_10">
      <!-- 0.015 -->
      <g transform="translate(45.371875 212.479659)scale(0.1 -0.1)">
       <use xlink:href="#DejaVuSans-30"/>
       <use xlink:href="#DejaVuSans-2e" x="63.623047"/>
       <use xlink:href="#DejaVuSans-30" x="95.410156"/>
       <use xlink:href="#DejaVuSans-31" x="159.033203"/>
       <use xlink:href="#DejaVuSans-35" x="222.65625"/>
      </g>
     </g>
    </g>
    <g id="ytick_4">
     <g id="line2d_19">
      <path d="M 81 167.952811 
L 583.2 167.952811 
" clip-path="url(#p21c48704fd)" style="fill: none; stroke: #e6e6e6; stroke-width: 0.8; stroke-linecap: square"/>
     </g>
     <g id="line2d_20">
      <g>
       <use xlink:href="#mdf5e877bb8" x="81" y="167.952811" style="stroke: #000000; stroke-width: 0.8"/>
      </g>
     </g>
     <g id="text_11">
      <!-- 0.020 -->
      <g transform="translate(45.371875 171.752029)scale(0.1 -0.1)">
       <use xlink:href="#DejaVuSans-30"/>
       <use xlink:href="#DejaVuSans-2e" x="63.623047"/>
       <use xlink:href="#DejaVuSans-30" x="95.410156"/>
       <use xlink:href="#DejaVuSans-32" x="159.033203"/>
       <use xlink:href="#DejaVuSans-30" x="222.65625"/>
      </g>
     </g>
    </g>
    <g id="ytick_5">
     <g id="line2d_21">
      <path d="M 81 127.225181 
L 583.2 127.225181 
" clip-path="url(#p21c48704fd)" style="fill: none; stroke: #e6e6e6; stroke-width: 0.8; stroke-linecap: square"/>
     </g>
     <g id="line2d_22">
      <g>
       <use xlink:href="#mdf5e877bb8" x="81" y="127.225181" style="stroke: #000000; stroke-width: 0.8"/>
      </g>
     </g>
     <g id="text_12">
      <!-- 0.025 -->
      <g transform="translate(45.371875 131.0244)scale(0.1 -0.1)">
       <use xlink:href="#DejaVuSans-30"/>
       <use xlink:href="#DejaVuSans-2e" x="63.623047"/>
       <use xlink:href="#DejaVuSans-30" x="95.410156"/>
       <use xlink:href="#DejaVuSans-32" x="159.033203"/>
       <use xlink:href="#DejaVuSans-35" x="222.65625"/>
      </g>
     </g>
    </g>
    <g id="ytick_6">
     <g id="line2d_23">
      <path d="M 81 86.497551 
L 583.2 86.497551 
" clip-path="url(#p21c48704fd)" style="fill: none; stroke: #e6e6e6; stroke-width: 0.8; stroke-linecap: square"/>
     </g>
     <g id="line2d_24">
      <g>
       <use xlink:href="#mdf5e877bb8" x="81" y="86.497551" style="stroke: #000000; stroke-width: 0.8"/>
      </g>
     </g>
     <g id="text_13">
      <!-- 0.030 -->
      <g transform="translate(45.371875 90.29677)scale(0.1 -0.1)">
       <defs>
        <path id="DejaVuSans-33" d="M 2597 2516 
Q 3050 2419 3304 2112 
Q 3559 1806 3559 1356 
Q 3559 666 3084 287 
Q 2609 -91 1734 -91 
Q 1441 -91 1130 -33 
Q 819 25 488 141 
L 488 750 
Q 750 597 1062 519 
Q 1375 441 1716 441 
Q 2309 441 2620 675 
Q 2931 909 2931 1356 
Q 2931 1769 2642 2001 
Q 2353 2234 1838 2234 
L 1294 2234 
L 1294 2753 
L 1863 2753 
Q 2328 2753 2575 2939 
Q 2822 3125 2822 3475 
Q 2822 3834 2567 4026 
Q 2313 4219 1838 4219 
Q 1578 4219 1281 4162 
Q 984 4106 628 3988 
L 628 4550 
Q 988 4650 1302 4700 
Q 1616 4750 1894 4750 
Q 2613 4750 3031 4423 
Q 3450 4097 3450 3541 
Q 3450 3153 3228 2886 
Q 3006 2619 2597 2516 
z
" transform="scale(0.015625)"/>
       </defs>
       <use xlink:href="#DejaVuSans-30"/>
       <use xlink:href="#DejaVuSans-2e" x="63.623047"/>
       <use xlink:href="#DejaVuSans-30" x="95.410156"/>
       <use xlink:href="#DejaVuSans-33" x="159.033203"/>
       <use xlink:href="#DejaVuSans-30" x="222.65625"/>
      </g>
     </g>
    </g>
    <g id="ytick_7">
     <g id="line2d_25">
      <path d="M 81 45.769922 
L 583.2 45.769922 
" clip-path="url(#p21c48704fd)" style="fill: none; stroke: #e6e6e6; stroke-width: 0.8; stroke-linecap: square"/>
     </g>
     <g id="line2d_26">
      <g>
       <use xlink:href="#mdf5e877bb8" x="81" y="45.769922" style="stroke: #000000; stroke-width: 0.8"/>
      </g>
     </g>
     <g id="text_14">
      <!-- 0.035 -->
      <g transform="translate(45.371875 49.56914)scale(0.1 -0.1)">
       <use xlink:href="#DejaVuSans-30"/>
       <use xlink:href="#DejaVuSans-2e" x="63.623047"/>
       <use xlink:href="#DejaVuSans-30" x="95.410156"/>
       <use xlink:href="#DejaVuSans-33" x="159.033203"/>
       <use xlink:href="#DejaVuSans-35" x="222.65625"/>
      </g>
     </g>
    </g>
    <g id="text_15">
     <!-- deviation -->
     <g transform="translate(39.292187 195.950625)rotate(-90)scale(0.1 -0.1)">
      <defs>
       <path id="DejaVuSans-65" d="M 3597 1894 
L 3597 1613 
L 953 1613 
Q 991 1019 1311 708 
Q 1631 397 2203 397 
Q 2534 397 2845 478 
Q 3156 559 3463 722 
L 3463 178 
Q 3153 47 2828 -22 
Q 2503 -91 2169 -91 
Q 1331 -91 842 396 
Q 353 884 353 1716 
Q 353 2575 817 3079 
Q 1281 3584 2069 3584 
Q 2775 3584 3186 3129 
Q 3597 2675 3597 1894 
z
M 3022 2063 
Q 3016 2534 2758 2815 
Q 2500 3097 2075 3097 
Q 1594 3097 1305 2825 
Q 1016 2553 972 2059 
L 3022 2063 
z
" transform="scale(0.015625)"/>
       <path id="DejaVuSans-76" d="M 191 3500 
L 800 3500 
L 1894 563 
L 2988 3500 
L 3597 3500 
L 2284 0 
L 1503 0 
L 191 3500 
z
" transform="scale(0.015625)"/>
       <path id="DejaVuSans-69" d="M 603 3500 
L 1178 3500 
L 1178 0 
L 603 0 
L 603 3500 
z
M 603 4863 
L 1178 4863 
L 1178 4134 
L 603 4134 
L 603 4863 
z
" transform="scale(0.015625)"/>
       <path id="DejaVuSans-61" d="M 2194 1759 
Q 1497 1759 1228 1600 
Q 959 1441 959 1056 
Q 959 750 1161 570 
Q 1363 391 1709 391 
Q 2188 391 2477 730 
Q 2766 1069 2766 1631 
L 2766 1759 
L 2194 1759 
z
M 3341 1997 
L 3341 0 
L 2766 0 
L 2766 531 
Q 2569 213 2275 61 
Q 1981 -91 1556 -91 
Q 1019 -91 701 211 
Q 384 513 384 1019 
Q 384 1609 779 1909 
Q 1175 2209 1959 2209 
L 2766 2209 
L 2766 2266 
Q 2766 2663 2505 2880 
Q 2244 3097 1772 3097 
Q 1472 3097 1187 3025 
Q 903 2953 641 2809 
L 641 3341 
Q 956 3463 1253 3523 
Q 1550 3584 1831 3584 
Q 2591 3584 2966 3190 
Q 3341 2797 3341 1997 
z
" transform="scale(0.015625)"/>
       <path id="DejaVuSans-74" d="M 1172 4494 
L 1172 3500 
L 2356 3500 
L 2356 3053 
L 1172 3053 
L 1172 1153 
Q 1172 725 1289 603 
Q 1406 481 1766 481 
L 2356 481 
L 2356 0 
L 1766 0 
Q 1100 0 847 248 
Q 594 497 594 1153 
L 594 3053 
L 172 3053 
L 172 3500 
L 594 3500 
L 594 4494 
L 1172 4494 
z
" transform="scale(0.015625)"/>
       <path id="DejaVuSans-6f" d="M 1959 3097 
Q 1497 3097 1228 2736 
Q 959 2375 959 1747 
Q 959 1119 1226 758 
Q 1494 397 1959 397 
Q 2419 397 2687 759 
Q 2956 1122 2956 1747 
Q 2956 2369 2687 2733 
Q 2419 3097 1959 3097 
z
M 1959 3584 
Q 2709 3584 3137 3096 
Q 3566 2609 3566 1747 
Q 3566 888 3137 398 
Q 2709 -91 1959 -91 
Q 1206 -91 779 398 
Q 353 888 353 1747 
Q 353 2609 779 3096 
Q 1206 3584 1959 3584 
z
" transform="scale(0.015625)"/>
       <path id="DejaVuSans-6e" d="M 3513 2113 
L 3513 0 
L 2938 0 
L 2938 2094 
Q 2938 2591 2744 2837 
Q 2550 3084 2163 3084 
Q 1697 3084 1428 2787 
Q 1159 2491 1159 1978 
L 1159 0 
L 581 0 
L 581 3500 
L 1159 3500 
L 1159 2956 
Q 1366 3272 1645 3428 
Q 1925 3584 2291 3584 
Q 2894 3584 3203 3211 
Q 3513 2838 3513 2113 
z
" transform="scale(0.015625)"/>
      </defs>
      <use xlink:href="#DejaVuSans-64"/>
      <use xlink:href="#DejaVuSans-65" x="63.476562"/>
      <use xlink:href="#DejaVuSans-76" x="125"/>
      <use xlink:href="#DejaVuSans-69" x="184.179688"/>
      <use xlink:href="#DejaVuSans-61" x="211.962891"/>
      <use xlink:href="#DejaVuSans-74" x="273.242188"/>
      <use xlink:href="#DejaVuSans-69" x="312.451172"/>
      <use xlink:href="#DejaVuSans-6f" x="340.234375"/>
      <use xlink:href="#DejaVuSans-6e" x="401.416016"/>
     </g>
    </g>
   </g>
   <g id="patch_3">
    <path d="M 81 304.38 
L 81 41.04 
" style="fill: none; stroke: #000000; stroke-width: 0.8; stroke-linejoin: miter; stroke-linecap: square"/>
   </g>
   <g id="patch_4">
    <path d="M 583.2 304.38 
L 583.2 41.04 
" style="fill: none; stroke: #e6e6e6; stroke-width: 0.8; stroke-linejoin: miter; stroke-linecap: square"/>
   </g>
   <g id="patch_5">
    <path d="M 81 304.38 
L 583.2 304.38 
" style="fill: none; stroke: #000000; stroke-width: 0.8; stroke-linejoin: miter; stroke-linecap: square"/>
   </g>
   <g id="patch_6">
    <path d="M 81 41.04 
L 583.2 41.04 
" style="fill: none; stroke: #e6e6e6; stroke-width: 0.8; stroke-linejoin: miter; stroke-linecap: square"/>
   </g>
   <g id="text_16">
    <!-- Deviations (steps: 250, interval:+-0.02) -->
    <g transform="translate(212.939063 35.04)scale(0.12 -0.12)">
     <defs>
      <path id="DejaVuSans-44" d="M 1259 4147 
L 1259 519 
L 2022 519 
Q 2988 519 3436 956 
Q 3884 1394 3884 2338 
Q 3884 3275 3436 3711 
Q 2988 4147 2022 4147 
L 1259 4147 
z
M 628 4666 
L 1925 4666 
Q 3281 4666 3915 4102 
Q 4550 3538 4550 2338 
Q 4550 1131 3912 565 
Q 3275 0 1925 0 
L 628 0 
L 628 4666 
z
" transform="scale(0.015625)"/>
      <path id="DejaVuSans-73" d="M 2834 3397 
L 2834 2853 
Q 2591 2978 2328 3040 
Q 2066 3103 1784 3103 
Q 1356 3103 1142 2972 
Q 928 2841 928 2578 
Q 928 2378 1081 2264 
Q 1234 2150 1697 2047 
L 1894 2003 
Q 2506 1872 2764 1633 
Q 3022 1394 3022 966 
Q 3022 478 2636 193 
Q 2250 -91 1575 -91 
Q 1294 -91 989 -36 
Q 684 19 347 128 
L 347 722 
Q 666 556 975 473 
Q 1284 391 1588 391 
Q 1994 391 2212 530 
Q 2431 669 2431 922 
Q 2431 1156 2273 1281 
Q 2116 1406 1581 1522 
L 1381 1569 
Q 847 1681 609 1914 
Q 372 2147 372 2553 
Q 372 3047 722 3315 
Q 1072 3584 1716 3584 
Q 2034 3584 2315 3537 
Q 2597 3491 2834 3397 
z
" transform="scale(0.015625)"/>
      <path id="DejaVuSans-28" d="M 1984 4856 
Q 1566 4138 1362 3434 
Q 1159 2731 1159 2009 
Q 1159 1288 1364 580 
Q 1569 -128 1984 -844 
L 1484 -844 
Q 1016 -109 783 600 
Q 550 1309 550 2009 
Q 550 2706 781 3412 
Q 1013 4119 1484 4856 
L 1984 4856 
z
" transform="scale(0.015625)"/>
      <path id="DejaVuSans-70" d="M 1159 525 
L 1159 -1331 
L 581 -1331 
L 581 3500 
L 1159 3500 
L 1159 2969 
Q 1341 3281 1617 3432 
Q 1894 3584 2278 3584 
Q 2916 3584 3314 3078 
Q 3713 2572 3713 1747 
Q 3713 922 3314 415 
Q 2916 -91 2278 -91 
Q 1894 -91 1617 61 
Q 1341 213 1159 525 
z
M 3116 1747 
Q 3116 2381 2855 2742 
Q 2594 3103 2138 3103 
Q 1681 3103 1420 2742 
Q 1159 2381 1159 1747 
Q 1159 1113 1420 752 
Q 1681 391 2138 391 
Q 2594 391 2855 752 
Q 3116 1113 3116 1747 
z
" transform="scale(0.015625)"/>
      <path id="DejaVuSans-3a" d="M 750 794 
L 1409 794 
L 1409 0 
L 750 0 
L 750 794 
z
M 750 3309 
L 1409 3309 
L 1409 2516 
L 750 2516 
L 750 3309 
z
" transform="scale(0.015625)"/>
      <path id="DejaVuSans-2c" d="M 750 794 
L 1409 794 
L 1409 256 
L 897 -744 
L 494 -744 
L 750 256 
L 750 794 
z
" transform="scale(0.015625)"/>
      <path id="DejaVuSans-72" d="M 2631 2963 
Q 2534 3019 2420 3045 
Q 2306 3072 2169 3072 
Q 1681 3072 1420 2755 
Q 1159 2438 1159 1844 
L 1159 0 
L 581 0 
L 581 3500 
L 1159 3500 
L 1159 2956 
Q 1341 3275 1631 3429 
Q 1922 3584 2338 3584 
Q 2397 3584 2469 3576 
Q 2541 3569 2628 3553 
L 2631 2963 
z
" transform="scale(0.015625)"/>
      <path id="DejaVuSans-6c" d="M 603 4863 
L 1178 4863 
L 1178 0 
L 603 0 
L 603 4863 
z
" transform="scale(0.015625)"/>
      <path id="DejaVuSans-2d" d="M 313 2009 
L 1997 2009 
L 1997 1497 
L 313 1497 
L 313 2009 
z
" transform="scale(0.015625)"/>
      <path id="DejaVuSans-29" d="M 513 4856 
L 1013 4856 
Q 1481 4119 1714 3412 
Q 1947 2706 1947 2009 
Q 1947 1309 1714 600 
Q 1481 -109 1013 -844 
L 513 -844 
Q 928 -128 1133 580 
Q 1338 1288 1338 2009 
Q 1338 2731 1133 3434 
Q 928 4138 513 4856 
z
" transform="scale(0.015625)"/>
     </defs>
     <use xlink:href="#DejaVuSans-44"/>
     <use xlink:href="#DejaVuSans-65" x="77.001953"/>
     <use xlink:href="#DejaVuSans-76" x="138.525391"/>
     <use xlink:href="#DejaVuSans-69" x="197.705078"/>
     <use xlink:href="#DejaVuSans-61" x="225.488281"/>
     <use xlink:href="#DejaVuSans-74" x="286.767578"/>
     <use xlink:href="#DejaVuSans-69" x="325.976562"/>
     <use xlink:href="#DejaVuSans-6f" x="353.759766"/>
     <use xlink:href="#DejaVuSans-6e" x="414.941406"/>
     <use xlink:href="#DejaVuSans-73" x="478.320312"/>
     <use xlink:href="#DejaVuSans-20" x="530.419922"/>
     <use xlink:href="#DejaVuSans-28" x="562.207031"/>
     <use xlink:href="#DejaVuSans-73" x="601.220703"/>
     <use xlink:href="#DejaVuSans-74" x="653.320312"/>
     <use xlink:href="#DejaVuSans-65" x="692.529297"/>
     <use xlink:href="#DejaVuSans-70" x="754.052734"/>
     <use xlink:href="#DejaVuSans-73" x="817.529297"/>
     <use xlink:href="#DejaVuSans-3a" x="869.628906"/>
     <use xlink:href="#DejaVuSans-20" x="903.320312"/>
     <use xlink:href="#DejaVuSans-32" x="935.107422"/>
     <use xlink:href="#DejaVuSans-35" x="998.730469"/>
     <use xlink:href="#DejaVuSans-30" x="1062.353516"/>
     <use xlink:href="#DejaVuSans-2c" x="1125.976562"/>
     <use xlink:href="#DejaVuSans-20" x="1157.763672"/>
     <use xlink:href="#DejaVuSans-69" x="1189.550781"/>
     <use xlink:href="#DejaVuSans-6e" x="1217.333984"/>
     <use xlink:href="#DejaVuSans-74" x="1280.712891"/>
     <use xlink:href="#DejaVuSans-65" x="1319.921875"/>
     <use xlink:href="#DejaVuSans-72" x="1381.445312"/>
     <use xlink:href="#DejaVuSans-76" x="1422.558594"/>
     <use xlink:href="#DejaVuSans-61" x="1481.738281"/>
     <use xlink:href="#DejaVuSans-6c" x="1543.017578"/>
     <use xlink:href="#DejaVuSans-3a" x="1570.800781"/>
     <use xlink:href="#DejaVuSans-2b" x="1604.492188"/>
     <use xlink:href="#DejaVuSans-2d" x="1688.28125"/>
     <use xlink:href="#DejaVuSans-30" x="1724.365234"/>
     <use xlink:href="#DejaVuSans-2e" x="1787.988281"/>
     <use xlink:href="#DejaVuSans-30" x="1819.775391"/>
     <use xlink:href="#DejaVuSans-32" x="1883.398438"/>
     <use xlink:href="#DejaVuSans-29" x="1947.021484"/>
    </g>
   </g>
   <g id="line2d_27">
    <path d="M 103.827273 251.605815 
L 105.660789 250.374888 
L 107.494304 247.350472 
L 109.32782 243.977435 
L 111.161336 238.850713 
L 112.994852 236.306005 
L 114.828368 234.218924 
L 116.661884 234.761478 
L 118.4954 232.090189 
L 120.328916 233.026927 
L 122.162432 232.008412 
L 123.995947 229.925464 
L 125.829463 232.675225 
L 127.662979 231.032932 
L 129.496495 236.421354 
L 131.330011 234.842979 
L 133.163527 235.427769 
L 134.997043 234.279506 
L 136.830559 233.366568 
L 138.664074 231.240356 
L 140.49759 228.064027 
L 142.331106 227.214705 
L 144.164622 226.933971 
L 145.998138 231.499658 
L 147.831654 230.083165 
L 149.66517 231.165259 
L 151.498686 230.450483 
L 153.332202 230.145754 
L 155.165717 229.054598 
L 156.999233 226.8689 
L 158.832749 226.128394 
L 160.666265 222.464006 
L 162.499781 221.99749 
L 164.333297 223.475166 
L 166.166813 224.378369 
L 168.000329 220.637207 
L 169.833844 222.029903 
L 171.66736 220.588078 
L 173.500876 222.385695 
L 175.334392 220.289945 
L 177.167908 220.697905 
L 179.001424 221.557469 
L 180.83494 221.81484 
L 182.668456 223.66555 
L 184.501972 219.604337 
L 186.335487 217.260716 
L 188.169003 217.68683 
L 190.002519 214.445449 
L 191.836035 217.178974 
L 193.669551 216.238216 
L 195.503067 214.423691 
L 197.336583 211.837285 
L 199.170099 208.029549 
L 201.003614 208.287278 
L 202.83713 204.721133 
L 204.670646 205.207155 
L 208.337678 196.316128 
L 210.171194 194.98762 
L 212.00471 192.716918 
L 213.838226 194.555183 
L 215.671742 195.750857 
L 217.505257 193.183045 
L 219.338773 192.227795 
L 221.172289 190.878084 
L 223.005805 194.730628 
L 224.839321 193.641279 
L 226.672837 193.439973 
L 228.506353 188.226985 
L 230.339869 187.140531 
L 232.173384 187.419219 
L 234.0069 184.757625 
L 235.840416 187.179481 
L 237.673932 186.053391 
L 239.507448 182.999071 
L 241.340964 182.538506 
L 243.17448 179.936074 
L 245.007996 179.663057 
L 246.841512 182.313636 
L 248.675027 181.019478 
L 250.508543 183.018038 
L 252.342059 182.30972 
L 254.175575 177.406811 
L 256.009091 174.634761 
L 257.842607 172.540273 
L 259.676123 169.209851 
L 261.509639 170.957874 
L 263.343154 172.157151 
L 265.17667 172.463841 
L 267.010186 173.076504 
L 268.843702 170.559591 
L 270.677218 169.942201 
L 272.510734 176.199776 
L 274.34425 174.497427 
L 276.177766 176.27988 
L 278.011281 178.220298 
L 279.844797 176.089427 
L 281.678313 173.776179 
L 283.511829 170.950317 
L 285.345345 168.531633 
L 287.178861 163.339136 
L 289.012377 158.691146 
L 290.845893 154.59517 
L 292.679409 149.712722 
L 294.512924 148.591094 
L 296.34644 145.604101 
L 298.179956 145.839149 
L 300.013472 143.509587 
L 301.846988 138.048433 
L 303.680504 138.359632 
L 305.51402 141.636806 
L 307.347536 139.685221 
L 309.181051 142.176962 
L 311.014567 143.496588 
L 312.848083 142.014887 
L 314.681599 142.055122 
L 316.515115 139.16754 
L 318.348631 132.204092 
L 320.182147 135.156789 
L 322.015663 138.62733 
L 323.849179 131.98248 
L 325.682694 132.591652 
L 327.51621 131.399416 
L 329.349726 125.524051 
L 331.183242 122.708218 
L 333.016758 119.590992 
L 334.850274 123.676758 
L 336.68379 125.223477 
L 338.517306 126.555267 
L 340.350821 122.715052 
L 342.184337 126.877338 
L 344.017853 123.25783 
L 345.851369 120.638955 
L 347.684885 124.119203 
L 349.518401 126.812481 
L 351.351917 125.475592 
L 353.185433 127.617727 
L 355.018949 128.238166 
L 356.852464 123.80363 
L 360.519496 125.595436 
L 362.353012 121.47034 
L 364.186528 120.262535 
L 366.020044 120.721668 
L 367.85356 110.572546 
L 369.687076 110.056163 
L 371.520591 104.266935 
L 373.354107 101.569258 
L 375.187623 95.289175 
L 377.021139 90.946408 
L 378.854655 87.366275 
L 380.688171 93.37627 
L 382.521687 90.415731 
L 384.355203 90.796214 
L 386.188719 92.454548 
L 388.022234 92.497582 
L 389.85575 91.164232 
L 391.689266 92.292939 
L 393.522782 96.090789 
L 395.356298 99.23212 
L 397.189814 100.623921 
L 399.02333 96.525278 
L 400.856846 91.261588 
L 402.690361 91.415098 
L 404.523877 96.181371 
L 406.357393 99.768387 
L 408.190909 102.960746 
L 410.024425 106.599302 
L 411.857941 102.630025 
L 413.691457 104.596331 
L 415.524973 104.95103 
L 417.358488 104.875491 
L 419.192004 110.49244 
L 421.02552 101.168644 
L 422.859036 96.817151 
L 424.692552 91.895774 
L 426.526068 88.063113 
L 428.359584 75.47468 
L 430.1931 73.512443 
L 432.026616 67.057264 
L 433.860131 63.267188 
L 435.693647 60.33999 
L 437.527163 55.525548 
L 439.360679 62.993363 
L 441.194195 63.336323 
L 443.027711 67.932517 
L 444.861227 67.444307 
L 446.694743 76.344107 
L 450.361774 79.359918 
L 452.19529 76.923771 
L 454.028806 83.213785 
L 457.695838 78.003191 
L 459.529354 80.873019 
L 461.36287 74.364087 
L 463.196386 77.870826 
L 465.029901 78.973686 
L 466.863417 77.399328 
L 468.696933 77.100862 
L 470.530449 76.91515 
L 472.363965 74.121748 
L 474.197481 74.862666 
L 476.030997 77.876744 
L 477.864513 77.092676 
L 479.698028 79.472275 
L 481.531544 73.480785 
L 483.36506 64.658937 
L 485.198576 66.774439 
L 487.032092 68.321598 
L 488.865608 64.304194 
L 490.699124 63.764488 
L 492.53264 62.102819 
L 494.366156 61.746715 
L 496.199671 59.292598 
L 498.033187 58.619611 
L 499.866703 58.133041 
L 501.700219 63.814246 
L 503.533735 59.324577 
L 505.367251 53.048381 
L 507.200767 59.986994 
L 509.034283 57.986376 
L 510.867798 59.337558 
L 512.701314 58.900884 
L 514.53483 58.627517 
L 516.368346 62.272834 
L 518.201862 63.646285 
L 520.035378 66.242425 
L 521.868894 67.210326 
L 523.70241 69.763876 
L 525.535926 62.985999 
L 527.369441 64.408217 
L 529.202957 67.126187 
L 531.036473 67.844626 
L 532.869989 68.260797 
L 534.703505 70.104139 
L 538.370537 58.228721 
L 540.204053 53.904792 
L 542.037568 55.87714 
L 543.871084 56.995176 
L 545.7046 56.401022 
L 547.538116 59.172593 
L 549.371632 53.01 
L 551.205148 61.034165 
L 553.038664 61.364837 
L 554.87218 63.301205 
L 556.705696 61.429731 
L 558.539211 65.272775 
L 560.372727 57.818855 
L 560.372727 57.818855 
" clip-path="url(#p21c48704fd)" style="fill: none; stroke-dasharray: 1.5,2.475; stroke-dashoffset: 0; stroke: #ff0000; stroke-width: 1.5"/>
   </g>
   <g id="line2d_28">
    <path d="M 103.827273 259.153107 
L 105.660789 257.755885 
L 107.494304 252.432667 
L 111.161336 246.060577 
L 112.994852 244.358121 
L 114.828368 243.654985 
L 116.661884 239.821359 
L 118.4954 241.622918 
L 120.328916 240.054792 
L 122.162432 239.093506 
L 123.995947 239.729496 
L 125.829463 240.658616 
L 127.662979 242.864301 
L 131.330011 242.982422 
L 133.163527 245.433013 
L 134.997043 245.098705 
L 136.830559 249.188246 
L 138.664074 248.637113 
L 140.49759 246.290544 
L 142.331106 244.373794 
L 147.831654 241.05293 
L 149.66517 241.38925 
L 151.498686 241.944415 
L 153.332202 244.692616 
L 155.165717 245.827613 
L 156.999233 244.198635 
L 158.832749 244.813761 
L 160.666265 245.734982 
L 162.499781 245.999393 
L 164.333297 242.733344 
L 166.166813 243.795816 
L 168.000329 240.759413 
L 171.66736 241.927725 
L 173.500876 246.551685 
L 175.334392 249.665097 
L 177.167908 249.069696 
L 179.001424 250.785201 
L 180.83494 250.486075 
L 182.668456 249.375127 
L 184.501972 250.178566 
L 186.335487 251.367398 
L 188.169003 249.63712 
L 190.002519 248.851468 
L 191.836035 250.525934 
L 195.503067 247.28183 
L 197.336583 249.189977 
L 199.170099 250.541436 
L 201.003614 251.234573 
L 202.83713 252.970968 
L 204.670646 252.898927 
L 206.504162 252.010944 
L 208.337678 248.499653 
L 210.171194 245.823259 
L 212.00471 246.492188 
L 213.838226 243.654957 
L 215.671742 244.766169 
L 217.505257 245.73203 
L 219.338773 249.609728 
L 221.172289 248.680402 
L 223.005805 252.418708 
L 226.672837 255.106608 
L 228.506353 254.737226 
L 230.339869 256.348887 
L 232.173384 253.732687 
L 234.0069 253.011127 
L 235.840416 254.270445 
L 237.673932 255.275768 
L 239.507448 256.799416 
L 241.340964 255.146045 
L 245.007996 250.472508 
L 246.841512 251.580511 
L 248.675027 254.580837 
L 250.508543 254.389914 
L 252.342059 254.910839 
L 254.175575 256.97067 
L 256.009091 257.542245 
L 257.842607 257.706968 
L 259.676123 256.8964 
L 261.509639 256.677062 
L 263.343154 257.318959 
L 265.17667 256.688949 
L 267.010186 255.702436 
L 268.843702 254.996813 
L 270.677218 254.920199 
L 272.510734 256.368734 
L 274.34425 257.339248 
L 276.177766 257.936219 
L 278.011281 256.108495 
L 281.678313 260.400801 
L 283.511829 258.974693 
L 285.345345 259.734746 
L 287.178861 259.080577 
L 289.012377 258.631796 
L 290.845893 260.195287 
L 292.679409 258.219313 
L 294.512924 258.775153 
L 296.34644 258.3133 
L 298.179956 256.330705 
L 300.013472 255.739919 
L 301.846988 256.001685 
L 303.680504 255.783058 
L 305.51402 256.275923 
L 307.347536 256.898194 
L 309.181051 256.981331 
L 311.014567 258.950962 
L 312.848083 259.071859 
L 314.681599 258.792464 
L 316.515115 259.201179 
L 318.348631 258.418139 
L 320.182147 259.093557 
L 322.015663 260.720131 
L 323.849179 261.600082 
L 325.682694 261.529546 
L 327.51621 260.184406 
L 329.349726 258.335443 
L 331.183242 258.976772 
L 333.016758 259.213557 
L 334.850274 258.241325 
L 336.68379 259.60392 
L 338.517306 259.40567 
L 340.350821 261.006025 
L 342.184337 260.429382 
L 344.017853 261.045187 
L 345.851369 260.775679 
L 347.684885 259.918048 
L 351.351917 262.966145 
L 353.185433 262.99336 
L 356.852464 260.359799 
L 358.68598 259.033568 
L 360.519496 256.482765 
L 362.353012 253.010735 
L 364.186528 252.577158 
L 366.020044 251.915338 
L 367.85356 250.155795 
L 371.520591 245.907816 
L 373.354107 245.895023 
L 375.187623 245.016042 
L 378.854655 244.749086 
L 380.688171 245.987599 
L 382.521687 244.475152 
L 384.355203 241.064827 
L 386.188719 239.774278 
L 388.022234 239.011794 
L 389.85575 237.270737 
L 393.522782 231.198817 
L 395.356298 228.851422 
L 397.189814 228.846364 
L 399.02333 228.080074 
L 404.523877 226.143938 
L 406.357393 223.946005 
L 408.190909 221.06674 
L 411.857941 218.298801 
L 413.691457 217.181149 
L 415.524973 211.432834 
L 417.358488 210.154169 
L 419.192004 207.742798 
L 421.02552 204.124005 
L 422.859036 202.013005 
L 424.692552 194.997907 
L 426.526068 194.019917 
L 428.359584 193.520529 
L 430.1931 191.639262 
L 432.026616 188.935076 
L 433.860131 186.883656 
L 435.693647 183.333211 
L 437.527163 181.599549 
L 439.360679 183.255343 
L 441.194195 179.122616 
L 443.027711 179.425639 
L 444.861227 177.229561 
L 446.694743 168.721022 
L 448.528258 168.359243 
L 450.361774 167.883007 
L 454.028806 169.610074 
L 455.862322 169.097771 
L 457.695838 164.578984 
L 459.529354 165.220952 
L 463.196386 157.663119 
L 465.029901 156.056204 
L 466.863417 155.689889 
L 468.696933 149.431286 
L 470.530449 147.981402 
L 472.363965 143.877084 
L 474.197481 141.621073 
L 476.030997 144.235959 
L 477.864513 139.492189 
L 479.698028 140.205253 
L 481.531544 138.739895 
L 483.36506 136.693831 
L 485.198576 132.23292 
L 487.032092 130.586766 
L 488.865608 131.421218 
L 490.699124 129.081199 
L 492.53264 125.702866 
L 494.366156 120.377128 
L 496.199671 120.748517 
L 498.033187 121.257608 
L 499.866703 122.684754 
L 501.700219 123.436271 
L 503.533735 123.350228 
L 505.367251 128.567995 
L 507.200767 128.012733 
L 509.034283 132.906027 
L 510.867798 134.078251 
L 512.701314 133.16274 
L 514.53483 133.341644 
L 516.368346 132.191214 
L 518.201862 133.15551 
L 520.035378 134.883906 
L 521.868894 137.464838 
L 523.70241 135.900235 
L 525.535926 129.089061 
L 527.369441 127.537096 
L 529.202957 132.540105 
L 532.869989 140.440061 
L 534.703505 139.703451 
L 536.537021 141.606407 
L 538.370537 145.187104 
L 540.204053 150.157596 
L 542.037568 149.935149 
L 543.871084 157.614652 
L 545.7046 157.267927 
L 547.538116 156.713907 
L 549.371632 157.789105 
L 551.205148 156.561819 
L 553.038664 161.53233 
L 554.87218 161.392178 
L 556.705696 161.576716 
L 558.539211 162.015829 
L 560.372727 165.836118 
L 560.372727 165.836118 
" clip-path="url(#p21c48704fd)" style="fill: none; stroke-dasharray: 9.6,2.4,1.5,2.4; stroke-dashoffset: 0; stroke: #ff0000; stroke-width: 1.5"/>
   </g>
   <g id="line2d_29">
    <path d="M 103.827273 286.253953 
L 105.660789 284.302403 
L 107.494304 282.033724 
L 109.32782 280.608854 
L 112.994852 272.012001 
L 114.828368 270.90778 
L 116.661884 269.503765 
L 118.4954 268.289256 
L 120.328916 266.689138 
L 122.162432 265.346062 
L 123.995947 264.700821 
L 125.829463 270.527511 
L 127.662979 270.081673 
L 129.496495 268.990806 
L 131.330011 269.642314 
L 133.163527 270.578568 
L 134.997043 269.293865 
L 136.830559 269.023473 
L 138.664074 269.638819 
L 140.49759 269.671979 
L 142.331106 267.678932 
L 144.164622 270.087381 
L 145.998138 271.647869 
L 147.831654 271.859522 
L 149.66517 274.436925 
L 151.498686 275.181766 
L 153.332202 275.277814 
L 155.165717 275.641262 
L 156.999233 274.196635 
L 158.832749 274.63118 
L 160.666265 271.880568 
L 162.499781 270.515733 
L 164.333297 268.680651 
L 166.166813 268.029816 
L 168.000329 267.021338 
L 169.833844 265.735602 
L 171.66736 267.118654 
L 173.500876 266.982367 
L 175.334392 267.599287 
L 177.167908 270.56486 
L 179.001424 272.107352 
L 180.83494 271.202128 
L 182.668456 269.040265 
L 184.501972 268.153988 
L 186.335487 269.276314 
L 188.169003 269.702834 
L 190.002519 271.98317 
L 191.836035 271.3049 
L 193.669551 270.44261 
L 195.503067 270.826547 
L 197.336583 271.364034 
L 199.170099 271.626436 
L 201.003614 272.875045 
L 204.670646 271.711249 
L 206.504162 273.728081 
L 208.337678 273.496161 
L 210.171194 274.433093 
L 212.00471 275.667287 
L 213.838226 272.181054 
L 215.671742 272.566007 
L 217.505257 268.85608 
L 219.338773 269.02831 
L 221.172289 268.957595 
L 223.005805 270.103777 
L 224.839321 269.355373 
L 226.672837 272.006402 
L 228.506353 270.927717 
L 230.339869 269.352463 
L 232.173384 267.562359 
L 234.0069 267.349741 
L 235.840416 266.722081 
L 237.673932 268.325309 
L 239.507448 268.300414 
L 241.340964 267.219178 
L 243.17448 267.866077 
L 245.007996 266.793849 
L 246.841512 267.051089 
L 250.508543 266.400081 
L 252.342059 270.408155 
L 254.175575 271.91291 
L 256.009091 272.829507 
L 257.842607 272.740971 
L 259.676123 274.442473 
L 261.509639 273.948746 
L 263.343154 273.177188 
L 265.17667 270.930391 
L 267.010186 269.53769 
L 268.843702 270.121269 
L 270.677218 269.098095 
L 272.510734 271.540282 
L 274.34425 271.975278 
L 276.177766 271.397899 
L 278.011281 272.773389 
L 279.844797 275.162518 
L 281.678313 274.621179 
L 285.345345 274.173965 
L 289.012377 274.1226 
L 290.845893 274.429267 
L 292.679409 274.123862 
L 294.512924 275.658718 
L 296.34644 276.022182 
L 298.179956 273.879825 
L 300.013472 272.643055 
L 301.846988 273.763191 
L 303.680504 273.932223 
L 305.51402 273.721765 
L 307.347536 273.016909 
L 309.181051 271.895325 
L 312.848083 268.506072 
L 316.515115 268.435563 
L 318.348631 269.225159 
L 320.182147 268.738882 
L 322.015663 269.800805 
L 323.849179 270.344043 
L 325.682694 270.068503 
L 327.51621 270.145619 
L 329.349726 270.384159 
L 331.183242 270.00571 
L 333.016758 271.003381 
L 334.850274 270.224389 
L 336.68379 272.01989 
L 338.517306 272.785536 
L 340.350821 273.086075 
L 344.017853 274.627948 
L 345.851369 274.843163 
L 347.684885 274.073039 
L 349.518401 274.120275 
L 351.351917 272.2852 
L 353.185433 273.921536 
L 355.018949 272.880916 
L 356.852464 272.374906 
L 358.68598 271.374552 
L 360.519496 269.964923 
L 362.353012 269.66382 
L 364.186528 269.222943 
L 366.020044 269.588413 
L 367.85356 269.488156 
L 371.520591 268.591768 
L 373.354107 269.806941 
L 377.021139 268.267579 
L 380.688171 271.049509 
L 386.188719 270.926304 
L 388.022234 271.454715 
L 389.85575 267.539467 
L 393.522782 265.026065 
L 395.356298 264.955231 
L 397.189814 263.445003 
L 399.02333 263.027184 
L 400.856846 261.980192 
L 402.690361 262.69578 
L 404.523877 261.304867 
L 406.357393 261.253182 
L 408.190909 262.119948 
L 410.024425 263.703942 
L 411.857941 264.672257 
L 413.691457 264.404068 
L 415.524973 264.836562 
L 417.358488 264.002445 
L 419.192004 265.102002 
L 421.02552 263.300367 
L 422.859036 262.955433 
L 424.692552 261.123158 
L 426.526068 261.103289 
L 428.359584 259.734367 
L 430.1931 258.135956 
L 432.026616 257.2777 
L 433.860131 255.258364 
L 435.693647 254.124239 
L 437.527163 252.194707 
L 439.360679 252.942653 
L 441.194195 253.072073 
L 443.027711 252.253664 
L 444.861227 249.281884 
L 446.694743 245.951329 
L 448.528258 246.224794 
L 450.361774 247.08437 
L 452.19529 245.894253 
L 454.028806 245.323518 
L 455.862322 243.806782 
L 457.695838 241.029845 
L 459.529354 239.687618 
L 461.36287 235.417953 
L 463.196386 234.884598 
L 466.863417 234.760629 
L 468.696933 229.22456 
L 470.530449 228.214303 
L 472.363965 226.233395 
L 474.197481 224.062598 
L 476.030997 225.993572 
L 477.864513 222.124335 
L 479.698028 224.3734 
L 483.36506 218.500323 
L 485.198576 213.395992 
L 487.032092 211.735071 
L 488.865608 211.634492 
L 490.699124 207.731455 
L 492.53264 206.490951 
L 494.366156 202.482607 
L 496.199671 203.146707 
L 498.033187 201.237169 
L 499.866703 201.612909 
L 501.700219 199.802496 
L 503.533735 199.525043 
L 505.367251 201.024087 
L 507.200767 199.473521 
L 509.034283 203.857442 
L 510.867798 202.525266 
L 512.701314 197.956211 
L 514.53483 195.220765 
L 516.368346 194.778041 
L 518.201862 191.77259 
L 520.035378 192.095243 
L 521.868894 191.49791 
L 523.70241 189.734537 
L 525.535926 182.190592 
L 527.369441 177.814841 
L 529.202957 180.801486 
L 531.036473 183.545621 
L 532.869989 187.19258 
L 534.703505 184.937849 
L 538.370537 185.797746 
L 540.204053 187.686822 
L 542.037568 184.669696 
L 543.871084 189.098845 
L 545.7046 186.785759 
L 547.538116 185.437524 
L 549.371632 183.93136 
L 551.205148 181.975735 
L 553.038664 186.855644 
L 556.705696 185.294957 
L 558.539211 183.437526 
L 560.372727 186.377446 
L 560.372727 186.377446 
" clip-path="url(#p21c48704fd)" style="fill: none; stroke-dasharray: 5.55,2.4; stroke-dashoffset: 0; stroke: #ff0000; stroke-width: 1.5"/>
   </g>
   <g id="line2d_30">
    <path d="M 103.827273 289.850444 
L 105.660789 289.636144 
L 107.494304 287.942548 
L 109.32782 285.737282 
L 111.161336 283.219332 
L 112.994852 281.022976 
L 114.828368 279.731454 
L 116.661884 277.446255 
L 118.4954 278.687079 
L 120.328916 276.336609 
L 122.162432 275.131844 
L 123.995947 275.370768 
L 125.829463 279.109272 
L 127.662979 281.026587 
L 129.496495 280.517729 
L 131.330011 281.462263 
L 133.163527 282.244107 
L 134.997043 281.222986 
L 136.830559 280.737013 
L 138.664074 280.666818 
L 140.49759 280.014134 
L 142.331106 277.607019 
L 144.164622 278.027366 
L 145.998138 279.733102 
L 147.831654 280.202906 
L 151.498686 281.725735 
L 153.332202 283.161776 
L 155.165717 284.146424 
L 156.999233 282.600958 
L 158.832749 282.93472 
L 160.666265 281.509736 
L 162.499781 280.802153 
L 164.333297 278.806381 
L 166.166813 278.637254 
L 168.000329 276.795875 
L 169.833844 276.002124 
L 171.66736 276.596506 
L 173.500876 278.263843 
L 175.334392 279.368145 
L 177.167908 280.113782 
L 179.001424 281.055183 
L 180.83494 280.988972 
L 182.668456 279.456799 
L 184.501972 278.732258 
L 188.169003 281.026209 
L 190.002519 281.71532 
L 191.836035 281.640775 
L 193.669551 279.82857 
L 195.503067 279.386928 
L 197.336583 280.411442 
L 199.170099 281.284671 
L 201.003614 282.533044 
L 202.83713 281.827267 
L 204.670646 281.332146 
L 206.504162 281.942685 
L 208.337678 281.325522 
L 210.171194 281.523036 
L 212.00471 281.492919 
L 213.838226 279.17833 
L 215.671742 279.432015 
L 217.505257 278.043407 
L 219.338773 278.69517 
L 221.172289 278.728429 
L 223.005805 281.121742 
L 224.839321 280.644661 
L 226.672837 281.956244 
L 228.506353 282.229658 
L 230.339869 281.040479 
L 232.173384 278.626246 
L 234.0069 277.037431 
L 235.840416 277.475834 
L 237.673932 278.545652 
L 239.507448 279.06326 
L 241.340964 277.593591 
L 243.17448 278.361794 
L 245.007996 277.585466 
L 246.841512 278.046829 
L 248.675027 278.903181 
L 250.508543 279.160238 
L 252.342059 281.383951 
L 254.175575 282.295244 
L 256.009091 283.537109 
L 257.842607 283.060208 
L 259.676123 284.240055 
L 261.509639 283.69436 
L 263.343154 283.452278 
L 265.17667 282.531274 
L 267.010186 280.950034 
L 268.843702 280.292859 
L 270.677218 279.431655 
L 272.510734 281.160622 
L 274.34425 280.599216 
L 276.177766 280.222408 
L 278.011281 280.494128 
L 279.844797 282.313995 
L 281.678313 282.759284 
L 283.511829 281.671817 
L 285.345345 281.624135 
L 287.178861 281.266924 
L 289.012377 281.522877 
L 290.845893 282.427377 
L 292.679409 281.447169 
L 294.512924 282.44631 
L 296.34644 281.662295 
L 298.179956 280.615651 
L 300.013472 280.832543 
L 301.846988 282.326163 
L 303.680504 282.775157 
L 305.51402 283.490218 
L 307.347536 283.658361 
L 309.181051 283.099518 
L 311.014567 283.063526 
L 312.848083 282.603901 
L 314.681599 282.703625 
L 316.515115 282.498855 
L 318.348631 281.63192 
L 320.182147 281.661101 
L 322.015663 282.499057 
L 323.849179 282.598535 
L 325.682694 281.920123 
L 327.51621 280.716756 
L 331.183242 279.729983 
L 333.016758 280.82771 
L 334.850274 281.432581 
L 336.68379 284.208759 
L 338.517306 284.671147 
L 340.350821 285.988729 
L 342.184337 286.70603 
L 344.017853 286.408382 
L 345.851369 287.549354 
L 347.684885 287.070963 
L 349.518401 287.664117 
L 351.351917 287.063401 
L 353.185433 285.660981 
L 355.018949 285.524167 
L 356.852464 284.403477 
L 358.68598 285.148218 
L 362.353012 282.643494 
L 364.186528 283.376095 
L 366.020044 284.771163 
L 367.85356 284.814402 
L 371.520591 283.653905 
L 373.354107 284.867055 
L 377.021139 283.15831 
L 378.854655 284.207347 
L 380.688171 285.594058 
L 382.521687 285.463475 
L 384.355203 284.654518 
L 386.188719 284.657309 
L 388.022234 285.695013 
L 391.689266 283.411202 
L 393.522782 282.069291 
L 395.356298 282.352173 
L 397.189814 281.65557 
L 399.02333 279.974373 
L 400.856846 279.660707 
L 402.690361 279.65956 
L 404.523877 279.203433 
L 406.357393 278.470023 
L 408.190909 279.290949 
L 410.024425 281.073771 
L 411.857941 281.381722 
L 415.524973 282.667672 
L 417.358488 281.841325 
L 419.192004 282.375534 
L 421.02552 283.742981 
L 424.692552 282.828703 
L 426.526068 282.05939 
L 428.359584 282.186655 
L 430.1931 281.372805 
L 432.026616 281.206835 
L 433.860131 280.127305 
L 435.693647 281.823717 
L 437.527163 280.744533 
L 439.360679 282.094413 
L 441.194195 281.641344 
L 443.027711 281.431714 
L 444.861227 282.613436 
L 446.694743 282.587764 
L 450.361774 282.334951 
L 452.19529 281.62497 
L 454.028806 281.272733 
L 455.862322 281.370434 
L 457.695838 279.895476 
L 459.529354 279.369905 
L 461.36287 278.648136 
L 463.196386 278.583966 
L 465.029901 279.53903 
L 466.863417 279.684214 
L 468.696933 279.351645 
L 470.530449 279.714963 
L 472.363965 280.684819 
L 474.197481 281.392287 
L 476.030997 281.888452 
L 477.864513 280.829165 
L 479.698028 281.515768 
L 481.531544 281.72877 
L 483.36506 281.058028 
L 485.198576 281.443711 
L 487.032092 281.201613 
L 488.865608 281.883713 
L 490.699124 281.391086 
L 492.53264 282.749378 
L 494.366156 282.691004 
L 496.199671 284.294285 
L 498.033187 283.594673 
L 501.700219 280.817192 
L 503.533735 280.47066 
L 505.367251 282.363634 
L 507.200767 280.937038 
L 509.034283 280.604946 
L 510.867798 281.231313 
L 512.701314 281.233204 
L 514.53483 279.987185 
L 516.368346 281.247356 
L 518.201862 281.18692 
L 520.035378 281.947442 
L 521.868894 282.008461 
L 523.70241 282.317002 
L 527.369441 281.494536 
L 529.202957 281.841592 
L 531.036473 281.469475 
L 532.869989 281.268788 
L 536.537021 280.447056 
L 538.370537 280.487888 
L 540.204053 279.408932 
L 542.037568 279.579417 
L 543.871084 280.986901 
L 545.7046 279.950939 
L 547.538116 279.425244 
L 549.371632 278.702461 
L 551.205148 279.350166 
L 553.038664 279.471653 
L 554.87218 278.824359 
L 556.705696 277.714408 
L 558.539211 278.204005 
L 560.372727 276.39702 
L 560.372727 276.39702 
" clip-path="url(#p21c48704fd)" style="fill: none; stroke: #ff0000; stroke-width: 1.5; stroke-linecap: square"/>
   </g>
   <g id="line2d_31">
    <path d="M 103.827273 276.391131 
L 105.660789 276.231885 
L 107.494304 275.147772 
L 109.32782 273.778957 
L 112.994852 274.147623 
L 114.828368 272.817936 
L 116.661884 271.88721 
L 118.4954 272.030943 
L 120.328916 270.926714 
L 122.162432 270.343124 
L 123.995947 270.35337 
L 127.662979 272.430912 
L 131.330011 272.856816 
L 133.163527 273.5616 
L 134.997043 272.878935 
L 136.830559 271.742733 
L 138.664074 273.610158 
L 140.49759 275.049832 
L 142.331106 274.397718 
L 144.164622 273.980567 
L 145.998138 274.601531 
L 147.831654 274.059694 
L 149.66517 274.169609 
L 151.498686 274.161798 
L 153.332202 273.58331 
L 155.165717 274.756681 
L 156.999233 274.793598 
L 158.832749 275.145012 
L 160.666265 276.40512 
L 162.499781 275.930322 
L 164.333297 276.148485 
L 166.166813 275.94516 
L 169.833844 273.802531 
L 171.66736 274.41736 
L 173.500876 274.046934 
L 175.334392 274.483648 
L 177.167908 273.983442 
L 179.001424 273.064921 
L 180.83494 272.458138 
L 182.668456 271.584157 
L 184.501972 271.386428 
L 186.335487 272.790553 
L 191.836035 272.443383 
L 193.669551 271.029841 
L 195.503067 272.272151 
L 197.336583 273.236422 
L 199.170099 274.344784 
L 201.003614 274.780213 
L 202.83713 275.409917 
L 204.670646 274.710062 
L 206.504162 275.504677 
L 208.337678 275.651179 
L 210.171194 275.448575 
L 212.00471 276.022094 
L 213.838226 275.816682 
L 215.671742 275.123885 
L 217.505257 273.274058 
L 219.338773 272.638603 
L 221.172289 272.758461 
L 223.005805 273.041682 
L 224.839321 271.371854 
L 226.672837 271.513849 
L 230.339869 270.190022 
L 232.173384 268.917113 
L 234.0069 267.995776 
L 235.840416 269.800141 
L 237.673932 270.448817 
L 239.507448 270.329894 
L 241.340964 269.767756 
L 243.17448 271.36137 
L 245.007996 270.303434 
L 246.841512 271.768162 
L 248.675027 272.966616 
L 250.508543 274.678101 
L 252.342059 277.032567 
L 254.175575 274.768008 
L 257.842607 274.125542 
L 259.676123 275.178464 
L 261.509639 274.453039 
L 263.343154 274.730872 
L 265.17667 275.700671 
L 267.010186 274.441648 
L 268.843702 274.705998 
L 270.677218 273.428127 
L 272.510734 274.549876 
L 274.34425 274.329912 
L 276.177766 273.893641 
L 278.011281 273.803299 
L 279.844797 275.482826 
L 281.678313 275.285392 
L 283.511829 274.034259 
L 285.345345 273.334741 
L 287.178861 272.336093 
L 289.012377 272.584795 
L 290.845893 273.872881 
L 292.679409 273.959322 
L 294.512924 275.474691 
L 296.34644 275.216079 
L 298.179956 274.837473 
L 300.013472 275.617401 
L 301.846988 277.09525 
L 305.51402 278.219089 
L 307.347536 277.877584 
L 311.014567 276.642402 
L 312.848083 275.393829 
L 314.681599 274.30995 
L 316.515115 273.604752 
L 318.348631 272.220267 
L 320.182147 272.253004 
L 322.015663 273.270438 
L 323.849179 273.378969 
L 325.682694 272.980325 
L 327.51621 272.96716 
L 329.349726 273.725999 
L 331.183242 274.174892 
L 333.016758 275.59862 
L 334.850274 276.467782 
L 336.68379 278.475397 
L 338.517306 279.697543 
L 340.350821 279.73034 
L 342.184337 280.802674 
L 344.017853 281.444355 
L 345.851369 281.305318 
L 347.684885 280.657051 
L 349.518401 280.596625 
L 351.351917 280.676583 
L 353.185433 280.64506 
L 355.018949 279.65783 
L 356.852464 278.543033 
L 358.68598 278.379641 
L 360.519496 276.922072 
L 362.353012 276.091897 
L 366.020044 277.807878 
L 367.85356 277.08692 
L 369.687076 276.589936 
L 371.520591 277.100143 
L 373.354107 278.442987 
L 375.187623 277.91505 
L 377.021139 277.578179 
L 378.854655 278.746152 
L 380.688171 280.411846 
L 382.521687 280.25829 
L 384.355203 278.672262 
L 386.188719 278.046588 
L 388.022234 279.230085 
L 389.85575 277.792388 
L 393.522782 274.329827 
L 395.356298 274.568833 
L 397.189814 274.185561 
L 400.856846 272.651266 
L 402.690361 272.791774 
L 404.523877 272.005792 
L 406.357393 272.136562 
L 410.024425 274.16194 
L 411.857941 275.476156 
L 413.691457 275.152958 
L 415.524973 276.085336 
L 417.358488 275.450055 
L 419.192004 275.903799 
L 421.02552 276.645805 
L 422.859036 277.011534 
L 424.692552 277.173295 
L 426.526068 275.629874 
L 428.359584 275.825112 
L 430.1931 274.91848 
L 432.026616 275.668986 
L 433.860131 274.631998 
L 435.693647 275.703252 
L 437.527163 274.612542 
L 439.360679 275.424448 
L 441.194195 275.262595 
L 443.027711 274.854776 
L 444.861227 275.623913 
L 446.694743 274.807889 
L 448.528258 275.084999 
L 450.361774 274.706752 
L 452.19529 275.189865 
L 454.028806 274.990273 
L 455.862322 274.905517 
L 457.695838 273.510639 
L 459.529354 273.593869 
L 463.196386 272.324022 
L 465.029901 273.494043 
L 466.863417 273.780202 
L 468.696933 272.911093 
L 470.530449 272.949779 
L 472.363965 274.076036 
L 474.197481 273.931854 
L 476.030997 275.292707 
L 477.864513 274.900159 
L 479.698028 275.314836 
L 481.531544 275.916359 
L 483.36506 275.988554 
L 485.198576 276.310331 
L 487.032092 275.990503 
L 488.865608 276.4862 
L 490.699124 275.772398 
L 492.53264 276.634109 
L 494.366156 276.596017 
L 496.199671 278.583902 
L 498.033187 278.138106 
L 499.866703 277.473275 
L 501.700219 276.664155 
L 503.533735 275.595397 
L 505.367251 276.771013 
L 507.200767 276.233227 
L 510.867798 275.518497 
L 512.701314 276.375617 
L 514.53483 274.869571 
L 516.368346 276.074159 
L 518.201862 276.613799 
L 520.035378 277.826105 
L 521.868894 278.262799 
L 523.70241 277.841985 
L 525.535926 277.85499 
L 527.369441 278.314443 
L 529.202957 278.284593 
L 531.036473 277.418401 
L 532.869989 276.907951 
L 534.703505 275.871028 
L 536.537021 276.151476 
L 538.370537 275.904621 
L 540.204053 275.280822 
L 542.037568 275.495502 
L 543.871084 276.62094 
L 545.7046 275.609245 
L 547.538116 275.157749 
L 549.371632 275.392234 
L 551.205148 277.887488 
L 553.038664 278.279303 
L 554.87218 277.608003 
L 556.705696 276.741949 
L 558.539211 278.543302 
L 560.372727 277.665668 
L 560.372727 277.665668 
" clip-path="url(#p21c48704fd)" style="fill: none; stroke: #808080; stroke-width: 1.5; stroke-linecap: square"/>
   </g>
   <g id="line2d_32">
    <path d="M 103.827273 290.855476 
L 105.660789 289.798789 
L 109.32782 282.930992 
L 111.161336 278.675913 
L 112.994852 274.793313 
L 116.661884 271.298771 
L 118.4954 273.012858 
L 120.328916 270.495798 
L 122.162432 269.237932 
L 123.995947 269.825687 
L 125.829463 274.025698 
L 127.662979 276.028372 
L 129.496495 275.46551 
L 133.163527 277.59087 
L 134.997043 276.933958 
L 136.830559 277.232311 
L 138.664074 276.79512 
L 140.49759 275.514365 
L 142.331106 272.884618 
L 144.164622 272.817449 
L 147.831654 273.389837 
L 149.66517 274.523966 
L 151.498686 275.018945 
L 153.332202 276.887825 
L 155.165717 278.325164 
L 156.999233 277.51065 
L 158.832749 278.264251 
L 160.666265 277.347731 
L 162.499781 276.855493 
L 164.333297 274.110853 
L 166.166813 274.285415 
L 168.000329 272.148129 
L 169.833844 271.613018 
L 171.66736 272.122613 
L 173.500876 273.932618 
L 175.334392 275.405385 
L 177.167908 275.912211 
L 179.001424 277.165945 
L 180.83494 276.976477 
L 182.668456 275.000609 
L 184.501972 274.456819 
L 186.335487 275.457596 
L 190.002519 278.006202 
L 191.836035 277.87141 
L 193.669551 276.517962 
L 195.503067 275.820261 
L 197.336583 276.77572 
L 201.003614 279.502729 
L 202.83713 279.050706 
L 204.670646 278.254787 
L 206.504162 278.106374 
L 208.337678 277.48115 
L 210.171194 277.271471 
L 212.00471 277.456151 
L 213.838226 274.419528 
L 215.671742 274.773837 
L 217.505257 274.087791 
L 219.338773 275.062294 
L 221.172289 275.56035 
L 223.005805 277.734432 
L 224.839321 277.583237 
L 226.672837 279.087575 
L 228.506353 279.114292 
L 230.339869 277.950618 
L 232.173384 275.696823 
L 234.0069 273.987779 
L 235.840416 274.357454 
L 237.673932 275.73789 
L 239.507448 276.438815 
L 241.340964 274.436801 
L 243.17448 275.193167 
L 245.007996 274.074613 
L 246.841512 274.608999 
L 248.675027 275.809963 
L 250.508543 275.821906 
L 252.342059 278.136671 
L 254.175575 279.419444 
L 256.009091 280.934097 
L 257.842607 280.257287 
L 259.676123 281.186327 
L 261.509639 280.658718 
L 263.343154 280.252196 
L 267.010186 277.434845 
L 268.843702 277.137245 
L 270.677218 276.089451 
L 272.510734 278.002561 
L 274.34425 277.661288 
L 276.177766 277.612958 
L 278.011281 278.003594 
L 279.844797 280.037615 
L 281.678313 280.860283 
L 283.511829 279.775247 
L 285.345345 279.700692 
L 287.178861 279.763906 
L 289.012377 280.418873 
L 290.845893 281.597665 
L 292.679409 280.722747 
L 294.512924 281.719821 
L 296.34644 280.997782 
L 298.179956 279.495429 
L 300.013472 279.297056 
L 301.846988 280.323257 
L 307.347536 281.654266 
L 309.181051 281.247782 
L 311.014567 281.340266 
L 312.848083 281.237213 
L 314.681599 281.449838 
L 316.515115 281.214637 
L 318.348631 280.598681 
L 320.182147 280.687086 
L 322.015663 281.391076 
L 323.849179 281.619163 
L 325.682694 280.785526 
L 327.51621 279.774801 
L 329.349726 279.279589 
L 331.183242 278.981814 
L 333.016758 279.818682 
L 334.850274 280.387301 
L 336.68379 283.118267 
L 338.517306 283.473671 
L 340.350821 284.704664 
L 342.184337 285.443493 
L 344.017853 285.087053 
L 345.851369 286.943743 
L 347.684885 286.187641 
L 349.518401 286.703738 
L 351.351917 286.049506 
L 353.185433 285.07541 
L 355.018949 285.002947 
L 356.852464 284.11373 
L 358.68598 284.68409 
L 362.353012 282.53433 
L 364.186528 283.158407 
L 366.020044 284.47072 
L 367.85356 284.413289 
L 371.520591 283.153664 
L 373.354107 284.539744 
L 375.187623 283.9123 
L 377.021139 282.913204 
L 378.854655 284.128331 
L 380.688171 285.495948 
L 384.355203 284.545828 
L 386.188719 284.611962 
L 388.022234 285.260516 
L 391.689266 282.747173 
L 393.522782 281.358489 
L 395.356298 281.70148 
L 397.189814 280.79681 
L 399.02333 279.239061 
L 400.856846 279.023491 
L 402.690361 279.165121 
L 404.523877 278.490078 
L 406.357393 277.645611 
L 408.190909 278.728529 
L 410.024425 280.715963 
L 411.857941 280.646024 
L 415.524973 282.14378 
L 417.358488 281.04603 
L 419.192004 281.497023 
L 421.02552 283.183936 
L 422.859036 282.728509 
L 424.692552 281.890191 
L 426.526068 281.272144 
L 428.359584 281.572181 
L 430.1931 280.962349 
L 432.026616 280.873284 
L 433.860131 279.979868 
L 435.693647 281.575974 
L 437.527163 279.766463 
L 439.360679 281.142758 
L 441.194195 280.627254 
L 443.027711 280.567465 
L 446.694743 281.797671 
L 448.528258 280.72903 
L 450.361774 280.144952 
L 452.19529 279.264088 
L 454.028806 279.526306 
L 455.862322 279.496044 
L 457.695838 277.054694 
L 461.36287 275.764364 
L 463.196386 276.136559 
L 465.029901 277.254147 
L 466.863417 277.542902 
L 468.696933 278.512789 
L 470.530449 279.070178 
L 472.363965 280.026446 
L 474.197481 279.959142 
L 476.030997 280.356768 
L 477.864513 278.79286 
L 479.698028 278.910137 
L 481.531544 278.393375 
L 483.36506 278.113344 
L 485.198576 277.993111 
L 487.032092 276.588488 
L 488.865608 275.774741 
L 490.699124 275.463705 
L 492.53264 277.134158 
L 494.366156 277.444162 
L 496.199671 278.734074 
L 498.033187 278.008681 
L 499.866703 276.151553 
L 501.700219 274.585219 
L 503.533735 274.662636 
L 505.367251 276.009434 
L 507.200767 275.47924 
L 509.034283 275.354323 
L 510.867798 275.45165 
L 512.701314 274.743883 
L 514.53483 273.548131 
L 516.368346 274.726569 
L 518.201862 274.73311 
L 520.035378 275.679775 
L 523.70241 276.57582 
L 525.535926 277.045194 
L 527.369441 276.024685 
L 529.202957 276.771461 
L 531.036473 276.620622 
L 532.869989 275.493058 
L 534.703505 275.44433 
L 536.537021 274.029534 
L 538.370537 272.80327 
L 540.204053 270.967832 
L 542.037568 271.192966 
L 543.871084 272.157421 
L 545.7046 270.800237 
L 547.538116 270.41176 
L 549.371632 269.851274 
L 551.205148 270.894675 
L 553.038664 271.630259 
L 554.87218 270.892378 
L 556.705696 269.99636 
L 558.539211 269.494182 
L 560.372727 267.732804 
L 560.372727 267.732804 
" clip-path="url(#p21c48704fd)" style="fill: none; stroke: #ff7f0e; stroke-width: 1.5; stroke-linecap: square"/>
   </g>
   <g id="line2d_33">
    <path d="M 103.827273 292.41 
L 105.660789 291.471405 
L 109.32782 285.55292 
L 111.161336 281.511483 
L 112.994852 278.081391 
L 114.828368 276.308315 
L 116.661884 274.331056 
L 118.4954 275.965175 
L 120.328916 273.821246 
L 122.162432 272.805988 
L 123.995947 273.413644 
L 125.829463 277.511744 
L 127.662979 279.201043 
L 129.496495 278.543578 
L 131.330011 279.586654 
L 133.163527 280.117292 
L 134.997043 279.153514 
L 136.830559 279.351257 
L 138.664074 278.835947 
L 140.49759 278.078085 
L 142.331106 275.511394 
L 144.164622 275.91973 
L 145.998138 276.983638 
L 147.831654 277.291789 
L 149.66517 278.062426 
L 151.498686 278.659968 
L 153.332202 280.803575 
L 155.165717 281.463761 
L 156.999233 279.789365 
L 158.832749 280.404448 
L 160.666265 279.203834 
L 162.499781 278.874566 
L 164.333297 276.260093 
L 166.166813 276.467915 
L 168.000329 274.581018 
L 169.833844 273.971652 
L 171.66736 274.570943 
L 173.500876 276.547908 
L 175.334392 277.860575 
L 177.167908 278.765891 
L 179.001424 280.317946 
L 180.83494 280.385478 
L 182.668456 278.717682 
L 184.501972 278.014896 
L 186.335487 279.232343 
L 188.169003 280.259473 
L 190.002519 281.068204 
L 191.836035 280.81366 
L 193.669551 278.685255 
L 195.503067 277.904903 
L 197.336583 278.787368 
L 199.170099 279.40004 
L 201.003614 281.008363 
L 204.670646 279.918656 
L 206.504162 280.604036 
L 208.337678 280.001764 
L 210.171194 280.18266 
L 212.00471 280.211346 
L 213.838226 277.868627 
L 215.671742 278.404842 
L 217.505257 277.055436 
L 219.338773 277.787296 
L 221.172289 277.922283 
L 223.005805 280.124213 
L 224.839321 280.063716 
L 226.672837 281.389766 
L 228.506353 281.597717 
L 230.339869 280.570042 
L 232.173384 278.153112 
L 234.0069 276.76769 
L 235.840416 276.965218 
L 237.673932 278.239611 
L 239.507448 278.859642 
L 241.340964 277.179336 
L 243.17448 277.649677 
L 245.007996 276.585529 
L 246.841512 277.259815 
L 248.675027 278.071067 
L 250.508543 278.124968 
L 252.342059 280.47537 
L 254.175575 281.481443 
L 256.009091 282.775169 
L 257.842607 282.152786 
L 259.676123 283.552715 
L 261.509639 283.072373 
L 263.343154 282.709469 
L 265.17667 281.715697 
L 267.010186 280.109334 
L 268.843702 279.444956 
L 270.677218 278.58675 
L 272.510734 280.368915 
L 274.34425 279.879231 
L 276.177766 279.684663 
L 278.011281 280.095797 
L 279.844797 282.077073 
L 281.678313 282.50837 
L 283.511829 281.128554 
L 287.178861 280.847282 
L 289.012377 281.140579 
L 290.845893 282.060659 
L 292.679409 281.191685 
L 294.512924 281.997799 
L 296.34644 281.313716 
L 298.179956 280.069476 
L 300.013472 280.223989 
L 301.846988 281.790991 
L 303.680504 282.173125 
L 305.51402 282.933285 
L 307.347536 283.27755 
L 309.181051 282.76181 
L 311.014567 282.8094 
L 312.848083 282.460589 
L 314.681599 282.611792 
L 316.515115 282.408907 
L 318.348631 281.53967 
L 320.182147 281.529182 
L 322.015663 282.29797 
L 323.849179 282.506026 
L 325.682694 281.869446 
L 327.51621 280.673693 
L 329.349726 280.262025 
L 331.183242 279.629256 
L 333.016758 280.693487 
L 334.850274 281.216973 
L 336.68379 283.789812 
L 338.517306 284.189872 
L 340.350821 285.578732 
L 342.184337 286.063562 
L 344.017853 285.621412 
L 345.851369 286.91256 
L 347.684885 286.389754 
L 349.518401 287.155579 
L 351.351917 286.501387 
L 353.185433 285.061148 
L 355.018949 284.993132 
L 356.852464 284.066813 
L 358.68598 284.634067 
L 360.519496 283.586458 
L 362.353012 282.272293 
L 364.186528 283.108604 
L 366.020044 284.613475 
L 367.85356 284.395429 
L 369.687076 283.872308 
L 371.520591 283.475631 
L 373.354107 284.697419 
L 375.187623 284.015486 
L 377.021139 283.125064 
L 378.854655 284.252227 
L 380.688171 285.611264 
L 384.355203 284.672013 
L 386.188719 284.738912 
L 388.022234 285.541929 
L 389.85575 284.432313 
L 393.522782 281.700698 
L 395.356298 282.088307 
L 397.189814 281.302034 
L 399.02333 279.535505 
L 400.856846 279.418308 
L 402.690361 279.419065 
L 406.357393 278.027674 
L 408.190909 278.891836 
L 410.024425 280.823941 
L 411.857941 280.88374 
L 415.524973 282.309979 
L 417.358488 281.309975 
L 419.192004 281.604143 
L 421.02552 283.258724 
L 422.859036 282.839493 
L 426.526068 281.617836 
L 428.359584 281.96819 
L 430.1931 281.27175 
L 432.026616 281.100942 
L 433.860131 280.112707 
L 435.693647 281.800956 
L 437.527163 280.547713 
L 439.360679 281.531625 
L 441.194195 280.961499 
L 443.027711 280.91905 
L 444.861227 282.015817 
L 450.361774 281.094818 
L 452.19529 280.376297 
L 455.862322 280.03495 
L 457.695838 278.535847 
L 459.529354 278.172728 
L 461.36287 277.255096 
L 463.196386 276.989854 
L 465.029901 278.244439 
L 466.863417 278.459247 
L 468.696933 277.78515 
L 470.530449 277.943502 
L 472.363965 278.802822 
L 474.197481 279.420077 
L 476.030997 280.388264 
L 477.864513 279.545866 
L 479.698028 280.289494 
L 481.531544 280.600816 
L 483.36506 279.93986 
L 485.198576 280.089445 
L 487.032092 279.790834 
L 488.865608 280.43699 
L 490.699124 279.931658 
L 492.53264 281.295243 
L 494.366156 281.364273 
L 496.199671 283.011071 
L 498.033187 282.37268 
L 501.700219 278.993955 
L 503.533735 279.09519 
L 505.367251 280.75996 
L 507.200767 279.415909 
L 509.034283 279.52987 
L 510.867798 280.28181 
L 512.701314 280.161173 
L 514.53483 278.850283 
L 516.368346 280.186531 
L 518.201862 280.3754 
L 520.035378 281.389864 
L 521.868894 281.40456 
L 523.70241 281.76737 
L 525.535926 281.370457 
L 527.369441 280.74411 
L 529.202957 281.648464 
L 531.036473 280.722512 
L 532.869989 280.734386 
L 534.703505 280.504851 
L 538.370537 279.328711 
L 540.204053 278.292225 
L 542.037568 278.570217 
L 543.871084 280.076703 
L 545.7046 278.589312 
L 547.538116 278.053482 
L 549.371632 276.792637 
L 553.038664 276.507538 
L 554.87218 275.762753 
L 556.705696 274.312335 
L 558.539211 273.729187 
L 560.372727 271.560432 
L 560.372727 271.560432 
" clip-path="url(#p21c48704fd)" style="fill: none; stroke: #1f77b4; stroke-width: 1.5; stroke-linecap: square"/>
   </g>
   <g id="legend_1">
    <g id="patch_7">
     <path d="M 88 151.786875 
L 273.757812 151.786875 
Q 275.757812 151.786875 275.757812 149.786875 
L 275.757812 48.04 
Q 275.757812 46.04 273.757812 46.04 
L 88 46.04 
Q 86 46.04 86 48.04 
L 86 149.786875 
Q 86 151.786875 88 151.786875 
z
" style="fill: #ffffff; opacity: 0.8; stroke: #e6e6e6; stroke-linejoin: miter"/>
    </g>
    <g id="line2d_34">
     <path d="M 90 54.138438 
L 100 54.138438 
L 110 54.138438 
" style="fill: none; stroke-dasharray: 1.5,2.475; stroke-dashoffset: 0; stroke: #ff0000; stroke-width: 1.5"/>
    </g>
    <g id="text_17">
     <!-- R/S (AUC:0.0237) -->
     <g transform="translate(118 57.638438)scale(0.1 -0.1)">
      <defs>
       <path id="DejaVuSans-52" d="M 2841 2188 
Q 3044 2119 3236 1894 
Q 3428 1669 3622 1275 
L 4263 0 
L 3584 0 
L 2988 1197 
Q 2756 1666 2539 1819 
Q 2322 1972 1947 1972 
L 1259 1972 
L 1259 0 
L 628 0 
L 628 4666 
L 2053 4666 
Q 2853 4666 3247 4331 
Q 3641 3997 3641 3322 
Q 3641 2881 3436 2590 
Q 3231 2300 2841 2188 
z
M 1259 4147 
L 1259 2491 
L 2053 2491 
Q 2509 2491 2742 2702 
Q 2975 2913 2975 3322 
Q 2975 3731 2742 3939 
Q 2509 4147 2053 4147 
L 1259 4147 
z
" transform="scale(0.015625)"/>
       <path id="DejaVuSans-53" d="M 3425 4513 
L 3425 3897 
Q 3066 4069 2747 4153 
Q 2428 4238 2131 4238 
Q 1616 4238 1336 4038 
Q 1056 3838 1056 3469 
Q 1056 3159 1242 3001 
Q 1428 2844 1947 2747 
L 2328 2669 
Q 3034 2534 3370 2195 
Q 3706 1856 3706 1288 
Q 3706 609 3251 259 
Q 2797 -91 1919 -91 
Q 1588 -91 1214 -16 
Q 841 59 441 206 
L 441 856 
Q 825 641 1194 531 
Q 1563 422 1919 422 
Q 2459 422 2753 634 
Q 3047 847 3047 1241 
Q 3047 1584 2836 1778 
Q 2625 1972 2144 2069 
L 1759 2144 
Q 1053 2284 737 2584 
Q 422 2884 422 3419 
Q 422 4038 858 4394 
Q 1294 4750 2059 4750 
Q 2388 4750 2728 4690 
Q 3069 4631 3425 4513 
z
" transform="scale(0.015625)"/>
       <path id="DejaVuSans-41" d="M 2188 4044 
L 1331 1722 
L 3047 1722 
L 2188 4044 
z
M 1831 4666 
L 2547 4666 
L 4325 0 
L 3669 0 
L 3244 1197 
L 1141 1197 
L 716 0 
L 50 0 
L 1831 4666 
z
" transform="scale(0.015625)"/>
       <path id="DejaVuSans-55" d="M 556 4666 
L 1191 4666 
L 1191 1831 
Q 1191 1081 1462 751 
Q 1734 422 2344 422 
Q 2950 422 3222 751 
Q 3494 1081 3494 1831 
L 3494 4666 
L 4128 4666 
L 4128 1753 
Q 4128 841 3676 375 
Q 3225 -91 2344 -91 
Q 1459 -91 1007 375 
Q 556 841 556 1753 
L 556 4666 
z
" transform="scale(0.015625)"/>
       <path id="DejaVuSans-43" d="M 4122 4306 
L 4122 3641 
Q 3803 3938 3442 4084 
Q 3081 4231 2675 4231 
Q 1875 4231 1450 3742 
Q 1025 3253 1025 2328 
Q 1025 1406 1450 917 
Q 1875 428 2675 428 
Q 3081 428 3442 575 
Q 3803 722 4122 1019 
L 4122 359 
Q 3791 134 3420 21 
Q 3050 -91 2638 -91 
Q 1578 -91 968 557 
Q 359 1206 359 2328 
Q 359 3453 968 4101 
Q 1578 4750 2638 4750 
Q 3056 4750 3426 4639 
Q 3797 4528 4122 4306 
z
" transform="scale(0.015625)"/>
       <path id="DejaVuSans-37" d="M 525 4666 
L 3525 4666 
L 3525 4397 
L 1831 0 
L 1172 0 
L 2766 4134 
L 525 4134 
L 525 4666 
z
" transform="scale(0.015625)"/>
      </defs>
      <use xlink:href="#DejaVuSans-52"/>
      <use xlink:href="#DejaVuSans-2f" x="69.482422"/>
      <use xlink:href="#DejaVuSans-53" x="103.173828"/>
      <use xlink:href="#DejaVuSans-20" x="166.650391"/>
      <use xlink:href="#DejaVuSans-28" x="198.4375"/>
      <use xlink:href="#DejaVuSans-41" x="237.451172"/>
      <use xlink:href="#DejaVuSans-55" x="305.859375"/>
      <use xlink:href="#DejaVuSans-43" x="379.052734"/>
      <use xlink:href="#DejaVuSans-3a" x="448.876953"/>
      <use xlink:href="#DejaVuSans-30" x="482.568359"/>
      <use xlink:href="#DejaVuSans-2e" x="546.191406"/>
      <use xlink:href="#DejaVuSans-30" x="577.978516"/>
      <use xlink:href="#DejaVuSans-32" x="641.601562"/>
      <use xlink:href="#DejaVuSans-33" x="705.224609"/>
      <use xlink:href="#DejaVuSans-37" x="768.847656"/>
      <use xlink:href="#DejaVuSans-29" x="832.470703"/>
     </g>
    </g>
    <g id="line2d_35">
     <path d="M 90 68.816563 
L 100 68.816563 
L 110 68.816563 
" style="fill: none; stroke-dasharray: 9.6,2.4,1.5,2.4; stroke-dashoffset: 0; stroke: #ff0000; stroke-width: 1.5"/>
    </g>
    <g id="text_18">
     <!-- variogram (AUC:0.0138) -->
     <g transform="translate(118 72.316563)scale(0.1 -0.1)">
      <defs>
       <path id="DejaVuSans-67" d="M 2906 1791 
Q 2906 2416 2648 2759 
Q 2391 3103 1925 3103 
Q 1463 3103 1205 2759 
Q 947 2416 947 1791 
Q 947 1169 1205 825 
Q 1463 481 1925 481 
Q 2391 481 2648 825 
Q 2906 1169 2906 1791 
z
M 3481 434 
Q 3481 -459 3084 -895 
Q 2688 -1331 1869 -1331 
Q 1566 -1331 1297 -1286 
Q 1028 -1241 775 -1147 
L 775 -588 
Q 1028 -725 1275 -790 
Q 1522 -856 1778 -856 
Q 2344 -856 2625 -561 
Q 2906 -266 2906 331 
L 2906 616 
Q 2728 306 2450 153 
Q 2172 0 1784 0 
Q 1141 0 747 490 
Q 353 981 353 1791 
Q 353 2603 747 3093 
Q 1141 3584 1784 3584 
Q 2172 3584 2450 3431 
Q 2728 3278 2906 2969 
L 2906 3500 
L 3481 3500 
L 3481 434 
z
" transform="scale(0.015625)"/>
       <path id="DejaVuSans-6d" d="M 3328 2828 
Q 3544 3216 3844 3400 
Q 4144 3584 4550 3584 
Q 5097 3584 5394 3201 
Q 5691 2819 5691 2113 
L 5691 0 
L 5113 0 
L 5113 2094 
Q 5113 2597 4934 2840 
Q 4756 3084 4391 3084 
Q 3944 3084 3684 2787 
Q 3425 2491 3425 1978 
L 3425 0 
L 2847 0 
L 2847 2094 
Q 2847 2600 2669 2842 
Q 2491 3084 2119 3084 
Q 1678 3084 1418 2786 
Q 1159 2488 1159 1978 
L 1159 0 
L 581 0 
L 581 3500 
L 1159 3500 
L 1159 2956 
Q 1356 3278 1631 3431 
Q 1906 3584 2284 3584 
Q 2666 3584 2933 3390 
Q 3200 3197 3328 2828 
z
" transform="scale(0.015625)"/>
      </defs>
      <use xlink:href="#DejaVuSans-76"/>
      <use xlink:href="#DejaVuSans-61" x="59.179688"/>
      <use xlink:href="#DejaVuSans-72" x="120.458984"/>
      <use xlink:href="#DejaVuSans-69" x="161.572266"/>
      <use xlink:href="#DejaVuSans-6f" x="189.355469"/>
      <use xlink:href="#DejaVuSans-67" x="250.537109"/>
      <use xlink:href="#DejaVuSans-72" x="314.013672"/>
      <use xlink:href="#DejaVuSans-61" x="355.126953"/>
      <use xlink:href="#DejaVuSans-6d" x="416.40625"/>
      <use xlink:href="#DejaVuSans-20" x="513.818359"/>
      <use xlink:href="#DejaVuSans-28" x="545.605469"/>
      <use xlink:href="#DejaVuSans-41" x="584.619141"/>
      <use xlink:href="#DejaVuSans-55" x="653.027344"/>
      <use xlink:href="#DejaVuSans-43" x="726.220703"/>
      <use xlink:href="#DejaVuSans-3a" x="796.044922"/>
      <use xlink:href="#DejaVuSans-30" x="829.736328"/>
      <use xlink:href="#DejaVuSans-2e" x="893.359375"/>
      <use xlink:href="#DejaVuSans-30" x="925.146484"/>
      <use xlink:href="#DejaVuSans-31" x="988.769531"/>
      <use xlink:href="#DejaVuSans-33" x="1052.392578"/>
      <use xlink:href="#DejaVuSans-38" x="1116.015625"/>
      <use xlink:href="#DejaVuSans-29" x="1179.638672"/>
     </g>
    </g>
    <g id="line2d_36">
     <path d="M 90 83.494687 
L 100 83.494687 
L 110 83.494687 
" style="fill: none; stroke-dasharray: 5.55,2.4; stroke-dashoffset: 0; stroke: #ff0000; stroke-width: 1.5"/>
    </g>
    <g id="text_19">
     <!-- Higuchi (AUC:0.00951) -->
     <g transform="translate(118 86.994687)scale(0.1 -0.1)">
      <defs>
       <path id="DejaVuSans-48" d="M 628 4666 
L 1259 4666 
L 1259 2753 
L 3553 2753 
L 3553 4666 
L 4184 4666 
L 4184 0 
L 3553 0 
L 3553 2222 
L 1259 2222 
L 1259 0 
L 628 0 
L 628 4666 
z
" transform="scale(0.015625)"/>
       <path id="DejaVuSans-75" d="M 544 1381 
L 544 3500 
L 1119 3500 
L 1119 1403 
Q 1119 906 1312 657 
Q 1506 409 1894 409 
Q 2359 409 2629 706 
Q 2900 1003 2900 1516 
L 2900 3500 
L 3475 3500 
L 3475 0 
L 2900 0 
L 2900 538 
Q 2691 219 2414 64 
Q 2138 -91 1772 -91 
Q 1169 -91 856 284 
Q 544 659 544 1381 
z
M 1991 3584 
L 1991 3584 
z
" transform="scale(0.015625)"/>
       <path id="DejaVuSans-63" d="M 3122 3366 
L 3122 2828 
Q 2878 2963 2633 3030 
Q 2388 3097 2138 3097 
Q 1578 3097 1268 2742 
Q 959 2388 959 1747 
Q 959 1106 1268 751 
Q 1578 397 2138 397 
Q 2388 397 2633 464 
Q 2878 531 3122 666 
L 3122 134 
Q 2881 22 2623 -34 
Q 2366 -91 2075 -91 
Q 1284 -91 818 406 
Q 353 903 353 1747 
Q 353 2603 823 3093 
Q 1294 3584 2113 3584 
Q 2378 3584 2631 3529 
Q 2884 3475 3122 3366 
z
" transform="scale(0.015625)"/>
       <path id="DejaVuSans-68" d="M 3513 2113 
L 3513 0 
L 2938 0 
L 2938 2094 
Q 2938 2591 2744 2837 
Q 2550 3084 2163 3084 
Q 1697 3084 1428 2787 
Q 1159 2491 1159 1978 
L 1159 0 
L 581 0 
L 581 4863 
L 1159 4863 
L 1159 2956 
Q 1366 3272 1645 3428 
Q 1925 3584 2291 3584 
Q 2894 3584 3203 3211 
Q 3513 2838 3513 2113 
z
" transform="scale(0.015625)"/>
       <path id="DejaVuSans-39" d="M 703 97 
L 703 672 
Q 941 559 1184 500 
Q 1428 441 1663 441 
Q 2288 441 2617 861 
Q 2947 1281 2994 2138 
Q 2813 1869 2534 1725 
Q 2256 1581 1919 1581 
Q 1219 1581 811 2004 
Q 403 2428 403 3163 
Q 403 3881 828 4315 
Q 1253 4750 1959 4750 
Q 2769 4750 3195 4129 
Q 3622 3509 3622 2328 
Q 3622 1225 3098 567 
Q 2575 -91 1691 -91 
Q 1453 -91 1209 -44 
Q 966 3 703 97 
z
M 1959 2075 
Q 2384 2075 2632 2365 
Q 2881 2656 2881 3163 
Q 2881 3666 2632 3958 
Q 2384 4250 1959 4250 
Q 1534 4250 1286 3958 
Q 1038 3666 1038 3163 
Q 1038 2656 1286 2365 
Q 1534 2075 1959 2075 
z
" transform="scale(0.015625)"/>
      </defs>
      <use xlink:href="#DejaVuSans-48"/>
      <use xlink:href="#DejaVuSans-69" x="75.195312"/>
      <use xlink:href="#DejaVuSans-67" x="102.978516"/>
      <use xlink:href="#DejaVuSans-75" x="166.455078"/>
      <use xlink:href="#DejaVuSans-63" x="229.833984"/>
      <use xlink:href="#DejaVuSans-68" x="284.814453"/>
      <use xlink:href="#DejaVuSans-69" x="348.193359"/>
      <use xlink:href="#DejaVuSans-20" x="375.976562"/>
      <use xlink:href="#DejaVuSans-28" x="407.763672"/>
      <use xlink:href="#DejaVuSans-41" x="446.777344"/>
      <use xlink:href="#DejaVuSans-55" x="515.185547"/>
      <use xlink:href="#DejaVuSans-43" x="588.378906"/>
      <use xlink:href="#DejaVuSans-3a" x="658.203125"/>
      <use xlink:href="#DejaVuSans-30" x="691.894531"/>
      <use xlink:href="#DejaVuSans-2e" x="755.517578"/>
      <use xlink:href="#DejaVuSans-30" x="787.304688"/>
      <use xlink:href="#DejaVuSans-30" x="850.927734"/>
      <use xlink:href="#DejaVuSans-39" x="914.550781"/>
      <use xlink:href="#DejaVuSans-35" x="978.173828"/>
      <use xlink:href="#DejaVuSans-31" x="1041.796875"/>
      <use xlink:href="#DejaVuSans-29" x="1105.419922"/>
     </g>
    </g>
    <g id="line2d_37">
     <path d="M 90 98.172813 
L 100 98.172813 
L 110 98.172813 
" style="fill: none; stroke: #ff0000; stroke-width: 1.5; stroke-linecap: square"/>
    </g>
    <g id="text_20">
     <!-- Whittle fBm (AUC:0.00609) -->
     <g transform="translate(118 101.672813)scale(0.1 -0.1)">
      <defs>
       <path id="DejaVuSans-57" d="M 213 4666 
L 850 4666 
L 1831 722 
L 2809 4666 
L 3519 4666 
L 4500 722 
L 5478 4666 
L 6119 4666 
L 4947 0 
L 4153 0 
L 3169 4050 
L 2175 0 
L 1381 0 
L 213 4666 
z
" transform="scale(0.015625)"/>
       <path id="DejaVuSans-66" d="M 2375 4863 
L 2375 4384 
L 1825 4384 
Q 1516 4384 1395 4259 
Q 1275 4134 1275 3809 
L 1275 3500 
L 2222 3500 
L 2222 3053 
L 1275 3053 
L 1275 0 
L 697 0 
L 697 3053 
L 147 3053 
L 147 3500 
L 697 3500 
L 697 3744 
Q 697 4328 969 4595 
Q 1241 4863 1831 4863 
L 2375 4863 
z
" transform="scale(0.015625)"/>
       <path id="DejaVuSans-42" d="M 1259 2228 
L 1259 519 
L 2272 519 
Q 2781 519 3026 730 
Q 3272 941 3272 1375 
Q 3272 1813 3026 2020 
Q 2781 2228 2272 2228 
L 1259 2228 
z
M 1259 4147 
L 1259 2741 
L 2194 2741 
Q 2656 2741 2882 2914 
Q 3109 3088 3109 3444 
Q 3109 3797 2882 3972 
Q 2656 4147 2194 4147 
L 1259 4147 
z
M 628 4666 
L 2241 4666 
Q 2963 4666 3353 4366 
Q 3744 4066 3744 3513 
Q 3744 3084 3544 2831 
Q 3344 2578 2956 2516 
Q 3422 2416 3680 2098 
Q 3938 1781 3938 1306 
Q 3938 681 3513 340 
Q 3088 0 2303 0 
L 628 0 
L 628 4666 
z
" transform="scale(0.015625)"/>
      </defs>
      <use xlink:href="#DejaVuSans-57"/>
      <use xlink:href="#DejaVuSans-68" x="98.876953"/>
      <use xlink:href="#DejaVuSans-69" x="162.255859"/>
      <use xlink:href="#DejaVuSans-74" x="190.039062"/>
      <use xlink:href="#DejaVuSans-74" x="229.248047"/>
      <use xlink:href="#DejaVuSans-6c" x="268.457031"/>
      <use xlink:href="#DejaVuSans-65" x="296.240234"/>
      <use xlink:href="#DejaVuSans-20" x="357.763672"/>
      <use xlink:href="#DejaVuSans-66" x="389.550781"/>
      <use xlink:href="#DejaVuSans-42" x="424.755859"/>
      <use xlink:href="#DejaVuSans-6d" x="493.359375"/>
      <use xlink:href="#DejaVuSans-20" x="590.771484"/>
      <use xlink:href="#DejaVuSans-28" x="622.558594"/>
      <use xlink:href="#DejaVuSans-41" x="661.572266"/>
      <use xlink:href="#DejaVuSans-55" x="729.980469"/>
      <use xlink:href="#DejaVuSans-43" x="803.173828"/>
      <use xlink:href="#DejaVuSans-3a" x="872.998047"/>
      <use xlink:href="#DejaVuSans-30" x="906.689453"/>
      <use xlink:href="#DejaVuSans-2e" x="970.3125"/>
      <use xlink:href="#DejaVuSans-30" x="1002.099609"/>
      <use xlink:href="#DejaVuSans-30" x="1065.722656"/>
      <use xlink:href="#DejaVuSans-36" x="1129.345703"/>
      <use xlink:href="#DejaVuSans-30" x="1192.96875"/>
      <use xlink:href="#DejaVuSans-39" x="1256.591797"/>
      <use xlink:href="#DejaVuSans-29" x="1320.214844"/>
     </g>
    </g>
    <g id="line2d_38">
     <path d="M 90 112.850938 
L 100 112.850938 
L 110 112.850938 
" style="fill: none; stroke: #808080; stroke-width: 1.5; stroke-linecap: square"/>
    </g>
    <g id="text_21">
     <!-- Whittle ARFIMA (AUC:0.00688) -->
     <g transform="translate(118 116.350938)scale(0.1 -0.1)">
      <defs>
       <path id="DejaVuSans-46" d="M 628 4666 
L 3309 4666 
L 3309 4134 
L 1259 4134 
L 1259 2759 
L 3109 2759 
L 3109 2228 
L 1259 2228 
L 1259 0 
L 628 0 
L 628 4666 
z
" transform="scale(0.015625)"/>
       <path id="DejaVuSans-49" d="M 628 4666 
L 1259 4666 
L 1259 0 
L 628 0 
L 628 4666 
z
" transform="scale(0.015625)"/>
       <path id="DejaVuSans-4d" d="M 628 4666 
L 1569 4666 
L 2759 1491 
L 3956 4666 
L 4897 4666 
L 4897 0 
L 4281 0 
L 4281 4097 
L 3078 897 
L 2444 897 
L 1241 4097 
L 1241 0 
L 628 0 
L 628 4666 
z
" transform="scale(0.015625)"/>
      </defs>
      <use xlink:href="#DejaVuSans-57"/>
      <use xlink:href="#DejaVuSans-68" x="98.876953"/>
      <use xlink:href="#DejaVuSans-69" x="162.255859"/>
      <use xlink:href="#DejaVuSans-74" x="190.039062"/>
      <use xlink:href="#DejaVuSans-74" x="229.248047"/>
      <use xlink:href="#DejaVuSans-6c" x="268.457031"/>
      <use xlink:href="#DejaVuSans-65" x="296.240234"/>
      <use xlink:href="#DejaVuSans-20" x="357.763672"/>
      <use xlink:href="#DejaVuSans-41" x="389.550781"/>
      <use xlink:href="#DejaVuSans-52" x="457.958984"/>
      <use xlink:href="#DejaVuSans-46" x="527.441406"/>
      <use xlink:href="#DejaVuSans-49" x="584.960938"/>
      <use xlink:href="#DejaVuSans-4d" x="614.453125"/>
      <use xlink:href="#DejaVuSans-41" x="700.732422"/>
      <use xlink:href="#DejaVuSans-20" x="769.140625"/>
      <use xlink:href="#DejaVuSans-28" x="800.927734"/>
      <use xlink:href="#DejaVuSans-41" x="839.941406"/>
      <use xlink:href="#DejaVuSans-55" x="908.349609"/>
      <use xlink:href="#DejaVuSans-43" x="981.542969"/>
      <use xlink:href="#DejaVuSans-3a" x="1051.367188"/>
      <use xlink:href="#DejaVuSans-30" x="1085.058594"/>
      <use xlink:href="#DejaVuSans-2e" x="1148.681641"/>
      <use xlink:href="#DejaVuSans-30" x="1180.46875"/>
      <use xlink:href="#DejaVuSans-30" x="1244.091797"/>
      <use xlink:href="#DejaVuSans-36" x="1307.714844"/>
      <use xlink:href="#DejaVuSans-38" x="1371.337891"/>
      <use xlink:href="#DejaVuSans-38" x="1434.960938"/>
      <use xlink:href="#DejaVuSans-29" x="1498.583984"/>
     </g>
    </g>
    <g id="line2d_39">
     <path d="M 90 127.529063 
L 100 127.529063 
L 110 127.529063 
" style="fill: none; stroke: #ff7f0e; stroke-width: 1.5; stroke-linecap: square"/>
    </g>
    <g id="text_22">
     <!-- 1D CNN (AUC:0.00647) -->
     <g transform="translate(118 131.029063)scale(0.1 -0.1)">
      <defs>
       <path id="DejaVuSans-4e" d="M 628 4666 
L 1478 4666 
L 3547 763 
L 3547 4666 
L 4159 4666 
L 4159 0 
L 3309 0 
L 1241 3903 
L 1241 0 
L 628 0 
L 628 4666 
z
" transform="scale(0.015625)"/>
      </defs>
      <use xlink:href="#DejaVuSans-31"/>
      <use xlink:href="#DejaVuSans-44" x="63.623047"/>
      <use xlink:href="#DejaVuSans-20" x="140.625"/>
      <use xlink:href="#DejaVuSans-43" x="172.412109"/>
      <use xlink:href="#DejaVuSans-4e" x="242.236328"/>
      <use xlink:href="#DejaVuSans-4e" x="317.041016"/>
      <use xlink:href="#DejaVuSans-20" x="391.845703"/>
      <use xlink:href="#DejaVuSans-28" x="423.632812"/>
      <use xlink:href="#DejaVuSans-41" x="462.646484"/>
      <use xlink:href="#DejaVuSans-55" x="531.054688"/>
      <use xlink:href="#DejaVuSans-43" x="604.248047"/>
      <use xlink:href="#DejaVuSans-3a" x="674.072266"/>
      <use xlink:href="#DejaVuSans-30" x="707.763672"/>
      <use xlink:href="#DejaVuSans-2e" x="771.386719"/>
      <use xlink:href="#DejaVuSans-30" x="803.173828"/>
      <use xlink:href="#DejaVuSans-30" x="866.796875"/>
      <use xlink:href="#DejaVuSans-36" x="930.419922"/>
      <use xlink:href="#DejaVuSans-34" x="994.042969"/>
      <use xlink:href="#DejaVuSans-37" x="1057.666016"/>
      <use xlink:href="#DejaVuSans-29" x="1121.289062"/>
     </g>
    </g>
    <g id="line2d_40">
     <path d="M 90 142.207188 
L 100 142.207188 
L 110 142.207188 
" style="fill: none; stroke: #1f77b4; stroke-width: 1.5; stroke-linecap: square"/>
    </g>
    <g id="text_23">
     <!-- LSTM (AUC:0.00621) -->
     <g transform="translate(118 145.707188)scale(0.1 -0.1)">
      <defs>
       <path id="DejaVuSans-4c" d="M 628 4666 
L 1259 4666 
L 1259 531 
L 3531 531 
L 3531 0 
L 628 0 
L 628 4666 
z
" transform="scale(0.015625)"/>
       <path id="DejaVuSans-54" d="M -19 4666 
L 3928 4666 
L 3928 4134 
L 2272 4134 
L 2272 0 
L 1638 0 
L 1638 4134 
L -19 4134 
L -19 4666 
z
" transform="scale(0.015625)"/>
      </defs>
      <use xlink:href="#DejaVuSans-4c"/>
      <use xlink:href="#DejaVuSans-53" x="55.712891"/>
      <use xlink:href="#DejaVuSans-54" x="119.189453"/>
      <use xlink:href="#DejaVuSans-4d" x="180.273438"/>
      <use xlink:href="#DejaVuSans-20" x="266.552734"/>
      <use xlink:href="#DejaVuSans-28" x="298.339844"/>
      <use xlink:href="#DejaVuSans-41" x="337.353516"/>
      <use xlink:href="#DejaVuSans-55" x="405.761719"/>
      <use xlink:href="#DejaVuSans-43" x="478.955078"/>
      <use xlink:href="#DejaVuSans-3a" x="548.779297"/>
      <use xlink:href="#DejaVuSans-30" x="582.470703"/>
      <use xlink:href="#DejaVuSans-2e" x="646.09375"/>
      <use xlink:href="#DejaVuSans-30" x="677.880859"/>
      <use xlink:href="#DejaVuSans-30" x="741.503906"/>
      <use xlink:href="#DejaVuSans-36" x="805.126953"/>
      <use xlink:href="#DejaVuSans-32" x="868.75"/>
      <use xlink:href="#DejaVuSans-31" x="932.373047"/>
      <use xlink:href="#DejaVuSans-29" x="995.996094"/>
     </g>
    </g>
   </g>
  </g>
 </g>
 <defs>
  <clipPath id="p21c48704fd">
   <rect x="81" y="41.04" width="502.2" height="263.34"/>
  </clipPath>
 </defs>
</svg>
