<?xml version="1.0" encoding="utf-8" standalone="no"?>
<!DOCTYPE svg PUBLIC "-//W3C//DTD SVG 1.1//EN"
  "http://www.w3.org/Graphics/SVG/1.1/DTD/svg11.dtd">
<svg xmlns:xlink="http://www.w3.org/1999/xlink" width="432pt" height="252pt" viewBox="0 0 432 252" xmlns="http://www.w3.org/2000/svg" version="1.1">
 <metadata>
  <rdf:RDF xmlns:dc="http://purl.org/dc/elements/1.1/" xmlns:cc="http://creativecommons.org/ns#" xmlns:rdf="http://www.w3.org/1999/02/22-rdf-syntax-ns#">
   <cc:Work>
    <dc:type rdf:resource="http://purl.org/dc/dcmitype/StillImage"/>
    <dc:date>2024-07-02T21:33:48.968328</dc:date>
    <dc:format>image/svg+xml</dc:format>
    <dc:creator>
     <cc:Agent>
      <dc:title>Matplotlib v3.5.1, https://matplotlib.org/</dc:title>
     </cc:Agent>
    </dc:creator>
   </cc:Work>
  </rdf:RDF>
 </metadata>
 <defs>
  <style type="text/css">*{stroke-linejoin: round; stroke-linecap: butt}</style>
 </defs>
 <g id="figure_1">
  <g id="patch_1">
   <path d="M 0 252 
L 432 252 
L 432 0 
L 0 0 
z
" style="fill: #ffffff"/>
  </g>
  <g id="axes_1">
   <g id="patch_2">
    <path d="M 54 224.28 
L 388.8 224.28 
L 388.8 30.24 
L 54 30.24 
L 54 224.28 
z
" style="fill: none; opacity: 0"/>
   </g>
   <g id="matplotlib.axis_1">
    <g id="xtick_1">
     <g id="line2d_1">
      <path d="M 69.218182 224.28 
L 69.218182 30.24 
" clip-path="url(#pfbc2f5e32e)" style="fill: none; stroke: #e6e6e6; stroke-width: 0.8; stroke-linecap: square"/>
     </g>
     <g id="line2d_2">
      <defs>
       <path id="m5dec4c6bc9" d="M 0 0 
L 0 3.5 
" style="stroke: #000000; stroke-width: 0.8"/>
      </defs>
      <g>
       <use xlink:href="#m5dec4c6bc9" x="69.218182" y="224.28" style="stroke: #000000; stroke-width: 0.8"/>
      </g>
     </g>
     <g id="text_1">
      <!-- 0.0 -->
      <g transform="translate(61.266619 238.878438)scale(0.1 -0.1)">
       <defs>
        <path id="DejaVuSans-30" d="M 2034 4250 
Q 1547 4250 1301 3770 
Q 1056 3291 1056 2328 
Q 1056 1369 1301 889 
Q 1547 409 2034 409 
Q 2525 409 2770 889 
Q 3016 1369 3016 2328 
Q 3016 3291 2770 3770 
Q 2525 4250 2034 4250 
z
M 2034 4750 
Q 2819 4750 3233 4129 
Q 3647 3509 3647 2328 
Q 3647 1150 3233 529 
Q 2819 -91 2034 -91 
Q 1250 -91 836 529 
Q 422 1150 422 2328 
Q 422 3509 836 4129 
Q 1250 4750 2034 4750 
z
" transform="scale(0.015625)"/>
        <path id="DejaVuSans-2e" d="M 684 794 
L 1344 794 
L 1344 0 
L 684 0 
L 684 794 
z
" transform="scale(0.015625)"/>
       </defs>
       <use xlink:href="#DejaVuSans-30"/>
       <use xlink:href="#DejaVuSans-2e" x="63.623047"/>
       <use xlink:href="#DejaVuSans-30" x="95.410156"/>
      </g>
     </g>
    </g>
    <g id="xtick_2">
     <g id="line2d_3">
      <path d="M 130.090909 224.28 
L 130.090909 30.24 
" clip-path="url(#pfbc2f5e32e)" style="fill: none; stroke: #e6e6e6; stroke-width: 0.8; stroke-linecap: square"/>
     </g>
     <g id="line2d_4">
      <g>
       <use xlink:href="#m5dec4c6bc9" x="130.090909" y="224.28" style="stroke: #000000; stroke-width: 0.8"/>
      </g>
     </g>
     <g id="text_2">
      <!-- 0.2 -->
      <g transform="translate(122.139347 238.878438)scale(0.1 -0.1)">
       <defs>
        <path id="DejaVuSans-32" d="M 1228 531 
L 3431 531 
L 3431 0 
L 469 0 
L 469 531 
Q 828 903 1448 1529 
Q 2069 2156 2228 2338 
Q 2531 2678 2651 2914 
Q 2772 3150 2772 3378 
Q 2772 3750 2511 3984 
Q 2250 4219 1831 4219 
Q 1534 4219 1204 4116 
Q 875 4013 500 3803 
L 500 4441 
Q 881 4594 1212 4672 
Q 1544 4750 1819 4750 
Q 2544 4750 2975 4387 
Q 3406 4025 3406 3419 
Q 3406 3131 3298 2873 
Q 3191 2616 2906 2266 
Q 2828 2175 2409 1742 
Q 1991 1309 1228 531 
z
" transform="scale(0.015625)"/>
       </defs>
       <use xlink:href="#DejaVuSans-30"/>
       <use xlink:href="#DejaVuSans-2e" x="63.623047"/>
       <use xlink:href="#DejaVuSans-32" x="95.410156"/>
      </g>
     </g>
    </g>
    <g id="xtick_3">
     <g id="line2d_5">
      <path d="M 190.963636 224.28 
L 190.963636 30.24 
" clip-path="url(#pfbc2f5e32e)" style="fill: none; stroke: #e6e6e6; stroke-width: 0.8; stroke-linecap: square"/>
     </g>
     <g id="line2d_6">
      <g>
       <use xlink:href="#m5dec4c6bc9" x="190.963636" y="224.28" style="stroke: #000000; stroke-width: 0.8"/>
      </g>
     </g>
     <g id="text_3">
      <!-- 0.4 -->
      <g transform="translate(183.012074 238.878438)scale(0.1 -0.1)">
       <defs>
        <path id="DejaVuSans-34" d="M 2419 4116 
L 825 1625 
L 2419 1625 
L 2419 4116 
z
M 2253 4666 
L 3047 4666 
L 3047 1625 
L 3713 1625 
L 3713 1100 
L 3047 1100 
L 3047 0 
L 2419 0 
L 2419 1100 
L 313 1100 
L 313 1709 
L 2253 4666 
z
" transform="scale(0.015625)"/>
       </defs>
       <use xlink:href="#DejaVuSans-30"/>
       <use xlink:href="#DejaVuSans-2e" x="63.623047"/>
       <use xlink:href="#DejaVuSans-34" x="95.410156"/>
      </g>
     </g>
    </g>
    <g id="xtick_4">
     <g id="line2d_7">
      <path d="M 251.836364 224.28 
L 251.836364 30.24 
" clip-path="url(#pfbc2f5e32e)" style="fill: none; stroke: #e6e6e6; stroke-width: 0.8; stroke-linecap: square"/>
     </g>
     <g id="line2d_8">
      <g>
       <use xlink:href="#m5dec4c6bc9" x="251.836364" y="224.28" style="stroke: #000000; stroke-width: 0.8"/>
      </g>
     </g>
     <g id="text_4">
      <!-- 0.6 -->
      <g transform="translate(243.884801 238.878438)scale(0.1 -0.1)">
       <defs>
        <path id="DejaVuSans-36" d="M 2113 2584 
Q 1688 2584 1439 2293 
Q 1191 2003 1191 1497 
Q 1191 994 1439 701 
Q 1688 409 2113 409 
Q 2538 409 2786 701 
Q 3034 994 3034 1497 
Q 3034 2003 2786 2293 
Q 2538 2584 2113 2584 
z
M 3366 4563 
L 3366 3988 
Q 3128 4100 2886 4159 
Q 2644 4219 2406 4219 
Q 1781 4219 1451 3797 
Q 1122 3375 1075 2522 
Q 1259 2794 1537 2939 
Q 1816 3084 2150 3084 
Q 2853 3084 3261 2657 
Q 3669 2231 3669 1497 
Q 3669 778 3244 343 
Q 2819 -91 2113 -91 
Q 1303 -91 875 529 
Q 447 1150 447 2328 
Q 447 3434 972 4092 
Q 1497 4750 2381 4750 
Q 2619 4750 2861 4703 
Q 3103 4656 3366 4563 
z
" transform="scale(0.015625)"/>
       </defs>
       <use xlink:href="#DejaVuSans-30"/>
       <use xlink:href="#DejaVuSans-2e" x="63.623047"/>
       <use xlink:href="#DejaVuSans-36" x="95.410156"/>
      </g>
     </g>
    </g>
    <g id="xtick_5">
     <g id="line2d_9">
      <path d="M 312.709091 224.28 
L 312.709091 30.24 
" clip-path="url(#pfbc2f5e32e)" style="fill: none; stroke: #e6e6e6; stroke-width: 0.8; stroke-linecap: square"/>
     </g>
     <g id="line2d_10">
      <g>
       <use xlink:href="#m5dec4c6bc9" x="312.709091" y="224.28" style="stroke: #000000; stroke-width: 0.8"/>
      </g>
     </g>
     <g id="text_5">
      <!-- 0.8 -->
      <g transform="translate(304.757528 238.878438)scale(0.1 -0.1)">
       <defs>
        <path id="DejaVuSans-38" d="M 2034 2216 
Q 1584 2216 1326 1975 
Q 1069 1734 1069 1313 
Q 1069 891 1326 650 
Q 1584 409 2034 409 
Q 2484 409 2743 651 
Q 3003 894 3003 1313 
Q 3003 1734 2745 1975 
Q 2488 2216 2034 2216 
z
M 1403 2484 
Q 997 2584 770 2862 
Q 544 3141 544 3541 
Q 544 4100 942 4425 
Q 1341 4750 2034 4750 
Q 2731 4750 3128 4425 
Q 3525 4100 3525 3541 
Q 3525 3141 3298 2862 
Q 3072 2584 2669 2484 
Q 3125 2378 3379 2068 
Q 3634 1759 3634 1313 
Q 3634 634 3220 271 
Q 2806 -91 2034 -91 
Q 1263 -91 848 271 
Q 434 634 434 1313 
Q 434 1759 690 2068 
Q 947 2378 1403 2484 
z
M 1172 3481 
Q 1172 3119 1398 2916 
Q 1625 2713 2034 2713 
Q 2441 2713 2670 2916 
Q 2900 3119 2900 3481 
Q 2900 3844 2670 4047 
Q 2441 4250 2034 4250 
Q 1625 4250 1398 4047 
Q 1172 3844 1172 3481 
z
" transform="scale(0.015625)"/>
       </defs>
       <use xlink:href="#DejaVuSans-30"/>
       <use xlink:href="#DejaVuSans-2e" x="63.623047"/>
       <use xlink:href="#DejaVuSans-38" x="95.410156"/>
      </g>
     </g>
    </g>
    <g id="xtick_6">
     <g id="line2d_11">
      <path d="M 373.581818 224.28 
L 373.581818 30.24 
" clip-path="url(#pfbc2f5e32e)" style="fill: none; stroke: #e6e6e6; stroke-width: 0.8; stroke-linecap: square"/>
     </g>
     <g id="line2d_12">
      <g>
       <use xlink:href="#m5dec4c6bc9" x="373.581818" y="224.28" style="stroke: #000000; stroke-width: 0.8"/>
      </g>
     </g>
     <g id="text_6">
      <!-- 1.0 -->
      <g transform="translate(365.630256 238.878438)scale(0.1 -0.1)">
       <defs>
        <path id="DejaVuSans-31" d="M 794 531 
L 1825 531 
L 1825 4091 
L 703 3866 
L 703 4441 
L 1819 4666 
L 2450 4666 
L 2450 531 
L 3481 531 
L 3481 0 
L 794 0 
L 794 531 
z
" transform="scale(0.015625)"/>
       </defs>
       <use xlink:href="#DejaVuSans-31"/>
       <use xlink:href="#DejaVuSans-2e" x="63.623047"/>
       <use xlink:href="#DejaVuSans-30" x="95.410156"/>
      </g>
     </g>
    </g>
    <g id="text_7">
     <!-- d + 1/2 -->
     <g transform="translate(202.810937 252.556563)scale(0.1 -0.1)">
      <defs>
       <path id="DejaVuSans-64" d="M 2906 2969 
L 2906 4863 
L 3481 4863 
L 3481 0 
L 2906 0 
L 2906 525 
Q 2725 213 2448 61 
Q 2172 -91 1784 -91 
Q 1150 -91 751 415 
Q 353 922 353 1747 
Q 353 2572 751 3078 
Q 1150 3584 1784 3584 
Q 2172 3584 2448 3432 
Q 2725 3281 2906 2969 
z
M 947 1747 
Q 947 1113 1208 752 
Q 1469 391 1925 391 
Q 2381 391 2643 752 
Q 2906 1113 2906 1747 
Q 2906 2381 2643 2742 
Q 2381 3103 1925 3103 
Q 1469 3103 1208 2742 
Q 947 2381 947 1747 
z
" transform="scale(0.015625)"/>
       <path id="DejaVuSans-20" transform="scale(0.015625)"/>
       <path id="DejaVuSans-2b" d="M 2944 4013 
L 2944 2272 
L 4684 2272 
L 4684 1741 
L 2944 1741 
L 2944 0 
L 2419 0 
L 2419 1741 
L 678 1741 
L 678 2272 
L 2419 2272 
L 2419 4013 
L 2944 4013 
z
" transform="scale(0.015625)"/>
       <path id="DejaVuSans-2f" d="M 1625 4666 
L 2156 4666 
L 531 -594 
L 0 -594 
L 1625 4666 
z
" transform="scale(0.015625)"/>
      </defs>
      <use xlink:href="#DejaVuSans-64"/>
      <use xlink:href="#DejaVuSans-20" x="63.476562"/>
      <use xlink:href="#DejaVuSans-2b" x="95.263672"/>
      <use xlink:href="#DejaVuSans-20" x="179.052734"/>
      <use xlink:href="#DejaVuSans-31" x="210.839844"/>
      <use xlink:href="#DejaVuSans-2f" x="274.462891"/>
      <use xlink:href="#DejaVuSans-32" x="308.154297"/>
     </g>
    </g>
   </g>
   <g id="matplotlib.axis_2">
    <g id="ytick_1">
     <g id="line2d_13">
      <path d="M 54 220.612207 
L 388.8 220.612207 
" clip-path="url(#pfbc2f5e32e)" style="fill: none; stroke: #e6e6e6; stroke-width: 0.8; stroke-linecap: square"/>
     </g>
     <g id="line2d_14">
      <defs>
       <path id="mc43ed2cda2" d="M 0 0 
L -3.5 0 
" style="stroke: #000000; stroke-width: 0.8"/>
      </defs>
      <g>
       <use xlink:href="#mc43ed2cda2" x="54" y="220.612207" style="stroke: #000000; stroke-width: 0.8"/>
      </g>
     </g>
     <g id="text_8">
      <!-- −0.10 -->
      <g transform="translate(16.354687 224.411425)scale(0.1 -0.1)">
       <defs>
        <path id="DejaVuSans-2212" d="M 678 2272 
L 4684 2272 
L 4684 1741 
L 678 1741 
L 678 2272 
z
" transform="scale(0.015625)"/>
       </defs>
       <use xlink:href="#DejaVuSans-2212"/>
       <use xlink:href="#DejaVuSans-30" x="83.789062"/>
       <use xlink:href="#DejaVuSans-2e" x="147.412109"/>
       <use xlink:href="#DejaVuSans-31" x="179.199219"/>
       <use xlink:href="#DejaVuSans-30" x="242.822266"/>
      </g>
     </g>
    </g>
    <g id="ytick_2">
     <g id="line2d_15">
      <path d="M 54 190.759829 
L 388.8 190.759829 
" clip-path="url(#pfbc2f5e32e)" style="fill: none; stroke: #e6e6e6; stroke-width: 0.8; stroke-linecap: square"/>
     </g>
     <g id="line2d_16">
      <g>
       <use xlink:href="#mc43ed2cda2" x="54" y="190.759829" style="stroke: #000000; stroke-width: 0.8"/>
      </g>
     </g>
     <g id="text_9">
      <!-- −0.05 -->
      <g transform="translate(16.354687 194.559048)scale(0.1 -0.1)">
       <defs>
        <path id="DejaVuSans-35" d="M 691 4666 
L 3169 4666 
L 3169 4134 
L 1269 4134 
L 1269 2991 
Q 1406 3038 1543 3061 
Q 1681 3084 1819 3084 
Q 2600 3084 3056 2656 
Q 3513 2228 3513 1497 
Q 3513 744 3044 326 
Q 2575 -91 1722 -91 
Q 1428 -91 1123 -41 
Q 819 9 494 109 
L 494 744 
Q 775 591 1075 516 
Q 1375 441 1709 441 
Q 2250 441 2565 725 
Q 2881 1009 2881 1497 
Q 2881 1984 2565 2268 
Q 2250 2553 1709 2553 
Q 1456 2553 1204 2497 
Q 953 2441 691 2322 
L 691 4666 
z
" transform="scale(0.015625)"/>
       </defs>
       <use xlink:href="#DejaVuSans-2212"/>
       <use xlink:href="#DejaVuSans-30" x="83.789062"/>
       <use xlink:href="#DejaVuSans-2e" x="147.412109"/>
       <use xlink:href="#DejaVuSans-30" x="179.199219"/>
       <use xlink:href="#DejaVuSans-35" x="242.822266"/>
      </g>
     </g>
    </g>
    <g id="ytick_3">
     <g id="line2d_17">
      <path d="M 54 160.907452 
L 388.8 160.907452 
" clip-path="url(#pfbc2f5e32e)" style="fill: none; stroke: #e6e6e6; stroke-width: 0.8; stroke-linecap: square"/>
     </g>
     <g id="line2d_18">
      <g>
       <use xlink:href="#mc43ed2cda2" x="54" y="160.907452" style="stroke: #000000; stroke-width: 0.8"/>
      </g>
     </g>
     <g id="text_10">
      <!-- 0.00 -->
      <g transform="translate(24.734375 164.70667)scale(0.1 -0.1)">
       <use xlink:href="#DejaVuSans-30"/>
       <use xlink:href="#DejaVuSans-2e" x="63.623047"/>
       <use xlink:href="#DejaVuSans-30" x="95.410156"/>
       <use xlink:href="#DejaVuSans-30" x="159.033203"/>
      </g>
     </g>
    </g>
    <g id="ytick_4">
     <g id="line2d_19">
      <path d="M 54 131.055074 
L 388.8 131.055074 
" clip-path="url(#pfbc2f5e32e)" style="fill: none; stroke: #e6e6e6; stroke-width: 0.8; stroke-linecap: square"/>
     </g>
     <g id="line2d_20">
      <g>
       <use xlink:href="#mc43ed2cda2" x="54" y="131.055074" style="stroke: #000000; stroke-width: 0.8"/>
      </g>
     </g>
     <g id="text_11">
      <!-- 0.05 -->
      <g transform="translate(24.734375 134.854293)scale(0.1 -0.1)">
       <use xlink:href="#DejaVuSans-30"/>
       <use xlink:href="#DejaVuSans-2e" x="63.623047"/>
       <use xlink:href="#DejaVuSans-30" x="95.410156"/>
       <use xlink:href="#DejaVuSans-35" x="159.033203"/>
      </g>
     </g>
    </g>
    <g id="ytick_5">
     <g id="line2d_21">
      <path d="M 54 101.202696 
L 388.8 101.202696 
" clip-path="url(#pfbc2f5e32e)" style="fill: none; stroke: #e6e6e6; stroke-width: 0.8; stroke-linecap: square"/>
     </g>
     <g id="line2d_22">
      <g>
       <use xlink:href="#mc43ed2cda2" x="54" y="101.202696" style="stroke: #000000; stroke-width: 0.8"/>
      </g>
     </g>
     <g id="text_12">
      <!-- 0.10 -->
      <g transform="translate(24.734375 105.001915)scale(0.1 -0.1)">
       <use xlink:href="#DejaVuSans-30"/>
       <use xlink:href="#DejaVuSans-2e" x="63.623047"/>
       <use xlink:href="#DejaVuSans-31" x="95.410156"/>
       <use xlink:href="#DejaVuSans-30" x="159.033203"/>
      </g>
     </g>
    </g>
    <g id="ytick_6">
     <g id="line2d_23">
      <path d="M 54 71.350319 
L 388.8 71.350319 
" clip-path="url(#pfbc2f5e32e)" style="fill: none; stroke: #e6e6e6; stroke-width: 0.8; stroke-linecap: square"/>
     </g>
     <g id="line2d_24">
      <g>
       <use xlink:href="#mc43ed2cda2" x="54" y="71.350319" style="stroke: #000000; stroke-width: 0.8"/>
      </g>
     </g>
     <g id="text_13">
      <!-- 0.15 -->
      <g transform="translate(24.734375 75.149538)scale(0.1 -0.1)">
       <use xlink:href="#DejaVuSans-30"/>
       <use xlink:href="#DejaVuSans-2e" x="63.623047"/>
       <use xlink:href="#DejaVuSans-31" x="95.410156"/>
       <use xlink:href="#DejaVuSans-35" x="159.033203"/>
      </g>
     </g>
    </g>
    <g id="ytick_7">
     <g id="line2d_25">
      <path d="M 54 41.497941 
L 388.8 41.497941 
" clip-path="url(#pfbc2f5e32e)" style="fill: none; stroke: #e6e6e6; stroke-width: 0.8; stroke-linecap: square"/>
     </g>
     <g id="line2d_26">
      <g>
       <use xlink:href="#mc43ed2cda2" x="54" y="41.497941" style="stroke: #000000; stroke-width: 0.8"/>
      </g>
     </g>
     <g id="text_14">
      <!-- 0.20 -->
      <g transform="translate(24.734375 45.29716)scale(0.1 -0.1)">
       <use xlink:href="#DejaVuSans-30"/>
       <use xlink:href="#DejaVuSans-2e" x="63.623047"/>
       <use xlink:href="#DejaVuSans-32" x="95.410156"/>
       <use xlink:href="#DejaVuSans-30" x="159.033203"/>
      </g>
     </g>
    </g>
    <g id="text_15">
     <!-- bias -->
     <g transform="translate(10.275 137.492031)rotate(-90)scale(0.1 -0.1)">
      <defs>
       <path id="DejaVuSans-62" d="M 3116 1747 
Q 3116 2381 2855 2742 
Q 2594 3103 2138 3103 
Q 1681 3103 1420 2742 
Q 1159 2381 1159 1747 
Q 1159 1113 1420 752 
Q 1681 391 2138 391 
Q 2594 391 2855 752 
Q 3116 1113 3116 1747 
z
M 1159 2969 
Q 1341 3281 1617 3432 
Q 1894 3584 2278 3584 
Q 2916 3584 3314 3078 
Q 3713 2572 3713 1747 
Q 3713 922 3314 415 
Q 2916 -91 2278 -91 
Q 1894 -91 1617 61 
Q 1341 213 1159 525 
L 1159 0 
L 581 0 
L 581 4863 
L 1159 4863 
L 1159 2969 
z
" transform="scale(0.015625)"/>
       <path id="DejaVuSans-69" d="M 603 3500 
L 1178 3500 
L 1178 0 
L 603 0 
L 603 3500 
z
M 603 4863 
L 1178 4863 
L 1178 4134 
L 603 4134 
L 603 4863 
z
" transform="scale(0.015625)"/>
       <path id="DejaVuSans-61" d="M 2194 1759 
Q 1497 1759 1228 1600 
Q 959 1441 959 1056 
Q 959 750 1161 570 
Q 1363 391 1709 391 
Q 2188 391 2477 730 
Q 2766 1069 2766 1631 
L 2766 1759 
L 2194 1759 
z
M 3341 1997 
L 3341 0 
L 2766 0 
L 2766 531 
Q 2569 213 2275 61 
Q 1981 -91 1556 -91 
Q 1019 -91 701 211 
Q 384 513 384 1019 
Q 384 1609 779 1909 
Q 1175 2209 1959 2209 
L 2766 2209 
L 2766 2266 
Q 2766 2663 2505 2880 
Q 2244 3097 1772 3097 
Q 1472 3097 1187 3025 
Q 903 2953 641 2809 
L 641 3341 
Q 956 3463 1253 3523 
Q 1550 3584 1831 3584 
Q 2591 3584 2966 3190 
Q 3341 2797 3341 1997 
z
" transform="scale(0.015625)"/>
       <path id="DejaVuSans-73" d="M 2834 3397 
L 2834 2853 
Q 2591 2978 2328 3040 
Q 2066 3103 1784 3103 
Q 1356 3103 1142 2972 
Q 928 2841 928 2578 
Q 928 2378 1081 2264 
Q 1234 2150 1697 2047 
L 1894 2003 
Q 2506 1872 2764 1633 
Q 3022 1394 3022 966 
Q 3022 478 2636 193 
Q 2250 -91 1575 -91 
Q 1294 -91 989 -36 
Q 684 19 347 128 
L 347 722 
Q 666 556 975 473 
Q 1284 391 1588 391 
Q 1994 391 2212 530 
Q 2431 669 2431 922 
Q 2431 1156 2273 1281 
Q 2116 1406 1581 1522 
L 1381 1569 
Q 847 1681 609 1914 
Q 372 2147 372 2553 
Q 372 3047 722 3315 
Q 1072 3584 1716 3584 
Q 2034 3584 2315 3537 
Q 2597 3491 2834 3397 
z
" transform="scale(0.015625)"/>
      </defs>
      <use xlink:href="#DejaVuSans-62"/>
      <use xlink:href="#DejaVuSans-69" x="63.476562"/>
      <use xlink:href="#DejaVuSans-61" x="91.259766"/>
      <use xlink:href="#DejaVuSans-73" x="152.539062"/>
     </g>
    </g>
   </g>
   <g id="patch_3">
    <path d="M 54 224.28 
L 54 30.24 
" style="fill: none; stroke: #000000; stroke-width: 0.8; stroke-linejoin: miter; stroke-linecap: square"/>
   </g>
   <g id="patch_4">
    <path d="M 388.8 224.28 
L 388.8 30.24 
" style="fill: none; stroke: #e6e6e6; stroke-width: 0.8; stroke-linejoin: miter; stroke-linecap: square"/>
   </g>
   <g id="patch_5">
    <path d="M 54 224.28 
L 388.8 224.28 
" style="fill: none; stroke: #000000; stroke-width: 0.8; stroke-linejoin: miter; stroke-linecap: square"/>
   </g>
   <g id="patch_6">
    <path d="M 54 30.24 
L 388.8 30.24 
" style="fill: none; stroke: #e6e6e6; stroke-width: 0.8; stroke-linejoin: miter; stroke-linecap: square"/>
   </g>
   <g id="text_16">
    <!-- Biases (steps: 250, interval:+-0.02) -->
    <g transform="translate(114.660938 24.24)scale(0.12 -0.12)">
     <defs>
      <path id="DejaVuSans-42" d="M 1259 2228 
L 1259 519 
L 2272 519 
Q 2781 519 3026 730 
Q 3272 941 3272 1375 
Q 3272 1813 3026 2020 
Q 2781 2228 2272 2228 
L 1259 2228 
z
M 1259 4147 
L 1259 2741 
L 2194 2741 
Q 2656 2741 2882 2914 
Q 3109 3088 3109 3444 
Q 3109 3797 2882 3972 
Q 2656 4147 2194 4147 
L 1259 4147 
z
M 628 4666 
L 2241 4666 
Q 2963 4666 3353 4366 
Q 3744 4066 3744 3513 
Q 3744 3084 3544 2831 
Q 3344 2578 2956 2516 
Q 3422 2416 3680 2098 
Q 3938 1781 3938 1306 
Q 3938 681 3513 340 
Q 3088 0 2303 0 
L 628 0 
L 628 4666 
z
" transform="scale(0.015625)"/>
      <path id="DejaVuSans-65" d="M 3597 1894 
L 3597 1613 
L 953 1613 
Q 991 1019 1311 708 
Q 1631 397 2203 397 
Q 2534 397 2845 478 
Q 3156 559 3463 722 
L 3463 178 
Q 3153 47 2828 -22 
Q 2503 -91 2169 -91 
Q 1331 -91 842 396 
Q 353 884 353 1716 
Q 353 2575 817 3079 
Q 1281 3584 2069 3584 
Q 2775 3584 3186 3129 
Q 3597 2675 3597 1894 
z
M 3022 2063 
Q 3016 2534 2758 2815 
Q 2500 3097 2075 3097 
Q 1594 3097 1305 2825 
Q 1016 2553 972 2059 
L 3022 2063 
z
" transform="scale(0.015625)"/>
      <path id="DejaVuSans-28" d="M 1984 4856 
Q 1566 4138 1362 3434 
Q 1159 2731 1159 2009 
Q 1159 1288 1364 580 
Q 1569 -128 1984 -844 
L 1484 -844 
Q 1016 -109 783 600 
Q 550 1309 550 2009 
Q 550 2706 781 3412 
Q 1013 4119 1484 4856 
L 1984 4856 
z
" transform="scale(0.015625)"/>
      <path id="DejaVuSans-74" d="M 1172 4494 
L 1172 3500 
L 2356 3500 
L 2356 3053 
L 1172 3053 
L 1172 1153 
Q 1172 725 1289 603 
Q 1406 481 1766 481 
L 2356 481 
L 2356 0 
L 1766 0 
Q 1100 0 847 248 
Q 594 497 594 1153 
L 594 3053 
L 172 3053 
L 172 3500 
L 594 3500 
L 594 4494 
L 1172 4494 
z
" transform="scale(0.015625)"/>
      <path id="DejaVuSans-70" d="M 1159 525 
L 1159 -1331 
L 581 -1331 
L 581 3500 
L 1159 3500 
L 1159 2969 
Q 1341 3281 1617 3432 
Q 1894 3584 2278 3584 
Q 2916 3584 3314 3078 
Q 3713 2572 3713 1747 
Q 3713 922 3314 415 
Q 2916 -91 2278 -91 
Q 1894 -91 1617 61 
Q 1341 213 1159 525 
z
M 3116 1747 
Q 3116 2381 2855 2742 
Q 2594 3103 2138 3103 
Q 1681 3103 1420 2742 
Q 1159 2381 1159 1747 
Q 1159 1113 1420 752 
Q 1681 391 2138 391 
Q 2594 391 2855 752 
Q 3116 1113 3116 1747 
z
" transform="scale(0.015625)"/>
      <path id="DejaVuSans-3a" d="M 750 794 
L 1409 794 
L 1409 0 
L 750 0 
L 750 794 
z
M 750 3309 
L 1409 3309 
L 1409 2516 
L 750 2516 
L 750 3309 
z
" transform="scale(0.015625)"/>
      <path id="DejaVuSans-2c" d="M 750 794 
L 1409 794 
L 1409 256 
L 897 -744 
L 494 -744 
L 750 256 
L 750 794 
z
" transform="scale(0.015625)"/>
      <path id="DejaVuSans-6e" d="M 3513 2113 
L 3513 0 
L 2938 0 
L 2938 2094 
Q 2938 2591 2744 2837 
Q 2550 3084 2163 3084 
Q 1697 3084 1428 2787 
Q 1159 2491 1159 1978 
L 1159 0 
L 581 0 
L 581 3500 
L 1159 3500 
L 1159 2956 
Q 1366 3272 1645 3428 
Q 1925 3584 2291 3584 
Q 2894 3584 3203 3211 
Q 3513 2838 3513 2113 
z
" transform="scale(0.015625)"/>
      <path id="DejaVuSans-72" d="M 2631 2963 
Q 2534 3019 2420 3045 
Q 2306 3072 2169 3072 
Q 1681 3072 1420 2755 
Q 1159 2438 1159 1844 
L 1159 0 
L 581 0 
L 581 3500 
L 1159 3500 
L 1159 2956 
Q 1341 3275 1631 3429 
Q 1922 3584 2338 3584 
Q 2397 3584 2469 3576 
Q 2541 3569 2628 3553 
L 2631 2963 
z
" transform="scale(0.015625)"/>
      <path id="DejaVuSans-76" d="M 191 3500 
L 800 3500 
L 1894 563 
L 2988 3500 
L 3597 3500 
L 2284 0 
L 1503 0 
L 191 3500 
z
" transform="scale(0.015625)"/>
      <path id="DejaVuSans-6c" d="M 603 4863 
L 1178 4863 
L 1178 0 
L 603 0 
L 603 4863 
z
" transform="scale(0.015625)"/>
      <path id="DejaVuSans-2d" d="M 313 2009 
L 1997 2009 
L 1997 1497 
L 313 1497 
L 313 2009 
z
" transform="scale(0.015625)"/>
      <path id="DejaVuSans-29" d="M 513 4856 
L 1013 4856 
Q 1481 4119 1714 3412 
Q 1947 2706 1947 2009 
Q 1947 1309 1714 600 
Q 1481 -109 1013 -844 
L 513 -844 
Q 928 -128 1133 580 
Q 1338 1288 1338 2009 
Q 1338 2731 1133 3434 
Q 928 4138 513 4856 
z
" transform="scale(0.015625)"/>
     </defs>
     <use xlink:href="#DejaVuSans-42"/>
     <use xlink:href="#DejaVuSans-69" x="68.603516"/>
     <use xlink:href="#DejaVuSans-61" x="96.386719"/>
     <use xlink:href="#DejaVuSans-73" x="157.666016"/>
     <use xlink:href="#DejaVuSans-65" x="209.765625"/>
     <use xlink:href="#DejaVuSans-73" x="271.289062"/>
     <use xlink:href="#DejaVuSans-20" x="323.388672"/>
     <use xlink:href="#DejaVuSans-28" x="355.175781"/>
     <use xlink:href="#DejaVuSans-73" x="394.189453"/>
     <use xlink:href="#DejaVuSans-74" x="446.289062"/>
     <use xlink:href="#DejaVuSans-65" x="485.498047"/>
     <use xlink:href="#DejaVuSans-70" x="547.021484"/>
     <use xlink:href="#DejaVuSans-73" x="610.498047"/>
     <use xlink:href="#DejaVuSans-3a" x="662.597656"/>
     <use xlink:href="#DejaVuSans-20" x="696.289062"/>
     <use xlink:href="#DejaVuSans-32" x="728.076172"/>
     <use xlink:href="#DejaVuSans-35" x="791.699219"/>
     <use xlink:href="#DejaVuSans-30" x="855.322266"/>
     <use xlink:href="#DejaVuSans-2c" x="918.945312"/>
     <use xlink:href="#DejaVuSans-20" x="950.732422"/>
     <use xlink:href="#DejaVuSans-69" x="982.519531"/>
     <use xlink:href="#DejaVuSans-6e" x="1010.302734"/>
     <use xlink:href="#DejaVuSans-74" x="1073.681641"/>
     <use xlink:href="#DejaVuSans-65" x="1112.890625"/>
     <use xlink:href="#DejaVuSans-72" x="1174.414062"/>
     <use xlink:href="#DejaVuSans-76" x="1215.527344"/>
     <use xlink:href="#DejaVuSans-61" x="1274.707031"/>
     <use xlink:href="#DejaVuSans-6c" x="1335.986328"/>
     <use xlink:href="#DejaVuSans-3a" x="1363.769531"/>
     <use xlink:href="#DejaVuSans-2b" x="1397.460938"/>
     <use xlink:href="#DejaVuSans-2d" x="1481.25"/>
     <use xlink:href="#DejaVuSans-30" x="1517.333984"/>
     <use xlink:href="#DejaVuSans-2e" x="1580.957031"/>
     <use xlink:href="#DejaVuSans-30" x="1612.744141"/>
     <use xlink:href="#DejaVuSans-32" x="1676.367188"/>
     <use xlink:href="#DejaVuSans-29" x="1739.990234"/>
    </g>
   </g>
   <g id="line2d_27">
    <path d="M 69.218182 40.490563 
L 70.440526 41.086123 
L 71.66287 41.961339 
L 75.329901 44.085492 
L 77.774589 46.890461 
L 78.996933 48.083535 
L 81.441621 50.68556 
L 82.663965 51.704482 
L 83.886309 52.950715 
L 87.553341 57.363245 
L 88.775685 58.668422 
L 89.998028 59.717884 
L 91.220372 61.098154 
L 92.442716 62.194127 
L 93.66506 63.071322 
L 94.887404 64.484181 
L 96.109748 65.599558 
L 97.332092 66.945778 
L 98.554436 67.933532 
L 99.77678 69.15876 
L 100.999124 69.589644 
L 103.443812 72.091682 
L 104.666156 73.341618 
L 105.888499 74.326037 
L 107.110843 75.054423 
L 108.333187 76.010888 
L 110.777875 78.828746 
L 112.000219 79.946185 
L 113.222563 81.238557 
L 114.444907 82.137231 
L 115.667251 83.394947 
L 116.889595 83.956045 
L 118.111939 84.827987 
L 120.556627 86.939498 
L 121.77897 87.454798 
L 123.001314 87.796784 
L 124.223658 88.370557 
L 126.668346 90.976994 
L 131.557722 94.162891 
L 135.224754 96.684326 
L 138.891785 99.867177 
L 140.114129 100.043086 
L 141.336473 101.011446 
L 142.558817 101.3371 
L 143.781161 102.054022 
L 145.003505 102.601815 
L 148.670537 105.548756 
L 149.892881 105.569265 
L 151.115225 106.34645 
L 152.337568 107.488999 
L 153.559912 108.112932 
L 154.782256 109.347893 
L 156.0046 109.889398 
L 157.226944 110.721045 
L 158.449288 110.969696 
L 159.671632 111.442008 
L 160.893976 112.088427 
L 162.11632 112.91002 
L 163.338664 113.324845 
L 164.561008 113.871635 
L 165.783352 114.214695 
L 168.228039 116.034087 
L 169.450383 116.727216 
L 170.672727 117.653798 
L 171.895071 118.223851 
L 173.117415 118.368027 
L 174.339759 118.6368 
L 175.562103 119.178199 
L 176.784447 119.965273 
L 178.006791 120.508877 
L 179.229135 120.741847 
L 180.451479 121.70308 
L 182.896166 122.961544 
L 184.11851 123.605297 
L 185.340854 124.012914 
L 186.563198 124.585665 
L 187.785542 125.734299 
L 189.007886 126.190878 
L 190.23023 127.036114 
L 191.452574 127.676124 
L 192.674918 127.814613 
L 193.897262 128.312563 
L 195.119606 128.534815 
L 196.34195 129.436913 
L 197.564294 130.104027 
L 200.008981 130.622768 
L 202.453669 131.525501 
L 203.676013 131.374248 
L 204.898357 132.063864 
L 206.120701 132.453203 
L 208.565389 132.708246 
L 213.454765 135.128922 
L 214.677108 135.35023 
L 215.899452 136.572378 
L 217.121796 136.6115 
L 218.34414 137.146737 
L 219.566484 137.407397 
L 223.233516 137.870713 
L 228.122892 138.744306 
L 229.345235 139.031322 
L 230.567579 139.626401 
L 234.234611 140.337077 
L 235.456955 141.236743 
L 239.123987 142.251519 
L 240.346331 142.454654 
L 241.568675 142.772981 
L 242.791019 143.266652 
L 244.013363 143.58857 
L 246.45805 144.777648 
L 247.680394 144.677472 
L 248.902738 145.142043 
L 250.125082 145.256647 
L 251.347426 145.891199 
L 252.56977 145.648086 
L 253.792114 145.972684 
L 255.014458 145.721738 
L 256.236802 146.344981 
L 258.68149 146.431343 
L 261.126177 147.593846 
L 262.348521 148.454974 
L 263.570865 148.890724 
L 264.793209 149.099861 
L 266.015553 149.027692 
L 267.237897 149.926458 
L 269.682585 150.967254 
L 272.127273 151.682314 
L 273.349617 151.363924 
L 274.571961 151.602528 
L 275.794304 151.233904 
L 278.238992 153.101355 
L 280.68368 154.011828 
L 283.128368 155.822183 
L 284.350712 155.917457 
L 285.573056 156.907852 
L 286.7954 157.272456 
L 288.017744 157.991469 
L 289.240088 158.999361 
L 290.462432 159.177461 
L 294.129463 160.506817 
L 295.351807 160.814452 
L 296.574151 161.492247 
L 299.018839 161.651721 
L 300.241183 162.756074 
L 301.463527 162.516893 
L 302.685871 162.676234 
L 303.908215 163.14269 
L 305.130559 163.299992 
L 306.352903 162.898861 
L 308.79759 164.316535 
L 310.019934 164.924217 
L 311.242278 165.14902 
L 312.464622 165.235713 
L 314.90931 166.086486 
L 316.131654 166.546787 
L 317.353998 167.445241 
L 318.576342 168.531526 
L 319.798686 169.111109 
L 321.02103 169.336657 
L 322.243373 169.92488 
L 323.465717 170.770521 
L 324.688061 171.449467 
L 325.910405 172.920537 
L 327.132749 173.657581 
L 328.355093 174.186065 
L 329.577437 174.438188 
L 330.799781 174.834106 
L 332.022125 175.020285 
L 333.244469 175.689748 
L 334.466813 176.788774 
L 335.689157 177.602307 
L 336.911501 178.12255 
L 338.133844 178.158226 
L 339.356188 178.386394 
L 343.02322 180.899809 
L 344.245564 182.228626 
L 345.467908 182.61392 
L 346.690252 183.146281 
L 347.912596 185.190248 
L 349.13494 186.187786 
L 350.357284 186.373378 
L 351.579628 187.769439 
L 352.801972 188.7994 
L 354.024315 189.214759 
L 355.246659 190.509849 
L 356.469003 191.009707 
L 358.913691 193.599828 
L 360.136035 194.115119 
L 361.358379 195.415624 
L 362.580723 196.528834 
L 366.247755 199.019124 
L 367.470099 200.30622 
L 368.692442 201.315727 
L 369.914786 201.756113 
L 372.359474 201.817071 
L 373.581818 202.181821 
L 373.581818 202.181821 
" clip-path="url(#pfbc2f5e32e)" style="fill: none; stroke-dasharray: 1.5,2.475; stroke-dashoffset: 0; stroke: #ff0000; stroke-width: 1.5"/>
   </g>
   <g id="line2d_28">
    <path d="M 69.218182 39.06 
L 70.440526 39.695912 
L 72.885214 41.321975 
L 74.107558 41.8617 
L 75.329901 42.638738 
L 77.774589 45.035129 
L 82.663965 49.887107 
L 86.330997 53.596327 
L 87.553341 55.0737 
L 88.775685 56.08451 
L 89.998028 57.268537 
L 93.66506 61.135871 
L 96.109748 63.418157 
L 97.332092 64.943512 
L 98.554436 66.177136 
L 100.999124 68.109717 
L 103.443812 70.735874 
L 105.888499 72.334645 
L 108.333187 74.399911 
L 109.555531 75.780241 
L 110.777875 76.750828 
L 115.667251 82.081322 
L 116.889595 83.399421 
L 118.111939 84.180452 
L 120.556627 86.286262 
L 124.223658 89.073151 
L 125.446002 90.395314 
L 129.113034 93.295772 
L 130.335378 94.635339 
L 134.00241 97.960661 
L 135.224754 98.875803 
L 136.447097 100.0641 
L 137.669441 101.078637 
L 138.891785 102.340079 
L 140.114129 103.210072 
L 141.336473 104.336098 
L 142.558817 105.235963 
L 145.003505 106.700056 
L 147.448193 108.703981 
L 149.892881 110.61577 
L 151.115225 111.745164 
L 154.782256 114.599499 
L 156.0046 115.774433 
L 159.671632 118.350822 
L 162.11632 120.40943 
L 167.005696 124.147303 
L 168.228039 125.277297 
L 171.895071 127.898588 
L 174.339759 129.504805 
L 178.006791 132.167848 
L 180.451479 133.872989 
L 181.673823 134.938724 
L 184.11851 136.661201 
L 186.563198 137.901122 
L 187.785542 138.755134 
L 189.007886 139.815893 
L 191.452574 141.327667 
L 195.119606 143.584259 
L 201.231325 146.951248 
L 204.898357 148.933107 
L 206.120701 149.822906 
L 211.010077 152.825533 
L 212.232421 153.674811 
L 213.454765 154.028728 
L 218.34414 156.892337 
L 219.566484 157.441387 
L 222.011172 158.222143 
L 224.45586 159.081429 
L 228.122892 160.60696 
L 229.345235 160.953631 
L 233.012267 162.490699 
L 236.679299 164.289719 
L 237.901643 165.008845 
L 239.123987 165.571305 
L 241.568675 166.272124 
L 245.235706 167.213805 
L 246.45805 167.725335 
L 247.680394 167.993075 
L 248.902738 168.44548 
L 251.347426 169.03344 
L 252.56977 169.040036 
L 256.236802 170.365225 
L 257.459146 170.264335 
L 258.68149 170.369693 
L 259.903834 170.756162 
L 262.348521 171.342855 
L 263.570865 171.815522 
L 266.015553 172.247718 
L 268.460241 173.191942 
L 269.682585 173.602871 
L 273.349617 173.980363 
L 274.571961 173.879296 
L 275.794304 173.513895 
L 277.016648 173.463599 
L 278.238992 173.622989 
L 279.461336 173.663457 
L 280.68368 173.255756 
L 283.128368 173.638077 
L 284.350712 173.362853 
L 285.573056 173.481644 
L 286.7954 173.774969 
L 289.240088 174.098657 
L 290.462432 173.989803 
L 291.684775 173.733242 
L 294.129463 173.95559 
L 295.351807 173.638878 
L 296.574151 173.620461 
L 300.241183 173.103544 
L 303.908215 173.256957 
L 305.130559 172.90908 
L 306.352903 172.068686 
L 308.79759 172.176883 
L 310.019934 172.283947 
L 311.242278 171.812901 
L 312.464622 171.843144 
L 313.686966 171.42853 
L 314.90931 171.259617 
L 316.131654 170.954662 
L 319.798686 171.842666 
L 321.02103 171.391462 
L 322.243373 171.314094 
L 323.465717 171.947202 
L 327.132749 172.339859 
L 328.355093 172.681472 
L 329.577437 172.8898 
L 332.022125 172.724603 
L 334.466813 173.192249 
L 335.689157 172.78647 
L 336.911501 172.507248 
L 338.133844 172.563021 
L 340.578532 173.032834 
L 341.800876 173.675915 
L 343.02322 173.714592 
L 344.245564 173.89615 
L 346.690252 173.894822 
L 349.13494 175.871367 
L 350.357284 175.7856 
L 351.579628 176.215802 
L 352.801972 176.410412 
L 354.024315 176.266309 
L 355.246659 177.506118 
L 356.469003 178.019994 
L 357.691347 178.82175 
L 358.913691 179.378375 
L 361.358379 180.270904 
L 362.580723 181.024568 
L 366.247755 184.017444 
L 367.470099 184.860303 
L 369.914786 186.116006 
L 371.13713 186.421483 
L 372.359474 187.07467 
L 373.581818 187.880248 
L 373.581818 187.880248 
" clip-path="url(#pfbc2f5e32e)" style="fill: none; stroke-dasharray: 9.6,2.4,1.5,2.4; stroke-dashoffset: 0; stroke: #ff0000; stroke-width: 1.5"/>
   </g>
   <g id="line2d_29">
    <path d="M 69.218182 67.806717 
L 70.440526 68.234478 
L 72.885214 69.655932 
L 74.107558 70.192837 
L 75.329901 70.940305 
L 76.552245 72.206877 
L 78.996933 74.240382 
L 82.663965 77.892934 
L 85.108653 80.22675 
L 88.775685 83.813734 
L 92.442716 87.06671 
L 94.887404 88.86916 
L 96.109748 90.042872 
L 97.332092 91.425216 
L 99.77678 93.627248 
L 100.999124 94.283954 
L 103.443812 96.525499 
L 108.333187 99.785933 
L 109.555531 100.871416 
L 112.000219 102.668213 
L 113.222563 103.896389 
L 114.444907 104.742548 
L 115.667251 105.997071 
L 121.77897 110.554907 
L 124.223658 112.083309 
L 129.113034 115.749954 
L 132.780066 118.339347 
L 134.00241 119.165402 
L 136.447097 120.544989 
L 138.891785 122.496959 
L 140.114129 123.127296 
L 143.781161 125.328902 
L 147.448193 127.294171 
L 148.670537 128.161323 
L 149.892881 128.838637 
L 154.782256 132.046756 
L 158.449288 134.286743 
L 162.11632 136.213805 
L 163.338664 136.881178 
L 165.783352 137.890873 
L 169.450383 140.01924 
L 170.672727 140.503211 
L 179.229135 144.779872 
L 181.673823 145.952656 
L 182.896166 146.686501 
L 185.340854 147.690284 
L 186.563198 148.215126 
L 189.007886 149.575993 
L 191.452574 150.699389 
L 193.897262 151.793108 
L 197.564294 153.101573 
L 201.231325 154.262382 
L 202.453669 154.737665 
L 203.676013 155.059232 
L 204.898357 155.500988 
L 206.120701 156.106414 
L 207.343045 156.517036 
L 212.232421 158.55806 
L 214.677108 159.462356 
L 215.899452 160.05886 
L 220.788828 161.287639 
L 222.011172 161.476072 
L 225.678204 162.573047 
L 226.900548 162.730482 
L 233.012267 164.079698 
L 234.234611 164.563705 
L 237.901643 165.391475 
L 239.123987 165.831031 
L 241.568675 166.225848 
L 246.45805 167.26279 
L 247.680394 167.46123 
L 248.902738 167.838321 
L 252.56977 168.410859 
L 256.236802 169.136022 
L 258.68149 169.275371 
L 259.903834 169.433965 
L 261.126177 169.784086 
L 264.793209 170.250927 
L 266.015553 170.321573 
L 272.127273 171.49027 
L 273.349617 171.515478 
L 274.571961 171.686919 
L 275.794304 171.621774 
L 278.238992 171.865572 
L 279.461336 172.16764 
L 280.68368 172.186 
L 281.906024 172.337355 
L 283.128368 172.680013 
L 284.350712 172.61586 
L 286.7954 172.941239 
L 289.240088 173.53792 
L 290.462432 173.629646 
L 291.684775 173.533997 
L 294.129463 173.795537 
L 295.351807 173.58291 
L 296.574151 173.853743 
L 299.018839 173.833576 
L 300.241183 173.97958 
L 301.463527 173.92326 
L 303.908215 174.056946 
L 305.130559 174.019047 
L 306.352903 173.665604 
L 307.575246 173.891164 
L 310.019934 173.954123 
L 311.242278 173.569505 
L 314.90931 173.48726 
L 316.131654 173.500369 
L 317.353998 173.88993 
L 318.576342 174.089521 
L 319.798686 174.412604 
L 321.02103 174.398766 
L 322.243373 174.71122 
L 323.465717 175.281369 
L 324.688061 175.496069 
L 325.910405 175.89868 
L 327.132749 176.099406 
L 328.355093 176.426097 
L 330.799781 176.649299 
L 332.022125 176.654619 
L 333.244469 176.861619 
L 334.466813 177.193206 
L 335.689157 177.339746 
L 338.133844 177.377582 
L 339.356188 177.616268 
L 340.578532 178.050243 
L 341.800876 178.779823 
L 344.245564 179.279802 
L 346.690252 179.796675 
L 349.13494 181.572066 
L 350.357284 181.666187 
L 351.579628 182.348707 
L 352.801972 182.685204 
L 354.024315 182.670484 
L 355.246659 183.905079 
L 358.913691 185.84492 
L 360.136035 186.210997 
L 361.358379 186.799702 
L 362.580723 187.565033 
L 366.247755 190.199933 
L 367.470099 190.942588 
L 369.914786 192.037862 
L 371.13713 192.283708 
L 373.581818 193.48952 
L 373.581818 193.48952 
" clip-path="url(#pfbc2f5e32e)" style="fill: none; stroke-dasharray: 5.55,2.4; stroke-dashoffset: 0; stroke: #ff0000; stroke-width: 1.5"/>
   </g>
   <g id="line2d_30">
    <path d="M 69.218182 75.916068 
L 70.440526 76.284987 
L 75.329901 78.277361 
L 76.552245 79.235385 
L 78.996933 80.78232 
L 85.108653 85.359688 
L 86.330997 86.225439 
L 87.553341 87.3002 
L 91.220372 89.731254 
L 93.66506 91.270188 
L 94.887404 91.988099 
L 99.77678 95.695581 
L 100.999124 96.205296 
L 103.443812 98.00808 
L 108.333187 100.654368 
L 109.555531 101.54308 
L 112.000219 103.011622 
L 113.222563 104.050061 
L 114.444907 104.819786 
L 115.667251 105.852203 
L 116.889595 106.688969 
L 118.111939 107.344276 
L 120.556627 108.882881 
L 125.446002 111.794662 
L 127.89069 113.263032 
L 129.113034 113.943648 
L 131.557722 115.488342 
L 134.00241 117.026632 
L 136.447097 118.348612 
L 138.891785 120.09343 
L 140.114129 120.623738 
L 142.558817 122.075523 
L 147.448193 124.500654 
L 157.226944 130.288023 
L 158.449288 130.881469 
L 160.893976 132.328091 
L 165.783352 134.737179 
L 169.450383 136.934503 
L 171.895071 138.096548 
L 181.673823 142.910732 
L 184.11851 144.196165 
L 186.563198 145.207525 
L 187.785542 145.883678 
L 189.007886 146.694309 
L 191.452574 147.873763 
L 195.119606 149.703361 
L 198.786637 151.180852 
L 201.231325 152.057787 
L 204.898357 153.647024 
L 206.120701 154.373146 
L 207.343045 154.857479 
L 211.010077 156.727834 
L 212.232421 157.453459 
L 214.677108 158.505962 
L 215.899452 159.218827 
L 220.788828 161.097393 
L 223.233516 161.968688 
L 225.678204 162.885535 
L 228.122892 163.746503 
L 233.012267 165.470622 
L 235.456955 166.622262 
L 237.901643 167.713148 
L 239.123987 168.302644 
L 241.568675 169.015488 
L 245.235706 170.409223 
L 252.56977 173.081292 
L 253.792114 173.49574 
L 256.236802 174.528361 
L 259.903834 175.492441 
L 264.793209 177.3743 
L 266.015553 177.770215 
L 269.682585 179.462258 
L 270.904929 179.918534 
L 272.127273 180.525611 
L 275.794304 181.664706 
L 292.907119 187.131523 
L 294.129463 187.700014 
L 295.351807 187.867037 
L 296.574151 188.489452 
L 299.018839 188.893216 
L 301.463527 189.632766 
L 303.908215 190.097136 
L 305.130559 190.5046 
L 307.575246 191.523884 
L 312.464622 192.854801 
L 314.90931 193.573927 
L 325.910405 197.037189 
L 328.355093 197.65629 
L 329.577437 197.974899 
L 332.022125 198.366746 
L 336.911501 199.738218 
L 338.133844 199.959179 
L 340.578532 200.718607 
L 345.467908 202.111957 
L 346.690252 202.510761 
L 347.912596 203.045823 
L 349.13494 203.431027 
L 354.024315 204.543433 
L 355.246659 204.969392 
L 356.469003 205.27296 
L 357.691347 205.400838 
L 358.913691 205.708764 
L 361.358379 206.139748 
L 365.025411 207.391364 
L 366.247755 207.631068 
L 368.692442 208.351428 
L 371.13713 208.752114 
L 372.359474 208.964898 
L 373.581818 209.330741 
L 373.581818 209.330741 
" clip-path="url(#pfbc2f5e32e)" style="fill: none; stroke: #ff0000; stroke-width: 1.5; stroke-linecap: square"/>
   </g>
   <g id="line2d_31">
    <path d="M 69.218182 61.646821 
L 70.440526 62.166618 
L 75.329901 64.866388 
L 76.552245 66.133551 
L 80.219277 69.383681 
L 82.663965 71.608095 
L 86.330997 74.864699 
L 87.553341 76.117749 
L 89.998028 77.993115 
L 92.442716 80.103604 
L 94.887404 81.875727 
L 96.109748 83.016913 
L 97.332092 84.352908 
L 99.77678 86.486697 
L 100.999124 87.172344 
L 103.443812 89.413597 
L 108.333187 92.532283 
L 109.555531 93.574545 
L 112.000219 95.298849 
L 113.222563 96.465827 
L 114.444907 97.383658 
L 116.889595 99.533599 
L 118.111939 100.338959 
L 120.556627 102.178005 
L 125.446002 105.744441 
L 134.00241 111.833689 
L 135.224754 112.546132 
L 137.669441 114.356193 
L 138.891785 115.374053 
L 140.114129 116.050723 
L 142.558817 117.744379 
L 145.003505 119.146193 
L 163.338664 130.740639 
L 165.783352 132.165745 
L 169.450383 134.74362 
L 171.895071 136.102377 
L 187.785542 144.771502 
L 189.007886 145.684372 
L 192.674918 147.636911 
L 195.119606 148.936693 
L 198.786637 150.482587 
L 201.231325 151.444013 
L 204.898357 153.202731 
L 206.120701 154.023773 
L 207.343045 154.578896 
L 212.232421 157.458928 
L 214.677108 158.534526 
L 215.899452 159.227412 
L 219.566484 160.714289 
L 222.011172 161.410342 
L 225.678204 162.828827 
L 228.122892 163.717137 
L 230.567579 164.726037 
L 231.789923 165.024631 
L 233.012267 165.540418 
L 234.234611 166.187687 
L 237.901643 167.726773 
L 239.123987 168.293368 
L 241.568675 168.976268 
L 244.013363 169.908553 
L 247.680394 171.228502 
L 248.902738 171.90606 
L 251.347426 172.76202 
L 257.459146 175.175997 
L 258.68149 175.430124 
L 261.126177 176.393854 
L 263.570865 177.531474 
L 266.015553 178.364564 
L 268.460241 179.668544 
L 273.349617 181.716485 
L 275.794304 182.554534 
L 286.7954 186.422143 
L 289.240088 187.475016 
L 290.462432 187.83916 
L 292.907119 188.861338 
L 294.129463 189.562773 
L 295.351807 189.849423 
L 296.574151 190.545311 
L 297.796495 190.745785 
L 299.018839 191.061749 
L 301.463527 192.028202 
L 303.908215 192.6466 
L 305.130559 193.165719 
L 307.575246 194.377043 
L 319.798686 199.066711 
L 321.02103 199.374392 
L 325.910405 201.08572 
L 328.355093 201.75363 
L 329.577437 202.163711 
L 332.022125 202.619906 
L 335.689157 203.75894 
L 341.800876 205.439586 
L 346.690252 207.138602 
L 347.912596 207.858483 
L 349.13494 208.335138 
L 351.579628 209.095798 
L 356.469003 210.772978 
L 360.136035 211.672855 
L 361.358379 212.094553 
L 362.580723 212.672411 
L 365.025411 213.484476 
L 366.247755 213.687179 
L 368.692442 214.497329 
L 373.581818 215.46 
L 373.581818 215.46 
" clip-path="url(#pfbc2f5e32e)" style="fill: none; stroke: #ff7f0e; stroke-width: 1.5; stroke-linecap: square"/>
   </g>
   <g id="line2d_32">
    <path d="M 69.218182 66.289052 
L 70.440526 66.766325 
L 75.329901 69.270552 
L 76.552245 70.452507 
L 80.219277 73.520417 
L 82.663965 75.645894 
L 85.108653 77.75867 
L 86.330997 78.795743 
L 87.553341 80.019854 
L 89.998028 81.883892 
L 92.442716 83.868832 
L 94.887404 85.555512 
L 96.109748 86.656374 
L 97.332092 87.928345 
L 99.77678 89.965727 
L 100.999124 90.624265 
L 103.443812 92.801176 
L 108.333187 95.982369 
L 109.555531 97.045883 
L 112.000219 98.796945 
L 113.222563 99.940953 
L 114.444907 100.821491 
L 115.667251 101.95866 
L 116.889595 102.885309 
L 118.111939 103.587539 
L 120.556627 105.229083 
L 129.113034 110.507557 
L 131.557722 112.182471 
L 135.224754 114.591055 
L 136.447097 115.393465 
L 138.891785 117.356055 
L 140.114129 117.996162 
L 142.558817 119.606845 
L 147.448193 122.22929 
L 157.226944 128.336778 
L 158.449288 128.976989 
L 160.893976 130.501146 
L 165.783352 133.025403 
L 169.450383 135.314338 
L 178.006791 139.82212 
L 180.451479 141.073932 
L 185.340854 143.629238 
L 186.563198 144.172975 
L 187.785542 144.879922 
L 189.007886 145.718869 
L 192.674918 147.586824 
L 195.119606 148.854838 
L 198.786637 150.423768 
L 201.231325 151.361931 
L 204.898357 153.010382 
L 206.120701 153.779064 
L 207.343045 154.276177 
L 211.010077 156.216583 
L 212.232421 156.973617 
L 214.677108 158.059421 
L 215.899452 158.789007 
L 219.566484 160.343251 
L 222.011172 161.08999 
L 230.567579 164.240174 
L 231.789923 164.506115 
L 233.012267 164.995575 
L 234.234611 165.6433 
L 237.901643 167.244184 
L 239.123987 167.831459 
L 241.568675 168.527451 
L 244.013363 169.470624 
L 247.680394 170.746459 
L 248.902738 171.409118 
L 251.347426 172.168867 
L 257.459146 174.493163 
L 258.68149 174.74183 
L 261.126177 175.650754 
L 263.570865 176.731989 
L 266.015553 177.48934 
L 268.460241 178.676768 
L 273.349617 180.595778 
L 275.794304 181.404433 
L 288.017744 185.486506 
L 289.240088 185.959635 
L 291.684775 186.678923 
L 292.907119 187.087383 
L 294.129463 187.644709 
L 295.351807 187.789045 
L 296.574151 188.382374 
L 299.018839 188.728748 
L 300.241183 189.136634 
L 302.685871 189.592255 
L 303.908215 189.822038 
L 306.352903 190.644214 
L 307.575246 191.091401 
L 312.464622 192.149896 
L 313.686966 192.511411 
L 316.131654 193.085394 
L 317.353998 193.468833 
L 318.576342 193.723045 
L 319.798686 194.138438 
L 322.243373 194.744596 
L 324.688061 195.443554 
L 327.132749 196.062955 
L 329.577437 196.703563 
L 332.022125 197.086571 
L 335.689157 198.158066 
L 336.911501 198.470525 
L 338.133844 198.666284 
L 340.578532 199.406164 
L 344.245564 200.450905 
L 346.690252 201.282844 
L 347.912596 201.918048 
L 349.13494 202.332906 
L 351.579628 202.942096 
L 356.469003 204.432169 
L 357.691347 204.54567 
L 360.136035 205.028119 
L 361.358379 205.298536 
L 362.580723 205.773621 
L 365.025411 206.502755 
L 366.247755 206.677783 
L 369.914786 207.590354 
L 372.359474 207.919713 
L 373.581818 208.247486 
L 373.581818 208.247486 
" clip-path="url(#pfbc2f5e32e)" style="fill: none; stroke: #1f77b4; stroke-width: 1.5; stroke-linecap: square"/>
   </g>
   <g id="legend_1">
    <g id="patch_7">
     <path d="M 227.934375 126.30875 
L 381.8 126.30875 
Q 383.8 126.30875 383.8 124.30875 
L 383.8 37.24 
Q 383.8 35.24 381.8 35.24 
L 227.934375 35.24 
Q 225.934375 35.24 225.934375 37.24 
L 225.934375 124.30875 
Q 225.934375 126.30875 227.934375 126.30875 
z
" style="fill: #ffffff; opacity: 0.8; stroke: #e6e6e6; stroke-linejoin: miter"/>
    </g>
    <g id="line2d_33">
     <path d="M 229.934375 43.338437 
L 239.934375 43.338437 
L 249.934375 43.338437 
" style="fill: none; stroke-dasharray: 1.5,2.475; stroke-dashoffset: 0; stroke: #ff0000; stroke-width: 1.5"/>
    </g>
    <g id="text_17">
     <!-- R/S (AUC:0.066) -->
     <g transform="translate(257.934375 46.838437)scale(0.1 -0.1)">
      <defs>
       <path id="DejaVuSans-52" d="M 2841 2188 
Q 3044 2119 3236 1894 
Q 3428 1669 3622 1275 
L 4263 0 
L 3584 0 
L 2988 1197 
Q 2756 1666 2539 1819 
Q 2322 1972 1947 1972 
L 1259 1972 
L 1259 0 
L 628 0 
L 628 4666 
L 2053 4666 
Q 2853 4666 3247 4331 
Q 3641 3997 3641 3322 
Q 3641 2881 3436 2590 
Q 3231 2300 2841 2188 
z
M 1259 4147 
L 1259 2491 
L 2053 2491 
Q 2509 2491 2742 2702 
Q 2975 2913 2975 3322 
Q 2975 3731 2742 3939 
Q 2509 4147 2053 4147 
L 1259 4147 
z
" transform="scale(0.015625)"/>
       <path id="DejaVuSans-53" d="M 3425 4513 
L 3425 3897 
Q 3066 4069 2747 4153 
Q 2428 4238 2131 4238 
Q 1616 4238 1336 4038 
Q 1056 3838 1056 3469 
Q 1056 3159 1242 3001 
Q 1428 2844 1947 2747 
L 2328 2669 
Q 3034 2534 3370 2195 
Q 3706 1856 3706 1288 
Q 3706 609 3251 259 
Q 2797 -91 1919 -91 
Q 1588 -91 1214 -16 
Q 841 59 441 206 
L 441 856 
Q 825 641 1194 531 
Q 1563 422 1919 422 
Q 2459 422 2753 634 
Q 3047 847 3047 1241 
Q 3047 1584 2836 1778 
Q 2625 1972 2144 2069 
L 1759 2144 
Q 1053 2284 737 2584 
Q 422 2884 422 3419 
Q 422 4038 858 4394 
Q 1294 4750 2059 4750 
Q 2388 4750 2728 4690 
Q 3069 4631 3425 4513 
z
" transform="scale(0.015625)"/>
       <path id="DejaVuSans-41" d="M 2188 4044 
L 1331 1722 
L 3047 1722 
L 2188 4044 
z
M 1831 4666 
L 2547 4666 
L 4325 0 
L 3669 0 
L 3244 1197 
L 1141 1197 
L 716 0 
L 50 0 
L 1831 4666 
z
" transform="scale(0.015625)"/>
       <path id="DejaVuSans-55" d="M 556 4666 
L 1191 4666 
L 1191 1831 
Q 1191 1081 1462 751 
Q 1734 422 2344 422 
Q 2950 422 3222 751 
Q 3494 1081 3494 1831 
L 3494 4666 
L 4128 4666 
L 4128 1753 
Q 4128 841 3676 375 
Q 3225 -91 2344 -91 
Q 1459 -91 1007 375 
Q 556 841 556 1753 
L 556 4666 
z
" transform="scale(0.015625)"/>
       <path id="DejaVuSans-43" d="M 4122 4306 
L 4122 3641 
Q 3803 3938 3442 4084 
Q 3081 4231 2675 4231 
Q 1875 4231 1450 3742 
Q 1025 3253 1025 2328 
Q 1025 1406 1450 917 
Q 1875 428 2675 428 
Q 3081 428 3442 575 
Q 3803 722 4122 1019 
L 4122 359 
Q 3791 134 3420 21 
Q 3050 -91 2638 -91 
Q 1578 -91 968 557 
Q 359 1206 359 2328 
Q 359 3453 968 4101 
Q 1578 4750 2638 4750 
Q 3056 4750 3426 4639 
Q 3797 4528 4122 4306 
z
" transform="scale(0.015625)"/>
      </defs>
      <use xlink:href="#DejaVuSans-52"/>
      <use xlink:href="#DejaVuSans-2f" x="69.482422"/>
      <use xlink:href="#DejaVuSans-53" x="103.173828"/>
      <use xlink:href="#DejaVuSans-20" x="166.650391"/>
      <use xlink:href="#DejaVuSans-28" x="198.4375"/>
      <use xlink:href="#DejaVuSans-41" x="237.451172"/>
      <use xlink:href="#DejaVuSans-55" x="305.859375"/>
      <use xlink:href="#DejaVuSans-43" x="379.052734"/>
      <use xlink:href="#DejaVuSans-3a" x="448.876953"/>
      <use xlink:href="#DejaVuSans-30" x="482.568359"/>
      <use xlink:href="#DejaVuSans-2e" x="546.191406"/>
      <use xlink:href="#DejaVuSans-30" x="577.978516"/>
      <use xlink:href="#DejaVuSans-36" x="641.601562"/>
      <use xlink:href="#DejaVuSans-36" x="705.224609"/>
      <use xlink:href="#DejaVuSans-29" x="768.847656"/>
     </g>
    </g>
    <g id="line2d_34">
     <path d="M 229.934375 58.016562 
L 239.934375 58.016562 
L 249.934375 58.016562 
" style="fill: none; stroke-dasharray: 9.6,2.4,1.5,2.4; stroke-dashoffset: 0; stroke: #ff0000; stroke-width: 1.5"/>
    </g>
    <g id="text_18">
     <!-- variogram (AUC:0.0578) -->
     <g transform="translate(257.934375 61.516562)scale(0.1 -0.1)">
      <defs>
       <path id="DejaVuSans-6f" d="M 1959 3097 
Q 1497 3097 1228 2736 
Q 959 2375 959 1747 
Q 959 1119 1226 758 
Q 1494 397 1959 397 
Q 2419 397 2687 759 
Q 2956 1122 2956 1747 
Q 2956 2369 2687 2733 
Q 2419 3097 1959 3097 
z
M 1959 3584 
Q 2709 3584 3137 3096 
Q 3566 2609 3566 1747 
Q 3566 888 3137 398 
Q 2709 -91 1959 -91 
Q 1206 -91 779 398 
Q 353 888 353 1747 
Q 353 2609 779 3096 
Q 1206 3584 1959 3584 
z
" transform="scale(0.015625)"/>
       <path id="DejaVuSans-67" d="M 2906 1791 
Q 2906 2416 2648 2759 
Q 2391 3103 1925 3103 
Q 1463 3103 1205 2759 
Q 947 2416 947 1791 
Q 947 1169 1205 825 
Q 1463 481 1925 481 
Q 2391 481 2648 825 
Q 2906 1169 2906 1791 
z
M 3481 434 
Q 3481 -459 3084 -895 
Q 2688 -1331 1869 -1331 
Q 1566 -1331 1297 -1286 
Q 1028 -1241 775 -1147 
L 775 -588 
Q 1028 -725 1275 -790 
Q 1522 -856 1778 -856 
Q 2344 -856 2625 -561 
Q 2906 -266 2906 331 
L 2906 616 
Q 2728 306 2450 153 
Q 2172 0 1784 0 
Q 1141 0 747 490 
Q 353 981 353 1791 
Q 353 2603 747 3093 
Q 1141 3584 1784 3584 
Q 2172 3584 2450 3431 
Q 2728 3278 2906 2969 
L 2906 3500 
L 3481 3500 
L 3481 434 
z
" transform="scale(0.015625)"/>
       <path id="DejaVuSans-6d" d="M 3328 2828 
Q 3544 3216 3844 3400 
Q 4144 3584 4550 3584 
Q 5097 3584 5394 3201 
Q 5691 2819 5691 2113 
L 5691 0 
L 5113 0 
L 5113 2094 
Q 5113 2597 4934 2840 
Q 4756 3084 4391 3084 
Q 3944 3084 3684 2787 
Q 3425 2491 3425 1978 
L 3425 0 
L 2847 0 
L 2847 2094 
Q 2847 2600 2669 2842 
Q 2491 3084 2119 3084 
Q 1678 3084 1418 2786 
Q 1159 2488 1159 1978 
L 1159 0 
L 581 0 
L 581 3500 
L 1159 3500 
L 1159 2956 
Q 1356 3278 1631 3431 
Q 1906 3584 2284 3584 
Q 2666 3584 2933 3390 
Q 3200 3197 3328 2828 
z
" transform="scale(0.015625)"/>
       <path id="DejaVuSans-37" d="M 525 4666 
L 3525 4666 
L 3525 4397 
L 1831 0 
L 1172 0 
L 2766 4134 
L 525 4134 
L 525 4666 
z
" transform="scale(0.015625)"/>
      </defs>
      <use xlink:href="#DejaVuSans-76"/>
      <use xlink:href="#DejaVuSans-61" x="59.179688"/>
      <use xlink:href="#DejaVuSans-72" x="120.458984"/>
      <use xlink:href="#DejaVuSans-69" x="161.572266"/>
      <use xlink:href="#DejaVuSans-6f" x="189.355469"/>
      <use xlink:href="#DejaVuSans-67" x="250.537109"/>
      <use xlink:href="#DejaVuSans-72" x="314.013672"/>
      <use xlink:href="#DejaVuSans-61" x="355.126953"/>
      <use xlink:href="#DejaVuSans-6d" x="416.40625"/>
      <use xlink:href="#DejaVuSans-20" x="513.818359"/>
      <use xlink:href="#DejaVuSans-28" x="545.605469"/>
      <use xlink:href="#DejaVuSans-41" x="584.619141"/>
      <use xlink:href="#DejaVuSans-55" x="653.027344"/>
      <use xlink:href="#DejaVuSans-43" x="726.220703"/>
      <use xlink:href="#DejaVuSans-3a" x="796.044922"/>
      <use xlink:href="#DejaVuSans-30" x="829.736328"/>
      <use xlink:href="#DejaVuSans-2e" x="893.359375"/>
      <use xlink:href="#DejaVuSans-30" x="925.146484"/>
      <use xlink:href="#DejaVuSans-35" x="988.769531"/>
      <use xlink:href="#DejaVuSans-37" x="1052.392578"/>
      <use xlink:href="#DejaVuSans-38" x="1116.015625"/>
      <use xlink:href="#DejaVuSans-29" x="1179.638672"/>
     </g>
    </g>
    <g id="line2d_35">
     <path d="M 229.934375 72.694687 
L 239.934375 72.694687 
L 249.934375 72.694687 
" style="fill: none; stroke-dasharray: 5.55,2.4; stroke-dashoffset: 0; stroke: #ff0000; stroke-width: 1.5"/>
    </g>
    <g id="text_19">
     <!-- Higuchi (AUC:0.0441) -->
     <g transform="translate(257.934375 76.194687)scale(0.1 -0.1)">
      <defs>
       <path id="DejaVuSans-48" d="M 628 4666 
L 1259 4666 
L 1259 2753 
L 3553 2753 
L 3553 4666 
L 4184 4666 
L 4184 0 
L 3553 0 
L 3553 2222 
L 1259 2222 
L 1259 0 
L 628 0 
L 628 4666 
z
" transform="scale(0.015625)"/>
       <path id="DejaVuSans-75" d="M 544 1381 
L 544 3500 
L 1119 3500 
L 1119 1403 
Q 1119 906 1312 657 
Q 1506 409 1894 409 
Q 2359 409 2629 706 
Q 2900 1003 2900 1516 
L 2900 3500 
L 3475 3500 
L 3475 0 
L 2900 0 
L 2900 538 
Q 2691 219 2414 64 
Q 2138 -91 1772 -91 
Q 1169 -91 856 284 
Q 544 659 544 1381 
z
M 1991 3584 
L 1991 3584 
z
" transform="scale(0.015625)"/>
       <path id="DejaVuSans-63" d="M 3122 3366 
L 3122 2828 
Q 2878 2963 2633 3030 
Q 2388 3097 2138 3097 
Q 1578 3097 1268 2742 
Q 959 2388 959 1747 
Q 959 1106 1268 751 
Q 1578 397 2138 397 
Q 2388 397 2633 464 
Q 2878 531 3122 666 
L 3122 134 
Q 2881 22 2623 -34 
Q 2366 -91 2075 -91 
Q 1284 -91 818 406 
Q 353 903 353 1747 
Q 353 2603 823 3093 
Q 1294 3584 2113 3584 
Q 2378 3584 2631 3529 
Q 2884 3475 3122 3366 
z
" transform="scale(0.015625)"/>
       <path id="DejaVuSans-68" d="M 3513 2113 
L 3513 0 
L 2938 0 
L 2938 2094 
Q 2938 2591 2744 2837 
Q 2550 3084 2163 3084 
Q 1697 3084 1428 2787 
Q 1159 2491 1159 1978 
L 1159 0 
L 581 0 
L 581 4863 
L 1159 4863 
L 1159 2956 
Q 1366 3272 1645 3428 
Q 1925 3584 2291 3584 
Q 2894 3584 3203 3211 
Q 3513 2838 3513 2113 
z
" transform="scale(0.015625)"/>
      </defs>
      <use xlink:href="#DejaVuSans-48"/>
      <use xlink:href="#DejaVuSans-69" x="75.195312"/>
      <use xlink:href="#DejaVuSans-67" x="102.978516"/>
      <use xlink:href="#DejaVuSans-75" x="166.455078"/>
      <use xlink:href="#DejaVuSans-63" x="229.833984"/>
      <use xlink:href="#DejaVuSans-68" x="284.814453"/>
      <use xlink:href="#DejaVuSans-69" x="348.193359"/>
      <use xlink:href="#DejaVuSans-20" x="375.976562"/>
      <use xlink:href="#DejaVuSans-28" x="407.763672"/>
      <use xlink:href="#DejaVuSans-41" x="446.777344"/>
      <use xlink:href="#DejaVuSans-55" x="515.185547"/>
      <use xlink:href="#DejaVuSans-43" x="588.378906"/>
      <use xlink:href="#DejaVuSans-3a" x="658.203125"/>
      <use xlink:href="#DejaVuSans-30" x="691.894531"/>
      <use xlink:href="#DejaVuSans-2e" x="755.517578"/>
      <use xlink:href="#DejaVuSans-30" x="787.304688"/>
      <use xlink:href="#DejaVuSans-34" x="850.927734"/>
      <use xlink:href="#DejaVuSans-34" x="914.550781"/>
      <use xlink:href="#DejaVuSans-31" x="978.173828"/>
      <use xlink:href="#DejaVuSans-29" x="1041.796875"/>
     </g>
    </g>
    <g id="line2d_36">
     <path d="M 229.934375 87.372813 
L 239.934375 87.372813 
L 249.934375 87.372813 
" style="fill: none; stroke: #ff0000; stroke-width: 1.5; stroke-linecap: square"/>
    </g>
    <g id="text_20">
     <!-- Whittle (AUC:0.0555) -->
     <g transform="translate(257.934375 90.872813)scale(0.1 -0.1)">
      <defs>
       <path id="DejaVuSans-57" d="M 213 4666 
L 850 4666 
L 1831 722 
L 2809 4666 
L 3519 4666 
L 4500 722 
L 5478 4666 
L 6119 4666 
L 4947 0 
L 4153 0 
L 3169 4050 
L 2175 0 
L 1381 0 
L 213 4666 
z
" transform="scale(0.015625)"/>
      </defs>
      <use xlink:href="#DejaVuSans-57"/>
      <use xlink:href="#DejaVuSans-68" x="98.876953"/>
      <use xlink:href="#DejaVuSans-69" x="162.255859"/>
      <use xlink:href="#DejaVuSans-74" x="190.039062"/>
      <use xlink:href="#DejaVuSans-74" x="229.248047"/>
      <use xlink:href="#DejaVuSans-6c" x="268.457031"/>
      <use xlink:href="#DejaVuSans-65" x="296.240234"/>
      <use xlink:href="#DejaVuSans-20" x="357.763672"/>
      <use xlink:href="#DejaVuSans-28" x="389.550781"/>
      <use xlink:href="#DejaVuSans-41" x="428.564453"/>
      <use xlink:href="#DejaVuSans-55" x="496.972656"/>
      <use xlink:href="#DejaVuSans-43" x="570.166016"/>
      <use xlink:href="#DejaVuSans-3a" x="639.990234"/>
      <use xlink:href="#DejaVuSans-30" x="673.681641"/>
      <use xlink:href="#DejaVuSans-2e" x="737.304688"/>
      <use xlink:href="#DejaVuSans-30" x="769.091797"/>
      <use xlink:href="#DejaVuSans-35" x="832.714844"/>
      <use xlink:href="#DejaVuSans-35" x="896.337891"/>
      <use xlink:href="#DejaVuSans-35" x="959.960938"/>
      <use xlink:href="#DejaVuSans-29" x="1023.583984"/>
     </g>
    </g>
    <g id="line2d_37">
     <path d="M 229.934375 102.050938 
L 239.934375 102.050938 
L 249.934375 102.050938 
" style="fill: none; stroke: #ff7f0e; stroke-width: 1.5; stroke-linecap: square"/>
    </g>
    <g id="text_21">
     <!-- 1D CNN (AUC:0.0619) -->
     <g transform="translate(257.934375 105.550938)scale(0.1 -0.1)">
      <defs>
       <path id="DejaVuSans-44" d="M 1259 4147 
L 1259 519 
L 2022 519 
Q 2988 519 3436 956 
Q 3884 1394 3884 2338 
Q 3884 3275 3436 3711 
Q 2988 4147 2022 4147 
L 1259 4147 
z
M 628 4666 
L 1925 4666 
Q 3281 4666 3915 4102 
Q 4550 3538 4550 2338 
Q 4550 1131 3912 565 
Q 3275 0 1925 0 
L 628 0 
L 628 4666 
z
" transform="scale(0.015625)"/>
       <path id="DejaVuSans-4e" d="M 628 4666 
L 1478 4666 
L 3547 763 
L 3547 4666 
L 4159 4666 
L 4159 0 
L 3309 0 
L 1241 3903 
L 1241 0 
L 628 0 
L 628 4666 
z
" transform="scale(0.015625)"/>
       <path id="DejaVuSans-39" d="M 703 97 
L 703 672 
Q 941 559 1184 500 
Q 1428 441 1663 441 
Q 2288 441 2617 861 
Q 2947 1281 2994 2138 
Q 2813 1869 2534 1725 
Q 2256 1581 1919 1581 
Q 1219 1581 811 2004 
Q 403 2428 403 3163 
Q 403 3881 828 4315 
Q 1253 4750 1959 4750 
Q 2769 4750 3195 4129 
Q 3622 3509 3622 2328 
Q 3622 1225 3098 567 
Q 2575 -91 1691 -91 
Q 1453 -91 1209 -44 
Q 966 3 703 97 
z
M 1959 2075 
Q 2384 2075 2632 2365 
Q 2881 2656 2881 3163 
Q 2881 3666 2632 3958 
Q 2384 4250 1959 4250 
Q 1534 4250 1286 3958 
Q 1038 3666 1038 3163 
Q 1038 2656 1286 2365 
Q 1534 2075 1959 2075 
z
" transform="scale(0.015625)"/>
      </defs>
      <use xlink:href="#DejaVuSans-31"/>
      <use xlink:href="#DejaVuSans-44" x="63.623047"/>
      <use xlink:href="#DejaVuSans-20" x="140.625"/>
      <use xlink:href="#DejaVuSans-43" x="172.412109"/>
      <use xlink:href="#DejaVuSans-4e" x="242.236328"/>
      <use xlink:href="#DejaVuSans-4e" x="317.041016"/>
      <use xlink:href="#DejaVuSans-20" x="391.845703"/>
      <use xlink:href="#DejaVuSans-28" x="423.632812"/>
      <use xlink:href="#DejaVuSans-41" x="462.646484"/>
      <use xlink:href="#DejaVuSans-55" x="531.054688"/>
      <use xlink:href="#DejaVuSans-43" x="604.248047"/>
      <use xlink:href="#DejaVuSans-3a" x="674.072266"/>
      <use xlink:href="#DejaVuSans-30" x="707.763672"/>
      <use xlink:href="#DejaVuSans-2e" x="771.386719"/>
      <use xlink:href="#DejaVuSans-30" x="803.173828"/>
      <use xlink:href="#DejaVuSans-36" x="866.796875"/>
      <use xlink:href="#DejaVuSans-31" x="930.419922"/>
      <use xlink:href="#DejaVuSans-39" x="994.042969"/>
      <use xlink:href="#DejaVuSans-29" x="1057.666016"/>
     </g>
    </g>
    <g id="line2d_38">
     <path d="M 229.934375 116.729062 
L 239.934375 116.729062 
L 249.934375 116.729062 
" style="fill: none; stroke: #1f77b4; stroke-width: 1.5; stroke-linecap: square"/>
    </g>
    <g id="text_22">
     <!-- LSTM (AUC:0.0578) -->
     <g transform="translate(257.934375 120.229062)scale(0.1 -0.1)">
      <defs>
       <path id="DejaVuSans-4c" d="M 628 4666 
L 1259 4666 
L 1259 531 
L 3531 531 
L 3531 0 
L 628 0 
L 628 4666 
z
" transform="scale(0.015625)"/>
       <path id="DejaVuSans-54" d="M -19 4666 
L 3928 4666 
L 3928 4134 
L 2272 4134 
L 2272 0 
L 1638 0 
L 1638 4134 
L -19 4134 
L -19 4666 
z
" transform="scale(0.015625)"/>
       <path id="DejaVuSans-4d" d="M 628 4666 
L 1569 4666 
L 2759 1491 
L 3956 4666 
L 4897 4666 
L 4897 0 
L 4281 0 
L 4281 4097 
L 3078 897 
L 2444 897 
L 1241 4097 
L 1241 0 
L 628 0 
L 628 4666 
z
" transform="scale(0.015625)"/>
      </defs>
      <use xlink:href="#DejaVuSans-4c"/>
      <use xlink:href="#DejaVuSans-53" x="55.712891"/>
      <use xlink:href="#DejaVuSans-54" x="119.189453"/>
      <use xlink:href="#DejaVuSans-4d" x="180.273438"/>
      <use xlink:href="#DejaVuSans-20" x="266.552734"/>
      <use xlink:href="#DejaVuSans-28" x="298.339844"/>
      <use xlink:href="#DejaVuSans-41" x="337.353516"/>
      <use xlink:href="#DejaVuSans-55" x="405.761719"/>
      <use xlink:href="#DejaVuSans-43" x="478.955078"/>
      <use xlink:href="#DejaVuSans-3a" x="548.779297"/>
      <use xlink:href="#DejaVuSans-30" x="582.470703"/>
      <use xlink:href="#DejaVuSans-2e" x="646.09375"/>
      <use xlink:href="#DejaVuSans-30" x="677.880859"/>
      <use xlink:href="#DejaVuSans-35" x="741.503906"/>
      <use xlink:href="#DejaVuSans-37" x="805.126953"/>
      <use xlink:href="#DejaVuSans-38" x="868.75"/>
      <use xlink:href="#DejaVuSans-29" x="932.373047"/>
     </g>
    </g>
   </g>
  </g>
 </g>
 <defs>
  <clipPath id="pfbc2f5e32e">
   <rect x="54" y="30.24" width="334.8" height="194.04"/>
  </clipPath>
 </defs>
</svg>
