<?xml version="1.0" encoding="utf-8" standalone="no"?>
<!DOCTYPE svg PUBLIC "-//W3C//DTD SVG 1.1//EN"
  "http://www.w3.org/Graphics/SVG/1.1/DTD/svg11.dtd">
<svg xmlns:xlink="http://www.w3.org/1999/xlink" width="648pt" height="342pt" viewBox="0 0 648 342" xmlns="http://www.w3.org/2000/svg" version="1.1">
 <metadata>
  <rdf:RDF xmlns:dc="http://purl.org/dc/elements/1.1/" xmlns:cc="http://creativecommons.org/ns#" xmlns:rdf="http://www.w3.org/1999/02/22-rdf-syntax-ns#">
   <cc:Work>
    <dc:type rdf:resource="http://purl.org/dc/dcmitype/StillImage"/>
    <dc:date>2024-07-04T23:28:00.259618</dc:date>
    <dc:format>image/svg+xml</dc:format>
    <dc:creator>
     <cc:Agent>
      <dc:title>Matplotlib v3.5.1, https://matplotlib.org/</dc:title>
     </cc:Agent>
    </dc:creator>
   </cc:Work>
  </rdf:RDF>
 </metadata>
 <defs>
  <style type="text/css">*{stroke-linejoin: round; stroke-linecap: butt}</style>
 </defs>
 <g id="figure_1">
  <g id="patch_1">
   <path d="M 0 342 
L 648 342 
L 648 0 
L 0 0 
z
" style="fill: #ffffff"/>
  </g>
  <g id="axes_1">
   <g id="patch_2">
    <path d="M 81 304.38 
L 583.2 304.38 
L 583.2 41.04 
L 81 41.04 
L 81 304.38 
z
" style="fill: none; opacity: 0"/>
   </g>
   <g id="matplotlib.axis_1">
    <g id="xtick_1">
     <g id="line2d_1">
      <path d="M 103.827273 304.38 
L 103.827273 41.04 
" clip-path="url(#p5618c27013)" style="fill: none; stroke: #e6e6e6; stroke-width: 0.8; stroke-linecap: square"/>
     </g>
     <g id="line2d_2">
      <defs>
       <path id="m93527b5315" d="M 0 0 
L 0 3.5 
" style="stroke: #000000; stroke-width: 0.8"/>
      </defs>
      <g>
       <use xlink:href="#m93527b5315" x="103.827273" y="304.38" style="stroke: #000000; stroke-width: 0.8"/>
      </g>
     </g>
     <g id="text_1">
      <!-- 0.0 -->
      <g transform="translate(95.87571 318.978437)scale(0.1 -0.1)">
       <defs>
        <path id="DejaVuSans-30" d="M 2034 4250 
Q 1547 4250 1301 3770 
Q 1056 3291 1056 2328 
Q 1056 1369 1301 889 
Q 1547 409 2034 409 
Q 2525 409 2770 889 
Q 3016 1369 3016 2328 
Q 3016 3291 2770 3770 
Q 2525 4250 2034 4250 
z
M 2034 4750 
Q 2819 4750 3233 4129 
Q 3647 3509 3647 2328 
Q 3647 1150 3233 529 
Q 2819 -91 2034 -91 
Q 1250 -91 836 529 
Q 422 1150 422 2328 
Q 422 3509 836 4129 
Q 1250 4750 2034 4750 
z
" transform="scale(0.015625)"/>
        <path id="DejaVuSans-2e" d="M 684 794 
L 1344 794 
L 1344 0 
L 684 0 
L 684 794 
z
" transform="scale(0.015625)"/>
       </defs>
       <use xlink:href="#DejaVuSans-30"/>
       <use xlink:href="#DejaVuSans-2e" x="63.623047"/>
       <use xlink:href="#DejaVuSans-30" x="95.410156"/>
      </g>
     </g>
    </g>
    <g id="xtick_2">
     <g id="line2d_3">
      <path d="M 195.136364 304.38 
L 195.136364 41.04 
" clip-path="url(#p5618c27013)" style="fill: none; stroke: #e6e6e6; stroke-width: 0.8; stroke-linecap: square"/>
     </g>
     <g id="line2d_4">
      <g>
       <use xlink:href="#m93527b5315" x="195.136364" y="304.38" style="stroke: #000000; stroke-width: 0.8"/>
      </g>
     </g>
     <g id="text_2">
      <!-- 0.2 -->
      <g transform="translate(187.184801 318.978437)scale(0.1 -0.1)">
       <defs>
        <path id="DejaVuSans-32" d="M 1228 531 
L 3431 531 
L 3431 0 
L 469 0 
L 469 531 
Q 828 903 1448 1529 
Q 2069 2156 2228 2338 
Q 2531 2678 2651 2914 
Q 2772 3150 2772 3378 
Q 2772 3750 2511 3984 
Q 2250 4219 1831 4219 
Q 1534 4219 1204 4116 
Q 875 4013 500 3803 
L 500 4441 
Q 881 4594 1212 4672 
Q 1544 4750 1819 4750 
Q 2544 4750 2975 4387 
Q 3406 4025 3406 3419 
Q 3406 3131 3298 2873 
Q 3191 2616 2906 2266 
Q 2828 2175 2409 1742 
Q 1991 1309 1228 531 
z
" transform="scale(0.015625)"/>
       </defs>
       <use xlink:href="#DejaVuSans-30"/>
       <use xlink:href="#DejaVuSans-2e" x="63.623047"/>
       <use xlink:href="#DejaVuSans-32" x="95.410156"/>
      </g>
     </g>
    </g>
    <g id="xtick_3">
     <g id="line2d_5">
      <path d="M 286.445455 304.38 
L 286.445455 41.04 
" clip-path="url(#p5618c27013)" style="fill: none; stroke: #e6e6e6; stroke-width: 0.8; stroke-linecap: square"/>
     </g>
     <g id="line2d_6">
      <g>
       <use xlink:href="#m93527b5315" x="286.445455" y="304.38" style="stroke: #000000; stroke-width: 0.8"/>
      </g>
     </g>
     <g id="text_3">
      <!-- 0.4 -->
      <g transform="translate(278.493892 318.978437)scale(0.1 -0.1)">
       <defs>
        <path id="DejaVuSans-34" d="M 2419 4116 
L 825 1625 
L 2419 1625 
L 2419 4116 
z
M 2253 4666 
L 3047 4666 
L 3047 1625 
L 3713 1625 
L 3713 1100 
L 3047 1100 
L 3047 0 
L 2419 0 
L 2419 1100 
L 313 1100 
L 313 1709 
L 2253 4666 
z
" transform="scale(0.015625)"/>
       </defs>
       <use xlink:href="#DejaVuSans-30"/>
       <use xlink:href="#DejaVuSans-2e" x="63.623047"/>
       <use xlink:href="#DejaVuSans-34" x="95.410156"/>
      </g>
     </g>
    </g>
    <g id="xtick_4">
     <g id="line2d_7">
      <path d="M 377.754545 304.38 
L 377.754545 41.04 
" clip-path="url(#p5618c27013)" style="fill: none; stroke: #e6e6e6; stroke-width: 0.8; stroke-linecap: square"/>
     </g>
     <g id="line2d_8">
      <g>
       <use xlink:href="#m93527b5315" x="377.754545" y="304.38" style="stroke: #000000; stroke-width: 0.8"/>
      </g>
     </g>
     <g id="text_4">
      <!-- 0.6 -->
      <g transform="translate(369.802983 318.978437)scale(0.1 -0.1)">
       <defs>
        <path id="DejaVuSans-36" d="M 2113 2584 
Q 1688 2584 1439 2293 
Q 1191 2003 1191 1497 
Q 1191 994 1439 701 
Q 1688 409 2113 409 
Q 2538 409 2786 701 
Q 3034 994 3034 1497 
Q 3034 2003 2786 2293 
Q 2538 2584 2113 2584 
z
M 3366 4563 
L 3366 3988 
Q 3128 4100 2886 4159 
Q 2644 4219 2406 4219 
Q 1781 4219 1451 3797 
Q 1122 3375 1075 2522 
Q 1259 2794 1537 2939 
Q 1816 3084 2150 3084 
Q 2853 3084 3261 2657 
Q 3669 2231 3669 1497 
Q 3669 778 3244 343 
Q 2819 -91 2113 -91 
Q 1303 -91 875 529 
Q 447 1150 447 2328 
Q 447 3434 972 4092 
Q 1497 4750 2381 4750 
Q 2619 4750 2861 4703 
Q 3103 4656 3366 4563 
z
" transform="scale(0.015625)"/>
       </defs>
       <use xlink:href="#DejaVuSans-30"/>
       <use xlink:href="#DejaVuSans-2e" x="63.623047"/>
       <use xlink:href="#DejaVuSans-36" x="95.410156"/>
      </g>
     </g>
    </g>
    <g id="xtick_5">
     <g id="line2d_9">
      <path d="M 469.063636 304.38 
L 469.063636 41.04 
" clip-path="url(#p5618c27013)" style="fill: none; stroke: #e6e6e6; stroke-width: 0.8; stroke-linecap: square"/>
     </g>
     <g id="line2d_10">
      <g>
       <use xlink:href="#m93527b5315" x="469.063636" y="304.38" style="stroke: #000000; stroke-width: 0.8"/>
      </g>
     </g>
     <g id="text_5">
      <!-- 0.8 -->
      <g transform="translate(461.112074 318.978437)scale(0.1 -0.1)">
       <defs>
        <path id="DejaVuSans-38" d="M 2034 2216 
Q 1584 2216 1326 1975 
Q 1069 1734 1069 1313 
Q 1069 891 1326 650 
Q 1584 409 2034 409 
Q 2484 409 2743 651 
Q 3003 894 3003 1313 
Q 3003 1734 2745 1975 
Q 2488 2216 2034 2216 
z
M 1403 2484 
Q 997 2584 770 2862 
Q 544 3141 544 3541 
Q 544 4100 942 4425 
Q 1341 4750 2034 4750 
Q 2731 4750 3128 4425 
Q 3525 4100 3525 3541 
Q 3525 3141 3298 2862 
Q 3072 2584 2669 2484 
Q 3125 2378 3379 2068 
Q 3634 1759 3634 1313 
Q 3634 634 3220 271 
Q 2806 -91 2034 -91 
Q 1263 -91 848 271 
Q 434 634 434 1313 
Q 434 1759 690 2068 
Q 947 2378 1403 2484 
z
M 1172 3481 
Q 1172 3119 1398 2916 
Q 1625 2713 2034 2713 
Q 2441 2713 2670 2916 
Q 2900 3119 2900 3481 
Q 2900 3844 2670 4047 
Q 2441 4250 2034 4250 
Q 1625 4250 1398 4047 
Q 1172 3844 1172 3481 
z
" transform="scale(0.015625)"/>
       </defs>
       <use xlink:href="#DejaVuSans-30"/>
       <use xlink:href="#DejaVuSans-2e" x="63.623047"/>
       <use xlink:href="#DejaVuSans-38" x="95.410156"/>
      </g>
     </g>
    </g>
    <g id="xtick_6">
     <g id="line2d_11">
      <path d="M 560.372727 304.38 
L 560.372727 41.04 
" clip-path="url(#p5618c27013)" style="fill: none; stroke: #e6e6e6; stroke-width: 0.8; stroke-linecap: square"/>
     </g>
     <g id="line2d_12">
      <g>
       <use xlink:href="#m93527b5315" x="560.372727" y="304.38" style="stroke: #000000; stroke-width: 0.8"/>
      </g>
     </g>
     <g id="text_6">
      <!-- 1.0 -->
      <g transform="translate(552.421165 318.978437)scale(0.1 -0.1)">
       <defs>
        <path id="DejaVuSans-31" d="M 794 531 
L 1825 531 
L 1825 4091 
L 703 3866 
L 703 4441 
L 1819 4666 
L 2450 4666 
L 2450 531 
L 3481 531 
L 3481 0 
L 794 0 
L 794 531 
z
" transform="scale(0.015625)"/>
       </defs>
       <use xlink:href="#DejaVuSans-31"/>
       <use xlink:href="#DejaVuSans-2e" x="63.623047"/>
       <use xlink:href="#DejaVuSans-30" x="95.410156"/>
      </g>
     </g>
    </g>
    <g id="text_7">
     <!-- d + 1/2 -->
     <g transform="translate(313.510938 332.656563)scale(0.1 -0.1)">
      <defs>
       <path id="DejaVuSans-64" d="M 2906 2969 
L 2906 4863 
L 3481 4863 
L 3481 0 
L 2906 0 
L 2906 525 
Q 2725 213 2448 61 
Q 2172 -91 1784 -91 
Q 1150 -91 751 415 
Q 353 922 353 1747 
Q 353 2572 751 3078 
Q 1150 3584 1784 3584 
Q 2172 3584 2448 3432 
Q 2725 3281 2906 2969 
z
M 947 1747 
Q 947 1113 1208 752 
Q 1469 391 1925 391 
Q 2381 391 2643 752 
Q 2906 1113 2906 1747 
Q 2906 2381 2643 2742 
Q 2381 3103 1925 3103 
Q 1469 3103 1208 2742 
Q 947 2381 947 1747 
z
" transform="scale(0.015625)"/>
       <path id="DejaVuSans-20" transform="scale(0.015625)"/>
       <path id="DejaVuSans-2b" d="M 2944 4013 
L 2944 2272 
L 4684 2272 
L 4684 1741 
L 2944 1741 
L 2944 0 
L 2419 0 
L 2419 1741 
L 678 1741 
L 678 2272 
L 2419 2272 
L 2419 4013 
L 2944 4013 
z
" transform="scale(0.015625)"/>
       <path id="DejaVuSans-2f" d="M 1625 4666 
L 2156 4666 
L 531 -594 
L 0 -594 
L 1625 4666 
z
" transform="scale(0.015625)"/>
      </defs>
      <use xlink:href="#DejaVuSans-64"/>
      <use xlink:href="#DejaVuSans-20" x="63.476562"/>
      <use xlink:href="#DejaVuSans-2b" x="95.263672"/>
      <use xlink:href="#DejaVuSans-20" x="179.052734"/>
      <use xlink:href="#DejaVuSans-31" x="210.839844"/>
      <use xlink:href="#DejaVuSans-2f" x="274.462891"/>
      <use xlink:href="#DejaVuSans-32" x="308.154297"/>
     </g>
    </g>
   </g>
   <g id="matplotlib.axis_2">
    <g id="ytick_1">
     <g id="line2d_13">
      <path d="M 81 299.887843 
L 583.2 299.887843 
" clip-path="url(#p5618c27013)" style="fill: none; stroke: #e6e6e6; stroke-width: 0.8; stroke-linecap: square"/>
     </g>
     <g id="line2d_14">
      <defs>
       <path id="mcc3eba9eeb" d="M 0 0 
L -3.5 0 
" style="stroke: #000000; stroke-width: 0.8"/>
      </defs>
      <g>
       <use xlink:href="#mcc3eba9eeb" x="81" y="299.887843" style="stroke: #000000; stroke-width: 0.8"/>
      </g>
     </g>
     <g id="text_8">
      <!-- −0.10 -->
      <g transform="translate(43.354687 303.687062)scale(0.1 -0.1)">
       <defs>
        <path id="DejaVuSans-2212" d="M 678 2272 
L 4684 2272 
L 4684 1741 
L 678 1741 
L 678 2272 
z
" transform="scale(0.015625)"/>
       </defs>
       <use xlink:href="#DejaVuSans-2212"/>
       <use xlink:href="#DejaVuSans-30" x="83.789062"/>
       <use xlink:href="#DejaVuSans-2e" x="147.412109"/>
       <use xlink:href="#DejaVuSans-31" x="179.199219"/>
       <use xlink:href="#DejaVuSans-30" x="242.822266"/>
      </g>
     </g>
    </g>
    <g id="ytick_2">
     <g id="line2d_15">
      <path d="M 81 259.045247 
L 583.2 259.045247 
" clip-path="url(#p5618c27013)" style="fill: none; stroke: #e6e6e6; stroke-width: 0.8; stroke-linecap: square"/>
     </g>
     <g id="line2d_16">
      <g>
       <use xlink:href="#mcc3eba9eeb" x="81" y="259.045247" style="stroke: #000000; stroke-width: 0.8"/>
      </g>
     </g>
     <g id="text_9">
      <!-- −0.05 -->
      <g transform="translate(43.354687 262.844466)scale(0.1 -0.1)">
       <defs>
        <path id="DejaVuSans-35" d="M 691 4666 
L 3169 4666 
L 3169 4134 
L 1269 4134 
L 1269 2991 
Q 1406 3038 1543 3061 
Q 1681 3084 1819 3084 
Q 2600 3084 3056 2656 
Q 3513 2228 3513 1497 
Q 3513 744 3044 326 
Q 2575 -91 1722 -91 
Q 1428 -91 1123 -41 
Q 819 9 494 109 
L 494 744 
Q 775 591 1075 516 
Q 1375 441 1709 441 
Q 2250 441 2565 725 
Q 2881 1009 2881 1497 
Q 2881 1984 2565 2268 
Q 2250 2553 1709 2553 
Q 1456 2553 1204 2497 
Q 953 2441 691 2322 
L 691 4666 
z
" transform="scale(0.015625)"/>
       </defs>
       <use xlink:href="#DejaVuSans-2212"/>
       <use xlink:href="#DejaVuSans-30" x="83.789062"/>
       <use xlink:href="#DejaVuSans-2e" x="147.412109"/>
       <use xlink:href="#DejaVuSans-30" x="179.199219"/>
       <use xlink:href="#DejaVuSans-35" x="242.822266"/>
      </g>
     </g>
    </g>
    <g id="ytick_3">
     <g id="line2d_17">
      <path d="M 81 218.202652 
L 583.2 218.202652 
" clip-path="url(#p5618c27013)" style="fill: none; stroke: #e6e6e6; stroke-width: 0.8; stroke-linecap: square"/>
     </g>
     <g id="line2d_18">
      <g>
       <use xlink:href="#mcc3eba9eeb" x="81" y="218.202652" style="stroke: #000000; stroke-width: 0.8"/>
      </g>
     </g>
     <g id="text_10">
      <!-- 0.00 -->
      <g transform="translate(51.734375 222.00187)scale(0.1 -0.1)">
       <use xlink:href="#DejaVuSans-30"/>
       <use xlink:href="#DejaVuSans-2e" x="63.623047"/>
       <use xlink:href="#DejaVuSans-30" x="95.410156"/>
       <use xlink:href="#DejaVuSans-30" x="159.033203"/>
      </g>
     </g>
    </g>
    <g id="ytick_4">
     <g id="line2d_19">
      <path d="M 81 177.360056 
L 583.2 177.360056 
" clip-path="url(#p5618c27013)" style="fill: none; stroke: #e6e6e6; stroke-width: 0.8; stroke-linecap: square"/>
     </g>
     <g id="line2d_20">
      <g>
       <use xlink:href="#mcc3eba9eeb" x="81" y="177.360056" style="stroke: #000000; stroke-width: 0.8"/>
      </g>
     </g>
     <g id="text_11">
      <!-- 0.05 -->
      <g transform="translate(51.734375 181.159275)scale(0.1 -0.1)">
       <use xlink:href="#DejaVuSans-30"/>
       <use xlink:href="#DejaVuSans-2e" x="63.623047"/>
       <use xlink:href="#DejaVuSans-30" x="95.410156"/>
       <use xlink:href="#DejaVuSans-35" x="159.033203"/>
      </g>
     </g>
    </g>
    <g id="ytick_5">
     <g id="line2d_21">
      <path d="M 81 136.51746 
L 583.2 136.51746 
" clip-path="url(#p5618c27013)" style="fill: none; stroke: #e6e6e6; stroke-width: 0.8; stroke-linecap: square"/>
     </g>
     <g id="line2d_22">
      <g>
       <use xlink:href="#mcc3eba9eeb" x="81" y="136.51746" style="stroke: #000000; stroke-width: 0.8"/>
      </g>
     </g>
     <g id="text_12">
      <!-- 0.10 -->
      <g transform="translate(51.734375 140.316679)scale(0.1 -0.1)">
       <use xlink:href="#DejaVuSans-30"/>
       <use xlink:href="#DejaVuSans-2e" x="63.623047"/>
       <use xlink:href="#DejaVuSans-31" x="95.410156"/>
       <use xlink:href="#DejaVuSans-30" x="159.033203"/>
      </g>
     </g>
    </g>
    <g id="ytick_6">
     <g id="line2d_23">
      <path d="M 81 95.674865 
L 583.2 95.674865 
" clip-path="url(#p5618c27013)" style="fill: none; stroke: #e6e6e6; stroke-width: 0.8; stroke-linecap: square"/>
     </g>
     <g id="line2d_24">
      <g>
       <use xlink:href="#mcc3eba9eeb" x="81" y="95.674865" style="stroke: #000000; stroke-width: 0.8"/>
      </g>
     </g>
     <g id="text_13">
      <!-- 0.15 -->
      <g transform="translate(51.734375 99.474083)scale(0.1 -0.1)">
       <use xlink:href="#DejaVuSans-30"/>
       <use xlink:href="#DejaVuSans-2e" x="63.623047"/>
       <use xlink:href="#DejaVuSans-31" x="95.410156"/>
       <use xlink:href="#DejaVuSans-35" x="159.033203"/>
      </g>
     </g>
    </g>
    <g id="ytick_7">
     <g id="line2d_25">
      <path d="M 81 54.832269 
L 583.2 54.832269 
" clip-path="url(#p5618c27013)" style="fill: none; stroke: #e6e6e6; stroke-width: 0.8; stroke-linecap: square"/>
     </g>
     <g id="line2d_26">
      <g>
       <use xlink:href="#mcc3eba9eeb" x="81" y="54.832269" style="stroke: #000000; stroke-width: 0.8"/>
      </g>
     </g>
     <g id="text_14">
      <!-- 0.20 -->
      <g transform="translate(51.734375 58.631488)scale(0.1 -0.1)">
       <use xlink:href="#DejaVuSans-30"/>
       <use xlink:href="#DejaVuSans-2e" x="63.623047"/>
       <use xlink:href="#DejaVuSans-32" x="95.410156"/>
       <use xlink:href="#DejaVuSans-30" x="159.033203"/>
      </g>
     </g>
    </g>
    <g id="text_15">
     <!-- bias -->
     <g transform="translate(37.275 182.942031)rotate(-90)scale(0.1 -0.1)">
      <defs>
       <path id="DejaVuSans-62" d="M 3116 1747 
Q 3116 2381 2855 2742 
Q 2594 3103 2138 3103 
Q 1681 3103 1420 2742 
Q 1159 2381 1159 1747 
Q 1159 1113 1420 752 
Q 1681 391 2138 391 
Q 2594 391 2855 752 
Q 3116 1113 3116 1747 
z
M 1159 2969 
Q 1341 3281 1617 3432 
Q 1894 3584 2278 3584 
Q 2916 3584 3314 3078 
Q 3713 2572 3713 1747 
Q 3713 922 3314 415 
Q 2916 -91 2278 -91 
Q 1894 -91 1617 61 
Q 1341 213 1159 525 
L 1159 0 
L 581 0 
L 581 4863 
L 1159 4863 
L 1159 2969 
z
" transform="scale(0.015625)"/>
       <path id="DejaVuSans-69" d="M 603 3500 
L 1178 3500 
L 1178 0 
L 603 0 
L 603 3500 
z
M 603 4863 
L 1178 4863 
L 1178 4134 
L 603 4134 
L 603 4863 
z
" transform="scale(0.015625)"/>
       <path id="DejaVuSans-61" d="M 2194 1759 
Q 1497 1759 1228 1600 
Q 959 1441 959 1056 
Q 959 750 1161 570 
Q 1363 391 1709 391 
Q 2188 391 2477 730 
Q 2766 1069 2766 1631 
L 2766 1759 
L 2194 1759 
z
M 3341 1997 
L 3341 0 
L 2766 0 
L 2766 531 
Q 2569 213 2275 61 
Q 1981 -91 1556 -91 
Q 1019 -91 701 211 
Q 384 513 384 1019 
Q 384 1609 779 1909 
Q 1175 2209 1959 2209 
L 2766 2209 
L 2766 2266 
Q 2766 2663 2505 2880 
Q 2244 3097 1772 3097 
Q 1472 3097 1187 3025 
Q 903 2953 641 2809 
L 641 3341 
Q 956 3463 1253 3523 
Q 1550 3584 1831 3584 
Q 2591 3584 2966 3190 
Q 3341 2797 3341 1997 
z
" transform="scale(0.015625)"/>
       <path id="DejaVuSans-73" d="M 2834 3397 
L 2834 2853 
Q 2591 2978 2328 3040 
Q 2066 3103 1784 3103 
Q 1356 3103 1142 2972 
Q 928 2841 928 2578 
Q 928 2378 1081 2264 
Q 1234 2150 1697 2047 
L 1894 2003 
Q 2506 1872 2764 1633 
Q 3022 1394 3022 966 
Q 3022 478 2636 193 
Q 2250 -91 1575 -91 
Q 1294 -91 989 -36 
Q 684 19 347 128 
L 347 722 
Q 666 556 975 473 
Q 1284 391 1588 391 
Q 1994 391 2212 530 
Q 2431 669 2431 922 
Q 2431 1156 2273 1281 
Q 2116 1406 1581 1522 
L 1381 1569 
Q 847 1681 609 1914 
Q 372 2147 372 2553 
Q 372 3047 722 3315 
Q 1072 3584 1716 3584 
Q 2034 3584 2315 3537 
Q 2597 3491 2834 3397 
z
" transform="scale(0.015625)"/>
      </defs>
      <use xlink:href="#DejaVuSans-62"/>
      <use xlink:href="#DejaVuSans-69" x="63.476562"/>
      <use xlink:href="#DejaVuSans-61" x="91.259766"/>
      <use xlink:href="#DejaVuSans-73" x="152.539062"/>
     </g>
    </g>
   </g>
   <g id="patch_3">
    <path d="M 81 304.38 
L 81 41.04 
" style="fill: none; stroke: #000000; stroke-width: 0.8; stroke-linejoin: miter; stroke-linecap: square"/>
   </g>
   <g id="patch_4">
    <path d="M 583.2 304.38 
L 583.2 41.04 
" style="fill: none; stroke: #e6e6e6; stroke-width: 0.8; stroke-linejoin: miter; stroke-linecap: square"/>
   </g>
   <g id="patch_5">
    <path d="M 81 304.38 
L 583.2 304.38 
" style="fill: none; stroke: #000000; stroke-width: 0.8; stroke-linejoin: miter; stroke-linecap: square"/>
   </g>
   <g id="patch_6">
    <path d="M 81 41.04 
L 583.2 41.04 
" style="fill: none; stroke: #e6e6e6; stroke-width: 0.8; stroke-linejoin: miter; stroke-linecap: square"/>
   </g>
   <g id="text_16">
    <!-- Biases (steps: 250, interval:+-0.02) -->
    <g transform="translate(225.360938 35.04)scale(0.12 -0.12)">
     <defs>
      <path id="DejaVuSans-42" d="M 1259 2228 
L 1259 519 
L 2272 519 
Q 2781 519 3026 730 
Q 3272 941 3272 1375 
Q 3272 1813 3026 2020 
Q 2781 2228 2272 2228 
L 1259 2228 
z
M 1259 4147 
L 1259 2741 
L 2194 2741 
Q 2656 2741 2882 2914 
Q 3109 3088 3109 3444 
Q 3109 3797 2882 3972 
Q 2656 4147 2194 4147 
L 1259 4147 
z
M 628 4666 
L 2241 4666 
Q 2963 4666 3353 4366 
Q 3744 4066 3744 3513 
Q 3744 3084 3544 2831 
Q 3344 2578 2956 2516 
Q 3422 2416 3680 2098 
Q 3938 1781 3938 1306 
Q 3938 681 3513 340 
Q 3088 0 2303 0 
L 628 0 
L 628 4666 
z
" transform="scale(0.015625)"/>
      <path id="DejaVuSans-65" d="M 3597 1894 
L 3597 1613 
L 953 1613 
Q 991 1019 1311 708 
Q 1631 397 2203 397 
Q 2534 397 2845 478 
Q 3156 559 3463 722 
L 3463 178 
Q 3153 47 2828 -22 
Q 2503 -91 2169 -91 
Q 1331 -91 842 396 
Q 353 884 353 1716 
Q 353 2575 817 3079 
Q 1281 3584 2069 3584 
Q 2775 3584 3186 3129 
Q 3597 2675 3597 1894 
z
M 3022 2063 
Q 3016 2534 2758 2815 
Q 2500 3097 2075 3097 
Q 1594 3097 1305 2825 
Q 1016 2553 972 2059 
L 3022 2063 
z
" transform="scale(0.015625)"/>
      <path id="DejaVuSans-28" d="M 1984 4856 
Q 1566 4138 1362 3434 
Q 1159 2731 1159 2009 
Q 1159 1288 1364 580 
Q 1569 -128 1984 -844 
L 1484 -844 
Q 1016 -109 783 600 
Q 550 1309 550 2009 
Q 550 2706 781 3412 
Q 1013 4119 1484 4856 
L 1984 4856 
z
" transform="scale(0.015625)"/>
      <path id="DejaVuSans-74" d="M 1172 4494 
L 1172 3500 
L 2356 3500 
L 2356 3053 
L 1172 3053 
L 1172 1153 
Q 1172 725 1289 603 
Q 1406 481 1766 481 
L 2356 481 
L 2356 0 
L 1766 0 
Q 1100 0 847 248 
Q 594 497 594 1153 
L 594 3053 
L 172 3053 
L 172 3500 
L 594 3500 
L 594 4494 
L 1172 4494 
z
" transform="scale(0.015625)"/>
      <path id="DejaVuSans-70" d="M 1159 525 
L 1159 -1331 
L 581 -1331 
L 581 3500 
L 1159 3500 
L 1159 2969 
Q 1341 3281 1617 3432 
Q 1894 3584 2278 3584 
Q 2916 3584 3314 3078 
Q 3713 2572 3713 1747 
Q 3713 922 3314 415 
Q 2916 -91 2278 -91 
Q 1894 -91 1617 61 
Q 1341 213 1159 525 
z
M 3116 1747 
Q 3116 2381 2855 2742 
Q 2594 3103 2138 3103 
Q 1681 3103 1420 2742 
Q 1159 2381 1159 1747 
Q 1159 1113 1420 752 
Q 1681 391 2138 391 
Q 2594 391 2855 752 
Q 3116 1113 3116 1747 
z
" transform="scale(0.015625)"/>
      <path id="DejaVuSans-3a" d="M 750 794 
L 1409 794 
L 1409 0 
L 750 0 
L 750 794 
z
M 750 3309 
L 1409 3309 
L 1409 2516 
L 750 2516 
L 750 3309 
z
" transform="scale(0.015625)"/>
      <path id="DejaVuSans-2c" d="M 750 794 
L 1409 794 
L 1409 256 
L 897 -744 
L 494 -744 
L 750 256 
L 750 794 
z
" transform="scale(0.015625)"/>
      <path id="DejaVuSans-6e" d="M 3513 2113 
L 3513 0 
L 2938 0 
L 2938 2094 
Q 2938 2591 2744 2837 
Q 2550 3084 2163 3084 
Q 1697 3084 1428 2787 
Q 1159 2491 1159 1978 
L 1159 0 
L 581 0 
L 581 3500 
L 1159 3500 
L 1159 2956 
Q 1366 3272 1645 3428 
Q 1925 3584 2291 3584 
Q 2894 3584 3203 3211 
Q 3513 2838 3513 2113 
z
" transform="scale(0.015625)"/>
      <path id="DejaVuSans-72" d="M 2631 2963 
Q 2534 3019 2420 3045 
Q 2306 3072 2169 3072 
Q 1681 3072 1420 2755 
Q 1159 2438 1159 1844 
L 1159 0 
L 581 0 
L 581 3500 
L 1159 3500 
L 1159 2956 
Q 1341 3275 1631 3429 
Q 1922 3584 2338 3584 
Q 2397 3584 2469 3576 
Q 2541 3569 2628 3553 
L 2631 2963 
z
" transform="scale(0.015625)"/>
      <path id="DejaVuSans-76" d="M 191 3500 
L 800 3500 
L 1894 563 
L 2988 3500 
L 3597 3500 
L 2284 0 
L 1503 0 
L 191 3500 
z
" transform="scale(0.015625)"/>
      <path id="DejaVuSans-6c" d="M 603 4863 
L 1178 4863 
L 1178 0 
L 603 0 
L 603 4863 
z
" transform="scale(0.015625)"/>
      <path id="DejaVuSans-2d" d="M 313 2009 
L 1997 2009 
L 1997 1497 
L 313 1497 
L 313 2009 
z
" transform="scale(0.015625)"/>
      <path id="DejaVuSans-29" d="M 513 4856 
L 1013 4856 
Q 1481 4119 1714 3412 
Q 1947 2706 1947 2009 
Q 1947 1309 1714 600 
Q 1481 -109 1013 -844 
L 513 -844 
Q 928 -128 1133 580 
Q 1338 1288 1338 2009 
Q 1338 2731 1133 3434 
Q 928 4138 513 4856 
z
" transform="scale(0.015625)"/>
     </defs>
     <use xlink:href="#DejaVuSans-42"/>
     <use xlink:href="#DejaVuSans-69" x="68.603516"/>
     <use xlink:href="#DejaVuSans-61" x="96.386719"/>
     <use xlink:href="#DejaVuSans-73" x="157.666016"/>
     <use xlink:href="#DejaVuSans-65" x="209.765625"/>
     <use xlink:href="#DejaVuSans-73" x="271.289062"/>
     <use xlink:href="#DejaVuSans-20" x="323.388672"/>
     <use xlink:href="#DejaVuSans-28" x="355.175781"/>
     <use xlink:href="#DejaVuSans-73" x="394.189453"/>
     <use xlink:href="#DejaVuSans-74" x="446.289062"/>
     <use xlink:href="#DejaVuSans-65" x="485.498047"/>
     <use xlink:href="#DejaVuSans-70" x="547.021484"/>
     <use xlink:href="#DejaVuSans-73" x="610.498047"/>
     <use xlink:href="#DejaVuSans-3a" x="662.597656"/>
     <use xlink:href="#DejaVuSans-20" x="696.289062"/>
     <use xlink:href="#DejaVuSans-32" x="728.076172"/>
     <use xlink:href="#DejaVuSans-35" x="791.699219"/>
     <use xlink:href="#DejaVuSans-30" x="855.322266"/>
     <use xlink:href="#DejaVuSans-2c" x="918.945312"/>
     <use xlink:href="#DejaVuSans-20" x="950.732422"/>
     <use xlink:href="#DejaVuSans-69" x="982.519531"/>
     <use xlink:href="#DejaVuSans-6e" x="1010.302734"/>
     <use xlink:href="#DejaVuSans-74" x="1073.681641"/>
     <use xlink:href="#DejaVuSans-65" x="1112.890625"/>
     <use xlink:href="#DejaVuSans-72" x="1174.414062"/>
     <use xlink:href="#DejaVuSans-76" x="1215.527344"/>
     <use xlink:href="#DejaVuSans-61" x="1274.707031"/>
     <use xlink:href="#DejaVuSans-6c" x="1335.986328"/>
     <use xlink:href="#DejaVuSans-3a" x="1363.769531"/>
     <use xlink:href="#DejaVuSans-2b" x="1397.460938"/>
     <use xlink:href="#DejaVuSans-2d" x="1481.25"/>
     <use xlink:href="#DejaVuSans-30" x="1517.333984"/>
     <use xlink:href="#DejaVuSans-2e" x="1580.957031"/>
     <use xlink:href="#DejaVuSans-30" x="1612.744141"/>
     <use xlink:href="#DejaVuSans-32" x="1676.367188"/>
     <use xlink:href="#DejaVuSans-29" x="1739.990234"/>
    </g>
   </g>
   <g id="line2d_27">
    <path d="M 103.827273 54.643628 
L 105.660789 55.711833 
L 111.161336 57.996584 
L 112.994852 59.204368 
L 120.328916 66.420985 
L 122.162432 68.229875 
L 123.995947 69.854822 
L 125.829463 71.905879 
L 127.662979 73.640016 
L 129.496495 75.107404 
L 131.330011 76.879252 
L 133.163527 78.256205 
L 134.997043 80.053759 
L 136.830559 81.655178 
L 138.664074 83.513372 
L 142.331106 86.785709 
L 144.164622 88.23627 
L 145.998138 90.029887 
L 149.66517 92.834696 
L 153.332202 96.025535 
L 155.165717 97.083938 
L 156.999233 98.363043 
L 158.832749 99.456906 
L 160.666265 100.77775 
L 162.499781 101.669631 
L 164.333297 103.60277 
L 166.166813 105.040174 
L 168.000329 106.802433 
L 171.66736 109.399535 
L 177.167908 113.580015 
L 182.668456 116.52273 
L 184.501972 117.635041 
L 186.335487 118.210872 
L 188.169003 120.251768 
L 191.836035 122.443393 
L 193.669551 123.59164 
L 195.503067 124.322043 
L 197.336583 125.457506 
L 199.170099 126.80067 
L 201.003614 127.956206 
L 202.83713 128.88834 
L 204.670646 130.0817 
L 206.504162 131.819538 
L 210.171194 134.615334 
L 212.00471 135.78924 
L 215.671742 138.695266 
L 217.505257 140.106239 
L 219.338773 141.253893 
L 221.172289 141.830175 
L 223.005805 142.92864 
L 226.672837 143.765416 
L 228.506353 145.372208 
L 230.339869 145.819346 
L 232.173384 146.507926 
L 234.0069 147.690831 
L 235.840416 148.10805 
L 241.340964 151.460158 
L 243.17448 152.919391 
L 245.007996 154.204826 
L 246.841512 154.571211 
L 250.508543 156.725008 
L 252.342059 157.36772 
L 254.175575 158.24184 
L 256.009091 159.254735 
L 259.676123 160.759394 
L 261.509639 161.192508 
L 267.010186 163.42047 
L 270.677218 164.345398 
L 272.510734 164.928399 
L 276.177766 165.327976 
L 279.844797 166.865136 
L 281.678313 167.000847 
L 283.511829 168.007194 
L 285.345345 168.779076 
L 287.178861 169.673315 
L 289.012377 171.056625 
L 290.845893 171.42404 
L 292.679409 172.635048 
L 294.512924 173.501078 
L 296.34644 174.065806 
L 298.179956 174.284288 
L 301.846988 175.703117 
L 303.680504 176.182522 
L 305.51402 176.53094 
L 307.347536 176.602663 
L 309.181051 177.44922 
L 311.014567 178.426507 
L 312.848083 179.688879 
L 314.681599 179.817364 
L 316.515115 180.911923 
L 318.348631 182.33068 
L 320.182147 183.251029 
L 322.015663 183.781388 
L 323.849179 184.934251 
L 325.682694 185.552778 
L 327.51621 187.108554 
L 329.349726 186.746683 
L 331.183242 187.265154 
L 333.016758 188.013944 
L 334.850274 188.96601 
L 336.68379 189.340732 
L 340.350821 190.831467 
L 342.184337 190.413189 
L 344.017853 191.190047 
L 345.851369 191.154537 
L 349.518401 191.775317 
L 351.351917 192.534893 
L 353.185433 192.840281 
L 355.018949 192.869085 
L 356.852464 193.453238 
L 358.68598 194.61151 
L 362.353012 195.17164 
L 364.186528 195.071168 
L 367.85356 196.856162 
L 373.354107 198.489401 
L 375.187623 198.164454 
L 377.021139 197.508911 
L 378.854655 198.537909 
L 380.688171 198.808844 
L 382.521687 199.29648 
L 386.188719 200.455277 
L 391.689266 200.413841 
L 393.522782 201.120519 
L 395.356298 202.159809 
L 397.189814 202.451117 
L 399.02333 203.13604 
L 400.856846 203.689218 
L 402.690361 203.869469 
L 404.523877 204.439626 
L 406.357393 205.348204 
L 410.024425 205.775391 
L 411.857941 206.270116 
L 413.691457 206.448699 
L 415.524973 206.835121 
L 417.358488 206.915368 
L 421.02552 208.753748 
L 422.859036 208.423982 
L 424.692552 208.327273 
L 426.526068 209.84292 
L 428.359584 212.031993 
L 430.1931 211.844252 
L 432.026616 213.075669 
L 433.860131 212.644241 
L 435.693647 213.8518 
L 437.527163 214.803548 
L 439.360679 214.218384 
L 441.194195 214.868345 
L 443.027711 216.17807 
L 446.694743 215.845269 
L 448.528258 217.068662 
L 450.361774 216.968379 
L 452.19529 218.729335 
L 454.028806 219.044252 
L 455.862322 218.365412 
L 457.695838 219.689595 
L 459.529354 220.433855 
L 461.36287 219.951044 
L 465.029901 222.438444 
L 466.863417 222.946501 
L 468.696933 224.308264 
L 470.530449 224.688451 
L 472.363965 225.96717 
L 477.864513 227.779071 
L 479.698028 229.395556 
L 481.531544 229.91859 
L 483.36506 230.142709 
L 487.032092 231.084696 
L 488.865608 232.281679 
L 490.699124 232.524257 
L 494.366156 235.779189 
L 496.199671 236.453049 
L 498.033187 236.997536 
L 499.866703 238.908032 
L 501.700219 240.233094 
L 503.533735 241.979239 
L 507.200767 243.907464 
L 509.034283 245.294121 
L 510.867798 245.341419 
L 512.701314 246.655394 
L 514.53483 248.22413 
L 516.368346 249.120575 
L 518.201862 249.547623 
L 525.535926 255.153598 
L 527.369441 256.828594 
L 529.202957 258.739282 
L 531.036473 260.219024 
L 532.869989 261.056293 
L 534.703505 262.057809 
L 536.537021 263.9286 
L 538.370537 266.369149 
L 540.204053 268.044811 
L 542.037568 268.884758 
L 543.871084 270.23206 
L 545.7046 271.737251 
L 547.538116 272.313891 
L 551.205148 274.67215 
L 553.038664 275.765392 
L 554.87218 276.05623 
L 556.705696 275.561956 
L 558.539211 274.760113 
L 560.372727 275.230532 
L 560.372727 275.230532 
" clip-path="url(#p5618c27013)" style="fill: none; stroke-dasharray: 1.5,2.475; stroke-dashoffset: 0; stroke: #ff0000; stroke-width: 1.5"/>
   </g>
   <g id="line2d_28">
    <path d="M 103.827273 53.01 
L 105.660789 53.578218 
L 107.494304 54.571081 
L 109.32782 55.183028 
L 111.161336 56.017375 
L 112.994852 57.049913 
L 114.828368 58.265386 
L 116.661884 59.88801 
L 118.4954 61.337764 
L 120.328916 63.276155 
L 125.829463 68.619252 
L 127.662979 70.486149 
L 129.496495 71.802428 
L 131.330011 73.746784 
L 133.163527 75.455736 
L 134.997043 76.978513 
L 136.830559 78.77722 
L 142.331106 83.068799 
L 144.164622 84.550287 
L 145.998138 86.727511 
L 151.498686 91.268271 
L 160.666265 99.113287 
L 162.499781 100.433249 
L 164.333297 102.394978 
L 168.000329 105.180669 
L 169.833844 107.185562 
L 173.500876 110.527533 
L 179.001424 114.719814 
L 180.83494 115.494373 
L 182.668456 116.922454 
L 184.501972 118.052358 
L 186.335487 119.898484 
L 188.169003 121.950656 
L 190.002519 123.228101 
L 199.170099 130.45056 
L 201.003614 131.457219 
L 204.670646 133.791902 
L 206.504162 135.806564 
L 208.337678 137.193548 
L 210.171194 138.959512 
L 212.00471 140.157632 
L 217.505257 144.771616 
L 221.172289 147.532852 
L 226.672837 151.375731 
L 228.506353 152.801963 
L 230.339869 153.715341 
L 232.173384 154.76864 
L 234.0069 156.238192 
L 235.840416 157.487252 
L 237.673932 159.037243 
L 239.507448 160.116913 
L 241.340964 161.327067 
L 245.007996 164.057334 
L 248.675027 167.22937 
L 252.342059 169.687493 
L 254.175575 170.803614 
L 257.842607 172.64923 
L 259.676123 173.896718 
L 263.343154 176.030699 
L 267.010186 178.817489 
L 274.34425 183.071991 
L 276.177766 184.232179 
L 281.678313 187.328558 
L 285.345345 189.627151 
L 287.178861 190.776002 
L 290.845893 192.790936 
L 292.679409 193.945185 
L 296.34644 195.679422 
L 300.013472 197.941009 
L 301.846988 198.888403 
L 303.680504 199.982287 
L 305.51402 200.784534 
L 309.181051 202.779115 
L 312.848083 205.0626 
L 320.182147 208.739922 
L 322.015663 209.536321 
L 323.849179 210.201022 
L 329.349726 212.615763 
L 333.016758 214.678363 
L 334.850274 215.327232 
L 336.68379 216.113553 
L 338.517306 216.607624 
L 345.851369 219.777735 
L 347.684885 220.273617 
L 349.518401 221.150708 
L 355.018949 222.971697 
L 358.68598 224.131311 
L 360.519496 224.387958 
L 362.353012 224.813705 
L 364.186528 225.384267 
L 366.020044 225.71475 
L 369.687076 226.905704 
L 371.520591 227.700348 
L 378.854655 229.960868 
L 384.355203 231.180098 
L 389.85575 231.750209 
L 393.522782 232.412565 
L 395.356298 232.592465 
L 397.189814 233.127583 
L 399.02333 233.470585 
L 400.856846 233.503531 
L 402.690361 233.766413 
L 404.523877 234.414582 
L 411.857941 235.002645 
L 413.691457 234.977137 
L 415.524973 234.746479 
L 417.358488 235.022606 
L 419.192004 234.922866 
L 421.02552 234.967419 
L 422.859036 235.129808 
L 424.692552 234.99907 
L 426.526068 235.415223 
L 428.359584 235.05432 
L 430.1931 234.983825 
L 432.026616 235.192357 
L 433.860131 235.229093 
L 435.693647 234.759097 
L 437.527163 234.560971 
L 439.360679 234.822287 
L 441.194195 234.097231 
L 443.027711 234.456688 
L 444.861227 234.042299 
L 446.694743 233.997479 
L 448.528258 234.360525 
L 450.361774 234.507155 
L 454.028806 235.831505 
L 455.862322 236.062101 
L 457.695838 235.979325 
L 459.529354 236.091825 
L 461.36287 235.570141 
L 463.196386 235.890314 
L 466.863417 235.887648 
L 468.696933 235.619791 
L 470.530449 235.023055 
L 472.363965 234.831585 
L 474.197481 234.455109 
L 476.030997 234.484461 
L 477.864513 234.066343 
L 483.36506 233.516564 
L 485.198576 232.76372 
L 488.865608 232.372419 
L 490.699124 232.02167 
L 492.53264 232.265351 
L 494.366156 232.385329 
L 496.199671 232.810977 
L 498.033187 233.508111 
L 499.866703 233.481214 
L 501.700219 233.779765 
L 505.367251 234.78819 
L 507.200767 235.838311 
L 509.034283 236.394313 
L 512.701314 236.221057 
L 514.53483 237.076508 
L 518.201862 237.6088 
L 520.035378 237.736678 
L 521.868894 238.155515 
L 523.70241 238.718779 
L 525.535926 238.728396 
L 527.369441 239.024622 
L 531.036473 241.641371 
L 532.869989 242.49949 
L 534.703505 242.664378 
L 536.537021 243.757639 
L 538.370537 245.543026 
L 540.204053 246.653928 
L 542.037568 247.411807 
L 545.7046 250.553066 
L 547.538116 250.922743 
L 551.205148 252.520749 
L 553.038664 253.38744 
L 554.87218 253.956483 
L 556.705696 254.172793 
L 560.372727 255.487351 
L 560.372727 255.487351 
" clip-path="url(#p5618c27013)" style="fill: none; stroke-dasharray: 9.6,2.4,1.5,2.4; stroke-dashoffset: 0; stroke: #ff0000; stroke-width: 1.5"/>
   </g>
   <g id="line2d_29">
    <path d="M 103.827273 91.680699 
L 111.161336 94.398629 
L 112.994852 95.429951 
L 114.828368 96.761661 
L 120.328916 101.412533 
L 122.162432 103.132154 
L 125.829463 106.270693 
L 127.662979 108.002814 
L 129.496495 109.304364 
L 133.163527 112.494379 
L 134.997043 114.051496 
L 136.830559 115.447112 
L 138.664074 117.076039 
L 140.49759 118.354947 
L 142.331106 119.998013 
L 144.164622 121.408479 
L 145.998138 123.162407 
L 147.831654 124.402588 
L 149.66517 125.507692 
L 153.332202 128.126635 
L 156.999233 130.755247 
L 158.832749 131.909306 
L 160.666265 132.929094 
L 162.499781 134.103414 
L 164.333297 135.993514 
L 166.166813 137.220088 
L 168.000329 138.779161 
L 169.833844 140.641552 
L 171.66736 141.898966 
L 175.334392 144.669674 
L 177.167908 145.964787 
L 179.001424 147.090998 
L 180.83494 147.798199 
L 182.668456 149.128425 
L 184.501972 150.13345 
L 188.169003 153.090621 
L 193.669551 156.423448 
L 197.336583 158.755017 
L 199.170099 159.889297 
L 201.003614 160.661287 
L 204.670646 162.588116 
L 206.504162 164.044853 
L 208.337678 165.003318 
L 210.171194 166.272467 
L 212.00471 167.127224 
L 215.671742 169.403775 
L 217.505257 170.751867 
L 221.172289 172.861816 
L 223.005805 173.73391 
L 232.173384 178.924733 
L 234.0069 179.797951 
L 235.840416 180.521903 
L 237.673932 181.53979 
L 241.340964 183.04786 
L 245.007996 185.348311 
L 246.841512 186.743428 
L 250.508543 188.480402 
L 252.342059 189.458869 
L 256.009091 190.790579 
L 259.676123 192.399334 
L 261.509639 193.061836 
L 263.343154 193.953048 
L 265.17667 194.588073 
L 267.010186 195.549657 
L 270.677218 197.034267 
L 274.34425 198.95971 
L 276.177766 199.484752 
L 278.011281 200.134357 
L 279.844797 200.929664 
L 281.678313 201.525232 
L 283.511829 202.393526 
L 287.178861 203.866261 
L 292.679409 205.386952 
L 296.34644 206.939277 
L 301.846988 208.974866 
L 305.51402 210.176668 
L 309.181051 211.597729 
L 311.014567 212.497275 
L 312.848083 213.266974 
L 320.182147 214.888757 
L 322.015663 215.49675 
L 323.849179 215.802143 
L 331.183242 217.807154 
L 333.016758 218.656778 
L 342.184337 221.486382 
L 349.518401 222.951923 
L 351.351917 223.489792 
L 355.018949 224.135934 
L 358.68598 224.848826 
L 360.519496 224.95959 
L 362.353012 225.20696 
L 364.186528 225.64041 
L 366.020044 225.86771 
L 367.85356 226.338511 
L 369.687076 226.595228 
L 371.520591 227.063608 
L 375.187623 227.635534 
L 377.021139 227.851751 
L 378.854655 228.379801 
L 380.688171 228.776947 
L 382.521687 228.955677 
L 384.355203 229.30893 
L 386.188719 229.373786 
L 391.689266 230.00358 
L 393.522782 230.450441 
L 397.189814 230.879007 
L 399.02333 231.257878 
L 400.856846 231.328425 
L 406.357393 232.436225 
L 408.190909 232.504429 
L 410.024425 232.843127 
L 417.358488 233.115937 
L 419.192004 233.354294 
L 421.02552 233.35035 
L 422.859036 233.79405 
L 424.692552 233.503386 
L 428.359584 233.82184 
L 430.1931 233.919711 
L 432.026616 234.258246 
L 433.860131 234.460827 
L 435.693647 234.402086 
L 437.527163 234.498245 
L 439.360679 234.718415 
L 441.194195 234.437001 
L 443.027711 234.98745 
L 446.694743 234.97621 
L 448.528258 235.214209 
L 450.361774 235.236586 
L 454.028806 236.14561 
L 457.695838 236.228656 
L 459.529354 236.49852 
L 461.36287 236.224446 
L 465.029901 236.825856 
L 468.696933 237.218492 
L 470.530449 237.098325 
L 472.363965 237.209384 
L 474.197481 237.074669 
L 476.030997 237.320529 
L 477.864513 237.116658 
L 481.531544 237.530262 
L 483.36506 237.539503 
L 485.198576 237.215261 
L 487.032092 237.278785 
L 488.865608 237.586855 
L 490.699124 237.484218 
L 492.53264 237.983745 
L 494.366156 238.354617 
L 496.199671 238.584609 
L 498.033187 239.078405 
L 501.700219 239.888214 
L 503.533735 240.54154 
L 505.367251 240.924895 
L 507.200767 241.851328 
L 509.034283 242.63549 
L 510.867798 242.592075 
L 512.701314 242.864699 
L 514.53483 243.834577 
L 520.035378 244.900075 
L 521.868894 245.530736 
L 523.70241 246.342278 
L 525.535926 246.588718 
L 527.369441 247.139212 
L 529.202957 248.576075 
L 531.036473 249.74703 
L 532.869989 250.505249 
L 534.703505 250.928629 
L 536.537021 252.040919 
L 538.370537 253.819566 
L 540.204053 254.9417 
L 542.037568 255.727119 
L 543.871084 257.303975 
L 545.7046 258.410116 
L 547.538116 258.827364 
L 553.038664 261.537922 
L 554.87218 261.901935 
L 556.705696 261.98865 
L 560.372727 262.739784 
L 560.372727 262.739784 
" clip-path="url(#p5618c27013)" style="fill: none; stroke-dasharray: 5.55,2.4; stroke-dashoffset: 0; stroke: #ff0000; stroke-width: 1.5"/>
   </g>
   <g id="line2d_30">
    <path d="M 103.827273 102.976635 
L 105.660789 103.356853 
L 111.161336 104.878299 
L 112.994852 105.614652 
L 114.828368 106.572757 
L 120.328916 110.064068 
L 125.829463 113.812052 
L 127.662979 115.045443 
L 129.496495 115.985891 
L 131.330011 117.296853 
L 138.664074 121.787832 
L 140.49759 122.735778 
L 144.164622 125.021112 
L 145.998138 126.486658 
L 153.332202 130.522471 
L 160.666265 134.474579 
L 162.499781 135.361499 
L 164.333297 136.888357 
L 166.166813 137.931319 
L 168.000329 139.122927 
L 169.833844 140.621815 
L 177.167908 145.107832 
L 179.001424 146.063511 
L 180.83494 146.688605 
L 182.668456 147.733313 
L 184.501972 148.591627 
L 188.169003 151.174205 
L 190.002519 152.051984 
L 195.503067 155.184551 
L 199.170099 157.066924 
L 202.83713 158.636499 
L 204.670646 159.485695 
L 206.504162 160.908845 
L 213.838226 164.837232 
L 215.671742 165.941483 
L 217.505257 167.210089 
L 219.338773 168.215585 
L 226.672837 171.646749 
L 228.506353 172.811989 
L 230.339869 173.521451 
L 237.673932 177.19887 
L 241.340964 178.717959 
L 245.007996 180.907148 
L 246.841512 182.181286 
L 248.675027 183.228807 
L 254.175575 185.628974 
L 257.842607 187.122773 
L 259.676123 187.948384 
L 261.509639 188.63214 
L 267.010186 191.185023 
L 270.677218 192.718347 
L 272.510734 193.503333 
L 274.34425 194.455931 
L 278.011281 195.947884 
L 279.844797 196.796849 
L 281.678313 197.411882 
L 285.345345 199.182948 
L 287.178861 200.008043 
L 290.845893 201.436162 
L 296.34644 203.705883 
L 312.848083 211.090588 
L 316.515115 212.362584 
L 329.349726 216.826289 
L 334.850274 219.473168 
L 336.68379 220.249931 
L 338.517306 220.801005 
L 345.851369 223.793464 
L 347.684885 224.245504 
L 351.351917 225.725134 
L 358.68598 228.383231 
L 360.519496 228.805012 
L 366.020044 230.433962 
L 369.687076 231.782249 
L 377.021139 234.088493 
L 378.854655 234.82576 
L 389.85575 238.358245 
L 391.689266 238.873857 
L 393.522782 239.602092 
L 395.356298 239.974924 
L 397.189814 240.545068 
L 399.02333 241.242217 
L 400.856846 241.647465 
L 402.690361 242.224851 
L 404.523877 243.034831 
L 406.357393 243.672019 
L 408.190909 244.186673 
L 410.024425 244.870844 
L 411.857941 245.360986 
L 413.691457 245.983965 
L 419.192004 247.504416 
L 421.02552 248.119702 
L 422.859036 248.994879 
L 424.692552 249.402176 
L 428.359584 250.750715 
L 432.026616 251.636635 
L 437.527163 253.567385 
L 439.360679 254.017632 
L 441.194195 254.304677 
L 450.361774 256.791066 
L 452.19529 257.230615 
L 454.028806 257.792042 
L 455.862322 258.180473 
L 457.695838 258.930122 
L 459.529354 259.551903 
L 461.36287 259.941124 
L 463.196386 260.608213 
L 465.029901 261.155181 
L 466.863417 261.557568 
L 468.696933 262.292597 
L 470.530449 262.660343 
L 474.197481 263.586831 
L 479.698028 264.685952 
L 485.198576 266.24413 
L 487.032092 266.639503 
L 488.865608 267.389147 
L 490.699124 267.739802 
L 494.366156 268.873653 
L 505.367251 271.661624 
L 507.200767 272.195373 
L 518.201862 274.651749 
L 520.035378 274.938113 
L 521.868894 275.543801 
L 531.036473 277.920497 
L 532.869989 278.110027 
L 534.703505 278.724648 
L 536.537021 279.165438 
L 538.370537 279.774916 
L 540.204053 280.092889 
L 542.037568 280.610736 
L 543.871084 281.26368 
L 545.7046 281.765024 
L 547.538116 282.045311 
L 549.371632 282.591429 
L 551.205148 283.019881 
L 556.705696 283.493492 
L 558.539211 283.731881 
L 560.372727 283.807565 
L 560.372727 283.807565 
" clip-path="url(#p5618c27013)" style="fill: none; stroke: #ff0000; stroke-width: 1.5; stroke-linecap: square"/>
   </g>
   <g id="line2d_31">
    <path d="M 103.827273 217.617369 
L 111.161336 217.407711 
L 122.162432 217.945032 
L 123.995947 218.175412 
L 125.829463 218.264419 
L 129.496495 218.240612 
L 133.163527 218.327558 
L 134.997043 218.060545 
L 138.664074 218.272192 
L 140.49759 218.144348 
L 142.331106 218.214671 
L 144.164622 218.403569 
L 149.66517 218.334883 
L 151.498686 218.232061 
L 153.332202 218.255414 
L 160.666265 217.536855 
L 162.499781 217.567939 
L 166.166813 217.887637 
L 168.000329 217.925316 
L 177.167908 218.788585 
L 180.83494 218.66907 
L 182.668456 218.4876 
L 186.335487 218.491689 
L 190.002519 218.138937 
L 195.503067 218.118744 
L 204.670646 218.012638 
L 206.504162 218.252491 
L 210.171194 218.312105 
L 213.838226 218.349928 
L 215.671742 218.441335 
L 217.505257 218.704866 
L 223.005805 218.980727 
L 226.672837 218.633924 
L 230.339869 218.595862 
L 234.0069 218.646216 
L 235.840416 218.289882 
L 237.673932 218.314031 
L 239.507448 218.115718 
L 243.17448 218.395911 
L 248.675027 219.056185 
L 252.342059 218.94016 
L 256.009091 218.841149 
L 257.842607 219.017599 
L 259.676123 218.946009 
L 261.509639 218.745533 
L 263.343154 218.763859 
L 265.17667 218.497106 
L 268.843702 218.231634 
L 274.34425 218.65705 
L 276.177766 218.543004 
L 279.844797 218.65301 
L 281.678313 218.46478 
L 290.845893 218.270629 
L 292.679409 218.070735 
L 309.181051 218.64624 
L 312.848083 218.779057 
L 314.681599 218.587873 
L 323.849179 218.303615 
L 331.183242 218.413276 
L 334.850274 218.842691 
L 336.68379 218.926186 
L 338.517306 218.809291 
L 340.350821 218.880059 
L 344.017853 219.15884 
L 345.851369 219.107596 
L 347.684885 218.8812 
L 351.351917 218.716484 
L 358.68598 218.962881 
L 362.353012 218.635737 
L 364.186528 218.687565 
L 366.020044 218.597393 
L 367.85356 218.676656 
L 373.354107 218.495776 
L 375.187623 218.303992 
L 388.022234 218.324593 
L 391.689266 218.08722 
L 393.522782 218.259517 
L 395.356298 218.069879 
L 397.189814 218.044914 
L 399.02333 218.202102 
L 402.690361 218.043435 
L 406.357393 218.345015 
L 408.190909 218.306973 
L 410.024425 218.457567 
L 411.857941 218.429288 
L 413.691457 218.624676 
L 419.192004 218.499103 
L 421.02552 218.533811 
L 422.859036 218.815519 
L 424.692552 218.63443 
L 428.359584 218.725818 
L 430.1931 218.630101 
L 432.026616 218.646236 
L 433.860131 218.845022 
L 439.360679 218.776247 
L 441.194195 218.547389 
L 443.027711 218.59023 
L 446.694743 218.453182 
L 448.528258 218.524786 
L 450.361774 218.370455 
L 455.862322 218.282849 
L 459.529354 218.757638 
L 461.36287 218.645751 
L 465.029901 218.791117 
L 466.863417 218.674452 
L 468.696933 218.850642 
L 470.530449 218.631725 
L 472.363965 218.676843 
L 474.197481 218.599145 
L 477.864513 218.253785 
L 487.032092 218.365889 
L 488.865608 218.585985 
L 490.699124 218.543757 
L 494.366156 218.716174 
L 509.034283 218.614341 
L 512.701314 218.390078 
L 514.53483 218.493727 
L 520.035378 218.118479 
L 521.868894 218.320879 
L 523.70241 218.343753 
L 525.535926 218.185374 
L 527.369441 218.199871 
L 529.202957 218.352198 
L 531.036473 218.379373 
L 532.869989 218.124062 
L 534.703505 218.317414 
L 538.370537 218.415008 
L 540.204053 218.214274 
L 543.871084 218.553633 
L 549.371632 218.723281 
L 551.205148 218.927512 
L 554.87218 218.869559 
L 560.372727 219.127888 
L 560.372727 219.127888 
" clip-path="url(#p5618c27013)" style="fill: none; stroke: #808080; stroke-width: 1.5; stroke-linecap: square"/>
   </g>
   <g id="line2d_32">
    <path d="M 103.827273 83.347439 
L 105.660789 83.921596 
L 107.494304 84.72195 
L 109.32782 85.304317 
L 111.161336 86.090172 
L 112.994852 87.070593 
L 114.828368 88.391088 
L 120.328916 93.007971 
L 123.995947 96.264393 
L 127.662979 99.333019 
L 129.496495 100.519443 
L 131.330011 102.098227 
L 138.664074 107.510004 
L 140.49759 108.665891 
L 144.164622 111.397489 
L 145.998138 113.250655 
L 151.498686 116.937201 
L 153.332202 118.388043 
L 158.832749 122.254954 
L 162.499781 124.393934 
L 164.333297 126.110716 
L 166.166813 127.281186 
L 168.000329 128.619759 
L 169.833844 130.309657 
L 179.001424 136.646142 
L 180.83494 137.399805 
L 182.668456 138.686462 
L 184.501972 139.702327 
L 186.335487 141.237829 
L 188.169003 142.921144 
L 190.002519 144.001244 
L 195.503067 147.725329 
L 199.170099 149.865971 
L 202.83713 151.649099 
L 204.670646 152.638298 
L 206.504162 154.247527 
L 208.337678 155.374304 
L 210.171194 156.650943 
L 212.00471 157.644894 
L 215.671742 160.150887 
L 217.505257 161.618775 
L 221.172289 163.820608 
L 226.672837 166.770827 
L 228.506353 168.016606 
L 230.339869 168.809812 
L 232.173384 169.784951 
L 234.0069 170.888336 
L 235.840416 171.78049 
L 237.673932 172.91069 
L 241.340964 174.649663 
L 245.007996 177.152409 
L 246.841512 178.642985 
L 248.675027 179.823329 
L 252.342059 181.743128 
L 265.17667 187.766408 
L 267.010186 188.827506 
L 270.677218 190.520591 
L 272.510734 191.40444 
L 274.34425 192.492362 
L 278.011281 194.172893 
L 279.844797 195.132764 
L 281.678313 195.89523 
L 285.345345 197.865315 
L 287.178861 198.785455 
L 292.679409 201.058196 
L 300.013472 204.45275 
L 309.181051 208.883197 
L 312.848083 210.903712 
L 322.015663 214.260118 
L 323.849179 214.742564 
L 329.349726 216.639302 
L 336.68379 220.069416 
L 338.517306 220.639089 
L 345.851369 223.816434 
L 347.684885 224.306061 
L 351.351917 225.839776 
L 355.018949 227.039247 
L 356.852464 227.771461 
L 358.68598 228.382722 
L 360.519496 228.759353 
L 362.353012 229.291402 
L 364.186528 229.950194 
L 366.020044 230.392129 
L 369.687076 231.788344 
L 388.022234 238.321472 
L 391.689266 239.457402 
L 393.522782 240.246601 
L 395.356298 240.650118 
L 397.189814 241.270041 
L 399.02333 242.035694 
L 400.856846 242.497498 
L 402.690361 243.152714 
L 404.523877 244.059376 
L 406.357393 244.735146 
L 408.190909 245.276871 
L 410.024425 245.995544 
L 411.857941 246.541735 
L 413.691457 247.231098 
L 419.192004 248.92173 
L 421.02552 249.60288 
L 422.859036 250.494794 
L 424.692552 250.980913 
L 428.359584 252.55473 
L 432.026616 253.507922 
L 437.527163 255.724395 
L 439.360679 256.266401 
L 441.194195 256.676633 
L 444.861227 257.972827 
L 450.361774 259.781509 
L 455.862322 261.53778 
L 457.695838 262.508533 
L 459.529354 263.255893 
L 461.36287 263.756543 
L 463.196386 264.598659 
L 465.029901 265.282849 
L 466.863417 265.763349 
L 468.696933 266.64921 
L 470.530449 267.16707 
L 472.363965 267.841546 
L 479.698028 269.70839 
L 485.198576 271.577208 
L 487.032092 272.096446 
L 488.865608 272.928502 
L 490.699124 273.37832 
L 494.366156 274.711918 
L 498.033187 275.564239 
L 501.700219 276.738195 
L 509.034283 278.720399 
L 510.867798 279.075825 
L 518.201862 281.131861 
L 520.035378 281.573806 
L 523.70241 282.855455 
L 525.535926 283.349728 
L 531.036473 285.274407 
L 532.869989 285.635865 
L 534.703505 286.334603 
L 536.537021 286.889321 
L 538.370537 287.637069 
L 542.037568 288.758581 
L 543.871084 289.573955 
L 545.7046 290.244975 
L 547.538116 290.588289 
L 551.205148 291.572003 
L 553.038664 291.822975 
L 560.372727 292.41 
L 560.372727 292.41 
" clip-path="url(#p5618c27013)" style="fill: none; stroke: #ff7f0e; stroke-width: 1.5; stroke-linecap: square"/>
   </g>
   <g id="line2d_33">
    <path d="M 103.827273 89.728127 
L 105.660789 90.247633 
L 107.494304 90.98449 
L 109.32782 91.528322 
L 111.161336 92.270943 
L 112.994852 93.177086 
L 114.828368 94.409611 
L 120.328916 98.704803 
L 123.995947 101.759132 
L 127.662979 104.673875 
L 129.496495 105.797515 
L 131.330011 107.336468 
L 144.164622 116.409274 
L 145.998138 118.175999 
L 151.498686 121.690127 
L 153.332202 123.084447 
L 160.666265 127.979773 
L 162.499781 129.046874 
L 164.333297 130.810781 
L 166.166813 132.009373 
L 168.000329 133.356535 
L 169.833844 135.059693 
L 177.167908 139.968879 
L 179.001424 141.004308 
L 180.83494 141.668904 
L 182.668456 142.752489 
L 184.501972 143.636968 
L 188.169003 146.34609 
L 190.002519 147.270706 
L 199.170099 152.70433 
L 202.83713 154.492337 
L 204.670646 155.479551 
L 206.504162 157.058657 
L 208.337678 158.153881 
L 210.171194 159.382211 
L 212.00471 160.319189 
L 215.671742 162.658088 
L 217.505257 164.014189 
L 221.172289 166.023683 
L 226.672837 168.762003 
L 228.506353 169.962816 
L 230.339869 170.719438 
L 234.0069 172.735328 
L 235.840416 173.539241 
L 237.673932 174.609855 
L 241.340964 176.200267 
L 245.007996 178.486509 
L 246.841512 179.808959 
L 248.675027 180.885771 
L 254.175575 183.420469 
L 257.842607 184.979235 
L 259.676123 185.864974 
L 261.509639 186.604125 
L 268.843702 190.150156 
L 272.510734 191.868463 
L 274.34425 192.868889 
L 278.011281 194.448994 
L 279.844797 195.328999 
L 281.678313 195.984383 
L 285.345345 197.828628 
L 287.178861 198.700813 
L 292.679409 200.964711 
L 311.014567 209.408822 
L 312.848083 210.345182 
L 316.515115 211.676283 
L 323.849179 214.215204 
L 327.51621 215.503104 
L 329.349726 216.235291 
L 334.850274 218.864564 
L 336.68379 219.635622 
L 338.517306 220.179783 
L 345.851369 223.181777 
L 347.684885 223.63719 
L 351.351917 225.136749 
L 358.68598 227.74512 
L 360.519496 228.144076 
L 362.353012 228.676435 
L 364.186528 229.332585 
L 366.020044 229.775805 
L 369.687076 231.128809 
L 377.021139 233.490406 
L 378.854655 234.252093 
L 388.022234 237.339206 
L 391.689266 238.405747 
L 393.522782 239.160496 
L 395.356298 239.531583 
L 397.189814 240.104684 
L 399.02333 240.81202 
L 400.856846 241.207573 
L 402.690361 241.779065 
L 404.523877 242.592613 
L 406.357393 243.225316 
L 408.190909 243.736907 
L 410.024425 244.433392 
L 411.857941 244.943221 
L 413.691457 245.596778 
L 419.192004 247.215475 
L 421.02552 247.879122 
L 422.859036 248.797934 
L 424.692552 249.259118 
L 428.359584 250.674343 
L 432.026616 251.550396 
L 435.693647 252.866154 
L 437.527163 253.480666 
L 439.360679 253.922418 
L 441.194195 254.188815 
L 448.528258 256.189202 
L 452.19529 256.943071 
L 454.028806 257.443588 
L 455.862322 257.758437 
L 457.695838 258.448913 
L 459.529354 258.998424 
L 461.36287 259.278012 
L 465.029901 260.346144 
L 466.863417 260.658783 
L 468.696933 261.279332 
L 470.530449 261.537582 
L 472.363965 261.994334 
L 476.030997 262.55897 
L 477.864513 262.800737 
L 481.531544 263.672228 
L 485.198576 264.556934 
L 487.032092 264.932216 
L 488.865608 265.652506 
L 490.699124 265.962851 
L 494.366156 267.137815 
L 505.367251 269.953833 
L 507.200767 270.525412 
L 516.368346 272.600049 
L 520.035378 273.417867 
L 521.868894 274.090669 
L 531.036473 276.768238 
L 532.869989 277.002849 
L 534.703505 277.648448 
L 536.537021 278.06852 
L 538.370537 278.661257 
L 540.204053 278.991756 
L 545.7046 280.657893 
L 549.371632 281.380968 
L 551.205148 281.791411 
L 556.705696 282.252346 
L 558.539211 282.422661 
L 560.372727 282.436691 
L 560.372727 282.436691 
" clip-path="url(#p5618c27013)" style="fill: none; stroke: #1f77b4; stroke-width: 1.5; stroke-linecap: square"/>
   </g>
   <g id="legend_1">
    <g id="patch_7">
     <path d="M 384.079688 151.786875 
L 576.2 151.786875 
Q 578.2 151.786875 578.2 149.786875 
L 578.2 48.04 
Q 578.2 46.04 576.2 46.04 
L 384.079688 46.04 
Q 382.079688 46.04 382.079688 48.04 
L 382.079688 149.786875 
Q 382.079688 151.786875 384.079688 151.786875 
z
" style="fill: #ffffff; opacity: 0.8; stroke: #e6e6e6; stroke-linejoin: miter"/>
    </g>
    <g id="line2d_34">
     <path d="M 386.079688 54.138438 
L 396.079688 54.138438 
L 406.079688 54.138438 
" style="fill: none; stroke-dasharray: 1.5,2.475; stroke-dashoffset: 0; stroke: #ff0000; stroke-width: 1.5"/>
    </g>
    <g id="text_17">
     <!-- R/S (AUC:0.0662) -->
     <g transform="translate(414.079688 57.638438)scale(0.1 -0.1)">
      <defs>
       <path id="DejaVuSans-52" d="M 2841 2188 
Q 3044 2119 3236 1894 
Q 3428 1669 3622 1275 
L 4263 0 
L 3584 0 
L 2988 1197 
Q 2756 1666 2539 1819 
Q 2322 1972 1947 1972 
L 1259 1972 
L 1259 0 
L 628 0 
L 628 4666 
L 2053 4666 
Q 2853 4666 3247 4331 
Q 3641 3997 3641 3322 
Q 3641 2881 3436 2590 
Q 3231 2300 2841 2188 
z
M 1259 4147 
L 1259 2491 
L 2053 2491 
Q 2509 2491 2742 2702 
Q 2975 2913 2975 3322 
Q 2975 3731 2742 3939 
Q 2509 4147 2053 4147 
L 1259 4147 
z
" transform="scale(0.015625)"/>
       <path id="DejaVuSans-53" d="M 3425 4513 
L 3425 3897 
Q 3066 4069 2747 4153 
Q 2428 4238 2131 4238 
Q 1616 4238 1336 4038 
Q 1056 3838 1056 3469 
Q 1056 3159 1242 3001 
Q 1428 2844 1947 2747 
L 2328 2669 
Q 3034 2534 3370 2195 
Q 3706 1856 3706 1288 
Q 3706 609 3251 259 
Q 2797 -91 1919 -91 
Q 1588 -91 1214 -16 
Q 841 59 441 206 
L 441 856 
Q 825 641 1194 531 
Q 1563 422 1919 422 
Q 2459 422 2753 634 
Q 3047 847 3047 1241 
Q 3047 1584 2836 1778 
Q 2625 1972 2144 2069 
L 1759 2144 
Q 1053 2284 737 2584 
Q 422 2884 422 3419 
Q 422 4038 858 4394 
Q 1294 4750 2059 4750 
Q 2388 4750 2728 4690 
Q 3069 4631 3425 4513 
z
" transform="scale(0.015625)"/>
       <path id="DejaVuSans-41" d="M 2188 4044 
L 1331 1722 
L 3047 1722 
L 2188 4044 
z
M 1831 4666 
L 2547 4666 
L 4325 0 
L 3669 0 
L 3244 1197 
L 1141 1197 
L 716 0 
L 50 0 
L 1831 4666 
z
" transform="scale(0.015625)"/>
       <path id="DejaVuSans-55" d="M 556 4666 
L 1191 4666 
L 1191 1831 
Q 1191 1081 1462 751 
Q 1734 422 2344 422 
Q 2950 422 3222 751 
Q 3494 1081 3494 1831 
L 3494 4666 
L 4128 4666 
L 4128 1753 
Q 4128 841 3676 375 
Q 3225 -91 2344 -91 
Q 1459 -91 1007 375 
Q 556 841 556 1753 
L 556 4666 
z
" transform="scale(0.015625)"/>
       <path id="DejaVuSans-43" d="M 4122 4306 
L 4122 3641 
Q 3803 3938 3442 4084 
Q 3081 4231 2675 4231 
Q 1875 4231 1450 3742 
Q 1025 3253 1025 2328 
Q 1025 1406 1450 917 
Q 1875 428 2675 428 
Q 3081 428 3442 575 
Q 3803 722 4122 1019 
L 4122 359 
Q 3791 134 3420 21 
Q 3050 -91 2638 -91 
Q 1578 -91 968 557 
Q 359 1206 359 2328 
Q 359 3453 968 4101 
Q 1578 4750 2638 4750 
Q 3056 4750 3426 4639 
Q 3797 4528 4122 4306 
z
" transform="scale(0.015625)"/>
      </defs>
      <use xlink:href="#DejaVuSans-52"/>
      <use xlink:href="#DejaVuSans-2f" x="69.482422"/>
      <use xlink:href="#DejaVuSans-53" x="103.173828"/>
      <use xlink:href="#DejaVuSans-20" x="166.650391"/>
      <use xlink:href="#DejaVuSans-28" x="198.4375"/>
      <use xlink:href="#DejaVuSans-41" x="237.451172"/>
      <use xlink:href="#DejaVuSans-55" x="305.859375"/>
      <use xlink:href="#DejaVuSans-43" x="379.052734"/>
      <use xlink:href="#DejaVuSans-3a" x="448.876953"/>
      <use xlink:href="#DejaVuSans-30" x="482.568359"/>
      <use xlink:href="#DejaVuSans-2e" x="546.191406"/>
      <use xlink:href="#DejaVuSans-30" x="577.978516"/>
      <use xlink:href="#DejaVuSans-36" x="641.601562"/>
      <use xlink:href="#DejaVuSans-36" x="705.224609"/>
      <use xlink:href="#DejaVuSans-32" x="768.847656"/>
      <use xlink:href="#DejaVuSans-29" x="832.470703"/>
     </g>
    </g>
    <g id="line2d_35">
     <path d="M 386.079688 68.816563 
L 396.079688 68.816563 
L 406.079688 68.816563 
" style="fill: none; stroke-dasharray: 9.6,2.4,1.5,2.4; stroke-dashoffset: 0; stroke: #ff0000; stroke-width: 1.5"/>
    </g>
    <g id="text_18">
     <!-- variogram (AUC:0.0579) -->
     <g transform="translate(414.079688 72.316563)scale(0.1 -0.1)">
      <defs>
       <path id="DejaVuSans-6f" d="M 1959 3097 
Q 1497 3097 1228 2736 
Q 959 2375 959 1747 
Q 959 1119 1226 758 
Q 1494 397 1959 397 
Q 2419 397 2687 759 
Q 2956 1122 2956 1747 
Q 2956 2369 2687 2733 
Q 2419 3097 1959 3097 
z
M 1959 3584 
Q 2709 3584 3137 3096 
Q 3566 2609 3566 1747 
Q 3566 888 3137 398 
Q 2709 -91 1959 -91 
Q 1206 -91 779 398 
Q 353 888 353 1747 
Q 353 2609 779 3096 
Q 1206 3584 1959 3584 
z
" transform="scale(0.015625)"/>
       <path id="DejaVuSans-67" d="M 2906 1791 
Q 2906 2416 2648 2759 
Q 2391 3103 1925 3103 
Q 1463 3103 1205 2759 
Q 947 2416 947 1791 
Q 947 1169 1205 825 
Q 1463 481 1925 481 
Q 2391 481 2648 825 
Q 2906 1169 2906 1791 
z
M 3481 434 
Q 3481 -459 3084 -895 
Q 2688 -1331 1869 -1331 
Q 1566 -1331 1297 -1286 
Q 1028 -1241 775 -1147 
L 775 -588 
Q 1028 -725 1275 -790 
Q 1522 -856 1778 -856 
Q 2344 -856 2625 -561 
Q 2906 -266 2906 331 
L 2906 616 
Q 2728 306 2450 153 
Q 2172 0 1784 0 
Q 1141 0 747 490 
Q 353 981 353 1791 
Q 353 2603 747 3093 
Q 1141 3584 1784 3584 
Q 2172 3584 2450 3431 
Q 2728 3278 2906 2969 
L 2906 3500 
L 3481 3500 
L 3481 434 
z
" transform="scale(0.015625)"/>
       <path id="DejaVuSans-6d" d="M 3328 2828 
Q 3544 3216 3844 3400 
Q 4144 3584 4550 3584 
Q 5097 3584 5394 3201 
Q 5691 2819 5691 2113 
L 5691 0 
L 5113 0 
L 5113 2094 
Q 5113 2597 4934 2840 
Q 4756 3084 4391 3084 
Q 3944 3084 3684 2787 
Q 3425 2491 3425 1978 
L 3425 0 
L 2847 0 
L 2847 2094 
Q 2847 2600 2669 2842 
Q 2491 3084 2119 3084 
Q 1678 3084 1418 2786 
Q 1159 2488 1159 1978 
L 1159 0 
L 581 0 
L 581 3500 
L 1159 3500 
L 1159 2956 
Q 1356 3278 1631 3431 
Q 1906 3584 2284 3584 
Q 2666 3584 2933 3390 
Q 3200 3197 3328 2828 
z
" transform="scale(0.015625)"/>
       <path id="DejaVuSans-37" d="M 525 4666 
L 3525 4666 
L 3525 4397 
L 1831 0 
L 1172 0 
L 2766 4134 
L 525 4134 
L 525 4666 
z
" transform="scale(0.015625)"/>
       <path id="DejaVuSans-39" d="M 703 97 
L 703 672 
Q 941 559 1184 500 
Q 1428 441 1663 441 
Q 2288 441 2617 861 
Q 2947 1281 2994 2138 
Q 2813 1869 2534 1725 
Q 2256 1581 1919 1581 
Q 1219 1581 811 2004 
Q 403 2428 403 3163 
Q 403 3881 828 4315 
Q 1253 4750 1959 4750 
Q 2769 4750 3195 4129 
Q 3622 3509 3622 2328 
Q 3622 1225 3098 567 
Q 2575 -91 1691 -91 
Q 1453 -91 1209 -44 
Q 966 3 703 97 
z
M 1959 2075 
Q 2384 2075 2632 2365 
Q 2881 2656 2881 3163 
Q 2881 3666 2632 3958 
Q 2384 4250 1959 4250 
Q 1534 4250 1286 3958 
Q 1038 3666 1038 3163 
Q 1038 2656 1286 2365 
Q 1534 2075 1959 2075 
z
" transform="scale(0.015625)"/>
      </defs>
      <use xlink:href="#DejaVuSans-76"/>
      <use xlink:href="#DejaVuSans-61" x="59.179688"/>
      <use xlink:href="#DejaVuSans-72" x="120.458984"/>
      <use xlink:href="#DejaVuSans-69" x="161.572266"/>
      <use xlink:href="#DejaVuSans-6f" x="189.355469"/>
      <use xlink:href="#DejaVuSans-67" x="250.537109"/>
      <use xlink:href="#DejaVuSans-72" x="314.013672"/>
      <use xlink:href="#DejaVuSans-61" x="355.126953"/>
      <use xlink:href="#DejaVuSans-6d" x="416.40625"/>
      <use xlink:href="#DejaVuSans-20" x="513.818359"/>
      <use xlink:href="#DejaVuSans-28" x="545.605469"/>
      <use xlink:href="#DejaVuSans-41" x="584.619141"/>
      <use xlink:href="#DejaVuSans-55" x="653.027344"/>
      <use xlink:href="#DejaVuSans-43" x="726.220703"/>
      <use xlink:href="#DejaVuSans-3a" x="796.044922"/>
      <use xlink:href="#DejaVuSans-30" x="829.736328"/>
      <use xlink:href="#DejaVuSans-2e" x="893.359375"/>
      <use xlink:href="#DejaVuSans-30" x="925.146484"/>
      <use xlink:href="#DejaVuSans-35" x="988.769531"/>
      <use xlink:href="#DejaVuSans-37" x="1052.392578"/>
      <use xlink:href="#DejaVuSans-39" x="1116.015625"/>
      <use xlink:href="#DejaVuSans-29" x="1179.638672"/>
     </g>
    </g>
    <g id="line2d_36">
     <path d="M 386.079688 83.494687 
L 396.079688 83.494687 
L 406.079688 83.494687 
" style="fill: none; stroke-dasharray: 5.55,2.4; stroke-dashoffset: 0; stroke: #ff0000; stroke-width: 1.5"/>
    </g>
    <g id="text_19">
     <!-- Higuchi (AUC:0.0442) -->
     <g transform="translate(414.079688 86.994687)scale(0.1 -0.1)">
      <defs>
       <path id="DejaVuSans-48" d="M 628 4666 
L 1259 4666 
L 1259 2753 
L 3553 2753 
L 3553 4666 
L 4184 4666 
L 4184 0 
L 3553 0 
L 3553 2222 
L 1259 2222 
L 1259 0 
L 628 0 
L 628 4666 
z
" transform="scale(0.015625)"/>
       <path id="DejaVuSans-75" d="M 544 1381 
L 544 3500 
L 1119 3500 
L 1119 1403 
Q 1119 906 1312 657 
Q 1506 409 1894 409 
Q 2359 409 2629 706 
Q 2900 1003 2900 1516 
L 2900 3500 
L 3475 3500 
L 3475 0 
L 2900 0 
L 2900 538 
Q 2691 219 2414 64 
Q 2138 -91 1772 -91 
Q 1169 -91 856 284 
Q 544 659 544 1381 
z
M 1991 3584 
L 1991 3584 
z
" transform="scale(0.015625)"/>
       <path id="DejaVuSans-63" d="M 3122 3366 
L 3122 2828 
Q 2878 2963 2633 3030 
Q 2388 3097 2138 3097 
Q 1578 3097 1268 2742 
Q 959 2388 959 1747 
Q 959 1106 1268 751 
Q 1578 397 2138 397 
Q 2388 397 2633 464 
Q 2878 531 3122 666 
L 3122 134 
Q 2881 22 2623 -34 
Q 2366 -91 2075 -91 
Q 1284 -91 818 406 
Q 353 903 353 1747 
Q 353 2603 823 3093 
Q 1294 3584 2113 3584 
Q 2378 3584 2631 3529 
Q 2884 3475 3122 3366 
z
" transform="scale(0.015625)"/>
       <path id="DejaVuSans-68" d="M 3513 2113 
L 3513 0 
L 2938 0 
L 2938 2094 
Q 2938 2591 2744 2837 
Q 2550 3084 2163 3084 
Q 1697 3084 1428 2787 
Q 1159 2491 1159 1978 
L 1159 0 
L 581 0 
L 581 4863 
L 1159 4863 
L 1159 2956 
Q 1366 3272 1645 3428 
Q 1925 3584 2291 3584 
Q 2894 3584 3203 3211 
Q 3513 2838 3513 2113 
z
" transform="scale(0.015625)"/>
      </defs>
      <use xlink:href="#DejaVuSans-48"/>
      <use xlink:href="#DejaVuSans-69" x="75.195312"/>
      <use xlink:href="#DejaVuSans-67" x="102.978516"/>
      <use xlink:href="#DejaVuSans-75" x="166.455078"/>
      <use xlink:href="#DejaVuSans-63" x="229.833984"/>
      <use xlink:href="#DejaVuSans-68" x="284.814453"/>
      <use xlink:href="#DejaVuSans-69" x="348.193359"/>
      <use xlink:href="#DejaVuSans-20" x="375.976562"/>
      <use xlink:href="#DejaVuSans-28" x="407.763672"/>
      <use xlink:href="#DejaVuSans-41" x="446.777344"/>
      <use xlink:href="#DejaVuSans-55" x="515.185547"/>
      <use xlink:href="#DejaVuSans-43" x="588.378906"/>
      <use xlink:href="#DejaVuSans-3a" x="658.203125"/>
      <use xlink:href="#DejaVuSans-30" x="691.894531"/>
      <use xlink:href="#DejaVuSans-2e" x="755.517578"/>
      <use xlink:href="#DejaVuSans-30" x="787.304688"/>
      <use xlink:href="#DejaVuSans-34" x="850.927734"/>
      <use xlink:href="#DejaVuSans-34" x="914.550781"/>
      <use xlink:href="#DejaVuSans-32" x="978.173828"/>
      <use xlink:href="#DejaVuSans-29" x="1041.796875"/>
     </g>
    </g>
    <g id="line2d_37">
     <path d="M 386.079688 98.172813 
L 396.079688 98.172813 
L 406.079688 98.172813 
" style="fill: none; stroke: #ff0000; stroke-width: 1.5; stroke-linecap: square"/>
    </g>
    <g id="text_20">
     <!-- Whittle fBm (AUC:0.0555) -->
     <g transform="translate(414.079688 101.672813)scale(0.1 -0.1)">
      <defs>
       <path id="DejaVuSans-57" d="M 213 4666 
L 850 4666 
L 1831 722 
L 2809 4666 
L 3519 4666 
L 4500 722 
L 5478 4666 
L 6119 4666 
L 4947 0 
L 4153 0 
L 3169 4050 
L 2175 0 
L 1381 0 
L 213 4666 
z
" transform="scale(0.015625)"/>
       <path id="DejaVuSans-66" d="M 2375 4863 
L 2375 4384 
L 1825 4384 
Q 1516 4384 1395 4259 
Q 1275 4134 1275 3809 
L 1275 3500 
L 2222 3500 
L 2222 3053 
L 1275 3053 
L 1275 0 
L 697 0 
L 697 3053 
L 147 3053 
L 147 3500 
L 697 3500 
L 697 3744 
Q 697 4328 969 4595 
Q 1241 4863 1831 4863 
L 2375 4863 
z
" transform="scale(0.015625)"/>
      </defs>
      <use xlink:href="#DejaVuSans-57"/>
      <use xlink:href="#DejaVuSans-68" x="98.876953"/>
      <use xlink:href="#DejaVuSans-69" x="162.255859"/>
      <use xlink:href="#DejaVuSans-74" x="190.039062"/>
      <use xlink:href="#DejaVuSans-74" x="229.248047"/>
      <use xlink:href="#DejaVuSans-6c" x="268.457031"/>
      <use xlink:href="#DejaVuSans-65" x="296.240234"/>
      <use xlink:href="#DejaVuSans-20" x="357.763672"/>
      <use xlink:href="#DejaVuSans-66" x="389.550781"/>
      <use xlink:href="#DejaVuSans-42" x="424.755859"/>
      <use xlink:href="#DejaVuSans-6d" x="493.359375"/>
      <use xlink:href="#DejaVuSans-20" x="590.771484"/>
      <use xlink:href="#DejaVuSans-28" x="622.558594"/>
      <use xlink:href="#DejaVuSans-41" x="661.572266"/>
      <use xlink:href="#DejaVuSans-55" x="729.980469"/>
      <use xlink:href="#DejaVuSans-43" x="803.173828"/>
      <use xlink:href="#DejaVuSans-3a" x="872.998047"/>
      <use xlink:href="#DejaVuSans-30" x="906.689453"/>
      <use xlink:href="#DejaVuSans-2e" x="970.3125"/>
      <use xlink:href="#DejaVuSans-30" x="1002.099609"/>
      <use xlink:href="#DejaVuSans-35" x="1065.722656"/>
      <use xlink:href="#DejaVuSans-35" x="1129.345703"/>
      <use xlink:href="#DejaVuSans-35" x="1192.96875"/>
      <use xlink:href="#DejaVuSans-29" x="1256.591797"/>
     </g>
    </g>
    <g id="line2d_38">
     <path d="M 386.079688 112.850938 
L 396.079688 112.850938 
L 406.079688 112.850938 
" style="fill: none; stroke: #808080; stroke-width: 1.5; stroke-linecap: square"/>
    </g>
    <g id="text_21">
     <!-- Whittle ARFIMA (AUC:0.000414) -->
     <g transform="translate(414.079688 116.350938)scale(0.1 -0.1)">
      <defs>
       <path id="DejaVuSans-46" d="M 628 4666 
L 3309 4666 
L 3309 4134 
L 1259 4134 
L 1259 2759 
L 3109 2759 
L 3109 2228 
L 1259 2228 
L 1259 0 
L 628 0 
L 628 4666 
z
" transform="scale(0.015625)"/>
       <path id="DejaVuSans-49" d="M 628 4666 
L 1259 4666 
L 1259 0 
L 628 0 
L 628 4666 
z
" transform="scale(0.015625)"/>
       <path id="DejaVuSans-4d" d="M 628 4666 
L 1569 4666 
L 2759 1491 
L 3956 4666 
L 4897 4666 
L 4897 0 
L 4281 0 
L 4281 4097 
L 3078 897 
L 2444 897 
L 1241 4097 
L 1241 0 
L 628 0 
L 628 4666 
z
" transform="scale(0.015625)"/>
      </defs>
      <use xlink:href="#DejaVuSans-57"/>
      <use xlink:href="#DejaVuSans-68" x="98.876953"/>
      <use xlink:href="#DejaVuSans-69" x="162.255859"/>
      <use xlink:href="#DejaVuSans-74" x="190.039062"/>
      <use xlink:href="#DejaVuSans-74" x="229.248047"/>
      <use xlink:href="#DejaVuSans-6c" x="268.457031"/>
      <use xlink:href="#DejaVuSans-65" x="296.240234"/>
      <use xlink:href="#DejaVuSans-20" x="357.763672"/>
      <use xlink:href="#DejaVuSans-41" x="389.550781"/>
      <use xlink:href="#DejaVuSans-52" x="457.958984"/>
      <use xlink:href="#DejaVuSans-46" x="527.441406"/>
      <use xlink:href="#DejaVuSans-49" x="584.960938"/>
      <use xlink:href="#DejaVuSans-4d" x="614.453125"/>
      <use xlink:href="#DejaVuSans-41" x="700.732422"/>
      <use xlink:href="#DejaVuSans-20" x="769.140625"/>
      <use xlink:href="#DejaVuSans-28" x="800.927734"/>
      <use xlink:href="#DejaVuSans-41" x="839.941406"/>
      <use xlink:href="#DejaVuSans-55" x="908.349609"/>
      <use xlink:href="#DejaVuSans-43" x="981.542969"/>
      <use xlink:href="#DejaVuSans-3a" x="1051.367188"/>
      <use xlink:href="#DejaVuSans-30" x="1085.058594"/>
      <use xlink:href="#DejaVuSans-2e" x="1148.681641"/>
      <use xlink:href="#DejaVuSans-30" x="1180.46875"/>
      <use xlink:href="#DejaVuSans-30" x="1244.091797"/>
      <use xlink:href="#DejaVuSans-30" x="1307.714844"/>
      <use xlink:href="#DejaVuSans-34" x="1371.337891"/>
      <use xlink:href="#DejaVuSans-31" x="1434.960938"/>
      <use xlink:href="#DejaVuSans-34" x="1498.583984"/>
      <use xlink:href="#DejaVuSans-29" x="1562.207031"/>
     </g>
    </g>
    <g id="line2d_39">
     <path d="M 386.079688 127.529063 
L 396.079688 127.529063 
L 406.079688 127.529063 
" style="fill: none; stroke: #ff7f0e; stroke-width: 1.5; stroke-linecap: square"/>
    </g>
    <g id="text_22">
     <!-- 1D CNN (AUC:0.0619) -->
     <g transform="translate(414.079688 131.029063)scale(0.1 -0.1)">
      <defs>
       <path id="DejaVuSans-44" d="M 1259 4147 
L 1259 519 
L 2022 519 
Q 2988 519 3436 956 
Q 3884 1394 3884 2338 
Q 3884 3275 3436 3711 
Q 2988 4147 2022 4147 
L 1259 4147 
z
M 628 4666 
L 1925 4666 
Q 3281 4666 3915 4102 
Q 4550 3538 4550 2338 
Q 4550 1131 3912 565 
Q 3275 0 1925 0 
L 628 0 
L 628 4666 
z
" transform="scale(0.015625)"/>
       <path id="DejaVuSans-4e" d="M 628 4666 
L 1478 4666 
L 3547 763 
L 3547 4666 
L 4159 4666 
L 4159 0 
L 3309 0 
L 1241 3903 
L 1241 0 
L 628 0 
L 628 4666 
z
" transform="scale(0.015625)"/>
      </defs>
      <use xlink:href="#DejaVuSans-31"/>
      <use xlink:href="#DejaVuSans-44" x="63.623047"/>
      <use xlink:href="#DejaVuSans-20" x="140.625"/>
      <use xlink:href="#DejaVuSans-43" x="172.412109"/>
      <use xlink:href="#DejaVuSans-4e" x="242.236328"/>
      <use xlink:href="#DejaVuSans-4e" x="317.041016"/>
      <use xlink:href="#DejaVuSans-20" x="391.845703"/>
      <use xlink:href="#DejaVuSans-28" x="423.632812"/>
      <use xlink:href="#DejaVuSans-41" x="462.646484"/>
      <use xlink:href="#DejaVuSans-55" x="531.054688"/>
      <use xlink:href="#DejaVuSans-43" x="604.248047"/>
      <use xlink:href="#DejaVuSans-3a" x="674.072266"/>
      <use xlink:href="#DejaVuSans-30" x="707.763672"/>
      <use xlink:href="#DejaVuSans-2e" x="771.386719"/>
      <use xlink:href="#DejaVuSans-30" x="803.173828"/>
      <use xlink:href="#DejaVuSans-36" x="866.796875"/>
      <use xlink:href="#DejaVuSans-31" x="930.419922"/>
      <use xlink:href="#DejaVuSans-39" x="994.042969"/>
      <use xlink:href="#DejaVuSans-29" x="1057.666016"/>
     </g>
    </g>
    <g id="line2d_40">
     <path d="M 386.079688 142.207188 
L 396.079688 142.207188 
L 406.079688 142.207188 
" style="fill: none; stroke: #1f77b4; stroke-width: 1.5; stroke-linecap: square"/>
    </g>
    <g id="text_23">
     <!-- LSTM (AUC:0.0578) -->
     <g transform="translate(414.079688 145.707188)scale(0.1 -0.1)">
      <defs>
       <path id="DejaVuSans-4c" d="M 628 4666 
L 1259 4666 
L 1259 531 
L 3531 531 
L 3531 0 
L 628 0 
L 628 4666 
z
" transform="scale(0.015625)"/>
       <path id="DejaVuSans-54" d="M -19 4666 
L 3928 4666 
L 3928 4134 
L 2272 4134 
L 2272 0 
L 1638 0 
L 1638 4134 
L -19 4134 
L -19 4666 
z
" transform="scale(0.015625)"/>
      </defs>
      <use xlink:href="#DejaVuSans-4c"/>
      <use xlink:href="#DejaVuSans-53" x="55.712891"/>
      <use xlink:href="#DejaVuSans-54" x="119.189453"/>
      <use xlink:href="#DejaVuSans-4d" x="180.273438"/>
      <use xlink:href="#DejaVuSans-20" x="266.552734"/>
      <use xlink:href="#DejaVuSans-28" x="298.339844"/>
      <use xlink:href="#DejaVuSans-41" x="337.353516"/>
      <use xlink:href="#DejaVuSans-55" x="405.761719"/>
      <use xlink:href="#DejaVuSans-43" x="478.955078"/>
      <use xlink:href="#DejaVuSans-3a" x="548.779297"/>
      <use xlink:href="#DejaVuSans-30" x="582.470703"/>
      <use xlink:href="#DejaVuSans-2e" x="646.09375"/>
      <use xlink:href="#DejaVuSans-30" x="677.880859"/>
      <use xlink:href="#DejaVuSans-35" x="741.503906"/>
      <use xlink:href="#DejaVuSans-37" x="805.126953"/>
      <use xlink:href="#DejaVuSans-38" x="868.75"/>
      <use xlink:href="#DejaVuSans-29" x="932.373047"/>
     </g>
    </g>
   </g>
  </g>
 </g>
 <defs>
  <clipPath id="p5618c27013">
   <rect x="81" y="41.04" width="502.2" height="263.34"/>
  </clipPath>
 </defs>
</svg>
