<?xml version="1.0" encoding="utf-8" standalone="no"?>
<!DOCTYPE svg PUBLIC "-//W3C//DTD SVG 1.1//EN"
  "http://www.w3.org/Graphics/SVG/1.1/DTD/svg11.dtd">
<svg xmlns:xlink="http://www.w3.org/1999/xlink" width="583.2pt" height="340.2pt" viewBox="0 0 583.2 340.2" xmlns="http://www.w3.org/2000/svg" version="1.1">
 <metadata>
  <rdf:RDF xmlns:dc="http://purl.org/dc/elements/1.1/" xmlns:cc="http://creativecommons.org/ns#" xmlns:rdf="http://www.w3.org/1999/02/22-rdf-syntax-ns#">
   <cc:Work>
    <dc:type rdf:resource="http://purl.org/dc/dcmitype/StillImage"/>
    <dc:date>2024-07-05T18:13:02.965128</dc:date>
    <dc:format>image/svg+xml</dc:format>
    <dc:creator>
     <cc:Agent>
      <dc:title>Matplotlib v3.5.1, https://matplotlib.org/</dc:title>
     </cc:Agent>
    </dc:creator>
   </cc:Work>
  </rdf:RDF>
 </metadata>
 <defs>
  <style type="text/css">*{stroke-linejoin: round; stroke-linecap: butt}</style>
 </defs>
 <g id="figure_1">
  <g id="patch_1">
   <path d="M 0 340.2 
L 583.2 340.2 
L 583.2 0 
L 0 0 
z
" style="fill: #ffffff"/>
  </g>
  <g id="axes_1">
   <g id="patch_2">
    <path d="M 72.9 302.778 
L 524.88 302.778 
L 524.88 40.824 
L 72.9 40.824 
L 72.9 302.778 
z
" style="fill: none; opacity: 0"/>
   </g>
   <g id="matplotlib.axis_1">
    <g id="xtick_1">
     <g id="line2d_1">
      <path d="M 105.085494 302.778 
L 105.085494 40.824 
" clip-path="url(#pc389c2beff)" style="fill: none; stroke: #e6e6e6; stroke-width: 0.8; stroke-linecap: square"/>
     </g>
     <g id="line2d_2">
      <defs>
       <path id="m025d247fdd" d="M 0 0 
L 0 3.5 
" style="stroke: #000000; stroke-width: 0.8"/>
      </defs>
      <g>
       <use xlink:href="#m025d247fdd" x="105.085494" y="302.778" style="stroke: #000000; stroke-width: 0.8"/>
      </g>
     </g>
     <g id="text_1">
      <!-- 2015 -->
      <g transform="translate(92.360494 317.376438)scale(0.1 -0.1)">
       <defs>
        <path id="DejaVuSans-32" d="M 1228 531 
L 3431 531 
L 3431 0 
L 469 0 
L 469 531 
Q 828 903 1448 1529 
Q 2069 2156 2228 2338 
Q 2531 2678 2651 2914 
Q 2772 3150 2772 3378 
Q 2772 3750 2511 3984 
Q 2250 4219 1831 4219 
Q 1534 4219 1204 4116 
Q 875 4013 500 3803 
L 500 4441 
Q 881 4594 1212 4672 
Q 1544 4750 1819 4750 
Q 2544 4750 2975 4387 
Q 3406 4025 3406 3419 
Q 3406 3131 3298 2873 
Q 3191 2616 2906 2266 
Q 2828 2175 2409 1742 
Q 1991 1309 1228 531 
z
" transform="scale(0.015625)"/>
        <path id="DejaVuSans-30" d="M 2034 4250 
Q 1547 4250 1301 3770 
Q 1056 3291 1056 2328 
Q 1056 1369 1301 889 
Q 1547 409 2034 409 
Q 2525 409 2770 889 
Q 3016 1369 3016 2328 
Q 3016 3291 2770 3770 
Q 2525 4250 2034 4250 
z
M 2034 4750 
Q 2819 4750 3233 4129 
Q 3647 3509 3647 2328 
Q 3647 1150 3233 529 
Q 2819 -91 2034 -91 
Q 1250 -91 836 529 
Q 422 1150 422 2328 
Q 422 3509 836 4129 
Q 1250 4750 2034 4750 
z
" transform="scale(0.015625)"/>
        <path id="DejaVuSans-31" d="M 794 531 
L 1825 531 
L 1825 4091 
L 703 3866 
L 703 4441 
L 1819 4666 
L 2450 4666 
L 2450 531 
L 3481 531 
L 3481 0 
L 794 0 
L 794 531 
z
" transform="scale(0.015625)"/>
        <path id="DejaVuSans-35" d="M 691 4666 
L 3169 4666 
L 3169 4134 
L 1269 4134 
L 1269 2991 
Q 1406 3038 1543 3061 
Q 1681 3084 1819 3084 
Q 2600 3084 3056 2656 
Q 3513 2228 3513 1497 
Q 3513 744 3044 326 
Q 2575 -91 1722 -91 
Q 1428 -91 1123 -41 
Q 819 9 494 109 
L 494 744 
Q 775 591 1075 516 
Q 1375 441 1709 441 
Q 2250 441 2565 725 
Q 2881 1009 2881 1497 
Q 2881 1984 2565 2268 
Q 2250 2553 1709 2553 
Q 1456 2553 1204 2497 
Q 953 2441 691 2322 
L 691 4666 
z
" transform="scale(0.015625)"/>
       </defs>
       <use xlink:href="#DejaVuSans-32"/>
       <use xlink:href="#DejaVuSans-30" x="63.623047"/>
       <use xlink:href="#DejaVuSans-31" x="127.246094"/>
       <use xlink:href="#DejaVuSans-35" x="190.869141"/>
      </g>
     </g>
    </g>
    <g id="xtick_2">
     <g id="line2d_3">
      <path d="M 147.154269 302.778 
L 147.154269 40.824 
" clip-path="url(#pc389c2beff)" style="fill: none; stroke: #e6e6e6; stroke-width: 0.8; stroke-linecap: square"/>
     </g>
     <g id="line2d_4">
      <g>
       <use xlink:href="#m025d247fdd" x="147.154269" y="302.778" style="stroke: #000000; stroke-width: 0.8"/>
      </g>
     </g>
     <g id="text_2">
      <!-- 2016 -->
      <g transform="translate(134.429269 317.376438)scale(0.1 -0.1)">
       <defs>
        <path id="DejaVuSans-36" d="M 2113 2584 
Q 1688 2584 1439 2293 
Q 1191 2003 1191 1497 
Q 1191 994 1439 701 
Q 1688 409 2113 409 
Q 2538 409 2786 701 
Q 3034 994 3034 1497 
Q 3034 2003 2786 2293 
Q 2538 2584 2113 2584 
z
M 3366 4563 
L 3366 3988 
Q 3128 4100 2886 4159 
Q 2644 4219 2406 4219 
Q 1781 4219 1451 3797 
Q 1122 3375 1075 2522 
Q 1259 2794 1537 2939 
Q 1816 3084 2150 3084 
Q 2853 3084 3261 2657 
Q 3669 2231 3669 1497 
Q 3669 778 3244 343 
Q 2819 -91 2113 -91 
Q 1303 -91 875 529 
Q 447 1150 447 2328 
Q 447 3434 972 4092 
Q 1497 4750 2381 4750 
Q 2619 4750 2861 4703 
Q 3103 4656 3366 4563 
z
" transform="scale(0.015625)"/>
       </defs>
       <use xlink:href="#DejaVuSans-32"/>
       <use xlink:href="#DejaVuSans-30" x="63.623047"/>
       <use xlink:href="#DejaVuSans-31" x="127.246094"/>
       <use xlink:href="#DejaVuSans-36" x="190.869141"/>
      </g>
     </g>
    </g>
    <g id="xtick_3">
     <g id="line2d_5">
      <path d="M 189.3383 302.778 
L 189.3383 40.824 
" clip-path="url(#pc389c2beff)" style="fill: none; stroke: #e6e6e6; stroke-width: 0.8; stroke-linecap: square"/>
     </g>
     <g id="line2d_6">
      <g>
       <use xlink:href="#m025d247fdd" x="189.3383" y="302.778" style="stroke: #000000; stroke-width: 0.8"/>
      </g>
     </g>
     <g id="text_3">
      <!-- 2017 -->
      <g transform="translate(176.6133 317.376438)scale(0.1 -0.1)">
       <defs>
        <path id="DejaVuSans-37" d="M 525 4666 
L 3525 4666 
L 3525 4397 
L 1831 0 
L 1172 0 
L 2766 4134 
L 525 4134 
L 525 4666 
z
" transform="scale(0.015625)"/>
       </defs>
       <use xlink:href="#DejaVuSans-32"/>
       <use xlink:href="#DejaVuSans-30" x="63.623047"/>
       <use xlink:href="#DejaVuSans-31" x="127.246094"/>
       <use xlink:href="#DejaVuSans-37" x="190.869141"/>
      </g>
     </g>
    </g>
    <g id="xtick_4">
     <g id="line2d_7">
      <path d="M 231.407075 302.778 
L 231.407075 40.824 
" clip-path="url(#pc389c2beff)" style="fill: none; stroke: #e6e6e6; stroke-width: 0.8; stroke-linecap: square"/>
     </g>
     <g id="line2d_8">
      <g>
       <use xlink:href="#m025d247fdd" x="231.407075" y="302.778" style="stroke: #000000; stroke-width: 0.8"/>
      </g>
     </g>
     <g id="text_4">
      <!-- 2018 -->
      <g transform="translate(218.682075 317.376438)scale(0.1 -0.1)">
       <defs>
        <path id="DejaVuSans-38" d="M 2034 2216 
Q 1584 2216 1326 1975 
Q 1069 1734 1069 1313 
Q 1069 891 1326 650 
Q 1584 409 2034 409 
Q 2484 409 2743 651 
Q 3003 894 3003 1313 
Q 3003 1734 2745 1975 
Q 2488 2216 2034 2216 
z
M 1403 2484 
Q 997 2584 770 2862 
Q 544 3141 544 3541 
Q 544 4100 942 4425 
Q 1341 4750 2034 4750 
Q 2731 4750 3128 4425 
Q 3525 4100 3525 3541 
Q 3525 3141 3298 2862 
Q 3072 2584 2669 2484 
Q 3125 2378 3379 2068 
Q 3634 1759 3634 1313 
Q 3634 634 3220 271 
Q 2806 -91 2034 -91 
Q 1263 -91 848 271 
Q 434 634 434 1313 
Q 434 1759 690 2068 
Q 947 2378 1403 2484 
z
M 1172 3481 
Q 1172 3119 1398 2916 
Q 1625 2713 2034 2713 
Q 2441 2713 2670 2916 
Q 2900 3119 2900 3481 
Q 2900 3844 2670 4047 
Q 2441 4250 2034 4250 
Q 1625 4250 1398 4047 
Q 1172 3844 1172 3481 
z
" transform="scale(0.015625)"/>
       </defs>
       <use xlink:href="#DejaVuSans-32"/>
       <use xlink:href="#DejaVuSans-30" x="63.623047"/>
       <use xlink:href="#DejaVuSans-31" x="127.246094"/>
       <use xlink:href="#DejaVuSans-38" x="190.869141"/>
      </g>
     </g>
    </g>
    <g id="xtick_5">
     <g id="line2d_9">
      <path d="M 273.47585 302.778 
L 273.47585 40.824 
" clip-path="url(#pc389c2beff)" style="fill: none; stroke: #e6e6e6; stroke-width: 0.8; stroke-linecap: square"/>
     </g>
     <g id="line2d_10">
      <g>
       <use xlink:href="#m025d247fdd" x="273.47585" y="302.778" style="stroke: #000000; stroke-width: 0.8"/>
      </g>
     </g>
     <g id="text_5">
      <!-- 2019 -->
      <g transform="translate(260.75085 317.376438)scale(0.1 -0.1)">
       <defs>
        <path id="DejaVuSans-39" d="M 703 97 
L 703 672 
Q 941 559 1184 500 
Q 1428 441 1663 441 
Q 2288 441 2617 861 
Q 2947 1281 2994 2138 
Q 2813 1869 2534 1725 
Q 2256 1581 1919 1581 
Q 1219 1581 811 2004 
Q 403 2428 403 3163 
Q 403 3881 828 4315 
Q 1253 4750 1959 4750 
Q 2769 4750 3195 4129 
Q 3622 3509 3622 2328 
Q 3622 1225 3098 567 
Q 2575 -91 1691 -91 
Q 1453 -91 1209 -44 
Q 966 3 703 97 
z
M 1959 2075 
Q 2384 2075 2632 2365 
Q 2881 2656 2881 3163 
Q 2881 3666 2632 3958 
Q 2384 4250 1959 4250 
Q 1534 4250 1286 3958 
Q 1038 3666 1038 3163 
Q 1038 2656 1286 2365 
Q 1534 2075 1959 2075 
z
" transform="scale(0.015625)"/>
       </defs>
       <use xlink:href="#DejaVuSans-32"/>
       <use xlink:href="#DejaVuSans-30" x="63.623047"/>
       <use xlink:href="#DejaVuSans-31" x="127.246094"/>
       <use xlink:href="#DejaVuSans-39" x="190.869141"/>
      </g>
     </g>
    </g>
    <g id="xtick_6">
     <g id="line2d_11">
      <path d="M 315.544625 302.778 
L 315.544625 40.824 
" clip-path="url(#pc389c2beff)" style="fill: none; stroke: #e6e6e6; stroke-width: 0.8; stroke-linecap: square"/>
     </g>
     <g id="line2d_12">
      <g>
       <use xlink:href="#m025d247fdd" x="315.544625" y="302.778" style="stroke: #000000; stroke-width: 0.8"/>
      </g>
     </g>
     <g id="text_6">
      <!-- 2020 -->
      <g transform="translate(302.819625 317.376438)scale(0.1 -0.1)">
       <use xlink:href="#DejaVuSans-32"/>
       <use xlink:href="#DejaVuSans-30" x="63.623047"/>
       <use xlink:href="#DejaVuSans-32" x="127.246094"/>
       <use xlink:href="#DejaVuSans-30" x="190.869141"/>
      </g>
     </g>
    </g>
    <g id="xtick_7">
     <g id="line2d_13">
      <path d="M 357.728656 302.778 
L 357.728656 40.824 
" clip-path="url(#pc389c2beff)" style="fill: none; stroke: #e6e6e6; stroke-width: 0.8; stroke-linecap: square"/>
     </g>
     <g id="line2d_14">
      <g>
       <use xlink:href="#m025d247fdd" x="357.728656" y="302.778" style="stroke: #000000; stroke-width: 0.8"/>
      </g>
     </g>
     <g id="text_7">
      <!-- 2021 -->
      <g transform="translate(345.003656 317.376438)scale(0.1 -0.1)">
       <use xlink:href="#DejaVuSans-32"/>
       <use xlink:href="#DejaVuSans-30" x="63.623047"/>
       <use xlink:href="#DejaVuSans-32" x="127.246094"/>
       <use xlink:href="#DejaVuSans-31" x="190.869141"/>
      </g>
     </g>
    </g>
    <g id="xtick_8">
     <g id="line2d_15">
      <path d="M 399.797431 302.778 
L 399.797431 40.824 
" clip-path="url(#pc389c2beff)" style="fill: none; stroke: #e6e6e6; stroke-width: 0.8; stroke-linecap: square"/>
     </g>
     <g id="line2d_16">
      <g>
       <use xlink:href="#m025d247fdd" x="399.797431" y="302.778" style="stroke: #000000; stroke-width: 0.8"/>
      </g>
     </g>
     <g id="text_8">
      <!-- 2022 -->
      <g transform="translate(387.072431 317.376438)scale(0.1 -0.1)">
       <use xlink:href="#DejaVuSans-32"/>
       <use xlink:href="#DejaVuSans-30" x="63.623047"/>
       <use xlink:href="#DejaVuSans-32" x="127.246094"/>
       <use xlink:href="#DejaVuSans-32" x="190.869141"/>
      </g>
     </g>
    </g>
    <g id="xtick_9">
     <g id="line2d_17">
      <path d="M 441.866206 302.778 
L 441.866206 40.824 
" clip-path="url(#pc389c2beff)" style="fill: none; stroke: #e6e6e6; stroke-width: 0.8; stroke-linecap: square"/>
     </g>
     <g id="line2d_18">
      <g>
       <use xlink:href="#m025d247fdd" x="441.866206" y="302.778" style="stroke: #000000; stroke-width: 0.8"/>
      </g>
     </g>
     <g id="text_9">
      <!-- 2023 -->
      <g transform="translate(429.141206 317.376438)scale(0.1 -0.1)">
       <defs>
        <path id="DejaVuSans-33" d="M 2597 2516 
Q 3050 2419 3304 2112 
Q 3559 1806 3559 1356 
Q 3559 666 3084 287 
Q 2609 -91 1734 -91 
Q 1441 -91 1130 -33 
Q 819 25 488 141 
L 488 750 
Q 750 597 1062 519 
Q 1375 441 1716 441 
Q 2309 441 2620 675 
Q 2931 909 2931 1356 
Q 2931 1769 2642 2001 
Q 2353 2234 1838 2234 
L 1294 2234 
L 1294 2753 
L 1863 2753 
Q 2328 2753 2575 2939 
Q 2822 3125 2822 3475 
Q 2822 3834 2567 4026 
Q 2313 4219 1838 4219 
Q 1578 4219 1281 4162 
Q 984 4106 628 3988 
L 628 4550 
Q 988 4650 1302 4700 
Q 1616 4750 1894 4750 
Q 2613 4750 3031 4423 
Q 3450 4097 3450 3541 
Q 3450 3153 3228 2886 
Q 3006 2619 2597 2516 
z
" transform="scale(0.015625)"/>
       </defs>
       <use xlink:href="#DejaVuSans-32"/>
       <use xlink:href="#DejaVuSans-30" x="63.623047"/>
       <use xlink:href="#DejaVuSans-32" x="127.246094"/>
       <use xlink:href="#DejaVuSans-33" x="190.869141"/>
      </g>
     </g>
    </g>
    <g id="xtick_10">
     <g id="line2d_19">
      <path d="M 483.93498 302.778 
L 483.93498 40.824 
" clip-path="url(#pc389c2beff)" style="fill: none; stroke: #e6e6e6; stroke-width: 0.8; stroke-linecap: square"/>
     </g>
     <g id="line2d_20">
      <g>
       <use xlink:href="#m025d247fdd" x="483.93498" y="302.778" style="stroke: #000000; stroke-width: 0.8"/>
      </g>
     </g>
     <g id="text_10">
      <!-- 2024 -->
      <g transform="translate(471.20998 317.376438)scale(0.1 -0.1)">
       <defs>
        <path id="DejaVuSans-34" d="M 2419 4116 
L 825 1625 
L 2419 1625 
L 2419 4116 
z
M 2253 4666 
L 3047 4666 
L 3047 1625 
L 3713 1625 
L 3713 1100 
L 3047 1100 
L 3047 0 
L 2419 0 
L 2419 1100 
L 313 1100 
L 313 1709 
L 2253 4666 
z
" transform="scale(0.015625)"/>
       </defs>
       <use xlink:href="#DejaVuSans-32"/>
       <use xlink:href="#DejaVuSans-30" x="63.623047"/>
       <use xlink:href="#DejaVuSans-32" x="127.246094"/>
       <use xlink:href="#DejaVuSans-34" x="190.869141"/>
      </g>
     </g>
    </g>
    <g id="text_11">
     <!-- Date -->
     <g transform="translate(286.939219 331.054562)scale(0.1 -0.1)">
      <defs>
       <path id="DejaVuSans-44" d="M 1259 4147 
L 1259 519 
L 2022 519 
Q 2988 519 3436 956 
Q 3884 1394 3884 2338 
Q 3884 3275 3436 3711 
Q 2988 4147 2022 4147 
L 1259 4147 
z
M 628 4666 
L 1925 4666 
Q 3281 4666 3915 4102 
Q 4550 3538 4550 2338 
Q 4550 1131 3912 565 
Q 3275 0 1925 0 
L 628 0 
L 628 4666 
z
" transform="scale(0.015625)"/>
       <path id="DejaVuSans-61" d="M 2194 1759 
Q 1497 1759 1228 1600 
Q 959 1441 959 1056 
Q 959 750 1161 570 
Q 1363 391 1709 391 
Q 2188 391 2477 730 
Q 2766 1069 2766 1631 
L 2766 1759 
L 2194 1759 
z
M 3341 1997 
L 3341 0 
L 2766 0 
L 2766 531 
Q 2569 213 2275 61 
Q 1981 -91 1556 -91 
Q 1019 -91 701 211 
Q 384 513 384 1019 
Q 384 1609 779 1909 
Q 1175 2209 1959 2209 
L 2766 2209 
L 2766 2266 
Q 2766 2663 2505 2880 
Q 2244 3097 1772 3097 
Q 1472 3097 1187 3025 
Q 903 2953 641 2809 
L 641 3341 
Q 956 3463 1253 3523 
Q 1550 3584 1831 3584 
Q 2591 3584 2966 3190 
Q 3341 2797 3341 1997 
z
" transform="scale(0.015625)"/>
       <path id="DejaVuSans-74" d="M 1172 4494 
L 1172 3500 
L 2356 3500 
L 2356 3053 
L 1172 3053 
L 1172 1153 
Q 1172 725 1289 603 
Q 1406 481 1766 481 
L 2356 481 
L 2356 0 
L 1766 0 
Q 1100 0 847 248 
Q 594 497 594 1153 
L 594 3053 
L 172 3053 
L 172 3500 
L 594 3500 
L 594 4494 
L 1172 4494 
z
" transform="scale(0.015625)"/>
       <path id="DejaVuSans-65" d="M 3597 1894 
L 3597 1613 
L 953 1613 
Q 991 1019 1311 708 
Q 1631 397 2203 397 
Q 2534 397 2845 478 
Q 3156 559 3463 722 
L 3463 178 
Q 3153 47 2828 -22 
Q 2503 -91 2169 -91 
Q 1331 -91 842 396 
Q 353 884 353 1716 
Q 353 2575 817 3079 
Q 1281 3584 2069 3584 
Q 2775 3584 3186 3129 
Q 3597 2675 3597 1894 
z
M 3022 2063 
Q 3016 2534 2758 2815 
Q 2500 3097 2075 3097 
Q 1594 3097 1305 2825 
Q 1016 2553 972 2059 
L 3022 2063 
z
" transform="scale(0.015625)"/>
      </defs>
      <use xlink:href="#DejaVuSans-44"/>
      <use xlink:href="#DejaVuSans-61" x="77.001953"/>
      <use xlink:href="#DejaVuSans-74" x="138.28125"/>
      <use xlink:href="#DejaVuSans-65" x="177.490234"/>
     </g>
    </g>
   </g>
   <g id="matplotlib.axis_2">
    <g id="ytick_1">
     <g id="line2d_21">
      <path d="M 72.9 272.943791 
L 524.88 272.943791 
" clip-path="url(#pc389c2beff)" style="fill: none; stroke: #e6e6e6; stroke-width: 0.8; stroke-linecap: square"/>
     </g>
     <g id="line2d_22">
      <defs>
       <path id="ma8be62d3db" d="M 0 0 
L -3.5 0 
" style="stroke: #000000; stroke-width: 0.8"/>
      </defs>
      <g>
       <use xlink:href="#ma8be62d3db" x="72.9" y="272.943791" style="stroke: #000000; stroke-width: 0.8"/>
      </g>
     </g>
     <g id="text_12">
      <!-- 0.0 -->
      <g transform="translate(49.996875 276.743009)scale(0.1 -0.1)">
       <defs>
        <path id="DejaVuSans-2e" d="M 684 794 
L 1344 794 
L 1344 0 
L 684 0 
L 684 794 
z
" transform="scale(0.015625)"/>
       </defs>
       <use xlink:href="#DejaVuSans-30"/>
       <use xlink:href="#DejaVuSans-2e" x="63.623047"/>
       <use xlink:href="#DejaVuSans-30" x="95.410156"/>
      </g>
     </g>
    </g>
    <g id="ytick_2">
     <g id="line2d_23">
      <path d="M 72.9 239.292247 
L 524.88 239.292247 
" clip-path="url(#pc389c2beff)" style="fill: none; stroke: #e6e6e6; stroke-width: 0.8; stroke-linecap: square"/>
     </g>
     <g id="line2d_24">
      <g>
       <use xlink:href="#ma8be62d3db" x="72.9" y="239.292247" style="stroke: #000000; stroke-width: 0.8"/>
      </g>
     </g>
     <g id="text_13">
      <!-- 0.1 -->
      <g transform="translate(49.996875 243.091466)scale(0.1 -0.1)">
       <use xlink:href="#DejaVuSans-30"/>
       <use xlink:href="#DejaVuSans-2e" x="63.623047"/>
       <use xlink:href="#DejaVuSans-31" x="95.410156"/>
      </g>
     </g>
    </g>
    <g id="ytick_3">
     <g id="line2d_25">
      <path d="M 72.9 205.640703 
L 524.88 205.640703 
" clip-path="url(#pc389c2beff)" style="fill: none; stroke: #e6e6e6; stroke-width: 0.8; stroke-linecap: square"/>
     </g>
     <g id="line2d_26">
      <g>
       <use xlink:href="#ma8be62d3db" x="72.9" y="205.640703" style="stroke: #000000; stroke-width: 0.8"/>
      </g>
     </g>
     <g id="text_14">
      <!-- 0.2 -->
      <g transform="translate(49.996875 209.439922)scale(0.1 -0.1)">
       <use xlink:href="#DejaVuSans-30"/>
       <use xlink:href="#DejaVuSans-2e" x="63.623047"/>
       <use xlink:href="#DejaVuSans-32" x="95.410156"/>
      </g>
     </g>
    </g>
    <g id="ytick_4">
     <g id="line2d_27">
      <path d="M 72.9 171.989159 
L 524.88 171.989159 
" clip-path="url(#pc389c2beff)" style="fill: none; stroke: #e6e6e6; stroke-width: 0.8; stroke-linecap: square"/>
     </g>
     <g id="line2d_28">
      <g>
       <use xlink:href="#ma8be62d3db" x="72.9" y="171.989159" style="stroke: #000000; stroke-width: 0.8"/>
      </g>
     </g>
     <g id="text_15">
      <!-- 0.3 -->
      <g transform="translate(49.996875 175.788378)scale(0.1 -0.1)">
       <use xlink:href="#DejaVuSans-30"/>
       <use xlink:href="#DejaVuSans-2e" x="63.623047"/>
       <use xlink:href="#DejaVuSans-33" x="95.410156"/>
      </g>
     </g>
    </g>
    <g id="ytick_5">
     <g id="line2d_29">
      <path d="M 72.9 138.337616 
L 524.88 138.337616 
" clip-path="url(#pc389c2beff)" style="fill: none; stroke: #e6e6e6; stroke-width: 0.8; stroke-linecap: square"/>
     </g>
     <g id="line2d_30">
      <g>
       <use xlink:href="#ma8be62d3db" x="72.9" y="138.337616" style="stroke: #000000; stroke-width: 0.8"/>
      </g>
     </g>
     <g id="text_16">
      <!-- 0.4 -->
      <g transform="translate(49.996875 142.136835)scale(0.1 -0.1)">
       <use xlink:href="#DejaVuSans-30"/>
       <use xlink:href="#DejaVuSans-2e" x="63.623047"/>
       <use xlink:href="#DejaVuSans-34" x="95.410156"/>
      </g>
     </g>
    </g>
    <g id="ytick_6">
     <g id="line2d_31">
      <path d="M 72.9 104.686072 
L 524.88 104.686072 
" clip-path="url(#pc389c2beff)" style="fill: none; stroke: #e6e6e6; stroke-width: 0.8; stroke-linecap: square"/>
     </g>
     <g id="line2d_32">
      <g>
       <use xlink:href="#ma8be62d3db" x="72.9" y="104.686072" style="stroke: #000000; stroke-width: 0.8"/>
      </g>
     </g>
     <g id="text_17">
      <!-- 0.5 -->
      <g transform="translate(49.996875 108.485291)scale(0.1 -0.1)">
       <use xlink:href="#DejaVuSans-30"/>
       <use xlink:href="#DejaVuSans-2e" x="63.623047"/>
       <use xlink:href="#DejaVuSans-35" x="95.410156"/>
      </g>
     </g>
    </g>
    <g id="ytick_7">
     <g id="line2d_33">
      <path d="M 72.9 71.034528 
L 524.88 71.034528 
" clip-path="url(#pc389c2beff)" style="fill: none; stroke: #e6e6e6; stroke-width: 0.8; stroke-linecap: square"/>
     </g>
     <g id="line2d_34">
      <g>
       <use xlink:href="#ma8be62d3db" x="72.9" y="71.034528" style="stroke: #000000; stroke-width: 0.8"/>
      </g>
     </g>
     <g id="text_18">
      <!-- 0.6 -->
      <g transform="translate(49.996875 74.833747)scale(0.1 -0.1)">
       <use xlink:href="#DejaVuSans-30"/>
       <use xlink:href="#DejaVuSans-2e" x="63.623047"/>
       <use xlink:href="#DejaVuSans-36" x="95.410156"/>
      </g>
     </g>
    </g>
    <g id="text_19">
     <!-- Volatility and Hurst-estimate -->
     <g transform="translate(43.917187 243.333031)rotate(-90)scale(0.1 -0.1)">
      <defs>
       <path id="DejaVuSans-56" d="M 1831 0 
L 50 4666 
L 709 4666 
L 2188 738 
L 3669 4666 
L 4325 4666 
L 2547 0 
L 1831 0 
z
" transform="scale(0.015625)"/>
       <path id="DejaVuSans-6f" d="M 1959 3097 
Q 1497 3097 1228 2736 
Q 959 2375 959 1747 
Q 959 1119 1226 758 
Q 1494 397 1959 397 
Q 2419 397 2687 759 
Q 2956 1122 2956 1747 
Q 2956 2369 2687 2733 
Q 2419 3097 1959 3097 
z
M 1959 3584 
Q 2709 3584 3137 3096 
Q 3566 2609 3566 1747 
Q 3566 888 3137 398 
Q 2709 -91 1959 -91 
Q 1206 -91 779 398 
Q 353 888 353 1747 
Q 353 2609 779 3096 
Q 1206 3584 1959 3584 
z
" transform="scale(0.015625)"/>
       <path id="DejaVuSans-6c" d="M 603 4863 
L 1178 4863 
L 1178 0 
L 603 0 
L 603 4863 
z
" transform="scale(0.015625)"/>
       <path id="DejaVuSans-69" d="M 603 3500 
L 1178 3500 
L 1178 0 
L 603 0 
L 603 3500 
z
M 603 4863 
L 1178 4863 
L 1178 4134 
L 603 4134 
L 603 4863 
z
" transform="scale(0.015625)"/>
       <path id="DejaVuSans-79" d="M 2059 -325 
Q 1816 -950 1584 -1140 
Q 1353 -1331 966 -1331 
L 506 -1331 
L 506 -850 
L 844 -850 
Q 1081 -850 1212 -737 
Q 1344 -625 1503 -206 
L 1606 56 
L 191 3500 
L 800 3500 
L 1894 763 
L 2988 3500 
L 3597 3500 
L 2059 -325 
z
" transform="scale(0.015625)"/>
       <path id="DejaVuSans-20" transform="scale(0.015625)"/>
       <path id="DejaVuSans-6e" d="M 3513 2113 
L 3513 0 
L 2938 0 
L 2938 2094 
Q 2938 2591 2744 2837 
Q 2550 3084 2163 3084 
Q 1697 3084 1428 2787 
Q 1159 2491 1159 1978 
L 1159 0 
L 581 0 
L 581 3500 
L 1159 3500 
L 1159 2956 
Q 1366 3272 1645 3428 
Q 1925 3584 2291 3584 
Q 2894 3584 3203 3211 
Q 3513 2838 3513 2113 
z
" transform="scale(0.015625)"/>
       <path id="DejaVuSans-64" d="M 2906 2969 
L 2906 4863 
L 3481 4863 
L 3481 0 
L 2906 0 
L 2906 525 
Q 2725 213 2448 61 
Q 2172 -91 1784 -91 
Q 1150 -91 751 415 
Q 353 922 353 1747 
Q 353 2572 751 3078 
Q 1150 3584 1784 3584 
Q 2172 3584 2448 3432 
Q 2725 3281 2906 2969 
z
M 947 1747 
Q 947 1113 1208 752 
Q 1469 391 1925 391 
Q 2381 391 2643 752 
Q 2906 1113 2906 1747 
Q 2906 2381 2643 2742 
Q 2381 3103 1925 3103 
Q 1469 3103 1208 2742 
Q 947 2381 947 1747 
z
" transform="scale(0.015625)"/>
       <path id="DejaVuSans-48" d="M 628 4666 
L 1259 4666 
L 1259 2753 
L 3553 2753 
L 3553 4666 
L 4184 4666 
L 4184 0 
L 3553 0 
L 3553 2222 
L 1259 2222 
L 1259 0 
L 628 0 
L 628 4666 
z
" transform="scale(0.015625)"/>
       <path id="DejaVuSans-75" d="M 544 1381 
L 544 3500 
L 1119 3500 
L 1119 1403 
Q 1119 906 1312 657 
Q 1506 409 1894 409 
Q 2359 409 2629 706 
Q 2900 1003 2900 1516 
L 2900 3500 
L 3475 3500 
L 3475 0 
L 2900 0 
L 2900 538 
Q 2691 219 2414 64 
Q 2138 -91 1772 -91 
Q 1169 -91 856 284 
Q 544 659 544 1381 
z
M 1991 3584 
L 1991 3584 
z
" transform="scale(0.015625)"/>
       <path id="DejaVuSans-72" d="M 2631 2963 
Q 2534 3019 2420 3045 
Q 2306 3072 2169 3072 
Q 1681 3072 1420 2755 
Q 1159 2438 1159 1844 
L 1159 0 
L 581 0 
L 581 3500 
L 1159 3500 
L 1159 2956 
Q 1341 3275 1631 3429 
Q 1922 3584 2338 3584 
Q 2397 3584 2469 3576 
Q 2541 3569 2628 3553 
L 2631 2963 
z
" transform="scale(0.015625)"/>
       <path id="DejaVuSans-73" d="M 2834 3397 
L 2834 2853 
Q 2591 2978 2328 3040 
Q 2066 3103 1784 3103 
Q 1356 3103 1142 2972 
Q 928 2841 928 2578 
Q 928 2378 1081 2264 
Q 1234 2150 1697 2047 
L 1894 2003 
Q 2506 1872 2764 1633 
Q 3022 1394 3022 966 
Q 3022 478 2636 193 
Q 2250 -91 1575 -91 
Q 1294 -91 989 -36 
Q 684 19 347 128 
L 347 722 
Q 666 556 975 473 
Q 1284 391 1588 391 
Q 1994 391 2212 530 
Q 2431 669 2431 922 
Q 2431 1156 2273 1281 
Q 2116 1406 1581 1522 
L 1381 1569 
Q 847 1681 609 1914 
Q 372 2147 372 2553 
Q 372 3047 722 3315 
Q 1072 3584 1716 3584 
Q 2034 3584 2315 3537 
Q 2597 3491 2834 3397 
z
" transform="scale(0.015625)"/>
       <path id="DejaVuSans-2d" d="M 313 2009 
L 1997 2009 
L 1997 1497 
L 313 1497 
L 313 2009 
z
" transform="scale(0.015625)"/>
       <path id="DejaVuSans-6d" d="M 3328 2828 
Q 3544 3216 3844 3400 
Q 4144 3584 4550 3584 
Q 5097 3584 5394 3201 
Q 5691 2819 5691 2113 
L 5691 0 
L 5113 0 
L 5113 2094 
Q 5113 2597 4934 2840 
Q 4756 3084 4391 3084 
Q 3944 3084 3684 2787 
Q 3425 2491 3425 1978 
L 3425 0 
L 2847 0 
L 2847 2094 
Q 2847 2600 2669 2842 
Q 2491 3084 2119 3084 
Q 1678 3084 1418 2786 
Q 1159 2488 1159 1978 
L 1159 0 
L 581 0 
L 581 3500 
L 1159 3500 
L 1159 2956 
Q 1356 3278 1631 3431 
Q 1906 3584 2284 3584 
Q 2666 3584 2933 3390 
Q 3200 3197 3328 2828 
z
" transform="scale(0.015625)"/>
      </defs>
      <use xlink:href="#DejaVuSans-56"/>
      <use xlink:href="#DejaVuSans-6f" x="60.658203"/>
      <use xlink:href="#DejaVuSans-6c" x="121.839844"/>
      <use xlink:href="#DejaVuSans-61" x="149.623047"/>
      <use xlink:href="#DejaVuSans-74" x="210.902344"/>
      <use xlink:href="#DejaVuSans-69" x="250.111328"/>
      <use xlink:href="#DejaVuSans-6c" x="277.894531"/>
      <use xlink:href="#DejaVuSans-69" x="305.677734"/>
      <use xlink:href="#DejaVuSans-74" x="333.460938"/>
      <use xlink:href="#DejaVuSans-79" x="372.669922"/>
      <use xlink:href="#DejaVuSans-20" x="431.849609"/>
      <use xlink:href="#DejaVuSans-61" x="463.636719"/>
      <use xlink:href="#DejaVuSans-6e" x="524.916016"/>
      <use xlink:href="#DejaVuSans-64" x="588.294922"/>
      <use xlink:href="#DejaVuSans-20" x="651.771484"/>
      <use xlink:href="#DejaVuSans-48" x="683.558594"/>
      <use xlink:href="#DejaVuSans-75" x="758.753906"/>
      <use xlink:href="#DejaVuSans-72" x="822.132812"/>
      <use xlink:href="#DejaVuSans-73" x="863.246094"/>
      <use xlink:href="#DejaVuSans-74" x="915.345703"/>
      <use xlink:href="#DejaVuSans-2d" x="954.554688"/>
      <use xlink:href="#DejaVuSans-65" x="990.638672"/>
      <use xlink:href="#DejaVuSans-73" x="1052.162109"/>
      <use xlink:href="#DejaVuSans-74" x="1104.261719"/>
      <use xlink:href="#DejaVuSans-69" x="1143.470703"/>
      <use xlink:href="#DejaVuSans-6d" x="1171.253906"/>
      <use xlink:href="#DejaVuSans-61" x="1268.666016"/>
      <use xlink:href="#DejaVuSans-74" x="1329.945312"/>
      <use xlink:href="#DejaVuSans-65" x="1369.154297"/>
     </g>
    </g>
   </g>
   <g id="patch_3">
    <path d="M 72.9 302.778 
L 72.9 40.824 
" style="fill: none; stroke: #000000; stroke-width: 0.8; stroke-linejoin: miter; stroke-linecap: square"/>
   </g>
   <g id="patch_4">
    <path d="M 524.88 302.778 
L 524.88 40.824 
" style="fill: none; stroke: #e6e6e6; stroke-width: 0.8; stroke-linejoin: miter; stroke-linecap: square"/>
   </g>
   <g id="patch_5">
    <path d="M 72.9 302.778 
L 524.88 302.778 
" style="fill: none; stroke: #000000; stroke-width: 0.8; stroke-linejoin: miter; stroke-linecap: square"/>
   </g>
   <g id="patch_6">
    <path d="M 72.9 40.824 
L 524.88 40.824 
" style="fill: none; stroke: #e6e6e6; stroke-width: 0.8; stroke-linejoin: miter; stroke-linecap: square"/>
   </g>
   <g id="line2d_35">
    <path d="M 93.444545 236.403946 
L 94.02083 238.182985 
L 94.597115 249.082003 
L 95.173399 236.853174 
L 95.749684 253.387225 
L 96.325968 252.87034 
L 96.902253 261.779267 
L 97.478538 247.515462 
L 98.054822 244.82166 
L 98.631107 263.25215 
L 99.207391 253.871427 
L 99.783676 211.461004 
L 100.35996 251.033946 
L 100.936245 255.249529 
L 101.51253 267.168453 
L 102.088814 261.668356 
L 102.665099 258.165122 
L 103.241383 253.302085 
L 103.817668 249.927918 
L 104.393953 251.20585 
L 104.970237 254.295095 
L 105.546522 228.573342 
L 106.122806 240.05561 
L 106.699091 154.565164 
L 107.275375 244.787799 
L 107.85166 250.34839 
L 108.427945 220.36119 
L 109.004229 239.237118 
L 109.580514 250.74158 
L 110.733083 234.723374 
L 111.309368 257.754857 
L 111.885652 248.7212 
L 112.461937 247.399422 
L 113.038221 255.870609 
L 113.614506 258.135873 
L 114.190791 235.58285 
L 114.767075 240.508876 
L 115.919644 263.803051 
L 116.495929 263.512517 
L 117.072213 252.316734 
L 117.648498 260.072194 
L 118.224783 251.678681 
L 118.801067 246.930521 
L 119.377352 260.17146 
L 119.953636 253.863552 
L 120.529921 264.875459 
L 121.106206 265.923761 
L 121.68249 262.22396 
L 122.258775 267.549402 
L 122.835059 260.383241 
L 123.411344 262.973228 
L 123.987628 269.661806 
L 124.563913 250.817439 
L 125.140198 264.584259 
L 125.716482 259.993742 
L 126.292767 259.589546 
L 126.869051 255.84846 
L 127.445336 233.926582 
L 128.021621 263.597512 
L 128.597905 256.616862 
L 129.17419 264.714684 
L 129.750474 268.517069 
L 130.326759 248.830636 
L 130.903043 261.006417 
L 131.479328 207.086197 
L 132.055613 244.773324 
L 132.631897 234.702637 
L 133.208182 267.880336 
L 133.784466 263.071081 
L 134.360751 260.209571 
L 134.937036 265.986973 
L 135.51332 262.371946 
L 136.089605 265.576876 
L 136.665889 262.22211 
L 137.242174 262.898217 
L 137.818458 267.972512 
L 138.394743 264.690658 
L 138.971028 253.628508 
L 139.547312 265.46141 
L 140.123597 245.91929 
L 140.699881 214.024059 
L 141.276166 224.358132 
L 141.852451 237.371825 
L 142.428735 259.970633 
L 143.00502 246.823605 
L 143.581304 250.9841 
L 144.157589 249.561329 
L 144.733874 245.481828 
L 145.310158 247.165039 
L 145.886443 256.181717 
L 146.462727 238.811179 
L 147.039012 261.593594 
L 147.615296 267.638383 
L 148.191581 248.252182 
L 148.767866 219.646777 
L 149.34415 234.454468 
L 149.920435 241.452183 
L 150.496719 259.601062 
L 151.073004 250.871909 
L 151.649289 263.57362 
L 152.225573 261.130654 
L 152.801858 260.467922 
L 153.378142 251.897708 
L 153.954427 267.11029 
L 154.530711 264.690249 
L 155.106996 266.673964 
L 155.683281 262.501845 
L 156.259565 262.009819 
L 156.83585 268.507012 
L 157.412134 262.156228 
L 157.988419 270.900264 
L 158.564704 269.693006 
L 159.140988 270.065609 
L 159.717273 265.923109 
L 160.293557 264.736328 
L 160.869842 253.711389 
L 161.446126 262.993336 
L 162.022411 264.5019 
L 162.598696 264.863481 
L 163.17498 260.70839 
L 163.751265 267.098591 
L 164.327549 236.600946 
L 164.903834 254.935557 
L 165.480119 263.697774 
L 166.056403 239.146752 
L 166.632688 234.9408 
L 167.208972 221.522655 
L 167.785257 237.868082 
L 168.361542 238.000247 
L 168.937826 242.558141 
L 169.514111 258.860331 
L 170.090395 262.206253 
L 170.66668 264.426064 
L 171.242964 267.311176 
L 171.819249 241.15369 
L 172.395534 261.61725 
L 172.971818 269.021115 
L 173.548103 261.185391 
L 174.124387 269.233912 
L 174.700672 267.521479 
L 175.276957 268.780257 
L 175.853241 260.79694 
L 176.429526 260.050465 
L 177.00581 270.331159 
L 177.582095 266.039332 
L 178.158379 267.525065 
L 178.734664 269.349199 
L 179.310949 270.179211 
L 179.887233 261.592151 
L 180.463518 268.82528 
L 181.039802 268.692532 
L 181.616087 258.384647 
L 182.192372 258.026322 
L 182.768656 240.130557 
L 183.344941 262.49842 
L 183.921225 265.666522 
L 184.49751 252.853092 
L 185.073794 264.82621 
L 185.650079 266.438292 
L 186.226364 258.864956 
L 186.802648 271.413174 
L 187.378933 267.164449 
L 187.955217 269.606832 
L 188.531502 245.799812 
L 189.107787 255.612537 
L 189.684071 244.511324 
L 190.260356 221.651948 
L 190.83664 214.980818 
L 191.412925 241.7481 
L 191.989209 256.632582 
L 192.565494 267.016488 
L 193.141779 258.745481 
L 193.718063 262.416683 
L 194.294348 249.596955 
L 194.870632 267.649697 
L 195.446917 256.967867 
L 196.023202 260.052149 
L 196.599486 258.536958 
L 197.175771 241.034581 
L 197.752055 257.192622 
L 198.32834 217.452112 
L 198.904625 221.480798 
L 199.480909 244.141474 
L 200.057194 256.845771 
L 200.633478 255.061333 
L 201.786047 268.455757 
L 202.362332 257.215839 
L 202.938617 264.612211 
L 203.514901 262.699556 
L 204.091186 251.863308 
L 204.66747 238.818037 
L 205.82004 246.109061 
L 206.396324 226.384731 
L 206.972609 245.587264 
L 208.125178 229.292034 
L 208.701462 233.535806 
L 209.277747 256.012864 
L 209.854032 247.189375 
L 210.430316 254.320368 
L 211.006601 256.652419 
L 211.582885 250.152334 
L 212.15917 198.921085 
L 212.735455 190.839143 
L 213.311739 234.862823 
L 213.888024 244.572734 
L 214.464308 237.968226 
L 215.040593 242.264219 
L 215.616877 241.953208 
L 216.193162 253.083251 
L 216.769447 259.536783 
L 217.345731 256.335813 
L 217.922016 229.601111 
L 218.4983 244.317583 
L 219.074585 178.190485 
L 219.65087 216.296572 
L 220.227154 243.905917 
L 220.803439 247.044038 
L 221.379723 258.42312 
L 221.956008 260.336351 
L 222.532292 231.88754 
L 223.108577 252.220681 
L 223.684862 240.698938 
L 224.261146 243.227163 
L 224.837431 259.452783 
L 225.413715 234.989576 
L 225.99 215.701333 
L 226.566285 247.19465 
L 227.142569 245.935313 
L 228.295138 255.433131 
L 228.871423 163.7948 
L 229.447708 229.155372 
L 230.023992 221.662343 
L 230.600277 218.142874 
L 231.176561 197.841749 
L 231.752846 232.198528 
L 232.32913 215.153136 
L 232.905415 224.708283 
L 233.4817 208.089552 
L 234.057984 210.189088 
L 234.634269 251.04125 
L 235.210553 221.745981 
L 235.786838 182.80423 
L 236.363123 224.56684 
L 236.939407 225.897167 
L 237.515692 229.432642 
L 238.091976 236.065826 
L 238.668261 256.754871 
L 239.244545 251.627197 
L 239.82083 222.537413 
L 240.973399 259.176294 
L 241.549684 240.837447 
L 242.125968 232.791693 
L 242.702253 249.335913 
L 243.278538 234.302618 
L 243.854822 248.368118 
L 244.431107 242.862547 
L 245.007391 229.644104 
L 245.583676 250.954128 
L 246.15996 258.014908 
L 246.736245 245.084715 
L 247.31253 257.33031 
L 247.888814 244.513102 
L 248.465099 250.402874 
L 249.041383 266.164709 
L 249.617668 260.971246 
L 250.193953 238.766215 
L 250.770237 247.842245 
L 251.346522 237.549609 
L 251.922806 254.914142 
L 252.499091 252.537745 
L 253.075375 262.387261 
L 253.65166 250.897502 
L 254.227945 246.636631 
L 254.804229 258.054512 
L 255.380514 236.326927 
L 255.956798 257.197967 
L 256.533083 256.333996 
L 257.109368 236.376042 
L 257.685652 257.378407 
L 258.261937 253.783055 
L 258.838221 261.064177 
L 259.414506 259.76241 
L 259.990791 242.669984 
L 260.567075 258.4172 
L 261.14336 264.227119 
L 261.719644 253.134137 
L 262.295929 263.566005 
L 262.872213 262.126133 
L 263.448498 266.465785 
L 264.024783 255.16439 
L 264.601067 257.417513 
L 265.177352 268.700939 
L 265.753636 271.174088 
L 266.329921 264.844349 
L 266.906206 268.976151 
L 267.48249 265.24543 
L 268.058775 240.01414 
L 268.635059 222.844943 
L 269.211344 225.857742 
L 269.787628 220.605881 
L 270.363913 238.309224 
L 270.940198 242.013651 
L 271.516482 253.54001 
L 272.092767 241.199562 
L 273.245336 237.463676 
L 273.821621 251.6758 
L 274.397905 251.708586 
L 274.97419 235.626849 
L 275.550474 261.659848 
L 276.126759 260.302532 
L 276.703043 262.785681 
L 277.279328 263.616107 
L 277.855613 245.450281 
L 278.431897 267.950677 
L 279.008182 251.97888 
L 279.584466 260.83603 
L 280.160751 242.951282 
L 280.737036 257.22 
L 281.31332 267.19173 
L 281.889605 267.044348 
L 282.465889 265.167422 
L 283.042174 266.932784 
L 283.618458 264.609258 
L 284.194743 220.182622 
L 284.771028 259.80466 
L 285.347312 251.555557 
L 285.923597 258.819705 
L 286.499881 258.342468 
L 287.076166 255.377414 
L 287.652451 261.67282 
L 288.228735 259.233927 
L 288.80502 223.681133 
L 289.381304 217.558139 
L 289.957589 253.158329 
L 290.533874 247.292818 
L 291.110158 242.972717 
L 292.262727 250.889016 
L 292.839012 250.445208 
L 293.415296 256.96198 
L 293.991581 193.189807 
L 294.567866 216.564722 
L 295.14415 234.758967 
L 295.720435 239.220063 
L 296.296719 195.01214 
L 296.873004 254.889828 
L 297.449289 257.634671 
L 298.025573 257.557196 
L 298.601858 244.992429 
L 299.178142 256.487687 
L 299.754427 241.420263 
L 300.330711 242.005212 
L 300.906996 255.51539 
L 301.483281 254.458764 
L 302.059565 249.478373 
L 302.63585 262.022579 
L 303.212134 264.0444 
L 303.788419 266.744525 
L 304.364704 236.833658 
L 304.940988 261.125947 
L 305.517273 265.330441 
L 306.093557 250.492409 
L 306.669842 263.591518 
L 307.246126 260.823025 
L 307.822411 209.720207 
L 308.398696 252.495584 
L 308.97498 264.090166 
L 309.551265 251.439765 
L 310.127549 260.474435 
L 310.703834 260.586867 
L 311.280119 247.473727 
L 311.856403 250.729155 
L 312.432688 259.291256 
L 313.585257 264.907014 
L 314.161542 232.965948 
L 314.737826 254.489722 
L 315.314111 263.728035 
L 315.890395 250.210161 
L 317.042964 244.171932 
L 317.619249 259.27873 
L 318.195534 260.708316 
L 318.771818 253.758905 
L 319.348103 262.464133 
L 319.924387 257.004618 
L 320.500672 253.94951 
L 321.076957 247.565439 
L 321.653241 251.190299 
L 322.229526 257.517471 
L 322.80581 258.794427 
L 323.382095 236.609322 
L 323.958379 105.627701 
L 324.534664 207.626937 
L 325.110949 229.065601 
L 325.687233 255.142995 
L 326.263518 246.354759 
L 326.839802 248.053177 
L 327.416087 250.800392 
L 327.992372 245.098584 
L 328.568656 246.654629 
L 329.144941 267.478844 
L 329.721225 231.626135 
L 330.29751 248.897724 
L 330.873794 232.084939 
L 331.450079 247.032387 
L 332.026364 255.129681 
L 332.602648 246.306779 
L 333.178933 233.793257 
L 333.755217 263.784509 
L 334.331502 250.841646 
L 334.907787 266.924858 
L 335.484071 258.254231 
L 336.060356 263.726188 
L 336.63664 265.521536 
L 337.212925 259.45183 
L 337.789209 263.389244 
L 338.365494 270.185198 
L 338.941779 264.839629 
L 339.518063 240.289569 
L 340.094348 259.831467 
L 340.670632 242.901175 
L 341.823202 266.970661 
L 342.399486 254.825028 
L 343.552055 261.984643 
L 344.12834 230.961671 
L 344.704625 261.55606 
L 345.280909 260.489315 
L 345.857194 263.540834 
L 346.433478 245.932145 
L 347.009763 267.054778 
L 347.586047 264.344872 
L 348.162332 260.637504 
L 348.738617 265.592433 
L 349.314901 262.199469 
L 349.891186 248.757332 
L 350.46747 253.695199 
L 351.043755 260.197207 
L 351.62004 231.058363 
L 352.196324 256.949218 
L 352.772609 252.028683 
L 353.348893 253.165056 
L 353.925178 236.152245 
L 354.501462 235.929455 
L 355.077747 252.198887 
L 355.654032 255.752765 
L 356.230316 245.705149 
L 356.806601 249.5616 
L 357.382885 251.278166 
L 358.535455 241.569896 
L 359.111739 222.533344 
L 359.688024 241.11745 
L 360.264308 216.225321 
L 360.840593 229.450238 
L 361.416877 247.61209 
L 361.993162 250.937889 
L 362.569447 211.147251 
L 363.145731 249.827961 
L 363.722016 235.081583 
L 364.2983 236.629141 
L 364.874585 229.740555 
L 365.45087 256.380982 
L 366.027154 244.588611 
L 366.603439 245.491462 
L 367.179723 254.590078 
L 367.756008 248.68401 
L 368.332292 259.076028 
L 368.908577 250.375008 
L 369.484862 253.243529 
L 370.061146 249.403008 
L 370.637431 254.475006 
L 371.213715 235.814415 
L 371.79 242.807665 
L 372.942569 223.910349 
L 373.518854 248.238922 
L 374.095138 201.167667 
L 374.671423 222.606092 
L 375.247708 248.355535 
L 376.400277 227.935598 
L 376.976561 232.201061 
L 377.552846 228.769933 
L 378.12913 226.312749 
L 378.705415 248.923334 
L 379.2817 251.837455 
L 379.857984 252.031248 
L 380.434269 261.77294 
L 381.010553 240.102677 
L 381.586838 261.861311 
L 382.163123 246.43713 
L 383.315692 247.363274 
L 383.891976 242.139836 
L 385.044545 250.258787 
L 385.62083 251.235812 
L 386.197115 260.669664 
L 386.773399 232.86955 
L 387.349684 253.585158 
L 387.925968 239.376623 
L 388.502253 234.531744 
L 389.078538 248.426752 
L 389.654822 242.833368 
L 390.231107 244.774237 
L 390.807391 243.866033 
L 391.383676 259.298981 
L 391.95996 246.280299 
L 392.536245 246.820598 
L 393.11253 256.144398 
L 393.688814 250.055984 
L 394.265099 259.881347 
L 394.841383 246.601759 
L 395.417668 250.377953 
L 395.993953 241.142514 
L 397.146522 249.890632 
L 397.722806 241.568591 
L 398.875375 254.693292 
L 399.45166 252.474619 
L 400.027945 256.693565 
L 400.604229 255.713953 
L 401.180514 255.393088 
L 401.756798 264.050058 
L 402.333083 233.677055 
L 402.909368 267.532836 
L 404.061937 239.163679 
L 404.638221 262.04343 
L 405.214506 238.065213 
L 405.790791 250.098234 
L 406.367075 251.543572 
L 406.94336 211.438076 
L 407.519644 242.457563 
L 408.095929 242.612182 
L 408.672213 256.758301 
L 409.248498 256.567738 
L 409.824783 257.95138 
L 410.401067 258.055447 
L 410.977352 254.368899 
L 411.553636 245.343923 
L 412.129921 255.197939 
L 412.706206 261.590677 
L 413.28249 245.864754 
L 413.858775 257.437573 
L 414.435059 236.674913 
L 415.011344 227.444729 
L 415.587628 239.034359 
L 416.163913 241.607644 
L 416.740198 261.157946 
L 417.316482 235.132818 
L 417.892767 252.683296 
L 418.469051 258.1916 
L 419.045336 211.347355 
L 420.197905 250.696711 
L 420.77419 265.360817 
L 421.350474 254.238486 
L 421.926759 257.547224 
L 422.503043 255.679358 
L 423.079328 242.302069 
L 423.655613 236.728044 
L 424.231897 257.440692 
L 424.808182 259.322748 
L 425.384466 254.845103 
L 425.960751 264.325323 
L 426.537036 235.041813 
L 427.11332 250.466728 
L 427.689605 254.108368 
L 428.265889 267.200574 
L 428.842174 231.978594 
L 429.418458 236.998018 
L 429.994743 254.297008 
L 430.571028 252.829721 
L 431.147312 263.09958 
L 431.723597 255.252773 
L 432.299881 266.521871 
L 432.876166 266.112793 
L 433.452451 263.97711 
L 434.028735 258.892347 
L 434.60502 256.414113 
L 435.181304 255.118198 
L 435.757589 220.716518 
L 436.333874 231.399025 
L 436.910158 265.294056 
L 437.486443 252.609126 
L 438.062727 265.344832 
L 438.639012 256.143299 
L 439.215296 261.805099 
L 439.791581 262.194447 
L 440.367866 257.917043 
L 440.94415 262.957699 
L 442.096719 270.220748 
L 442.673004 268.93009 
L 443.249289 256.946 
L 443.825573 251.829593 
L 444.401858 250.255865 
L 444.978142 263.484436 
L 445.554427 250.842189 
L 446.130711 262.118757 
L 446.706996 256.027355 
L 447.283281 239.552258 
L 447.859565 261.656295 
L 448.43585 259.739823 
L 449.012134 253.73989 
L 449.588419 252.217533 
L 450.164704 243.114926 
L 450.740988 239.631116 
L 451.317273 250.749634 
L 451.893557 253.651606 
L 452.469842 263.971318 
L 453.046126 267.39791 
L 453.622411 259.332204 
L 454.198696 256.542336 
L 454.77498 252.223893 
L 455.351265 258.909767 
L 455.927549 255.186719 
L 456.503834 257.896254 
L 457.080119 265.898391 
L 457.656403 262.50549 
L 458.232688 265.048254 
L 458.808972 252.267921 
L 459.385257 262.651887 
L 459.961542 242.181185 
L 460.537826 263.93593 
L 461.114111 255.850338 
L 461.690395 249.813573 
L 462.26668 262.305734 
L 462.842964 264.136613 
L 463.419249 260.380887 
L 463.995534 267.826244 
L 464.571818 253.76934 
L 465.148103 268.847614 
L 465.724387 260.919304 
L 466.300672 267.562521 
L 466.876957 267.129616 
L 467.453241 264.914976 
L 468.029526 266.96231 
L 468.60581 248.513715 
L 469.182095 265.730471 
L 469.758379 242.569833 
L 470.334664 269.596234 
L 470.910949 264.348185 
L 471.487233 257.976959 
L 472.063518 266.520511 
L 472.639802 265.429085 
L 473.216087 264.049471 
L 473.792372 256.26747 
L 474.368656 263.891641 
L 474.944941 264.482499 
L 475.521225 255.672098 
L 476.09751 243.629976 
L 476.673794 265.860004 
L 477.250079 262.397268 
L 477.826364 263.809389 
L 478.402648 260.770009 
L 478.978933 242.956249 
L 479.555217 248.70434 
L 480.131502 265.949551 
L 480.707787 258.446889 
L 481.284071 253.327356 
L 481.860356 247.119951 
L 482.43664 255.858402 
L 483.012925 259.277507 
L 483.589209 257.358559 
L 484.165494 247.679261 
L 484.741779 250.043376 
L 485.318063 246.382607 
L 485.894348 255.38844 
L 486.470632 254.347317 
L 487.623202 261.099527 
L 488.199486 261.807414 
L 488.775771 263.38455 
L 489.352055 257.927703 
L 489.92834 265.537498 
L 491.080909 240.579846 
L 491.657194 232.630624 
L 492.233478 257.632312 
L 492.809763 243.646903 
L 493.386047 222.99149 
L 493.962332 254.738646 
L 494.538617 249.075772 
L 495.114901 259.983801 
L 495.691186 248.220942 
L 496.26747 246.897499 
L 496.843755 261.261171 
L 497.42004 262.847992 
L 497.996324 250.215413 
L 498.572609 249.540134 
L 499.148893 253.589531 
L 499.725178 243.933009 
L 500.301462 243.526242 
L 500.877747 262.496449 
L 501.454032 264.083267 
L 502.030316 264.00794 
L 502.606601 261.290717 
L 503.182885 262.161022 
L 503.75917 266.834495 
L 504.335455 252.904265 
L 504.335455 252.904265 
" clip-path="url(#pc389c2beff)" style="fill: none; stroke: #808080; stroke-width: 1.5; stroke-linecap: square"/>
   </g>
   <g id="line2d_36">
    <path d="M 122.258775 140.992044 
L 136.665889 187.084056 
L 151.073004 186.697782 
L 165.480119 170.05026 
L 179.887233 146.771442 
L 194.294348 161.880053 
L 208.701462 188.335799 
L 223.108577 175.784538 
L 237.515692 167.621 
L 251.922806 145.653857 
L 266.329921 173.336333 
L 280.737036 156.783836 
L 295.14415 185.269951 
L 309.551265 125.894746 
L 323.958379 105.458632 
L 338.365494 74.344512 
L 352.772609 52.731 
L 367.179723 156.545087 
L 381.586838 186.591475 
L 395.993953 168.265299 
L 410.401067 188.305642 
L 424.808182 200.135631 
L 439.215296 191.003522 
L 453.622411 174.417483 
L 468.029526 203.338644 
" clip-path="url(#pc389c2beff)" style="fill: none; stroke-dasharray: 1.5,2.475; stroke-dashoffset: 0; stroke: #ff0000; stroke-width: 1.5"/>
   </g>
   <g id="line2d_37">
    <path d="M 122.258775 224.187429 
L 136.665889 218.738871 
L 151.073004 213.466466 
L 165.480119 173.52227 
L 179.887233 181.981832 
L 194.294348 165.950399 
L 208.701462 173.100563 
L 223.108577 197.815295 
L 237.515692 217.708658 
L 251.922806 248.691413 
L 266.329921 217.762965 
L 280.737036 204.675467 
L 295.14415 182.166806 
L 309.551265 200.802901 
L 323.958379 250.030372 
L 338.365494 237.236108 
L 352.772609 258.33582 
L 367.179723 282.584574 
L 381.586838 282.577553 
L 395.993953 264.906364 
L 410.401067 235.318318 
L 424.808182 201.458849 
L 439.215296 208.021939 
L 453.622411 235.735648 
L 468.029526 242.994759 
" clip-path="url(#pc389c2beff)" style="fill: none; stroke-dasharray: 9.6,2.4,1.5,2.4; stroke-dashoffset: 0; stroke: #ff0000; stroke-width: 1.5"/>
   </g>
   <g id="line2d_38">
    <path d="M 122.258775 260.272615 
L 136.665889 244.980256 
L 151.073004 221.917835 
L 165.480119 242.472334 
L 179.887233 222.076016 
L 194.294348 245.305572 
L 208.701462 255.615033 
L 223.108577 248.042458 
L 237.515692 264.287424 
L 251.922806 245.077607 
L 266.329921 259.714396 
L 280.737036 249.379125 
L 295.14415 258.52434 
L 309.551265 265.344476 
L 323.958379 267.530706 
L 338.365494 266.159102 
L 352.772609 256.898443 
L 367.179723 252.134247 
L 381.586838 260.703461 
L 395.993953 260.251118 
L 410.401067 275.814262 
L 424.808182 255.545881 
L 439.215296 268.888754 
L 453.622411 278.000672 
L 468.029526 290.871 
" clip-path="url(#pc389c2beff)" style="fill: none; stroke-dasharray: 5.55,2.4; stroke-dashoffset: 0; stroke: #ff0000; stroke-width: 1.5"/>
   </g>
   <g id="line2d_39">
    <path d="M 122.258775 250.474323 
L 136.665889 238.359763 
L 151.073004 225.443138 
L 165.480119 190.512244 
L 179.887233 200.904946 
L 194.294348 188.958571 
L 208.701462 256.850085 
L 223.108577 251.125831 
L 237.515692 255.701592 
L 251.922806 239.46346 
L 266.329921 244.67852 
L 280.737036 249.949479 
L 295.14415 234.802475 
L 309.551265 255.862545 
L 323.958379 258.093532 
L 338.365494 254.960981 
L 352.772609 160.548069 
L 367.179723 256.836839 
L 381.586838 263.188399 
L 395.993953 262.640264 
L 410.401067 264.674688 
L 424.808182 253.80558 
L 439.215296 260.84033 
L 453.622411 250.369252 
L 468.029526 261.294117 
" clip-path="url(#pc389c2beff)" style="fill: none; stroke: #ff0000; stroke-width: 1.5; stroke-linecap: square"/>
   </g>
   <g id="line2d_40">
    <path d="M 122.258775 242.468284 
L 136.665889 228.000724 
L 151.073004 212.628152 
L 165.480119 198.699125 
L 179.887233 199.411872 
L 194.294348 202.528476 
L 208.701462 234.250527 
L 223.108577 238.075277 
L 237.515692 252.936629 
L 251.922806 237.497239 
L 266.329921 231.9846 
L 280.737036 233.695039 
L 295.14415 247.169757 
L 309.551265 240.11053 
L 323.958379 247.489389 
L 338.365494 239.880115 
L 352.772609 209.582863 
L 367.179723 245.063609 
L 381.586838 251.339189 
L 395.993953 257.157459 
L 410.401067 265.331297 
L 424.808182 255.845814 
L 439.215296 252.325465 
L 453.622411 255.915014 
L 468.029526 262.515211 
" clip-path="url(#pc389c2beff)" style="fill: none; stroke: #ff7f0e; stroke-width: 1.5; stroke-linecap: square"/>
   </g>
   <g id="line2d_41">
    <path d="M 122.258775 238.634982 
L 136.665889 233.865644 
L 151.073004 223.098296 
L 165.480119 198.183372 
L 179.887233 201.891573 
L 194.294348 201.188604 
L 208.701462 231.613043 
L 223.108577 234.603932 
L 237.515692 245.889475 
L 251.922806 239.456979 
L 266.329921 232.496753 
L 280.737036 238.838123 
L 295.14415 238.574089 
L 309.551265 236.997113 
L 323.958379 238.602408 
L 338.365494 228.391752 
L 352.772609 162.491868 
L 367.179723 249.518926 
L 381.586838 255.057783 
L 395.993953 254.00088 
L 410.401067 252.030218 
L 424.808182 249.786383 
L 439.215296 247.483582 
L 453.622411 250.208331 
L 468.029526 251.078677 
" clip-path="url(#pc389c2beff)" style="fill: none; stroke: #1f77b4; stroke-width: 1.5; stroke-linecap: square"/>
   </g>
   <g id="legend_1">
    <g id="patch_7">
     <path d="M 79.9 151.570875 
L 223.485937 151.570875 
Q 225.485937 151.570875 225.485937 149.570875 
L 225.485937 47.824 
Q 225.485937 45.824 223.485937 45.824 
L 79.9 45.824 
Q 77.9 45.824 77.9 47.824 
L 77.9 149.570875 
Q 77.9 151.570875 79.9 151.570875 
z
" style="fill: #ffffff; opacity: 0.8; stroke: #e6e6e6; stroke-linejoin: miter"/>
    </g>
    <g id="line2d_42">
     <path d="M 81.9 53.922438 
L 91.9 53.922438 
L 101.9 53.922438 
" style="fill: none; stroke: #808080; stroke-width: 1.5; stroke-linecap: square"/>
    </g>
    <g id="text_20">
     <!-- BTC-USD Log-Volatility -->
     <g transform="translate(109.9 57.422438)scale(0.1 -0.1)">
      <defs>
       <path id="DejaVuSans-42" d="M 1259 2228 
L 1259 519 
L 2272 519 
Q 2781 519 3026 730 
Q 3272 941 3272 1375 
Q 3272 1813 3026 2020 
Q 2781 2228 2272 2228 
L 1259 2228 
z
M 1259 4147 
L 1259 2741 
L 2194 2741 
Q 2656 2741 2882 2914 
Q 3109 3088 3109 3444 
Q 3109 3797 2882 3972 
Q 2656 4147 2194 4147 
L 1259 4147 
z
M 628 4666 
L 2241 4666 
Q 2963 4666 3353 4366 
Q 3744 4066 3744 3513 
Q 3744 3084 3544 2831 
Q 3344 2578 2956 2516 
Q 3422 2416 3680 2098 
Q 3938 1781 3938 1306 
Q 3938 681 3513 340 
Q 3088 0 2303 0 
L 628 0 
L 628 4666 
z
" transform="scale(0.015625)"/>
       <path id="DejaVuSans-54" d="M -19 4666 
L 3928 4666 
L 3928 4134 
L 2272 4134 
L 2272 0 
L 1638 0 
L 1638 4134 
L -19 4134 
L -19 4666 
z
" transform="scale(0.015625)"/>
       <path id="DejaVuSans-43" d="M 4122 4306 
L 4122 3641 
Q 3803 3938 3442 4084 
Q 3081 4231 2675 4231 
Q 1875 4231 1450 3742 
Q 1025 3253 1025 2328 
Q 1025 1406 1450 917 
Q 1875 428 2675 428 
Q 3081 428 3442 575 
Q 3803 722 4122 1019 
L 4122 359 
Q 3791 134 3420 21 
Q 3050 -91 2638 -91 
Q 1578 -91 968 557 
Q 359 1206 359 2328 
Q 359 3453 968 4101 
Q 1578 4750 2638 4750 
Q 3056 4750 3426 4639 
Q 3797 4528 4122 4306 
z
" transform="scale(0.015625)"/>
       <path id="DejaVuSans-55" d="M 556 4666 
L 1191 4666 
L 1191 1831 
Q 1191 1081 1462 751 
Q 1734 422 2344 422 
Q 2950 422 3222 751 
Q 3494 1081 3494 1831 
L 3494 4666 
L 4128 4666 
L 4128 1753 
Q 4128 841 3676 375 
Q 3225 -91 2344 -91 
Q 1459 -91 1007 375 
Q 556 841 556 1753 
L 556 4666 
z
" transform="scale(0.015625)"/>
       <path id="DejaVuSans-53" d="M 3425 4513 
L 3425 3897 
Q 3066 4069 2747 4153 
Q 2428 4238 2131 4238 
Q 1616 4238 1336 4038 
Q 1056 3838 1056 3469 
Q 1056 3159 1242 3001 
Q 1428 2844 1947 2747 
L 2328 2669 
Q 3034 2534 3370 2195 
Q 3706 1856 3706 1288 
Q 3706 609 3251 259 
Q 2797 -91 1919 -91 
Q 1588 -91 1214 -16 
Q 841 59 441 206 
L 441 856 
Q 825 641 1194 531 
Q 1563 422 1919 422 
Q 2459 422 2753 634 
Q 3047 847 3047 1241 
Q 3047 1584 2836 1778 
Q 2625 1972 2144 2069 
L 1759 2144 
Q 1053 2284 737 2584 
Q 422 2884 422 3419 
Q 422 4038 858 4394 
Q 1294 4750 2059 4750 
Q 2388 4750 2728 4690 
Q 3069 4631 3425 4513 
z
" transform="scale(0.015625)"/>
       <path id="DejaVuSans-4c" d="M 628 4666 
L 1259 4666 
L 1259 531 
L 3531 531 
L 3531 0 
L 628 0 
L 628 4666 
z
" transform="scale(0.015625)"/>
       <path id="DejaVuSans-67" d="M 2906 1791 
Q 2906 2416 2648 2759 
Q 2391 3103 1925 3103 
Q 1463 3103 1205 2759 
Q 947 2416 947 1791 
Q 947 1169 1205 825 
Q 1463 481 1925 481 
Q 2391 481 2648 825 
Q 2906 1169 2906 1791 
z
M 3481 434 
Q 3481 -459 3084 -895 
Q 2688 -1331 1869 -1331 
Q 1566 -1331 1297 -1286 
Q 1028 -1241 775 -1147 
L 775 -588 
Q 1028 -725 1275 -790 
Q 1522 -856 1778 -856 
Q 2344 -856 2625 -561 
Q 2906 -266 2906 331 
L 2906 616 
Q 2728 306 2450 153 
Q 2172 0 1784 0 
Q 1141 0 747 490 
Q 353 981 353 1791 
Q 353 2603 747 3093 
Q 1141 3584 1784 3584 
Q 2172 3584 2450 3431 
Q 2728 3278 2906 2969 
L 2906 3500 
L 3481 3500 
L 3481 434 
z
" transform="scale(0.015625)"/>
      </defs>
      <use xlink:href="#DejaVuSans-42"/>
      <use xlink:href="#DejaVuSans-54" x="68.603516"/>
      <use xlink:href="#DejaVuSans-43" x="123.8125"/>
      <use xlink:href="#DejaVuSans-2d" x="193.636719"/>
      <use xlink:href="#DejaVuSans-55" x="229.720703"/>
      <use xlink:href="#DejaVuSans-53" x="302.914062"/>
      <use xlink:href="#DejaVuSans-44" x="366.390625"/>
      <use xlink:href="#DejaVuSans-20" x="443.392578"/>
      <use xlink:href="#DejaVuSans-4c" x="475.179688"/>
      <use xlink:href="#DejaVuSans-6f" x="529.142578"/>
      <use xlink:href="#DejaVuSans-67" x="590.324219"/>
      <use xlink:href="#DejaVuSans-2d" x="653.800781"/>
      <use xlink:href="#DejaVuSans-56" x="684.009766"/>
      <use xlink:href="#DejaVuSans-6f" x="744.667969"/>
      <use xlink:href="#DejaVuSans-6c" x="805.849609"/>
      <use xlink:href="#DejaVuSans-61" x="833.632812"/>
      <use xlink:href="#DejaVuSans-74" x="894.912109"/>
      <use xlink:href="#DejaVuSans-69" x="934.121094"/>
      <use xlink:href="#DejaVuSans-6c" x="961.904297"/>
      <use xlink:href="#DejaVuSans-69" x="989.6875"/>
      <use xlink:href="#DejaVuSans-74" x="1017.470703"/>
      <use xlink:href="#DejaVuSans-79" x="1056.679688"/>
     </g>
    </g>
    <g id="line2d_43">
     <path d="M 81.9 68.600563 
L 91.9 68.600563 
L 101.9 68.600563 
" style="fill: none; stroke-dasharray: 1.5,2.475; stroke-dashoffset: 0; stroke: #ff0000; stroke-width: 1.5"/>
    </g>
    <g id="text_21">
     <!-- R/S Hurst -->
     <g transform="translate(109.9 72.100563)scale(0.1 -0.1)">
      <defs>
       <path id="DejaVuSans-52" d="M 2841 2188 
Q 3044 2119 3236 1894 
Q 3428 1669 3622 1275 
L 4263 0 
L 3584 0 
L 2988 1197 
Q 2756 1666 2539 1819 
Q 2322 1972 1947 1972 
L 1259 1972 
L 1259 0 
L 628 0 
L 628 4666 
L 2053 4666 
Q 2853 4666 3247 4331 
Q 3641 3997 3641 3322 
Q 3641 2881 3436 2590 
Q 3231 2300 2841 2188 
z
M 1259 4147 
L 1259 2491 
L 2053 2491 
Q 2509 2491 2742 2702 
Q 2975 2913 2975 3322 
Q 2975 3731 2742 3939 
Q 2509 4147 2053 4147 
L 1259 4147 
z
" transform="scale(0.015625)"/>
       <path id="DejaVuSans-2f" d="M 1625 4666 
L 2156 4666 
L 531 -594 
L 0 -594 
L 1625 4666 
z
" transform="scale(0.015625)"/>
      </defs>
      <use xlink:href="#DejaVuSans-52"/>
      <use xlink:href="#DejaVuSans-2f" x="69.482422"/>
      <use xlink:href="#DejaVuSans-53" x="103.173828"/>
      <use xlink:href="#DejaVuSans-20" x="166.650391"/>
      <use xlink:href="#DejaVuSans-48" x="198.4375"/>
      <use xlink:href="#DejaVuSans-75" x="273.632812"/>
      <use xlink:href="#DejaVuSans-72" x="337.011719"/>
      <use xlink:href="#DejaVuSans-73" x="378.125"/>
      <use xlink:href="#DejaVuSans-74" x="430.224609"/>
     </g>
    </g>
    <g id="line2d_44">
     <path d="M 81.9 83.278687 
L 91.9 83.278687 
L 101.9 83.278687 
" style="fill: none; stroke-dasharray: 9.6,2.4,1.5,2.4; stroke-dashoffset: 0; stroke: #ff0000; stroke-width: 1.5"/>
    </g>
    <g id="text_22">
     <!-- variogram Hurst -->
     <g transform="translate(109.9 86.778687)scale(0.1 -0.1)">
      <defs>
       <path id="DejaVuSans-76" d="M 191 3500 
L 800 3500 
L 1894 563 
L 2988 3500 
L 3597 3500 
L 2284 0 
L 1503 0 
L 191 3500 
z
" transform="scale(0.015625)"/>
      </defs>
      <use xlink:href="#DejaVuSans-76"/>
      <use xlink:href="#DejaVuSans-61" x="59.179688"/>
      <use xlink:href="#DejaVuSans-72" x="120.458984"/>
      <use xlink:href="#DejaVuSans-69" x="161.572266"/>
      <use xlink:href="#DejaVuSans-6f" x="189.355469"/>
      <use xlink:href="#DejaVuSans-67" x="250.537109"/>
      <use xlink:href="#DejaVuSans-72" x="314.013672"/>
      <use xlink:href="#DejaVuSans-61" x="355.126953"/>
      <use xlink:href="#DejaVuSans-6d" x="416.40625"/>
      <use xlink:href="#DejaVuSans-20" x="513.818359"/>
      <use xlink:href="#DejaVuSans-48" x="545.605469"/>
      <use xlink:href="#DejaVuSans-75" x="620.800781"/>
      <use xlink:href="#DejaVuSans-72" x="684.179688"/>
      <use xlink:href="#DejaVuSans-73" x="725.292969"/>
      <use xlink:href="#DejaVuSans-74" x="777.392578"/>
     </g>
    </g>
    <g id="line2d_45">
     <path d="M 81.9 97.956813 
L 91.9 97.956813 
L 101.9 97.956813 
" style="fill: none; stroke-dasharray: 5.55,2.4; stroke-dashoffset: 0; stroke: #ff0000; stroke-width: 1.5"/>
    </g>
    <g id="text_23">
     <!-- Higuchi Hurst -->
     <g transform="translate(109.9 101.456813)scale(0.1 -0.1)">
      <defs>
       <path id="DejaVuSans-63" d="M 3122 3366 
L 3122 2828 
Q 2878 2963 2633 3030 
Q 2388 3097 2138 3097 
Q 1578 3097 1268 2742 
Q 959 2388 959 1747 
Q 959 1106 1268 751 
Q 1578 397 2138 397 
Q 2388 397 2633 464 
Q 2878 531 3122 666 
L 3122 134 
Q 2881 22 2623 -34 
Q 2366 -91 2075 -91 
Q 1284 -91 818 406 
Q 353 903 353 1747 
Q 353 2603 823 3093 
Q 1294 3584 2113 3584 
Q 2378 3584 2631 3529 
Q 2884 3475 3122 3366 
z
" transform="scale(0.015625)"/>
       <path id="DejaVuSans-68" d="M 3513 2113 
L 3513 0 
L 2938 0 
L 2938 2094 
Q 2938 2591 2744 2837 
Q 2550 3084 2163 3084 
Q 1697 3084 1428 2787 
Q 1159 2491 1159 1978 
L 1159 0 
L 581 0 
L 581 4863 
L 1159 4863 
L 1159 2956 
Q 1366 3272 1645 3428 
Q 1925 3584 2291 3584 
Q 2894 3584 3203 3211 
Q 3513 2838 3513 2113 
z
" transform="scale(0.015625)"/>
      </defs>
      <use xlink:href="#DejaVuSans-48"/>
      <use xlink:href="#DejaVuSans-69" x="75.195312"/>
      <use xlink:href="#DejaVuSans-67" x="102.978516"/>
      <use xlink:href="#DejaVuSans-75" x="166.455078"/>
      <use xlink:href="#DejaVuSans-63" x="229.833984"/>
      <use xlink:href="#DejaVuSans-68" x="284.814453"/>
      <use xlink:href="#DejaVuSans-69" x="348.193359"/>
      <use xlink:href="#DejaVuSans-20" x="375.976562"/>
      <use xlink:href="#DejaVuSans-48" x="407.763672"/>
      <use xlink:href="#DejaVuSans-75" x="482.958984"/>
      <use xlink:href="#DejaVuSans-72" x="546.337891"/>
      <use xlink:href="#DejaVuSans-73" x="587.451172"/>
      <use xlink:href="#DejaVuSans-74" x="639.550781"/>
     </g>
    </g>
    <g id="line2d_46">
     <path d="M 81.9 112.634938 
L 91.9 112.634938 
L 101.9 112.634938 
" style="fill: none; stroke: #ff0000; stroke-width: 1.5; stroke-linecap: square"/>
    </g>
    <g id="text_24">
     <!-- Whittle Hurst -->
     <g transform="translate(109.9 116.134938)scale(0.1 -0.1)">
      <defs>
       <path id="DejaVuSans-57" d="M 213 4666 
L 850 4666 
L 1831 722 
L 2809 4666 
L 3519 4666 
L 4500 722 
L 5478 4666 
L 6119 4666 
L 4947 0 
L 4153 0 
L 3169 4050 
L 2175 0 
L 1381 0 
L 213 4666 
z
" transform="scale(0.015625)"/>
      </defs>
      <use xlink:href="#DejaVuSans-57"/>
      <use xlink:href="#DejaVuSans-68" x="98.876953"/>
      <use xlink:href="#DejaVuSans-69" x="162.255859"/>
      <use xlink:href="#DejaVuSans-74" x="190.039062"/>
      <use xlink:href="#DejaVuSans-74" x="229.248047"/>
      <use xlink:href="#DejaVuSans-6c" x="268.457031"/>
      <use xlink:href="#DejaVuSans-65" x="296.240234"/>
      <use xlink:href="#DejaVuSans-20" x="357.763672"/>
      <use xlink:href="#DejaVuSans-48" x="389.550781"/>
      <use xlink:href="#DejaVuSans-75" x="464.746094"/>
      <use xlink:href="#DejaVuSans-72" x="528.125"/>
      <use xlink:href="#DejaVuSans-73" x="569.238281"/>
      <use xlink:href="#DejaVuSans-74" x="621.337891"/>
     </g>
    </g>
    <g id="line2d_47">
     <path d="M 81.9 127.313063 
L 91.9 127.313063 
L 101.9 127.313063 
" style="fill: none; stroke: #ff7f0e; stroke-width: 1.5; stroke-linecap: square"/>
    </g>
    <g id="text_25">
     <!-- 1D CNN Hurst -->
     <g transform="translate(109.9 130.813063)scale(0.1 -0.1)">
      <defs>
       <path id="DejaVuSans-4e" d="M 628 4666 
L 1478 4666 
L 3547 763 
L 3547 4666 
L 4159 4666 
L 4159 0 
L 3309 0 
L 1241 3903 
L 1241 0 
L 628 0 
L 628 4666 
z
" transform="scale(0.015625)"/>
      </defs>
      <use xlink:href="#DejaVuSans-31"/>
      <use xlink:href="#DejaVuSans-44" x="63.623047"/>
      <use xlink:href="#DejaVuSans-20" x="140.625"/>
      <use xlink:href="#DejaVuSans-43" x="172.412109"/>
      <use xlink:href="#DejaVuSans-4e" x="242.236328"/>
      <use xlink:href="#DejaVuSans-4e" x="317.041016"/>
      <use xlink:href="#DejaVuSans-20" x="391.845703"/>
      <use xlink:href="#DejaVuSans-48" x="423.632812"/>
      <use xlink:href="#DejaVuSans-75" x="498.828125"/>
      <use xlink:href="#DejaVuSans-72" x="562.207031"/>
      <use xlink:href="#DejaVuSans-73" x="603.320312"/>
      <use xlink:href="#DejaVuSans-74" x="655.419922"/>
     </g>
    </g>
    <g id="line2d_48">
     <path d="M 81.9 141.991187 
L 91.9 141.991187 
L 101.9 141.991187 
" style="fill: none; stroke: #1f77b4; stroke-width: 1.5; stroke-linecap: square"/>
    </g>
    <g id="text_26">
     <!-- LSTM Hurst -->
     <g transform="translate(109.9 145.491187)scale(0.1 -0.1)">
      <defs>
       <path id="DejaVuSans-4d" d="M 628 4666 
L 1569 4666 
L 2759 1491 
L 3956 4666 
L 4897 4666 
L 4897 0 
L 4281 0 
L 4281 4097 
L 3078 897 
L 2444 897 
L 1241 4097 
L 1241 0 
L 628 0 
L 628 4666 
z
" transform="scale(0.015625)"/>
      </defs>
      <use xlink:href="#DejaVuSans-4c"/>
      <use xlink:href="#DejaVuSans-53" x="55.712891"/>
      <use xlink:href="#DejaVuSans-54" x="119.189453"/>
      <use xlink:href="#DejaVuSans-4d" x="180.273438"/>
      <use xlink:href="#DejaVuSans-20" x="266.552734"/>
      <use xlink:href="#DejaVuSans-48" x="298.339844"/>
      <use xlink:href="#DejaVuSans-75" x="373.535156"/>
      <use xlink:href="#DejaVuSans-72" x="436.914062"/>
      <use xlink:href="#DejaVuSans-73" x="478.027344"/>
      <use xlink:href="#DejaVuSans-74" x="530.126953"/>
     </g>
    </g>
   </g>
  </g>
 </g>
 <defs>
  <clipPath id="pc389c2beff">
   <rect x="72.9" y="40.824" width="451.98" height="261.954"/>
  </clipPath>
 </defs>
</svg>
