<?xml version="1.0" encoding="utf-8" standalone="no"?>
<!DOCTYPE svg PUBLIC "-//W3C//DTD SVG 1.1//EN"
  "http://www.w3.org/Graphics/SVG/1.1/DTD/svg11.dtd">
<svg xmlns:xlink="http://www.w3.org/1999/xlink" width="583.2pt" height="340.2pt" viewBox="0 0 583.2 340.2" xmlns="http://www.w3.org/2000/svg" version="1.1">
 <metadata>
  <rdf:RDF xmlns:dc="http://purl.org/dc/elements/1.1/" xmlns:cc="http://creativecommons.org/ns#" xmlns:rdf="http://www.w3.org/1999/02/22-rdf-syntax-ns#">
   <cc:Work>
    <dc:type rdf:resource="http://purl.org/dc/dcmitype/StillImage"/>
    <dc:date>2024-07-07T11:16:05.439218</dc:date>
    <dc:format>image/svg+xml</dc:format>
    <dc:creator>
     <cc:Agent>
      <dc:title>Matplotlib v3.5.1, https://matplotlib.org/</dc:title>
     </cc:Agent>
    </dc:creator>
   </cc:Work>
  </rdf:RDF>
 </metadata>
 <defs>
  <style type="text/css">*{stroke-linejoin: round; stroke-linecap: butt}</style>
 </defs>
 <g id="figure_1">
  <g id="patch_1">
   <path d="M 0 340.2 
L 583.2 340.2 
L 583.2 0 
L 0 0 
z
" style="fill: #ffffff"/>
  </g>
  <g id="axes_1">
   <g id="patch_2">
    <path d="M 72.9 302.778 
L 524.88 302.778 
L 524.88 40.824 
L 72.9 40.824 
L 72.9 302.778 
z
" style="fill: none; opacity: 0"/>
   </g>
   <g id="matplotlib.axis_1">
    <g id="xtick_1">
     <g id="line2d_1">
      <path d="M 80.753666 302.778 
L 80.753666 40.824 
" clip-path="url(#pf59e8a700f)" style="fill: none; stroke: #e6e6e6; stroke-width: 0.8; stroke-linecap: square"/>
     </g>
     <g id="line2d_2">
      <defs>
       <path id="me75244f1d0" d="M 0 0 
L 0 3.5 
" style="stroke: #000000; stroke-width: 0.8"/>
      </defs>
      <g>
       <use xlink:href="#me75244f1d0" x="80.753666" y="302.778" style="stroke: #000000; stroke-width: 0.8"/>
      </g>
     </g>
     <g id="text_1">
      <!-- 2000 -->
      <g transform="translate(68.028666 317.376438)scale(0.1 -0.1)">
       <defs>
        <path id="DejaVuSans-32" d="M 1228 531 
L 3431 531 
L 3431 0 
L 469 0 
L 469 531 
Q 828 903 1448 1529 
Q 2069 2156 2228 2338 
Q 2531 2678 2651 2914 
Q 2772 3150 2772 3378 
Q 2772 3750 2511 3984 
Q 2250 4219 1831 4219 
Q 1534 4219 1204 4116 
Q 875 4013 500 3803 
L 500 4441 
Q 881 4594 1212 4672 
Q 1544 4750 1819 4750 
Q 2544 4750 2975 4387 
Q 3406 4025 3406 3419 
Q 3406 3131 3298 2873 
Q 3191 2616 2906 2266 
Q 2828 2175 2409 1742 
Q 1991 1309 1228 531 
z
" transform="scale(0.015625)"/>
        <path id="DejaVuSans-30" d="M 2034 4250 
Q 1547 4250 1301 3770 
Q 1056 3291 1056 2328 
Q 1056 1369 1301 889 
Q 1547 409 2034 409 
Q 2525 409 2770 889 
Q 3016 1369 3016 2328 
Q 3016 3291 2770 3770 
Q 2525 4250 2034 4250 
z
M 2034 4750 
Q 2819 4750 3233 4129 
Q 3647 3509 3647 2328 
Q 3647 1150 3233 529 
Q 2819 -91 2034 -91 
Q 1250 -91 836 529 
Q 422 1150 422 2328 
Q 422 3509 836 4129 
Q 1250 4750 2034 4750 
z
" transform="scale(0.015625)"/>
       </defs>
       <use xlink:href="#DejaVuSans-32"/>
       <use xlink:href="#DejaVuSans-30" x="63.623047"/>
       <use xlink:href="#DejaVuSans-30" x="127.246094"/>
       <use xlink:href="#DejaVuSans-30" x="190.869141"/>
      </g>
     </g>
    </g>
    <g id="xtick_2">
     <g id="line2d_3">
      <path d="M 149.937902 302.778 
L 149.937902 40.824 
" clip-path="url(#pf59e8a700f)" style="fill: none; stroke: #e6e6e6; stroke-width: 0.8; stroke-linecap: square"/>
     </g>
     <g id="line2d_4">
      <g>
       <use xlink:href="#me75244f1d0" x="149.937902" y="302.778" style="stroke: #000000; stroke-width: 0.8"/>
      </g>
     </g>
     <g id="text_2">
      <!-- 2004 -->
      <g transform="translate(137.212902 317.376438)scale(0.1 -0.1)">
       <defs>
        <path id="DejaVuSans-34" d="M 2419 4116 
L 825 1625 
L 2419 1625 
L 2419 4116 
z
M 2253 4666 
L 3047 4666 
L 3047 1625 
L 3713 1625 
L 3713 1100 
L 3047 1100 
L 3047 0 
L 2419 0 
L 2419 1100 
L 313 1100 
L 313 1709 
L 2253 4666 
z
" transform="scale(0.015625)"/>
       </defs>
       <use xlink:href="#DejaVuSans-32"/>
       <use xlink:href="#DejaVuSans-30" x="63.623047"/>
       <use xlink:href="#DejaVuSans-30" x="127.246094"/>
       <use xlink:href="#DejaVuSans-34" x="190.869141"/>
      </g>
     </g>
    </g>
    <g id="xtick_3">
     <g id="line2d_5">
      <path d="M 219.122138 302.778 
L 219.122138 40.824 
" clip-path="url(#pf59e8a700f)" style="fill: none; stroke: #e6e6e6; stroke-width: 0.8; stroke-linecap: square"/>
     </g>
     <g id="line2d_6">
      <g>
       <use xlink:href="#me75244f1d0" x="219.122138" y="302.778" style="stroke: #000000; stroke-width: 0.8"/>
      </g>
     </g>
     <g id="text_3">
      <!-- 2008 -->
      <g transform="translate(206.397138 317.376438)scale(0.1 -0.1)">
       <defs>
        <path id="DejaVuSans-38" d="M 2034 2216 
Q 1584 2216 1326 1975 
Q 1069 1734 1069 1313 
Q 1069 891 1326 650 
Q 1584 409 2034 409 
Q 2484 409 2743 651 
Q 3003 894 3003 1313 
Q 3003 1734 2745 1975 
Q 2488 2216 2034 2216 
z
M 1403 2484 
Q 997 2584 770 2862 
Q 544 3141 544 3541 
Q 544 4100 942 4425 
Q 1341 4750 2034 4750 
Q 2731 4750 3128 4425 
Q 3525 4100 3525 3541 
Q 3525 3141 3298 2862 
Q 3072 2584 2669 2484 
Q 3125 2378 3379 2068 
Q 3634 1759 3634 1313 
Q 3634 634 3220 271 
Q 2806 -91 2034 -91 
Q 1263 -91 848 271 
Q 434 634 434 1313 
Q 434 1759 690 2068 
Q 947 2378 1403 2484 
z
M 1172 3481 
Q 1172 3119 1398 2916 
Q 1625 2713 2034 2713 
Q 2441 2713 2670 2916 
Q 2900 3119 2900 3481 
Q 2900 3844 2670 4047 
Q 2441 4250 2034 4250 
Q 1625 4250 1398 4047 
Q 1172 3844 1172 3481 
z
" transform="scale(0.015625)"/>
       </defs>
       <use xlink:href="#DejaVuSans-32"/>
       <use xlink:href="#DejaVuSans-30" x="63.623047"/>
       <use xlink:href="#DejaVuSans-30" x="127.246094"/>
       <use xlink:href="#DejaVuSans-38" x="190.869141"/>
      </g>
     </g>
    </g>
    <g id="xtick_4">
     <g id="line2d_7">
      <path d="M 288.306375 302.778 
L 288.306375 40.824 
" clip-path="url(#pf59e8a700f)" style="fill: none; stroke: #e6e6e6; stroke-width: 0.8; stroke-linecap: square"/>
     </g>
     <g id="line2d_8">
      <g>
       <use xlink:href="#me75244f1d0" x="288.306375" y="302.778" style="stroke: #000000; stroke-width: 0.8"/>
      </g>
     </g>
     <g id="text_4">
      <!-- 2012 -->
      <g transform="translate(275.581375 317.376438)scale(0.1 -0.1)">
       <defs>
        <path id="DejaVuSans-31" d="M 794 531 
L 1825 531 
L 1825 4091 
L 703 3866 
L 703 4441 
L 1819 4666 
L 2450 4666 
L 2450 531 
L 3481 531 
L 3481 0 
L 794 0 
L 794 531 
z
" transform="scale(0.015625)"/>
       </defs>
       <use xlink:href="#DejaVuSans-32"/>
       <use xlink:href="#DejaVuSans-30" x="63.623047"/>
       <use xlink:href="#DejaVuSans-31" x="127.246094"/>
       <use xlink:href="#DejaVuSans-32" x="190.869141"/>
      </g>
     </g>
    </g>
    <g id="xtick_5">
     <g id="line2d_9">
      <path d="M 357.490611 302.778 
L 357.490611 40.824 
" clip-path="url(#pf59e8a700f)" style="fill: none; stroke: #e6e6e6; stroke-width: 0.8; stroke-linecap: square"/>
     </g>
     <g id="line2d_10">
      <g>
       <use xlink:href="#me75244f1d0" x="357.490611" y="302.778" style="stroke: #000000; stroke-width: 0.8"/>
      </g>
     </g>
     <g id="text_5">
      <!-- 2016 -->
      <g transform="translate(344.765611 317.376438)scale(0.1 -0.1)">
       <defs>
        <path id="DejaVuSans-36" d="M 2113 2584 
Q 1688 2584 1439 2293 
Q 1191 2003 1191 1497 
Q 1191 994 1439 701 
Q 1688 409 2113 409 
Q 2538 409 2786 701 
Q 3034 994 3034 1497 
Q 3034 2003 2786 2293 
Q 2538 2584 2113 2584 
z
M 3366 4563 
L 3366 3988 
Q 3128 4100 2886 4159 
Q 2644 4219 2406 4219 
Q 1781 4219 1451 3797 
Q 1122 3375 1075 2522 
Q 1259 2794 1537 2939 
Q 1816 3084 2150 3084 
Q 2853 3084 3261 2657 
Q 3669 2231 3669 1497 
Q 3669 778 3244 343 
Q 2819 -91 2113 -91 
Q 1303 -91 875 529 
Q 447 1150 447 2328 
Q 447 3434 972 4092 
Q 1497 4750 2381 4750 
Q 2619 4750 2861 4703 
Q 3103 4656 3366 4563 
z
" transform="scale(0.015625)"/>
       </defs>
       <use xlink:href="#DejaVuSans-32"/>
       <use xlink:href="#DejaVuSans-30" x="63.623047"/>
       <use xlink:href="#DejaVuSans-31" x="127.246094"/>
       <use xlink:href="#DejaVuSans-36" x="190.869141"/>
      </g>
     </g>
    </g>
    <g id="xtick_6">
     <g id="line2d_11">
      <path d="M 426.674847 302.778 
L 426.674847 40.824 
" clip-path="url(#pf59e8a700f)" style="fill: none; stroke: #e6e6e6; stroke-width: 0.8; stroke-linecap: square"/>
     </g>
     <g id="line2d_12">
      <g>
       <use xlink:href="#me75244f1d0" x="426.674847" y="302.778" style="stroke: #000000; stroke-width: 0.8"/>
      </g>
     </g>
     <g id="text_6">
      <!-- 2020 -->
      <g transform="translate(413.949847 317.376438)scale(0.1 -0.1)">
       <use xlink:href="#DejaVuSans-32"/>
       <use xlink:href="#DejaVuSans-30" x="63.623047"/>
       <use xlink:href="#DejaVuSans-32" x="127.246094"/>
       <use xlink:href="#DejaVuSans-30" x="190.869141"/>
      </g>
     </g>
    </g>
    <g id="xtick_7">
     <g id="line2d_13">
      <path d="M 495.859083 302.778 
L 495.859083 40.824 
" clip-path="url(#pf59e8a700f)" style="fill: none; stroke: #e6e6e6; stroke-width: 0.8; stroke-linecap: square"/>
     </g>
     <g id="line2d_14">
      <g>
       <use xlink:href="#me75244f1d0" x="495.859083" y="302.778" style="stroke: #000000; stroke-width: 0.8"/>
      </g>
     </g>
     <g id="text_7">
      <!-- 2024 -->
      <g transform="translate(483.134083 317.376438)scale(0.1 -0.1)">
       <use xlink:href="#DejaVuSans-32"/>
       <use xlink:href="#DejaVuSans-30" x="63.623047"/>
       <use xlink:href="#DejaVuSans-32" x="127.246094"/>
       <use xlink:href="#DejaVuSans-34" x="190.869141"/>
      </g>
     </g>
    </g>
    <g id="text_8">
     <!-- Date -->
     <g transform="translate(286.939219 331.054562)scale(0.1 -0.1)">
      <defs>
       <path id="DejaVuSans-44" d="M 1259 4147 
L 1259 519 
L 2022 519 
Q 2988 519 3436 956 
Q 3884 1394 3884 2338 
Q 3884 3275 3436 3711 
Q 2988 4147 2022 4147 
L 1259 4147 
z
M 628 4666 
L 1925 4666 
Q 3281 4666 3915 4102 
Q 4550 3538 4550 2338 
Q 4550 1131 3912 565 
Q 3275 0 1925 0 
L 628 0 
L 628 4666 
z
" transform="scale(0.015625)"/>
       <path id="DejaVuSans-61" d="M 2194 1759 
Q 1497 1759 1228 1600 
Q 959 1441 959 1056 
Q 959 750 1161 570 
Q 1363 391 1709 391 
Q 2188 391 2477 730 
Q 2766 1069 2766 1631 
L 2766 1759 
L 2194 1759 
z
M 3341 1997 
L 3341 0 
L 2766 0 
L 2766 531 
Q 2569 213 2275 61 
Q 1981 -91 1556 -91 
Q 1019 -91 701 211 
Q 384 513 384 1019 
Q 384 1609 779 1909 
Q 1175 2209 1959 2209 
L 2766 2209 
L 2766 2266 
Q 2766 2663 2505 2880 
Q 2244 3097 1772 3097 
Q 1472 3097 1187 3025 
Q 903 2953 641 2809 
L 641 3341 
Q 956 3463 1253 3523 
Q 1550 3584 1831 3584 
Q 2591 3584 2966 3190 
Q 3341 2797 3341 1997 
z
" transform="scale(0.015625)"/>
       <path id="DejaVuSans-74" d="M 1172 4494 
L 1172 3500 
L 2356 3500 
L 2356 3053 
L 1172 3053 
L 1172 1153 
Q 1172 725 1289 603 
Q 1406 481 1766 481 
L 2356 481 
L 2356 0 
L 1766 0 
Q 1100 0 847 248 
Q 594 497 594 1153 
L 594 3053 
L 172 3053 
L 172 3500 
L 594 3500 
L 594 4494 
L 1172 4494 
z
" transform="scale(0.015625)"/>
       <path id="DejaVuSans-65" d="M 3597 1894 
L 3597 1613 
L 953 1613 
Q 991 1019 1311 708 
Q 1631 397 2203 397 
Q 2534 397 2845 478 
Q 3156 559 3463 722 
L 3463 178 
Q 3153 47 2828 -22 
Q 2503 -91 2169 -91 
Q 1331 -91 842 396 
Q 353 884 353 1716 
Q 353 2575 817 3079 
Q 1281 3584 2069 3584 
Q 2775 3584 3186 3129 
Q 3597 2675 3597 1894 
z
M 3022 2063 
Q 3016 2534 2758 2815 
Q 2500 3097 2075 3097 
Q 1594 3097 1305 2825 
Q 1016 2553 972 2059 
L 3022 2063 
z
" transform="scale(0.015625)"/>
      </defs>
      <use xlink:href="#DejaVuSans-44"/>
      <use xlink:href="#DejaVuSans-61" x="77.001953"/>
      <use xlink:href="#DejaVuSans-74" x="138.28125"/>
      <use xlink:href="#DejaVuSans-65" x="177.490234"/>
     </g>
    </g>
   </g>
   <g id="matplotlib.axis_2">
    <g id="ytick_1">
     <g id="line2d_15">
      <path d="M 72.9 286.786807 
L 524.88 286.786807 
" clip-path="url(#pf59e8a700f)" style="fill: none; stroke: #e6e6e6; stroke-width: 0.8; stroke-linecap: square"/>
     </g>
     <g id="line2d_16">
      <defs>
       <path id="m42dfc8161e" d="M 0 0 
L -3.5 0 
" style="stroke: #000000; stroke-width: 0.8"/>
      </defs>
      <g>
       <use xlink:href="#m42dfc8161e" x="72.9" y="286.786807" style="stroke: #000000; stroke-width: 0.8"/>
      </g>
     </g>
     <g id="text_9">
      <!-- −0.2 -->
      <g transform="translate(41.617187 290.586026)scale(0.1 -0.1)">
       <defs>
        <path id="DejaVuSans-2212" d="M 678 2272 
L 4684 2272 
L 4684 1741 
L 678 1741 
L 678 2272 
z
" transform="scale(0.015625)"/>
        <path id="DejaVuSans-2e" d="M 684 794 
L 1344 794 
L 1344 0 
L 684 0 
L 684 794 
z
" transform="scale(0.015625)"/>
       </defs>
       <use xlink:href="#DejaVuSans-2212"/>
       <use xlink:href="#DejaVuSans-30" x="83.789062"/>
       <use xlink:href="#DejaVuSans-2e" x="147.412109"/>
       <use xlink:href="#DejaVuSans-32" x="179.199219"/>
      </g>
     </g>
    </g>
    <g id="ytick_2">
     <g id="line2d_17">
      <path d="M 72.9 256.704484 
L 524.88 256.704484 
" clip-path="url(#pf59e8a700f)" style="fill: none; stroke: #e6e6e6; stroke-width: 0.8; stroke-linecap: square"/>
     </g>
     <g id="line2d_18">
      <g>
       <use xlink:href="#m42dfc8161e" x="72.9" y="256.704484" style="stroke: #000000; stroke-width: 0.8"/>
      </g>
     </g>
     <g id="text_10">
      <!-- −0.1 -->
      <g transform="translate(41.617187 260.503703)scale(0.1 -0.1)">
       <use xlink:href="#DejaVuSans-2212"/>
       <use xlink:href="#DejaVuSans-30" x="83.789062"/>
       <use xlink:href="#DejaVuSans-2e" x="147.412109"/>
       <use xlink:href="#DejaVuSans-31" x="179.199219"/>
      </g>
     </g>
    </g>
    <g id="ytick_3">
     <g id="line2d_19">
      <path d="M 72.9 226.622161 
L 524.88 226.622161 
" clip-path="url(#pf59e8a700f)" style="fill: none; stroke: #e6e6e6; stroke-width: 0.8; stroke-linecap: square"/>
     </g>
     <g id="line2d_20">
      <g>
       <use xlink:href="#m42dfc8161e" x="72.9" y="226.622161" style="stroke: #000000; stroke-width: 0.8"/>
      </g>
     </g>
     <g id="text_11">
      <!-- 0.0 -->
      <g transform="translate(49.996875 230.42138)scale(0.1 -0.1)">
       <use xlink:href="#DejaVuSans-30"/>
       <use xlink:href="#DejaVuSans-2e" x="63.623047"/>
       <use xlink:href="#DejaVuSans-30" x="95.410156"/>
      </g>
     </g>
    </g>
    <g id="ytick_4">
     <g id="line2d_21">
      <path d="M 72.9 196.539838 
L 524.88 196.539838 
" clip-path="url(#pf59e8a700f)" style="fill: none; stroke: #e6e6e6; stroke-width: 0.8; stroke-linecap: square"/>
     </g>
     <g id="line2d_22">
      <g>
       <use xlink:href="#m42dfc8161e" x="72.9" y="196.539838" style="stroke: #000000; stroke-width: 0.8"/>
      </g>
     </g>
     <g id="text_12">
      <!-- 0.1 -->
      <g transform="translate(49.996875 200.339057)scale(0.1 -0.1)">
       <use xlink:href="#DejaVuSans-30"/>
       <use xlink:href="#DejaVuSans-2e" x="63.623047"/>
       <use xlink:href="#DejaVuSans-31" x="95.410156"/>
      </g>
     </g>
    </g>
    <g id="ytick_5">
     <g id="line2d_23">
      <path d="M 72.9 166.457515 
L 524.88 166.457515 
" clip-path="url(#pf59e8a700f)" style="fill: none; stroke: #e6e6e6; stroke-width: 0.8; stroke-linecap: square"/>
     </g>
     <g id="line2d_24">
      <g>
       <use xlink:href="#m42dfc8161e" x="72.9" y="166.457515" style="stroke: #000000; stroke-width: 0.8"/>
      </g>
     </g>
     <g id="text_13">
      <!-- 0.2 -->
      <g transform="translate(49.996875 170.256734)scale(0.1 -0.1)">
       <use xlink:href="#DejaVuSans-30"/>
       <use xlink:href="#DejaVuSans-2e" x="63.623047"/>
       <use xlink:href="#DejaVuSans-32" x="95.410156"/>
      </g>
     </g>
    </g>
    <g id="ytick_6">
     <g id="line2d_25">
      <path d="M 72.9 136.375192 
L 524.88 136.375192 
" clip-path="url(#pf59e8a700f)" style="fill: none; stroke: #e6e6e6; stroke-width: 0.8; stroke-linecap: square"/>
     </g>
     <g id="line2d_26">
      <g>
       <use xlink:href="#m42dfc8161e" x="72.9" y="136.375192" style="stroke: #000000; stroke-width: 0.8"/>
      </g>
     </g>
     <g id="text_14">
      <!-- 0.3 -->
      <g transform="translate(49.996875 140.17441)scale(0.1 -0.1)">
       <defs>
        <path id="DejaVuSans-33" d="M 2597 2516 
Q 3050 2419 3304 2112 
Q 3559 1806 3559 1356 
Q 3559 666 3084 287 
Q 2609 -91 1734 -91 
Q 1441 -91 1130 -33 
Q 819 25 488 141 
L 488 750 
Q 750 597 1062 519 
Q 1375 441 1716 441 
Q 2309 441 2620 675 
Q 2931 909 2931 1356 
Q 2931 1769 2642 2001 
Q 2353 2234 1838 2234 
L 1294 2234 
L 1294 2753 
L 1863 2753 
Q 2328 2753 2575 2939 
Q 2822 3125 2822 3475 
Q 2822 3834 2567 4026 
Q 2313 4219 1838 4219 
Q 1578 4219 1281 4162 
Q 984 4106 628 3988 
L 628 4550 
Q 988 4650 1302 4700 
Q 1616 4750 1894 4750 
Q 2613 4750 3031 4423 
Q 3450 4097 3450 3541 
Q 3450 3153 3228 2886 
Q 3006 2619 2597 2516 
z
" transform="scale(0.015625)"/>
       </defs>
       <use xlink:href="#DejaVuSans-30"/>
       <use xlink:href="#DejaVuSans-2e" x="63.623047"/>
       <use xlink:href="#DejaVuSans-33" x="95.410156"/>
      </g>
     </g>
    </g>
    <g id="ytick_7">
     <g id="line2d_27">
      <path d="M 72.9 106.292868 
L 524.88 106.292868 
" clip-path="url(#pf59e8a700f)" style="fill: none; stroke: #e6e6e6; stroke-width: 0.8; stroke-linecap: square"/>
     </g>
     <g id="line2d_28">
      <g>
       <use xlink:href="#m42dfc8161e" x="72.9" y="106.292868" style="stroke: #000000; stroke-width: 0.8"/>
      </g>
     </g>
     <g id="text_15">
      <!-- 0.4 -->
      <g transform="translate(49.996875 110.092087)scale(0.1 -0.1)">
       <use xlink:href="#DejaVuSans-30"/>
       <use xlink:href="#DejaVuSans-2e" x="63.623047"/>
       <use xlink:href="#DejaVuSans-34" x="95.410156"/>
      </g>
     </g>
    </g>
    <g id="ytick_8">
     <g id="line2d_29">
      <path d="M 72.9 76.210545 
L 524.88 76.210545 
" clip-path="url(#pf59e8a700f)" style="fill: none; stroke: #e6e6e6; stroke-width: 0.8; stroke-linecap: square"/>
     </g>
     <g id="line2d_30">
      <g>
       <use xlink:href="#m42dfc8161e" x="72.9" y="76.210545" style="stroke: #000000; stroke-width: 0.8"/>
      </g>
     </g>
     <g id="text_16">
      <!-- 0.5 -->
      <g transform="translate(49.996875 80.009764)scale(0.1 -0.1)">
       <defs>
        <path id="DejaVuSans-35" d="M 691 4666 
L 3169 4666 
L 3169 4134 
L 1269 4134 
L 1269 2991 
Q 1406 3038 1543 3061 
Q 1681 3084 1819 3084 
Q 2600 3084 3056 2656 
Q 3513 2228 3513 1497 
Q 3513 744 3044 326 
Q 2575 -91 1722 -91 
Q 1428 -91 1123 -41 
Q 819 9 494 109 
L 494 744 
Q 775 591 1075 516 
Q 1375 441 1709 441 
Q 2250 441 2565 725 
Q 2881 1009 2881 1497 
Q 2881 1984 2565 2268 
Q 2250 2553 1709 2553 
Q 1456 2553 1204 2497 
Q 953 2441 691 2322 
L 691 4666 
z
" transform="scale(0.015625)"/>
       </defs>
       <use xlink:href="#DejaVuSans-30"/>
       <use xlink:href="#DejaVuSans-2e" x="63.623047"/>
       <use xlink:href="#DejaVuSans-35" x="95.410156"/>
      </g>
     </g>
    </g>
    <g id="ytick_9">
     <g id="line2d_31">
      <path d="M 72.9 46.128222 
L 524.88 46.128222 
" clip-path="url(#pf59e8a700f)" style="fill: none; stroke: #e6e6e6; stroke-width: 0.8; stroke-linecap: square"/>
     </g>
     <g id="line2d_32">
      <g>
       <use xlink:href="#m42dfc8161e" x="72.9" y="46.128222" style="stroke: #000000; stroke-width: 0.8"/>
      </g>
     </g>
     <g id="text_17">
      <!-- 0.6 -->
      <g transform="translate(49.996875 49.927441)scale(0.1 -0.1)">
       <use xlink:href="#DejaVuSans-30"/>
       <use xlink:href="#DejaVuSans-2e" x="63.623047"/>
       <use xlink:href="#DejaVuSans-36" x="95.410156"/>
      </g>
     </g>
    </g>
    <g id="text_18">
     <!-- Volatility and Hurst-estimate -->
     <g transform="translate(35.5375 243.333031)rotate(-90)scale(0.1 -0.1)">
      <defs>
       <path id="DejaVuSans-56" d="M 1831 0 
L 50 4666 
L 709 4666 
L 2188 738 
L 3669 4666 
L 4325 4666 
L 2547 0 
L 1831 0 
z
" transform="scale(0.015625)"/>
       <path id="DejaVuSans-6f" d="M 1959 3097 
Q 1497 3097 1228 2736 
Q 959 2375 959 1747 
Q 959 1119 1226 758 
Q 1494 397 1959 397 
Q 2419 397 2687 759 
Q 2956 1122 2956 1747 
Q 2956 2369 2687 2733 
Q 2419 3097 1959 3097 
z
M 1959 3584 
Q 2709 3584 3137 3096 
Q 3566 2609 3566 1747 
Q 3566 888 3137 398 
Q 2709 -91 1959 -91 
Q 1206 -91 779 398 
Q 353 888 353 1747 
Q 353 2609 779 3096 
Q 1206 3584 1959 3584 
z
" transform="scale(0.015625)"/>
       <path id="DejaVuSans-6c" d="M 603 4863 
L 1178 4863 
L 1178 0 
L 603 0 
L 603 4863 
z
" transform="scale(0.015625)"/>
       <path id="DejaVuSans-69" d="M 603 3500 
L 1178 3500 
L 1178 0 
L 603 0 
L 603 3500 
z
M 603 4863 
L 1178 4863 
L 1178 4134 
L 603 4134 
L 603 4863 
z
" transform="scale(0.015625)"/>
       <path id="DejaVuSans-79" d="M 2059 -325 
Q 1816 -950 1584 -1140 
Q 1353 -1331 966 -1331 
L 506 -1331 
L 506 -850 
L 844 -850 
Q 1081 -850 1212 -737 
Q 1344 -625 1503 -206 
L 1606 56 
L 191 3500 
L 800 3500 
L 1894 763 
L 2988 3500 
L 3597 3500 
L 2059 -325 
z
" transform="scale(0.015625)"/>
       <path id="DejaVuSans-20" transform="scale(0.015625)"/>
       <path id="DejaVuSans-6e" d="M 3513 2113 
L 3513 0 
L 2938 0 
L 2938 2094 
Q 2938 2591 2744 2837 
Q 2550 3084 2163 3084 
Q 1697 3084 1428 2787 
Q 1159 2491 1159 1978 
L 1159 0 
L 581 0 
L 581 3500 
L 1159 3500 
L 1159 2956 
Q 1366 3272 1645 3428 
Q 1925 3584 2291 3584 
Q 2894 3584 3203 3211 
Q 3513 2838 3513 2113 
z
" transform="scale(0.015625)"/>
       <path id="DejaVuSans-64" d="M 2906 2969 
L 2906 4863 
L 3481 4863 
L 3481 0 
L 2906 0 
L 2906 525 
Q 2725 213 2448 61 
Q 2172 -91 1784 -91 
Q 1150 -91 751 415 
Q 353 922 353 1747 
Q 353 2572 751 3078 
Q 1150 3584 1784 3584 
Q 2172 3584 2448 3432 
Q 2725 3281 2906 2969 
z
M 947 1747 
Q 947 1113 1208 752 
Q 1469 391 1925 391 
Q 2381 391 2643 752 
Q 2906 1113 2906 1747 
Q 2906 2381 2643 2742 
Q 2381 3103 1925 3103 
Q 1469 3103 1208 2742 
Q 947 2381 947 1747 
z
" transform="scale(0.015625)"/>
       <path id="DejaVuSans-48" d="M 628 4666 
L 1259 4666 
L 1259 2753 
L 3553 2753 
L 3553 4666 
L 4184 4666 
L 4184 0 
L 3553 0 
L 3553 2222 
L 1259 2222 
L 1259 0 
L 628 0 
L 628 4666 
z
" transform="scale(0.015625)"/>
       <path id="DejaVuSans-75" d="M 544 1381 
L 544 3500 
L 1119 3500 
L 1119 1403 
Q 1119 906 1312 657 
Q 1506 409 1894 409 
Q 2359 409 2629 706 
Q 2900 1003 2900 1516 
L 2900 3500 
L 3475 3500 
L 3475 0 
L 2900 0 
L 2900 538 
Q 2691 219 2414 64 
Q 2138 -91 1772 -91 
Q 1169 -91 856 284 
Q 544 659 544 1381 
z
M 1991 3584 
L 1991 3584 
z
" transform="scale(0.015625)"/>
       <path id="DejaVuSans-72" d="M 2631 2963 
Q 2534 3019 2420 3045 
Q 2306 3072 2169 3072 
Q 1681 3072 1420 2755 
Q 1159 2438 1159 1844 
L 1159 0 
L 581 0 
L 581 3500 
L 1159 3500 
L 1159 2956 
Q 1341 3275 1631 3429 
Q 1922 3584 2338 3584 
Q 2397 3584 2469 3576 
Q 2541 3569 2628 3553 
L 2631 2963 
z
" transform="scale(0.015625)"/>
       <path id="DejaVuSans-73" d="M 2834 3397 
L 2834 2853 
Q 2591 2978 2328 3040 
Q 2066 3103 1784 3103 
Q 1356 3103 1142 2972 
Q 928 2841 928 2578 
Q 928 2378 1081 2264 
Q 1234 2150 1697 2047 
L 1894 2003 
Q 2506 1872 2764 1633 
Q 3022 1394 3022 966 
Q 3022 478 2636 193 
Q 2250 -91 1575 -91 
Q 1294 -91 989 -36 
Q 684 19 347 128 
L 347 722 
Q 666 556 975 473 
Q 1284 391 1588 391 
Q 1994 391 2212 530 
Q 2431 669 2431 922 
Q 2431 1156 2273 1281 
Q 2116 1406 1581 1522 
L 1381 1569 
Q 847 1681 609 1914 
Q 372 2147 372 2553 
Q 372 3047 722 3315 
Q 1072 3584 1716 3584 
Q 2034 3584 2315 3537 
Q 2597 3491 2834 3397 
z
" transform="scale(0.015625)"/>
       <path id="DejaVuSans-2d" d="M 313 2009 
L 1997 2009 
L 1997 1497 
L 313 1497 
L 313 2009 
z
" transform="scale(0.015625)"/>
       <path id="DejaVuSans-6d" d="M 3328 2828 
Q 3544 3216 3844 3400 
Q 4144 3584 4550 3584 
Q 5097 3584 5394 3201 
Q 5691 2819 5691 2113 
L 5691 0 
L 5113 0 
L 5113 2094 
Q 5113 2597 4934 2840 
Q 4756 3084 4391 3084 
Q 3944 3084 3684 2787 
Q 3425 2491 3425 1978 
L 3425 0 
L 2847 0 
L 2847 2094 
Q 2847 2600 2669 2842 
Q 2491 3084 2119 3084 
Q 1678 3084 1418 2786 
Q 1159 2488 1159 1978 
L 1159 0 
L 581 0 
L 581 3500 
L 1159 3500 
L 1159 2956 
Q 1356 3278 1631 3431 
Q 1906 3584 2284 3584 
Q 2666 3584 2933 3390 
Q 3200 3197 3328 2828 
z
" transform="scale(0.015625)"/>
      </defs>
      <use xlink:href="#DejaVuSans-56"/>
      <use xlink:href="#DejaVuSans-6f" x="60.658203"/>
      <use xlink:href="#DejaVuSans-6c" x="121.839844"/>
      <use xlink:href="#DejaVuSans-61" x="149.623047"/>
      <use xlink:href="#DejaVuSans-74" x="210.902344"/>
      <use xlink:href="#DejaVuSans-69" x="250.111328"/>
      <use xlink:href="#DejaVuSans-6c" x="277.894531"/>
      <use xlink:href="#DejaVuSans-69" x="305.677734"/>
      <use xlink:href="#DejaVuSans-74" x="333.460938"/>
      <use xlink:href="#DejaVuSans-79" x="372.669922"/>
      <use xlink:href="#DejaVuSans-20" x="431.849609"/>
      <use xlink:href="#DejaVuSans-61" x="463.636719"/>
      <use xlink:href="#DejaVuSans-6e" x="524.916016"/>
      <use xlink:href="#DejaVuSans-64" x="588.294922"/>
      <use xlink:href="#DejaVuSans-20" x="651.771484"/>
      <use xlink:href="#DejaVuSans-48" x="683.558594"/>
      <use xlink:href="#DejaVuSans-75" x="758.753906"/>
      <use xlink:href="#DejaVuSans-72" x="822.132812"/>
      <use xlink:href="#DejaVuSans-73" x="863.246094"/>
      <use xlink:href="#DejaVuSans-74" x="915.345703"/>
      <use xlink:href="#DejaVuSans-2d" x="954.554688"/>
      <use xlink:href="#DejaVuSans-65" x="990.638672"/>
      <use xlink:href="#DejaVuSans-73" x="1052.162109"/>
      <use xlink:href="#DejaVuSans-74" x="1104.261719"/>
      <use xlink:href="#DejaVuSans-69" x="1143.470703"/>
      <use xlink:href="#DejaVuSans-6d" x="1171.253906"/>
      <use xlink:href="#DejaVuSans-61" x="1268.666016"/>
      <use xlink:href="#DejaVuSans-74" x="1329.945312"/>
      <use xlink:href="#DejaVuSans-65" x="1369.154297"/>
     </g>
    </g>
   </g>
   <g id="patch_3">
    <path d="M 72.9 302.778 
L 72.9 40.824 
" style="fill: none; stroke: #000000; stroke-width: 0.8; stroke-linejoin: miter; stroke-linecap: square"/>
   </g>
   <g id="patch_4">
    <path d="M 524.88 302.778 
L 524.88 40.824 
" style="fill: none; stroke: #e6e6e6; stroke-width: 0.8; stroke-linejoin: miter; stroke-linecap: square"/>
   </g>
   <g id="patch_5">
    <path d="M 72.9 302.778 
L 524.88 302.778 
" style="fill: none; stroke: #000000; stroke-width: 0.8; stroke-linejoin: miter; stroke-linecap: square"/>
   </g>
   <g id="patch_6">
    <path d="M 72.9 40.824 
L 524.88 40.824 
" style="fill: none; stroke: #e6e6e6; stroke-width: 0.8; stroke-linejoin: miter; stroke-linecap: square"/>
   </g>
   <g id="line2d_33">
    <path d="M 93.444545 208.005581 
L 93.776024 208.081339 
L 94.107502 208.847854 
L 94.43898 194.07783 
L 94.770458 193.390056 
L 95.101936 204.49453 
L 95.433415 208.059205 
L 95.764893 203.87513 
L 96.096371 190.280584 
L 96.475203 197.275675 
L 96.806682 189.892056 
L 97.13816 190.479926 
L 97.469638 204.063064 
L 97.84847 193.535768 
L 98.227302 163.539007 
L 98.558781 193.290122 
L 98.937613 212.231565 
L 99.269091 210.893564 
L 99.600569 205.836837 
L 99.932047 214.400692 
L 100.263526 200.267447 
L 100.737066 209.340611 
L 101.068544 200.444736 
L 101.400022 195.172136 
L 101.731501 197.825575 
L 102.394457 196.124405 
L 102.725935 183.546225 
L 103.104767 193.303396 
L 103.436246 182.685169 
L 103.767724 209.48669 
L 104.099202 205.210497 
L 104.43068 216.468687 
L 104.762158 209.074703 
L 105.140991 205.256347 
L 105.472469 211.750281 
L 105.803947 210.819161 
L 106.135425 206.325667 
L 106.466903 222.702961 
L 106.845736 206.544919 
L 107.177214 198.382659 
L 107.84017 214.675354 
L 108.171648 217.685369 
L 108.834605 211.846157 
L 109.166083 204.135685 
L 109.497561 202.798591 
L 109.876393 212.317394 
L 110.444642 208.113844 
L 110.77612 187.137492 
L 111.107598 203.273567 
L 111.439076 209.744346 
L 111.770555 193.20533 
L 112.102033 219.516964 
L 112.433511 201.536986 
L 112.764989 214.301233 
L 113.096467 215.317269 
L 113.427946 209.043533 
L 113.806778 208.821004 
L 114.138256 205.950339 
L 114.469734 212.175252 
L 114.801213 209.714114 
L 115.180045 224.349433 
L 115.653585 210.747526 
L 115.985063 217.973191 
L 116.363895 209.183571 
L 116.695374 213.153552 
L 117.026852 215.250609 
L 117.35833 212.856518 
L 117.689808 212.643884 
L 118.021286 205.983959 
L 118.352765 205.298577 
L 118.684243 215.613268 
L 119.015721 216.528814 
L 119.347199 208.632718 
L 119.726032 209.19269 
L 120.05751 214.827226 
L 120.388988 210.305564 
L 120.720466 219.969935 
L 121.051944 210.649827 
L 121.383423 188.03684 
L 121.714901 196.90829 
L 122.046379 216.176641 
L 122.377857 213.268062 
L 122.709335 211.583583 
L 123.040814 213.659144 
L 123.372292 201.87646 
L 123.70377 213.557315 
L 124.035248 201.727655 
L 124.366726 196.282648 
L 124.698205 212.794995 
L 125.029683 199.70043 
L 125.361161 197.852773 
L 126.024117 201.824619 
L 126.355596 217.127711 
L 126.687074 209.8753 
L 127.018552 213.772019 
L 127.35003 211.081503 
L 127.681508 218.19292 
L 128.012987 208.112533 
L 128.344465 202.060891 
L 128.675943 219.440187 
L 129.007421 202.370778 
L 129.338899 217.893606 
L 129.670378 209.130476 
L 130.001856 219.122272 
L 130.333334 208.630224 
L 130.664812 208.591713 
L 130.99629 207.237351 
L 131.327769 215.896773 
L 131.659247 208.70199 
L 131.990725 209.845971 
L 132.369557 218.582116 
L 132.748389 211.819529 
L 133.079868 211.262962 
L 133.411346 214.590813 
L 134.074302 215.381262 
L 134.40578 220.637082 
L 134.737259 217.365493 
L 135.068737 217.273857 
L 135.400215 212.598842 
L 135.731693 220.987062 
L 136.063171 206.564607 
L 136.39465 215.410718 
L 137.057606 209.639286 
L 137.389084 217.773635 
L 137.862625 218.796855 
L 138.194103 215.282518 
L 138.525581 219.016582 
L 138.857059 214.566958 
L 139.188537 214.687021 
L 139.520016 222.652253 
L 139.851494 215.68748 
L 140.182972 216.217617 
L 140.51445 214.08299 
L 141.177407 217.332068 
L 141.556239 212.086434 
L 141.887717 218.305217 
L 142.219195 214.448909 
L 142.550673 217.20695 
L 142.882152 213.905959 
L 143.21363 220.411801 
L 143.545108 219.822631 
L 144.208064 225.526295 
L 144.871021 213.540136 
L 145.202499 214.130174 
L 145.533977 212.409303 
L 145.865455 219.468198 
L 146.196934 222.447133 
L 146.528412 216.610814 
L 146.85989 213.074317 
L 147.191368 221.102873 
L 147.522847 220.89999 
L 147.854325 214.355494 
L 148.185803 217.484551 
L 148.517281 222.124858 
L 148.848759 216.849547 
L 149.180238 218.366029 
L 149.511716 221.103325 
L 149.890548 221.054947 
L 150.26938 221.631179 
L 150.600858 219.868987 
L 150.932337 222.101556 
L 151.263815 216.513485 
L 151.595293 221.769883 
L 151.926771 219.879982 
L 152.258249 219.837588 
L 152.589728 222.289988 
L 152.921206 219.757477 
L 153.252684 219.969085 
L 153.91564 213.595023 
L 154.247119 220.420408 
L 154.578597 217.123583 
L 154.957429 219.223982 
L 155.288907 214.852608 
L 155.620385 220.981464 
L 156.283342 220.235949 
L 156.61482 221.905988 
L 156.946298 221.852089 
L 157.277776 220.583165 
L 157.609255 217.471878 
L 158.272211 221.844799 
L 158.603689 218.804842 
L 158.935167 219.177458 
L 159.266646 223.339897 
L 159.598124 211.888462 
L 159.929602 221.116409 
L 160.26108 217.541861 
L 160.592558 219.943038 
L 161.255515 222.489703 
L 161.586993 217.250768 
L 161.918471 221.93412 
L 162.581428 220.124355 
L 162.912906 217.060518 
L 163.244384 218.949231 
L 163.575862 223.884133 
L 163.907341 215.930872 
L 164.238819 218.945195 
L 164.570297 224.35584 
L 165.233253 219.341171 
L 165.564732 221.556667 
L 165.89621 220.739141 
L 166.227688 220.667994 
L 166.559166 222.602397 
L 167.032706 224.078444 
L 167.364185 222.58263 
L 167.695663 220.105677 
L 168.405973 220.720318 
L 168.737451 223.977148 
L 169.06893 220.719172 
L 169.400408 218.823957 
L 169.77924 222.78644 
L 170.110718 219.869387 
L 170.442197 220.244179 
L 171.105153 223.229657 
L 171.483985 221.385705 
L 171.815463 222.222501 
L 172.146942 219.93706 
L 172.47842 215.722716 
L 172.809898 221.325101 
L 173.141376 224.131069 
L 173.472854 223.496399 
L 173.804333 224.717406 
L 174.135811 224.372597 
L 174.514643 220.330103 
L 174.846121 223.085104 
L 175.177599 222.913114 
L 175.509078 222.093915 
L 175.840556 223.199285 
L 176.314096 220.442004 
L 176.645574 223.262467 
L 176.977053 222.688333 
L 177.308531 222.395881 
L 177.640009 221.65952 
L 177.971487 222.470058 
L 178.302965 222.318458 
L 178.634444 222.941076 
L 179.013276 221.349188 
L 179.344754 224.483263 
L 179.676232 221.766243 
L 180.00771 222.432412 
L 180.339189 220.98717 
L 180.670667 223.237542 
L 181.333623 217.877455 
L 181.665101 217.849817 
L 181.99658 222.115404 
L 182.328058 222.850955 
L 182.659536 223.01093 
L 182.991014 223.321311 
L 183.322492 220.532754 
L 183.653971 223.047156 
L 183.985449 223.356506 
L 184.364281 221.871765 
L 184.743113 218.726528 
L 185.074591 222.173175 
L 185.40607 221.368842 
L 185.737548 216.514998 
L 186.069026 218.311425 
L 186.400504 221.018516 
L 186.731982 221.769399 
L 187.063461 220.682969 
L 187.394939 220.138322 
L 187.726417 223.034869 
L 188.057895 220.281492 
L 188.389373 221.013009 
L 188.720852 221.152907 
L 189.05233 223.706438 
L 189.383808 223.051047 
L 189.76264 218.826949 
L 190.094119 221.79259 
L 190.425597 221.31655 
L 190.757075 220.175535 
L 191.088553 221.552721 
L 191.75151 215.439667 
L 192.082988 221.935298 
L 192.414466 214.30395 
L 192.745944 220.438075 
L 193.077422 214.705034 
L 193.408901 219.550742 
L 193.740379 220.288159 
L 194.071857 221.601399 
L 194.403335 219.059875 
L 194.734813 219.402678 
L 195.066292 223.398543 
L 195.39777 218.457557 
L 195.729248 223.310888 
L 196.060726 224.723471 
L 196.392204 220.134226 
L 196.723683 222.056422 
L 197.055161 220.337005 
L 197.386639 222.051078 
L 197.718117 217.546082 
L 198.049595 222.498842 
L 198.381074 222.428073 
L 198.712552 220.186898 
L 199.04403 221.995071 
L 199.375508 221.677961 
L 199.706986 222.857744 
L 200.038465 224.872397 
L 200.369943 218.758593 
L 200.701421 220.040928 
L 201.032899 222.178732 
L 201.364377 223.548616 
L 201.932626 224.568651 
L 202.264104 219.699016 
L 202.642936 219.009806 
L 202.974414 219.245007 
L 203.305893 223.086311 
L 203.637371 223.219317 
L 203.968849 218.766646 
L 204.347681 223.352405 
L 204.679159 211.902669 
L 205.010638 219.277102 
L 205.342116 218.377213 
L 205.673594 219.069531 
L 206.005072 222.727398 
L 206.478613 222.408533 
L 206.810091 221.72652 
L 207.141569 224.247069 
L 207.473047 219.809258 
L 207.804525 224.619801 
L 208.136004 219.841111 
L 208.467482 221.38975 
L 208.846314 220.486083 
L 209.177792 224.154266 
L 209.50927 218.758558 
L 209.840749 223.513894 
L 210.172227 221.305167 
L 210.503705 222.321756 
L 210.882537 222.019533 
L 211.214015 223.175613 
L 211.545494 222.249794 
L 211.876972 215.162742 
L 212.20845 217.210219 
L 212.871406 218.574386 
L 213.202885 213.282101 
L 213.581717 219.944452 
L 213.913195 219.485044 
L 214.244673 217.416785 
L 214.576151 223.02288 
L 214.90763 222.334304 
L 215.239108 217.991062 
L 215.570586 220.435285 
L 215.902064 215.278146 
L 216.233542 218.726591 
L 216.896499 208.245635 
L 217.275331 217.680067 
L 217.606809 214.566854 
L 217.938288 218.673401 
L 218.269766 218.436281 
L 218.601244 216.294415 
L 219.074784 216.918806 
L 219.453616 214.152631 
L 219.785095 214.718502 
L 220.163927 218.764364 
L 220.826883 213.270092 
L 221.158361 221.316863 
L 221.868672 222.744688 
L 222.531628 210.540581 
L 222.863107 207.777339 
L 223.241939 208.260368 
L 223.573417 216.39334 
L 223.904895 216.834337 
L 224.236373 215.267865 
L 224.567852 221.75855 
L 224.89933 216.980286 
L 225.230808 219.428246 
L 225.562286 219.322389 
L 225.893764 220.603962 
L 226.367305 219.409906 
L 226.698783 213.349226 
L 227.030261 215.948226 
L 227.361739 216.943473 
L 227.693217 215.230194 
L 228.07205 215.419142 
L 228.403528 219.637244 
L 228.735006 218.113375 
L 229.066484 215.935483 
L 229.397963 214.790083 
L 229.729441 219.763068 
L 230.060919 219.841883 
L 230.392397 219.528388 
L 230.771229 220.326562 
L 231.102708 216.740802 
L 232.097142 188.680385 
L 232.42862 214.882737 
L 232.760099 166.064885 
L 233.091577 191.940513 
L 233.423055 182.662961 
L 233.754533 201.904478 
L 234.086011 202.182836 
L 234.41749 189.095834 
L 234.748968 195.814093 
L 235.1278 196.708981 
L 235.459278 210.329833 
L 235.790756 211.443192 
L 236.169589 220.772304 
L 236.643129 214.980341 
L 236.974607 216.325617 
L 237.353439 209.063605 
L 237.684918 216.291237 
L 238.016396 209.477351 
L 238.347874 209.823801 
L 238.726706 213.0814 
L 239.058184 213.207293 
L 239.389663 212.444911 
L 239.721141 204.61244 
L 240.052619 213.113831 
L 240.384097 215.258176 
L 240.715575 211.151173 
L 241.047054 210.859762 
L 241.425886 214.750851 
L 241.757364 215.224906 
L 242.088842 217.831763 
L 242.42032 216.312551 
L 242.751799 216.662643 
L 243.083277 216.263854 
L 243.462109 215.332416 
L 244.125066 223.602078 
L 244.788022 213.835431 
L 245.261562 219.571822 
L 245.59304 216.503343 
L 245.924519 218.419185 
L 246.255997 222.181845 
L 246.587475 221.83589 
L 246.918953 220.764073 
L 247.250431 214.819244 
L 247.58191 222.713439 
L 247.913388 222.970901 
L 248.29222 216.862457 
L 248.623698 223.780509 
L 248.955176 222.460063 
L 249.618133 215.560089 
L 249.949611 224.904457 
L 250.281089 220.669919 
L 250.612567 221.366745 
L 250.944046 214.428799 
L 251.275524 221.135964 
L 251.607002 222.692596 
L 251.93848 218.786573 
L 252.317313 218.269768 
L 252.648791 219.867558 
L 252.980269 222.376086 
L 253.311747 220.563385 
L 253.690579 222.104009 
L 254.069412 221.568597 
L 254.40089 220.382744 
L 254.87443 216.639745 
L 255.205908 217.093705 
L 255.537387 215.903483 
L 255.916219 221.269285 
L 256.247697 221.915145 
L 256.579175 223.194744 
L 256.910653 222.947169 
L 257.905088 224.05963 
L 258.28392 222.442815 
L 258.615398 223.487883 
L 258.946877 221.826134 
L 259.278355 219.510421 
L 259.941311 204.064958 
L 260.272789 221.310869 
L 260.604268 214.43311 
L 260.9831 212.204731 
L 261.314578 212.305337 
L 261.646056 220.171427 
L 261.977534 222.600024 
L 262.309013 216.097684 
L 262.687845 217.841108 
L 263.019323 216.765645 
L 263.350801 217.303898 
L 263.682279 222.135945 
L 264.013758 221.341874 
L 264.345236 217.45782 
L 264.676714 221.755967 
L 265.008192 217.217253 
L 265.33967 215.934698 
L 266.144689 224.313955 
L 266.476167 220.342316 
L 266.807645 223.657292 
L 267.139124 219.857497 
L 267.470602 222.442235 
L 267.80208 220.239093 
L 268.133558 225.041075 
L 268.796515 221.743859 
L 269.127993 217.747685 
L 269.506825 217.368715 
L 270.169781 224.209046 
L 270.50126 222.74378 
L 270.880092 225.543084 
L 271.21157 220.704338 
L 271.543048 224.203654 
L 271.921881 220.461547 
L 272.253359 222.0105 
L 272.584837 216.282179 
L 272.916315 224.137717 
L 273.247793 224.64022 
L 273.626626 214.921656 
L 274.289582 219.324643 
L 274.62106 218.115972 
L 274.952538 221.818278 
L 275.284017 221.520576 
L 275.615495 223.870765 
L 275.946973 222.778541 
L 276.420513 219.717484 
L 276.751991 223.245224 
L 277.08347 223.982249 
L 277.414948 218.840238 
L 277.746426 220.185762 
L 278.125258 221.137779 
L 278.456737 219.396415 
L 278.788215 219.407399 
L 279.119693 215.775885 
L 279.451171 217.394521 
L 279.830003 223.003589 
L 280.161482 218.04644 
L 280.49296 218.829464 
L 280.824438 216.344216 
L 281.155916 218.203438 
L 281.487394 194.677985 
L 281.818873 214.919978 
L 282.150351 205.931747 
L 282.481829 215.687002 
L 282.860661 214.323401 
L 283.192139 215.901241 
L 283.523618 215.885471 
L 283.855096 216.831508 
L 284.186574 207.639443 
L 284.518052 217.397622 
L 284.84953 213.840497 
L 285.181009 213.530918 
L 285.512487 215.068408 
L 285.843965 214.320143 
L 286.175443 214.979015 
L 286.554275 220.202026 
L 286.885754 213.371734 
L 287.217232 218.524609 
L 287.54871 220.305368 
L 287.880188 215.880042 
L 288.401083 219.374843 
L 288.732561 224.138745 
L 289.111393 222.838629 
L 289.442871 224.135478 
L 289.774349 223.597675 
L 290.105828 223.304408 
L 290.816138 221.140637 
L 291.147616 223.118007 
L 291.479094 219.9867 
L 291.810573 222.247501 
L 292.142051 225.340818 
L 292.473529 220.708361 
L 292.805007 220.1126 
L 293.18384 218.611508 
L 293.515318 218.955975 
L 293.846796 217.002506 
L 294.178274 219.064096 
L 294.509752 224.252185 
L 294.841231 221.984261 
L 295.172709 216.855789 
L 295.646249 215.810463 
L 295.977727 215.634218 
L 296.309205 220.048803 
L 296.640684 215.796436 
L 296.972162 215.904074 
L 297.350994 220.334707 
L 297.682472 219.88032 
L 298.01395 217.108267 
L 298.345429 218.259473 
L 298.676907 220.087864 
L 299.008385 225.174199 
L 299.339863 223.82527 
L 299.671341 223.380312 
L 300.050174 222.625892 
L 300.381652 218.120773 
L 300.71313 222.71976 
L 301.044608 220.907347 
L 301.376087 221.08071 
L 301.707565 221.537376 
L 302.039043 222.225789 
L 302.370521 218.099636 
L 302.796707 218.312762 
L 303.128186 216.947899 
L 303.459664 222.227587 
L 303.933204 220.945133 
L 304.264682 223.267972 
L 304.59616 221.718919 
L 304.927639 218.76256 
L 305.259117 219.464874 
L 305.685303 212.77807 
L 306.016781 224.226085 
L 306.34826 223.047941 
L 306.727092 220.777192 
L 307.05857 224.258803 
L 307.390048 218.32502 
L 307.721526 222.827458 
L 308.100359 219.79715 
L 308.431837 220.679779 
L 308.763315 222.330598 
L 309.094793 225.042206 
L 309.426271 222.340603 
L 309.899812 222.915752 
L 310.23129 221.126356 
L 310.562768 216.380762 
L 310.894246 216.038446 
L 311.225725 222.360298 
L 311.557203 221.57491 
L 311.888681 224.4678 
L 312.220159 224.054256 
L 312.598991 223.968937 
L 312.93047 222.836359 
L 313.593426 218.392982 
L 313.924904 217.706417 
L 314.256382 224.494127 
L 314.635215 224.873285 
L 314.966693 221.26182 
L 315.298171 221.877061 
L 315.629649 223.91402 
L 315.961127 222.388167 
L 316.292606 223.629342 
L 316.955562 218.349518 
L 317.334394 221.883007 
L 317.665872 223.019146 
L 317.997351 222.706983 
L 318.328829 221.475602 
L 318.660307 221.170312 
L 318.991785 216.644978 
L 319.323263 223.045545 
L 319.654742 222.018642 
L 319.98622 223.978617 
L 320.317698 221.29659 
L 320.649176 222.554549 
L 320.980654 221.781376 
L 321.359487 225.685926 
L 322.022443 222.342228 
L 322.827462 221.121733 
L 323.206294 221.618762 
L 323.537772 218.427455 
L 323.916604 223.637591 
L 324.579561 217.736265 
L 324.911039 222.211151 
L 325.289871 223.348367 
L 325.621349 223.192867 
L 325.952828 221.522807 
L 326.284306 221.540334 
L 326.615784 221.13024 
L 326.947262 217.106137 
L 327.27874 220.491447 
L 327.610219 212.357062 
L 327.941697 221.649299 
L 328.320529 218.889202 
L 328.652007 224.537919 
L 328.983485 222.684075 
L 329.314964 220.007613 
L 329.646442 222.654213 
L 330.119982 222.500847 
L 330.45146 223.992059 
L 330.782938 224.156342 
L 331.114417 224.150897 
L 331.445895 225.167255 
L 331.824727 220.890708 
L 332.156205 223.588477 
L 332.487684 220.204931 
L 332.819162 223.961413 
L 333.15064 219.30053 
L 333.482118 223.587006 
L 334.145075 226.383634 
L 334.855385 223.208995 
L 335.186863 222.245667 
L 335.518341 219.111058 
L 335.84982 218.387192 
L 336.512776 218.629076 
L 336.844254 217.258619 
L 337.175732 220.983262 
L 337.507211 221.958735 
L 337.838689 224.492448 
L 338.170167 223.889556 
L 338.501645 224.822443 
L 338.880477 222.014985 
L 339.211956 221.462967 
L 339.543434 213.88233 
L 339.922266 223.550094 
L 340.395806 223.068234 
L 340.727285 216.854309 
L 341.106117 220.024385 
L 341.437595 216.745067 
L 341.769073 218.064525 
L 342.479384 223.702353 
L 342.810862 224.100555 
L 343.473818 220.846418 
L 343.805296 222.041151 
L 344.136775 218.71009 
L 344.468253 221.331966 
L 345.178563 224.246691 
L 345.510041 219.365286 
L 345.84152 220.009431 
L 346.172998 218.868329 
L 346.504476 221.039045 
L 346.835954 224.731293 
L 347.214787 220.272421 
L 347.546265 223.235086 
L 347.877743 220.386144 
L 348.209221 220.967596 
L 348.540699 224.168338 
L 349.01424 218.621878 
L 349.345718 216.951443 
L 349.677196 223.837101 
L 350.008674 222.622886 
L 350.340152 223.446119 
L 350.671631 219.561875 
L 351.003109 221.311636 
L 351.334587 213.913466 
L 351.666065 211.048034 
L 352.044897 211.467862 
L 352.376376 220.334997 
L 353.039332 219.171489 
L 353.37081 219.671632 
L 353.702288 222.641232 
L 354.365245 216.162954 
L 354.696723 222.153746 
L 355.028201 223.458925 
L 355.35968 218.66651 
L 356.06999 222.756208 
L 356.401468 216.006413 
L 356.732946 217.122317 
L 357.064425 220.166809 
L 357.822089 217.854642 
L 358.153567 211.140361 
L 358.627108 216.116543 
L 358.958586 214.501161 
L 359.290064 218.317695 
L 359.668896 219.550703 
L 360.000374 215.879561 
L 360.331853 216.326349 
L 360.663331 224.653839 
L 360.994809 221.902156 
L 361.326287 224.722746 
L 361.705119 220.52771 
L 362.036598 219.840967 
L 362.368076 219.442943 
L 362.699554 224.854492 
L 363.031032 224.008201 
L 363.36251 221.220892 
L 363.693989 220.960423 
L 364.025467 220.5209 
L 364.356945 219.866694 
L 364.735777 225.357349 
L 365.067255 224.353802 
L 365.730212 221.099034 
L 366.06169 206.645327 
L 366.440522 221.414647 
L 366.772 223.58379 
L 367.103479 223.309964 
L 367.434957 224.057583 
L 367.766435 223.025275 
L 368.097913 224.981756 
L 368.429391 224.432053 
L 368.76087 224.482145 
L 369.092348 224.803019 
L 369.565888 215.003473 
L 369.897366 219.869858 
L 370.228845 221.020322 
L 370.560323 222.880694 
L 370.939155 224.201513 
L 371.270633 224.28145 
L 371.602111 222.649218 
L 371.93359 223.868498 
L 372.265068 217.075086 
L 372.6439 218.252368 
L 372.975378 221.843151 
L 373.354211 220.419707 
L 373.685689 223.422301 
L 374.017167 221.508708 
L 374.348645 224.940235 
L 374.727477 222.432765 
L 375.201018 225.186706 
L 375.57985 224.01275 
L 375.911328 224.870801 
L 376.242806 222.337657 
L 376.905763 225.656408 
L 377.284595 224.483636 
L 377.616073 222.969027 
L 377.947551 224.825937 
L 378.27903 224.446327 
L 378.610508 221.488086 
L 378.941986 224.31771 
L 379.273464 224.8691 
L 379.604942 224.723463 
L 380.315253 222.508984 
L 380.646731 223.161144 
L 380.978209 225.155617 
L 381.309687 217.294411 
L 381.641166 224.458126 
L 382.019998 223.545927 
L 382.351476 219.018492 
L 382.682954 223.205429 
L 383.014432 221.531527 
L 383.345911 217.101562 
L 383.819451 219.177962 
L 384.150929 223.893399 
L 384.482407 224.72396 
L 384.813886 224.130274 
L 385.145364 224.228824 
L 385.476842 217.489814 
L 385.80832 220.161399 
L 386.139798 221.393889 
L 386.518631 221.367673 
L 386.850109 221.792549 
L 387.181587 224.348844 
L 387.513065 223.441421 
L 387.844543 223.858301 
L 388.176022 223.596787 
L 388.5075 225.128817 
L 388.838978 223.793427 
L 389.170456 220.477663 
L 389.501934 223.800686 
L 389.833413 224.458374 
L 390.164891 221.388927 
L 390.543723 220.645987 
L 390.875201 220.895176 
L 391.206679 223.903735 
L 391.538158 221.303987 
L 391.91699 225.612997 
L 392.295822 220.89121 
L 392.6273 223.882817 
L 393.432319 221.166176 
L 394.095275 207.358148 
L 394.474107 219.361174 
L 394.805586 218.402263 
L 395.137064 219.388548 
L 395.468542 219.572261 
L 395.80002 220.988238 
L 396.131498 208.845942 
L 396.510331 212.040089 
L 397.173287 220.836736 
L 397.504765 219.653988 
L 397.836243 215.553593 
L 398.167722 222.258188 
L 398.4992 220.920644 
L 398.830678 222.857126 
L 399.20951 224.404164 
L 399.540989 221.036937 
L 399.872467 223.461783 
L 400.203945 221.865418 
L 400.535423 218.118827 
L 400.914255 218.820926 
L 401.245734 220.375356 
L 401.577212 220.945828 
L 401.90869 219.337974 
L 402.240168 219.58614 
L 402.571646 223.381354 
L 402.903125 222.395611 
L 403.234603 223.694898 
L 403.566081 222.512625 
L 404.039621 222.116528 
L 404.371099 220.030264 
L 404.702578 223.196767 
L 405.034056 224.045606 
L 405.365534 221.137412 
L 405.697012 208.871531 
L 406.02849 211.067301 
L 406.359969 211.98073 
L 406.691447 216.501475 
L 407.022925 211.366603 
L 407.733236 215.827886 
L 408.064714 209.810929 
L 408.775024 219.365449 
L 409.153856 196.697157 
L 409.532689 208.149055 
L 409.864167 223.341127 
L 410.195645 218.79269 
L 410.669185 216.671184 
L 411.000664 216.262286 
L 411.332142 221.050657 
L 412.042452 223.127214 
L 412.37393 223.91709 
L 412.705409 218.358915 
L 413.036887 222.463807 
L 413.368365 217.070753 
L 413.699843 221.993604 
L 414.3628 223.960753 
L 414.741632 223.221174 
L 415.07311 223.491847 
L 415.736066 211.624616 
L 416.067545 218.630735 
L 416.446377 220.756237 
L 416.777855 213.762177 
L 417.109333 220.044138 
L 417.440811 221.477527 
L 417.77229 220.425061 
L 418.151122 222.27346 
L 418.4826 222.152203 
L 418.814078 221.642081 
L 419.145556 222.09324 
L 419.477035 223.381551 
L 419.808513 208.961482 
L 420.139991 211.223867 
L 420.471469 215.340545 
L 420.802947 221.087924 
L 421.276488 218.973272 
L 421.607966 222.602088 
L 421.939444 224.073332 
L 422.270922 218.817239 
L 422.602401 216.51139 
L 423.265357 220.811063 
L 423.596835 220.445395 
L 423.928313 222.437835 
L 424.259792 225.256047 
L 424.59127 224.644832 
L 424.922748 222.248086 
L 425.30158 221.501657 
L 425.633058 222.616529 
L 425.964537 224.176676 
L 426.296015 224.558242 
L 426.722201 220.825485 
L 427.053679 221.557369 
L 427.385158 221.916957 
L 427.76399 222.013781 
L 428.095468 213.998256 
L 428.758424 222.402781 
L 429.231965 213.904142 
L 429.563443 202.795663 
L 429.894921 201.817677 
L 430.226399 165.106273 
L 430.557877 198.688921 
L 430.889356 195.416253 
L 431.220834 198.213591 
L 431.599666 214.790223 
L 431.931144 214.119491 
L 432.262623 216.28347 
L 432.594101 210.086342 
L 432.925579 216.445227 
L 433.257057 217.753603 
L 433.635889 218.567 
L 433.967368 224.555139 
L 434.298846 220.36255 
L 434.630324 208.709719 
L 434.961802 218.80878 
L 435.29328 216.057506 
L 435.672113 219.463331 
L 436.003591 217.086039 
L 436.335069 212.702579 
L 436.998025 222.353269 
L 437.329504 215.993106 
L 437.660982 220.041647 
L 437.99246 220.469742 
L 438.323938 208.33211 
L 438.70277 208.692128 
L 439.034249 214.922934 
L 439.365727 212.407329 
L 439.697205 212.826724 
L 440.028683 216.256202 
L 440.360161 215.036182 
L 440.69164 222.44571 
L 441.023118 210.305862 
L 441.354596 214.482126 
L 441.686074 214.194878 
L 442.017552 222.020207 
L 442.491093 222.776588 
L 442.822571 222.834568 
L 443.154049 218.948713 
L 443.485527 221.529977 
L 443.86436 223.026381 
L 444.57467 216.607998 
L 444.953502 217.755915 
L 445.28498 216.622438 
L 445.616459 214.42224 
L 445.947937 223.940873 
L 446.326769 223.646328 
L 446.658247 213.198911 
L 446.989726 209.963581 
L 447.321204 208.402857 
L 447.652682 215.327712 
L 447.98416 216.44889 
L 448.4577 218.697404 
L 448.789179 223.234606 
L 449.120657 218.184883 
L 449.452135 219.31317 
L 449.783613 223.625354 
L 450.115091 216.186351 
L 450.44657 214.672735 
L 450.778048 218.285808 
L 451.15688 224.812319 
L 451.488358 219.907087 
L 451.819836 221.892643 
L 452.151315 221.491083 
L 452.482793 223.107846 
L 452.861625 223.323422 
L 453.193103 223.374959 
L 453.524581 219.955607 
L 453.85606 220.8878 
L 454.187538 223.773776 
L 454.519016 223.354849 
L 454.850494 222.106779 
L 455.181973 222.874875 
L 455.513451 221.780934 
L 455.892283 224.535107 
L 456.223761 222.86923 
L 456.555239 215.388341 
L 456.886718 218.620812 
L 457.218196 217.682318 
L 457.549674 219.418354 
L 457.881152 223.734596 
L 458.21263 221.206744 
L 458.544109 223.876642 
L 458.875587 221.908474 
L 459.207065 223.122239 
L 459.585897 219.596294 
L 459.917375 214.857668 
L 460.248854 215.915642 
L 460.580332 214.425555 
L 461.38535 222.186488 
L 462.095661 214.016963 
L 462.427139 217.704282 
L 462.758617 213.506311 
L 463.090095 210.9868 
L 463.421574 209.670782 
L 463.800406 218.415922 
L 464.131884 214.380391 
L 464.463362 208.752017 
L 464.79484 207.665571 
L 465.126319 216.844537 
L 465.457797 217.409884 
L 465.789275 214.59881 
L 466.120753 215.619303 
L 466.499585 214.018564 
L 467.162542 201.235505 
L 467.49402 212.171566 
L 467.825498 203.628129 
L 468.156976 213.462647 
L 468.535809 210.010311 
L 468.867287 213.519066 
L 469.198765 206.032846 
L 469.672305 212.591753 
L 470.714094 216.117285 
L 471.37705 214.664755 
L 471.708529 216.496295 
L 472.040007 217.148963 
L 472.371485 218.328932 
L 472.702963 211.995046 
L 473.081795 217.621877 
L 473.413274 205.559863 
L 473.744752 216.874725 
L 474.07623 217.127909 
L 474.407708 209.52653 
L 474.739186 216.730051 
L 475.070665 209.795381 
L 475.402143 213.50608 
L 475.733621 210.302431 
L 476.065099 214.214073 
L 476.396577 203.740806 
L 476.728056 220.082793 
L 477.106888 210.892796 
L 477.438366 218.053714 
L 477.769844 213.802804 
L 478.101323 216.899407 
L 478.480155 216.223312 
L 478.953695 215.69479 
L 479.332527 222.679805 
L 479.664005 213.991295 
L 479.995484 215.609397 
L 480.326962 211.834184 
L 480.65844 217.495516 
L 481.037272 217.704454 
L 481.368751 219.133891 
L 481.700229 218.559735 
L 482.031707 215.372412 
L 482.363185 216.719167 
L 482.694663 219.338934 
L 483.026142 219.28918 
L 483.404974 218.764195 
L 483.736452 224.173736 
L 484.06793 215.602097 
L 484.399408 222.502471 
L 484.730887 219.708756 
L 485.062365 220.795911 
L 485.393843 217.356684 
L 485.772675 218.817068 
L 486.104153 219.357692 
L 486.435632 223.886986 
L 486.909172 219.548286 
L 487.24065 220.662571 
L 487.619482 223.398444 
L 487.950961 222.141521 
L 488.282439 218.851616 
L 488.613917 220.584837 
L 488.945395 219.191866 
L 489.276873 220.073484 
L 489.608352 219.136081 
L 489.93983 215.337119 
L 490.318662 223.003702 
L 490.65014 220.542313 
L 490.981618 221.236564 
L 491.313097 219.394469 
L 491.644575 218.186183 
L 491.976053 221.629423 
L 492.307531 219.814374 
L 492.639009 217.319884 
L 492.970488 217.159102 
L 493.301966 222.240436 
L 493.633444 217.043158 
L 493.964922 222.210258 
L 494.2964 225.287967 
L 494.627879 223.058047 
L 494.959357 223.906262 
L 495.290835 216.952328 
L 495.669667 223.29988 
L 496.048499 221.758469 
L 496.853518 219.614782 
L 497.184996 222.572807 
L 497.516474 216.803703 
L 497.847953 222.163794 
L 498.558263 217.418807 
L 498.889741 217.939432 
L 499.221219 218.057217 
L 499.552698 218.346181 
L 499.884176 222.441953 
L 500.263008 223.30428 
L 500.594486 219.178458 
L 500.925964 217.201297 
L 501.257443 217.061462 
L 501.588921 217.949362 
L 502.251877 222.833058 
L 502.583355 224.212554 
L 502.962188 221.082567 
L 503.293666 220.86434 
L 503.625144 223.131586 
L 504.003976 221.734091 
L 504.335455 222.56705 
L 504.335455 222.56705 
" clip-path="url(#pf59e8a700f)" style="fill: none; stroke: #808080; stroke-width: 1.5; stroke-linecap: square"/>
   </g>
   <g id="line2d_34">
    <path d="M 110.77612 95.767919 
L 119.347199 123.696101 
L 127.681508 91.039235 
L 136.063171 132.703532 
L 144.539543 152.313925 
L 152.921206 115.666733 
L 161.255515 180.073799 
L 169.77924 160.546504 
L 178.302965 178.950917 
L 186.731982 147.025856 
L 195.066292 142.252211 
L 203.637371 138.073024 
L 212.20845 151.395706 
L 220.826883 90.226778 
L 229.397963 92.520506 
L 238.016396 100.65804 
L 246.587475 91.694844 
L 255.205908 118.423254 
L 263.682279 133.380227 
L 272.253359 92.141277 
L 280.824438 93.355734 
L 289.442871 85.110375 
L 298.01395 106.40642 
L 306.727092 139.218628 
L 315.298171 126.077706 
L 323.916604 150.92938 
L 332.487684 128.638041 
L 341.106117 146.082866 
L 349.677196 140.296168 
L 358.153567 122.48125 
L 366.772 120.909322 
L 375.57985 101.874666 
L 384.150929 128.352436 
L 392.6273 98.554797 
L 401.245734 114.442486 
L 409.864167 120.168005 
L 418.4826 81.291438 
L 427.053679 86.399109 
L 435.672113 63.160522 
L 444.243192 52.731 
L 452.861625 152.140435 
L 461.38535 124.71361 
L 470.051138 112.507968 
L 478.480155 99.574036 
L 487.24065 140.633655 
" clip-path="url(#pf59e8a700f)" style="fill: none; stroke-dasharray: 1.5,2.475; stroke-dashoffset: 0; stroke: #ff0000; stroke-width: 1.5"/>
   </g>
   <g id="line2d_35">
    <path d="M 110.77612 201.880775 
L 119.347199 236.463327 
L 127.681508 255.688868 
L 136.063171 240.284604 
L 144.539543 257.866285 
L 152.921206 201.868022 
L 161.255515 187.705483 
L 169.77924 198.651566 
L 178.302965 215.799674 
L 186.731982 207.145074 
L 195.066292 257.229271 
L 203.637371 257.25621 
L 212.20845 191.003846 
L 220.826883 188.341141 
L 229.397963 167.189171 
L 238.016396 157.195552 
L 246.587475 165.664732 
L 255.205908 146.070879 
L 263.682279 160.487867 
L 272.253359 203.118701 
L 280.824438 231.378593 
L 289.442871 195.087109 
L 298.01395 188.317544 
L 306.727092 133.813221 
L 315.298171 172.978249 
L 323.916604 180.894476 
L 332.487684 204.895359 
L 341.106117 168.97717 
L 349.677196 136.887327 
L 358.153567 131.986851 
L 366.772 143.016443 
L 375.57985 159.905611 
L 384.150929 150.899848 
L 392.6273 128.730545 
L 401.245734 137.226661 
L 409.864167 112.471722 
L 418.4826 131.815328 
L 427.053679 134.089987 
L 435.672113 117.218399 
L 444.243192 133.081882 
L 452.861625 141.731331 
L 461.38535 225.45947 
L 470.051138 274.330799 
L 478.480155 290.871 
L 487.24065 278.855748 
" clip-path="url(#pf59e8a700f)" style="fill: none; stroke-dasharray: 9.6,2.4,1.5,2.4; stroke-dashoffset: 0; stroke: #ff0000; stroke-width: 1.5"/>
   </g>
   <g id="line2d_36">
    <path d="M 110.77612 207.115661 
L 119.347199 215.647087 
L 127.681508 224.57524 
L 136.063171 225.534981 
L 144.539543 238.352319 
L 152.921206 229.92774 
L 161.255515 234.944507 
L 169.77924 236.218271 
L 178.302965 240.839866 
L 186.731982 226.523966 
L 195.066292 226.524246 
L 203.637371 227.543749 
L 212.20845 221.431752 
L 220.826883 209.107071 
L 229.397963 158.868356 
L 238.016396 160.586579 
L 246.587475 169.063236 
L 255.205908 198.660303 
L 263.682279 206.381382 
L 272.253359 200.378767 
L 280.824438 203.064372 
L 289.442871 195.178339 
L 298.01395 214.23529 
L 306.727092 216.284799 
L 315.298171 241.301578 
L 323.916604 233.290424 
L 332.487684 211.897353 
L 341.106117 212.461983 
L 349.677196 201.847304 
L 358.153567 212.719738 
L 366.772 215.414834 
L 375.57985 218.473692 
L 384.150929 226.06958 
L 392.6273 213.533748 
L 401.245734 190.302339 
L 409.864167 188.051201 
L 418.4826 176.603448 
L 427.053679 168.028415 
L 435.672113 164.962001 
L 444.243192 172.738066 
L 452.861625 220.24405 
L 461.38535 225.373268 
L 470.051138 206.08433 
L 478.480155 217.115348 
L 487.24065 224.206188 
" clip-path="url(#pf59e8a700f)" style="fill: none; stroke-dasharray: 5.55,2.4; stroke-dashoffset: 0; stroke: #ff0000; stroke-width: 1.5"/>
   </g>
   <g id="line2d_37">
    <path d="M 110.77612 208.007243 
L 119.347199 209.340234 
L 127.681508 185.221747 
L 136.063171 221.680017 
L 144.539543 221.556593 
L 152.921206 215.519927 
L 161.255515 222.471533 
L 169.77924 221.23141 
L 178.302965 218.800763 
L 186.731982 218.790805 
L 195.066292 203.423788 
L 203.637371 217.284962 
L 212.20845 209.542105 
L 220.826883 181.483129 
L 229.397963 177.595119 
L 238.016396 179.979817 
L 246.587475 181.671036 
L 255.205908 201.445883 
L 263.682279 209.995058 
L 272.253359 193.813648 
L 280.824438 205.77637 
L 289.442871 206.237362 
L 298.01395 212.098068 
L 306.727092 183.338309 
L 315.298171 203.710258 
L 323.916604 205.370516 
L 332.487684 204.111654 
L 341.106117 198.873317 
L 349.677196 201.877384 
L 358.153567 200.491236 
L 366.772 184.487485 
L 375.57985 199.796381 
L 384.150929 198.205048 
L 392.6273 193.41092 
L 401.245734 190.876716 
L 409.864167 180.666607 
L 418.4826 165.718214 
L 427.053679 163.383251 
L 435.672113 162.433461 
L 444.243192 162.41203 
L 452.861625 188.517343 
L 461.38535 203.10751 
L 470.051138 204.742405 
L 478.480155 190.191479 
L 487.24065 221.936979 
" clip-path="url(#pf59e8a700f)" style="fill: none; stroke: #ff0000; stroke-width: 1.5; stroke-linecap: square"/>
   </g>
   <g id="line2d_38">
    <path d="M 110.77612 204.183587 
L 119.347199 209.511991 
L 127.681508 207.601774 
L 136.063171 225.604285 
L 144.539543 224.613093 
L 152.921206 220.191231 
L 161.255515 227.357386 
L 169.77924 227.792769 
L 178.302965 208.017814 
L 186.731982 215.477989 
L 195.066292 215.33199 
L 203.637371 211.428403 
L 212.20845 201.955897 
L 220.826883 187.749063 
L 229.397963 172.109801 
L 238.016396 176.075293 
L 246.587475 187.695263 
L 255.205908 195.751029 
L 263.682279 198.846825 
L 272.253359 200.458134 
L 280.824438 194.104408 
L 289.442871 191.300568 
L 298.01395 190.56829 
L 306.727092 196.991259 
L 315.298171 212.506441 
L 323.916604 202.61715 
L 332.487684 201.47242 
L 341.106117 191.851011 
L 349.677196 185.598502 
L 358.153567 193.624383 
L 366.772 198.84095 
L 375.57985 204.959604 
L 384.150929 188.737767 
L 392.6273 170.990169 
L 401.245734 172.994014 
L 409.864167 171.470087 
L 418.4826 165.411778 
L 427.053679 161.455717 
L 435.672113 159.74937 
L 444.243192 178.316246 
L 452.861625 173.439098 
L 461.38535 193.544343 
L 470.051138 200.789435 
L 478.480155 212.082296 
L 487.24065 223.262952 
" clip-path="url(#pf59e8a700f)" style="fill: none; stroke: #ff7f0e; stroke-width: 1.5; stroke-linecap: square"/>
   </g>
   <g id="line2d_39">
    <path d="M 110.77612 199.231769 
L 119.347199 207.610665 
L 127.681508 199.143993 
L 136.063171 218.375485 
L 144.539543 221.754928 
L 152.921206 206.40609 
L 161.255515 223.187868 
L 169.77924 217.752594 
L 178.302965 213.071748 
L 186.731982 208.262316 
L 195.066292 209.34193 
L 203.637371 208.70313 
L 212.20845 199.478152 
L 220.826883 170.745902 
L 229.397963 166.442744 
L 238.016396 167.891749 
L 246.587475 176.306936 
L 255.205908 195.6442 
L 263.682279 201.626335 
L 272.253359 193.970024 
L 280.824438 195.16064 
L 289.442871 196.257502 
L 298.01395 201.645066 
L 306.727092 190.512116 
L 315.298171 201.059881 
L 323.916604 198.143648 
L 332.487684 200.670924 
L 341.106117 195.948 
L 349.677196 183.701732 
L 358.153567 190.769589 
L 366.772 188.144506 
L 375.57985 189.215058 
L 384.150929 191.021151 
L 392.6273 176.363718 
L 401.245734 178.160883 
L 409.864167 174.629326 
L 418.4826 160.646283 
L 427.053679 158.781335 
L 435.672113 160.108566 
L 444.243192 163.598381 
L 452.861625 182.779371 
L 461.38535 196.90245 
L 470.051138 198.628391 
L 478.480155 202.849161 
L 487.24065 216.772667 
" clip-path="url(#pf59e8a700f)" style="fill: none; stroke: #1f77b4; stroke-width: 1.5; stroke-linecap: square"/>
   </g>
   <g id="legend_1">
    <g id="patch_7">
     <path d="M 79.9 151.570875 
L 216.790625 151.570875 
Q 218.790625 151.570875 218.790625 149.570875 
L 218.790625 47.824 
Q 218.790625 45.824 216.790625 45.824 
L 79.9 45.824 
Q 77.9 45.824 77.9 47.824 
L 77.9 149.570875 
Q 77.9 151.570875 79.9 151.570875 
z
" style="fill: #ffffff; opacity: 0.8; stroke: #e6e6e6; stroke-linejoin: miter"/>
    </g>
    <g id="line2d_40">
     <path d="M 81.9 53.922438 
L 91.9 53.922438 
L 101.9 53.922438 
" style="fill: none; stroke: #808080; stroke-width: 1.5; stroke-linecap: square"/>
    </g>
    <g id="text_19">
     <!-- Nasdaq Log-Volatility -->
     <g transform="translate(109.9 57.422438)scale(0.1 -0.1)">
      <defs>
       <path id="DejaVuSans-4e" d="M 628 4666 
L 1478 4666 
L 3547 763 
L 3547 4666 
L 4159 4666 
L 4159 0 
L 3309 0 
L 1241 3903 
L 1241 0 
L 628 0 
L 628 4666 
z
" transform="scale(0.015625)"/>
       <path id="DejaVuSans-71" d="M 947 1747 
Q 947 1113 1208 752 
Q 1469 391 1925 391 
Q 2381 391 2643 752 
Q 2906 1113 2906 1747 
Q 2906 2381 2643 2742 
Q 2381 3103 1925 3103 
Q 1469 3103 1208 2742 
Q 947 2381 947 1747 
z
M 2906 525 
Q 2725 213 2448 61 
Q 2172 -91 1784 -91 
Q 1150 -91 751 415 
Q 353 922 353 1747 
Q 353 2572 751 3078 
Q 1150 3584 1784 3584 
Q 2172 3584 2448 3432 
Q 2725 3281 2906 2969 
L 2906 3500 
L 3481 3500 
L 3481 -1331 
L 2906 -1331 
L 2906 525 
z
" transform="scale(0.015625)"/>
       <path id="DejaVuSans-4c" d="M 628 4666 
L 1259 4666 
L 1259 531 
L 3531 531 
L 3531 0 
L 628 0 
L 628 4666 
z
" transform="scale(0.015625)"/>
       <path id="DejaVuSans-67" d="M 2906 1791 
Q 2906 2416 2648 2759 
Q 2391 3103 1925 3103 
Q 1463 3103 1205 2759 
Q 947 2416 947 1791 
Q 947 1169 1205 825 
Q 1463 481 1925 481 
Q 2391 481 2648 825 
Q 2906 1169 2906 1791 
z
M 3481 434 
Q 3481 -459 3084 -895 
Q 2688 -1331 1869 -1331 
Q 1566 -1331 1297 -1286 
Q 1028 -1241 775 -1147 
L 775 -588 
Q 1028 -725 1275 -790 
Q 1522 -856 1778 -856 
Q 2344 -856 2625 -561 
Q 2906 -266 2906 331 
L 2906 616 
Q 2728 306 2450 153 
Q 2172 0 1784 0 
Q 1141 0 747 490 
Q 353 981 353 1791 
Q 353 2603 747 3093 
Q 1141 3584 1784 3584 
Q 2172 3584 2450 3431 
Q 2728 3278 2906 2969 
L 2906 3500 
L 3481 3500 
L 3481 434 
z
" transform="scale(0.015625)"/>
      </defs>
      <use xlink:href="#DejaVuSans-4e"/>
      <use xlink:href="#DejaVuSans-61" x="74.804688"/>
      <use xlink:href="#DejaVuSans-73" x="136.083984"/>
      <use xlink:href="#DejaVuSans-64" x="188.183594"/>
      <use xlink:href="#DejaVuSans-61" x="251.660156"/>
      <use xlink:href="#DejaVuSans-71" x="312.939453"/>
      <use xlink:href="#DejaVuSans-20" x="376.416016"/>
      <use xlink:href="#DejaVuSans-4c" x="408.203125"/>
      <use xlink:href="#DejaVuSans-6f" x="462.166016"/>
      <use xlink:href="#DejaVuSans-67" x="523.347656"/>
      <use xlink:href="#DejaVuSans-2d" x="586.824219"/>
      <use xlink:href="#DejaVuSans-56" x="617.033203"/>
      <use xlink:href="#DejaVuSans-6f" x="677.691406"/>
      <use xlink:href="#DejaVuSans-6c" x="738.873047"/>
      <use xlink:href="#DejaVuSans-61" x="766.65625"/>
      <use xlink:href="#DejaVuSans-74" x="827.935547"/>
      <use xlink:href="#DejaVuSans-69" x="867.144531"/>
      <use xlink:href="#DejaVuSans-6c" x="894.927734"/>
      <use xlink:href="#DejaVuSans-69" x="922.710938"/>
      <use xlink:href="#DejaVuSans-74" x="950.494141"/>
      <use xlink:href="#DejaVuSans-79" x="989.703125"/>
     </g>
    </g>
    <g id="line2d_41">
     <path d="M 81.9 68.600563 
L 91.9 68.600563 
L 101.9 68.600563 
" style="fill: none; stroke-dasharray: 1.5,2.475; stroke-dashoffset: 0; stroke: #ff0000; stroke-width: 1.5"/>
    </g>
    <g id="text_20">
     <!-- R/S Hurst -->
     <g transform="translate(109.9 72.100563)scale(0.1 -0.1)">
      <defs>
       <path id="DejaVuSans-52" d="M 2841 2188 
Q 3044 2119 3236 1894 
Q 3428 1669 3622 1275 
L 4263 0 
L 3584 0 
L 2988 1197 
Q 2756 1666 2539 1819 
Q 2322 1972 1947 1972 
L 1259 1972 
L 1259 0 
L 628 0 
L 628 4666 
L 2053 4666 
Q 2853 4666 3247 4331 
Q 3641 3997 3641 3322 
Q 3641 2881 3436 2590 
Q 3231 2300 2841 2188 
z
M 1259 4147 
L 1259 2491 
L 2053 2491 
Q 2509 2491 2742 2702 
Q 2975 2913 2975 3322 
Q 2975 3731 2742 3939 
Q 2509 4147 2053 4147 
L 1259 4147 
z
" transform="scale(0.015625)"/>
       <path id="DejaVuSans-2f" d="M 1625 4666 
L 2156 4666 
L 531 -594 
L 0 -594 
L 1625 4666 
z
" transform="scale(0.015625)"/>
       <path id="DejaVuSans-53" d="M 3425 4513 
L 3425 3897 
Q 3066 4069 2747 4153 
Q 2428 4238 2131 4238 
Q 1616 4238 1336 4038 
Q 1056 3838 1056 3469 
Q 1056 3159 1242 3001 
Q 1428 2844 1947 2747 
L 2328 2669 
Q 3034 2534 3370 2195 
Q 3706 1856 3706 1288 
Q 3706 609 3251 259 
Q 2797 -91 1919 -91 
Q 1588 -91 1214 -16 
Q 841 59 441 206 
L 441 856 
Q 825 641 1194 531 
Q 1563 422 1919 422 
Q 2459 422 2753 634 
Q 3047 847 3047 1241 
Q 3047 1584 2836 1778 
Q 2625 1972 2144 2069 
L 1759 2144 
Q 1053 2284 737 2584 
Q 422 2884 422 3419 
Q 422 4038 858 4394 
Q 1294 4750 2059 4750 
Q 2388 4750 2728 4690 
Q 3069 4631 3425 4513 
z
" transform="scale(0.015625)"/>
      </defs>
      <use xlink:href="#DejaVuSans-52"/>
      <use xlink:href="#DejaVuSans-2f" x="69.482422"/>
      <use xlink:href="#DejaVuSans-53" x="103.173828"/>
      <use xlink:href="#DejaVuSans-20" x="166.650391"/>
      <use xlink:href="#DejaVuSans-48" x="198.4375"/>
      <use xlink:href="#DejaVuSans-75" x="273.632812"/>
      <use xlink:href="#DejaVuSans-72" x="337.011719"/>
      <use xlink:href="#DejaVuSans-73" x="378.125"/>
      <use xlink:href="#DejaVuSans-74" x="430.224609"/>
     </g>
    </g>
    <g id="line2d_42">
     <path d="M 81.9 83.278687 
L 91.9 83.278687 
L 101.9 83.278687 
" style="fill: none; stroke-dasharray: 9.6,2.4,1.5,2.4; stroke-dashoffset: 0; stroke: #ff0000; stroke-width: 1.5"/>
    </g>
    <g id="text_21">
     <!-- variogram Hurst -->
     <g transform="translate(109.9 86.778687)scale(0.1 -0.1)">
      <defs>
       <path id="DejaVuSans-76" d="M 191 3500 
L 800 3500 
L 1894 563 
L 2988 3500 
L 3597 3500 
L 2284 0 
L 1503 0 
L 191 3500 
z
" transform="scale(0.015625)"/>
      </defs>
      <use xlink:href="#DejaVuSans-76"/>
      <use xlink:href="#DejaVuSans-61" x="59.179688"/>
      <use xlink:href="#DejaVuSans-72" x="120.458984"/>
      <use xlink:href="#DejaVuSans-69" x="161.572266"/>
      <use xlink:href="#DejaVuSans-6f" x="189.355469"/>
      <use xlink:href="#DejaVuSans-67" x="250.537109"/>
      <use xlink:href="#DejaVuSans-72" x="314.013672"/>
      <use xlink:href="#DejaVuSans-61" x="355.126953"/>
      <use xlink:href="#DejaVuSans-6d" x="416.40625"/>
      <use xlink:href="#DejaVuSans-20" x="513.818359"/>
      <use xlink:href="#DejaVuSans-48" x="545.605469"/>
      <use xlink:href="#DejaVuSans-75" x="620.800781"/>
      <use xlink:href="#DejaVuSans-72" x="684.179688"/>
      <use xlink:href="#DejaVuSans-73" x="725.292969"/>
      <use xlink:href="#DejaVuSans-74" x="777.392578"/>
     </g>
    </g>
    <g id="line2d_43">
     <path d="M 81.9 97.956813 
L 91.9 97.956813 
L 101.9 97.956813 
" style="fill: none; stroke-dasharray: 5.55,2.4; stroke-dashoffset: 0; stroke: #ff0000; stroke-width: 1.5"/>
    </g>
    <g id="text_22">
     <!-- Higuchi Hurst -->
     <g transform="translate(109.9 101.456813)scale(0.1 -0.1)">
      <defs>
       <path id="DejaVuSans-63" d="M 3122 3366 
L 3122 2828 
Q 2878 2963 2633 3030 
Q 2388 3097 2138 3097 
Q 1578 3097 1268 2742 
Q 959 2388 959 1747 
Q 959 1106 1268 751 
Q 1578 397 2138 397 
Q 2388 397 2633 464 
Q 2878 531 3122 666 
L 3122 134 
Q 2881 22 2623 -34 
Q 2366 -91 2075 -91 
Q 1284 -91 818 406 
Q 353 903 353 1747 
Q 353 2603 823 3093 
Q 1294 3584 2113 3584 
Q 2378 3584 2631 3529 
Q 2884 3475 3122 3366 
z
" transform="scale(0.015625)"/>
       <path id="DejaVuSans-68" d="M 3513 2113 
L 3513 0 
L 2938 0 
L 2938 2094 
Q 2938 2591 2744 2837 
Q 2550 3084 2163 3084 
Q 1697 3084 1428 2787 
Q 1159 2491 1159 1978 
L 1159 0 
L 581 0 
L 581 4863 
L 1159 4863 
L 1159 2956 
Q 1366 3272 1645 3428 
Q 1925 3584 2291 3584 
Q 2894 3584 3203 3211 
Q 3513 2838 3513 2113 
z
" transform="scale(0.015625)"/>
      </defs>
      <use xlink:href="#DejaVuSans-48"/>
      <use xlink:href="#DejaVuSans-69" x="75.195312"/>
      <use xlink:href="#DejaVuSans-67" x="102.978516"/>
      <use xlink:href="#DejaVuSans-75" x="166.455078"/>
      <use xlink:href="#DejaVuSans-63" x="229.833984"/>
      <use xlink:href="#DejaVuSans-68" x="284.814453"/>
      <use xlink:href="#DejaVuSans-69" x="348.193359"/>
      <use xlink:href="#DejaVuSans-20" x="375.976562"/>
      <use xlink:href="#DejaVuSans-48" x="407.763672"/>
      <use xlink:href="#DejaVuSans-75" x="482.958984"/>
      <use xlink:href="#DejaVuSans-72" x="546.337891"/>
      <use xlink:href="#DejaVuSans-73" x="587.451172"/>
      <use xlink:href="#DejaVuSans-74" x="639.550781"/>
     </g>
    </g>
    <g id="line2d_44">
     <path d="M 81.9 112.634938 
L 91.9 112.634938 
L 101.9 112.634938 
" style="fill: none; stroke: #ff0000; stroke-width: 1.5; stroke-linecap: square"/>
    </g>
    <g id="text_23">
     <!-- Whittle Hurst -->
     <g transform="translate(109.9 116.134938)scale(0.1 -0.1)">
      <defs>
       <path id="DejaVuSans-57" d="M 213 4666 
L 850 4666 
L 1831 722 
L 2809 4666 
L 3519 4666 
L 4500 722 
L 5478 4666 
L 6119 4666 
L 4947 0 
L 4153 0 
L 3169 4050 
L 2175 0 
L 1381 0 
L 213 4666 
z
" transform="scale(0.015625)"/>
      </defs>
      <use xlink:href="#DejaVuSans-57"/>
      <use xlink:href="#DejaVuSans-68" x="98.876953"/>
      <use xlink:href="#DejaVuSans-69" x="162.255859"/>
      <use xlink:href="#DejaVuSans-74" x="190.039062"/>
      <use xlink:href="#DejaVuSans-74" x="229.248047"/>
      <use xlink:href="#DejaVuSans-6c" x="268.457031"/>
      <use xlink:href="#DejaVuSans-65" x="296.240234"/>
      <use xlink:href="#DejaVuSans-20" x="357.763672"/>
      <use xlink:href="#DejaVuSans-48" x="389.550781"/>
      <use xlink:href="#DejaVuSans-75" x="464.746094"/>
      <use xlink:href="#DejaVuSans-72" x="528.125"/>
      <use xlink:href="#DejaVuSans-73" x="569.238281"/>
      <use xlink:href="#DejaVuSans-74" x="621.337891"/>
     </g>
    </g>
    <g id="line2d_45">
     <path d="M 81.9 127.313063 
L 91.9 127.313063 
L 101.9 127.313063 
" style="fill: none; stroke: #ff7f0e; stroke-width: 1.5; stroke-linecap: square"/>
    </g>
    <g id="text_24">
     <!-- 1D CNN Hurst -->
     <g transform="translate(109.9 130.813063)scale(0.1 -0.1)">
      <defs>
       <path id="DejaVuSans-43" d="M 4122 4306 
L 4122 3641 
Q 3803 3938 3442 4084 
Q 3081 4231 2675 4231 
Q 1875 4231 1450 3742 
Q 1025 3253 1025 2328 
Q 1025 1406 1450 917 
Q 1875 428 2675 428 
Q 3081 428 3442 575 
Q 3803 722 4122 1019 
L 4122 359 
Q 3791 134 3420 21 
Q 3050 -91 2638 -91 
Q 1578 -91 968 557 
Q 359 1206 359 2328 
Q 359 3453 968 4101 
Q 1578 4750 2638 4750 
Q 3056 4750 3426 4639 
Q 3797 4528 4122 4306 
z
" transform="scale(0.015625)"/>
      </defs>
      <use xlink:href="#DejaVuSans-31"/>
      <use xlink:href="#DejaVuSans-44" x="63.623047"/>
      <use xlink:href="#DejaVuSans-20" x="140.625"/>
      <use xlink:href="#DejaVuSans-43" x="172.412109"/>
      <use xlink:href="#DejaVuSans-4e" x="242.236328"/>
      <use xlink:href="#DejaVuSans-4e" x="317.041016"/>
      <use xlink:href="#DejaVuSans-20" x="391.845703"/>
      <use xlink:href="#DejaVuSans-48" x="423.632812"/>
      <use xlink:href="#DejaVuSans-75" x="498.828125"/>
      <use xlink:href="#DejaVuSans-72" x="562.207031"/>
      <use xlink:href="#DejaVuSans-73" x="603.320312"/>
      <use xlink:href="#DejaVuSans-74" x="655.419922"/>
     </g>
    </g>
    <g id="line2d_46">
     <path d="M 81.9 141.991187 
L 91.9 141.991187 
L 101.9 141.991187 
" style="fill: none; stroke: #1f77b4; stroke-width: 1.5; stroke-linecap: square"/>
    </g>
    <g id="text_25">
     <!-- LSTM Hurst -->
     <g transform="translate(109.9 145.491187)scale(0.1 -0.1)">
      <defs>
       <path id="DejaVuSans-54" d="M -19 4666 
L 3928 4666 
L 3928 4134 
L 2272 4134 
L 2272 0 
L 1638 0 
L 1638 4134 
L -19 4134 
L -19 4666 
z
" transform="scale(0.015625)"/>
       <path id="DejaVuSans-4d" d="M 628 4666 
L 1569 4666 
L 2759 1491 
L 3956 4666 
L 4897 4666 
L 4897 0 
L 4281 0 
L 4281 4097 
L 3078 897 
L 2444 897 
L 1241 4097 
L 1241 0 
L 628 0 
L 628 4666 
z
" transform="scale(0.015625)"/>
      </defs>
      <use xlink:href="#DejaVuSans-4c"/>
      <use xlink:href="#DejaVuSans-53" x="55.712891"/>
      <use xlink:href="#DejaVuSans-54" x="119.189453"/>
      <use xlink:href="#DejaVuSans-4d" x="180.273438"/>
      <use xlink:href="#DejaVuSans-20" x="266.552734"/>
      <use xlink:href="#DejaVuSans-48" x="298.339844"/>
      <use xlink:href="#DejaVuSans-75" x="373.535156"/>
      <use xlink:href="#DejaVuSans-72" x="436.914062"/>
      <use xlink:href="#DejaVuSans-73" x="478.027344"/>
      <use xlink:href="#DejaVuSans-74" x="530.126953"/>
     </g>
    </g>
   </g>
  </g>
 </g>
 <defs>
  <clipPath id="pf59e8a700f">
   <rect x="72.9" y="40.824" width="451.98" height="261.954"/>
  </clipPath>
 </defs>
</svg>
