<?xml version="1.0" encoding="utf-8" standalone="no"?>
<!DOCTYPE svg PUBLIC "-//W3C//DTD SVG 1.1//EN"
  "http://www.w3.org/Graphics/SVG/1.1/DTD/svg11.dtd">
<svg xmlns:xlink="http://www.w3.org/1999/xlink" width="583.2pt" height="340.2pt" viewBox="0 0 583.2 340.2" xmlns="http://www.w3.org/2000/svg" version="1.1">
 <metadata>
  <rdf:RDF xmlns:dc="http://purl.org/dc/elements/1.1/" xmlns:cc="http://creativecommons.org/ns#" xmlns:rdf="http://www.w3.org/1999/02/22-rdf-syntax-ns#">
   <cc:Work>
    <dc:type rdf:resource="http://purl.org/dc/dcmitype/StillImage"/>
    <dc:date>2024-07-06T14:43:25.715913</dc:date>
    <dc:format>image/svg+xml</dc:format>
    <dc:creator>
     <cc:Agent>
      <dc:title>Matplotlib v3.5.1, https://matplotlib.org/</dc:title>
     </cc:Agent>
    </dc:creator>
   </cc:Work>
  </rdf:RDF>
 </metadata>
 <defs>
  <style type="text/css">*{stroke-linejoin: round; stroke-linecap: butt}</style>
 </defs>
 <g id="figure_1">
  <g id="patch_1">
   <path d="M 0 340.2 
L 583.2 340.2 
L 583.2 0 
L 0 0 
z
" style="fill: #ffffff"/>
  </g>
  <g id="axes_1">
   <g id="patch_2">
    <path d="M 72.9 302.778 
L 524.88 302.778 
L 524.88 40.824 
L 72.9 40.824 
L 72.9 302.778 
z
" style="fill: none; opacity: 0"/>
   </g>
   <g id="matplotlib.axis_1">
    <g id="xtick_1">
     <g id="line2d_1">
      <path d="M 93.030712 302.778 
L 93.030712 40.824 
" clip-path="url(#p1a1e6928fa)" style="fill: none; stroke: #e6e6e6; stroke-width: 0.8; stroke-linecap: square"/>
     </g>
     <g id="line2d_2">
      <defs>
       <path id="m0f306df815" d="M 0 0 
L 0 3.5 
" style="stroke: #000000; stroke-width: 0.8"/>
      </defs>
      <g>
       <use xlink:href="#m0f306df815" x="93.030712" y="302.778" style="stroke: #000000; stroke-width: 0.8"/>
      </g>
     </g>
     <g id="text_1">
      <!-- 2000 -->
      <g transform="translate(80.305712 317.376438)scale(0.1 -0.1)">
       <defs>
        <path id="DejaVuSans-32" d="M 1228 531 
L 3431 531 
L 3431 0 
L 469 0 
L 469 531 
Q 828 903 1448 1529 
Q 2069 2156 2228 2338 
Q 2531 2678 2651 2914 
Q 2772 3150 2772 3378 
Q 2772 3750 2511 3984 
Q 2250 4219 1831 4219 
Q 1534 4219 1204 4116 
Q 875 4013 500 3803 
L 500 4441 
Q 881 4594 1212 4672 
Q 1544 4750 1819 4750 
Q 2544 4750 2975 4387 
Q 3406 4025 3406 3419 
Q 3406 3131 3298 2873 
Q 3191 2616 2906 2266 
Q 2828 2175 2409 1742 
Q 1991 1309 1228 531 
z
" transform="scale(0.015625)"/>
        <path id="DejaVuSans-30" d="M 2034 4250 
Q 1547 4250 1301 3770 
Q 1056 3291 1056 2328 
Q 1056 1369 1301 889 
Q 1547 409 2034 409 
Q 2525 409 2770 889 
Q 3016 1369 3016 2328 
Q 3016 3291 2770 3770 
Q 2525 4250 2034 4250 
z
M 2034 4750 
Q 2819 4750 3233 4129 
Q 3647 3509 3647 2328 
Q 3647 1150 3233 529 
Q 2819 -91 2034 -91 
Q 1250 -91 836 529 
Q 422 1150 422 2328 
Q 422 3509 836 4129 
Q 1250 4750 2034 4750 
z
" transform="scale(0.015625)"/>
       </defs>
       <use xlink:href="#DejaVuSans-32"/>
       <use xlink:href="#DejaVuSans-30" x="63.623047"/>
       <use xlink:href="#DejaVuSans-30" x="127.246094"/>
       <use xlink:href="#DejaVuSans-30" x="190.869141"/>
      </g>
     </g>
    </g>
    <g id="xtick_2">
     <g id="line2d_3">
      <path d="M 160.20972 302.778 
L 160.20972 40.824 
" clip-path="url(#p1a1e6928fa)" style="fill: none; stroke: #e6e6e6; stroke-width: 0.8; stroke-linecap: square"/>
     </g>
     <g id="line2d_4">
      <g>
       <use xlink:href="#m0f306df815" x="160.20972" y="302.778" style="stroke: #000000; stroke-width: 0.8"/>
      </g>
     </g>
     <g id="text_2">
      <!-- 2004 -->
      <g transform="translate(147.48472 317.376438)scale(0.1 -0.1)">
       <defs>
        <path id="DejaVuSans-34" d="M 2419 4116 
L 825 1625 
L 2419 1625 
L 2419 4116 
z
M 2253 4666 
L 3047 4666 
L 3047 1625 
L 3713 1625 
L 3713 1100 
L 3047 1100 
L 3047 0 
L 2419 0 
L 2419 1100 
L 313 1100 
L 313 1709 
L 2253 4666 
z
" transform="scale(0.015625)"/>
       </defs>
       <use xlink:href="#DejaVuSans-32"/>
       <use xlink:href="#DejaVuSans-30" x="63.623047"/>
       <use xlink:href="#DejaVuSans-30" x="127.246094"/>
       <use xlink:href="#DejaVuSans-34" x="190.869141"/>
      </g>
     </g>
    </g>
    <g id="xtick_3">
     <g id="line2d_5">
      <path d="M 227.388728 302.778 
L 227.388728 40.824 
" clip-path="url(#p1a1e6928fa)" style="fill: none; stroke: #e6e6e6; stroke-width: 0.8; stroke-linecap: square"/>
     </g>
     <g id="line2d_6">
      <g>
       <use xlink:href="#m0f306df815" x="227.388728" y="302.778" style="stroke: #000000; stroke-width: 0.8"/>
      </g>
     </g>
     <g id="text_3">
      <!-- 2008 -->
      <g transform="translate(214.663728 317.376438)scale(0.1 -0.1)">
       <defs>
        <path id="DejaVuSans-38" d="M 2034 2216 
Q 1584 2216 1326 1975 
Q 1069 1734 1069 1313 
Q 1069 891 1326 650 
Q 1584 409 2034 409 
Q 2484 409 2743 651 
Q 3003 894 3003 1313 
Q 3003 1734 2745 1975 
Q 2488 2216 2034 2216 
z
M 1403 2484 
Q 997 2584 770 2862 
Q 544 3141 544 3541 
Q 544 4100 942 4425 
Q 1341 4750 2034 4750 
Q 2731 4750 3128 4425 
Q 3525 4100 3525 3541 
Q 3525 3141 3298 2862 
Q 3072 2584 2669 2484 
Q 3125 2378 3379 2068 
Q 3634 1759 3634 1313 
Q 3634 634 3220 271 
Q 2806 -91 2034 -91 
Q 1263 -91 848 271 
Q 434 634 434 1313 
Q 434 1759 690 2068 
Q 947 2378 1403 2484 
z
M 1172 3481 
Q 1172 3119 1398 2916 
Q 1625 2713 2034 2713 
Q 2441 2713 2670 2916 
Q 2900 3119 2900 3481 
Q 2900 3844 2670 4047 
Q 2441 4250 2034 4250 
Q 1625 4250 1398 4047 
Q 1172 3844 1172 3481 
z
" transform="scale(0.015625)"/>
       </defs>
       <use xlink:href="#DejaVuSans-32"/>
       <use xlink:href="#DejaVuSans-30" x="63.623047"/>
       <use xlink:href="#DejaVuSans-30" x="127.246094"/>
       <use xlink:href="#DejaVuSans-38" x="190.869141"/>
      </g>
     </g>
    </g>
    <g id="xtick_4">
     <g id="line2d_7">
      <path d="M 294.567737 302.778 
L 294.567737 40.824 
" clip-path="url(#p1a1e6928fa)" style="fill: none; stroke: #e6e6e6; stroke-width: 0.8; stroke-linecap: square"/>
     </g>
     <g id="line2d_8">
      <g>
       <use xlink:href="#m0f306df815" x="294.567737" y="302.778" style="stroke: #000000; stroke-width: 0.8"/>
      </g>
     </g>
     <g id="text_4">
      <!-- 2012 -->
      <g transform="translate(281.842737 317.376438)scale(0.1 -0.1)">
       <defs>
        <path id="DejaVuSans-31" d="M 794 531 
L 1825 531 
L 1825 4091 
L 703 3866 
L 703 4441 
L 1819 4666 
L 2450 4666 
L 2450 531 
L 3481 531 
L 3481 0 
L 794 0 
L 794 531 
z
" transform="scale(0.015625)"/>
       </defs>
       <use xlink:href="#DejaVuSans-32"/>
       <use xlink:href="#DejaVuSans-30" x="63.623047"/>
       <use xlink:href="#DejaVuSans-31" x="127.246094"/>
       <use xlink:href="#DejaVuSans-32" x="190.869141"/>
      </g>
     </g>
    </g>
    <g id="xtick_5">
     <g id="line2d_9">
      <path d="M 361.746745 302.778 
L 361.746745 40.824 
" clip-path="url(#p1a1e6928fa)" style="fill: none; stroke: #e6e6e6; stroke-width: 0.8; stroke-linecap: square"/>
     </g>
     <g id="line2d_10">
      <g>
       <use xlink:href="#m0f306df815" x="361.746745" y="302.778" style="stroke: #000000; stroke-width: 0.8"/>
      </g>
     </g>
     <g id="text_5">
      <!-- 2016 -->
      <g transform="translate(349.021745 317.376438)scale(0.1 -0.1)">
       <defs>
        <path id="DejaVuSans-36" d="M 2113 2584 
Q 1688 2584 1439 2293 
Q 1191 2003 1191 1497 
Q 1191 994 1439 701 
Q 1688 409 2113 409 
Q 2538 409 2786 701 
Q 3034 994 3034 1497 
Q 3034 2003 2786 2293 
Q 2538 2584 2113 2584 
z
M 3366 4563 
L 3366 3988 
Q 3128 4100 2886 4159 
Q 2644 4219 2406 4219 
Q 1781 4219 1451 3797 
Q 1122 3375 1075 2522 
Q 1259 2794 1537 2939 
Q 1816 3084 2150 3084 
Q 2853 3084 3261 2657 
Q 3669 2231 3669 1497 
Q 3669 778 3244 343 
Q 2819 -91 2113 -91 
Q 1303 -91 875 529 
Q 447 1150 447 2328 
Q 447 3434 972 4092 
Q 1497 4750 2381 4750 
Q 2619 4750 2861 4703 
Q 3103 4656 3366 4563 
z
" transform="scale(0.015625)"/>
       </defs>
       <use xlink:href="#DejaVuSans-32"/>
       <use xlink:href="#DejaVuSans-30" x="63.623047"/>
       <use xlink:href="#DejaVuSans-31" x="127.246094"/>
       <use xlink:href="#DejaVuSans-36" x="190.869141"/>
      </g>
     </g>
    </g>
    <g id="xtick_6">
     <g id="line2d_11">
      <path d="M 428.925753 302.778 
L 428.925753 40.824 
" clip-path="url(#p1a1e6928fa)" style="fill: none; stroke: #e6e6e6; stroke-width: 0.8; stroke-linecap: square"/>
     </g>
     <g id="line2d_12">
      <g>
       <use xlink:href="#m0f306df815" x="428.925753" y="302.778" style="stroke: #000000; stroke-width: 0.8"/>
      </g>
     </g>
     <g id="text_6">
      <!-- 2020 -->
      <g transform="translate(416.200753 317.376438)scale(0.1 -0.1)">
       <use xlink:href="#DejaVuSans-32"/>
       <use xlink:href="#DejaVuSans-30" x="63.623047"/>
       <use xlink:href="#DejaVuSans-32" x="127.246094"/>
       <use xlink:href="#DejaVuSans-30" x="190.869141"/>
      </g>
     </g>
    </g>
    <g id="xtick_7">
     <g id="line2d_13">
      <path d="M 496.104762 302.778 
L 496.104762 40.824 
" clip-path="url(#p1a1e6928fa)" style="fill: none; stroke: #e6e6e6; stroke-width: 0.8; stroke-linecap: square"/>
     </g>
     <g id="line2d_14">
      <g>
       <use xlink:href="#m0f306df815" x="496.104762" y="302.778" style="stroke: #000000; stroke-width: 0.8"/>
      </g>
     </g>
     <g id="text_7">
      <!-- 2024 -->
      <g transform="translate(483.379762 317.376438)scale(0.1 -0.1)">
       <use xlink:href="#DejaVuSans-32"/>
       <use xlink:href="#DejaVuSans-30" x="63.623047"/>
       <use xlink:href="#DejaVuSans-32" x="127.246094"/>
       <use xlink:href="#DejaVuSans-34" x="190.869141"/>
      </g>
     </g>
    </g>
    <g id="text_8">
     <!-- Date -->
     <g transform="translate(286.939219 331.054562)scale(0.1 -0.1)">
      <defs>
       <path id="DejaVuSans-44" d="M 1259 4147 
L 1259 519 
L 2022 519 
Q 2988 519 3436 956 
Q 3884 1394 3884 2338 
Q 3884 3275 3436 3711 
Q 2988 4147 2022 4147 
L 1259 4147 
z
M 628 4666 
L 1925 4666 
Q 3281 4666 3915 4102 
Q 4550 3538 4550 2338 
Q 4550 1131 3912 565 
Q 3275 0 1925 0 
L 628 0 
L 628 4666 
z
" transform="scale(0.015625)"/>
       <path id="DejaVuSans-61" d="M 2194 1759 
Q 1497 1759 1228 1600 
Q 959 1441 959 1056 
Q 959 750 1161 570 
Q 1363 391 1709 391 
Q 2188 391 2477 730 
Q 2766 1069 2766 1631 
L 2766 1759 
L 2194 1759 
z
M 3341 1997 
L 3341 0 
L 2766 0 
L 2766 531 
Q 2569 213 2275 61 
Q 1981 -91 1556 -91 
Q 1019 -91 701 211 
Q 384 513 384 1019 
Q 384 1609 779 1909 
Q 1175 2209 1959 2209 
L 2766 2209 
L 2766 2266 
Q 2766 2663 2505 2880 
Q 2244 3097 1772 3097 
Q 1472 3097 1187 3025 
Q 903 2953 641 2809 
L 641 3341 
Q 956 3463 1253 3523 
Q 1550 3584 1831 3584 
Q 2591 3584 2966 3190 
Q 3341 2797 3341 1997 
z
" transform="scale(0.015625)"/>
       <path id="DejaVuSans-74" d="M 1172 4494 
L 1172 3500 
L 2356 3500 
L 2356 3053 
L 1172 3053 
L 1172 1153 
Q 1172 725 1289 603 
Q 1406 481 1766 481 
L 2356 481 
L 2356 0 
L 1766 0 
Q 1100 0 847 248 
Q 594 497 594 1153 
L 594 3053 
L 172 3053 
L 172 3500 
L 594 3500 
L 594 4494 
L 1172 4494 
z
" transform="scale(0.015625)"/>
       <path id="DejaVuSans-65" d="M 3597 1894 
L 3597 1613 
L 953 1613 
Q 991 1019 1311 708 
Q 1631 397 2203 397 
Q 2534 397 2845 478 
Q 3156 559 3463 722 
L 3463 178 
Q 3153 47 2828 -22 
Q 2503 -91 2169 -91 
Q 1331 -91 842 396 
Q 353 884 353 1716 
Q 353 2575 817 3079 
Q 1281 3584 2069 3584 
Q 2775 3584 3186 3129 
Q 3597 2675 3597 1894 
z
M 3022 2063 
Q 3016 2534 2758 2815 
Q 2500 3097 2075 3097 
Q 1594 3097 1305 2825 
Q 1016 2553 972 2059 
L 3022 2063 
z
" transform="scale(0.015625)"/>
      </defs>
      <use xlink:href="#DejaVuSans-44"/>
      <use xlink:href="#DejaVuSans-61" x="77.001953"/>
      <use xlink:href="#DejaVuSans-74" x="138.28125"/>
      <use xlink:href="#DejaVuSans-65" x="177.490234"/>
     </g>
    </g>
   </g>
   <g id="matplotlib.axis_2">
    <g id="ytick_1">
     <g id="line2d_15">
      <path d="M 72.9 275.235016 
L 524.88 275.235016 
" clip-path="url(#p1a1e6928fa)" style="fill: none; stroke: #e6e6e6; stroke-width: 0.8; stroke-linecap: square"/>
     </g>
     <g id="line2d_16">
      <defs>
       <path id="m4d52616137" d="M 0 0 
L -3.5 0 
" style="stroke: #000000; stroke-width: 0.8"/>
      </defs>
      <g>
       <use xlink:href="#m4d52616137" x="72.9" y="275.235016" style="stroke: #000000; stroke-width: 0.8"/>
      </g>
     </g>
     <g id="text_9">
      <!-- −0.2 -->
      <g transform="translate(41.617187 279.034235)scale(0.1 -0.1)">
       <defs>
        <path id="DejaVuSans-2212" d="M 678 2272 
L 4684 2272 
L 4684 1741 
L 678 1741 
L 678 2272 
z
" transform="scale(0.015625)"/>
        <path id="DejaVuSans-2e" d="M 684 794 
L 1344 794 
L 1344 0 
L 684 0 
L 684 794 
z
" transform="scale(0.015625)"/>
       </defs>
       <use xlink:href="#DejaVuSans-2212"/>
       <use xlink:href="#DejaVuSans-30" x="83.789062"/>
       <use xlink:href="#DejaVuSans-2e" x="147.412109"/>
       <use xlink:href="#DejaVuSans-32" x="179.199219"/>
      </g>
     </g>
    </g>
    <g id="ytick_2">
     <g id="line2d_17">
      <path d="M 72.9 219.718964 
L 524.88 219.718964 
" clip-path="url(#p1a1e6928fa)" style="fill: none; stroke: #e6e6e6; stroke-width: 0.8; stroke-linecap: square"/>
     </g>
     <g id="line2d_18">
      <g>
       <use xlink:href="#m4d52616137" x="72.9" y="219.718964" style="stroke: #000000; stroke-width: 0.8"/>
      </g>
     </g>
     <g id="text_10">
      <!-- 0.0 -->
      <g transform="translate(49.996875 223.518183)scale(0.1 -0.1)">
       <use xlink:href="#DejaVuSans-30"/>
       <use xlink:href="#DejaVuSans-2e" x="63.623047"/>
       <use xlink:href="#DejaVuSans-30" x="95.410156"/>
      </g>
     </g>
    </g>
    <g id="ytick_3">
     <g id="line2d_19">
      <path d="M 72.9 164.202912 
L 524.88 164.202912 
" clip-path="url(#p1a1e6928fa)" style="fill: none; stroke: #e6e6e6; stroke-width: 0.8; stroke-linecap: square"/>
     </g>
     <g id="line2d_20">
      <g>
       <use xlink:href="#m4d52616137" x="72.9" y="164.202912" style="stroke: #000000; stroke-width: 0.8"/>
      </g>
     </g>
     <g id="text_11">
      <!-- 0.2 -->
      <g transform="translate(49.996875 168.002131)scale(0.1 -0.1)">
       <use xlink:href="#DejaVuSans-30"/>
       <use xlink:href="#DejaVuSans-2e" x="63.623047"/>
       <use xlink:href="#DejaVuSans-32" x="95.410156"/>
      </g>
     </g>
    </g>
    <g id="ytick_4">
     <g id="line2d_21">
      <path d="M 72.9 108.68686 
L 524.88 108.68686 
" clip-path="url(#p1a1e6928fa)" style="fill: none; stroke: #e6e6e6; stroke-width: 0.8; stroke-linecap: square"/>
     </g>
     <g id="line2d_22">
      <g>
       <use xlink:href="#m4d52616137" x="72.9" y="108.68686" style="stroke: #000000; stroke-width: 0.8"/>
      </g>
     </g>
     <g id="text_12">
      <!-- 0.4 -->
      <g transform="translate(49.996875 112.486079)scale(0.1 -0.1)">
       <use xlink:href="#DejaVuSans-30"/>
       <use xlink:href="#DejaVuSans-2e" x="63.623047"/>
       <use xlink:href="#DejaVuSans-34" x="95.410156"/>
      </g>
     </g>
    </g>
    <g id="ytick_5">
     <g id="line2d_23">
      <path d="M 72.9 53.170808 
L 524.88 53.170808 
" clip-path="url(#p1a1e6928fa)" style="fill: none; stroke: #e6e6e6; stroke-width: 0.8; stroke-linecap: square"/>
     </g>
     <g id="line2d_24">
      <g>
       <use xlink:href="#m4d52616137" x="72.9" y="53.170808" style="stroke: #000000; stroke-width: 0.8"/>
      </g>
     </g>
     <g id="text_13">
      <!-- 0.6 -->
      <g transform="translate(49.996875 56.970026)scale(0.1 -0.1)">
       <use xlink:href="#DejaVuSans-30"/>
       <use xlink:href="#DejaVuSans-2e" x="63.623047"/>
       <use xlink:href="#DejaVuSans-36" x="95.410156"/>
      </g>
     </g>
    </g>
    <g id="text_14">
     <!-- Volatility and Hurst-estimate -->
     <g transform="translate(35.5375 243.333031)rotate(-90)scale(0.1 -0.1)">
      <defs>
       <path id="DejaVuSans-56" d="M 1831 0 
L 50 4666 
L 709 4666 
L 2188 738 
L 3669 4666 
L 4325 4666 
L 2547 0 
L 1831 0 
z
" transform="scale(0.015625)"/>
       <path id="DejaVuSans-6f" d="M 1959 3097 
Q 1497 3097 1228 2736 
Q 959 2375 959 1747 
Q 959 1119 1226 758 
Q 1494 397 1959 397 
Q 2419 397 2687 759 
Q 2956 1122 2956 1747 
Q 2956 2369 2687 2733 
Q 2419 3097 1959 3097 
z
M 1959 3584 
Q 2709 3584 3137 3096 
Q 3566 2609 3566 1747 
Q 3566 888 3137 398 
Q 2709 -91 1959 -91 
Q 1206 -91 779 398 
Q 353 888 353 1747 
Q 353 2609 779 3096 
Q 1206 3584 1959 3584 
z
" transform="scale(0.015625)"/>
       <path id="DejaVuSans-6c" d="M 603 4863 
L 1178 4863 
L 1178 0 
L 603 0 
L 603 4863 
z
" transform="scale(0.015625)"/>
       <path id="DejaVuSans-69" d="M 603 3500 
L 1178 3500 
L 1178 0 
L 603 0 
L 603 3500 
z
M 603 4863 
L 1178 4863 
L 1178 4134 
L 603 4134 
L 603 4863 
z
" transform="scale(0.015625)"/>
       <path id="DejaVuSans-79" d="M 2059 -325 
Q 1816 -950 1584 -1140 
Q 1353 -1331 966 -1331 
L 506 -1331 
L 506 -850 
L 844 -850 
Q 1081 -850 1212 -737 
Q 1344 -625 1503 -206 
L 1606 56 
L 191 3500 
L 800 3500 
L 1894 763 
L 2988 3500 
L 3597 3500 
L 2059 -325 
z
" transform="scale(0.015625)"/>
       <path id="DejaVuSans-20" transform="scale(0.015625)"/>
       <path id="DejaVuSans-6e" d="M 3513 2113 
L 3513 0 
L 2938 0 
L 2938 2094 
Q 2938 2591 2744 2837 
Q 2550 3084 2163 3084 
Q 1697 3084 1428 2787 
Q 1159 2491 1159 1978 
L 1159 0 
L 581 0 
L 581 3500 
L 1159 3500 
L 1159 2956 
Q 1366 3272 1645 3428 
Q 1925 3584 2291 3584 
Q 2894 3584 3203 3211 
Q 3513 2838 3513 2113 
z
" transform="scale(0.015625)"/>
       <path id="DejaVuSans-64" d="M 2906 2969 
L 2906 4863 
L 3481 4863 
L 3481 0 
L 2906 0 
L 2906 525 
Q 2725 213 2448 61 
Q 2172 -91 1784 -91 
Q 1150 -91 751 415 
Q 353 922 353 1747 
Q 353 2572 751 3078 
Q 1150 3584 1784 3584 
Q 2172 3584 2448 3432 
Q 2725 3281 2906 2969 
z
M 947 1747 
Q 947 1113 1208 752 
Q 1469 391 1925 391 
Q 2381 391 2643 752 
Q 2906 1113 2906 1747 
Q 2906 2381 2643 2742 
Q 2381 3103 1925 3103 
Q 1469 3103 1208 2742 
Q 947 2381 947 1747 
z
" transform="scale(0.015625)"/>
       <path id="DejaVuSans-48" d="M 628 4666 
L 1259 4666 
L 1259 2753 
L 3553 2753 
L 3553 4666 
L 4184 4666 
L 4184 0 
L 3553 0 
L 3553 2222 
L 1259 2222 
L 1259 0 
L 628 0 
L 628 4666 
z
" transform="scale(0.015625)"/>
       <path id="DejaVuSans-75" d="M 544 1381 
L 544 3500 
L 1119 3500 
L 1119 1403 
Q 1119 906 1312 657 
Q 1506 409 1894 409 
Q 2359 409 2629 706 
Q 2900 1003 2900 1516 
L 2900 3500 
L 3475 3500 
L 3475 0 
L 2900 0 
L 2900 538 
Q 2691 219 2414 64 
Q 2138 -91 1772 -91 
Q 1169 -91 856 284 
Q 544 659 544 1381 
z
M 1991 3584 
L 1991 3584 
z
" transform="scale(0.015625)"/>
       <path id="DejaVuSans-72" d="M 2631 2963 
Q 2534 3019 2420 3045 
Q 2306 3072 2169 3072 
Q 1681 3072 1420 2755 
Q 1159 2438 1159 1844 
L 1159 0 
L 581 0 
L 581 3500 
L 1159 3500 
L 1159 2956 
Q 1341 3275 1631 3429 
Q 1922 3584 2338 3584 
Q 2397 3584 2469 3576 
Q 2541 3569 2628 3553 
L 2631 2963 
z
" transform="scale(0.015625)"/>
       <path id="DejaVuSans-73" d="M 2834 3397 
L 2834 2853 
Q 2591 2978 2328 3040 
Q 2066 3103 1784 3103 
Q 1356 3103 1142 2972 
Q 928 2841 928 2578 
Q 928 2378 1081 2264 
Q 1234 2150 1697 2047 
L 1894 2003 
Q 2506 1872 2764 1633 
Q 3022 1394 3022 966 
Q 3022 478 2636 193 
Q 2250 -91 1575 -91 
Q 1294 -91 989 -36 
Q 684 19 347 128 
L 347 722 
Q 666 556 975 473 
Q 1284 391 1588 391 
Q 1994 391 2212 530 
Q 2431 669 2431 922 
Q 2431 1156 2273 1281 
Q 2116 1406 1581 1522 
L 1381 1569 
Q 847 1681 609 1914 
Q 372 2147 372 2553 
Q 372 3047 722 3315 
Q 1072 3584 1716 3584 
Q 2034 3584 2315 3537 
Q 2597 3491 2834 3397 
z
" transform="scale(0.015625)"/>
       <path id="DejaVuSans-2d" d="M 313 2009 
L 1997 2009 
L 1997 1497 
L 313 1497 
L 313 2009 
z
" transform="scale(0.015625)"/>
       <path id="DejaVuSans-6d" d="M 3328 2828 
Q 3544 3216 3844 3400 
Q 4144 3584 4550 3584 
Q 5097 3584 5394 3201 
Q 5691 2819 5691 2113 
L 5691 0 
L 5113 0 
L 5113 2094 
Q 5113 2597 4934 2840 
Q 4756 3084 4391 3084 
Q 3944 3084 3684 2787 
Q 3425 2491 3425 1978 
L 3425 0 
L 2847 0 
L 2847 2094 
Q 2847 2600 2669 2842 
Q 2491 3084 2119 3084 
Q 1678 3084 1418 2786 
Q 1159 2488 1159 1978 
L 1159 0 
L 581 0 
L 581 3500 
L 1159 3500 
L 1159 2956 
Q 1356 3278 1631 3431 
Q 1906 3584 2284 3584 
Q 2666 3584 2933 3390 
Q 3200 3197 3328 2828 
z
" transform="scale(0.015625)"/>
      </defs>
      <use xlink:href="#DejaVuSans-56"/>
      <use xlink:href="#DejaVuSans-6f" x="60.658203"/>
      <use xlink:href="#DejaVuSans-6c" x="121.839844"/>
      <use xlink:href="#DejaVuSans-61" x="149.623047"/>
      <use xlink:href="#DejaVuSans-74" x="210.902344"/>
      <use xlink:href="#DejaVuSans-69" x="250.111328"/>
      <use xlink:href="#DejaVuSans-6c" x="277.894531"/>
      <use xlink:href="#DejaVuSans-69" x="305.677734"/>
      <use xlink:href="#DejaVuSans-74" x="333.460938"/>
      <use xlink:href="#DejaVuSans-79" x="372.669922"/>
      <use xlink:href="#DejaVuSans-20" x="431.849609"/>
      <use xlink:href="#DejaVuSans-61" x="463.636719"/>
      <use xlink:href="#DejaVuSans-6e" x="524.916016"/>
      <use xlink:href="#DejaVuSans-64" x="588.294922"/>
      <use xlink:href="#DejaVuSans-20" x="651.771484"/>
      <use xlink:href="#DejaVuSans-48" x="683.558594"/>
      <use xlink:href="#DejaVuSans-75" x="758.753906"/>
      <use xlink:href="#DejaVuSans-72" x="822.132812"/>
      <use xlink:href="#DejaVuSans-73" x="863.246094"/>
      <use xlink:href="#DejaVuSans-74" x="915.345703"/>
      <use xlink:href="#DejaVuSans-2d" x="954.554688"/>
      <use xlink:href="#DejaVuSans-65" x="990.638672"/>
      <use xlink:href="#DejaVuSans-73" x="1052.162109"/>
      <use xlink:href="#DejaVuSans-74" x="1104.261719"/>
      <use xlink:href="#DejaVuSans-69" x="1143.470703"/>
      <use xlink:href="#DejaVuSans-6d" x="1171.253906"/>
      <use xlink:href="#DejaVuSans-61" x="1268.666016"/>
      <use xlink:href="#DejaVuSans-74" x="1329.945312"/>
      <use xlink:href="#DejaVuSans-65" x="1369.154297"/>
     </g>
    </g>
   </g>
   <g id="patch_3">
    <path d="M 72.9 302.778 
L 72.9 40.824 
" style="fill: none; stroke: #000000; stroke-width: 0.8; stroke-linejoin: miter; stroke-linecap: square"/>
   </g>
   <g id="patch_4">
    <path d="M 524.88 302.778 
L 524.88 40.824 
" style="fill: none; stroke: #e6e6e6; stroke-width: 0.8; stroke-linejoin: miter; stroke-linecap: square"/>
   </g>
   <g id="patch_5">
    <path d="M 72.9 302.778 
L 524.88 302.778 
" style="fill: none; stroke: #000000; stroke-width: 0.8; stroke-linejoin: miter; stroke-linecap: square"/>
   </g>
   <g id="patch_6">
    <path d="M 72.9 40.824 
L 524.88 40.824 
" style="fill: none; stroke: #e6e6e6; stroke-width: 0.8; stroke-linejoin: miter; stroke-linecap: square"/>
   </g>
   <g id="line2d_25">
    <path d="M 93.444545 204.606987 
L 93.812398 212.795924 
L 94.134268 211.608529 
L 94.456139 207.538352 
L 94.77801 215.666272 
L 95.09988 210.786775 
L 95.467733 210.211858 
L 95.789603 212.084643 
L 96.111474 208.631126 
L 96.433345 207.481317 
L 96.755215 206.760761 
L 97.077086 213.322122 
L 97.398957 214.300493 
L 97.720827 211.36355 
L 98.042698 196.193352 
L 98.41055 209.40232 
L 98.732421 212.043313 
L 99.054292 209.34135 
L 99.376162 211.066694 
L 99.698033 209.787199 
L 100.065885 210.502237 
L 100.387756 215.45722 
L 100.709626 213.24148 
L 101.031497 212.074958 
L 101.353368 214.923027 
L 101.813183 212.085748 
L 102.135054 217.283553 
L 102.778795 211.744913 
L 103.100666 217.115666 
L 103.422536 213.906512 
L 103.744407 215.542204 
L 104.066278 217.78645 
L 104.43413 215.194693 
L 104.756001 215.877353 
L 105.077871 213.533424 
L 105.399742 217.577346 
L 105.721613 211.181125 
L 106.043483 213.643753 
L 106.365354 205.186745 
L 106.687225 209.941671 
L 107.009095 208.685584 
L 107.330966 217.061344 
L 107.652837 208.450448 
L 107.974707 213.392517 
L 108.34256 211.512191 
L 108.66443 204.98807 
L 108.986301 212.310632 
L 109.308172 210.611592 
L 109.676024 214.856983 
L 110.043876 200.141334 
L 110.365747 215.264926 
L 110.825562 215.527752 
L 111.147433 215.320324 
L 111.469303 213.334268 
L 111.791174 213.771587 
L 112.480897 211.574187 
L 112.802768 213.73474 
L 113.124638 204.450078 
L 113.446509 207.425239 
L 113.76838 208.683859 
L 114.09025 208.727544 
L 114.412121 204.422762 
L 114.779973 209.300114 
L 115.101844 210.697669 
L 115.423714 214.882835 
L 116.067456 211.251116 
L 116.757179 213.802178 
L 117.079049 214.400068 
L 117.40092 215.503531 
L 117.722791 215.115631 
L 118.044661 214.492837 
L 118.412514 211.797156 
L 118.734384 211.171261 
L 119.056255 214.396491 
L 119.378126 210.37589 
L 119.699996 216.936805 
L 120.021867 213.517256 
L 120.343738 214.843226 
L 120.665608 212.302206 
L 120.987479 214.383184 
L 121.953091 209.108624 
L 122.274962 209.691537 
L 122.596832 213.615144 
L 122.918703 210.947436 
L 123.240574 213.278421 
L 123.562444 214.417152 
L 123.884315 208.301889 
L 124.206186 214.831587 
L 124.528056 214.317852 
L 124.987872 214.209392 
L 125.309742 213.150834 
L 125.631613 210.083528 
L 125.953484 213.834437 
L 126.275354 215.751551 
L 126.689188 215.150874 
L 127.011059 215.325521 
L 127.33293 214.085072 
L 127.700782 214.127701 
L 128.022652 208.971335 
L 128.344523 214.08401 
L 128.666394 214.177658 
L 129.034246 210.613852 
L 129.356117 212.497124 
L 129.677987 212.650773 
L 129.999858 214.878928 
L 130.321729 214.873206 
L 130.781544 214.468991 
L 131.103415 216.312904 
L 131.425285 211.134282 
L 131.747156 211.056694 
L 132.069027 216.837792 
L 132.712768 205.431666 
L 133.034639 211.518419 
L 133.402491 213.303012 
L 133.724362 212.919103 
L 134.368103 210.645216 
L 134.689974 214.182732 
L 135.011844 209.571794 
L 135.379696 202.34128 
L 135.701567 213.188864 
L 136.023438 195.220341 
L 136.345308 205.874627 
L 136.667179 201.041145 
L 136.98905 203.760494 
L 137.31092 210.755643 
L 137.632791 209.522608 
L 138.000643 205.868226 
L 138.322514 209.678989 
L 138.644385 210.642553 
L 138.966255 208.126961 
L 139.288126 202.301002 
L 139.609997 202.591464 
L 139.931867 202.328311 
L 140.253738 211.383658 
L 140.575609 212.352937 
L 140.897479 210.094566 
L 141.21935 209.11611 
L 141.541221 211.065178 
L 141.909073 208.813048 
L 142.230944 214.473392 
L 142.552814 211.138778 
L 142.874685 209.90715 
L 143.3345 214.743295 
L 143.702352 209.253279 
L 144.024223 212.193782 
L 144.392075 216.736109 
L 144.713946 208.060251 
L 145.035817 210.691646 
L 145.357687 214.801233 
L 145.72554 210.57491 
L 146.04741 210.513857 
L 146.369281 213.286025 
L 146.691152 205.975622 
L 147.013022 211.01841 
L 147.334893 205.951352 
L 147.656764 209.087599 
L 147.978634 214.84582 
L 148.300505 211.557808 
L 148.668357 210.9941 
L 148.990228 214.223387 
L 149.312099 213.417513 
L 149.633969 215.167017 
L 149.95584 211.442284 
L 150.415655 213.787696 
L 150.737526 213.537912 
L 151.059397 212.180597 
L 151.381267 214.607811 
L 151.703138 214.570786 
L 152.07099 213.488566 
L 152.392861 214.001621 
L 152.714731 212.051671 
L 153.036602 213.465296 
L 153.358473 214.133199 
L 153.680343 217.614951 
L 154.002214 215.982722 
L 154.691937 216.621143 
L 155.013808 214.243309 
L 155.335678 215.149655 
L 155.657549 211.447816 
L 155.97942 211.176539 
L 156.30129 216.390641 
L 156.623161 217.248835 
L 156.945032 214.150609 
L 157.588773 216.531845 
L 157.910644 215.210689 
L 158.232514 215.332901 
L 158.554385 214.268556 
L 158.922237 216.062256 
L 159.244108 214.18857 
L 159.565979 215.702961 
L 159.933831 218.259268 
L 160.393646 215.278159 
L 160.715517 216.176409 
L 161.083369 216.23998 
L 161.40524 214.236388 
L 161.72711 215.08134 
L 162.416833 214.572938 
L 162.738704 217.755383 
L 163.382445 215.102383 
L 163.704316 211.132695 
L 164.026187 216.125409 
L 164.348057 214.809558 
L 164.669928 215.612558 
L 165.03778 215.329575 
L 165.359651 212.935745 
L 165.681522 215.677856 
L 166.003392 215.659028 
L 166.325263 214.215445 
L 166.647134 215.818629 
L 166.969004 216.040288 
L 167.336856 216.701254 
L 167.796672 213.052801 
L 168.118542 217.327445 
L 168.440413 216.27442 
L 168.808265 215.752632 
L 169.130136 216.850028 
L 169.452007 216.688094 
L 169.773877 213.891984 
L 170.095748 216.983011 
L 170.417619 212.049092 
L 171.06136 215.566916 
L 171.383231 216.033267 
L 171.751083 215.463282 
L 172.072954 216.887696 
L 172.394824 214.442323 
L 172.716695 216.424739 
L 173.038566 215.726686 
L 173.360436 216.713995 
L 174.004178 213.447111 
L 174.326048 216.879761 
L 174.647919 215.156981 
L 175.29166 215.56504 
L 175.659512 214.917326 
L 175.981383 215.578742 
L 176.303254 216.98971 
L 176.625125 216.008942 
L 176.992977 217.107395 
L 177.314847 216.050877 
L 178.096533 214.951421 
L 178.418404 217.063644 
L 178.740275 216.210823 
L 179.062145 216.079994 
L 179.429998 215.110427 
L 180.073739 216.451731 
L 180.39561 215.437546 
L 180.71748 216.581894 
L 181.085332 214.921293 
L 181.407203 217.040299 
L 181.729074 214.70502 
L 182.372815 212.491367 
L 182.694686 213.573436 
L 183.016557 215.569214 
L 183.338427 213.989413 
L 183.660298 217.580927 
L 184.02815 216.13448 
L 184.350021 216.95151 
L 184.671891 218.281997 
L 184.993762 216.134214 
L 185.683485 214.944196 
L 186.005356 218.389581 
L 186.327226 215.70879 
L 186.649097 216.200233 
L 186.970968 215.829207 
L 187.292838 216.055674 
L 187.614709 216.11355 
L 187.93658 217.120261 
L 188.25845 216.197584 
L 188.718266 215.628561 
L 189.040136 215.845267 
L 189.362007 216.203671 
L 189.683878 217.191639 
L 190.005748 215.387843 
L 190.327619 216.356448 
L 190.64949 210.840311 
L 190.97136 213.152476 
L 191.293231 216.614238 
L 191.615102 216.950843 
L 192.304825 216.402388 
L 192.626695 215.450048 
L 192.948566 217.231914 
L 193.270437 217.431505 
L 193.638289 216.350606 
L 194.006141 214.501117 
L 194.328012 216.135317 
L 194.695864 214.094661 
L 195.017735 217.257703 
L 195.339605 216.865078 
L 195.661476 215.935827 
L 195.983347 216.203162 
L 196.443162 216.771733 
L 196.765033 215.326308 
L 197.086903 216.881475 
L 197.730645 216.948007 
L 198.374386 215.675063 
L 198.742238 213.957978 
L 199.064109 217.975426 
L 199.385979 217.344055 
L 200.029721 215.568007 
L 200.351592 215.013848 
L 200.719444 213.059174 
L 201.041314 212.848793 
L 201.363185 215.032583 
L 201.685056 212.314794 
L 202.006926 215.786028 
L 202.374779 212.913995 
L 202.696649 215.052473 
L 203.01852 213.252835 
L 203.340391 213.880384 
L 203.984132 217.496489 
L 204.306003 215.517797 
L 204.627873 217.44057 
L 204.949744 218.143474 
L 205.317596 215.713628 
L 205.639467 216.951965 
L 205.961338 217.054651 
L 206.283208 216.762326 
L 206.605079 215.906594 
L 207.24882 218.242877 
L 207.570691 216.067497 
L 207.892562 217.717262 
L 208.214432 216.055549 
L 208.536303 218.47502 
L 208.996118 215.674225 
L 209.317989 216.512622 
L 209.63986 217.746653 
L 209.96173 216.940057 
L 210.329582 217.228647 
L 211.065287 216.888889 
L 211.433139 217.812509 
L 211.75501 214.958632 
L 212.07688 217.703159 
L 212.398751 217.638144 
L 212.720622 216.637518 
L 213.180437 218.280316 
L 213.502308 210.209245 
L 213.824178 215.425731 
L 214.146049 212.044588 
L 214.46792 215.282728 
L 215.157643 217.570524 
L 215.479513 215.783781 
L 215.801384 216.857355 
L 216.123255 215.695731 
L 216.445125 217.968065 
L 216.766996 214.333679 
L 217.088867 217.033698 
L 217.456719 215.457134 
L 217.77859 216.446643 
L 218.10046 211.022967 
L 218.422331 214.746566 
L 218.744202 214.307806 
L 219.112054 216.660783 
L 219.433924 212.358105 
L 219.755795 217.88191 
L 220.077666 211.370617 
L 220.399537 212.200456 
L 220.721407 204.514339 
L 221.043278 213.731218 
L 221.365149 212.971369 
L 221.687019 208.727998 
L 222.054871 211.662509 
L 222.376742 215.697258 
L 222.698613 210.90511 
L 223.020483 216.920579 
L 223.342354 215.219791 
L 223.664225 216.233634 
L 223.986095 212.97585 
L 224.307966 215.539039 
L 224.629837 210.62344 
L 224.951707 210.009113 
L 225.273578 209.079823 
L 225.733393 209.135845 
L 226.377135 213.650216 
L 226.699005 211.710485 
L 227.020876 215.710799 
L 227.43471 214.868592 
L 227.756581 209.843151 
L 228.078451 210.396731 
L 228.446303 207.560136 
L 228.768174 210.829134 
L 229.090045 208.754796 
L 229.411915 213.106629 
L 229.779768 214.362823 
L 230.101638 209.83001 
L 230.423509 213.172122 
L 230.74538 205.437702 
L 231.205195 203.404777 
L 231.527066 215.024633 
L 231.848936 210.010333 
L 232.170807 214.057299 
L 232.492678 213.048298 
L 232.814548 215.74449 
L 233.45829 212.310906 
L 233.78016 217.00835 
L 234.148013 213.461671 
L 234.469883 215.495103 
L 234.791754 208.424175 
L 235.113625 212.348101 
L 235.435495 214.199287 
L 235.757366 210.669915 
L 236.125218 209.78316 
L 236.447089 209.964058 
L 236.768959 215.682874 
L 237.09083 206.837089 
L 237.412701 209.43803 
L 237.734571 209.4869 
L 238.056442 213.601956 
L 238.378313 212.13866 
L 239.068036 206.390426 
L 239.389906 194.641885 
L 239.711777 200.821681 
L 240.033648 186.193662 
L 240.355518 201.575269 
L 240.677389 173.100136 
L 240.99926 193.815821 
L 241.32113 184.25514 
L 241.643001 194.001039 
L 241.964872 190.645119 
L 242.286742 199.928912 
L 242.654595 202.956902 
L 242.976465 184.334391 
L 243.298336 202.752405 
L 243.620207 202.126223 
L 244.080022 213.320393 
L 244.447874 211.041973 
L 244.769745 210.120725 
L 245.137597 196.284957 
L 245.459468 209.02038 
L 245.781338 207.748421 
L 246.103209 201.178 
L 246.471061 207.695103 
L 246.792932 202.550702 
L 247.436673 200.845778 
L 247.758544 208.560971 
L 248.080415 196.931274 
L 248.402285 202.953213 
L 248.724156 205.358717 
L 249.092008 210.999397 
L 249.413879 203.337734 
L 249.73575 212.353104 
L 250.05762 207.666689 
L 250.379491 210.248032 
L 250.701362 208.92722 
L 251.161177 208.272683 
L 251.483048 214.082022 
L 252.126789 209.987303 
L 252.44866 214.351653 
L 252.816512 210.689548 
L 253.138382 212.696893 
L 253.460253 212.643598 
L 253.782124 213.350204 
L 254.103994 214.670545 
L 254.425865 213.777167 
L 254.747736 210.141567 
L 255.069606 215.085584 
L 255.391477 213.488801 
L 255.759329 215.936059 
L 256.0812 215.750251 
L 256.403071 215.764692 
L 256.724941 213.107759 
L 257.046812 209.369739 
L 257.368683 215.209607 
L 257.690553 214.618347 
L 258.012424 212.540345 
L 258.334295 208.308158 
L 258.656165 213.452411 
L 258.978036 214.119223 
L 259.667759 212.688956 
L 259.98963 215.454186 
L 260.3115 215.027998 
L 260.633371 217.788521 
L 261.139168 213.896114 
L 261.461038 218.890557 
L 261.828891 213.249275 
L 262.150761 212.899274 
L 262.472632 212.06182 
L 262.794503 209.40598 
L 263.162355 214.354933 
L 263.484226 214.476214 
L 263.806096 216.868271 
L 264.127967 216.340583 
L 264.449838 217.597278 
L 264.771708 216.139829 
L 265.093579 217.616628 
L 265.461431 216.261291 
L 265.783302 216.890454 
L 267.070785 204.817005 
L 267.392655 209.979082 
L 267.714526 208.519349 
L 268.082378 205.496476 
L 268.726119 213.237522 
L 269.04799 214.292736 
L 269.369861 212.120152 
L 269.829676 212.452488 
L 270.151547 209.354402 
L 270.473417 211.737073 
L 270.795288 212.625125 
L 271.117159 216.550917 
L 271.439029 212.688318 
L 271.7609 213.168051 
L 272.082771 211.427616 
L 272.450623 210.350341 
L 272.772494 217.101678 
L 273.094364 215.405791 
L 273.416235 212.248878 
L 273.738106 212.769233 
L 274.059976 217.68423 
L 274.381847 213.71874 
L 274.703718 217.185122 
L 275.025588 217.305728 
L 275.347459 213.441405 
L 275.66933 214.574976 
L 276.359053 211.615469 
L 276.680923 216.347732 
L 277.002794 217.097452 
L 277.324665 218.295802 
L 277.692517 218.906299 
L 278.014388 216.235568 
L 278.336258 216.767203 
L 278.70411 215.710061 
L 279.025981 213.707591 
L 279.347852 215.209885 
L 279.669722 217.39058 
L 279.991593 217.598372 
L 280.451408 212.233656 
L 280.773279 211.88516 
L 281.09515 212.723569 
L 281.41702 210.250241 
L 281.738891 216.483421 
L 282.382632 218.230081 
L 282.704503 215.843994 
L 283.072355 216.298912 
L 283.394226 217.28315 
L 283.716097 215.011729 
L 284.037967 215.730983 
L 284.359838 214.644959 
L 284.72769 211.601488 
L 285.049561 216.821351 
L 285.371432 211.541474 
L 285.693302 215.294464 
L 286.015173 213.39409 
L 286.383025 215.557649 
L 286.704896 214.963764 
L 287.026767 213.498273 
L 287.348637 214.634625 
L 287.670508 206.336634 
L 287.992379 187.346753 
L 288.314249 204.150043 
L 288.63612 206.815508 
L 288.957991 210.495809 
L 289.325843 205.863125 
L 289.647713 216.792428 
L 289.969584 209.14822 
L 290.291455 206.613128 
L 290.613325 206.017926 
L 290.935196 210.660589 
L 291.257067 208.544702 
L 291.578937 207.521615 
L 291.900808 206.029586 
L 292.222679 205.82294 
L 292.54455 213.663223 
L 293.004365 207.169912 
L 293.326235 208.290942 
L 293.648106 210.339865 
L 293.969977 214.946299 
L 294.337829 212.487348 
L 294.705681 212.724305 
L 295.027552 217.110651 
L 295.395404 216.155395 
L 296.039145 216.890844 
L 296.682887 214.912174 
L 297.050739 217.969247 
L 297.37261 216.904466 
L 297.69448 213.429781 
L 298.016351 214.853504 
L 298.338222 216.855519 
L 298.660092 215.05584 
L 299.119908 214.940958 
L 299.441778 211.62503 
L 300.08552 215.768247 
L 300.40739 214.539964 
L 300.729261 216.616885 
L 301.051132 212.547497 
L 301.418984 216.610719 
L 301.740855 212.042563 
L 302.062725 211.482815 
L 302.384596 214.895203 
L 302.706467 211.619442 
L 303.028337 213.411099 
L 303.396189 217.196689 
L 303.71806 214.430936 
L 304.039931 216.050308 
L 304.361801 212.769058 
L 304.683672 213.755981 
L 305.005543 218.914401 
L 305.327414 217.324909 
L 305.649284 216.496915 
L 306.017136 213.117801 
L 306.339007 214.753738 
L 306.660878 218.055355 
L 306.982748 215.058569 
L 307.304619 217.069129 
L 307.62649 217.093592 
L 307.94836 216.003519 
L 308.270231 214.181245 
L 308.776028 215.218516 
L 309.097899 211.814609 
L 309.419769 212.002295 
L 309.787621 215.441934 
L 310.109492 216.642258 
L 310.431363 218.276324 
L 310.753233 214.41107 
L 311.121086 216.112855 
L 311.488938 210.460671 
L 311.810809 216.724943 
L 312.132679 218.115116 
L 312.500531 218.357058 
L 312.822402 216.019448 
L 313.144273 214.56776 
L 313.466143 219.058498 
L 313.925959 212.265876 
L 314.247829 216.594396 
L 314.5697 217.647662 
L 314.891571 217.113503 
L 315.213441 215.533408 
L 315.581294 216.689048 
L 315.903164 215.340693 
L 316.225035 210.376718 
L 316.546906 213.072156 
L 316.868776 217.545513 
L 317.190647 214.775362 
L 317.512518 216.511232 
L 317.834388 216.12645 
L 318.202241 216.093985 
L 318.524111 213.816194 
L 318.845982 213.450811 
L 319.167853 212.49825 
L 319.489723 210.265225 
L 319.811594 217.025938 
L 320.179446 216.599612 
L 320.501317 217.671759 
L 320.823188 217.985628 
L 321.145058 215.905118 
L 321.466929 217.288883 
L 321.7888 215.757603 
L 322.11067 215.715673 
L 322.432541 214.588286 
L 322.800393 217.069573 
L 323.122264 216.562672 
L 323.444134 215.126043 
L 323.766005 217.692509 
L 324.409746 211.381601 
L 324.731617 215.029259 
L 325.053488 217.126387 
L 325.375359 216.949339 
L 325.697229 213.609299 
L 326.0191 217.227442 
L 326.340971 216.340026 
L 326.800786 218.521221 
L 327.122656 215.847786 
L 327.444527 215.742787 
L 327.766398 215.0265 
L 328.13425 218.260278 
L 328.823973 214.335167 
L 329.191825 216.920652 
L 329.513696 211.711918 
L 329.835566 211.14455 
L 330.157437 216.103676 
L 330.525289 216.544913 
L 330.84716 217.746032 
L 331.169031 214.639479 
L 331.490901 216.710229 
L 331.812772 215.458127 
L 332.134643 216.421117 
L 332.456513 214.555226 
L 332.778384 211.861941 
L 333.238199 217.493882 
L 333.56007 216.60455 
L 333.881941 218.209654 
L 334.203811 215.311335 
L 334.525682 216.152336 
L 334.893534 216.220465 
L 335.215405 218.145791 
L 335.537276 218.002877 
L 335.859146 217.044204 
L 336.181017 216.583575 
L 336.502888 217.63651 
L 336.87074 216.358566 
L 337.19261 217.31402 
L 337.514481 214.544319 
L 337.836352 218.022362 
L 338.158223 213.275386 
L 338.801964 217.753495 
L 339.491687 218.446718 
L 339.813557 216.74474 
L 340.135428 216.497941 
L 340.457299 214.158643 
L 340.779169 214.865778 
L 341.10104 209.536963 
L 341.422911 214.925904 
L 341.744781 213.519844 
L 342.066652 216.12273 
L 342.388523 216.254682 
L 342.710394 218.846598 
L 343.032264 218.187999 
L 343.400116 217.7371 
L 343.721987 216.571451 
L 344.365728 210.523429 
L 344.825544 218.696513 
L 345.515267 212.300496 
L 345.883119 214.177855 
L 346.204989 212.188919 
L 346.52686 212.283359 
L 346.848731 215.191131 
L 347.216583 217.051339 
L 347.538454 217.761649 
L 347.860324 216.88694 
L 348.182195 212.018324 
L 348.504066 213.72033 
L 348.825936 214.423357 
L 349.147807 214.770222 
L 349.515659 217.641115 
L 349.83753 215.791102 
L 350.159401 217.264013 
L 350.481271 214.747457 
L 350.803142 213.826293 
L 351.446883 218.313632 
L 351.906699 215.044434 
L 352.228569 216.999252 
L 352.55044 215.157925 
L 352.872311 216.15761 
L 353.194181 214.220796 
L 353.562033 216.935966 
L 353.883904 212.483111 
L 354.205775 216.949931 
L 354.527645 214.267016 
L 354.849516 217.103194 
L 355.171387 214.091485 
L 355.493258 217.656944 
L 355.815128 211.559866 
L 356.136999 203.018858 
L 356.504851 208.377802 
L 356.826722 215.84552 
L 357.148592 214.475965 
L 357.470463 209.771706 
L 357.792334 214.241017 
L 358.114204 215.938841 
L 358.436075 214.870328 
L 358.757946 214.349003 
L 359.401687 216.988908 
L 359.723558 210.942044 
L 360.045429 218.421659 
L 360.413281 213.552934 
L 360.735151 212.312861 
L 361.057022 210.148426 
L 361.378893 212.135508 
L 361.88469 213.640058 
L 362.20656 213.033024 
L 362.574412 208.308598 
L 362.896283 209.972104 
L 363.218154 209.397454 
L 363.540024 213.266976 
L 363.907877 211.216847 
L 364.229747 213.480912 
L 364.551618 212.098025 
L 364.873489 215.594217 
L 365.195359 215.020613 
L 365.51723 216.600687 
L 365.885082 217.027358 
L 366.206953 213.563354 
L 366.528824 216.193929 
L 366.850694 216.992444 
L 367.172565 216.871277 
L 367.816306 214.828914 
L 368.138177 214.878521 
L 368.460048 215.844743 
L 368.8279 217.927013 
L 369.14977 216.263993 
L 369.471641 217.216558 
L 369.793512 207.684063 
L 370.897068 217.644648 
L 371.218939 217.256631 
L 371.54081 218.832838 
L 371.86268 216.312088 
L 372.184551 217.869487 
L 372.506422 217.792489 
L 372.828293 217.26066 
L 373.196145 217.899754 
L 373.518015 210.383271 
L 373.839886 216.482432 
L 374.161757 214.42475 
L 374.483627 215.220501 
L 374.805498 215.341294 
L 375.127369 217.363529 
L 375.449239 217.682108 
L 375.77111 218.186501 
L 376.092981 212.585837 
L 376.414851 216.44632 
L 376.736722 217.145719 
L 377.104574 217.485205 
L 377.426445 215.8499 
L 377.748316 215.991048 
L 378.070186 217.86538 
L 378.805891 216.48647 
L 379.127761 218.064046 
L 379.587577 217.753656 
L 379.909447 216.115741 
L 380.231318 217.462041 
L 380.553189 218.144013 
L 380.921041 218.000885 
L 381.242912 218.681892 
L 381.564782 214.933968 
L 381.886653 218.082634 
L 382.208524 215.144081 
L 382.530394 217.502873 
L 382.852265 218.410131 
L 383.174136 218.523938 
L 383.541988 216.085753 
L 383.863859 216.149714 
L 384.185729 218.738419 
L 384.5076 218.52897 
L 384.829471 214.321805 
L 385.151341 218.480578 
L 385.519193 217.401972 
L 385.841064 218.1678 
L 386.162935 218.080577 
L 386.806676 215.197069 
L 387.174528 216.071877 
L 387.496399 217.738219 
L 388.14014 218.622858 
L 388.462011 218.542655 
L 388.783882 215.541566 
L 389.105752 214.003726 
L 389.749494 218.279354 
L 390.209309 215.539671 
L 390.53118 218.707956 
L 390.85305 218.531359 
L 391.174921 218.585933 
L 391.496792 217.889415 
L 391.818662 218.728459 
L 392.462404 216.629818 
L 392.784274 219.054243 
L 393.106145 218.442629 
L 393.428016 216.449302 
L 393.795868 216.873832 
L 394.117739 216.845171 
L 394.439609 218.428287 
L 394.76148 216.21712 
L 395.129332 218.925262 
L 395.497184 216.482619 
L 395.819055 217.447165 
L 396.186907 216.314723 
L 396.508778 216.441372 
L 396.830649 214.194649 
L 397.152519 202.172387 
L 397.47439 215.73984 
L 397.934205 213.543188 
L 398.256076 212.621992 
L 398.577947 215.077185 
L 398.899817 215.896301 
L 399.221688 206.773142 
L 399.58954 209.375613 
L 399.911411 210.384139 
L 400.233282 215.157185 
L 400.555152 215.995873 
L 401.198894 215.082846 
L 401.520764 215.469065 
L 401.842635 216.882062 
L 402.210487 214.214066 
L 402.532358 215.38013 
L 402.854228 218.007228 
L 403.176099 218.046538 
L 403.49797 215.420544 
L 403.865822 216.476503 
L 404.187693 215.466855 
L 404.509563 217.823178 
L 404.831434 216.757683 
L 405.153305 216.276749 
L 405.475175 218.111695 
L 405.797046 215.074103 
L 406.118917 218.41545 
L 406.440787 216.589993 
L 406.80864 218.834814 
L 407.13051 218.369668 
L 407.452381 216.490142 
L 407.774252 218.112 
L 408.096122 216.731052 
L 408.417993 208.1127 
L 408.739864 211.521366 
L 409.061734 208.296599 
L 409.383605 213.228004 
L 409.705476 212.685634 
L 410.027346 212.647391 
L 410.487162 210.944522 
L 410.809032 213.917094 
L 411.176885 209.886926 
L 411.498755 212.138017 
L 411.866607 200.515997 
L 412.23446 211.147678 
L 412.55633 211.975037 
L 412.878201 215.811965 
L 413.246053 213.288022 
L 413.567924 214.098684 
L 413.889794 215.775978 
L 414.211665 215.604647 
L 414.67148 217.537915 
L 414.993351 217.104221 
L 415.315222 214.125018 
L 415.637092 217.927481 
L 415.958963 213.042997 
L 416.602704 218.654702 
L 416.924575 216.764996 
L 417.292427 217.161511 
L 417.614298 218.153803 
L 417.936169 213.82507 
L 418.258039 211.956404 
L 418.57991 214.891789 
L 418.947762 216.518451 
L 419.269633 211.764385 
L 419.591504 216.591791 
L 419.913374 217.10368 
L 420.235245 215.529077 
L 420.557116 218.376855 
L 421.89058 215.239201 
L 422.212451 207.799335 
L 422.534321 209.344681 
L 422.856192 213.959746 
L 423.178063 209.796858 
L 423.867785 217.697374 
L 424.189656 217.869954 
L 424.511527 216.280197 
L 424.833397 211.140971 
L 425.155268 212.780091 
L 425.477139 216.299786 
L 425.79901 217.34157 
L 426.12088 216.593897 
L 426.442751 218.512831 
L 426.764622 217.50825 
L 427.086492 218.335777 
L 427.546307 215.682877 
L 427.868178 215.683434 
L 428.51192 218.180662 
L 429.247624 215.859994 
L 429.569495 216.913035 
L 429.937347 217.146911 
L 430.259217 213.4166 
L 430.581088 211.755578 
L 430.902959 216.382656 
L 431.270811 216.084578 
L 431.592682 208.744375 
L 431.914552 195.626014 
L 432.236423 168.479774 
L 432.880164 185.73735 
L 433.202035 199.994353 
L 433.66185 200.369644 
L 433.983721 204.628673 
L 434.305592 206.501014 
L 434.627462 207.311414 
L 434.949333 213.853248 
L 435.271204 206.424755 
L 435.960927 215.880678 
L 436.282797 211.242165 
L 436.604668 199.670104 
L 436.926539 216.53932 
L 437.248409 206.431718 
L 437.616261 213.714787 
L 437.938132 213.318593 
L 438.260003 216.957267 
L 438.581874 213.242728 
L 438.903744 216.789074 
L 439.225615 214.743661 
L 439.547486 217.862078 
L 439.869356 217.44708 
L 440.191227 215.625335 
L 440.559079 206.284772 
L 440.88095 214.574085 
L 441.20282 211.317146 
L 441.524691 214.368717 
L 441.846562 210.438496 
L 442.168432 213.46498 
L 442.490303 214.250743 
L 442.812174 207.92099 
L 443.455915 214.482833 
L 443.777786 213.0703 
L 444.467509 215.637626 
L 444.789379 217.32137 
L 445.11125 215.315704 
L 445.571065 216.641253 
L 445.938918 214.187378 
L 446.260788 214.860786 
L 446.62864 214.402034 
L 447.272382 210.767491 
L 447.594252 216.576702 
L 447.962105 217.64538 
L 448.283975 211.441761 
L 448.605846 210.176563 
L 448.927717 213.920739 
L 449.249587 214.644318 
L 449.571458 215.732994 
L 449.893329 214.533886 
L 450.261181 216.01405 
L 450.583052 216.246815 
L 450.904922 213.796765 
L 451.226793 216.592518 
L 451.548664 216.006024 
L 451.870534 209.990355 
L 452.192405 215.380857 
L 452.514276 216.932616 
L 452.974091 216.809524 
L 453.295962 218.234849 
L 453.617832 213.58156 
L 453.939703 218.033898 
L 454.307555 217.3387 
L 454.951296 212.580303 
L 455.273167 216.090516 
L 455.595038 216.429405 
L 455.916909 217.311159 
L 456.238779 216.994222 
L 456.56065 214.873239 
L 457.250373 218.301846 
L 457.894114 213.540541 
L 458.215985 212.326227 
L 458.537855 212.302125 
L 458.859726 216.12124 
L 459.181597 216.315577 
L 459.503467 217.331773 
L 459.825338 217.616538 
L 460.147209 216.451929 
L 460.79095 218.015217 
L 461.158802 208.689552 
L 461.480673 212.034683 
L 461.802544 212.303973 
L 462.124414 211.745158 
L 462.492267 215.404422 
L 462.814137 213.746413 
L 463.136008 214.363602 
L 463.595823 214.221916 
L 463.917694 209.912347 
L 464.239565 211.080468 
L 464.561435 210.279847 
L 464.929287 211.163281 
L 465.251158 208.510127 
L 465.573029 209.066264 
L 465.894899 208.781769 
L 466.21677 214.751908 
L 466.538641 213.193206 
L 466.860512 213.384305 
L 467.182382 214.733732 
L 467.550234 212.864861 
L 467.872105 209.658633 
L 468.193976 203.489974 
L 468.515846 209.339811 
L 468.837717 203.679716 
L 469.159588 212.860393 
L 469.52744 210.191755 
L 469.849311 211.11843 
L 470.171181 205.561857 
L 470.539034 211.213048 
L 470.860904 212.701691 
L 471.320719 213.834731 
L 471.964461 211.392231 
L 472.286331 210.554944 
L 472.608202 214.480897 
L 472.930073 212.809086 
L 473.251944 213.411216 
L 473.573814 208.571929 
L 473.941666 216.09165 
L 474.263537 203.712749 
L 474.585408 214.42995 
L 474.907278 215.726274 
L 475.229149 204.744753 
L 475.55102 213.389251 
L 475.87289 206.566757 
L 476.194761 211.004014 
L 476.516632 211.181312 
L 476.838502 209.665414 
L 477.160373 202.048863 
L 477.482244 214.378702 
L 477.850096 209.254811 
L 478.171967 214.565209 
L 478.493837 213.886175 
L 478.815708 210.47701 
L 479.18356 211.524884 
L 479.551412 211.518508 
L 479.873283 216.606125 
L 480.333098 210.972108 
L 480.654969 214.371086 
L 480.97684 212.288717 
L 481.666563 213.65947 
L 481.988433 215.889054 
L 482.310304 212.297879 
L 482.632175 211.08719 
L 482.954045 211.922548 
L 483.275916 214.266228 
L 483.597787 214.527779 
L 483.965639 217.850139 
L 484.28751 216.001824 
L 484.60938 215.432509 
L 484.931251 212.030487 
L 485.574992 215.445734 
L 485.896863 214.815267 
L 486.264715 214.821877 
L 486.586586 215.202812 
L 486.908456 216.627762 
L 487.276309 217.047257 
L 487.598179 215.209921 
L 488.057995 217.207022 
L 488.379865 217.354708 
L 488.701736 216.489666 
L 489.023607 216.086912 
L 489.345477 214.63058 
L 489.667348 216.71456 
L 490.311089 213.635327 
L 491.000812 216.225811 
L 491.322683 215.07841 
L 491.644554 214.35708 
L 491.966424 215.200542 
L 492.288295 216.751688 
L 493.253907 212.60782 
L 493.575778 215.488949 
L 493.897648 212.608767 
L 494.219519 217.609229 
L 494.587371 218.297551 
L 494.909242 216.716432 
L 495.231113 217.16871 
L 495.552983 214.528064 
L 495.920835 217.245826 
L 496.288688 217.435521 
L 496.610558 215.73447 
L 497.070374 214.922086 
L 497.392244 217.671135 
L 497.714115 212.510709 
L 498.035986 217.388659 
L 498.403838 213.859695 
L 498.725708 213.72915 
L 499.047579 215.330441 
L 499.36945 215.026675 
L 499.691321 216.240859 
L 500.013191 216.560891 
L 500.381043 216.144325 
L 500.702914 213.919941 
L 501.346655 214.524285 
L 501.668526 213.707165 
L 501.990397 216.242183 
L 502.312267 216.9069 
L 502.634138 218.327113 
L 503.00199 215.825675 
L 503.323861 216.498185 
L 503.645732 217.579308 
L 504.013584 217.174713 
L 504.335455 217.64273 
L 504.335455 217.64273 
" clip-path="url(#p1a1e6928fa)" style="fill: none; stroke: #808080; stroke-width: 1.5; stroke-linecap: square"/>
   </g>
   <g id="line2d_26">
    <path d="M 110.043876 140.625202 
L 118.412514 144.616064 
L 127.011059 77.621176 
L 135.379696 114.130741 
L 143.702352 116.114868 
L 152.07099 131.908894 
L 160.393646 135.800179 
L 168.808265 152.982688 
L 176.992977 130.879724 
L 185.315633 122.975977 
L 193.638289 121.329941 
L 202.006926 149.281576 
L 210.329582 125.219812 
L 218.744202 148.853389 
L 227.020876 105.439507 
L 235.435495 88.98549 
L 243.620207 81.981299 
L 252.126789 72.313235 
L 260.3115 145.665865 
L 268.726119 123.960541 
L 277.002794 99.843542 
L 285.371432 101.250055 
L 293.648106 72.905996 
L 302.062725 70.293876 
L 310.431363 121.428732 
L 318.845982 127.03014 
L 327.122656 168.837645 
L 335.537276 156.327849 
L 343.721987 117.697148 
L 352.228569 112.276279 
L 360.413281 125.394462 
L 368.8279 118.794127 
L 377.104574 127.153021 
L 385.519193 112.102349 
L 393.795868 109.833093 
L 402.210487 104.845018 
L 410.487162 118.915618 
L 418.947762 56.77589 
L 427.086492 75.010082 
L 435.639056 52.731 
L 443.777786 58.464331 
L 452.192405 129.676525 
L 460.46908 176.750992 
L 468.837717 148.474557 
L 477.160373 164.661698 
L 485.574992 141.722554 
" clip-path="url(#p1a1e6928fa)" style="fill: none; stroke-dasharray: 1.5,2.475; stroke-dashoffset: 0; stroke: #ff0000; stroke-width: 1.5"/>
   </g>
   <g id="line2d_27">
    <path d="M 110.043876 226.463243 
L 118.412514 223.116464 
L 127.011059 195.37036 
L 135.379696 215.119918 
L 143.702352 197.394201 
L 152.07099 211.191964 
L 160.393646 205.658194 
L 168.808265 208.127361 
L 176.992977 213.84195 
L 185.315633 207.615395 
L 193.638289 224.149384 
L 202.006926 260.78862 
L 210.329582 290.871 
L 218.744202 274.119631 
L 227.020876 266.500939 
L 235.435495 266.228334 
L 243.620207 253.220437 
L 252.126789 252.699343 
L 260.3115 216.12323 
L 268.726119 167.298238 
L 277.002794 161.420352 
L 285.371432 171.075689 
L 293.648106 172.82076 
L 302.062725 182.030566 
L 310.431363 192.687554 
L 318.845982 185.482131 
L 327.122656 192.811696 
L 335.537276 165.88028 
L 343.721987 204.813766 
L 352.228569 207.024507 
L 360.413281 191.677328 
L 368.8279 199.346863 
L 377.104574 148.048761 
L 385.519193 153.778328 
L 393.795868 181.926175 
L 402.210487 191.341999 
L 410.487162 188.735351 
L 418.947762 124.447223 
L 427.086492 161.119613 
L 435.639056 146.806408 
L 443.777786 137.600945 
L 452.192405 188.491872 
L 460.46908 197.433249 
L 468.837717 215.863055 
L 477.160373 226.580913 
L 485.574992 250.595948 
" clip-path="url(#p1a1e6928fa)" style="fill: none; stroke-dasharray: 9.6,2.4,1.5,2.4; stroke-dashoffset: 0; stroke: #ff0000; stroke-width: 1.5"/>
   </g>
   <g id="line2d_28">
    <path d="M 110.043876 202.6019 
L 118.412514 204.497234 
L 127.011059 202.745306 
L 135.379696 215.500591 
L 143.702352 205.549822 
L 152.07099 228.679673 
L 160.393646 228.172542 
L 168.808265 238.083043 
L 176.992977 228.954742 
L 185.315633 226.971369 
L 193.638289 198.870096 
L 202.006926 215.161449 
L 210.329582 215.018745 
L 218.744202 228.889353 
L 227.020876 230.605711 
L 235.435495 184.344192 
L 243.620207 169.629252 
L 252.126789 167.883172 
L 260.3115 188.353622 
L 268.726119 179.812492 
L 277.002794 190.511056 
L 285.371432 184.437167 
L 293.648106 185.09921 
L 302.062725 205.863887 
L 310.431363 228.713962 
L 318.845982 233.073558 
L 327.122656 242.966564 
L 335.537276 223.096697 
L 343.721987 232.45544 
L 352.228569 202.502543 
L 360.413281 206.064833 
L 368.8279 198.220749 
L 377.104574 209.007756 
L 385.519193 244.714997 
L 393.795868 220.666047 
L 402.210487 188.03584 
L 410.487162 190.66485 
L 418.947762 208.265477 
L 427.086492 154.92764 
L 435.639056 146.685331 
L 443.777786 147.607396 
L 452.192405 217.853225 
L 460.46908 223.549823 
L 468.837717 209.034605 
L 477.160373 204.668116 
L 485.574992 216.436959 
" clip-path="url(#p1a1e6928fa)" style="fill: none; stroke-dasharray: 5.55,2.4; stroke-dashoffset: 0; stroke: #ff0000; stroke-width: 1.5"/>
   </g>
   <g id="line2d_29">
    <path d="M 110.043876 200.449263 
L 118.412514 212.014177 
L 127.011059 157.060002 
L 135.379696 201.151496 
L 143.702352 201.243003 
L 152.07099 211.794955 
L 160.393646 212.304072 
L 168.808265 212.311401 
L 176.992977 213.491058 
L 185.315633 191.682116 
L 193.638289 200.074749 
L 202.006926 210.368762 
L 210.329582 206.604753 
L 218.744202 208.418866 
L 227.020876 189.880597 
L 235.435495 185.037404 
L 243.620207 182.96782 
L 252.126789 176.058817 
L 260.3115 189.960194 
L 268.726119 168.040173 
L 277.002794 178.263344 
L 285.371432 179.35778 
L 293.648106 178.920634 
L 302.062725 188.259954 
L 310.431363 184.871765 
L 318.845982 196.574357 
L 327.122656 212.140303 
L 335.537276 207.361899 
L 343.721987 199.091767 
L 352.228569 200.463504 
L 360.413281 204.312958 
L 368.8279 202.669539 
L 377.104574 196.012116 
L 385.519193 204.526149 
L 393.795868 195.164229 
L 402.210487 191.240069 
L 410.487162 189.578821 
L 418.947762 90.746324 
L 427.086492 120.466545 
L 435.639056 111.541404 
L 443.777786 113.121128 
L 452.192405 207.001401 
L 460.46908 211.848608 
L 468.837717 210.136374 
L 477.160373 205.61216 
L 485.574992 206.696713 
" clip-path="url(#p1a1e6928fa)" style="fill: none; stroke: #ff0000; stroke-width: 1.5; stroke-linecap: square"/>
   </g>
   <g id="line2d_30">
    <path d="M 110.043876 199.210891 
L 118.412514 207.387297 
L 127.011059 186.227394 
L 135.379696 197.433152 
L 143.702352 193.785181 
L 152.07099 196.65306 
L 160.393646 207.858269 
L 168.808265 215.870063 
L 176.992977 212.069949 
L 185.315633 197.841658 
L 193.638289 187.917123 
L 202.006926 199.325441 
L 210.329582 203.094682 
L 218.744202 207.8302 
L 227.020876 185.932012 
L 235.435495 183.728719 
L 243.620207 181.003676 
L 252.126789 185.961018 
L 260.3115 187.973172 
L 268.726119 170.297839 
L 277.002794 170.812639 
L 285.371432 170.676812 
L 293.648106 173.92904 
L 302.062725 190.348238 
L 310.431363 200.497531 
L 318.845982 203.966446 
L 327.122656 203.541295 
L 335.537276 201.378027 
L 343.721987 197.273343 
L 352.228569 194.308859 
L 360.413281 191.111261 
L 368.8279 197.662715 
L 377.104574 196.5002 
L 385.519193 203.02245 
L 393.795868 188.212595 
L 402.210487 178.021848 
L 410.487162 180.51196 
L 418.947762 126.440772 
L 427.086492 115.278341 
L 435.639056 111.848861 
L 443.777786 138.008011 
L 452.192405 197.193228 
L 460.46908 204.14064 
L 468.837717 207.135601 
L 477.160373 209.926891 
L 485.574992 215.883167 
" clip-path="url(#p1a1e6928fa)" style="fill: none; stroke: #ff7f0e; stroke-width: 1.5; stroke-linecap: square"/>
   </g>
   <g id="line2d_31">
    <path d="M 110.043876 198.64378 
L 118.412514 205.898635 
L 127.011059 170.00155 
L 135.379696 197.900722 
L 143.702352 196.240807 
L 152.07099 204.740209 
L 160.393646 207.167839 
L 168.808265 206.925424 
L 176.992977 210.006297 
L 185.315633 198.25842 
L 193.638289 193.277694 
L 202.006926 201.718525 
L 210.329582 196.909306 
L 218.744202 198.913543 
L 227.020876 182.641783 
L 235.435495 183.206367 
L 243.620207 181.169499 
L 252.126789 181.479921 
L 260.3115 187.129952 
L 268.726119 175.461113 
L 277.002794 176.156085 
L 285.371432 176.216607 
L 293.648106 176.650907 
L 302.062725 185.821624 
L 310.431363 194.559831 
L 318.845982 199.753638 
L 327.122656 202.894904 
L 335.537276 196.094854 
L 343.721987 194.294469 
L 352.228569 191.037855 
L 360.413281 193.870196 
L 368.8279 195.182561 
L 377.104574 196.547352 
L 385.519193 191.631221 
L 393.795868 182.565324 
L 402.210487 180.609642 
L 410.487162 184.757782 
L 418.947762 125.6795 
L 427.086492 145.161025 
L 435.639056 136.187392 
L 443.777786 141.431245 
L 452.192405 193.70412 
L 460.46908 199.004045 
L 468.837717 199.480262 
L 477.160373 200.200009 
L 485.574992 203.511014 
" clip-path="url(#p1a1e6928fa)" style="fill: none; stroke: #1f77b4; stroke-width: 1.5; stroke-linecap: square"/>
   </g>
   <g id="legend_1">
    <g id="patch_7">
     <path d="M 79.9 151.570875 
L 221.589063 151.570875 
Q 223.589063 151.570875 223.589063 149.570875 
L 223.589063 47.824 
Q 223.589063 45.824 221.589063 45.824 
L 79.9 45.824 
Q 77.9 45.824 77.9 47.824 
L 77.9 149.570875 
Q 77.9 151.570875 79.9 151.570875 
z
" style="fill: #ffffff; opacity: 0.8; stroke: #e6e6e6; stroke-linejoin: miter"/>
    </g>
    <g id="line2d_32">
     <path d="M 81.9 53.922438 
L 91.9 53.922438 
L 101.9 53.922438 
" style="fill: none; stroke: #808080; stroke-width: 1.5; stroke-linecap: square"/>
    </g>
    <g id="text_15">
     <!-- S&amp;P 500 Log-Volatility -->
     <g transform="translate(109.9 57.422438)scale(0.1 -0.1)">
      <defs>
       <path id="DejaVuSans-53" d="M 3425 4513 
L 3425 3897 
Q 3066 4069 2747 4153 
Q 2428 4238 2131 4238 
Q 1616 4238 1336 4038 
Q 1056 3838 1056 3469 
Q 1056 3159 1242 3001 
Q 1428 2844 1947 2747 
L 2328 2669 
Q 3034 2534 3370 2195 
Q 3706 1856 3706 1288 
Q 3706 609 3251 259 
Q 2797 -91 1919 -91 
Q 1588 -91 1214 -16 
Q 841 59 441 206 
L 441 856 
Q 825 641 1194 531 
Q 1563 422 1919 422 
Q 2459 422 2753 634 
Q 3047 847 3047 1241 
Q 3047 1584 2836 1778 
Q 2625 1972 2144 2069 
L 1759 2144 
Q 1053 2284 737 2584 
Q 422 2884 422 3419 
Q 422 4038 858 4394 
Q 1294 4750 2059 4750 
Q 2388 4750 2728 4690 
Q 3069 4631 3425 4513 
z
" transform="scale(0.015625)"/>
       <path id="DejaVuSans-26" d="M 1556 2509 
Q 1272 2256 1139 2004 
Q 1006 1753 1006 1478 
Q 1006 1022 1337 719 
Q 1669 416 2169 416 
Q 2466 416 2725 514 
Q 2984 613 3213 813 
L 1556 2509 
z
M 1997 2859 
L 3584 1234 
Q 3769 1513 3872 1830 
Q 3975 2147 3994 2503 
L 4575 2503 
Q 4538 2091 4375 1687 
Q 4213 1284 3922 891 
L 4794 0 
L 4006 0 
L 3559 459 
Q 3234 181 2878 45 
Q 2522 -91 2113 -91 
Q 1359 -91 881 339 
Q 403 769 403 1441 
Q 403 1841 612 2192 
Q 822 2544 1241 2853 
Q 1091 3050 1012 3245 
Q 934 3441 934 3628 
Q 934 4134 1281 4442 
Q 1628 4750 2203 4750 
Q 2463 4750 2720 4694 
Q 2978 4638 3244 4525 
L 3244 3956 
Q 2972 4103 2725 4179 
Q 2478 4256 2266 4256 
Q 1938 4256 1733 4082 
Q 1528 3909 1528 3634 
Q 1528 3475 1620 3314 
Q 1713 3153 1997 2859 
z
" transform="scale(0.015625)"/>
       <path id="DejaVuSans-50" d="M 1259 4147 
L 1259 2394 
L 2053 2394 
Q 2494 2394 2734 2622 
Q 2975 2850 2975 3272 
Q 2975 3691 2734 3919 
Q 2494 4147 2053 4147 
L 1259 4147 
z
M 628 4666 
L 2053 4666 
Q 2838 4666 3239 4311 
Q 3641 3956 3641 3272 
Q 3641 2581 3239 2228 
Q 2838 1875 2053 1875 
L 1259 1875 
L 1259 0 
L 628 0 
L 628 4666 
z
" transform="scale(0.015625)"/>
       <path id="DejaVuSans-35" d="M 691 4666 
L 3169 4666 
L 3169 4134 
L 1269 4134 
L 1269 2991 
Q 1406 3038 1543 3061 
Q 1681 3084 1819 3084 
Q 2600 3084 3056 2656 
Q 3513 2228 3513 1497 
Q 3513 744 3044 326 
Q 2575 -91 1722 -91 
Q 1428 -91 1123 -41 
Q 819 9 494 109 
L 494 744 
Q 775 591 1075 516 
Q 1375 441 1709 441 
Q 2250 441 2565 725 
Q 2881 1009 2881 1497 
Q 2881 1984 2565 2268 
Q 2250 2553 1709 2553 
Q 1456 2553 1204 2497 
Q 953 2441 691 2322 
L 691 4666 
z
" transform="scale(0.015625)"/>
       <path id="DejaVuSans-4c" d="M 628 4666 
L 1259 4666 
L 1259 531 
L 3531 531 
L 3531 0 
L 628 0 
L 628 4666 
z
" transform="scale(0.015625)"/>
       <path id="DejaVuSans-67" d="M 2906 1791 
Q 2906 2416 2648 2759 
Q 2391 3103 1925 3103 
Q 1463 3103 1205 2759 
Q 947 2416 947 1791 
Q 947 1169 1205 825 
Q 1463 481 1925 481 
Q 2391 481 2648 825 
Q 2906 1169 2906 1791 
z
M 3481 434 
Q 3481 -459 3084 -895 
Q 2688 -1331 1869 -1331 
Q 1566 -1331 1297 -1286 
Q 1028 -1241 775 -1147 
L 775 -588 
Q 1028 -725 1275 -790 
Q 1522 -856 1778 -856 
Q 2344 -856 2625 -561 
Q 2906 -266 2906 331 
L 2906 616 
Q 2728 306 2450 153 
Q 2172 0 1784 0 
Q 1141 0 747 490 
Q 353 981 353 1791 
Q 353 2603 747 3093 
Q 1141 3584 1784 3584 
Q 2172 3584 2450 3431 
Q 2728 3278 2906 2969 
L 2906 3500 
L 3481 3500 
L 3481 434 
z
" transform="scale(0.015625)"/>
      </defs>
      <use xlink:href="#DejaVuSans-53"/>
      <use xlink:href="#DejaVuSans-26" x="63.476562"/>
      <use xlink:href="#DejaVuSans-50" x="141.455078"/>
      <use xlink:href="#DejaVuSans-20" x="201.757812"/>
      <use xlink:href="#DejaVuSans-35" x="233.544922"/>
      <use xlink:href="#DejaVuSans-30" x="297.167969"/>
      <use xlink:href="#DejaVuSans-30" x="360.791016"/>
      <use xlink:href="#DejaVuSans-20" x="424.414062"/>
      <use xlink:href="#DejaVuSans-4c" x="456.201172"/>
      <use xlink:href="#DejaVuSans-6f" x="510.164062"/>
      <use xlink:href="#DejaVuSans-67" x="571.345703"/>
      <use xlink:href="#DejaVuSans-2d" x="634.822266"/>
      <use xlink:href="#DejaVuSans-56" x="665.03125"/>
      <use xlink:href="#DejaVuSans-6f" x="725.689453"/>
      <use xlink:href="#DejaVuSans-6c" x="786.871094"/>
      <use xlink:href="#DejaVuSans-61" x="814.654297"/>
      <use xlink:href="#DejaVuSans-74" x="875.933594"/>
      <use xlink:href="#DejaVuSans-69" x="915.142578"/>
      <use xlink:href="#DejaVuSans-6c" x="942.925781"/>
      <use xlink:href="#DejaVuSans-69" x="970.708984"/>
      <use xlink:href="#DejaVuSans-74" x="998.492188"/>
      <use xlink:href="#DejaVuSans-79" x="1037.701172"/>
     </g>
    </g>
    <g id="line2d_33">
     <path d="M 81.9 68.600563 
L 91.9 68.600563 
L 101.9 68.600563 
" style="fill: none; stroke-dasharray: 1.5,2.475; stroke-dashoffset: 0; stroke: #ff0000; stroke-width: 1.5"/>
    </g>
    <g id="text_16">
     <!-- R/S Hurst -->
     <g transform="translate(109.9 72.100563)scale(0.1 -0.1)">
      <defs>
       <path id="DejaVuSans-52" d="M 2841 2188 
Q 3044 2119 3236 1894 
Q 3428 1669 3622 1275 
L 4263 0 
L 3584 0 
L 2988 1197 
Q 2756 1666 2539 1819 
Q 2322 1972 1947 1972 
L 1259 1972 
L 1259 0 
L 628 0 
L 628 4666 
L 2053 4666 
Q 2853 4666 3247 4331 
Q 3641 3997 3641 3322 
Q 3641 2881 3436 2590 
Q 3231 2300 2841 2188 
z
M 1259 4147 
L 1259 2491 
L 2053 2491 
Q 2509 2491 2742 2702 
Q 2975 2913 2975 3322 
Q 2975 3731 2742 3939 
Q 2509 4147 2053 4147 
L 1259 4147 
z
" transform="scale(0.015625)"/>
       <path id="DejaVuSans-2f" d="M 1625 4666 
L 2156 4666 
L 531 -594 
L 0 -594 
L 1625 4666 
z
" transform="scale(0.015625)"/>
      </defs>
      <use xlink:href="#DejaVuSans-52"/>
      <use xlink:href="#DejaVuSans-2f" x="69.482422"/>
      <use xlink:href="#DejaVuSans-53" x="103.173828"/>
      <use xlink:href="#DejaVuSans-20" x="166.650391"/>
      <use xlink:href="#DejaVuSans-48" x="198.4375"/>
      <use xlink:href="#DejaVuSans-75" x="273.632812"/>
      <use xlink:href="#DejaVuSans-72" x="337.011719"/>
      <use xlink:href="#DejaVuSans-73" x="378.125"/>
      <use xlink:href="#DejaVuSans-74" x="430.224609"/>
     </g>
    </g>
    <g id="line2d_34">
     <path d="M 81.9 83.278687 
L 91.9 83.278687 
L 101.9 83.278687 
" style="fill: none; stroke-dasharray: 9.6,2.4,1.5,2.4; stroke-dashoffset: 0; stroke: #ff0000; stroke-width: 1.5"/>
    </g>
    <g id="text_17">
     <!-- variogram Hurst -->
     <g transform="translate(109.9 86.778687)scale(0.1 -0.1)">
      <defs>
       <path id="DejaVuSans-76" d="M 191 3500 
L 800 3500 
L 1894 563 
L 2988 3500 
L 3597 3500 
L 2284 0 
L 1503 0 
L 191 3500 
z
" transform="scale(0.015625)"/>
      </defs>
      <use xlink:href="#DejaVuSans-76"/>
      <use xlink:href="#DejaVuSans-61" x="59.179688"/>
      <use xlink:href="#DejaVuSans-72" x="120.458984"/>
      <use xlink:href="#DejaVuSans-69" x="161.572266"/>
      <use xlink:href="#DejaVuSans-6f" x="189.355469"/>
      <use xlink:href="#DejaVuSans-67" x="250.537109"/>
      <use xlink:href="#DejaVuSans-72" x="314.013672"/>
      <use xlink:href="#DejaVuSans-61" x="355.126953"/>
      <use xlink:href="#DejaVuSans-6d" x="416.40625"/>
      <use xlink:href="#DejaVuSans-20" x="513.818359"/>
      <use xlink:href="#DejaVuSans-48" x="545.605469"/>
      <use xlink:href="#DejaVuSans-75" x="620.800781"/>
      <use xlink:href="#DejaVuSans-72" x="684.179688"/>
      <use xlink:href="#DejaVuSans-73" x="725.292969"/>
      <use xlink:href="#DejaVuSans-74" x="777.392578"/>
     </g>
    </g>
    <g id="line2d_35">
     <path d="M 81.9 97.956813 
L 91.9 97.956813 
L 101.9 97.956813 
" style="fill: none; stroke-dasharray: 5.55,2.4; stroke-dashoffset: 0; stroke: #ff0000; stroke-width: 1.5"/>
    </g>
    <g id="text_18">
     <!-- Higuchi Hurst -->
     <g transform="translate(109.9 101.456813)scale(0.1 -0.1)">
      <defs>
       <path id="DejaVuSans-63" d="M 3122 3366 
L 3122 2828 
Q 2878 2963 2633 3030 
Q 2388 3097 2138 3097 
Q 1578 3097 1268 2742 
Q 959 2388 959 1747 
Q 959 1106 1268 751 
Q 1578 397 2138 397 
Q 2388 397 2633 464 
Q 2878 531 3122 666 
L 3122 134 
Q 2881 22 2623 -34 
Q 2366 -91 2075 -91 
Q 1284 -91 818 406 
Q 353 903 353 1747 
Q 353 2603 823 3093 
Q 1294 3584 2113 3584 
Q 2378 3584 2631 3529 
Q 2884 3475 3122 3366 
z
" transform="scale(0.015625)"/>
       <path id="DejaVuSans-68" d="M 3513 2113 
L 3513 0 
L 2938 0 
L 2938 2094 
Q 2938 2591 2744 2837 
Q 2550 3084 2163 3084 
Q 1697 3084 1428 2787 
Q 1159 2491 1159 1978 
L 1159 0 
L 581 0 
L 581 4863 
L 1159 4863 
L 1159 2956 
Q 1366 3272 1645 3428 
Q 1925 3584 2291 3584 
Q 2894 3584 3203 3211 
Q 3513 2838 3513 2113 
z
" transform="scale(0.015625)"/>
      </defs>
      <use xlink:href="#DejaVuSans-48"/>
      <use xlink:href="#DejaVuSans-69" x="75.195312"/>
      <use xlink:href="#DejaVuSans-67" x="102.978516"/>
      <use xlink:href="#DejaVuSans-75" x="166.455078"/>
      <use xlink:href="#DejaVuSans-63" x="229.833984"/>
      <use xlink:href="#DejaVuSans-68" x="284.814453"/>
      <use xlink:href="#DejaVuSans-69" x="348.193359"/>
      <use xlink:href="#DejaVuSans-20" x="375.976562"/>
      <use xlink:href="#DejaVuSans-48" x="407.763672"/>
      <use xlink:href="#DejaVuSans-75" x="482.958984"/>
      <use xlink:href="#DejaVuSans-72" x="546.337891"/>
      <use xlink:href="#DejaVuSans-73" x="587.451172"/>
      <use xlink:href="#DejaVuSans-74" x="639.550781"/>
     </g>
    </g>
    <g id="line2d_36">
     <path d="M 81.9 112.634938 
L 91.9 112.634938 
L 101.9 112.634938 
" style="fill: none; stroke: #ff0000; stroke-width: 1.5; stroke-linecap: square"/>
    </g>
    <g id="text_19">
     <!-- Whittle Hurst -->
     <g transform="translate(109.9 116.134938)scale(0.1 -0.1)">
      <defs>
       <path id="DejaVuSans-57" d="M 213 4666 
L 850 4666 
L 1831 722 
L 2809 4666 
L 3519 4666 
L 4500 722 
L 5478 4666 
L 6119 4666 
L 4947 0 
L 4153 0 
L 3169 4050 
L 2175 0 
L 1381 0 
L 213 4666 
z
" transform="scale(0.015625)"/>
      </defs>
      <use xlink:href="#DejaVuSans-57"/>
      <use xlink:href="#DejaVuSans-68" x="98.876953"/>
      <use xlink:href="#DejaVuSans-69" x="162.255859"/>
      <use xlink:href="#DejaVuSans-74" x="190.039062"/>
      <use xlink:href="#DejaVuSans-74" x="229.248047"/>
      <use xlink:href="#DejaVuSans-6c" x="268.457031"/>
      <use xlink:href="#DejaVuSans-65" x="296.240234"/>
      <use xlink:href="#DejaVuSans-20" x="357.763672"/>
      <use xlink:href="#DejaVuSans-48" x="389.550781"/>
      <use xlink:href="#DejaVuSans-75" x="464.746094"/>
      <use xlink:href="#DejaVuSans-72" x="528.125"/>
      <use xlink:href="#DejaVuSans-73" x="569.238281"/>
      <use xlink:href="#DejaVuSans-74" x="621.337891"/>
     </g>
    </g>
    <g id="line2d_37">
     <path d="M 81.9 127.313063 
L 91.9 127.313063 
L 101.9 127.313063 
" style="fill: none; stroke: #ff7f0e; stroke-width: 1.5; stroke-linecap: square"/>
    </g>
    <g id="text_20">
     <!-- 1D CNN Hurst -->
     <g transform="translate(109.9 130.813063)scale(0.1 -0.1)">
      <defs>
       <path id="DejaVuSans-43" d="M 4122 4306 
L 4122 3641 
Q 3803 3938 3442 4084 
Q 3081 4231 2675 4231 
Q 1875 4231 1450 3742 
Q 1025 3253 1025 2328 
Q 1025 1406 1450 917 
Q 1875 428 2675 428 
Q 3081 428 3442 575 
Q 3803 722 4122 1019 
L 4122 359 
Q 3791 134 3420 21 
Q 3050 -91 2638 -91 
Q 1578 -91 968 557 
Q 359 1206 359 2328 
Q 359 3453 968 4101 
Q 1578 4750 2638 4750 
Q 3056 4750 3426 4639 
Q 3797 4528 4122 4306 
z
" transform="scale(0.015625)"/>
       <path id="DejaVuSans-4e" d="M 628 4666 
L 1478 4666 
L 3547 763 
L 3547 4666 
L 4159 4666 
L 4159 0 
L 3309 0 
L 1241 3903 
L 1241 0 
L 628 0 
L 628 4666 
z
" transform="scale(0.015625)"/>
      </defs>
      <use xlink:href="#DejaVuSans-31"/>
      <use xlink:href="#DejaVuSans-44" x="63.623047"/>
      <use xlink:href="#DejaVuSans-20" x="140.625"/>
      <use xlink:href="#DejaVuSans-43" x="172.412109"/>
      <use xlink:href="#DejaVuSans-4e" x="242.236328"/>
      <use xlink:href="#DejaVuSans-4e" x="317.041016"/>
      <use xlink:href="#DejaVuSans-20" x="391.845703"/>
      <use xlink:href="#DejaVuSans-48" x="423.632812"/>
      <use xlink:href="#DejaVuSans-75" x="498.828125"/>
      <use xlink:href="#DejaVuSans-72" x="562.207031"/>
      <use xlink:href="#DejaVuSans-73" x="603.320312"/>
      <use xlink:href="#DejaVuSans-74" x="655.419922"/>
     </g>
    </g>
    <g id="line2d_38">
     <path d="M 81.9 141.991187 
L 91.9 141.991187 
L 101.9 141.991187 
" style="fill: none; stroke: #1f77b4; stroke-width: 1.5; stroke-linecap: square"/>
    </g>
    <g id="text_21">
     <!-- LSTM Hurst -->
     <g transform="translate(109.9 145.491187)scale(0.1 -0.1)">
      <defs>
       <path id="DejaVuSans-54" d="M -19 4666 
L 3928 4666 
L 3928 4134 
L 2272 4134 
L 2272 0 
L 1638 0 
L 1638 4134 
L -19 4134 
L -19 4666 
z
" transform="scale(0.015625)"/>
       <path id="DejaVuSans-4d" d="M 628 4666 
L 1569 4666 
L 2759 1491 
L 3956 4666 
L 4897 4666 
L 4897 0 
L 4281 0 
L 4281 4097 
L 3078 897 
L 2444 897 
L 1241 4097 
L 1241 0 
L 628 0 
L 628 4666 
z
" transform="scale(0.015625)"/>
      </defs>
      <use xlink:href="#DejaVuSans-4c"/>
      <use xlink:href="#DejaVuSans-53" x="55.712891"/>
      <use xlink:href="#DejaVuSans-54" x="119.189453"/>
      <use xlink:href="#DejaVuSans-4d" x="180.273438"/>
      <use xlink:href="#DejaVuSans-20" x="266.552734"/>
      <use xlink:href="#DejaVuSans-48" x="298.339844"/>
      <use xlink:href="#DejaVuSans-75" x="373.535156"/>
      <use xlink:href="#DejaVuSans-72" x="436.914062"/>
      <use xlink:href="#DejaVuSans-73" x="478.027344"/>
      <use xlink:href="#DejaVuSans-74" x="530.126953"/>
     </g>
    </g>
   </g>
  </g>
 </g>
 <defs>
  <clipPath id="p1a1e6928fa">
   <rect x="72.9" y="40.824" width="451.98" height="261.954"/>
  </clipPath>
 </defs>
</svg>
