<?xml version="1.0" encoding="utf-8" standalone="no"?>
<!DOCTYPE svg PUBLIC "-//W3C//DTD SVG 1.1//EN"
  "http://www.w3.org/Graphics/SVG/1.1/DTD/svg11.dtd">
<svg xmlns:xlink="http://www.w3.org/1999/xlink" width="583.2pt" height="340.2pt" viewBox="0 0 583.2 340.2" xmlns="http://www.w3.org/2000/svg" version="1.1">
 <metadata>
  <rdf:RDF xmlns:dc="http://purl.org/dc/elements/1.1/" xmlns:cc="http://creativecommons.org/ns#" xmlns:rdf="http://www.w3.org/1999/02/22-rdf-syntax-ns#">
   <cc:Work>
    <dc:type rdf:resource="http://purl.org/dc/dcmitype/StillImage"/>
    <dc:date>2024-07-05T18:10:45.270922</dc:date>
    <dc:format>image/svg+xml</dc:format>
    <dc:creator>
     <cc:Agent>
      <dc:title>Matplotlib v3.5.1, https://matplotlib.org/</dc:title>
     </cc:Agent>
    </dc:creator>
   </cc:Work>
  </rdf:RDF>
 </metadata>
 <defs>
  <style type="text/css">*{stroke-linejoin: round; stroke-linecap: butt}</style>
 </defs>
 <g id="figure_1">
  <g id="patch_1">
   <path d="M 0 340.2 
L 583.2 340.2 
L 583.2 0 
L 0 0 
z
" style="fill: #ffffff"/>
  </g>
  <g id="axes_1">
   <g id="patch_2">
    <path d="M 72.9 302.778 
L 524.88 302.778 
L 524.88 40.824 
L 72.9 40.824 
L 72.9 302.778 
z
" style="fill: none; opacity: 0"/>
   </g>
   <g id="matplotlib.axis_1">
    <g id="xtick_1">
     <g id="line2d_1">
      <path d="M 94.758345 302.778 
L 94.758345 40.824 
" clip-path="url(#p86437d4aff)" style="fill: none; stroke: #e6e6e6; stroke-width: 0.8; stroke-linecap: square"/>
     </g>
     <g id="line2d_2">
      <defs>
       <path id="m7e4d2bd7a8" d="M 0 0 
L 0 3.5 
" style="stroke: #000000; stroke-width: 0.8"/>
      </defs>
      <g>
       <use xlink:href="#m7e4d2bd7a8" x="94.758345" y="302.778" style="stroke: #000000; stroke-width: 0.8"/>
      </g>
     </g>
     <g id="text_1">
      <!-- 2004 -->
      <g transform="translate(82.033345 317.376438)scale(0.1 -0.1)">
       <defs>
        <path id="DejaVuSans-32" d="M 1228 531 
L 3431 531 
L 3431 0 
L 469 0 
L 469 531 
Q 828 903 1448 1529 
Q 2069 2156 2228 2338 
Q 2531 2678 2651 2914 
Q 2772 3150 2772 3378 
Q 2772 3750 2511 3984 
Q 2250 4219 1831 4219 
Q 1534 4219 1204 4116 
Q 875 4013 500 3803 
L 500 4441 
Q 881 4594 1212 4672 
Q 1544 4750 1819 4750 
Q 2544 4750 2975 4387 
Q 3406 4025 3406 3419 
Q 3406 3131 3298 2873 
Q 3191 2616 2906 2266 
Q 2828 2175 2409 1742 
Q 1991 1309 1228 531 
z
" transform="scale(0.015625)"/>
        <path id="DejaVuSans-30" d="M 2034 4250 
Q 1547 4250 1301 3770 
Q 1056 3291 1056 2328 
Q 1056 1369 1301 889 
Q 1547 409 2034 409 
Q 2525 409 2770 889 
Q 3016 1369 3016 2328 
Q 3016 3291 2770 3770 
Q 2525 4250 2034 4250 
z
M 2034 4750 
Q 2819 4750 3233 4129 
Q 3647 3509 3647 2328 
Q 3647 1150 3233 529 
Q 2819 -91 2034 -91 
Q 1250 -91 836 529 
Q 422 1150 422 2328 
Q 422 3509 836 4129 
Q 1250 4750 2034 4750 
z
" transform="scale(0.015625)"/>
        <path id="DejaVuSans-34" d="M 2419 4116 
L 825 1625 
L 2419 1625 
L 2419 4116 
z
M 2253 4666 
L 3047 4666 
L 3047 1625 
L 3713 1625 
L 3713 1100 
L 3047 1100 
L 3047 0 
L 2419 0 
L 2419 1100 
L 313 1100 
L 313 1709 
L 2253 4666 
z
" transform="scale(0.015625)"/>
       </defs>
       <use xlink:href="#DejaVuSans-32"/>
       <use xlink:href="#DejaVuSans-30" x="63.623047"/>
       <use xlink:href="#DejaVuSans-30" x="127.246094"/>
       <use xlink:href="#DejaVuSans-34" x="190.869141"/>
      </g>
     </g>
    </g>
    <g id="xtick_2">
     <g id="line2d_3">
      <path d="M 174.735912 302.778 
L 174.735912 40.824 
" clip-path="url(#p86437d4aff)" style="fill: none; stroke: #e6e6e6; stroke-width: 0.8; stroke-linecap: square"/>
     </g>
     <g id="line2d_4">
      <g>
       <use xlink:href="#m7e4d2bd7a8" x="174.735912" y="302.778" style="stroke: #000000; stroke-width: 0.8"/>
      </g>
     </g>
     <g id="text_2">
      <!-- 2008 -->
      <g transform="translate(162.010912 317.376438)scale(0.1 -0.1)">
       <defs>
        <path id="DejaVuSans-38" d="M 2034 2216 
Q 1584 2216 1326 1975 
Q 1069 1734 1069 1313 
Q 1069 891 1326 650 
Q 1584 409 2034 409 
Q 2484 409 2743 651 
Q 3003 894 3003 1313 
Q 3003 1734 2745 1975 
Q 2488 2216 2034 2216 
z
M 1403 2484 
Q 997 2584 770 2862 
Q 544 3141 544 3541 
Q 544 4100 942 4425 
Q 1341 4750 2034 4750 
Q 2731 4750 3128 4425 
Q 3525 4100 3525 3541 
Q 3525 3141 3298 2862 
Q 3072 2584 2669 2484 
Q 3125 2378 3379 2068 
Q 3634 1759 3634 1313 
Q 3634 634 3220 271 
Q 2806 -91 2034 -91 
Q 1263 -91 848 271 
Q 434 634 434 1313 
Q 434 1759 690 2068 
Q 947 2378 1403 2484 
z
M 1172 3481 
Q 1172 3119 1398 2916 
Q 1625 2713 2034 2713 
Q 2441 2713 2670 2916 
Q 2900 3119 2900 3481 
Q 2900 3844 2670 4047 
Q 2441 4250 2034 4250 
Q 1625 4250 1398 4047 
Q 1172 3844 1172 3481 
z
" transform="scale(0.015625)"/>
       </defs>
       <use xlink:href="#DejaVuSans-32"/>
       <use xlink:href="#DejaVuSans-30" x="63.623047"/>
       <use xlink:href="#DejaVuSans-30" x="127.246094"/>
       <use xlink:href="#DejaVuSans-38" x="190.869141"/>
      </g>
     </g>
    </g>
    <g id="xtick_3">
     <g id="line2d_5">
      <path d="M 254.713479 302.778 
L 254.713479 40.824 
" clip-path="url(#p86437d4aff)" style="fill: none; stroke: #e6e6e6; stroke-width: 0.8; stroke-linecap: square"/>
     </g>
     <g id="line2d_6">
      <g>
       <use xlink:href="#m7e4d2bd7a8" x="254.713479" y="302.778" style="stroke: #000000; stroke-width: 0.8"/>
      </g>
     </g>
     <g id="text_3">
      <!-- 2012 -->
      <g transform="translate(241.988479 317.376438)scale(0.1 -0.1)">
       <defs>
        <path id="DejaVuSans-31" d="M 794 531 
L 1825 531 
L 1825 4091 
L 703 3866 
L 703 4441 
L 1819 4666 
L 2450 4666 
L 2450 531 
L 3481 531 
L 3481 0 
L 794 0 
L 794 531 
z
" transform="scale(0.015625)"/>
       </defs>
       <use xlink:href="#DejaVuSans-32"/>
       <use xlink:href="#DejaVuSans-30" x="63.623047"/>
       <use xlink:href="#DejaVuSans-31" x="127.246094"/>
       <use xlink:href="#DejaVuSans-32" x="190.869141"/>
      </g>
     </g>
    </g>
    <g id="xtick_4">
     <g id="line2d_7">
      <path d="M 334.691046 302.778 
L 334.691046 40.824 
" clip-path="url(#p86437d4aff)" style="fill: none; stroke: #e6e6e6; stroke-width: 0.8; stroke-linecap: square"/>
     </g>
     <g id="line2d_8">
      <g>
       <use xlink:href="#m7e4d2bd7a8" x="334.691046" y="302.778" style="stroke: #000000; stroke-width: 0.8"/>
      </g>
     </g>
     <g id="text_4">
      <!-- 2016 -->
      <g transform="translate(321.966046 317.376438)scale(0.1 -0.1)">
       <defs>
        <path id="DejaVuSans-36" d="M 2113 2584 
Q 1688 2584 1439 2293 
Q 1191 2003 1191 1497 
Q 1191 994 1439 701 
Q 1688 409 2113 409 
Q 2538 409 2786 701 
Q 3034 994 3034 1497 
Q 3034 2003 2786 2293 
Q 2538 2584 2113 2584 
z
M 3366 4563 
L 3366 3988 
Q 3128 4100 2886 4159 
Q 2644 4219 2406 4219 
Q 1781 4219 1451 3797 
Q 1122 3375 1075 2522 
Q 1259 2794 1537 2939 
Q 1816 3084 2150 3084 
Q 2853 3084 3261 2657 
Q 3669 2231 3669 1497 
Q 3669 778 3244 343 
Q 2819 -91 2113 -91 
Q 1303 -91 875 529 
Q 447 1150 447 2328 
Q 447 3434 972 4092 
Q 1497 4750 2381 4750 
Q 2619 4750 2861 4703 
Q 3103 4656 3366 4563 
z
" transform="scale(0.015625)"/>
       </defs>
       <use xlink:href="#DejaVuSans-32"/>
       <use xlink:href="#DejaVuSans-30" x="63.623047"/>
       <use xlink:href="#DejaVuSans-31" x="127.246094"/>
       <use xlink:href="#DejaVuSans-36" x="190.869141"/>
      </g>
     </g>
    </g>
    <g id="xtick_5">
     <g id="line2d_9">
      <path d="M 414.668613 302.778 
L 414.668613 40.824 
" clip-path="url(#p86437d4aff)" style="fill: none; stroke: #e6e6e6; stroke-width: 0.8; stroke-linecap: square"/>
     </g>
     <g id="line2d_10">
      <g>
       <use xlink:href="#m7e4d2bd7a8" x="414.668613" y="302.778" style="stroke: #000000; stroke-width: 0.8"/>
      </g>
     </g>
     <g id="text_5">
      <!-- 2020 -->
      <g transform="translate(401.943613 317.376438)scale(0.1 -0.1)">
       <use xlink:href="#DejaVuSans-32"/>
       <use xlink:href="#DejaVuSans-30" x="63.623047"/>
       <use xlink:href="#DejaVuSans-32" x="127.246094"/>
       <use xlink:href="#DejaVuSans-30" x="190.869141"/>
      </g>
     </g>
    </g>
    <g id="xtick_6">
     <g id="line2d_11">
      <path d="M 494.646181 302.778 
L 494.646181 40.824 
" clip-path="url(#p86437d4aff)" style="fill: none; stroke: #e6e6e6; stroke-width: 0.8; stroke-linecap: square"/>
     </g>
     <g id="line2d_12">
      <g>
       <use xlink:href="#m7e4d2bd7a8" x="494.646181" y="302.778" style="stroke: #000000; stroke-width: 0.8"/>
      </g>
     </g>
     <g id="text_6">
      <!-- 2024 -->
      <g transform="translate(481.921181 317.376438)scale(0.1 -0.1)">
       <use xlink:href="#DejaVuSans-32"/>
       <use xlink:href="#DejaVuSans-30" x="63.623047"/>
       <use xlink:href="#DejaVuSans-32" x="127.246094"/>
       <use xlink:href="#DejaVuSans-34" x="190.869141"/>
      </g>
     </g>
    </g>
    <g id="text_7">
     <!-- Date -->
     <g transform="translate(286.939219 331.054562)scale(0.1 -0.1)">
      <defs>
       <path id="DejaVuSans-44" d="M 1259 4147 
L 1259 519 
L 2022 519 
Q 2988 519 3436 956 
Q 3884 1394 3884 2338 
Q 3884 3275 3436 3711 
Q 2988 4147 2022 4147 
L 1259 4147 
z
M 628 4666 
L 1925 4666 
Q 3281 4666 3915 4102 
Q 4550 3538 4550 2338 
Q 4550 1131 3912 565 
Q 3275 0 1925 0 
L 628 0 
L 628 4666 
z
" transform="scale(0.015625)"/>
       <path id="DejaVuSans-61" d="M 2194 1759 
Q 1497 1759 1228 1600 
Q 959 1441 959 1056 
Q 959 750 1161 570 
Q 1363 391 1709 391 
Q 2188 391 2477 730 
Q 2766 1069 2766 1631 
L 2766 1759 
L 2194 1759 
z
M 3341 1997 
L 3341 0 
L 2766 0 
L 2766 531 
Q 2569 213 2275 61 
Q 1981 -91 1556 -91 
Q 1019 -91 701 211 
Q 384 513 384 1019 
Q 384 1609 779 1909 
Q 1175 2209 1959 2209 
L 2766 2209 
L 2766 2266 
Q 2766 2663 2505 2880 
Q 2244 3097 1772 3097 
Q 1472 3097 1187 3025 
Q 903 2953 641 2809 
L 641 3341 
Q 956 3463 1253 3523 
Q 1550 3584 1831 3584 
Q 2591 3584 2966 3190 
Q 3341 2797 3341 1997 
z
" transform="scale(0.015625)"/>
       <path id="DejaVuSans-74" d="M 1172 4494 
L 1172 3500 
L 2356 3500 
L 2356 3053 
L 1172 3053 
L 1172 1153 
Q 1172 725 1289 603 
Q 1406 481 1766 481 
L 2356 481 
L 2356 0 
L 1766 0 
Q 1100 0 847 248 
Q 594 497 594 1153 
L 594 3053 
L 172 3053 
L 172 3500 
L 594 3500 
L 594 4494 
L 1172 4494 
z
" transform="scale(0.015625)"/>
       <path id="DejaVuSans-65" d="M 3597 1894 
L 3597 1613 
L 953 1613 
Q 991 1019 1311 708 
Q 1631 397 2203 397 
Q 2534 397 2845 478 
Q 3156 559 3463 722 
L 3463 178 
Q 3153 47 2828 -22 
Q 2503 -91 2169 -91 
Q 1331 -91 842 396 
Q 353 884 353 1716 
Q 353 2575 817 3079 
Q 1281 3584 2069 3584 
Q 2775 3584 3186 3129 
Q 3597 2675 3597 1894 
z
M 3022 2063 
Q 3016 2534 2758 2815 
Q 2500 3097 2075 3097 
Q 1594 3097 1305 2825 
Q 1016 2553 972 2059 
L 3022 2063 
z
" transform="scale(0.015625)"/>
      </defs>
      <use xlink:href="#DejaVuSans-44"/>
      <use xlink:href="#DejaVuSans-61" x="77.001953"/>
      <use xlink:href="#DejaVuSans-74" x="138.28125"/>
      <use xlink:href="#DejaVuSans-65" x="177.490234"/>
     </g>
    </g>
   </g>
   <g id="matplotlib.axis_2">
    <g id="ytick_1">
     <g id="line2d_13">
      <path d="M 72.9 285.428367 
L 524.88 285.428367 
" clip-path="url(#p86437d4aff)" style="fill: none; stroke: #e6e6e6; stroke-width: 0.8; stroke-linecap: square"/>
     </g>
     <g id="line2d_14">
      <defs>
       <path id="m0b2d077214" d="M 0 0 
L -3.5 0 
" style="stroke: #000000; stroke-width: 0.8"/>
      </defs>
      <g>
       <use xlink:href="#m0b2d077214" x="72.9" y="285.428367" style="stroke: #000000; stroke-width: 0.8"/>
      </g>
     </g>
     <g id="text_8">
      <!-- −0.2 -->
      <g transform="translate(41.617187 289.227586)scale(0.1 -0.1)">
       <defs>
        <path id="DejaVuSans-2212" d="M 678 2272 
L 4684 2272 
L 4684 1741 
L 678 1741 
L 678 2272 
z
" transform="scale(0.015625)"/>
        <path id="DejaVuSans-2e" d="M 684 794 
L 1344 794 
L 1344 0 
L 684 0 
L 684 794 
z
" transform="scale(0.015625)"/>
       </defs>
       <use xlink:href="#DejaVuSans-2212"/>
       <use xlink:href="#DejaVuSans-30" x="83.789062"/>
       <use xlink:href="#DejaVuSans-2e" x="147.412109"/>
       <use xlink:href="#DejaVuSans-32" x="179.199219"/>
      </g>
     </g>
    </g>
    <g id="ytick_2">
     <g id="line2d_15">
      <path d="M 72.9 251.436649 
L 524.88 251.436649 
" clip-path="url(#p86437d4aff)" style="fill: none; stroke: #e6e6e6; stroke-width: 0.8; stroke-linecap: square"/>
     </g>
     <g id="line2d_16">
      <g>
       <use xlink:href="#m0b2d077214" x="72.9" y="251.436649" style="stroke: #000000; stroke-width: 0.8"/>
      </g>
     </g>
     <g id="text_9">
      <!-- −0.1 -->
      <g transform="translate(41.617187 255.235868)scale(0.1 -0.1)">
       <use xlink:href="#DejaVuSans-2212"/>
       <use xlink:href="#DejaVuSans-30" x="83.789062"/>
       <use xlink:href="#DejaVuSans-2e" x="147.412109"/>
       <use xlink:href="#DejaVuSans-31" x="179.199219"/>
      </g>
     </g>
    </g>
    <g id="ytick_3">
     <g id="line2d_17">
      <path d="M 72.9 217.444931 
L 524.88 217.444931 
" clip-path="url(#p86437d4aff)" style="fill: none; stroke: #e6e6e6; stroke-width: 0.8; stroke-linecap: square"/>
     </g>
     <g id="line2d_18">
      <g>
       <use xlink:href="#m0b2d077214" x="72.9" y="217.444931" style="stroke: #000000; stroke-width: 0.8"/>
      </g>
     </g>
     <g id="text_10">
      <!-- 0.0 -->
      <g transform="translate(49.996875 221.24415)scale(0.1 -0.1)">
       <use xlink:href="#DejaVuSans-30"/>
       <use xlink:href="#DejaVuSans-2e" x="63.623047"/>
       <use xlink:href="#DejaVuSans-30" x="95.410156"/>
      </g>
     </g>
    </g>
    <g id="ytick_4">
     <g id="line2d_19">
      <path d="M 72.9 183.453213 
L 524.88 183.453213 
" clip-path="url(#p86437d4aff)" style="fill: none; stroke: #e6e6e6; stroke-width: 0.8; stroke-linecap: square"/>
     </g>
     <g id="line2d_20">
      <g>
       <use xlink:href="#m0b2d077214" x="72.9" y="183.453213" style="stroke: #000000; stroke-width: 0.8"/>
      </g>
     </g>
     <g id="text_11">
      <!-- 0.1 -->
      <g transform="translate(49.996875 187.252432)scale(0.1 -0.1)">
       <use xlink:href="#DejaVuSans-30"/>
       <use xlink:href="#DejaVuSans-2e" x="63.623047"/>
       <use xlink:href="#DejaVuSans-31" x="95.410156"/>
      </g>
     </g>
    </g>
    <g id="ytick_5">
     <g id="line2d_21">
      <path d="M 72.9 149.461495 
L 524.88 149.461495 
" clip-path="url(#p86437d4aff)" style="fill: none; stroke: #e6e6e6; stroke-width: 0.8; stroke-linecap: square"/>
     </g>
     <g id="line2d_22">
      <g>
       <use xlink:href="#m0b2d077214" x="72.9" y="149.461495" style="stroke: #000000; stroke-width: 0.8"/>
      </g>
     </g>
     <g id="text_12">
      <!-- 0.2 -->
      <g transform="translate(49.996875 153.260713)scale(0.1 -0.1)">
       <use xlink:href="#DejaVuSans-30"/>
       <use xlink:href="#DejaVuSans-2e" x="63.623047"/>
       <use xlink:href="#DejaVuSans-32" x="95.410156"/>
      </g>
     </g>
    </g>
    <g id="ytick_6">
     <g id="line2d_23">
      <path d="M 72.9 115.469776 
L 524.88 115.469776 
" clip-path="url(#p86437d4aff)" style="fill: none; stroke: #e6e6e6; stroke-width: 0.8; stroke-linecap: square"/>
     </g>
     <g id="line2d_24">
      <g>
       <use xlink:href="#m0b2d077214" x="72.9" y="115.469776" style="stroke: #000000; stroke-width: 0.8"/>
      </g>
     </g>
     <g id="text_13">
      <!-- 0.3 -->
      <g transform="translate(49.996875 119.268995)scale(0.1 -0.1)">
       <defs>
        <path id="DejaVuSans-33" d="M 2597 2516 
Q 3050 2419 3304 2112 
Q 3559 1806 3559 1356 
Q 3559 666 3084 287 
Q 2609 -91 1734 -91 
Q 1441 -91 1130 -33 
Q 819 25 488 141 
L 488 750 
Q 750 597 1062 519 
Q 1375 441 1716 441 
Q 2309 441 2620 675 
Q 2931 909 2931 1356 
Q 2931 1769 2642 2001 
Q 2353 2234 1838 2234 
L 1294 2234 
L 1294 2753 
L 1863 2753 
Q 2328 2753 2575 2939 
Q 2822 3125 2822 3475 
Q 2822 3834 2567 4026 
Q 2313 4219 1838 4219 
Q 1578 4219 1281 4162 
Q 984 4106 628 3988 
L 628 4550 
Q 988 4650 1302 4700 
Q 1616 4750 1894 4750 
Q 2613 4750 3031 4423 
Q 3450 4097 3450 3541 
Q 3450 3153 3228 2886 
Q 3006 2619 2597 2516 
z
" transform="scale(0.015625)"/>
       </defs>
       <use xlink:href="#DejaVuSans-30"/>
       <use xlink:href="#DejaVuSans-2e" x="63.623047"/>
       <use xlink:href="#DejaVuSans-33" x="95.410156"/>
      </g>
     </g>
    </g>
    <g id="ytick_7">
     <g id="line2d_25">
      <path d="M 72.9 81.478058 
L 524.88 81.478058 
" clip-path="url(#p86437d4aff)" style="fill: none; stroke: #e6e6e6; stroke-width: 0.8; stroke-linecap: square"/>
     </g>
     <g id="line2d_26">
      <g>
       <use xlink:href="#m0b2d077214" x="72.9" y="81.478058" style="stroke: #000000; stroke-width: 0.8"/>
      </g>
     </g>
     <g id="text_14">
      <!-- 0.4 -->
      <g transform="translate(49.996875 85.277277)scale(0.1 -0.1)">
       <use xlink:href="#DejaVuSans-30"/>
       <use xlink:href="#DejaVuSans-2e" x="63.623047"/>
       <use xlink:href="#DejaVuSans-34" x="95.410156"/>
      </g>
     </g>
    </g>
    <g id="ytick_8">
     <g id="line2d_27">
      <path d="M 72.9 47.48634 
L 524.88 47.48634 
" clip-path="url(#p86437d4aff)" style="fill: none; stroke: #e6e6e6; stroke-width: 0.8; stroke-linecap: square"/>
     </g>
     <g id="line2d_28">
      <g>
       <use xlink:href="#m0b2d077214" x="72.9" y="47.48634" style="stroke: #000000; stroke-width: 0.8"/>
      </g>
     </g>
     <g id="text_15">
      <!-- 0.5 -->
      <g transform="translate(49.996875 51.285559)scale(0.1 -0.1)">
       <defs>
        <path id="DejaVuSans-35" d="M 691 4666 
L 3169 4666 
L 3169 4134 
L 1269 4134 
L 1269 2991 
Q 1406 3038 1543 3061 
Q 1681 3084 1819 3084 
Q 2600 3084 3056 2656 
Q 3513 2228 3513 1497 
Q 3513 744 3044 326 
Q 2575 -91 1722 -91 
Q 1428 -91 1123 -41 
Q 819 9 494 109 
L 494 744 
Q 775 591 1075 516 
Q 1375 441 1709 441 
Q 2250 441 2565 725 
Q 2881 1009 2881 1497 
Q 2881 1984 2565 2268 
Q 2250 2553 1709 2553 
Q 1456 2553 1204 2497 
Q 953 2441 691 2322 
L 691 4666 
z
" transform="scale(0.015625)"/>
       </defs>
       <use xlink:href="#DejaVuSans-30"/>
       <use xlink:href="#DejaVuSans-2e" x="63.623047"/>
       <use xlink:href="#DejaVuSans-35" x="95.410156"/>
      </g>
     </g>
    </g>
    <g id="text_16">
     <!-- Volatility and Hurst-estimate -->
     <g transform="translate(35.5375 243.333031)rotate(-90)scale(0.1 -0.1)">
      <defs>
       <path id="DejaVuSans-56" d="M 1831 0 
L 50 4666 
L 709 4666 
L 2188 738 
L 3669 4666 
L 4325 4666 
L 2547 0 
L 1831 0 
z
" transform="scale(0.015625)"/>
       <path id="DejaVuSans-6f" d="M 1959 3097 
Q 1497 3097 1228 2736 
Q 959 2375 959 1747 
Q 959 1119 1226 758 
Q 1494 397 1959 397 
Q 2419 397 2687 759 
Q 2956 1122 2956 1747 
Q 2956 2369 2687 2733 
Q 2419 3097 1959 3097 
z
M 1959 3584 
Q 2709 3584 3137 3096 
Q 3566 2609 3566 1747 
Q 3566 888 3137 398 
Q 2709 -91 1959 -91 
Q 1206 -91 779 398 
Q 353 888 353 1747 
Q 353 2609 779 3096 
Q 1206 3584 1959 3584 
z
" transform="scale(0.015625)"/>
       <path id="DejaVuSans-6c" d="M 603 4863 
L 1178 4863 
L 1178 0 
L 603 0 
L 603 4863 
z
" transform="scale(0.015625)"/>
       <path id="DejaVuSans-69" d="M 603 3500 
L 1178 3500 
L 1178 0 
L 603 0 
L 603 3500 
z
M 603 4863 
L 1178 4863 
L 1178 4134 
L 603 4134 
L 603 4863 
z
" transform="scale(0.015625)"/>
       <path id="DejaVuSans-79" d="M 2059 -325 
Q 1816 -950 1584 -1140 
Q 1353 -1331 966 -1331 
L 506 -1331 
L 506 -850 
L 844 -850 
Q 1081 -850 1212 -737 
Q 1344 -625 1503 -206 
L 1606 56 
L 191 3500 
L 800 3500 
L 1894 763 
L 2988 3500 
L 3597 3500 
L 2059 -325 
z
" transform="scale(0.015625)"/>
       <path id="DejaVuSans-20" transform="scale(0.015625)"/>
       <path id="DejaVuSans-6e" d="M 3513 2113 
L 3513 0 
L 2938 0 
L 2938 2094 
Q 2938 2591 2744 2837 
Q 2550 3084 2163 3084 
Q 1697 3084 1428 2787 
Q 1159 2491 1159 1978 
L 1159 0 
L 581 0 
L 581 3500 
L 1159 3500 
L 1159 2956 
Q 1366 3272 1645 3428 
Q 1925 3584 2291 3584 
Q 2894 3584 3203 3211 
Q 3513 2838 3513 2113 
z
" transform="scale(0.015625)"/>
       <path id="DejaVuSans-64" d="M 2906 2969 
L 2906 4863 
L 3481 4863 
L 3481 0 
L 2906 0 
L 2906 525 
Q 2725 213 2448 61 
Q 2172 -91 1784 -91 
Q 1150 -91 751 415 
Q 353 922 353 1747 
Q 353 2572 751 3078 
Q 1150 3584 1784 3584 
Q 2172 3584 2448 3432 
Q 2725 3281 2906 2969 
z
M 947 1747 
Q 947 1113 1208 752 
Q 1469 391 1925 391 
Q 2381 391 2643 752 
Q 2906 1113 2906 1747 
Q 2906 2381 2643 2742 
Q 2381 3103 1925 3103 
Q 1469 3103 1208 2742 
Q 947 2381 947 1747 
z
" transform="scale(0.015625)"/>
       <path id="DejaVuSans-48" d="M 628 4666 
L 1259 4666 
L 1259 2753 
L 3553 2753 
L 3553 4666 
L 4184 4666 
L 4184 0 
L 3553 0 
L 3553 2222 
L 1259 2222 
L 1259 0 
L 628 0 
L 628 4666 
z
" transform="scale(0.015625)"/>
       <path id="DejaVuSans-75" d="M 544 1381 
L 544 3500 
L 1119 3500 
L 1119 1403 
Q 1119 906 1312 657 
Q 1506 409 1894 409 
Q 2359 409 2629 706 
Q 2900 1003 2900 1516 
L 2900 3500 
L 3475 3500 
L 3475 0 
L 2900 0 
L 2900 538 
Q 2691 219 2414 64 
Q 2138 -91 1772 -91 
Q 1169 -91 856 284 
Q 544 659 544 1381 
z
M 1991 3584 
L 1991 3584 
z
" transform="scale(0.015625)"/>
       <path id="DejaVuSans-72" d="M 2631 2963 
Q 2534 3019 2420 3045 
Q 2306 3072 2169 3072 
Q 1681 3072 1420 2755 
Q 1159 2438 1159 1844 
L 1159 0 
L 581 0 
L 581 3500 
L 1159 3500 
L 1159 2956 
Q 1341 3275 1631 3429 
Q 1922 3584 2338 3584 
Q 2397 3584 2469 3576 
Q 2541 3569 2628 3553 
L 2631 2963 
z
" transform="scale(0.015625)"/>
       <path id="DejaVuSans-73" d="M 2834 3397 
L 2834 2853 
Q 2591 2978 2328 3040 
Q 2066 3103 1784 3103 
Q 1356 3103 1142 2972 
Q 928 2841 928 2578 
Q 928 2378 1081 2264 
Q 1234 2150 1697 2047 
L 1894 2003 
Q 2506 1872 2764 1633 
Q 3022 1394 3022 966 
Q 3022 478 2636 193 
Q 2250 -91 1575 -91 
Q 1294 -91 989 -36 
Q 684 19 347 128 
L 347 722 
Q 666 556 975 473 
Q 1284 391 1588 391 
Q 1994 391 2212 530 
Q 2431 669 2431 922 
Q 2431 1156 2273 1281 
Q 2116 1406 1581 1522 
L 1381 1569 
Q 847 1681 609 1914 
Q 372 2147 372 2553 
Q 372 3047 722 3315 
Q 1072 3584 1716 3584 
Q 2034 3584 2315 3537 
Q 2597 3491 2834 3397 
z
" transform="scale(0.015625)"/>
       <path id="DejaVuSans-2d" d="M 313 2009 
L 1997 2009 
L 1997 1497 
L 313 1497 
L 313 2009 
z
" transform="scale(0.015625)"/>
       <path id="DejaVuSans-6d" d="M 3328 2828 
Q 3544 3216 3844 3400 
Q 4144 3584 4550 3584 
Q 5097 3584 5394 3201 
Q 5691 2819 5691 2113 
L 5691 0 
L 5113 0 
L 5113 2094 
Q 5113 2597 4934 2840 
Q 4756 3084 4391 3084 
Q 3944 3084 3684 2787 
Q 3425 2491 3425 1978 
L 3425 0 
L 2847 0 
L 2847 2094 
Q 2847 2600 2669 2842 
Q 2491 3084 2119 3084 
Q 1678 3084 1418 2786 
Q 1159 2488 1159 1978 
L 1159 0 
L 581 0 
L 581 3500 
L 1159 3500 
L 1159 2956 
Q 1356 3278 1631 3431 
Q 1906 3584 2284 3584 
Q 2666 3584 2933 3390 
Q 3200 3197 3328 2828 
z
" transform="scale(0.015625)"/>
      </defs>
      <use xlink:href="#DejaVuSans-56"/>
      <use xlink:href="#DejaVuSans-6f" x="60.658203"/>
      <use xlink:href="#DejaVuSans-6c" x="121.839844"/>
      <use xlink:href="#DejaVuSans-61" x="149.623047"/>
      <use xlink:href="#DejaVuSans-74" x="210.902344"/>
      <use xlink:href="#DejaVuSans-69" x="250.111328"/>
      <use xlink:href="#DejaVuSans-6c" x="277.894531"/>
      <use xlink:href="#DejaVuSans-69" x="305.677734"/>
      <use xlink:href="#DejaVuSans-74" x="333.460938"/>
      <use xlink:href="#DejaVuSans-79" x="372.669922"/>
      <use xlink:href="#DejaVuSans-20" x="431.849609"/>
      <use xlink:href="#DejaVuSans-61" x="463.636719"/>
      <use xlink:href="#DejaVuSans-6e" x="524.916016"/>
      <use xlink:href="#DejaVuSans-64" x="588.294922"/>
      <use xlink:href="#DejaVuSans-20" x="651.771484"/>
      <use xlink:href="#DejaVuSans-48" x="683.558594"/>
      <use xlink:href="#DejaVuSans-75" x="758.753906"/>
      <use xlink:href="#DejaVuSans-72" x="822.132812"/>
      <use xlink:href="#DejaVuSans-73" x="863.246094"/>
      <use xlink:href="#DejaVuSans-74" x="915.345703"/>
      <use xlink:href="#DejaVuSans-2d" x="954.554688"/>
      <use xlink:href="#DejaVuSans-65" x="990.638672"/>
      <use xlink:href="#DejaVuSans-73" x="1052.162109"/>
      <use xlink:href="#DejaVuSans-74" x="1104.261719"/>
      <use xlink:href="#DejaVuSans-69" x="1143.470703"/>
      <use xlink:href="#DejaVuSans-6d" x="1171.253906"/>
      <use xlink:href="#DejaVuSans-61" x="1268.666016"/>
      <use xlink:href="#DejaVuSans-74" x="1329.945312"/>
      <use xlink:href="#DejaVuSans-65" x="1369.154297"/>
     </g>
    </g>
   </g>
   <g id="patch_3">
    <path d="M 72.9 302.778 
L 72.9 40.824 
" style="fill: none; stroke: #000000; stroke-width: 0.8; stroke-linejoin: miter; stroke-linecap: square"/>
   </g>
   <g id="patch_4">
    <path d="M 524.88 302.778 
L 524.88 40.824 
" style="fill: none; stroke: #e6e6e6; stroke-width: 0.8; stroke-linejoin: miter; stroke-linecap: square"/>
   </g>
   <g id="patch_5">
    <path d="M 72.9 302.778 
L 524.88 302.778 
" style="fill: none; stroke: #000000; stroke-width: 0.8; stroke-linejoin: miter; stroke-linecap: square"/>
   </g>
   <g id="patch_6">
    <path d="M 72.9 40.824 
L 524.88 40.824 
" style="fill: none; stroke: #e6e6e6; stroke-width: 0.8; stroke-linejoin: miter; stroke-linecap: square"/>
   </g>
   <g id="line2d_29">
    <path d="M 93.444545 213.060754 
L 93.827737 213.002117 
L 94.210929 213.63484 
L 94.59412 214.533479 
L 94.977312 211.330631 
L 95.360504 211.727431 
L 95.743695 209.148097 
L 96.126887 209.433365 
L 96.510078 209.526627 
L 96.89327 212.112776 
L 97.276462 213.746345 
L 97.659653 207.405222 
L 98.042845 209.827169 
L 98.426037 206.335286 
L 98.809228 209.074716 
L 99.19242 207.87638 
L 99.575612 211.058251 
L 99.958803 206.987715 
L 100.341995 212.216901 
L 100.725186 210.850069 
L 101.108378 213.578016 
L 101.49157 210.499189 
L 101.874761 206.261302 
L 102.257953 208.343971 
L 102.641145 212.396458 
L 103.024336 211.404913 
L 103.407528 214.376381 
L 103.790719 209.848904 
L 104.173911 209.552335 
L 104.557103 213.722129 
L 104.940294 210.719799 
L 105.323486 215.198918 
L 105.706678 212.509516 
L 106.089869 211.495251 
L 106.473061 214.897804 
L 106.856252 209.882434 
L 107.239444 211.840681 
L 107.622636 212.842372 
L 108.005827 214.989936 
L 108.389019 212.09778 
L 108.772211 215.129967 
L 109.155402 215.358366 
L 109.538594 211.908888 
L 109.921785 212.36768 
L 110.304977 213.115714 
L 110.688169 212.577603 
L 111.07136 216.256265 
L 111.509294 212.62604 
L 112.275677 214.816625 
L 112.658869 209.169866 
L 113.04206 212.92112 
L 113.425252 209.505633 
L 113.808443 210.059102 
L 114.191635 210.073271 
L 114.574827 214.392447 
L 114.958018 212.693824 
L 115.34121 210.084419 
L 116.107593 213.46342 
L 116.490785 213.276837 
L 116.873976 213.758582 
L 117.257168 214.446274 
L 117.64036 210.92017 
L 118.023551 214.911481 
L 118.406743 211.686026 
L 118.789935 212.545122 
L 119.173126 210.541295 
L 119.556318 213.391248 
L 119.939509 214.666564 
L 120.322701 214.313682 
L 120.705893 211.414344 
L 121.089084 212.389001 
L 121.472276 212.518512 
L 121.855468 212.978682 
L 122.238659 214.208774 
L 122.621851 210.110532 
L 123.005043 210.081285 
L 123.388234 211.77256 
L 123.771426 215.262255 
L 124.154617 210.271827 
L 124.537809 214.30763 
L 125.304192 212.03074 
L 125.687384 212.777216 
L 126.070576 211.762468 
L 126.453767 215.645111 
L 126.836959 213.113 
L 127.22015 213.089932 
L 127.603342 214.992948 
L 127.986534 214.516755 
L 128.369725 211.142477 
L 128.752917 214.468469 
L 129.136109 214.570052 
L 129.574042 213.059894 
L 129.957233 210.059741 
L 130.340425 213.642911 
L 130.723617 212.227593 
L 131.106808 209.562968 
L 131.49 211.674994 
L 131.873192 211.894369 
L 132.639575 213.226444 
L 133.022767 210.8367 
L 133.405958 213.605752 
L 133.78915 209.110518 
L 134.172341 212.751084 
L 134.555533 215.277247 
L 134.938725 208.668656 
L 135.321916 213.137389 
L 135.705108 212.590397 
L 136.0883 211.479724 
L 136.471491 212.483283 
L 136.854683 214.176537 
L 137.237874 213.374196 
L 137.621066 215.089972 
L 138.004258 214.718198 
L 138.387449 211.424371 
L 138.770641 211.139334 
L 139.153833 209.252918 
L 139.537024 212.081858 
L 139.920216 211.770442 
L 140.303407 208.774338 
L 140.686599 210.519948 
L 141.069791 211.161681 
L 141.452982 211.237616 
L 141.836174 215.23225 
L 142.219366 206.109984 
L 142.602557 212.155546 
L 142.985749 211.699095 
L 143.36894 212.610715 
L 143.752132 208.880811 
L 144.135324 212.423745 
L 144.518515 212.029183 
L 144.901707 208.11298 
L 145.284899 211.28042 
L 145.66809 207.555659 
L 146.051282 212.837971 
L 146.434474 214.839895 
L 146.817665 212.298622 
L 147.200857 211.323876 
L 147.584048 212.693606 
L 148.350432 213.896434 
L 148.733623 214.359264 
L 149.116815 211.726296 
L 149.500007 216.486527 
L 150.26639 213.577204 
L 150.649581 213.352581 
L 151.032773 209.344395 
L 151.415965 211.882333 
L 151.799156 215.327857 
L 152.182348 213.175843 
L 152.56554 215.948338 
L 152.948731 214.867359 
L 153.331923 212.111963 
L 153.715114 211.200891 
L 154.098306 213.778905 
L 154.481498 213.568595 
L 154.864689 211.459153 
L 155.247881 210.710348 
L 155.631073 213.036454 
L 156.014264 213.746014 
L 156.397456 209.868581 
L 156.780647 215.108466 
L 157.163839 208.977253 
L 157.547031 213.693477 
L 158.313414 209.348118 
L 158.696606 211.322263 
L 159.079797 212.290567 
L 159.462989 214.871592 
L 159.846181 215.651069 
L 160.229372 213.51653 
L 160.612564 214.852909 
L 160.995755 214.47229 
L 161.378947 212.421085 
L 161.762139 213.438506 
L 162.14533 209.478322 
L 162.528522 215.223433 
L 162.911714 210.877888 
L 163.294905 213.517066 
L 164.061288 212.926215 
L 164.44448 210.950948 
L 164.827672 213.595417 
L 165.210863 211.583247 
L 165.594055 213.92118 
L 165.977247 214.349994 
L 166.360438 211.538463 
L 166.74363 212.64607 
L 167.510013 209.140845 
L 167.893205 209.351375 
L 168.276396 214.204891 
L 169.097521 209.678688 
L 169.480713 214.4622 
L 169.863905 212.769912 
L 170.247096 210.523987 
L 170.630288 213.017431 
L 171.013479 211.509934 
L 171.396671 212.643988 
L 171.779863 212.166746 
L 172.163054 209.68863 
L 172.546246 211.48635 
L 172.984179 211.724696 
L 173.367371 213.020259 
L 173.750562 210.949011 
L 174.297979 212.21246 
L 174.681171 213.776495 
L 175.064362 211.485653 
L 175.447554 212.608011 
L 175.830746 211.601689 
L 176.213937 207.198915 
L 176.597129 215.928103 
L 176.98032 209.556692 
L 177.363512 213.645879 
L 177.746704 212.99901 
L 178.129895 207.701734 
L 178.513087 211.432889 
L 178.896279 211.3836 
L 179.662662 207.753631 
L 180.100595 212.707808 
L 180.483787 213.832672 
L 180.866978 213.135391 
L 181.25017 212.741929 
L 181.688103 211.359348 
L 182.071295 212.098131 
L 182.454487 210.436869 
L 183.22087 213.42071 
L 183.604061 209.068616 
L 183.987253 212.567624 
L 184.370445 207.008454 
L 184.808378 212.614569 
L 185.19157 214.15843 
L 185.574761 213.004268 
L 185.957953 207.03062 
L 186.341145 211.089217 
L 188.092878 193.872428 
L 188.476069 209.111558 
L 188.859261 205.070626 
L 189.242453 209.103057 
L 189.625644 205.674474 
L 190.008836 208.18728 
L 190.392027 190.825554 
L 190.775219 185.314294 
L 191.158411 198.713647 
L 191.541602 187.630457 
L 191.924794 196.847327 
L 192.307986 201.518371 
L 192.691177 197.208405 
L 193.074369 209.276173 
L 193.45756 202.426585 
L 193.840752 204.872675 
L 194.223944 199.858353 
L 194.607135 214.779569 
L 194.990327 208.518017 
L 195.373519 207.320733 
L 196.139902 203.835233 
L 196.523094 201.563871 
L 196.906285 210.776479 
L 197.289477 209.026545 
L 197.672668 201.272785 
L 198.439052 204.591379 
L 198.822243 207.918078 
L 199.205435 206.630045 
L 199.588627 207.413291 
L 199.971818 200.28173 
L 200.35501 204.895189 
L 200.738201 211.215426 
L 201.121393 205.576997 
L 201.504585 209.93044 
L 201.887776 202.661491 
L 202.270968 203.144072 
L 202.65416 210.02856 
L 203.037351 205.020068 
L 203.420543 203.274961 
L 203.803734 199.045342 
L 204.186926 211.433302 
L 204.570118 213.362375 
L 204.953309 206.047287 
L 205.336501 205.308244 
L 205.719693 209.25763 
L 206.102884 211.801638 
L 206.486076 205.191874 
L 206.869267 214.661572 
L 207.252459 207.400475 
L 207.635651 213.487893 
L 208.018842 211.78818 
L 208.402034 207.048262 
L 208.785226 209.357691 
L 209.168417 212.70701 
L 209.551609 211.2831 
L 209.934801 207.873712 
L 210.701184 211.398246 
L 211.084375 210.490033 
L 211.467567 204.19504 
L 211.850759 210.668099 
L 212.23395 208.214112 
L 212.617142 211.912469 
L 213.000334 205.892443 
L 213.383525 209.965304 
L 213.766717 207.13397 
L 214.149908 207.709583 
L 214.5331 214.434808 
L 215.299483 209.755793 
L 215.682675 210.570194 
L 216.065867 208.832095 
L 216.449058 212.177048 
L 216.83225 210.739129 
L 217.598633 206.051791 
L 217.981825 211.932462 
L 218.365016 211.207622 
L 218.748208 212.913521 
L 219.1314 209.20786 
L 219.514591 211.556871 
L 219.897783 209.037511 
L 220.280974 207.886086 
L 220.664166 211.818621 
L 221.047358 210.156948 
L 221.430549 199.87054 
L 221.813741 195.823111 
L 222.196933 204.742542 
L 222.580124 205.060195 
L 222.963316 208.182679 
L 223.346508 201.385226 
L 223.729699 209.056384 
L 224.112891 212.889697 
L 224.496082 213.558313 
L 224.879274 208.621863 
L 225.262466 212.79971 
L 225.645657 206.064298 
L 226.795232 211.964356 
L 227.178424 205.32167 
L 227.561615 210.69905 
L 228.327999 207.27433 
L 228.71119 208.868607 
L 229.094382 210.940475 
L 229.477574 210.43807 
L 229.860765 209.424128 
L 230.243957 205.718938 
L 230.627148 212.268111 
L 231.01034 205.457666 
L 231.393532 205.720622 
L 231.776723 210.154226 
L 232.159915 208.400743 
L 232.543107 209.301153 
L 232.926298 212.406054 
L 233.30949 203.28513 
L 233.692681 211.478224 
L 234.075873 208.45785 
L 234.459065 210.846877 
L 234.842256 208.797232 
L 235.225448 210.036082 
L 235.60864 207.919027 
L 235.991831 209.841656 
L 236.375023 210.615089 
L 236.758215 209.336834 
L 237.141406 212.609208 
L 237.524598 213.334466 
L 237.907789 211.935721 
L 238.290981 212.352372 
L 238.674173 209.816903 
L 239.057364 210.044654 
L 239.440556 211.147629 
L 239.823748 215.006923 
L 240.206939 212.647502 
L 240.644872 212.821808 
L 241.028064 210.364073 
L 241.411256 213.588106 
L 241.794447 210.863408 
L 242.177639 206.988519 
L 242.560831 207.685079 
L 242.944022 211.335713 
L 243.327214 207.377776 
L 243.710405 208.656175 
L 244.093597 207.557417 
L 244.476789 210.677773 
L 244.85998 211.554692 
L 245.243172 207.574767 
L 245.626364 205.330455 
L 246.009555 209.244743 
L 246.392747 209.976795 
L 246.775939 205.582596 
L 247.15913 199.78788 
L 247.542322 209.5478 
L 247.925513 212.019914 
L 248.308705 212.146629 
L 248.691897 204.319174 
L 249.075088 205.648926 
L 249.45828 202.967582 
L 250.224663 207.074236 
L 250.607855 201.939155 
L 250.991046 209.295878 
L 251.374238 200.05673 
L 251.75743 203.458595 
L 252.140621 199.618509 
L 252.523813 207.263706 
L 252.907005 204.021905 
L 253.290196 208.562969 
L 253.673388 206.048884 
L 254.056579 211.228586 
L 254.439771 206.194692 
L 254.822963 206.503577 
L 255.206154 208.415031 
L 255.589346 205.633118 
L 255.972538 208.459467 
L 256.465213 206.618064 
L 257.231596 212.89411 
L 257.614787 211.851764 
L 257.997979 211.602385 
L 258.764362 208.80735 
L 259.147554 210.898411 
L 259.913937 210.935007 
L 260.297129 210.514523 
L 261.063512 207.380629 
L 261.446704 212.451741 
L 261.829895 208.164225 
L 262.213087 211.752142 
L 262.596279 205.048893 
L 262.97947 209.423364 
L 263.362662 206.999 
L 263.745853 206.077326 
L 264.129045 207.796754 
L 264.512237 211.221451 
L 264.895428 203.297288 
L 265.27862 208.912228 
L 265.661812 211.687498 
L 266.045003 207.950358 
L 266.428195 207.096248 
L 266.811387 205.847178 
L 267.194578 215.591996 
L 267.57777 212.901211 
L 267.960961 214.216812 
L 268.344153 213.499248 
L 268.727345 208.726825 
L 269.110536 211.61952 
L 269.493728 213.383692 
L 269.87692 211.648746 
L 270.260111 211.211555 
L 270.643303 212.30424 
L 271.026494 212.354754 
L 271.409686 210.829434 
L 271.792878 211.618354 
L 272.176069 214.298311 
L 272.559261 213.579653 
L 272.942453 214.722767 
L 273.325644 214.672595 
L 273.708836 211.433857 
L 274.475219 208.996802 
L 274.858411 214.478418 
L 275.241602 214.603032 
L 275.624794 213.86507 
L 276.007986 211.062278 
L 276.391177 212.669237 
L 276.774369 210.793 
L 277.15756 214.785565 
L 277.540752 211.197695 
L 277.923944 210.850654 
L 278.307135 213.703073 
L 278.690327 208.025012 
L 279.073519 210.034313 
L 279.45671 211.108893 
L 279.839902 216.136994 
L 280.606285 209.060282 
L 280.989477 213.953991 
L 281.372668 212.813327 
L 281.75586 210.788069 
L 282.139052 212.82548 
L 282.522243 213.602137 
L 282.905435 215.435523 
L 283.288627 206.992866 
L 283.671818 210.804085 
L 284.05501 206.732423 
L 284.438201 212.992377 
L 284.821393 213.828586 
L 285.204585 205.024406 
L 285.587776 215.139823 
L 285.970968 212.679751 
L 286.35416 214.469306 
L 286.737351 210.542522 
L 287.120543 212.616207 
L 287.503734 209.952509 
L 287.886926 212.506334 
L 288.270118 213.130636 
L 288.653309 212.60596 
L 289.036501 211.362889 
L 289.419693 214.670076 
L 289.802884 214.729527 
L 290.240818 212.727529 
L 290.624009 212.527886 
L 291.007201 213.532018 
L 291.390392 212.760256 
L 291.773584 211.358682 
L 292.156776 214.961141 
L 292.539967 211.979524 
L 292.923159 215.616948 
L 293.306351 211.054588 
L 293.689542 214.176858 
L 294.072734 212.974859 
L 294.455925 215.403155 
L 294.839117 212.429645 
L 295.222309 213.96435 
L 295.6055 212.733309 
L 295.988692 214.758291 
L 296.371884 208.381365 
L 296.755075 208.731836 
L 297.138267 213.462877 
L 297.521458 211.941193 
L 297.90465 212.64931 
L 298.287842 210.683396 
L 298.671033 213.8911 
L 299.054225 211.715829 
L 299.437417 214.279924 
L 299.820608 214.112273 
L 300.2038 215.292271 
L 300.586991 213.699195 
L 300.970183 214.884517 
L 301.353375 214.505814 
L 301.736566 213.313311 
L 302.119758 213.971038 
L 302.50295 216.282968 
L 303.269333 212.428341 
L 303.652525 214.72311 
L 304.035716 214.254953 
L 304.418908 214.703532 
L 304.802099 213.940681 
L 305.185291 215.202866 
L 305.568483 214.289732 
L 305.951674 215.498295 
L 307.101249 213.228256 
L 307.484441 214.0972 
L 307.867632 214.151776 
L 308.250824 211.573005 
L 308.634016 213.250557 
L 309.017207 212.273775 
L 309.400399 214.083267 
L 309.783591 213.69289 
L 310.166782 209.136951 
L 310.933165 215.257588 
L 311.316357 212.763079 
L 312.08274 214.47573 
L 312.465932 213.396003 
L 313.232315 212.71035 
L 313.615507 212.614826 
L 313.998698 210.541742 
L 314.38189 212.198379 
L 314.765082 213.08143 
L 315.148273 210.122122 
L 315.531465 211.625359 
L 316.297848 209.206527 
L 316.68104 207.764657 
L 317.064232 208.712723 
L 317.447423 213.631402 
L 317.830615 213.459273 
L 318.213806 215.170827 
L 318.596998 209.797314 
L 318.98019 202.011135 
L 319.363381 209.946699 
L 319.746573 211.352335 
L 320.129765 208.299501 
L 320.512956 212.889697 
L 320.896148 211.99052 
L 321.662531 213.79709 
L 322.045723 210.802392 
L 322.428914 211.179536 
L 322.812106 212.061967 
L 323.195298 213.581713 
L 323.578489 211.518507 
L 323.961681 211.483295 
L 324.344872 213.076969 
L 324.728064 205.698557 
L 325.111256 210.908894 
L 325.494447 211.156366 
L 325.877639 211.602391 
L 326.260831 210.814789 
L 326.644022 211.099521 
L 327.027214 214.357672 
L 327.410405 213.193099 
L 327.793597 204.805458 
L 328.176789 214.538268 
L 328.55998 214.232195 
L 328.943172 211.081196 
L 329.326364 212.777128 
L 329.709555 213.53612 
L 330.092747 212.433632 
L 330.475939 210.823887 
L 330.85913 211.454679 
L 331.242322 211.217368 
L 331.625513 211.930913 
L 332.008705 210.748363 
L 332.391897 213.420974 
L 332.775088 214.60504 
L 333.15828 210.901512 
L 333.924663 213.696177 
L 334.691046 211.027426 
L 335.074238 211.88729 
L 335.45743 212.093617 
L 335.840621 215.236227 
L 336.223813 215.216757 
L 336.607005 210.341134 
L 336.990196 214.845092 
L 337.373388 214.971171 
L 337.756579 213.358573 
L 338.139771 212.461714 
L 338.522963 212.462477 
L 338.906154 212.027159 
L 339.289346 215.216899 
L 339.672538 214.120213 
L 340.055729 214.704543 
L 340.438921 214.169582 
L 340.822112 214.139278 
L 341.205304 213.956327 
L 341.588496 211.958247 
L 341.971687 214.788671 
L 342.354879 213.393044 
L 342.738071 213.029098 
L 343.121262 213.659541 
L 343.504454 209.66416 
L 343.887646 212.123598 
L 344.270837 210.985963 
L 344.654029 203.070854 
L 345.03722 214.052285 
L 345.420412 216.002403 
L 345.803604 212.972348 
L 346.186795 213.655469 
L 346.569987 213.340529 
L 346.953179 213.602426 
L 347.33637 214.911114 
L 347.719562 214.799184 
L 348.102753 214.327615 
L 348.485945 213.403914 
L 348.869137 214.912131 
L 349.252328 213.57632 
L 349.63552 215.658193 
L 350.018712 214.778529 
L 350.401903 213.014329 
L 350.785095 214.545638 
L 351.168286 214.273357 
L 351.551478 214.875094 
L 351.93467 213.242435 
L 352.317861 213.218558 
L 352.701053 212.042832 
L 353.084245 212.983916 
L 353.467436 208.877372 
L 353.850628 211.278486 
L 354.233819 215.501961 
L 355.000203 211.047527 
L 355.383394 212.617225 
L 355.766586 211.980844 
L 356.149778 213.100153 
L 356.532969 213.805043 
L 356.916161 215.456419 
L 357.299353 213.653569 
L 357.682544 214.685057 
L 358.065736 212.812079 
L 358.448927 211.585847 
L 358.832119 212.250573 
L 359.215311 214.878213 
L 359.598502 213.378959 
L 359.981694 216.163915 
L 360.364886 214.626793 
L 360.748077 214.264827 
L 361.131269 210.574855 
L 361.51446 214.40584 
L 361.897652 214.919189 
L 362.280844 212.533804 
L 362.664035 211.727983 
L 363.047227 214.011487 
L 363.430419 214.049852 
L 363.81361 212.236691 
L 364.579993 214.472094 
L 364.963185 213.23609 
L 365.510602 213.950743 
L 365.893793 212.347082 
L 366.276985 212.597826 
L 366.660177 211.763049 
L 367.42656 214.98135 
L 367.809751 211.702129 
L 368.192943 214.906822 
L 368.576135 213.012009 
L 368.959326 214.465216 
L 369.342518 211.843161 
L 370.108901 214.348196 
L 370.492093 213.49204 
L 370.875284 213.028878 
L 371.258476 210.816552 
L 371.641668 215.664962 
L 372.024859 214.752687 
L 372.462793 213.349394 
L 373.229176 215.222746 
L 373.612368 214.877285 
L 373.995559 213.735665 
L 374.378751 216.000679 
L 374.761942 214.408844 
L 375.145134 212.311493 
L 375.528326 212.142243 
L 375.911517 214.223583 
L 376.294709 213.763613 
L 376.677901 211.367921 
L 377.061092 212.793874 
L 377.444284 212.538033 
L 377.827475 214.123798 
L 378.210667 212.786434 
L 378.593859 212.661756 
L 378.97705 214.52062 
L 379.360242 212.047239 
L 379.743434 215.125153 
L 380.126625 214.501172 
L 380.509817 214.76303 
L 380.893009 213.752204 
L 381.2762 214.26078 
L 381.659392 213.30276 
L 382.425775 212.470259 
L 382.808967 215.527711 
L 383.192158 209.02359 
L 383.57535 213.717843 
L 383.958542 207.392969 
L 384.341733 212.62722 
L 384.724925 211.872834 
L 385.108116 214.569109 
L 385.8745 211.718418 
L 386.257691 214.100647 
L 386.640883 214.103523 
L 387.024075 209.97097 
L 387.407266 212.877571 
L 387.790458 211.668925 
L 388.173649 214.511363 
L 388.556841 213.991475 
L 388.940033 213.252428 
L 389.323224 214.203578 
L 389.706416 214.19462 
L 390.089608 215.599892 
L 390.855991 213.069008 
L 391.239182 213.972843 
L 391.622374 212.562492 
L 392.005566 212.974572 
L 392.388757 215.114478 
L 392.771949 213.482744 
L 393.155141 213.461142 
L 393.538332 214.507484 
L 393.921524 213.396384 
L 394.304716 211.867501 
L 394.687907 214.111815 
L 395.071099 209.592017 
L 395.45429 212.668094 
L 395.837482 212.930643 
L 396.220674 211.589608 
L 396.603865 213.232512 
L 396.987057 215.817086 
L 397.370249 212.386118 
L 397.75344 215.521124 
L 398.136632 215.105044 
L 398.519823 212.172949 
L 398.903015 215.472221 
L 399.286207 211.453907 
L 399.669398 214.524714 
L 400.05259 213.721892 
L 400.435782 214.414784 
L 400.818973 214.837221 
L 401.202165 214.257746 
L 401.585356 215.304301 
L 401.968548 215.104458 
L 402.35174 215.842636 
L 402.789673 213.813087 
L 403.172865 214.377537 
L 403.556056 214.496668 
L 404.32244 215.094643 
L 404.705631 214.785538 
L 405.088823 214.753364 
L 405.472014 214.165129 
L 405.855206 214.24013 
L 406.238398 215.732058 
L 406.621589 212.495993 
L 407.004781 215.242745 
L 407.387973 214.233741 
L 407.771164 215.585318 
L 408.154356 213.94548 
L 408.537547 214.058095 
L 408.920739 212.784174 
L 409.303931 213.053941 
L 409.687122 214.237983 
L 410.070314 213.384456 
L 410.453506 214.878083 
L 410.836697 214.950918 
L 411.219889 214.420423 
L 411.60308 212.185438 
L 411.986272 215.792661 
L 412.369464 214.688856 
L 412.752655 215.622477 
L 413.135847 213.201986 
L 413.519039 214.644427 
L 413.90223 213.438295 
L 414.285422 215.462791 
L 414.668613 214.607041 
L 415.051805 214.068615 
L 415.434997 214.892386 
L 415.818188 213.387286 
L 416.20138 215.977114 
L 416.584572 214.891018 
L 416.967763 215.48883 
L 417.350955 213.485989 
L 417.734147 213.521157 
L 418.117338 213.877446 
L 418.50053 211.225314 
L 418.883721 212.354233 
L 419.266913 199.61229 
L 419.650105 209.020138 
L 420.033296 205.677193 
L 420.416488 209.587856 
L 420.79968 214.758469 
L 421.182871 211.329065 
L 421.566063 211.449107 
L 421.949254 214.098214 
L 422.332446 210.232784 
L 422.715638 210.421592 
L 423.098829 214.522849 
L 423.482021 213.900733 
L 423.865213 210.315323 
L 424.248404 213.635962 
L 425.014787 211.715716 
L 425.397979 214.904473 
L 425.781171 213.333053 
L 426.164362 212.244703 
L 426.547554 212.275001 
L 426.930746 212.479647 
L 427.313937 213.856179 
L 427.697129 212.724942 
L 428.08032 210.733213 
L 428.846704 215.409497 
L 429.229895 213.545378 
L 429.613087 211.099072 
L 429.996279 211.889153 
L 430.37947 209.548671 
L 431.145853 215.367978 
L 431.529045 208.721858 
L 431.912237 209.909487 
L 432.295428 214.591701 
L 432.67862 214.194239 
L 433.061812 211.676753 
L 433.445003 212.010244 
L 433.828195 212.662664 
L 434.211387 211.598144 
L 434.594578 215.570824 
L 434.97777 214.039016 
L 435.360961 211.111014 
L 435.744153 211.305826 
L 436.127345 214.701394 
L 436.510536 213.244598 
L 436.893728 212.898052 
L 437.27692 213.989249 
L 437.660111 215.5804 
L 438.426494 212.428742 
L 438.809686 212.692212 
L 439.192878 210.482927 
L 439.576069 214.019857 
L 439.959261 214.80218 
L 440.342453 215.08793 
L 440.725644 213.874004 
L 441.108836 213.593873 
L 441.492027 212.905201 
L 441.875219 213.568052 
L 442.258411 212.787402 
L 442.641602 212.616949 
L 443.024794 213.870916 
L 443.791177 211.582813 
L 444.174369 207.717222 
L 444.55756 215.305515 
L 444.940752 214.476728 
L 445.323944 210.457976 
L 445.707135 215.751585 
L 446.090327 213.247702 
L 446.473519 212.837276 
L 446.85671 214.115364 
L 447.239902 214.230597 
L 447.623094 214.592647 
L 448.006285 215.382542 
L 448.389477 214.370169 
L 448.772668 215.28627 
L 449.15586 212.417843 
L 449.539052 213.940479 
L 449.922243 212.272552 
L 450.305435 213.91967 
L 450.688627 214.283838 
L 451.071818 213.599378 
L 451.45501 212.099048 
L 451.838201 213.088942 
L 452.221393 212.893511 
L 452.604585 210.675244 
L 452.987776 213.708277 
L 453.370968 214.618444 
L 453.75416 211.344695 
L 454.137351 214.003219 
L 454.520543 215.466213 
L 454.903734 214.068441 
L 455.286926 214.133244 
L 455.670118 208.502284 
L 456.053309 212.07145 
L 456.436501 210.249861 
L 456.819693 213.157127 
L 457.202884 209.628037 
L 457.586076 213.871139 
L 457.969267 208.325716 
L 458.352459 205.077183 
L 458.735651 199.142885 
L 459.118842 210.157747 
L 459.502034 205.543385 
L 459.885226 208.208807 
L 460.268417 213.874726 
L 460.651609 213.467691 
L 461.034801 209.153233 
L 461.417992 211.279453 
L 461.801184 205.294769 
L 462.184375 206.253271 
L 462.567567 212.388142 
L 462.950759 205.926038 
L 463.33395 210.847554 
L 464.100334 213.333761 
L 464.483525 211.34784 
L 464.866717 208.070299 
L 465.249908 206.996745 
L 465.6331 208.859768 
L 466.016292 212.176671 
L 466.399483 212.303481 
L 466.782675 211.891593 
L 467.165867 206.10615 
L 467.549058 209.896184 
L 467.93225 210.278437 
L 468.315441 212.018412 
L 468.698633 204.292485 
L 469.465016 207.395555 
L 469.848208 210.015742 
L 470.2314 214.25521 
L 470.614591 206.611836 
L 470.997783 209.56211 
L 471.380974 206.350982 
L 471.764166 206.824418 
L 472.530549 208.523771 
L 472.913741 213.763802 
L 473.680124 207.410949 
L 474.063316 210.272213 
L 474.446508 214.890945 
L 474.829699 209.827195 
L 475.212891 208.2231 
L 475.596082 212.871514 
L 475.979274 211.368496 
L 476.362466 212.511206 
L 476.745657 204.635634 
L 477.128849 210.327511 
L 477.895232 213.453904 
L 478.278424 204.74674 
L 478.661615 205.916537 
L 479.044807 203.233925 
L 479.427999 209.856035 
L 479.81119 209.591785 
L 480.194382 213.648775 
L 480.577574 211.98221 
L 480.960765 207.28941 
L 481.727148 214.964622 
L 482.11034 212.003808 
L 482.493532 210.399133 
L 482.876723 213.476583 
L 483.259915 214.235208 
L 483.643107 215.905754 
L 484.026298 215.061521 
L 484.40949 211.666449 
L 484.792681 215.663163 
L 485.175873 207.107132 
L 485.559065 210.392794 
L 485.942256 210.89922 
L 486.325448 214.354626 
L 486.70864 209.506888 
L 487.091831 211.097411 
L 487.475023 214.140863 
L 487.858215 212.001374 
L 488.241406 207.167554 
L 488.624598 213.450495 
L 489.007789 212.945805 
L 489.390981 215.625234 
L 489.774173 211.641389 
L 490.157364 213.670642 
L 490.540556 211.688561 
L 490.923748 211.226917 
L 491.306939 213.239681 
L 491.690131 209.93897 
L 492.073322 209.945434 
L 492.456514 215.69923 
L 492.839706 213.361136 
L 493.222897 212.626852 
L 493.606089 213.387307 
L 493.989281 208.184968 
L 494.372472 213.615893 
L 495.138855 214.570415 
L 495.522047 213.800158 
L 495.905239 214.064384 
L 496.28843 213.016241 
L 496.671622 210.683693 
L 497.054814 213.862408 
L 497.438005 215.005949 
L 497.821197 215.013431 
L 498.204388 214.498809 
L 498.58758 212.545901 
L 498.970772 212.262666 
L 499.353963 210.747894 
L 499.737155 215.09504 
L 500.503538 212.000386 
L 500.88673 212.728096 
L 501.269922 214.712491 
L 501.653113 214.955608 
L 502.036305 215.352247 
L 502.419496 214.155751 
L 502.802688 213.522827 
L 503.18588 212.053589 
L 503.952263 210.527896 
L 504.335455 213.398627 
L 504.335455 213.398627 
" clip-path="url(#p86437d4aff)" style="fill: none; stroke: #808080; stroke-width: 1.5; stroke-linecap: square"/>
   </g>
   <g id="line2d_30">
    <path d="M 112.658869 136.380827 
L 122.238659 171.316553 
L 131.873192 124.190946 
L 141.452982 159.446901 
L 151.032773 141.635613 
L 160.612564 126.796282 
L 170.247096 86.734862 
L 180.100595 84.11276 
L 191.158411 75.186093 
L 200.738201 78.529677 
L 210.317992 71.662099 
L 219.897783 96.276014 
L 229.477574 93.293182 
L 239.057364 110.508822 
L 248.691897 112.652763 
L 258.381171 93.609045 
L 267.960961 155.041361 
L 277.540752 118.737936 
L 287.120543 150.574902 
L 296.755075 136.946591 
L 306.334866 108.176873 
L 315.914657 62.011479 
L 325.494447 91.000082 
L 335.074238 113.384263 
L 344.654029 101.121094 
L 354.233819 86.936091 
L 363.81361 52.731 
L 373.612368 114.387955 
L 383.192158 119.63379 
L 392.771949 101.703314 
L 402.35174 56.824004 
L 411.986272 79.05692 
L 421.566063 53.898408 
L 431.145853 63.628288 
L 440.725644 101.286715 
L 450.305435 112.484519 
L 459.885226 84.091527 
L 469.465016 77.512481 
L 479.044807 150.407205 
" clip-path="url(#p86437d4aff)" style="fill: none; stroke-dasharray: 1.5,2.475; stroke-dashoffset: 0; stroke: #ff0000; stroke-width: 1.5"/>
   </g>
   <g id="line2d_31">
    <path d="M 112.658869 212.9203 
L 122.238659 208.52004 
L 131.873192 209.770246 
L 141.452982 205.583037 
L 151.032773 221.219569 
L 160.612564 234.331986 
L 170.247096 211.140225 
L 180.100595 225.850284 
L 191.158411 222.732664 
L 200.738201 222.738854 
L 210.317992 169.409297 
L 219.897783 205.056809 
L 229.477574 190.036931 
L 239.057364 209.792401 
L 248.691897 235.196421 
L 258.381171 209.445466 
L 267.960961 241.01456 
L 277.540752 238.815361 
L 287.120543 238.462675 
L 296.755075 257.790476 
L 306.334866 214.500294 
L 315.914657 171.498762 
L 325.494447 143.650179 
L 335.074238 147.634333 
L 344.654029 151.920244 
L 354.233819 179.486675 
L 363.81361 209.072893 
L 373.612368 227.510363 
L 383.192158 281.719845 
L 392.771949 290.871 
L 402.35174 287.991487 
L 411.986272 246.698926 
L 421.566063 167.522484 
L 431.145853 168.266906 
L 440.725644 171.204395 
L 450.305435 153.218987 
L 459.885226 154.9523 
L 469.465016 157.668791 
L 479.044807 149.568774 
" clip-path="url(#p86437d4aff)" style="fill: none; stroke-dasharray: 9.6,2.4,1.5,2.4; stroke-dashoffset: 0; stroke: #ff0000; stroke-width: 1.5"/>
   </g>
   <g id="line2d_32">
    <path d="M 112.658869 224.507601 
L 122.238659 234.878772 
L 131.873192 229.492446 
L 141.452982 227.798533 
L 151.032773 233.079723 
L 160.612564 246.841478 
L 170.247096 268.627565 
L 180.100595 199.922232 
L 191.158411 206.232325 
L 200.738201 196.273908 
L 210.317992 223.692961 
L 219.897783 220.272849 
L 229.477574 219.737053 
L 239.057364 223.806941 
L 248.691897 215.492725 
L 258.381171 195.61403 
L 267.960961 221.963252 
L 277.540752 216.927982 
L 287.120543 217.367572 
L 296.755075 227.037939 
L 306.334866 219.597693 
L 315.914657 211.794095 
L 325.494447 211.945808 
L 335.074238 218.79056 
L 344.654029 221.526347 
L 354.233819 224.388583 
L 363.81361 217.054157 
L 373.612368 230.590816 
L 383.192158 225.081252 
L 392.771949 222.138488 
L 402.35174 265.475419 
L 411.986272 205.575989 
L 421.566063 210.363797 
L 431.145853 208.997405 
L 440.725644 257.372461 
L 450.305435 237.369283 
L 459.885226 231.708788 
L 469.465016 217.52355 
L 479.044807 221.209046 
" clip-path="url(#p86437d4aff)" style="fill: none; stroke-dasharray: 5.55,2.4; stroke-dashoffset: 0; stroke: #ff0000; stroke-width: 1.5"/>
   </g>
   <g id="line2d_33">
    <path d="M 112.658869 202.092095 
L 122.238659 212.69655 
L 131.873192 205.712785 
L 141.452982 212.11032 
L 151.032773 212.093066 
L 160.612564 211.042284 
L 170.247096 150.102252 
L 180.100595 186.752141 
L 191.158411 187.061904 
L 200.738201 186.791746 
L 210.317992 197.461051 
L 219.897783 204.538004 
L 229.477574 199.923778 
L 239.057364 195.179087 
L 248.691897 201.226873 
L 258.381171 193.323121 
L 267.960961 209.4005 
L 277.540752 202.043063 
L 287.120543 212.988923 
L 296.755075 212.414304 
L 306.334866 205.566624 
L 315.914657 197.503103 
L 325.494447 198.671252 
L 335.074238 208.526848 
L 344.654029 211.242499 
L 354.233819 203.240385 
L 363.81361 107.282325 
L 373.612368 212.434879 
L 383.192158 209.386271 
L 392.771949 199.065628 
L 402.35174 187.872709 
L 411.986272 196.551853 
L 421.566063 198.396831 
L 431.145853 191.450065 
L 440.725644 193.561652 
L 450.305435 185.290445 
L 459.885226 202.490417 
L 469.465016 187.177627 
L 479.044807 208.803028 
" clip-path="url(#p86437d4aff)" style="fill: none; stroke: #ff0000; stroke-width: 1.5; stroke-linecap: square"/>
   </g>
   <g id="line2d_34">
    <path d="M 112.658869 205.404411 
L 122.238659 213.755782 
L 131.873192 207.228639 
L 141.452982 206.58903 
L 151.032773 204.263438 
L 160.612564 206.399755 
L 170.247096 184.889284 
L 180.100595 179.185014 
L 191.158411 183.100634 
L 200.738201 183.724657 
L 210.317992 194.141074 
L 219.897783 195.671218 
L 229.477574 183.353968 
L 239.057364 194.073616 
L 248.691897 187.477174 
L 258.381171 182.312125 
L 267.960961 191.451767 
L 277.540752 205.644849 
L 287.120543 216.432177 
L 296.755075 215.686287 
L 306.334866 193.105532 
L 315.914657 201.09246 
L 325.494447 204.504403 
L 335.074238 208.50828 
L 344.654029 199.067216 
L 354.233819 195.053213 
L 363.81361 164.397802 
L 373.612368 214.514974 
L 383.192158 211.942166 
L 392.771949 209.160298 
L 402.35174 192.442482 
L 411.986272 186.484096 
L 421.566063 188.189983 
L 431.145853 188.08384 
L 440.725644 191.955568 
L 450.305435 195.195002 
L 459.885226 195.719398 
L 469.465016 190.919348 
L 479.044807 203.816544 
" clip-path="url(#p86437d4aff)" style="fill: none; stroke: #ff7f0e; stroke-width: 1.5; stroke-linecap: square"/>
   </g>
   <g id="line2d_35">
    <path d="M 112.658869 203.005682 
L 122.238659 211.873082 
L 131.873192 202.533625 
L 141.452982 208.384577 
L 151.032773 209.854555 
L 160.612564 213.603062 
L 170.247096 170.439282 
L 180.100595 179.943408 
L 191.158411 181.840356 
L 200.738201 187.28201 
L 210.317992 194.130751 
L 219.897783 200.057891 
L 229.477574 192.718093 
L 239.057364 186.848374 
L 248.691897 195.8031 
L 258.381171 190.877945 
L 267.960961 204.321545 
L 277.540752 206.744652 
L 287.120543 208.344754 
L 296.755075 210.463293 
L 306.334866 191.661181 
L 315.914657 186.461105 
L 325.494447 188.18639 
L 335.074238 194.237104 
L 344.654029 197.24448 
L 354.233819 196.407753 
L 363.81361 138.449074 
L 373.612368 201.673971 
L 383.192158 206.005904 
L 392.771949 203.265895 
L 402.35174 187.820852 
L 411.986272 189.70885 
L 421.566063 185.652994 
L 431.145853 188.408902 
L 440.725644 183.038986 
L 450.305435 184.688131 
L 459.885226 191.824897 
L 469.465016 187.414657 
L 479.044807 202.993323 
" clip-path="url(#p86437d4aff)" style="fill: none; stroke: #1f77b4; stroke-width: 1.5; stroke-linecap: square"/>
   </g>
   <g id="legend_1">
    <g id="patch_7">
     <path d="M 79.9 151.570875 
L 224.7125 151.570875 
Q 226.7125 151.570875 226.7125 149.570875 
L 226.7125 47.824 
Q 226.7125 45.824 224.7125 45.824 
L 79.9 45.824 
Q 77.9 45.824 77.9 47.824 
L 77.9 149.570875 
Q 77.9 151.570875 79.9 151.570875 
z
" style="fill: #ffffff; opacity: 0.8; stroke: #e6e6e6; stroke-linejoin: miter"/>
    </g>
    <g id="line2d_36">
     <path d="M 81.9 53.922438 
L 91.9 53.922438 
L 101.9 53.922438 
" style="fill: none; stroke: #808080; stroke-width: 1.5; stroke-linecap: square"/>
    </g>
    <g id="text_17">
     <!-- USD-HUF Log-Volatility -->
     <g transform="translate(109.9 57.422438)scale(0.1 -0.1)">
      <defs>
       <path id="DejaVuSans-55" d="M 556 4666 
L 1191 4666 
L 1191 1831 
Q 1191 1081 1462 751 
Q 1734 422 2344 422 
Q 2950 422 3222 751 
Q 3494 1081 3494 1831 
L 3494 4666 
L 4128 4666 
L 4128 1753 
Q 4128 841 3676 375 
Q 3225 -91 2344 -91 
Q 1459 -91 1007 375 
Q 556 841 556 1753 
L 556 4666 
z
" transform="scale(0.015625)"/>
       <path id="DejaVuSans-53" d="M 3425 4513 
L 3425 3897 
Q 3066 4069 2747 4153 
Q 2428 4238 2131 4238 
Q 1616 4238 1336 4038 
Q 1056 3838 1056 3469 
Q 1056 3159 1242 3001 
Q 1428 2844 1947 2747 
L 2328 2669 
Q 3034 2534 3370 2195 
Q 3706 1856 3706 1288 
Q 3706 609 3251 259 
Q 2797 -91 1919 -91 
Q 1588 -91 1214 -16 
Q 841 59 441 206 
L 441 856 
Q 825 641 1194 531 
Q 1563 422 1919 422 
Q 2459 422 2753 634 
Q 3047 847 3047 1241 
Q 3047 1584 2836 1778 
Q 2625 1972 2144 2069 
L 1759 2144 
Q 1053 2284 737 2584 
Q 422 2884 422 3419 
Q 422 4038 858 4394 
Q 1294 4750 2059 4750 
Q 2388 4750 2728 4690 
Q 3069 4631 3425 4513 
z
" transform="scale(0.015625)"/>
       <path id="DejaVuSans-46" d="M 628 4666 
L 3309 4666 
L 3309 4134 
L 1259 4134 
L 1259 2759 
L 3109 2759 
L 3109 2228 
L 1259 2228 
L 1259 0 
L 628 0 
L 628 4666 
z
" transform="scale(0.015625)"/>
       <path id="DejaVuSans-4c" d="M 628 4666 
L 1259 4666 
L 1259 531 
L 3531 531 
L 3531 0 
L 628 0 
L 628 4666 
z
" transform="scale(0.015625)"/>
       <path id="DejaVuSans-67" d="M 2906 1791 
Q 2906 2416 2648 2759 
Q 2391 3103 1925 3103 
Q 1463 3103 1205 2759 
Q 947 2416 947 1791 
Q 947 1169 1205 825 
Q 1463 481 1925 481 
Q 2391 481 2648 825 
Q 2906 1169 2906 1791 
z
M 3481 434 
Q 3481 -459 3084 -895 
Q 2688 -1331 1869 -1331 
Q 1566 -1331 1297 -1286 
Q 1028 -1241 775 -1147 
L 775 -588 
Q 1028 -725 1275 -790 
Q 1522 -856 1778 -856 
Q 2344 -856 2625 -561 
Q 2906 -266 2906 331 
L 2906 616 
Q 2728 306 2450 153 
Q 2172 0 1784 0 
Q 1141 0 747 490 
Q 353 981 353 1791 
Q 353 2603 747 3093 
Q 1141 3584 1784 3584 
Q 2172 3584 2450 3431 
Q 2728 3278 2906 2969 
L 2906 3500 
L 3481 3500 
L 3481 434 
z
" transform="scale(0.015625)"/>
      </defs>
      <use xlink:href="#DejaVuSans-55"/>
      <use xlink:href="#DejaVuSans-53" x="73.193359"/>
      <use xlink:href="#DejaVuSans-44" x="136.669922"/>
      <use xlink:href="#DejaVuSans-2d" x="213.671875"/>
      <use xlink:href="#DejaVuSans-48" x="249.755859"/>
      <use xlink:href="#DejaVuSans-55" x="324.951172"/>
      <use xlink:href="#DejaVuSans-46" x="398.144531"/>
      <use xlink:href="#DejaVuSans-20" x="455.664062"/>
      <use xlink:href="#DejaVuSans-4c" x="487.451172"/>
      <use xlink:href="#DejaVuSans-6f" x="541.414062"/>
      <use xlink:href="#DejaVuSans-67" x="602.595703"/>
      <use xlink:href="#DejaVuSans-2d" x="666.072266"/>
      <use xlink:href="#DejaVuSans-56" x="696.28125"/>
      <use xlink:href="#DejaVuSans-6f" x="756.939453"/>
      <use xlink:href="#DejaVuSans-6c" x="818.121094"/>
      <use xlink:href="#DejaVuSans-61" x="845.904297"/>
      <use xlink:href="#DejaVuSans-74" x="907.183594"/>
      <use xlink:href="#DejaVuSans-69" x="946.392578"/>
      <use xlink:href="#DejaVuSans-6c" x="974.175781"/>
      <use xlink:href="#DejaVuSans-69" x="1001.958984"/>
      <use xlink:href="#DejaVuSans-74" x="1029.742188"/>
      <use xlink:href="#DejaVuSans-79" x="1068.951172"/>
     </g>
    </g>
    <g id="line2d_37">
     <path d="M 81.9 68.600563 
L 91.9 68.600563 
L 101.9 68.600563 
" style="fill: none; stroke-dasharray: 1.5,2.475; stroke-dashoffset: 0; stroke: #ff0000; stroke-width: 1.5"/>
    </g>
    <g id="text_18">
     <!-- R/S Hurst -->
     <g transform="translate(109.9 72.100563)scale(0.1 -0.1)">
      <defs>
       <path id="DejaVuSans-52" d="M 2841 2188 
Q 3044 2119 3236 1894 
Q 3428 1669 3622 1275 
L 4263 0 
L 3584 0 
L 2988 1197 
Q 2756 1666 2539 1819 
Q 2322 1972 1947 1972 
L 1259 1972 
L 1259 0 
L 628 0 
L 628 4666 
L 2053 4666 
Q 2853 4666 3247 4331 
Q 3641 3997 3641 3322 
Q 3641 2881 3436 2590 
Q 3231 2300 2841 2188 
z
M 1259 4147 
L 1259 2491 
L 2053 2491 
Q 2509 2491 2742 2702 
Q 2975 2913 2975 3322 
Q 2975 3731 2742 3939 
Q 2509 4147 2053 4147 
L 1259 4147 
z
" transform="scale(0.015625)"/>
       <path id="DejaVuSans-2f" d="M 1625 4666 
L 2156 4666 
L 531 -594 
L 0 -594 
L 1625 4666 
z
" transform="scale(0.015625)"/>
      </defs>
      <use xlink:href="#DejaVuSans-52"/>
      <use xlink:href="#DejaVuSans-2f" x="69.482422"/>
      <use xlink:href="#DejaVuSans-53" x="103.173828"/>
      <use xlink:href="#DejaVuSans-20" x="166.650391"/>
      <use xlink:href="#DejaVuSans-48" x="198.4375"/>
      <use xlink:href="#DejaVuSans-75" x="273.632812"/>
      <use xlink:href="#DejaVuSans-72" x="337.011719"/>
      <use xlink:href="#DejaVuSans-73" x="378.125"/>
      <use xlink:href="#DejaVuSans-74" x="430.224609"/>
     </g>
    </g>
    <g id="line2d_38">
     <path d="M 81.9 83.278687 
L 91.9 83.278687 
L 101.9 83.278687 
" style="fill: none; stroke-dasharray: 9.6,2.4,1.5,2.4; stroke-dashoffset: 0; stroke: #ff0000; stroke-width: 1.5"/>
    </g>
    <g id="text_19">
     <!-- variogram Hurst -->
     <g transform="translate(109.9 86.778687)scale(0.1 -0.1)">
      <defs>
       <path id="DejaVuSans-76" d="M 191 3500 
L 800 3500 
L 1894 563 
L 2988 3500 
L 3597 3500 
L 2284 0 
L 1503 0 
L 191 3500 
z
" transform="scale(0.015625)"/>
      </defs>
      <use xlink:href="#DejaVuSans-76"/>
      <use xlink:href="#DejaVuSans-61" x="59.179688"/>
      <use xlink:href="#DejaVuSans-72" x="120.458984"/>
      <use xlink:href="#DejaVuSans-69" x="161.572266"/>
      <use xlink:href="#DejaVuSans-6f" x="189.355469"/>
      <use xlink:href="#DejaVuSans-67" x="250.537109"/>
      <use xlink:href="#DejaVuSans-72" x="314.013672"/>
      <use xlink:href="#DejaVuSans-61" x="355.126953"/>
      <use xlink:href="#DejaVuSans-6d" x="416.40625"/>
      <use xlink:href="#DejaVuSans-20" x="513.818359"/>
      <use xlink:href="#DejaVuSans-48" x="545.605469"/>
      <use xlink:href="#DejaVuSans-75" x="620.800781"/>
      <use xlink:href="#DejaVuSans-72" x="684.179688"/>
      <use xlink:href="#DejaVuSans-73" x="725.292969"/>
      <use xlink:href="#DejaVuSans-74" x="777.392578"/>
     </g>
    </g>
    <g id="line2d_39">
     <path d="M 81.9 97.956813 
L 91.9 97.956813 
L 101.9 97.956813 
" style="fill: none; stroke-dasharray: 5.55,2.4; stroke-dashoffset: 0; stroke: #ff0000; stroke-width: 1.5"/>
    </g>
    <g id="text_20">
     <!-- Higuchi Hurst -->
     <g transform="translate(109.9 101.456813)scale(0.1 -0.1)">
      <defs>
       <path id="DejaVuSans-63" d="M 3122 3366 
L 3122 2828 
Q 2878 2963 2633 3030 
Q 2388 3097 2138 3097 
Q 1578 3097 1268 2742 
Q 959 2388 959 1747 
Q 959 1106 1268 751 
Q 1578 397 2138 397 
Q 2388 397 2633 464 
Q 2878 531 3122 666 
L 3122 134 
Q 2881 22 2623 -34 
Q 2366 -91 2075 -91 
Q 1284 -91 818 406 
Q 353 903 353 1747 
Q 353 2603 823 3093 
Q 1294 3584 2113 3584 
Q 2378 3584 2631 3529 
Q 2884 3475 3122 3366 
z
" transform="scale(0.015625)"/>
       <path id="DejaVuSans-68" d="M 3513 2113 
L 3513 0 
L 2938 0 
L 2938 2094 
Q 2938 2591 2744 2837 
Q 2550 3084 2163 3084 
Q 1697 3084 1428 2787 
Q 1159 2491 1159 1978 
L 1159 0 
L 581 0 
L 581 4863 
L 1159 4863 
L 1159 2956 
Q 1366 3272 1645 3428 
Q 1925 3584 2291 3584 
Q 2894 3584 3203 3211 
Q 3513 2838 3513 2113 
z
" transform="scale(0.015625)"/>
      </defs>
      <use xlink:href="#DejaVuSans-48"/>
      <use xlink:href="#DejaVuSans-69" x="75.195312"/>
      <use xlink:href="#DejaVuSans-67" x="102.978516"/>
      <use xlink:href="#DejaVuSans-75" x="166.455078"/>
      <use xlink:href="#DejaVuSans-63" x="229.833984"/>
      <use xlink:href="#DejaVuSans-68" x="284.814453"/>
      <use xlink:href="#DejaVuSans-69" x="348.193359"/>
      <use xlink:href="#DejaVuSans-20" x="375.976562"/>
      <use xlink:href="#DejaVuSans-48" x="407.763672"/>
      <use xlink:href="#DejaVuSans-75" x="482.958984"/>
      <use xlink:href="#DejaVuSans-72" x="546.337891"/>
      <use xlink:href="#DejaVuSans-73" x="587.451172"/>
      <use xlink:href="#DejaVuSans-74" x="639.550781"/>
     </g>
    </g>
    <g id="line2d_40">
     <path d="M 81.9 112.634938 
L 91.9 112.634938 
L 101.9 112.634938 
" style="fill: none; stroke: #ff0000; stroke-width: 1.5; stroke-linecap: square"/>
    </g>
    <g id="text_21">
     <!-- Whittle Hurst -->
     <g transform="translate(109.9 116.134938)scale(0.1 -0.1)">
      <defs>
       <path id="DejaVuSans-57" d="M 213 4666 
L 850 4666 
L 1831 722 
L 2809 4666 
L 3519 4666 
L 4500 722 
L 5478 4666 
L 6119 4666 
L 4947 0 
L 4153 0 
L 3169 4050 
L 2175 0 
L 1381 0 
L 213 4666 
z
" transform="scale(0.015625)"/>
      </defs>
      <use xlink:href="#DejaVuSans-57"/>
      <use xlink:href="#DejaVuSans-68" x="98.876953"/>
      <use xlink:href="#DejaVuSans-69" x="162.255859"/>
      <use xlink:href="#DejaVuSans-74" x="190.039062"/>
      <use xlink:href="#DejaVuSans-74" x="229.248047"/>
      <use xlink:href="#DejaVuSans-6c" x="268.457031"/>
      <use xlink:href="#DejaVuSans-65" x="296.240234"/>
      <use xlink:href="#DejaVuSans-20" x="357.763672"/>
      <use xlink:href="#DejaVuSans-48" x="389.550781"/>
      <use xlink:href="#DejaVuSans-75" x="464.746094"/>
      <use xlink:href="#DejaVuSans-72" x="528.125"/>
      <use xlink:href="#DejaVuSans-73" x="569.238281"/>
      <use xlink:href="#DejaVuSans-74" x="621.337891"/>
     </g>
    </g>
    <g id="line2d_41">
     <path d="M 81.9 127.313063 
L 91.9 127.313063 
L 101.9 127.313063 
" style="fill: none; stroke: #ff7f0e; stroke-width: 1.5; stroke-linecap: square"/>
    </g>
    <g id="text_22">
     <!-- 1D CNN Hurst -->
     <g transform="translate(109.9 130.813063)scale(0.1 -0.1)">
      <defs>
       <path id="DejaVuSans-43" d="M 4122 4306 
L 4122 3641 
Q 3803 3938 3442 4084 
Q 3081 4231 2675 4231 
Q 1875 4231 1450 3742 
Q 1025 3253 1025 2328 
Q 1025 1406 1450 917 
Q 1875 428 2675 428 
Q 3081 428 3442 575 
Q 3803 722 4122 1019 
L 4122 359 
Q 3791 134 3420 21 
Q 3050 -91 2638 -91 
Q 1578 -91 968 557 
Q 359 1206 359 2328 
Q 359 3453 968 4101 
Q 1578 4750 2638 4750 
Q 3056 4750 3426 4639 
Q 3797 4528 4122 4306 
z
" transform="scale(0.015625)"/>
       <path id="DejaVuSans-4e" d="M 628 4666 
L 1478 4666 
L 3547 763 
L 3547 4666 
L 4159 4666 
L 4159 0 
L 3309 0 
L 1241 3903 
L 1241 0 
L 628 0 
L 628 4666 
z
" transform="scale(0.015625)"/>
      </defs>
      <use xlink:href="#DejaVuSans-31"/>
      <use xlink:href="#DejaVuSans-44" x="63.623047"/>
      <use xlink:href="#DejaVuSans-20" x="140.625"/>
      <use xlink:href="#DejaVuSans-43" x="172.412109"/>
      <use xlink:href="#DejaVuSans-4e" x="242.236328"/>
      <use xlink:href="#DejaVuSans-4e" x="317.041016"/>
      <use xlink:href="#DejaVuSans-20" x="391.845703"/>
      <use xlink:href="#DejaVuSans-48" x="423.632812"/>
      <use xlink:href="#DejaVuSans-75" x="498.828125"/>
      <use xlink:href="#DejaVuSans-72" x="562.207031"/>
      <use xlink:href="#DejaVuSans-73" x="603.320312"/>
      <use xlink:href="#DejaVuSans-74" x="655.419922"/>
     </g>
    </g>
    <g id="line2d_42">
     <path d="M 81.9 141.991187 
L 91.9 141.991187 
L 101.9 141.991187 
" style="fill: none; stroke: #1f77b4; stroke-width: 1.5; stroke-linecap: square"/>
    </g>
    <g id="text_23">
     <!-- LSTM Hurst -->
     <g transform="translate(109.9 145.491187)scale(0.1 -0.1)">
      <defs>
       <path id="DejaVuSans-54" d="M -19 4666 
L 3928 4666 
L 3928 4134 
L 2272 4134 
L 2272 0 
L 1638 0 
L 1638 4134 
L -19 4134 
L -19 4666 
z
" transform="scale(0.015625)"/>
       <path id="DejaVuSans-4d" d="M 628 4666 
L 1569 4666 
L 2759 1491 
L 3956 4666 
L 4897 4666 
L 4897 0 
L 4281 0 
L 4281 4097 
L 3078 897 
L 2444 897 
L 1241 4097 
L 1241 0 
L 628 0 
L 628 4666 
z
" transform="scale(0.015625)"/>
      </defs>
      <use xlink:href="#DejaVuSans-4c"/>
      <use xlink:href="#DejaVuSans-53" x="55.712891"/>
      <use xlink:href="#DejaVuSans-54" x="119.189453"/>
      <use xlink:href="#DejaVuSans-4d" x="180.273438"/>
      <use xlink:href="#DejaVuSans-20" x="266.552734"/>
      <use xlink:href="#DejaVuSans-48" x="298.339844"/>
      <use xlink:href="#DejaVuSans-75" x="373.535156"/>
      <use xlink:href="#DejaVuSans-72" x="436.914062"/>
      <use xlink:href="#DejaVuSans-73" x="478.027344"/>
      <use xlink:href="#DejaVuSans-74" x="530.126953"/>
     </g>
    </g>
   </g>
  </g>
 </g>
 <defs>
  <clipPath id="p86437d4aff">
   <rect x="72.9" y="40.824" width="451.98" height="261.954"/>
  </clipPath>
 </defs>
</svg>
