<?xml version="1.0" encoding="utf-8" standalone="no"?>
<!DOCTYPE svg PUBLIC "-//W3C//DTD SVG 1.1//EN"
  "http://www.w3.org/Graphics/SVG/1.1/DTD/svg11.dtd">
<svg xmlns:xlink="http://www.w3.org/1999/xlink" width="583.2pt" height="340.2pt" viewBox="0 0 583.2 340.2" xmlns="http://www.w3.org/2000/svg" version="1.1">
 <metadata>
  <rdf:RDF xmlns:dc="http://purl.org/dc/elements/1.1/" xmlns:cc="http://creativecommons.org/ns#" xmlns:rdf="http://www.w3.org/1999/02/22-rdf-syntax-ns#">
   <cc:Work>
    <dc:type rdf:resource="http://purl.org/dc/dcmitype/StillImage"/>
    <dc:date>2024-07-07T11:10:43.646136</dc:date>
    <dc:format>image/svg+xml</dc:format>
    <dc:creator>
     <cc:Agent>
      <dc:title>Matplotlib v3.5.1, https://matplotlib.org/</dc:title>
     </cc:Agent>
    </dc:creator>
   </cc:Work>
  </rdf:RDF>
 </metadata>
 <defs>
  <style type="text/css">*{stroke-linejoin: round; stroke-linecap: butt}</style>
 </defs>
 <g id="figure_1">
  <g id="patch_1">
   <path d="M 0 340.2 
L 583.2 340.2 
L 583.2 0 
L 0 0 
z
" style="fill: #ffffff"/>
  </g>
  <g id="axes_1">
   <g id="patch_2">
    <path d="M 72.9 302.778 
L 524.88 302.778 
L 524.88 40.824 
L 72.9 40.824 
L 72.9 302.778 
z
" style="fill: none; opacity: 0"/>
   </g>
   <g id="matplotlib.axis_1">
    <g id="xtick_1">
     <g id="line2d_1">
      <path d="M 116.37919 302.778 
L 116.37919 40.824 
" clip-path="url(#p459f8d8079)" style="fill: none; stroke: #e6e6e6; stroke-width: 0.8; stroke-linecap: square"/>
     </g>
     <g id="line2d_2">
      <defs>
       <path id="m7b75956bec" d="M 0 0 
L 0 3.5 
" style="stroke: #000000; stroke-width: 0.8"/>
      </defs>
      <g>
       <use xlink:href="#m7b75956bec" x="116.37919" y="302.778" style="stroke: #000000; stroke-width: 0.8"/>
      </g>
     </g>
     <g id="text_1">
      <!-- 2008 -->
      <g transform="translate(103.65419 317.376438)scale(0.1 -0.1)">
       <defs>
        <path id="DejaVuSans-32" d="M 1228 531 
L 3431 531 
L 3431 0 
L 469 0 
L 469 531 
Q 828 903 1448 1529 
Q 2069 2156 2228 2338 
Q 2531 2678 2651 2914 
Q 2772 3150 2772 3378 
Q 2772 3750 2511 3984 
Q 2250 4219 1831 4219 
Q 1534 4219 1204 4116 
Q 875 4013 500 3803 
L 500 4441 
Q 881 4594 1212 4672 
Q 1544 4750 1819 4750 
Q 2544 4750 2975 4387 
Q 3406 4025 3406 3419 
Q 3406 3131 3298 2873 
Q 3191 2616 2906 2266 
Q 2828 2175 2409 1742 
Q 1991 1309 1228 531 
z
" transform="scale(0.015625)"/>
        <path id="DejaVuSans-30" d="M 2034 4250 
Q 1547 4250 1301 3770 
Q 1056 3291 1056 2328 
Q 1056 1369 1301 889 
Q 1547 409 2034 409 
Q 2525 409 2770 889 
Q 3016 1369 3016 2328 
Q 3016 3291 2770 3770 
Q 2525 4250 2034 4250 
z
M 2034 4750 
Q 2819 4750 3233 4129 
Q 3647 3509 3647 2328 
Q 3647 1150 3233 529 
Q 2819 -91 2034 -91 
Q 1250 -91 836 529 
Q 422 1150 422 2328 
Q 422 3509 836 4129 
Q 1250 4750 2034 4750 
z
" transform="scale(0.015625)"/>
        <path id="DejaVuSans-38" d="M 2034 2216 
Q 1584 2216 1326 1975 
Q 1069 1734 1069 1313 
Q 1069 891 1326 650 
Q 1584 409 2034 409 
Q 2484 409 2743 651 
Q 3003 894 3003 1313 
Q 3003 1734 2745 1975 
Q 2488 2216 2034 2216 
z
M 1403 2484 
Q 997 2584 770 2862 
Q 544 3141 544 3541 
Q 544 4100 942 4425 
Q 1341 4750 2034 4750 
Q 2731 4750 3128 4425 
Q 3525 4100 3525 3541 
Q 3525 3141 3298 2862 
Q 3072 2584 2669 2484 
Q 3125 2378 3379 2068 
Q 3634 1759 3634 1313 
Q 3634 634 3220 271 
Q 2806 -91 2034 -91 
Q 1263 -91 848 271 
Q 434 634 434 1313 
Q 434 1759 690 2068 
Q 947 2378 1403 2484 
z
M 1172 3481 
Q 1172 3119 1398 2916 
Q 1625 2713 2034 2713 
Q 2441 2713 2670 2916 
Q 2900 3119 2900 3481 
Q 2900 3844 2670 4047 
Q 2441 4250 2034 4250 
Q 1625 4250 1398 4047 
Q 1172 3844 1172 3481 
z
" transform="scale(0.015625)"/>
       </defs>
       <use xlink:href="#DejaVuSans-32"/>
       <use xlink:href="#DejaVuSans-30" x="63.623047"/>
       <use xlink:href="#DejaVuSans-30" x="127.246094"/>
       <use xlink:href="#DejaVuSans-38" x="190.869141"/>
      </g>
     </g>
    </g>
    <g id="xtick_2">
     <g id="line2d_3">
      <path d="M 163.472519 302.778 
L 163.472519 40.824 
" clip-path="url(#p459f8d8079)" style="fill: none; stroke: #e6e6e6; stroke-width: 0.8; stroke-linecap: square"/>
     </g>
     <g id="line2d_4">
      <g>
       <use xlink:href="#m7b75956bec" x="163.472519" y="302.778" style="stroke: #000000; stroke-width: 0.8"/>
      </g>
     </g>
     <g id="text_2">
      <!-- 2010 -->
      <g transform="translate(150.747519 317.376438)scale(0.1 -0.1)">
       <defs>
        <path id="DejaVuSans-31" d="M 794 531 
L 1825 531 
L 1825 4091 
L 703 3866 
L 703 4441 
L 1819 4666 
L 2450 4666 
L 2450 531 
L 3481 531 
L 3481 0 
L 794 0 
L 794 531 
z
" transform="scale(0.015625)"/>
       </defs>
       <use xlink:href="#DejaVuSans-32"/>
       <use xlink:href="#DejaVuSans-30" x="63.623047"/>
       <use xlink:href="#DejaVuSans-31" x="127.246094"/>
       <use xlink:href="#DejaVuSans-30" x="190.869141"/>
      </g>
     </g>
    </g>
    <g id="xtick_3">
     <g id="line2d_5">
      <path d="M 210.501426 302.778 
L 210.501426 40.824 
" clip-path="url(#p459f8d8079)" style="fill: none; stroke: #e6e6e6; stroke-width: 0.8; stroke-linecap: square"/>
     </g>
     <g id="line2d_6">
      <g>
       <use xlink:href="#m7b75956bec" x="210.501426" y="302.778" style="stroke: #000000; stroke-width: 0.8"/>
      </g>
     </g>
     <g id="text_3">
      <!-- 2012 -->
      <g transform="translate(197.776426 317.376438)scale(0.1 -0.1)">
       <use xlink:href="#DejaVuSans-32"/>
       <use xlink:href="#DejaVuSans-30" x="63.623047"/>
       <use xlink:href="#DejaVuSans-31" x="127.246094"/>
       <use xlink:href="#DejaVuSans-32" x="190.869141"/>
      </g>
     </g>
    </g>
    <g id="xtick_4">
     <g id="line2d_7">
      <path d="M 257.594755 302.778 
L 257.594755 40.824 
" clip-path="url(#p459f8d8079)" style="fill: none; stroke: #e6e6e6; stroke-width: 0.8; stroke-linecap: square"/>
     </g>
     <g id="line2d_8">
      <g>
       <use xlink:href="#m7b75956bec" x="257.594755" y="302.778" style="stroke: #000000; stroke-width: 0.8"/>
      </g>
     </g>
     <g id="text_4">
      <!-- 2014 -->
      <g transform="translate(244.869755 317.376438)scale(0.1 -0.1)">
       <defs>
        <path id="DejaVuSans-34" d="M 2419 4116 
L 825 1625 
L 2419 1625 
L 2419 4116 
z
M 2253 4666 
L 3047 4666 
L 3047 1625 
L 3713 1625 
L 3713 1100 
L 3047 1100 
L 3047 0 
L 2419 0 
L 2419 1100 
L 313 1100 
L 313 1709 
L 2253 4666 
z
" transform="scale(0.015625)"/>
       </defs>
       <use xlink:href="#DejaVuSans-32"/>
       <use xlink:href="#DejaVuSans-30" x="63.623047"/>
       <use xlink:href="#DejaVuSans-31" x="127.246094"/>
       <use xlink:href="#DejaVuSans-34" x="190.869141"/>
      </g>
     </g>
    </g>
    <g id="xtick_5">
     <g id="line2d_9">
      <path d="M 304.623661 302.778 
L 304.623661 40.824 
" clip-path="url(#p459f8d8079)" style="fill: none; stroke: #e6e6e6; stroke-width: 0.8; stroke-linecap: square"/>
     </g>
     <g id="line2d_10">
      <g>
       <use xlink:href="#m7b75956bec" x="304.623661" y="302.778" style="stroke: #000000; stroke-width: 0.8"/>
      </g>
     </g>
     <g id="text_5">
      <!-- 2016 -->
      <g transform="translate(291.898661 317.376438)scale(0.1 -0.1)">
       <defs>
        <path id="DejaVuSans-36" d="M 2113 2584 
Q 1688 2584 1439 2293 
Q 1191 2003 1191 1497 
Q 1191 994 1439 701 
Q 1688 409 2113 409 
Q 2538 409 2786 701 
Q 3034 994 3034 1497 
Q 3034 2003 2786 2293 
Q 2538 2584 2113 2584 
z
M 3366 4563 
L 3366 3988 
Q 3128 4100 2886 4159 
Q 2644 4219 2406 4219 
Q 1781 4219 1451 3797 
Q 1122 3375 1075 2522 
Q 1259 2794 1537 2939 
Q 1816 3084 2150 3084 
Q 2853 3084 3261 2657 
Q 3669 2231 3669 1497 
Q 3669 778 3244 343 
Q 2819 -91 2113 -91 
Q 1303 -91 875 529 
Q 447 1150 447 2328 
Q 447 3434 972 4092 
Q 1497 4750 2381 4750 
Q 2619 4750 2861 4703 
Q 3103 4656 3366 4563 
z
" transform="scale(0.015625)"/>
       </defs>
       <use xlink:href="#DejaVuSans-32"/>
       <use xlink:href="#DejaVuSans-30" x="63.623047"/>
       <use xlink:href="#DejaVuSans-31" x="127.246094"/>
       <use xlink:href="#DejaVuSans-36" x="190.869141"/>
      </g>
     </g>
    </g>
    <g id="xtick_6">
     <g id="line2d_11">
      <path d="M 351.716991 302.778 
L 351.716991 40.824 
" clip-path="url(#p459f8d8079)" style="fill: none; stroke: #e6e6e6; stroke-width: 0.8; stroke-linecap: square"/>
     </g>
     <g id="line2d_12">
      <g>
       <use xlink:href="#m7b75956bec" x="351.716991" y="302.778" style="stroke: #000000; stroke-width: 0.8"/>
      </g>
     </g>
     <g id="text_6">
      <!-- 2018 -->
      <g transform="translate(338.991991 317.376438)scale(0.1 -0.1)">
       <use xlink:href="#DejaVuSans-32"/>
       <use xlink:href="#DejaVuSans-30" x="63.623047"/>
       <use xlink:href="#DejaVuSans-31" x="127.246094"/>
       <use xlink:href="#DejaVuSans-38" x="190.869141"/>
      </g>
     </g>
    </g>
    <g id="xtick_7">
     <g id="line2d_13">
      <path d="M 398.745897 302.778 
L 398.745897 40.824 
" clip-path="url(#p459f8d8079)" style="fill: none; stroke: #e6e6e6; stroke-width: 0.8; stroke-linecap: square"/>
     </g>
     <g id="line2d_14">
      <g>
       <use xlink:href="#m7b75956bec" x="398.745897" y="302.778" style="stroke: #000000; stroke-width: 0.8"/>
      </g>
     </g>
     <g id="text_7">
      <!-- 2020 -->
      <g transform="translate(386.020897 317.376438)scale(0.1 -0.1)">
       <use xlink:href="#DejaVuSans-32"/>
       <use xlink:href="#DejaVuSans-30" x="63.623047"/>
       <use xlink:href="#DejaVuSans-32" x="127.246094"/>
       <use xlink:href="#DejaVuSans-30" x="190.869141"/>
      </g>
     </g>
    </g>
    <g id="xtick_8">
     <g id="line2d_15">
      <path d="M 445.839226 302.778 
L 445.839226 40.824 
" clip-path="url(#p459f8d8079)" style="fill: none; stroke: #e6e6e6; stroke-width: 0.8; stroke-linecap: square"/>
     </g>
     <g id="line2d_16">
      <g>
       <use xlink:href="#m7b75956bec" x="445.839226" y="302.778" style="stroke: #000000; stroke-width: 0.8"/>
      </g>
     </g>
     <g id="text_8">
      <!-- 2022 -->
      <g transform="translate(433.114226 317.376438)scale(0.1 -0.1)">
       <use xlink:href="#DejaVuSans-32"/>
       <use xlink:href="#DejaVuSans-30" x="63.623047"/>
       <use xlink:href="#DejaVuSans-32" x="127.246094"/>
       <use xlink:href="#DejaVuSans-32" x="190.869141"/>
      </g>
     </g>
    </g>
    <g id="xtick_9">
     <g id="line2d_17">
      <path d="M 492.868132 302.778 
L 492.868132 40.824 
" clip-path="url(#p459f8d8079)" style="fill: none; stroke: #e6e6e6; stroke-width: 0.8; stroke-linecap: square"/>
     </g>
     <g id="line2d_18">
      <g>
       <use xlink:href="#m7b75956bec" x="492.868132" y="302.778" style="stroke: #000000; stroke-width: 0.8"/>
      </g>
     </g>
     <g id="text_9">
      <!-- 2024 -->
      <g transform="translate(480.143132 317.376438)scale(0.1 -0.1)">
       <use xlink:href="#DejaVuSans-32"/>
       <use xlink:href="#DejaVuSans-30" x="63.623047"/>
       <use xlink:href="#DejaVuSans-32" x="127.246094"/>
       <use xlink:href="#DejaVuSans-34" x="190.869141"/>
      </g>
     </g>
    </g>
    <g id="text_10">
     <!-- Date -->
     <g transform="translate(286.939219 331.054562)scale(0.1 -0.1)">
      <defs>
       <path id="DejaVuSans-44" d="M 1259 4147 
L 1259 519 
L 2022 519 
Q 2988 519 3436 956 
Q 3884 1394 3884 2338 
Q 3884 3275 3436 3711 
Q 2988 4147 2022 4147 
L 1259 4147 
z
M 628 4666 
L 1925 4666 
Q 3281 4666 3915 4102 
Q 4550 3538 4550 2338 
Q 4550 1131 3912 565 
Q 3275 0 1925 0 
L 628 0 
L 628 4666 
z
" transform="scale(0.015625)"/>
       <path id="DejaVuSans-61" d="M 2194 1759 
Q 1497 1759 1228 1600 
Q 959 1441 959 1056 
Q 959 750 1161 570 
Q 1363 391 1709 391 
Q 2188 391 2477 730 
Q 2766 1069 2766 1631 
L 2766 1759 
L 2194 1759 
z
M 3341 1997 
L 3341 0 
L 2766 0 
L 2766 531 
Q 2569 213 2275 61 
Q 1981 -91 1556 -91 
Q 1019 -91 701 211 
Q 384 513 384 1019 
Q 384 1609 779 1909 
Q 1175 2209 1959 2209 
L 2766 2209 
L 2766 2266 
Q 2766 2663 2505 2880 
Q 2244 3097 1772 3097 
Q 1472 3097 1187 3025 
Q 903 2953 641 2809 
L 641 3341 
Q 956 3463 1253 3523 
Q 1550 3584 1831 3584 
Q 2591 3584 2966 3190 
Q 3341 2797 3341 1997 
z
" transform="scale(0.015625)"/>
       <path id="DejaVuSans-74" d="M 1172 4494 
L 1172 3500 
L 2356 3500 
L 2356 3053 
L 1172 3053 
L 1172 1153 
Q 1172 725 1289 603 
Q 1406 481 1766 481 
L 2356 481 
L 2356 0 
L 1766 0 
Q 1100 0 847 248 
Q 594 497 594 1153 
L 594 3053 
L 172 3053 
L 172 3500 
L 594 3500 
L 594 4494 
L 1172 4494 
z
" transform="scale(0.015625)"/>
       <path id="DejaVuSans-65" d="M 3597 1894 
L 3597 1613 
L 953 1613 
Q 991 1019 1311 708 
Q 1631 397 2203 397 
Q 2534 397 2845 478 
Q 3156 559 3463 722 
L 3463 178 
Q 3153 47 2828 -22 
Q 2503 -91 2169 -91 
Q 1331 -91 842 396 
Q 353 884 353 1716 
Q 353 2575 817 3079 
Q 1281 3584 2069 3584 
Q 2775 3584 3186 3129 
Q 3597 2675 3597 1894 
z
M 3022 2063 
Q 3016 2534 2758 2815 
Q 2500 3097 2075 3097 
Q 1594 3097 1305 2825 
Q 1016 2553 972 2059 
L 3022 2063 
z
" transform="scale(0.015625)"/>
      </defs>
      <use xlink:href="#DejaVuSans-44"/>
      <use xlink:href="#DejaVuSans-61" x="77.001953"/>
      <use xlink:href="#DejaVuSans-74" x="138.28125"/>
      <use xlink:href="#DejaVuSans-65" x="177.490234"/>
     </g>
    </g>
   </g>
   <g id="matplotlib.axis_2">
    <g id="ytick_1">
     <g id="line2d_19">
      <path d="M 72.9 264.52502 
L 524.88 264.52502 
" clip-path="url(#p459f8d8079)" style="fill: none; stroke: #e6e6e6; stroke-width: 0.8; stroke-linecap: square"/>
     </g>
     <g id="line2d_20">
      <defs>
       <path id="m39f4cbbc9e" d="M 0 0 
L -3.5 0 
" style="stroke: #000000; stroke-width: 0.8"/>
      </defs>
      <g>
       <use xlink:href="#m39f4cbbc9e" x="72.9" y="264.52502" style="stroke: #000000; stroke-width: 0.8"/>
      </g>
     </g>
     <g id="text_11">
      <!-- 0.0 -->
      <g transform="translate(49.996875 268.324239)scale(0.1 -0.1)">
       <defs>
        <path id="DejaVuSans-2e" d="M 684 794 
L 1344 794 
L 1344 0 
L 684 0 
L 684 794 
z
" transform="scale(0.015625)"/>
       </defs>
       <use xlink:href="#DejaVuSans-30"/>
       <use xlink:href="#DejaVuSans-2e" x="63.623047"/>
       <use xlink:href="#DejaVuSans-30" x="95.410156"/>
      </g>
     </g>
    </g>
    <g id="ytick_2">
     <g id="line2d_21">
      <path d="M 72.9 208.231046 
L 524.88 208.231046 
" clip-path="url(#p459f8d8079)" style="fill: none; stroke: #e6e6e6; stroke-width: 0.8; stroke-linecap: square"/>
     </g>
     <g id="line2d_22">
      <g>
       <use xlink:href="#m39f4cbbc9e" x="72.9" y="208.231046" style="stroke: #000000; stroke-width: 0.8"/>
      </g>
     </g>
     <g id="text_12">
      <!-- 0.2 -->
      <g transform="translate(49.996875 212.030265)scale(0.1 -0.1)">
       <use xlink:href="#DejaVuSans-30"/>
       <use xlink:href="#DejaVuSans-2e" x="63.623047"/>
       <use xlink:href="#DejaVuSans-32" x="95.410156"/>
      </g>
     </g>
    </g>
    <g id="ytick_3">
     <g id="line2d_23">
      <path d="M 72.9 151.937072 
L 524.88 151.937072 
" clip-path="url(#p459f8d8079)" style="fill: none; stroke: #e6e6e6; stroke-width: 0.8; stroke-linecap: square"/>
     </g>
     <g id="line2d_24">
      <g>
       <use xlink:href="#m39f4cbbc9e" x="72.9" y="151.937072" style="stroke: #000000; stroke-width: 0.8"/>
      </g>
     </g>
     <g id="text_13">
      <!-- 0.4 -->
      <g transform="translate(49.996875 155.73629)scale(0.1 -0.1)">
       <use xlink:href="#DejaVuSans-30"/>
       <use xlink:href="#DejaVuSans-2e" x="63.623047"/>
       <use xlink:href="#DejaVuSans-34" x="95.410156"/>
      </g>
     </g>
    </g>
    <g id="ytick_4">
     <g id="line2d_25">
      <path d="M 72.9 95.643097 
L 524.88 95.643097 
" clip-path="url(#p459f8d8079)" style="fill: none; stroke: #e6e6e6; stroke-width: 0.8; stroke-linecap: square"/>
     </g>
     <g id="line2d_26">
      <g>
       <use xlink:href="#m39f4cbbc9e" x="72.9" y="95.643097" style="stroke: #000000; stroke-width: 0.8"/>
      </g>
     </g>
     <g id="text_14">
      <!-- 0.6 -->
      <g transform="translate(49.996875 99.442316)scale(0.1 -0.1)">
       <use xlink:href="#DejaVuSans-30"/>
       <use xlink:href="#DejaVuSans-2e" x="63.623047"/>
       <use xlink:href="#DejaVuSans-36" x="95.410156"/>
      </g>
     </g>
    </g>
    <g id="text_15">
     <!-- Volatility and Hurst-estimate -->
     <g transform="translate(43.917187 243.333031)rotate(-90)scale(0.1 -0.1)">
      <defs>
       <path id="DejaVuSans-56" d="M 1831 0 
L 50 4666 
L 709 4666 
L 2188 738 
L 3669 4666 
L 4325 4666 
L 2547 0 
L 1831 0 
z
" transform="scale(0.015625)"/>
       <path id="DejaVuSans-6f" d="M 1959 3097 
Q 1497 3097 1228 2736 
Q 959 2375 959 1747 
Q 959 1119 1226 758 
Q 1494 397 1959 397 
Q 2419 397 2687 759 
Q 2956 1122 2956 1747 
Q 2956 2369 2687 2733 
Q 2419 3097 1959 3097 
z
M 1959 3584 
Q 2709 3584 3137 3096 
Q 3566 2609 3566 1747 
Q 3566 888 3137 398 
Q 2709 -91 1959 -91 
Q 1206 -91 779 398 
Q 353 888 353 1747 
Q 353 2609 779 3096 
Q 1206 3584 1959 3584 
z
" transform="scale(0.015625)"/>
       <path id="DejaVuSans-6c" d="M 603 4863 
L 1178 4863 
L 1178 0 
L 603 0 
L 603 4863 
z
" transform="scale(0.015625)"/>
       <path id="DejaVuSans-69" d="M 603 3500 
L 1178 3500 
L 1178 0 
L 603 0 
L 603 3500 
z
M 603 4863 
L 1178 4863 
L 1178 4134 
L 603 4134 
L 603 4863 
z
" transform="scale(0.015625)"/>
       <path id="DejaVuSans-79" d="M 2059 -325 
Q 1816 -950 1584 -1140 
Q 1353 -1331 966 -1331 
L 506 -1331 
L 506 -850 
L 844 -850 
Q 1081 -850 1212 -737 
Q 1344 -625 1503 -206 
L 1606 56 
L 191 3500 
L 800 3500 
L 1894 763 
L 2988 3500 
L 3597 3500 
L 2059 -325 
z
" transform="scale(0.015625)"/>
       <path id="DejaVuSans-20" transform="scale(0.015625)"/>
       <path id="DejaVuSans-6e" d="M 3513 2113 
L 3513 0 
L 2938 0 
L 2938 2094 
Q 2938 2591 2744 2837 
Q 2550 3084 2163 3084 
Q 1697 3084 1428 2787 
Q 1159 2491 1159 1978 
L 1159 0 
L 581 0 
L 581 3500 
L 1159 3500 
L 1159 2956 
Q 1366 3272 1645 3428 
Q 1925 3584 2291 3584 
Q 2894 3584 3203 3211 
Q 3513 2838 3513 2113 
z
" transform="scale(0.015625)"/>
       <path id="DejaVuSans-64" d="M 2906 2969 
L 2906 4863 
L 3481 4863 
L 3481 0 
L 2906 0 
L 2906 525 
Q 2725 213 2448 61 
Q 2172 -91 1784 -91 
Q 1150 -91 751 415 
Q 353 922 353 1747 
Q 353 2572 751 3078 
Q 1150 3584 1784 3584 
Q 2172 3584 2448 3432 
Q 2725 3281 2906 2969 
z
M 947 1747 
Q 947 1113 1208 752 
Q 1469 391 1925 391 
Q 2381 391 2643 752 
Q 2906 1113 2906 1747 
Q 2906 2381 2643 2742 
Q 2381 3103 1925 3103 
Q 1469 3103 1208 2742 
Q 947 2381 947 1747 
z
" transform="scale(0.015625)"/>
       <path id="DejaVuSans-48" d="M 628 4666 
L 1259 4666 
L 1259 2753 
L 3553 2753 
L 3553 4666 
L 4184 4666 
L 4184 0 
L 3553 0 
L 3553 2222 
L 1259 2222 
L 1259 0 
L 628 0 
L 628 4666 
z
" transform="scale(0.015625)"/>
       <path id="DejaVuSans-75" d="M 544 1381 
L 544 3500 
L 1119 3500 
L 1119 1403 
Q 1119 906 1312 657 
Q 1506 409 1894 409 
Q 2359 409 2629 706 
Q 2900 1003 2900 1516 
L 2900 3500 
L 3475 3500 
L 3475 0 
L 2900 0 
L 2900 538 
Q 2691 219 2414 64 
Q 2138 -91 1772 -91 
Q 1169 -91 856 284 
Q 544 659 544 1381 
z
M 1991 3584 
L 1991 3584 
z
" transform="scale(0.015625)"/>
       <path id="DejaVuSans-72" d="M 2631 2963 
Q 2534 3019 2420 3045 
Q 2306 3072 2169 3072 
Q 1681 3072 1420 2755 
Q 1159 2438 1159 1844 
L 1159 0 
L 581 0 
L 581 3500 
L 1159 3500 
L 1159 2956 
Q 1341 3275 1631 3429 
Q 1922 3584 2338 3584 
Q 2397 3584 2469 3576 
Q 2541 3569 2628 3553 
L 2631 2963 
z
" transform="scale(0.015625)"/>
       <path id="DejaVuSans-73" d="M 2834 3397 
L 2834 2853 
Q 2591 2978 2328 3040 
Q 2066 3103 1784 3103 
Q 1356 3103 1142 2972 
Q 928 2841 928 2578 
Q 928 2378 1081 2264 
Q 1234 2150 1697 2047 
L 1894 2003 
Q 2506 1872 2764 1633 
Q 3022 1394 3022 966 
Q 3022 478 2636 193 
Q 2250 -91 1575 -91 
Q 1294 -91 989 -36 
Q 684 19 347 128 
L 347 722 
Q 666 556 975 473 
Q 1284 391 1588 391 
Q 1994 391 2212 530 
Q 2431 669 2431 922 
Q 2431 1156 2273 1281 
Q 2116 1406 1581 1522 
L 1381 1569 
Q 847 1681 609 1914 
Q 372 2147 372 2553 
Q 372 3047 722 3315 
Q 1072 3584 1716 3584 
Q 2034 3584 2315 3537 
Q 2597 3491 2834 3397 
z
" transform="scale(0.015625)"/>
       <path id="DejaVuSans-2d" d="M 313 2009 
L 1997 2009 
L 1997 1497 
L 313 1497 
L 313 2009 
z
" transform="scale(0.015625)"/>
       <path id="DejaVuSans-6d" d="M 3328 2828 
Q 3544 3216 3844 3400 
Q 4144 3584 4550 3584 
Q 5097 3584 5394 3201 
Q 5691 2819 5691 2113 
L 5691 0 
L 5113 0 
L 5113 2094 
Q 5113 2597 4934 2840 
Q 4756 3084 4391 3084 
Q 3944 3084 3684 2787 
Q 3425 2491 3425 1978 
L 3425 0 
L 2847 0 
L 2847 2094 
Q 2847 2600 2669 2842 
Q 2491 3084 2119 3084 
Q 1678 3084 1418 2786 
Q 1159 2488 1159 1978 
L 1159 0 
L 581 0 
L 581 3500 
L 1159 3500 
L 1159 2956 
Q 1356 3278 1631 3431 
Q 1906 3584 2284 3584 
Q 2666 3584 2933 3390 
Q 3200 3197 3328 2828 
z
" transform="scale(0.015625)"/>
      </defs>
      <use xlink:href="#DejaVuSans-56"/>
      <use xlink:href="#DejaVuSans-6f" x="60.658203"/>
      <use xlink:href="#DejaVuSans-6c" x="121.839844"/>
      <use xlink:href="#DejaVuSans-61" x="149.623047"/>
      <use xlink:href="#DejaVuSans-74" x="210.902344"/>
      <use xlink:href="#DejaVuSans-69" x="250.111328"/>
      <use xlink:href="#DejaVuSans-6c" x="277.894531"/>
      <use xlink:href="#DejaVuSans-69" x="305.677734"/>
      <use xlink:href="#DejaVuSans-74" x="333.460938"/>
      <use xlink:href="#DejaVuSans-79" x="372.669922"/>
      <use xlink:href="#DejaVuSans-20" x="431.849609"/>
      <use xlink:href="#DejaVuSans-61" x="463.636719"/>
      <use xlink:href="#DejaVuSans-6e" x="524.916016"/>
      <use xlink:href="#DejaVuSans-64" x="588.294922"/>
      <use xlink:href="#DejaVuSans-20" x="651.771484"/>
      <use xlink:href="#DejaVuSans-48" x="683.558594"/>
      <use xlink:href="#DejaVuSans-75" x="758.753906"/>
      <use xlink:href="#DejaVuSans-72" x="822.132812"/>
      <use xlink:href="#DejaVuSans-73" x="863.246094"/>
      <use xlink:href="#DejaVuSans-74" x="915.345703"/>
      <use xlink:href="#DejaVuSans-2d" x="954.554688"/>
      <use xlink:href="#DejaVuSans-65" x="990.638672"/>
      <use xlink:href="#DejaVuSans-73" x="1052.162109"/>
      <use xlink:href="#DejaVuSans-74" x="1104.261719"/>
      <use xlink:href="#DejaVuSans-69" x="1143.470703"/>
      <use xlink:href="#DejaVuSans-6d" x="1171.253906"/>
      <use xlink:href="#DejaVuSans-61" x="1268.666016"/>
      <use xlink:href="#DejaVuSans-74" x="1329.945312"/>
      <use xlink:href="#DejaVuSans-65" x="1369.154297"/>
     </g>
    </g>
   </g>
   <g id="patch_3">
    <path d="M 72.9 302.778 
L 72.9 40.824 
" style="fill: none; stroke: #000000; stroke-width: 0.8; stroke-linejoin: miter; stroke-linecap: square"/>
   </g>
   <g id="patch_4">
    <path d="M 524.88 302.778 
L 524.88 40.824 
" style="fill: none; stroke: #e6e6e6; stroke-width: 0.8; stroke-linejoin: miter; stroke-linecap: square"/>
   </g>
   <g id="patch_5">
    <path d="M 72.9 302.778 
L 524.88 302.778 
" style="fill: none; stroke: #000000; stroke-width: 0.8; stroke-linejoin: miter; stroke-linecap: square"/>
   </g>
   <g id="patch_6">
    <path d="M 72.9 40.824 
L 524.88 40.824 
" style="fill: none; stroke: #e6e6e6; stroke-width: 0.8; stroke-linejoin: miter; stroke-linecap: square"/>
   </g>
   <g id="line2d_27">
    <path d="M 93.444545 259.339495 
L 93.959931 260.595042 
L 94.410893 258.957239 
L 94.861855 259.60155 
L 95.763779 262.265243 
L 96.279164 259.869561 
L 96.730127 261.434291 
L 97.181089 260.05015 
L 97.632051 260.140551 
L 98.083013 261.053349 
L 98.533975 251.827796 
L 99.178207 262.007686 
L 100.080131 258.578527 
L 100.531093 261.538936 
L 100.982055 262.009298 
L 101.433017 261.418763 
L 101.883979 259.411774 
L 102.399365 256.592268 
L 102.850327 262.105597 
L 103.301289 259.103649 
L 103.752251 258.711088 
L 104.203213 261.887862 
L 104.654175 258.66449 
L 105.16956 257.013966 
L 105.620523 261.079873 
L 106.071485 260.538501 
L 106.522447 261.263941 
L 106.973409 253.605222 
L 107.424371 255.098044 
L 107.875333 258.344784 
L 108.326295 248.480951 
L 108.84168 257.867691 
L 109.292643 257.565699 
L 109.743605 259.539741 
L 110.194567 257.557542 
L 110.645529 258.24603 
L 111.096491 256.2872 
L 111.547453 263.139438 
L 111.998415 254.028247 
L 112.449377 258.362588 
L 112.90034 256.96236 
L 113.351302 252.819727 
L 113.866687 257.997423 
L 114.317649 259.809732 
L 114.768611 260.543043 
L 115.670535 258.092162 
L 116.314767 260.00523 
L 116.830152 258.720893 
L 117.281114 254.428672 
L 117.7965 257.464046 
L 118.247462 256.528143 
L 118.698424 254.009058 
L 119.149386 258.185107 
L 119.664771 256.263554 
L 120.115733 256.680405 
L 120.566695 252.642474 
L 121.017658 253.814095 
L 121.46862 251.129205 
L 121.984005 252.455058 
L 123.336891 261.863711 
L 123.787853 260.634363 
L 124.238816 257.265102 
L 124.689778 258.250201 
L 125.14074 256.189858 
L 125.591702 259.023937 
L 126.235933 260.323167 
L 126.686896 256.651321 
L 127.137858 250.740429 
L 127.58882 255.841442 
L 128.039782 255.706892 
L 129.006129 257.561403 
L 129.457091 254.166445 
L 129.908054 256.78278 
L 130.359016 252.276825 
L 130.809978 253.460709 
L 131.26094 258.857885 
L 131.711902 260.728582 
L 132.227287 257.185897 
L 132.678249 260.698872 
L 133.129211 253.393143 
L 133.580174 257.375698 
L 134.031136 252.614376 
L 134.482098 253.406899 
L 134.93306 237.101732 
L 135.384022 241.407186 
L 135.834984 242.959774 
L 136.285946 250.254699 
L 136.736908 251.2704 
L 137.638833 235.055011 
L 138.154218 245.458775 
L 138.60518 238.060299 
L 139.056142 245.795353 
L 139.571527 252.270988 
L 140.215759 251.497222 
L 140.666721 246.077609 
L 141.182106 252.077083 
L 141.633069 255.474611 
L 142.084031 248.520878 
L 142.534993 256.322829 
L 143.050378 257.607434 
L 143.50134 254.978974 
L 143.952302 254.140723 
L 144.403264 238.665839 
L 144.854226 256.725554 
L 145.305189 254.667902 
L 146.207113 253.016564 
L 146.722498 250.293985 
L 147.17346 255.921005 
L 147.624422 257.75778 
L 148.075384 258.491583 
L 148.526347 258.363581 
L 148.977309 242.232644 
L 149.492694 250.1894 
L 150.394618 258.809302 
L 150.84558 259.578841 
L 151.296542 258.185596 
L 151.940774 255.626232 
L 152.391736 257.600457 
L 152.842698 260.136406 
L 153.29366 258.31521 
L 153.744622 254.453002 
L 154.195585 253.257823 
L 154.646547 254.506508 
L 155.097509 254.599022 
L 155.548471 261.469511 
L 156.063856 258.670292 
L 156.514818 259.099207 
L 156.96578 258.392609 
L 157.416742 260.064046 
L 157.867705 259.472455 
L 158.318667 257.634315 
L 158.769629 251.057047 
L 159.220591 259.218001 
L 159.671553 261.448448 
L 160.573477 256.613563 
L 161.024439 258.93189 
L 161.539825 254.16698 
L 162.441749 261.414905 
L 162.892711 261.329079 
L 163.408096 262.415229 
L 163.923482 241.092871 
L 164.374444 260.912083 
L 165.018675 260.819307 
L 165.469637 261.235206 
L 166.435985 257.625874 
L 166.886947 261.158142 
L 167.337909 254.611872 
L 167.788871 259.181613 
L 168.239833 257.498127 
L 168.690795 257.892745 
L 169.141757 260.894107 
L 169.657143 261.673188 
L 170.108105 263.104426 
L 171.010029 259.042994 
L 171.460991 257.722791 
L 171.911953 255.145436 
L 172.362915 259.453935 
L 173.329263 253.961269 
L 173.780225 258.477906 
L 174.231187 254.72968 
L 174.682149 260.966324 
L 175.648497 257.688589 
L 176.099459 259.650833 
L 176.550421 260.819679 
L 177.452345 256.044875 
L 177.903307 260.843626 
L 178.354269 251.36621 
L 178.805231 261.845633 
L 179.256193 258.81139 
L 179.900425 260.45631 
L 180.351387 259.131966 
L 180.802349 261.76907 
L 181.253311 261.955328 
L 181.704273 260.878739 
L 182.155236 261.459892 
L 182.606198 261.558274 
L 183.05716 261.2755 
L 183.508122 261.167349 
L 183.959084 257.307254 
L 184.410046 259.585495 
L 184.925431 261.323816 
L 185.376394 259.663725 
L 185.827356 259.567534 
L 186.793703 261.692102 
L 187.244665 259.428707 
L 187.695627 255.526407 
L 188.211013 260.525971 
L 188.661975 263.030361 
L 189.112937 259.997352 
L 189.563899 258.510227 
L 190.014861 260.883946 
L 190.530246 261.108402 
L 190.981208 261.01302 
L 191.432171 261.47352 
L 191.883133 260.047478 
L 192.334095 260.577799 
L 192.785057 261.982494 
L 193.236019 257.986225 
L 193.686981 256.350538 
L 194.331213 261.480784 
L 194.782175 261.951071 
L 195.233137 261.92561 
L 195.684099 260.425332 
L 196.135061 260.457461 
L 196.650446 261.94912 
L 197.101409 262.78326 
L 197.552371 262.538042 
L 198.454295 258.753936 
L 198.96968 260.064551 
L 199.420642 259.911385 
L 200.322566 262.42022 
L 200.773529 261.939025 
L 201.224491 251.824861 
L 201.675453 254.056814 
L 202.126415 258.633754 
L 202.577377 257.762941 
L 203.092762 255.658688 
L 203.543724 260.200956 
L 203.994687 259.506275 
L 204.445649 257.70921 
L 204.896611 257.126353 
L 205.347573 259.870563 
L 205.798535 257.678178 
L 206.249497 258.407138 
L 206.700459 258.261512 
L 207.151421 260.868134 
L 207.602383 256.702389 
L 208.568731 260.000185 
L 209.019693 259.659313 
L 209.470655 258.60376 
L 209.921617 258.105387 
L 210.630272 261.537449 
L 211.081234 255.772523 
L 212.498544 262.282479 
L 212.949506 259.991257 
L 213.400468 258.305438 
L 213.915853 261.122834 
L 214.366815 256.242466 
L 214.817777 261.298777 
L 215.268739 261.496141 
L 215.719702 254.614801 
L 216.170664 258.2628 
L 216.621626 258.080518 
L 217.137011 260.575222 
L 218.038935 262.639962 
L 218.940859 258.889274 
L 219.391822 247.317713 
L 219.842784 261.976429 
L 220.487015 260.915785 
L 220.937977 257.463673 
L 221.38894 258.563007 
L 221.839902 259.108765 
L 222.290864 258.878158 
L 222.806249 258.884175 
L 223.257211 261.143973 
L 223.708173 260.022763 
L 224.159135 262.228273 
L 224.610097 257.536555 
L 225.06106 255.675973 
L 225.512022 256.218191 
L 225.962984 259.941785 
L 226.478369 256.822551 
L 226.929331 260.969013 
L 227.380293 256.953615 
L 227.831255 257.138372 
L 228.282218 262.346156 
L 228.73318 254.363292 
L 229.184142 263.18891 
L 230.214912 257.582915 
L 230.665874 259.49497 
L 231.116837 259.239642 
L 232.21203 262.717582 
L 232.662992 261.199095 
L 233.113955 262.589533 
L 233.564917 257.788367 
L 234.144725 258.437266 
L 234.595687 254.871338 
L 235.046649 261.236181 
L 235.562035 261.100824 
L 236.012997 260.560522 
L 236.463959 250.297613 
L 236.914921 260.125276 
L 237.430306 261.051557 
L 237.881268 259.40706 
L 238.33223 259.229118 
L 238.783193 261.150152 
L 239.234155 260.391986 
L 239.878386 255.466351 
L 240.329348 261.543992 
L 240.78031 255.937235 
L 241.231273 260.445259 
L 241.682235 260.685139 
L 242.133197 259.034621 
L 242.584159 259.98968 
L 243.550506 251.735919 
L 244.001468 258.11348 
L 244.452431 249.602206 
L 244.903393 256.609753 
L 245.354355 255.782224 
L 245.805317 261.428002 
L 246.771664 262.255987 
L 247.222626 260.832593 
L 247.673588 258.812719 
L 248.124551 259.058995 
L 248.575513 261.512579 
L 249.026475 260.971317 
L 249.477437 249.855739 
L 249.992822 259.383324 
L 250.443784 259.811864 
L 250.894746 255.846632 
L 251.345709 257.005328 
L 251.796671 258.93532 
L 252.247633 258.156847 
L 252.698595 261.300796 
L 253.149557 261.468674 
L 253.600519 261.36336 
L 254.051481 257.911751 
L 254.502443 260.067587 
L 254.953405 257.915406 
L 255.468791 259.666701 
L 255.919753 261.81654 
L 256.370715 259.612584 
L 256.821677 260.51008 
L 257.465909 258.897098 
L 257.981294 253.779792 
L 258.432256 235.520629 
L 258.947641 261.396423 
L 259.398603 257.212047 
L 260.815913 260.797609 
L 261.266875 254.973017 
L 261.717837 259.857046 
L 262.168799 261.128468 
L 262.619761 254.939837 
L 263.070724 257.134871 
L 263.521686 256.317535 
L 263.972648 257.107074 
L 264.42361 259.669546 
L 264.938995 255.205393 
L 265.389957 259.59824 
L 265.840919 256.345479 
L 266.742844 258.479961 
L 267.387075 258.380319 
L 267.838037 259.518278 
L 268.288999 257.321199 
L 268.739962 256.173657 
L 269.190924 262.898727 
L 269.706309 261.699889 
L 270.157271 260.955094 
L 270.608233 259.272667 
L 271.059195 254.82834 
L 271.510157 260.449716 
L 271.961119 259.929077 
L 272.412082 255.855781 
L 272.863044 255.988625 
L 273.378429 259.130931 
L 273.829391 258.477047 
L 274.280353 258.876064 
L 274.731315 259.633159 
L 275.182277 261.028718 
L 275.63324 259.755811 
L 276.084202 256.850062 
L 276.535164 261.49334 
L 276.986126 260.012208 
L 277.437088 262.396163 
L 277.88805 256.834662 
L 278.339012 260.786565 
L 278.789974 247.221687 
L 279.30536 255.342585 
L 279.756322 252.818008 
L 280.207284 255.278954 
L 280.722669 256.325621 
L 281.366901 261.21108 
L 282.333248 247.08055 
L 282.78421 262.224183 
L 283.235172 254.975266 
L 283.686134 259.714443 
L 284.20152 262.428244 
L 284.652482 263.483226 
L 285.103444 257.874718 
L 285.554406 259.805851 
L 286.005368 260.408502 
L 286.45633 260.490286 
L 286.907292 260.981025 
L 287.422678 260.028747 
L 287.87364 262.853128 
L 288.324602 259.469814 
L 288.775564 260.246734 
L 289.226526 259.413755 
L 289.677488 260.717558 
L 290.12845 261.481375 
L 290.643836 255.025111 
L 291.094798 262.724015 
L 291.54576 262.354521 
L 291.996722 262.207451 
L 293.091916 258.168351 
L 293.99384 260.945609 
L 294.444802 260.421304 
L 294.895764 260.983996 
L 295.346726 259.728146 
L 295.797688 260.242129 
L 296.24865 259.732791 
L 296.699613 251.275686 
L 297.214998 259.32466 
L 297.66596 262.465127 
L 298.116922 259.078208 
L 298.567884 262.166859 
L 299.018846 259.646437 
L 299.469808 261.524334 
L 299.920771 261.308223 
L 300.371733 257.737478 
L 300.822695 261.492421 
L 301.273657 260.387856 
L 301.724619 241.988167 
L 302.175581 257.0226 
L 302.690966 260.762554 
L 303.141929 256.894408 
L 303.592891 255.814846 
L 304.043853 258.266218 
L 304.559238 262.039758 
L 305.074623 261.266388 
L 305.525585 253.818329 
L 306.169817 260.30997 
L 306.620779 258.549401 
L 307.071741 256.241755 
L 307.587126 257.352338 
L 308.038089 256.642352 
L 308.489051 262.496778 
L 308.940013 255.698546 
L 309.390975 255.77605 
L 309.841937 257.778906 
L 310.357322 258.631202 
L 310.808284 262.414896 
L 311.259247 256.735585 
L 311.710209 263.337327 
L 312.161171 260.670809 
L 312.612133 261.445201 
L 313.063095 258.25485 
L 313.514057 261.21432 
L 314.480405 258.796812 
L 314.931367 260.074814 
L 315.382329 259.981049 
L 315.833291 260.614958 
L 316.284253 257.960909 
L 316.799638 257.445296 
L 317.2506 258.115255 
L 317.701562 254.716926 
L 318.152525 262.432249 
L 318.603487 258.32552 
L 319.054449 259.902864 
L 319.505411 260.084226 
L 319.956373 249.435492 
L 320.407335 260.934944 
L 321.051567 261.610796 
L 321.502529 260.599637 
L 322.404453 261.25599 
L 323.306377 260.316299 
L 323.757339 263.302738 
L 324.208302 260.235041 
L 324.659264 249.11876 
L 325.110226 259.296173 
L 325.561188 260.651181 
L 326.076573 252.713863 
L 326.527535 261.147299 
L 327.944845 255.735345 
L 328.911192 261.673138 
L 329.426577 252.31092 
L 329.87754 262.478297 
L 330.328502 261.655014 
L 330.779464 261.476793 
L 331.230426 261.161633 
L 331.874657 258.309294 
L 332.32562 253.041361 
L 332.776582 257.708867 
L 333.227544 258.68644 
L 333.678506 245.733124 
L 334.129468 257.689769 
L 334.58043 262.169578 
L 335.095815 261.53658 
L 335.546778 262.216489 
L 335.99774 258.524126 
L 336.448702 260.090243 
L 336.899664 259.411805 
L 337.350626 256.276002 
L 337.866011 253.817828 
L 338.316973 258.894254 
L 338.767936 257.699706 
L 339.66986 262.317953 
L 340.185245 262.059158 
L 340.636207 262.645443 
L 341.087169 261.186072 
L 341.538131 258.864184 
L 341.989093 261.171847 
L 342.440056 259.669109 
L 342.891018 257.285627 
L 343.34198 259.716995 
L 343.792942 251.230975 
L 344.308327 261.646188 
L 344.759289 261.855906 
L 345.210251 262.722766 
L 345.661214 261.401108 
L 346.563138 259.694183 
L 347.465062 261.699089 
L 347.916024 261.125284 
L 348.366986 254.641908 
L 348.817948 261.325256 
L 349.46218 259.587766 
L 349.913142 257.040986 
L 350.364104 259.014744 
L 351.330452 261.090902 
L 351.845837 261.03554 
L 352.296799 261.863073 
L 352.812184 247.911782 
L 353.263146 259.392718 
L 353.714108 261.344178 
L 354.165071 255.172047 
L 354.616033 257.237559 
L 355.131418 258.894193 
L 355.58238 258.504429 
L 356.033342 260.945879 
L 356.484304 261.479716 
L 356.935266 261.711854 
L 357.579498 247.375903 
L 358.03046 260.764399 
L 358.481422 260.844659 
L 358.932384 256.624517 
L 359.383346 260.797485 
L 359.834309 256.963618 
L 360.285271 257.500609 
L 360.736233 251.413914 
L 361.251618 260.282114 
L 361.70258 258.175281 
L 362.153542 261.253302 
L 362.604504 246.24413 
L 363.055467 261.616398 
L 363.506429 259.071786 
L 364.021814 254.959547 
L 364.923738 259.657541 
L 365.3747 259.388149 
L 365.825662 261.594067 
L 366.276624 261.475044 
L 366.727587 258.387375 
L 367.693934 243.118311 
L 368.144896 260.045456 
L 368.595858 261.472682 
L 369.04682 254.60779 
L 369.497782 260.897226 
L 370.399707 260.052172 
L 370.850669 256.926366 
L 371.301631 251.982311 
L 371.752593 258.654913 
L 372.203555 254.700205 
L 372.71894 246.302173 
L 373.169903 249.28205 
L 373.814134 259.887014 
L 374.265096 258.658345 
L 374.716058 259.832075 
L 375.295867 256.228905 
L 375.746829 245.231758 
L 376.197791 262.096871 
L 376.713176 257.461967 
L 377.164138 224.745322 
L 377.6151 258.090664 
L 378.066063 260.599741 
L 378.581448 258.819462 
L 379.03241 262.969198 
L 379.483372 257.713297 
L 379.934334 259.301096 
L 380.385296 259.243183 
L 380.836258 259.438096 
L 381.287221 254.421369 
L 381.738183 257.645812 
L 382.833376 259.642248 
L 383.284338 258.230236 
L 383.735301 262.015986 
L 384.186263 253.927106 
L 384.701648 258.944147 
L 385.15261 257.071328 
L 385.603572 204.293514 
L 386.054534 256.630855 
L 386.505496 260.452412 
L 386.956459 260.722735 
L 387.471844 257.02061 
L 387.922806 255.60163 
L 388.373768 256.183898 
L 388.82473 258.46422 
L 389.275692 257.041397 
L 389.726654 253.923389 
L 390.177617 256.694663 
L 390.628579 247.268667 
L 391.143964 246.013929 
L 391.594926 242.659673 
L 392.045888 253.302342 
L 392.49685 256.570034 
L 393.398774 255.207269 
L 393.849737 258.507843 
L 394.300699 254.507696 
L 394.751661 257.942562 
L 395.202623 256.950443 
L 395.653585 261.05735 
L 396.104547 259.070942 
L 396.619932 257.430941 
L 397.070895 255.025488 
L 397.521857 243.342157 
L 397.972819 251.649057 
L 398.61705 247.581581 
L 399.132436 252.233922 
L 399.583398 245.720336 
L 400.098783 257.859999 
L 400.549745 256.266976 
L 401.000707 254.205966 
L 401.451669 250.285971 
L 401.967055 259.226184 
L 402.418017 253.161987 
L 402.868979 251.607524 
L 403.770903 233.791524 
L 404.672827 250.893514 
L 405.123789 248.492643 
L 405.639175 220.404592 
L 406.090137 233.926281 
L 406.541099 236.486443 
L 406.992061 249.699988 
L 407.443023 254.256169 
L 407.893985 249.56549 
L 408.538217 245.950393 
L 408.989179 236.863177 
L 409.440141 241.075626 
L 409.891103 257.89084 
L 410.342065 252.84083 
L 410.857451 257.80438 
L 411.308413 254.641935 
L 411.759375 253.814061 
L 412.210337 259.517616 
L 413.112261 250.870669 
L 413.563223 257.086405 
L 414.014185 250.580258 
L 414.465148 240.288721 
L 414.980533 257.305907 
L 415.431495 224.75043 
L 416.784381 255.751253 
L 417.235343 213.055435 
L 417.686305 247.589212 
L 418.137268 246.036809 
L 418.58823 244.01538 
L 419.039192 252.010866 
L 419.490154 248.695749 
L 419.941116 251.808795 
L 420.456501 249.068716 
L 420.907463 233.536119 
L 421.358426 246.185105 
L 421.809388 236.946977 
L 422.518042 249.428842 
L 422.969005 247.892686 
L 423.48439 202.3581 
L 423.935352 189.170462 
L 424.386314 52.731 
L 424.837276 187.783707 
L 425.352661 251.850771 
L 425.803624 170.83608 
L 426.254586 234.282137 
L 426.705548 226.834745 
L 427.15651 241.555309 
L 427.607472 216.750559 
L 428.058434 211.245007 
L 428.573819 258.709545 
L 429.024781 233.443484 
L 429.475744 252.639386 
L 429.926706 250.147779 
L 430.377668 256.272681 
L 430.82863 239.779961 
L 431.279592 244.611795 
L 431.730554 246.486074 
L 432.696902 215.346327 
L 433.147864 258.706247 
L 433.598826 247.591928 
L 434.049788 257.205374 
L 434.694019 259.059298 
L 435.144982 252.780626 
L 435.595944 249.4529 
L 436.046906 260.749013 
L 436.497868 251.828836 
L 436.94883 260.848494 
L 437.399792 254.345931 
L 437.850754 232.526261 
L 438.36614 254.652056 
L 438.817102 252.907502 
L 439.268064 254.946574 
L 439.719026 255.24531 
L 440.169988 259.915665 
L 440.62095 259.807936 
L 441.071912 258.872971 
L 441.522874 254.020601 
L 441.973836 252.424185 
L 442.424799 252.638061 
L 442.875761 256.367728 
L 443.326723 238.277535 
L 443.842108 253.54346 
L 444.29307 252.016168 
L 444.744032 237.947698 
L 445.194994 252.971074 
L 445.71038 256.202493 
L 446.161342 245.747744 
L 447.127689 253.42768 
L 448.029613 241.361984 
L 448.480576 248.480966 
L 448.931538 249.733854 
L 449.575769 249.033948 
L 450.026731 250.11715 
L 450.477693 240.908899 
L 450.928656 259.463695 
L 451.379618 234.482639 
L 451.83058 252.348104 
L 452.281542 250.710352 
L 452.796927 249.656011 
L 453.247889 258.86128 
L 453.698851 257.030339 
L 454.600776 233.257515 
L 455.051738 244.937316 
L 455.567123 226.605532 
L 456.018085 240.55493 
L 457.435395 258.891602 
L 457.95078 243.176364 
L 458.401742 254.776683 
L 458.852704 250.162114 
L 459.303666 253.604708 
L 459.754628 259.567557 
L 460.205591 247.941796 
L 460.656553 250.792199 
L 461.107515 260.494548 
L 461.558477 256.160779 
L 462.202708 241.690162 
L 462.653671 256.992699 
L 463.104633 254.346515 
L 463.555595 249.675488 
L 464.006557 250.420564 
L 464.457519 255.573845 
L 464.908481 251.146686 
L 465.359443 248.061378 
L 465.810405 256.296296 
L 466.261367 247.060949 
L 466.71233 248.829049 
L 467.227715 255.790599 
L 468.129639 241.881999 
L 468.580601 257.451251 
L 469.095986 251.419705 
L 469.611372 251.995099 
L 470.062334 253.175618 
L 471.028681 241.839457 
L 471.479643 252.166354 
L 471.930605 244.684693 
L 472.381568 253.570166 
L 473.025799 258.63626 
L 473.476761 255.568815 
L 473.927723 259.660572 
L 474.378686 253.352461 
L 474.829648 224.123982 
L 475.28061 259.048286 
L 475.795995 258.565081 
L 476.246957 259.919394 
L 476.697919 256.990821 
L 477.148881 257.699898 
L 477.599843 257.52714 
L 478.050806 258.88497 
L 478.501768 248.109183 
L 479.017153 256.470831 
L 479.468115 257.220408 
L 479.919077 230.146193 
L 480.434462 260.706436 
L 480.885425 254.262122 
L 481.851772 257.708135 
L 482.302734 259.820553 
L 482.753696 257.980142 
L 483.204658 258.529459 
L 483.65562 258.674863 
L 484.106583 260.056107 
L 484.557545 252.462305 
L 485.008507 259.681551 
L 485.652738 252.71962 
L 486.103701 256.407879 
L 486.554663 258.704669 
L 487.005625 254.875674 
L 487.456587 255.309648 
L 487.907549 255.385166 
L 488.358511 256.960748 
L 488.809473 256.010452 
L 489.260435 249.713917 
L 489.711397 258.83153 
L 490.16236 251.12416 
L 490.677745 246.487577 
L 491.128707 225.947606 
L 491.579669 248.413513 
L 492.030631 252.629525 
L 492.546016 254.046499 
L 493.061402 259.190747 
L 493.512364 255.940585 
L 494.027749 255.6303 
L 494.478711 254.542074 
L 494.929673 258.709428 
L 495.380635 249.676023 
L 495.831598 257.752903 
L 496.475829 257.904106 
L 496.926791 258.782011 
L 497.377753 258.500853 
L 497.828715 258.597628 
L 498.279678 243.429218 
L 498.795063 245.568817 
L 499.246025 257.550836 
L 499.696987 251.268547 
L 500.147949 258.377013 
L 500.598911 249.698557 
L 501.049873 229.97196 
L 501.500836 186.445464 
L 501.951798 220.359709 
L 502.467183 223.137201 
L 502.918145 235.323766 
L 503.369107 166.70816 
L 503.884492 237.585375 
L 504.335455 250.790026 
L 504.335455 250.790026 
" clip-path="url(#p459f8d8079)" style="fill: none; stroke: #808080; stroke-width: 1.5; stroke-linecap: square"/>
   </g>
   <g id="line2d_28">
    <path d="M 116.830152 173.814121 
L 128.555167 173.51087 
L 140.215759 174.065506 
L 151.940774 182.64162 
L 163.408096 205.458207 
L 175.133111 170.640583 
L 186.793703 158.687034 
L 198.454295 191.927641 
L 209.921617 180.043178 
L 221.839902 182.1174 
L 233.564917 199.053324 
L 245.354355 169.56697 
L 256.821677 146.050639 
L 268.739962 147.920577 
L 280.207284 158.687604 
L 291.996722 174.868583 
L 303.592891 160.705992 
L 315.382329 170.871056 
L 326.978497 203.894805 
L 338.767936 216.695219 
L 350.364104 172.192087 
L 362.153542 186.531615 
L 373.814134 170.926948 
L 385.603572 172.298151 
L 397.070895 180.717375 
L 408.989179 99.509766 
L 420.456501 134.457088 
L 432.245939 111.684351 
L 443.842108 106.180987 
L 455.567123 170.81591 
L 467.227715 202.636335 
L 479.017153 134.823789 
" clip-path="url(#p459f8d8079)" style="fill: none; stroke-dasharray: 1.5,2.475; stroke-dashoffset: 0; stroke: #ff0000; stroke-width: 1.5"/>
   </g>
   <g id="line2d_29">
    <path d="M 116.830152 221.246149 
L 128.555167 209.378619 
L 140.215759 191.785171 
L 151.940774 217.862943 
L 163.408096 222.464325 
L 175.133111 230.56949 
L 186.793703 231.276843 
L 198.454295 203.239943 
L 209.921617 203.345868 
L 221.839902 243.870056 
L 233.564917 256.027939 
L 245.354355 266.997204 
L 256.821677 248.301222 
L 268.739962 237.936939 
L 280.207284 257.715153 
L 291.996722 265.739644 
L 303.592891 273.054249 
L 315.382329 253.58099 
L 326.978497 250.006021 
L 338.767936 246.52452 
L 350.364104 217.516072 
L 362.153542 231.530786 
L 373.814134 224.053334 
L 385.603572 214.513881 
L 397.070895 222.36017 
L 408.989179 242.832492 
L 420.456501 254.765656 
L 432.245939 263.435261 
L 443.842108 262.332415 
L 455.567123 248.126583 
L 467.227715 275.049244 
L 479.017153 227.767302 
" clip-path="url(#p459f8d8079)" style="fill: none; stroke-dasharray: 9.6,2.4,1.5,2.4; stroke-dashoffset: 0; stroke: #ff0000; stroke-width: 1.5"/>
   </g>
   <g id="line2d_30">
    <path d="M 116.830152 264.882444 
L 128.555167 239.399183 
L 140.215759 228.550725 
L 151.940774 237.525838 
L 163.408096 269.625338 
L 175.133111 264.591764 
L 186.793703 269.030248 
L 198.454295 290.871 
L 209.921617 276.148015 
L 221.839902 282.811468 
L 233.564917 264.532142 
L 245.354355 259.707625 
L 256.821677 270.160296 
L 268.739962 254.937754 
L 280.207284 279.968081 
L 291.996722 258.103763 
L 303.592891 276.980696 
L 315.382329 268.96423 
L 326.978497 270.522266 
L 338.767936 285.050695 
L 350.364104 290.563626 
L 362.153542 280.845244 
L 373.814134 269.383452 
L 385.603572 272.21144 
L 397.070895 261.887374 
L 408.989179 253.904787 
L 420.456501 225.872366 
L 432.245939 234.353561 
L 443.842108 258.239093 
L 455.567123 274.203065 
L 467.227715 263.734318 
L 479.017153 276.69469 
" clip-path="url(#p459f8d8079)" style="fill: none; stroke-dasharray: 5.55,2.4; stroke-dashoffset: 0; stroke: #ff0000; stroke-width: 1.5"/>
   </g>
   <g id="line2d_31">
    <path d="M 116.830152 219.644344 
L 128.555167 225.270243 
L 140.215759 224.008682 
L 151.940774 240.319581 
L 163.408096 260.655403 
L 175.133111 261.124101 
L 186.793703 258.085612 
L 198.454295 260.268082 
L 209.921617 259.85084 
L 221.839902 260.617919 
L 233.564917 260.34974 
L 245.354355 260.11134 
L 256.821677 257.700257 
L 268.739962 254.723164 
L 280.207284 257.280221 
L 291.996722 258.418178 
L 303.592891 258.117627 
L 315.382329 260.58907 
L 326.978497 260.564493 
L 338.767936 261.006224 
L 350.364104 255.65935 
L 362.153542 260.817956 
L 373.814134 260.561176 
L 385.603572 258.155748 
L 397.070895 257.925904 
L 408.989179 218.443097 
L 420.456501 236.031973 
L 432.245939 239.626584 
L 443.842108 236.69637 
L 455.567123 253.799318 
L 467.227715 258.20109 
L 479.017153 235.846423 
" clip-path="url(#p459f8d8079)" style="fill: none; stroke: #ff0000; stroke-width: 1.5; stroke-linecap: square"/>
   </g>
   <g id="line2d_32">
    <path d="M 116.830152 232.134216 
L 128.555167 222.681112 
L 140.215759 218.441201 
L 151.940774 236.516503 
L 163.408096 262.179126 
L 175.133111 263.652843 
L 186.793703 241.643976 
L 198.454295 247.170551 
L 209.921617 258.340283 
L 221.839902 265.398208 
L 233.564917 260.897516 
L 245.354355 259.422843 
L 256.821677 257.481662 
L 268.739962 252.986179 
L 280.207284 249.647259 
L 291.996722 254.267558 
L 303.592891 260.475892 
L 315.382329 265.894578 
L 326.978497 262.140866 
L 338.767936 263.741014 
L 350.364104 263.174936 
L 362.153542 266.562073 
L 373.814134 260.556685 
L 385.603572 251.815784 
L 397.070895 244.946175 
L 408.989179 225.009555 
L 420.456501 229.649742 
L 432.245939 231.527303 
L 443.842108 237.28965 
L 455.567123 250.975798 
L 467.227715 259.252163 
L 479.017153 240.15561 
" clip-path="url(#p459f8d8079)" style="fill: none; stroke: #ff7f0e; stroke-width: 1.5; stroke-linecap: square"/>
   </g>
   <g id="line2d_33">
    <path d="M 116.830152 228.298823 
L 128.555167 226.509947 
L 140.215759 220.713743 
L 151.940774 236.095558 
L 163.408096 253.530718 
L 175.133111 249.878422 
L 186.793703 245.644552 
L 198.454295 249.660746 
L 209.921617 247.917633 
L 221.839902 253.960794 
L 233.564917 256.448414 
L 245.354355 250.055066 
L 256.821677 246.926522 
L 268.739962 244.843637 
L 280.207284 246.581125 
L 291.996722 251.361186 
L 303.592891 255.759161 
L 315.382329 254.491693 
L 326.978497 256.115925 
L 338.767936 259.548219 
L 350.364104 251.509198 
L 362.153542 246.700636 
L 373.814134 239.742726 
L 385.603572 233.928373 
L 397.070895 241.834054 
L 408.989179 195.483213 
L 420.456501 211.023969 
L 432.245939 220.005933 
L 443.842108 218.931586 
L 455.567123 248.124958 
L 467.227715 255.917613 
L 479.017153 220.703022 
" clip-path="url(#p459f8d8079)" style="fill: none; stroke: #1f77b4; stroke-width: 1.5; stroke-linecap: square"/>
   </g>
   <g id="legend_1">
    <g id="patch_7">
     <path d="M 79.9 151.570875 
L 231.653125 151.570875 
Q 233.653125 151.570875 233.653125 149.570875 
L 233.653125 47.824 
Q 233.653125 45.824 231.653125 45.824 
L 79.9 45.824 
Q 77.9 45.824 77.9 47.824 
L 77.9 149.570875 
Q 77.9 151.570875 79.9 151.570875 
z
" style="fill: #ffffff; opacity: 0.8; stroke: #e6e6e6; stroke-linejoin: miter"/>
    </g>
    <g id="line2d_34">
     <path d="M 81.9 53.922438 
L 91.9 53.922438 
L 101.9 53.922438 
" style="fill: none; stroke: #808080; stroke-width: 1.5; stroke-linecap: square"/>
    </g>
    <g id="text_16">
     <!-- GameStop Log-Volatility -->
     <g transform="translate(109.9 57.422438)scale(0.1 -0.1)">
      <defs>
       <path id="DejaVuSans-47" d="M 3809 666 
L 3809 1919 
L 2778 1919 
L 2778 2438 
L 4434 2438 
L 4434 434 
Q 4069 175 3628 42 
Q 3188 -91 2688 -91 
Q 1594 -91 976 548 
Q 359 1188 359 2328 
Q 359 3472 976 4111 
Q 1594 4750 2688 4750 
Q 3144 4750 3555 4637 
Q 3966 4525 4313 4306 
L 4313 3634 
Q 3963 3931 3569 4081 
Q 3175 4231 2741 4231 
Q 1884 4231 1454 3753 
Q 1025 3275 1025 2328 
Q 1025 1384 1454 906 
Q 1884 428 2741 428 
Q 3075 428 3337 486 
Q 3600 544 3809 666 
z
" transform="scale(0.015625)"/>
       <path id="DejaVuSans-53" d="M 3425 4513 
L 3425 3897 
Q 3066 4069 2747 4153 
Q 2428 4238 2131 4238 
Q 1616 4238 1336 4038 
Q 1056 3838 1056 3469 
Q 1056 3159 1242 3001 
Q 1428 2844 1947 2747 
L 2328 2669 
Q 3034 2534 3370 2195 
Q 3706 1856 3706 1288 
Q 3706 609 3251 259 
Q 2797 -91 1919 -91 
Q 1588 -91 1214 -16 
Q 841 59 441 206 
L 441 856 
Q 825 641 1194 531 
Q 1563 422 1919 422 
Q 2459 422 2753 634 
Q 3047 847 3047 1241 
Q 3047 1584 2836 1778 
Q 2625 1972 2144 2069 
L 1759 2144 
Q 1053 2284 737 2584 
Q 422 2884 422 3419 
Q 422 4038 858 4394 
Q 1294 4750 2059 4750 
Q 2388 4750 2728 4690 
Q 3069 4631 3425 4513 
z
" transform="scale(0.015625)"/>
       <path id="DejaVuSans-70" d="M 1159 525 
L 1159 -1331 
L 581 -1331 
L 581 3500 
L 1159 3500 
L 1159 2969 
Q 1341 3281 1617 3432 
Q 1894 3584 2278 3584 
Q 2916 3584 3314 3078 
Q 3713 2572 3713 1747 
Q 3713 922 3314 415 
Q 2916 -91 2278 -91 
Q 1894 -91 1617 61 
Q 1341 213 1159 525 
z
M 3116 1747 
Q 3116 2381 2855 2742 
Q 2594 3103 2138 3103 
Q 1681 3103 1420 2742 
Q 1159 2381 1159 1747 
Q 1159 1113 1420 752 
Q 1681 391 2138 391 
Q 2594 391 2855 752 
Q 3116 1113 3116 1747 
z
" transform="scale(0.015625)"/>
       <path id="DejaVuSans-4c" d="M 628 4666 
L 1259 4666 
L 1259 531 
L 3531 531 
L 3531 0 
L 628 0 
L 628 4666 
z
" transform="scale(0.015625)"/>
       <path id="DejaVuSans-67" d="M 2906 1791 
Q 2906 2416 2648 2759 
Q 2391 3103 1925 3103 
Q 1463 3103 1205 2759 
Q 947 2416 947 1791 
Q 947 1169 1205 825 
Q 1463 481 1925 481 
Q 2391 481 2648 825 
Q 2906 1169 2906 1791 
z
M 3481 434 
Q 3481 -459 3084 -895 
Q 2688 -1331 1869 -1331 
Q 1566 -1331 1297 -1286 
Q 1028 -1241 775 -1147 
L 775 -588 
Q 1028 -725 1275 -790 
Q 1522 -856 1778 -856 
Q 2344 -856 2625 -561 
Q 2906 -266 2906 331 
L 2906 616 
Q 2728 306 2450 153 
Q 2172 0 1784 0 
Q 1141 0 747 490 
Q 353 981 353 1791 
Q 353 2603 747 3093 
Q 1141 3584 1784 3584 
Q 2172 3584 2450 3431 
Q 2728 3278 2906 2969 
L 2906 3500 
L 3481 3500 
L 3481 434 
z
" transform="scale(0.015625)"/>
      </defs>
      <use xlink:href="#DejaVuSans-47"/>
      <use xlink:href="#DejaVuSans-61" x="77.490234"/>
      <use xlink:href="#DejaVuSans-6d" x="138.769531"/>
      <use xlink:href="#DejaVuSans-65" x="236.181641"/>
      <use xlink:href="#DejaVuSans-53" x="297.705078"/>
      <use xlink:href="#DejaVuSans-74" x="361.181641"/>
      <use xlink:href="#DejaVuSans-6f" x="400.390625"/>
      <use xlink:href="#DejaVuSans-70" x="461.572266"/>
      <use xlink:href="#DejaVuSans-20" x="525.048828"/>
      <use xlink:href="#DejaVuSans-4c" x="556.835938"/>
      <use xlink:href="#DejaVuSans-6f" x="610.798828"/>
      <use xlink:href="#DejaVuSans-67" x="671.980469"/>
      <use xlink:href="#DejaVuSans-2d" x="735.457031"/>
      <use xlink:href="#DejaVuSans-56" x="765.666016"/>
      <use xlink:href="#DejaVuSans-6f" x="826.324219"/>
      <use xlink:href="#DejaVuSans-6c" x="887.505859"/>
      <use xlink:href="#DejaVuSans-61" x="915.289062"/>
      <use xlink:href="#DejaVuSans-74" x="976.568359"/>
      <use xlink:href="#DejaVuSans-69" x="1015.777344"/>
      <use xlink:href="#DejaVuSans-6c" x="1043.560547"/>
      <use xlink:href="#DejaVuSans-69" x="1071.34375"/>
      <use xlink:href="#DejaVuSans-74" x="1099.126953"/>
      <use xlink:href="#DejaVuSans-79" x="1138.335938"/>
     </g>
    </g>
    <g id="line2d_35">
     <path d="M 81.9 68.600563 
L 91.9 68.600563 
L 101.9 68.600563 
" style="fill: none; stroke-dasharray: 1.5,2.475; stroke-dashoffset: 0; stroke: #ff0000; stroke-width: 1.5"/>
    </g>
    <g id="text_17">
     <!-- R/S Hurst -->
     <g transform="translate(109.9 72.100563)scale(0.1 -0.1)">
      <defs>
       <path id="DejaVuSans-52" d="M 2841 2188 
Q 3044 2119 3236 1894 
Q 3428 1669 3622 1275 
L 4263 0 
L 3584 0 
L 2988 1197 
Q 2756 1666 2539 1819 
Q 2322 1972 1947 1972 
L 1259 1972 
L 1259 0 
L 628 0 
L 628 4666 
L 2053 4666 
Q 2853 4666 3247 4331 
Q 3641 3997 3641 3322 
Q 3641 2881 3436 2590 
Q 3231 2300 2841 2188 
z
M 1259 4147 
L 1259 2491 
L 2053 2491 
Q 2509 2491 2742 2702 
Q 2975 2913 2975 3322 
Q 2975 3731 2742 3939 
Q 2509 4147 2053 4147 
L 1259 4147 
z
" transform="scale(0.015625)"/>
       <path id="DejaVuSans-2f" d="M 1625 4666 
L 2156 4666 
L 531 -594 
L 0 -594 
L 1625 4666 
z
" transform="scale(0.015625)"/>
      </defs>
      <use xlink:href="#DejaVuSans-52"/>
      <use xlink:href="#DejaVuSans-2f" x="69.482422"/>
      <use xlink:href="#DejaVuSans-53" x="103.173828"/>
      <use xlink:href="#DejaVuSans-20" x="166.650391"/>
      <use xlink:href="#DejaVuSans-48" x="198.4375"/>
      <use xlink:href="#DejaVuSans-75" x="273.632812"/>
      <use xlink:href="#DejaVuSans-72" x="337.011719"/>
      <use xlink:href="#DejaVuSans-73" x="378.125"/>
      <use xlink:href="#DejaVuSans-74" x="430.224609"/>
     </g>
    </g>
    <g id="line2d_36">
     <path d="M 81.9 83.278687 
L 91.9 83.278687 
L 101.9 83.278687 
" style="fill: none; stroke-dasharray: 9.6,2.4,1.5,2.4; stroke-dashoffset: 0; stroke: #ff0000; stroke-width: 1.5"/>
    </g>
    <g id="text_18">
     <!-- variogram Hurst -->
     <g transform="translate(109.9 86.778687)scale(0.1 -0.1)">
      <defs>
       <path id="DejaVuSans-76" d="M 191 3500 
L 800 3500 
L 1894 563 
L 2988 3500 
L 3597 3500 
L 2284 0 
L 1503 0 
L 191 3500 
z
" transform="scale(0.015625)"/>
      </defs>
      <use xlink:href="#DejaVuSans-76"/>
      <use xlink:href="#DejaVuSans-61" x="59.179688"/>
      <use xlink:href="#DejaVuSans-72" x="120.458984"/>
      <use xlink:href="#DejaVuSans-69" x="161.572266"/>
      <use xlink:href="#DejaVuSans-6f" x="189.355469"/>
      <use xlink:href="#DejaVuSans-67" x="250.537109"/>
      <use xlink:href="#DejaVuSans-72" x="314.013672"/>
      <use xlink:href="#DejaVuSans-61" x="355.126953"/>
      <use xlink:href="#DejaVuSans-6d" x="416.40625"/>
      <use xlink:href="#DejaVuSans-20" x="513.818359"/>
      <use xlink:href="#DejaVuSans-48" x="545.605469"/>
      <use xlink:href="#DejaVuSans-75" x="620.800781"/>
      <use xlink:href="#DejaVuSans-72" x="684.179688"/>
      <use xlink:href="#DejaVuSans-73" x="725.292969"/>
      <use xlink:href="#DejaVuSans-74" x="777.392578"/>
     </g>
    </g>
    <g id="line2d_37">
     <path d="M 81.9 97.956813 
L 91.9 97.956813 
L 101.9 97.956813 
" style="fill: none; stroke-dasharray: 5.55,2.4; stroke-dashoffset: 0; stroke: #ff0000; stroke-width: 1.5"/>
    </g>
    <g id="text_19">
     <!-- Higuchi Hurst -->
     <g transform="translate(109.9 101.456813)scale(0.1 -0.1)">
      <defs>
       <path id="DejaVuSans-63" d="M 3122 3366 
L 3122 2828 
Q 2878 2963 2633 3030 
Q 2388 3097 2138 3097 
Q 1578 3097 1268 2742 
Q 959 2388 959 1747 
Q 959 1106 1268 751 
Q 1578 397 2138 397 
Q 2388 397 2633 464 
Q 2878 531 3122 666 
L 3122 134 
Q 2881 22 2623 -34 
Q 2366 -91 2075 -91 
Q 1284 -91 818 406 
Q 353 903 353 1747 
Q 353 2603 823 3093 
Q 1294 3584 2113 3584 
Q 2378 3584 2631 3529 
Q 2884 3475 3122 3366 
z
" transform="scale(0.015625)"/>
       <path id="DejaVuSans-68" d="M 3513 2113 
L 3513 0 
L 2938 0 
L 2938 2094 
Q 2938 2591 2744 2837 
Q 2550 3084 2163 3084 
Q 1697 3084 1428 2787 
Q 1159 2491 1159 1978 
L 1159 0 
L 581 0 
L 581 4863 
L 1159 4863 
L 1159 2956 
Q 1366 3272 1645 3428 
Q 1925 3584 2291 3584 
Q 2894 3584 3203 3211 
Q 3513 2838 3513 2113 
z
" transform="scale(0.015625)"/>
      </defs>
      <use xlink:href="#DejaVuSans-48"/>
      <use xlink:href="#DejaVuSans-69" x="75.195312"/>
      <use xlink:href="#DejaVuSans-67" x="102.978516"/>
      <use xlink:href="#DejaVuSans-75" x="166.455078"/>
      <use xlink:href="#DejaVuSans-63" x="229.833984"/>
      <use xlink:href="#DejaVuSans-68" x="284.814453"/>
      <use xlink:href="#DejaVuSans-69" x="348.193359"/>
      <use xlink:href="#DejaVuSans-20" x="375.976562"/>
      <use xlink:href="#DejaVuSans-48" x="407.763672"/>
      <use xlink:href="#DejaVuSans-75" x="482.958984"/>
      <use xlink:href="#DejaVuSans-72" x="546.337891"/>
      <use xlink:href="#DejaVuSans-73" x="587.451172"/>
      <use xlink:href="#DejaVuSans-74" x="639.550781"/>
     </g>
    </g>
    <g id="line2d_38">
     <path d="M 81.9 112.634938 
L 91.9 112.634938 
L 101.9 112.634938 
" style="fill: none; stroke: #ff0000; stroke-width: 1.5; stroke-linecap: square"/>
    </g>
    <g id="text_20">
     <!-- Whittle Hurst -->
     <g transform="translate(109.9 116.134938)scale(0.1 -0.1)">
      <defs>
       <path id="DejaVuSans-57" d="M 213 4666 
L 850 4666 
L 1831 722 
L 2809 4666 
L 3519 4666 
L 4500 722 
L 5478 4666 
L 6119 4666 
L 4947 0 
L 4153 0 
L 3169 4050 
L 2175 0 
L 1381 0 
L 213 4666 
z
" transform="scale(0.015625)"/>
      </defs>
      <use xlink:href="#DejaVuSans-57"/>
      <use xlink:href="#DejaVuSans-68" x="98.876953"/>
      <use xlink:href="#DejaVuSans-69" x="162.255859"/>
      <use xlink:href="#DejaVuSans-74" x="190.039062"/>
      <use xlink:href="#DejaVuSans-74" x="229.248047"/>
      <use xlink:href="#DejaVuSans-6c" x="268.457031"/>
      <use xlink:href="#DejaVuSans-65" x="296.240234"/>
      <use xlink:href="#DejaVuSans-20" x="357.763672"/>
      <use xlink:href="#DejaVuSans-48" x="389.550781"/>
      <use xlink:href="#DejaVuSans-75" x="464.746094"/>
      <use xlink:href="#DejaVuSans-72" x="528.125"/>
      <use xlink:href="#DejaVuSans-73" x="569.238281"/>
      <use xlink:href="#DejaVuSans-74" x="621.337891"/>
     </g>
    </g>
    <g id="line2d_39">
     <path d="M 81.9 127.313063 
L 91.9 127.313063 
L 101.9 127.313063 
" style="fill: none; stroke: #ff7f0e; stroke-width: 1.5; stroke-linecap: square"/>
    </g>
    <g id="text_21">
     <!-- 1D CNN Hurst -->
     <g transform="translate(109.9 130.813063)scale(0.1 -0.1)">
      <defs>
       <path id="DejaVuSans-43" d="M 4122 4306 
L 4122 3641 
Q 3803 3938 3442 4084 
Q 3081 4231 2675 4231 
Q 1875 4231 1450 3742 
Q 1025 3253 1025 2328 
Q 1025 1406 1450 917 
Q 1875 428 2675 428 
Q 3081 428 3442 575 
Q 3803 722 4122 1019 
L 4122 359 
Q 3791 134 3420 21 
Q 3050 -91 2638 -91 
Q 1578 -91 968 557 
Q 359 1206 359 2328 
Q 359 3453 968 4101 
Q 1578 4750 2638 4750 
Q 3056 4750 3426 4639 
Q 3797 4528 4122 4306 
z
" transform="scale(0.015625)"/>
       <path id="DejaVuSans-4e" d="M 628 4666 
L 1478 4666 
L 3547 763 
L 3547 4666 
L 4159 4666 
L 4159 0 
L 3309 0 
L 1241 3903 
L 1241 0 
L 628 0 
L 628 4666 
z
" transform="scale(0.015625)"/>
      </defs>
      <use xlink:href="#DejaVuSans-31"/>
      <use xlink:href="#DejaVuSans-44" x="63.623047"/>
      <use xlink:href="#DejaVuSans-20" x="140.625"/>
      <use xlink:href="#DejaVuSans-43" x="172.412109"/>
      <use xlink:href="#DejaVuSans-4e" x="242.236328"/>
      <use xlink:href="#DejaVuSans-4e" x="317.041016"/>
      <use xlink:href="#DejaVuSans-20" x="391.845703"/>
      <use xlink:href="#DejaVuSans-48" x="423.632812"/>
      <use xlink:href="#DejaVuSans-75" x="498.828125"/>
      <use xlink:href="#DejaVuSans-72" x="562.207031"/>
      <use xlink:href="#DejaVuSans-73" x="603.320312"/>
      <use xlink:href="#DejaVuSans-74" x="655.419922"/>
     </g>
    </g>
    <g id="line2d_40">
     <path d="M 81.9 141.991187 
L 91.9 141.991187 
L 101.9 141.991187 
" style="fill: none; stroke: #1f77b4; stroke-width: 1.5; stroke-linecap: square"/>
    </g>
    <g id="text_22">
     <!-- LSTM Hurst -->
     <g transform="translate(109.9 145.491187)scale(0.1 -0.1)">
      <defs>
       <path id="DejaVuSans-54" d="M -19 4666 
L 3928 4666 
L 3928 4134 
L 2272 4134 
L 2272 0 
L 1638 0 
L 1638 4134 
L -19 4134 
L -19 4666 
z
" transform="scale(0.015625)"/>
       <path id="DejaVuSans-4d" d="M 628 4666 
L 1569 4666 
L 2759 1491 
L 3956 4666 
L 4897 4666 
L 4897 0 
L 4281 0 
L 4281 4097 
L 3078 897 
L 2444 897 
L 1241 4097 
L 1241 0 
L 628 0 
L 628 4666 
z
" transform="scale(0.015625)"/>
      </defs>
      <use xlink:href="#DejaVuSans-4c"/>
      <use xlink:href="#DejaVuSans-53" x="55.712891"/>
      <use xlink:href="#DejaVuSans-54" x="119.189453"/>
      <use xlink:href="#DejaVuSans-4d" x="180.273438"/>
      <use xlink:href="#DejaVuSans-20" x="266.552734"/>
      <use xlink:href="#DejaVuSans-48" x="298.339844"/>
      <use xlink:href="#DejaVuSans-75" x="373.535156"/>
      <use xlink:href="#DejaVuSans-72" x="436.914062"/>
      <use xlink:href="#DejaVuSans-73" x="478.027344"/>
      <use xlink:href="#DejaVuSans-74" x="530.126953"/>
     </g>
    </g>
   </g>
  </g>
 </g>
 <defs>
  <clipPath id="p459f8d8079">
   <rect x="72.9" y="40.824" width="451.98" height="261.954"/>
  </clipPath>
 </defs>
</svg>
