<?xml version="1.0" encoding="utf-8" standalone="no"?>
<!DOCTYPE svg PUBLIC "-//W3C//DTD SVG 1.1//EN"
  "http://www.w3.org/Graphics/SVG/1.1/DTD/svg11.dtd">
<svg xmlns:xlink="http://www.w3.org/1999/xlink" width="583.2pt" height="340.2pt" viewBox="0 0 583.2 340.2" xmlns="http://www.w3.org/2000/svg" version="1.1">
 <metadata>
  <rdf:RDF xmlns:dc="http://purl.org/dc/elements/1.1/" xmlns:cc="http://creativecommons.org/ns#" xmlns:rdf="http://www.w3.org/1999/02/22-rdf-syntax-ns#">
   <cc:Work>
    <dc:type rdf:resource="http://purl.org/dc/dcmitype/StillImage"/>
    <dc:date>2024-07-05T18:25:17.674850</dc:date>
    <dc:format>image/svg+xml</dc:format>
    <dc:creator>
     <cc:Agent>
      <dc:title>Matplotlib v3.5.1, https://matplotlib.org/</dc:title>
     </cc:Agent>
    </dc:creator>
   </cc:Work>
  </rdf:RDF>
 </metadata>
 <defs>
  <style type="text/css">*{stroke-linejoin: round; stroke-linecap: butt}</style>
 </defs>
 <g id="figure_1">
  <g id="patch_1">
   <path d="M 0 340.2 
L 583.2 340.2 
L 583.2 0 
L 0 0 
z
" style="fill: #ffffff"/>
  </g>
  <g id="axes_1">
   <g id="patch_2">
    <path d="M 72.9 302.778 
L 524.88 302.778 
L 524.88 40.824 
L 72.9 40.824 
L 72.9 302.778 
z
" style="fill: none; opacity: 0"/>
   </g>
   <g id="matplotlib.axis_1">
    <g id="xtick_1">
     <g id="line2d_1">
      <path d="M 92.583816 302.778 
L 92.583816 40.824 
" clip-path="url(#pdab682da39)" style="fill: none; stroke: #e6e6e6; stroke-width: 0.8; stroke-linecap: square"/>
     </g>
     <g id="line2d_2">
      <defs>
       <path id="m9960add20c" d="M 0 0 
L 0 3.5 
" style="stroke: #000000; stroke-width: 0.8"/>
      </defs>
      <g>
       <use xlink:href="#m9960add20c" x="92.583816" y="302.778" style="stroke: #000000; stroke-width: 0.8"/>
      </g>
     </g>
     <g id="text_1">
      <!-- 2014 -->
      <g transform="translate(79.858816 317.376438)scale(0.1 -0.1)">
       <defs>
        <path id="DejaVuSans-32" d="M 1228 531 
L 3431 531 
L 3431 0 
L 469 0 
L 469 531 
Q 828 903 1448 1529 
Q 2069 2156 2228 2338 
Q 2531 2678 2651 2914 
Q 2772 3150 2772 3378 
Q 2772 3750 2511 3984 
Q 2250 4219 1831 4219 
Q 1534 4219 1204 4116 
Q 875 4013 500 3803 
L 500 4441 
Q 881 4594 1212 4672 
Q 1544 4750 1819 4750 
Q 2544 4750 2975 4387 
Q 3406 4025 3406 3419 
Q 3406 3131 3298 2873 
Q 3191 2616 2906 2266 
Q 2828 2175 2409 1742 
Q 1991 1309 1228 531 
z
" transform="scale(0.015625)"/>
        <path id="DejaVuSans-30" d="M 2034 4250 
Q 1547 4250 1301 3770 
Q 1056 3291 1056 2328 
Q 1056 1369 1301 889 
Q 1547 409 2034 409 
Q 2525 409 2770 889 
Q 3016 1369 3016 2328 
Q 3016 3291 2770 3770 
Q 2525 4250 2034 4250 
z
M 2034 4750 
Q 2819 4750 3233 4129 
Q 3647 3509 3647 2328 
Q 3647 1150 3233 529 
Q 2819 -91 2034 -91 
Q 1250 -91 836 529 
Q 422 1150 422 2328 
Q 422 3509 836 4129 
Q 1250 4750 2034 4750 
z
" transform="scale(0.015625)"/>
        <path id="DejaVuSans-31" d="M 794 531 
L 1825 531 
L 1825 4091 
L 703 3866 
L 703 4441 
L 1819 4666 
L 2450 4666 
L 2450 531 
L 3481 531 
L 3481 0 
L 794 0 
L 794 531 
z
" transform="scale(0.015625)"/>
        <path id="DejaVuSans-34" d="M 2419 4116 
L 825 1625 
L 2419 1625 
L 2419 4116 
z
M 2253 4666 
L 3047 4666 
L 3047 1625 
L 3713 1625 
L 3713 1100 
L 3047 1100 
L 3047 0 
L 2419 0 
L 2419 1100 
L 313 1100 
L 313 1709 
L 2253 4666 
z
" transform="scale(0.015625)"/>
       </defs>
       <use xlink:href="#DejaVuSans-32"/>
       <use xlink:href="#DejaVuSans-30" x="63.623047"/>
       <use xlink:href="#DejaVuSans-31" x="127.246094"/>
       <use xlink:href="#DejaVuSans-34" x="190.869141"/>
      </g>
     </g>
    </g>
    <g id="xtick_2">
     <g id="line2d_3">
      <path d="M 171.125414 302.778 
L 171.125414 40.824 
" clip-path="url(#pdab682da39)" style="fill: none; stroke: #e6e6e6; stroke-width: 0.8; stroke-linecap: square"/>
     </g>
     <g id="line2d_4">
      <g>
       <use xlink:href="#m9960add20c" x="171.125414" y="302.778" style="stroke: #000000; stroke-width: 0.8"/>
      </g>
     </g>
     <g id="text_2">
      <!-- 2016 -->
      <g transform="translate(158.400414 317.376438)scale(0.1 -0.1)">
       <defs>
        <path id="DejaVuSans-36" d="M 2113 2584 
Q 1688 2584 1439 2293 
Q 1191 2003 1191 1497 
Q 1191 994 1439 701 
Q 1688 409 2113 409 
Q 2538 409 2786 701 
Q 3034 994 3034 1497 
Q 3034 2003 2786 2293 
Q 2538 2584 2113 2584 
z
M 3366 4563 
L 3366 3988 
Q 3128 4100 2886 4159 
Q 2644 4219 2406 4219 
Q 1781 4219 1451 3797 
Q 1122 3375 1075 2522 
Q 1259 2794 1537 2939 
Q 1816 3084 2150 3084 
Q 2853 3084 3261 2657 
Q 3669 2231 3669 1497 
Q 3669 778 3244 343 
Q 2819 -91 2113 -91 
Q 1303 -91 875 529 
Q 447 1150 447 2328 
Q 447 3434 972 4092 
Q 1497 4750 2381 4750 
Q 2619 4750 2861 4703 
Q 3103 4656 3366 4563 
z
" transform="scale(0.015625)"/>
       </defs>
       <use xlink:href="#DejaVuSans-32"/>
       <use xlink:href="#DejaVuSans-30" x="63.623047"/>
       <use xlink:href="#DejaVuSans-31" x="127.246094"/>
       <use xlink:href="#DejaVuSans-36" x="190.869141"/>
      </g>
     </g>
    </g>
    <g id="xtick_3">
     <g id="line2d_5">
      <path d="M 249.774603 302.778 
L 249.774603 40.824 
" clip-path="url(#pdab682da39)" style="fill: none; stroke: #e6e6e6; stroke-width: 0.8; stroke-linecap: square"/>
     </g>
     <g id="line2d_6">
      <g>
       <use xlink:href="#m9960add20c" x="249.774603" y="302.778" style="stroke: #000000; stroke-width: 0.8"/>
      </g>
     </g>
     <g id="text_3">
      <!-- 2018 -->
      <g transform="translate(237.049603 317.376438)scale(0.1 -0.1)">
       <defs>
        <path id="DejaVuSans-38" d="M 2034 2216 
Q 1584 2216 1326 1975 
Q 1069 1734 1069 1313 
Q 1069 891 1326 650 
Q 1584 409 2034 409 
Q 2484 409 2743 651 
Q 3003 894 3003 1313 
Q 3003 1734 2745 1975 
Q 2488 2216 2034 2216 
z
M 1403 2484 
Q 997 2584 770 2862 
Q 544 3141 544 3541 
Q 544 4100 942 4425 
Q 1341 4750 2034 4750 
Q 2731 4750 3128 4425 
Q 3525 4100 3525 3541 
Q 3525 3141 3298 2862 
Q 3072 2584 2669 2484 
Q 3125 2378 3379 2068 
Q 3634 1759 3634 1313 
Q 3634 634 3220 271 
Q 2806 -91 2034 -91 
Q 1263 -91 848 271 
Q 434 634 434 1313 
Q 434 1759 690 2068 
Q 947 2378 1403 2484 
z
M 1172 3481 
Q 1172 3119 1398 2916 
Q 1625 2713 2034 2713 
Q 2441 2713 2670 2916 
Q 2900 3119 2900 3481 
Q 2900 3844 2670 4047 
Q 2441 4250 2034 4250 
Q 1625 4250 1398 4047 
Q 1172 3844 1172 3481 
z
" transform="scale(0.015625)"/>
       </defs>
       <use xlink:href="#DejaVuSans-32"/>
       <use xlink:href="#DejaVuSans-30" x="63.623047"/>
       <use xlink:href="#DejaVuSans-31" x="127.246094"/>
       <use xlink:href="#DejaVuSans-38" x="190.869141"/>
      </g>
     </g>
    </g>
    <g id="xtick_4">
     <g id="line2d_7">
      <path d="M 328.316202 302.778 
L 328.316202 40.824 
" clip-path="url(#pdab682da39)" style="fill: none; stroke: #e6e6e6; stroke-width: 0.8; stroke-linecap: square"/>
     </g>
     <g id="line2d_8">
      <g>
       <use xlink:href="#m9960add20c" x="328.316202" y="302.778" style="stroke: #000000; stroke-width: 0.8"/>
      </g>
     </g>
     <g id="text_4">
      <!-- 2020 -->
      <g transform="translate(315.591202 317.376438)scale(0.1 -0.1)">
       <use xlink:href="#DejaVuSans-32"/>
       <use xlink:href="#DejaVuSans-30" x="63.623047"/>
       <use xlink:href="#DejaVuSans-32" x="127.246094"/>
       <use xlink:href="#DejaVuSans-30" x="190.869141"/>
      </g>
     </g>
    </g>
    <g id="xtick_5">
     <g id="line2d_9">
      <path d="M 406.965391 302.778 
L 406.965391 40.824 
" clip-path="url(#pdab682da39)" style="fill: none; stroke: #e6e6e6; stroke-width: 0.8; stroke-linecap: square"/>
     </g>
     <g id="line2d_10">
      <g>
       <use xlink:href="#m9960add20c" x="406.965391" y="302.778" style="stroke: #000000; stroke-width: 0.8"/>
      </g>
     </g>
     <g id="text_5">
      <!-- 2022 -->
      <g transform="translate(394.240391 317.376438)scale(0.1 -0.1)">
       <use xlink:href="#DejaVuSans-32"/>
       <use xlink:href="#DejaVuSans-30" x="63.623047"/>
       <use xlink:href="#DejaVuSans-32" x="127.246094"/>
       <use xlink:href="#DejaVuSans-32" x="190.869141"/>
      </g>
     </g>
    </g>
    <g id="xtick_6">
     <g id="line2d_11">
      <path d="M 485.506989 302.778 
L 485.506989 40.824 
" clip-path="url(#pdab682da39)" style="fill: none; stroke: #e6e6e6; stroke-width: 0.8; stroke-linecap: square"/>
     </g>
     <g id="line2d_12">
      <g>
       <use xlink:href="#m9960add20c" x="485.506989" y="302.778" style="stroke: #000000; stroke-width: 0.8"/>
      </g>
     </g>
     <g id="text_6">
      <!-- 2024 -->
      <g transform="translate(472.781989 317.376438)scale(0.1 -0.1)">
       <use xlink:href="#DejaVuSans-32"/>
       <use xlink:href="#DejaVuSans-30" x="63.623047"/>
       <use xlink:href="#DejaVuSans-32" x="127.246094"/>
       <use xlink:href="#DejaVuSans-34" x="190.869141"/>
      </g>
     </g>
    </g>
    <g id="text_7">
     <!-- Date -->
     <g transform="translate(286.939219 331.054562)scale(0.1 -0.1)">
      <defs>
       <path id="DejaVuSans-44" d="M 1259 4147 
L 1259 519 
L 2022 519 
Q 2988 519 3436 956 
Q 3884 1394 3884 2338 
Q 3884 3275 3436 3711 
Q 2988 4147 2022 4147 
L 1259 4147 
z
M 628 4666 
L 1925 4666 
Q 3281 4666 3915 4102 
Q 4550 3538 4550 2338 
Q 4550 1131 3912 565 
Q 3275 0 1925 0 
L 628 0 
L 628 4666 
z
" transform="scale(0.015625)"/>
       <path id="DejaVuSans-61" d="M 2194 1759 
Q 1497 1759 1228 1600 
Q 959 1441 959 1056 
Q 959 750 1161 570 
Q 1363 391 1709 391 
Q 2188 391 2477 730 
Q 2766 1069 2766 1631 
L 2766 1759 
L 2194 1759 
z
M 3341 1997 
L 3341 0 
L 2766 0 
L 2766 531 
Q 2569 213 2275 61 
Q 1981 -91 1556 -91 
Q 1019 -91 701 211 
Q 384 513 384 1019 
Q 384 1609 779 1909 
Q 1175 2209 1959 2209 
L 2766 2209 
L 2766 2266 
Q 2766 2663 2505 2880 
Q 2244 3097 1772 3097 
Q 1472 3097 1187 3025 
Q 903 2953 641 2809 
L 641 3341 
Q 956 3463 1253 3523 
Q 1550 3584 1831 3584 
Q 2591 3584 2966 3190 
Q 3341 2797 3341 1997 
z
" transform="scale(0.015625)"/>
       <path id="DejaVuSans-74" d="M 1172 4494 
L 1172 3500 
L 2356 3500 
L 2356 3053 
L 1172 3053 
L 1172 1153 
Q 1172 725 1289 603 
Q 1406 481 1766 481 
L 2356 481 
L 2356 0 
L 1766 0 
Q 1100 0 847 248 
Q 594 497 594 1153 
L 594 3053 
L 172 3053 
L 172 3500 
L 594 3500 
L 594 4494 
L 1172 4494 
z
" transform="scale(0.015625)"/>
       <path id="DejaVuSans-65" d="M 3597 1894 
L 3597 1613 
L 953 1613 
Q 991 1019 1311 708 
Q 1631 397 2203 397 
Q 2534 397 2845 478 
Q 3156 559 3463 722 
L 3463 178 
Q 3153 47 2828 -22 
Q 2503 -91 2169 -91 
Q 1331 -91 842 396 
Q 353 884 353 1716 
Q 353 2575 817 3079 
Q 1281 3584 2069 3584 
Q 2775 3584 3186 3129 
Q 3597 2675 3597 1894 
z
M 3022 2063 
Q 3016 2534 2758 2815 
Q 2500 3097 2075 3097 
Q 1594 3097 1305 2825 
Q 1016 2553 972 2059 
L 3022 2063 
z
" transform="scale(0.015625)"/>
      </defs>
      <use xlink:href="#DejaVuSans-44"/>
      <use xlink:href="#DejaVuSans-61" x="77.001953"/>
      <use xlink:href="#DejaVuSans-74" x="138.28125"/>
      <use xlink:href="#DejaVuSans-65" x="177.490234"/>
     </g>
    </g>
   </g>
   <g id="matplotlib.axis_2">
    <g id="ytick_1">
     <g id="line2d_13">
      <path d="M 72.9 282.332881 
L 524.88 282.332881 
" clip-path="url(#pdab682da39)" style="fill: none; stroke: #e6e6e6; stroke-width: 0.8; stroke-linecap: square"/>
     </g>
     <g id="line2d_14">
      <defs>
       <path id="mf504968cfc" d="M 0 0 
L -3.5 0 
" style="stroke: #000000; stroke-width: 0.8"/>
      </defs>
      <g>
       <use xlink:href="#mf504968cfc" x="72.9" y="282.332881" style="stroke: #000000; stroke-width: 0.8"/>
      </g>
     </g>
     <g id="text_8">
      <!-- −0.1 -->
      <g transform="translate(41.617187 286.132099)scale(0.1 -0.1)">
       <defs>
        <path id="DejaVuSans-2212" d="M 678 2272 
L 4684 2272 
L 4684 1741 
L 678 1741 
L 678 2272 
z
" transform="scale(0.015625)"/>
        <path id="DejaVuSans-2e" d="M 684 794 
L 1344 794 
L 1344 0 
L 684 0 
L 684 794 
z
" transform="scale(0.015625)"/>
       </defs>
       <use xlink:href="#DejaVuSans-2212"/>
       <use xlink:href="#DejaVuSans-30" x="83.789062"/>
       <use xlink:href="#DejaVuSans-2e" x="147.412109"/>
       <use xlink:href="#DejaVuSans-31" x="179.199219"/>
      </g>
     </g>
    </g>
    <g id="ytick_2">
     <g id="line2d_15">
      <path d="M 72.9 247.458044 
L 524.88 247.458044 
" clip-path="url(#pdab682da39)" style="fill: none; stroke: #e6e6e6; stroke-width: 0.8; stroke-linecap: square"/>
     </g>
     <g id="line2d_16">
      <g>
       <use xlink:href="#mf504968cfc" x="72.9" y="247.458044" style="stroke: #000000; stroke-width: 0.8"/>
      </g>
     </g>
     <g id="text_9">
      <!-- 0.0 -->
      <g transform="translate(49.996875 251.257262)scale(0.1 -0.1)">
       <use xlink:href="#DejaVuSans-30"/>
       <use xlink:href="#DejaVuSans-2e" x="63.623047"/>
       <use xlink:href="#DejaVuSans-30" x="95.410156"/>
      </g>
     </g>
    </g>
    <g id="ytick_3">
     <g id="line2d_17">
      <path d="M 72.9 212.583206 
L 524.88 212.583206 
" clip-path="url(#pdab682da39)" style="fill: none; stroke: #e6e6e6; stroke-width: 0.8; stroke-linecap: square"/>
     </g>
     <g id="line2d_18">
      <g>
       <use xlink:href="#mf504968cfc" x="72.9" y="212.583206" style="stroke: #000000; stroke-width: 0.8"/>
      </g>
     </g>
     <g id="text_10">
      <!-- 0.1 -->
      <g transform="translate(49.996875 216.382425)scale(0.1 -0.1)">
       <use xlink:href="#DejaVuSans-30"/>
       <use xlink:href="#DejaVuSans-2e" x="63.623047"/>
       <use xlink:href="#DejaVuSans-31" x="95.410156"/>
      </g>
     </g>
    </g>
    <g id="ytick_4">
     <g id="line2d_19">
      <path d="M 72.9 177.708369 
L 524.88 177.708369 
" clip-path="url(#pdab682da39)" style="fill: none; stroke: #e6e6e6; stroke-width: 0.8; stroke-linecap: square"/>
     </g>
     <g id="line2d_20">
      <g>
       <use xlink:href="#mf504968cfc" x="72.9" y="177.708369" style="stroke: #000000; stroke-width: 0.8"/>
      </g>
     </g>
     <g id="text_11">
      <!-- 0.2 -->
      <g transform="translate(49.996875 181.507588)scale(0.1 -0.1)">
       <use xlink:href="#DejaVuSans-30"/>
       <use xlink:href="#DejaVuSans-2e" x="63.623047"/>
       <use xlink:href="#DejaVuSans-32" x="95.410156"/>
      </g>
     </g>
    </g>
    <g id="ytick_5">
     <g id="line2d_21">
      <path d="M 72.9 142.833532 
L 524.88 142.833532 
" clip-path="url(#pdab682da39)" style="fill: none; stroke: #e6e6e6; stroke-width: 0.8; stroke-linecap: square"/>
     </g>
     <g id="line2d_22">
      <g>
       <use xlink:href="#mf504968cfc" x="72.9" y="142.833532" style="stroke: #000000; stroke-width: 0.8"/>
      </g>
     </g>
     <g id="text_12">
      <!-- 0.3 -->
      <g transform="translate(49.996875 146.632751)scale(0.1 -0.1)">
       <defs>
        <path id="DejaVuSans-33" d="M 2597 2516 
Q 3050 2419 3304 2112 
Q 3559 1806 3559 1356 
Q 3559 666 3084 287 
Q 2609 -91 1734 -91 
Q 1441 -91 1130 -33 
Q 819 25 488 141 
L 488 750 
Q 750 597 1062 519 
Q 1375 441 1716 441 
Q 2309 441 2620 675 
Q 2931 909 2931 1356 
Q 2931 1769 2642 2001 
Q 2353 2234 1838 2234 
L 1294 2234 
L 1294 2753 
L 1863 2753 
Q 2328 2753 2575 2939 
Q 2822 3125 2822 3475 
Q 2822 3834 2567 4026 
Q 2313 4219 1838 4219 
Q 1578 4219 1281 4162 
Q 984 4106 628 3988 
L 628 4550 
Q 988 4650 1302 4700 
Q 1616 4750 1894 4750 
Q 2613 4750 3031 4423 
Q 3450 4097 3450 3541 
Q 3450 3153 3228 2886 
Q 3006 2619 2597 2516 
z
" transform="scale(0.015625)"/>
       </defs>
       <use xlink:href="#DejaVuSans-30"/>
       <use xlink:href="#DejaVuSans-2e" x="63.623047"/>
       <use xlink:href="#DejaVuSans-33" x="95.410156"/>
      </g>
     </g>
    </g>
    <g id="ytick_6">
     <g id="line2d_23">
      <path d="M 72.9 107.958695 
L 524.88 107.958695 
" clip-path="url(#pdab682da39)" style="fill: none; stroke: #e6e6e6; stroke-width: 0.8; stroke-linecap: square"/>
     </g>
     <g id="line2d_24">
      <g>
       <use xlink:href="#mf504968cfc" x="72.9" y="107.958695" style="stroke: #000000; stroke-width: 0.8"/>
      </g>
     </g>
     <g id="text_13">
      <!-- 0.4 -->
      <g transform="translate(49.996875 111.757914)scale(0.1 -0.1)">
       <use xlink:href="#DejaVuSans-30"/>
       <use xlink:href="#DejaVuSans-2e" x="63.623047"/>
       <use xlink:href="#DejaVuSans-34" x="95.410156"/>
      </g>
     </g>
    </g>
    <g id="ytick_7">
     <g id="line2d_25">
      <path d="M 72.9 73.083858 
L 524.88 73.083858 
" clip-path="url(#pdab682da39)" style="fill: none; stroke: #e6e6e6; stroke-width: 0.8; stroke-linecap: square"/>
     </g>
     <g id="line2d_26">
      <g>
       <use xlink:href="#mf504968cfc" x="72.9" y="73.083858" style="stroke: #000000; stroke-width: 0.8"/>
      </g>
     </g>
     <g id="text_14">
      <!-- 0.5 -->
      <g transform="translate(49.996875 76.883077)scale(0.1 -0.1)">
       <defs>
        <path id="DejaVuSans-35" d="M 691 4666 
L 3169 4666 
L 3169 4134 
L 1269 4134 
L 1269 2991 
Q 1406 3038 1543 3061 
Q 1681 3084 1819 3084 
Q 2600 3084 3056 2656 
Q 3513 2228 3513 1497 
Q 3513 744 3044 326 
Q 2575 -91 1722 -91 
Q 1428 -91 1123 -41 
Q 819 9 494 109 
L 494 744 
Q 775 591 1075 516 
Q 1375 441 1709 441 
Q 2250 441 2565 725 
Q 2881 1009 2881 1497 
Q 2881 1984 2565 2268 
Q 2250 2553 1709 2553 
Q 1456 2553 1204 2497 
Q 953 2441 691 2322 
L 691 4666 
z
" transform="scale(0.015625)"/>
       </defs>
       <use xlink:href="#DejaVuSans-30"/>
       <use xlink:href="#DejaVuSans-2e" x="63.623047"/>
       <use xlink:href="#DejaVuSans-35" x="95.410156"/>
      </g>
     </g>
    </g>
    <g id="text_15">
     <!-- Volatility and Hurst-estimate -->
     <g transform="translate(35.5375 243.333031)rotate(-90)scale(0.1 -0.1)">
      <defs>
       <path id="DejaVuSans-56" d="M 1831 0 
L 50 4666 
L 709 4666 
L 2188 738 
L 3669 4666 
L 4325 4666 
L 2547 0 
L 1831 0 
z
" transform="scale(0.015625)"/>
       <path id="DejaVuSans-6f" d="M 1959 3097 
Q 1497 3097 1228 2736 
Q 959 2375 959 1747 
Q 959 1119 1226 758 
Q 1494 397 1959 397 
Q 2419 397 2687 759 
Q 2956 1122 2956 1747 
Q 2956 2369 2687 2733 
Q 2419 3097 1959 3097 
z
M 1959 3584 
Q 2709 3584 3137 3096 
Q 3566 2609 3566 1747 
Q 3566 888 3137 398 
Q 2709 -91 1959 -91 
Q 1206 -91 779 398 
Q 353 888 353 1747 
Q 353 2609 779 3096 
Q 1206 3584 1959 3584 
z
" transform="scale(0.015625)"/>
       <path id="DejaVuSans-6c" d="M 603 4863 
L 1178 4863 
L 1178 0 
L 603 0 
L 603 4863 
z
" transform="scale(0.015625)"/>
       <path id="DejaVuSans-69" d="M 603 3500 
L 1178 3500 
L 1178 0 
L 603 0 
L 603 3500 
z
M 603 4863 
L 1178 4863 
L 1178 4134 
L 603 4134 
L 603 4863 
z
" transform="scale(0.015625)"/>
       <path id="DejaVuSans-79" d="M 2059 -325 
Q 1816 -950 1584 -1140 
Q 1353 -1331 966 -1331 
L 506 -1331 
L 506 -850 
L 844 -850 
Q 1081 -850 1212 -737 
Q 1344 -625 1503 -206 
L 1606 56 
L 191 3500 
L 800 3500 
L 1894 763 
L 2988 3500 
L 3597 3500 
L 2059 -325 
z
" transform="scale(0.015625)"/>
       <path id="DejaVuSans-20" transform="scale(0.015625)"/>
       <path id="DejaVuSans-6e" d="M 3513 2113 
L 3513 0 
L 2938 0 
L 2938 2094 
Q 2938 2591 2744 2837 
Q 2550 3084 2163 3084 
Q 1697 3084 1428 2787 
Q 1159 2491 1159 1978 
L 1159 0 
L 581 0 
L 581 3500 
L 1159 3500 
L 1159 2956 
Q 1366 3272 1645 3428 
Q 1925 3584 2291 3584 
Q 2894 3584 3203 3211 
Q 3513 2838 3513 2113 
z
" transform="scale(0.015625)"/>
       <path id="DejaVuSans-64" d="M 2906 2969 
L 2906 4863 
L 3481 4863 
L 3481 0 
L 2906 0 
L 2906 525 
Q 2725 213 2448 61 
Q 2172 -91 1784 -91 
Q 1150 -91 751 415 
Q 353 922 353 1747 
Q 353 2572 751 3078 
Q 1150 3584 1784 3584 
Q 2172 3584 2448 3432 
Q 2725 3281 2906 2969 
z
M 947 1747 
Q 947 1113 1208 752 
Q 1469 391 1925 391 
Q 2381 391 2643 752 
Q 2906 1113 2906 1747 
Q 2906 2381 2643 2742 
Q 2381 3103 1925 3103 
Q 1469 3103 1208 2742 
Q 947 2381 947 1747 
z
" transform="scale(0.015625)"/>
       <path id="DejaVuSans-48" d="M 628 4666 
L 1259 4666 
L 1259 2753 
L 3553 2753 
L 3553 4666 
L 4184 4666 
L 4184 0 
L 3553 0 
L 3553 2222 
L 1259 2222 
L 1259 0 
L 628 0 
L 628 4666 
z
" transform="scale(0.015625)"/>
       <path id="DejaVuSans-75" d="M 544 1381 
L 544 3500 
L 1119 3500 
L 1119 1403 
Q 1119 906 1312 657 
Q 1506 409 1894 409 
Q 2359 409 2629 706 
Q 2900 1003 2900 1516 
L 2900 3500 
L 3475 3500 
L 3475 0 
L 2900 0 
L 2900 538 
Q 2691 219 2414 64 
Q 2138 -91 1772 -91 
Q 1169 -91 856 284 
Q 544 659 544 1381 
z
M 1991 3584 
L 1991 3584 
z
" transform="scale(0.015625)"/>
       <path id="DejaVuSans-72" d="M 2631 2963 
Q 2534 3019 2420 3045 
Q 2306 3072 2169 3072 
Q 1681 3072 1420 2755 
Q 1159 2438 1159 1844 
L 1159 0 
L 581 0 
L 581 3500 
L 1159 3500 
L 1159 2956 
Q 1341 3275 1631 3429 
Q 1922 3584 2338 3584 
Q 2397 3584 2469 3576 
Q 2541 3569 2628 3553 
L 2631 2963 
z
" transform="scale(0.015625)"/>
       <path id="DejaVuSans-73" d="M 2834 3397 
L 2834 2853 
Q 2591 2978 2328 3040 
Q 2066 3103 1784 3103 
Q 1356 3103 1142 2972 
Q 928 2841 928 2578 
Q 928 2378 1081 2264 
Q 1234 2150 1697 2047 
L 1894 2003 
Q 2506 1872 2764 1633 
Q 3022 1394 3022 966 
Q 3022 478 2636 193 
Q 2250 -91 1575 -91 
Q 1294 -91 989 -36 
Q 684 19 347 128 
L 347 722 
Q 666 556 975 473 
Q 1284 391 1588 391 
Q 1994 391 2212 530 
Q 2431 669 2431 922 
Q 2431 1156 2273 1281 
Q 2116 1406 1581 1522 
L 1381 1569 
Q 847 1681 609 1914 
Q 372 2147 372 2553 
Q 372 3047 722 3315 
Q 1072 3584 1716 3584 
Q 2034 3584 2315 3537 
Q 2597 3491 2834 3397 
z
" transform="scale(0.015625)"/>
       <path id="DejaVuSans-2d" d="M 313 2009 
L 1997 2009 
L 1997 1497 
L 313 1497 
L 313 2009 
z
" transform="scale(0.015625)"/>
       <path id="DejaVuSans-6d" d="M 3328 2828 
Q 3544 3216 3844 3400 
Q 4144 3584 4550 3584 
Q 5097 3584 5394 3201 
Q 5691 2819 5691 2113 
L 5691 0 
L 5113 0 
L 5113 2094 
Q 5113 2597 4934 2840 
Q 4756 3084 4391 3084 
Q 3944 3084 3684 2787 
Q 3425 2491 3425 1978 
L 3425 0 
L 2847 0 
L 2847 2094 
Q 2847 2600 2669 2842 
Q 2491 3084 2119 3084 
Q 1678 3084 1418 2786 
Q 1159 2488 1159 1978 
L 1159 0 
L 581 0 
L 581 3500 
L 1159 3500 
L 1159 2956 
Q 1356 3278 1631 3431 
Q 1906 3584 2284 3584 
Q 2666 3584 2933 3390 
Q 3200 3197 3328 2828 
z
" transform="scale(0.015625)"/>
      </defs>
      <use xlink:href="#DejaVuSans-56"/>
      <use xlink:href="#DejaVuSans-6f" x="60.658203"/>
      <use xlink:href="#DejaVuSans-6c" x="121.839844"/>
      <use xlink:href="#DejaVuSans-61" x="149.623047"/>
      <use xlink:href="#DejaVuSans-74" x="210.902344"/>
      <use xlink:href="#DejaVuSans-69" x="250.111328"/>
      <use xlink:href="#DejaVuSans-6c" x="277.894531"/>
      <use xlink:href="#DejaVuSans-69" x="305.677734"/>
      <use xlink:href="#DejaVuSans-74" x="333.460938"/>
      <use xlink:href="#DejaVuSans-79" x="372.669922"/>
      <use xlink:href="#DejaVuSans-20" x="431.849609"/>
      <use xlink:href="#DejaVuSans-61" x="463.636719"/>
      <use xlink:href="#DejaVuSans-6e" x="524.916016"/>
      <use xlink:href="#DejaVuSans-64" x="588.294922"/>
      <use xlink:href="#DejaVuSans-20" x="651.771484"/>
      <use xlink:href="#DejaVuSans-48" x="683.558594"/>
      <use xlink:href="#DejaVuSans-75" x="758.753906"/>
      <use xlink:href="#DejaVuSans-72" x="822.132812"/>
      <use xlink:href="#DejaVuSans-73" x="863.246094"/>
      <use xlink:href="#DejaVuSans-74" x="915.345703"/>
      <use xlink:href="#DejaVuSans-2d" x="954.554688"/>
      <use xlink:href="#DejaVuSans-65" x="990.638672"/>
      <use xlink:href="#DejaVuSans-73" x="1052.162109"/>
      <use xlink:href="#DejaVuSans-74" x="1104.261719"/>
      <use xlink:href="#DejaVuSans-69" x="1143.470703"/>
      <use xlink:href="#DejaVuSans-6d" x="1171.253906"/>
      <use xlink:href="#DejaVuSans-61" x="1268.666016"/>
      <use xlink:href="#DejaVuSans-74" x="1329.945312"/>
      <use xlink:href="#DejaVuSans-65" x="1369.154297"/>
     </g>
    </g>
   </g>
   <g id="patch_3">
    <path d="M 72.9 302.778 
L 72.9 40.824 
" style="fill: none; stroke: #000000; stroke-width: 0.8; stroke-linejoin: miter; stroke-linecap: square"/>
   </g>
   <g id="patch_4">
    <path d="M 524.88 302.778 
L 524.88 40.824 
" style="fill: none; stroke: #e6e6e6; stroke-width: 0.8; stroke-linejoin: miter; stroke-linecap: square"/>
   </g>
   <g id="patch_5">
    <path d="M 72.9 302.778 
L 524.88 302.778 
" style="fill: none; stroke: #000000; stroke-width: 0.8; stroke-linejoin: miter; stroke-linecap: square"/>
   </g>
   <g id="patch_6">
    <path d="M 72.9 40.824 
L 524.88 40.824 
" style="fill: none; stroke: #e6e6e6; stroke-width: 0.8; stroke-linejoin: miter; stroke-linecap: square"/>
   </g>
   <g id="line2d_27">
    <path d="M 93.444545 232.840958 
L 94.197684 210.908882 
L 95.058414 237.090576 
L 95.811553 239.292911 
L 96.564691 239.399277 
L 97.31783 240.036192 
L 98.393742 243.15716 
L 99.146881 235.600817 
L 99.900019 241.541954 
L 100.653158 237.552796 
L 101.406297 239.510169 
L 102.159435 231.158513 
L 102.912574 237.928804 
L 104.526442 240.388361 
L 105.279581 236.481281 
L 106.032719 239.770876 
L 106.785858 237.13243 
L 107.538997 239.422312 
L 108.399726 238.008802 
L 109.152865 241.836459 
L 109.906004 240.788764 
L 110.659142 233.984771 
L 111.412281 245.920379 
L 112.16542 245.336164 
L 113.026149 243.978503 
L 113.779288 242.372236 
L 114.532427 242.28393 
L 115.285565 238.385817 
L 116.038704 243.051338 
L 116.791842 242.041531 
L 117.544981 236.587748 
L 119.15885 240.257325 
L 119.911988 241.254385 
L 120.665127 240.336645 
L 121.418265 241.011206 
L 122.171404 242.539051 
L 122.924543 240.603868 
L 123.677681 239.084116 
L 124.43082 243.785401 
L 125.183958 242.227777 
L 125.937097 239.663618 
L 126.690236 240.73864 
L 127.443374 226.027947 
L 128.519287 238.434593 
L 129.272425 235.2513 
L 130.025564 233.397529 
L 130.778702 237.470402 
L 131.639432 240.431353 
L 132.500162 240.237563 
L 133.253301 227.18368 
L 134.867169 239.676057 
L 135.620308 237.012757 
L 136.373446 242.368201 
L 137.234176 246.787687 
L 137.987315 246.011416 
L 138.740453 239.968737 
L 139.493592 239.167245 
L 140.246731 244.957199 
L 140.999869 242.169789 
L 142.075782 243.458934 
L 142.82892 241.707407 
L 143.582059 240.870451 
L 144.335197 244.642693 
L 145.088336 239.737294 
L 145.841475 241.954683 
L 146.594613 242.416162 
L 147.455343 243.566792 
L 148.208482 236.971562 
L 148.96162 244.302387 
L 149.714759 245.681494 
L 150.467898 244.668691 
L 151.221036 241.491489 
L 152.081766 239.939773 
L 152.834905 242.30963 
L 153.588043 243.826519 
L 154.341182 241.850712 
L 155.094321 242.059666 
L 155.847459 242.909283 
L 156.600598 241.654681 
L 157.353736 236.382899 
L 158.106875 232.649011 
L 158.967605 244.61684 
L 159.720743 243.160969 
L 160.473882 243.081456 
L 161.227021 242.153325 
L 161.980159 244.277474 
L 162.733298 242.442763 
L 163.486436 245.103649 
L 164.239575 239.159377 
L 164.992714 245.850772 
L 165.745852 241.254368 
L 166.498991 217.238889 
L 167.359721 238.025944 
L 168.112859 240.176836 
L 168.865998 236.157696 
L 169.619137 238.788906 
L 170.695049 244.849837 
L 171.555779 243.268942 
L 172.308917 236.451222 
L 173.169647 239.676483 
L 173.922786 239.505959 
L 174.675924 238.91021 
L 175.429063 237.042761 
L 176.289793 242.623566 
L 177.042932 238.26489 
L 177.79607 241.889045 
L 178.549209 237.346315 
L 179.302347 237.63611 
L 180.055486 243.283797 
L 180.916216 239.397411 
L 181.669354 241.551903 
L 182.422493 241.528172 
L 183.92877 243.678854 
L 184.681909 243.333563 
L 185.435047 239.995079 
L 186.188186 241.832029 
L 186.941325 237.961944 
L 188.017237 244.568972 
L 188.770376 242.599976 
L 189.523514 243.355773 
L 190.276653 239.808099 
L 191.137383 240.426776 
L 191.890521 240.490429 
L 192.64366 234.161481 
L 193.396799 242.274216 
L 194.149937 242.039183 
L 194.903076 243.923516 
L 195.656214 241.187906 
L 196.409353 242.366373 
L 197.162492 229.596279 
L 198.023221 244.149567 
L 198.77636 244.207093 
L 199.529499 242.204657 
L 200.282637 244.068242 
L 201.035776 241.871399 
L 201.788915 242.074008 
L 202.542053 241.736266 
L 203.295192 244.488112 
L 204.04833 230.163871 
L 204.801469 240.535544 
L 205.554608 241.580098 
L 206.307746 236.292582 
L 207.168476 243.025894 
L 207.921615 240.238447 
L 208.674753 239.719903 
L 209.427892 237.614578 
L 210.288622 241.063702 
L 211.364534 239.717358 
L 212.225264 232.517599 
L 212.978402 244.17073 
L 213.731541 244.793204 
L 214.48468 244.489374 
L 215.237818 242.924482 
L 216.098548 242.565455 
L 216.851687 232.587112 
L 217.604825 242.081632 
L 218.357964 238.979262 
L 219.111103 240.860963 
L 219.864241 221.876496 
L 220.61738 241.317222 
L 221.370518 244.664316 
L 222.231248 243.398166 
L 222.984387 242.763173 
L 223.737526 239.949675 
L 224.490664 241.120953 
L 225.243803 242.067125 
L 225.996941 234.562221 
L 226.857671 235.319174 
L 228.363948 241.988702 
L 229.117087 244.532979 
L 229.870226 244.379747 
L 230.946138 244.850777 
L 231.699277 244.960972 
L 232.452415 243.560217 
L 233.205554 241.044606 
L 233.958692 243.253709 
L 234.711831 241.704109 
L 235.46497 239.021438 
L 236.218108 227.499997 
L 237.078838 242.062065 
L 237.831977 243.532779 
L 238.585115 243.38168 
L 239.338254 243.110969 
L 240.091393 244.455276 
L 240.844531 242.388389 
L 241.59767 240.921795 
L 242.350808 242.964988 
L 243.103947 243.699967 
L 243.857086 242.188632 
L 244.610224 235.801059 
L 245.363363 243.629535 
L 246.224093 241.416847 
L 246.977231 240.194225 
L 247.73037 239.970152 
L 248.483509 242.791036 
L 249.344238 243.356844 
L 250.204968 242.775676 
L 250.958107 226.470963 
L 252.034019 237.540582 
L 252.787158 242.43715 
L 253.540296 242.943188 
L 254.293435 236.568174 
L 255.154165 237.794283 
L 255.907303 240.385697 
L 256.660442 244.50143 
L 257.413581 242.48429 
L 258.166719 241.273442 
L 258.919858 237.764105 
L 259.780588 226.648289 
L 260.533726 243.736455 
L 261.286865 242.186387 
L 262.040004 237.472065 
L 262.793142 240.19767 
L 263.546281 239.021326 
L 264.299419 238.931275 
L 265.052558 231.97452 
L 265.913288 240.2969 
L 266.666426 239.780403 
L 267.419565 238.312221 
L 268.172704 231.540851 
L 268.925842 240.874554 
L 269.786572 236.278603 
L 270.539711 237.906985 
L 271.292849 238.789239 
L 272.045988 242.167893 
L 272.799127 241.277182 
L 273.552265 244.760854 
L 274.305404 242.986344 
L 275.058542 238.408292 
L 275.811681 231.412018 
L 276.887593 224.243289 
L 277.640732 241.48352 
L 278.393871 237.740232 
L 279.900148 241.37495 
L 280.653286 243.619296 
L 281.406425 239.357214 
L 282.159564 232.014671 
L 283.665841 239.845081 
L 284.41898 234.994909 
L 285.279709 223.468864 
L 286.032848 234.870169 
L 286.893578 241.868247 
L 287.646716 242.235162 
L 288.507446 233.922722 
L 289.368176 224.020893 
L 290.121315 243.387837 
L 290.874453 243.760226 
L 291.950366 238.011341 
L 292.703504 197.459383 
L 293.456643 239.605283 
L 294.317373 241.538 
L 295.070511 241.504686 
L 295.82365 244.571317 
L 296.576789 236.377224 
L 297.329927 242.613732 
L 298.083066 238.527636 
L 298.836204 241.589027 
L 299.589343 236.05823 
L 300.342482 237.057427 
L 301.203211 240.233282 
L 301.95635 245.889549 
L 302.709489 240.322834 
L 304.215766 237.152985 
L 305.076496 241.388622 
L 305.829634 176.691398 
L 306.582773 229.986913 
L 307.335912 242.585747 
L 308.08905 242.277284 
L 308.94978 239.165624 
L 309.702919 237.10206 
L 310.456057 236.278641 
L 311.209196 240.641457 
L 311.962334 238.108148 
L 312.715473 232.459962 
L 313.468612 236.937808 
L 314.22175 228.986125 
L 314.974889 225.805853 
L 316.050801 229.223282 
L 316.80394 225.970607 
L 317.557078 231.47056 
L 318.310217 241.817577 
L 319.063356 237.268804 
L 319.816494 230.110709 
L 320.569633 238.984004 
L 322.07591 228.920002 
L 322.829049 239.925442 
L 323.582187 240.223635 
L 324.335326 235.874467 
L 325.196056 238.721801 
L 325.949194 232.645199 
L 326.702333 214.504561 
L 327.455472 237.019735 
L 328.423793 233.505382 
L 329.176931 232.598514 
L 329.93007 226.496058 
L 330.7908 234.219218 
L 331.543938 242.076082 
L 332.297077 230.565572 
L 333.050216 237.095723 
L 334.126128 232.321788 
L 334.879267 230.573681 
L 335.632405 230.08465 
L 336.385544 213.85135 
L 337.138682 215.490179 
L 337.891821 215.5477 
L 338.64496 217.773606 
L 339.505689 218.704147 
L 340.258828 207.201083 
L 341.011967 213.73474 
L 342.518244 232.872263 
L 343.271383 226.756718 
L 344.132112 230.29852 
L 344.885251 226.824335 
L 345.63839 212.859137 
L 346.391528 218.267797 
L 347.144667 230.992562 
L 347.897805 240.95247 
L 348.758535 236.6414 
L 349.511674 236.642212 
L 350.264813 234.308933 
L 351.017951 240.233959 
L 351.77109 231.254893 
L 352.524228 232.552251 
L 353.277367 237.049797 
L 354.030506 232.702082 
L 354.783644 215.482253 
L 355.644374 224.040842 
L 356.397513 221.128631 
L 357.150651 204.466106 
L 357.90379 237.150156 
L 358.656929 182.999749 
L 359.410067 225.794265 
L 360.163206 238.651906 
L 360.916344 232.415411 
L 361.669483 230.008596 
L 362.422622 232.472467 
L 363.17576 228.835377 
L 364.251672 231.489289 
L 365.004811 231.272482 
L 365.75795 211.889332 
L 366.511088 233.13019 
L 367.371818 207.458383 
L 368.232548 229.307591 
L 368.985687 177.017485 
L 369.846416 200.950666 
L 370.599555 52.731 
L 371.352694 55.50633 
L 372.105832 202.842504 
L 372.966562 227.138355 
L 373.719701 138.765677 
L 374.472839 223.769375 
L 375.225978 193.291325 
L 375.979117 221.01256 
L 376.732255 143.889001 
L 377.808168 234.034759 
L 378.561306 233.754693 
L 379.314445 216.870053 
L 380.067583 225.587552 
L 380.820722 232.559393 
L 381.573861 229.175767 
L 382.326999 221.604127 
L 383.080138 233.584266 
L 383.940868 205.807172 
L 384.694006 213.768061 
L 385.447145 195.992414 
L 386.200284 225.896643 
L 386.953422 241.149884 
L 388.567291 235.879803 
L 389.320429 230.925339 
L 390.073568 236.472653 
L 390.826706 244.86906 
L 391.579845 235.632531 
L 392.332984 239.286309 
L 393.086122 206.969271 
L 393.839261 238.341907 
L 394.699991 239.387045 
L 395.453129 232.535386 
L 396.206268 237.59741 
L 396.959407 236.671422 
L 397.712545 241.647089 
L 398.465684 238.978837 
L 399.218822 243.171382 
L 399.971961 230.899811 
L 400.7251 234.688647 
L 401.478238 234.591511 
L 402.231377 240.91756 
L 403.092107 213.544368 
L 403.845245 232.854521 
L 404.598384 225.187926 
L 405.351523 215.140171 
L 406.427435 241.519115 
L 407.180573 234.531533 
L 407.933712 219.453094 
L 408.794442 238.714726 
L 409.547581 234.870338 
L 410.300719 221.217757 
L 411.053858 217.400774 
L 412.667726 239.884471 
L 413.420865 228.579303 
L 414.174003 225.852243 
L 414.927142 214.241577 
L 416.433419 206.173705 
L 417.186558 228.323732 
L 417.939696 236.401142 
L 418.800426 228.359114 
L 419.553565 237.078249 
L 420.306704 231.005023 
L 421.059842 212.910017 
L 421.812981 214.977483 
L 422.566119 200.94402 
L 423.426849 220.673616 
L 424.179988 218.342861 
L 424.933126 224.023324 
L 426.009039 233.926799 
L 426.869769 240.612248 
L 427.622907 221.479627 
L 428.376046 236.319506 
L 429.129184 231.835519 
L 429.882323 241.687887 
L 430.635462 226.483288 
L 432.141739 242.244193 
L 432.894878 237.790295 
L 433.755607 238.083468 
L 434.508746 225.691177 
L 435.261885 237.691969 
L 436.015023 226.91657 
L 436.768162 226.829561 
L 437.5213 242.346596 
L 438.274439 228.643951 
L 439.027578 228.580922 
L 439.780716 229.160463 
L 440.533855 235.462494 
L 441.286994 233.790856 
L 442.040132 228.963583 
L 442.900862 238.756322 
L 443.654001 218.523845 
L 444.407139 232.100568 
L 445.160278 237.032919 
L 446.021008 230.326356 
L 447.09692 233.149569 
L 447.95765 234.671269 
L 448.710788 222.300232 
L 449.463927 219.146186 
L 450.217066 222.564758 
L 450.970204 235.050715 
L 451.830934 227.784228 
L 452.584073 239.358961 
L 453.337211 239.964703 
L 454.09035 238.66381 
L 454.843489 203.525263 
L 455.596627 231.228267 
L 456.349766 239.731743 
L 457.210496 242.330032 
L 457.963634 240.513207 
L 458.716773 237.977625 
L 459.469911 238.529821 
L 460.22305 238.549086 
L 460.976189 239.756688 
L 461.729327 227.929005 
L 462.590057 237.227193 
L 463.343196 210.810709 
L 465.172247 242.733165 
L 465.925385 236.306154 
L 466.786115 235.084998 
L 467.539254 242.644473 
L 468.292392 238.419574 
L 469.045531 241.655609 
L 469.79867 241.836302 
L 470.551808 239.810301 
L 471.304947 236.715907 
L 472.058085 235.084682 
L 472.918815 238.680569 
L 473.671954 233.385788 
L 474.425092 239.247293 
L 475.178231 235.412081 
L 475.93137 235.872595 
L 476.684508 239.665857 
L 477.437647 242.580302 
L 478.190786 234.517425 
L 478.943924 230.308029 
L 479.697063 236.668825 
L 480.450201 232.16415 
L 481.20334 235.388596 
L 482.06407 205.713043 
L 482.817208 213.887964 
L 483.570347 227.366933 
L 484.323486 237.466765 
L 485.184216 235.499848 
L 486.260128 240.76679 
L 487.120858 235.125615 
L 488.627135 238.948528 
L 489.380274 228.993421 
L 490.133412 238.969622 
L 490.994142 238.595481 
L 491.747281 241.880892 
L 492.500419 239.578303 
L 493.253558 239.172397 
L 494.006696 241.983901 
L 494.759835 208.647634 
L 495.620565 235.288048 
L 496.373703 236.388644 
L 497.126842 233.735388 
L 497.879981 233.376892 
L 498.633119 218.225364 
L 499.386258 205.722848 
L 500.139397 105.128117 
L 500.892535 212.413183 
L 501.753265 205.470803 
L 502.506404 128.751179 
L 503.259542 189.823432 
L 504.335455 225.720031 
L 504.335455 225.720031 
" clip-path="url(#pdab682da39)" style="fill: none; stroke: #808080; stroke-width: 1.5; stroke-linecap: square"/>
   </g>
   <g id="line2d_28">
    <path d="M 132.500162 122.303766 
L 152.081766 110.874395 
L 171.555779 132.799144 
L 191.137383 130.086417 
L 210.288622 173.596056 
L 229.870226 156.760771 
L 249.344238 190.97554 
L 268.925842 140.887457 
L 288.507446 90.136129 
L 308.08905 119.859025 
L 327.455472 139.245376 
L 347.144667 99.289985 
L 366.511088 87.892876 
L 386.200284 91.204197 
L 405.351523 85.120885 
L 424.933126 154.020459 
L 444.407139 166.587763 
L 464.096334 94.954841 
" clip-path="url(#pdab682da39)" style="fill: none; stroke-dasharray: 1.5,2.475; stroke-dashoffset: 0; stroke: #ff0000; stroke-width: 1.5"/>
   </g>
   <g id="line2d_29">
    <path d="M 132.500162 196.213277 
L 152.081766 196.745727 
L 171.555779 216.942928 
L 191.137383 219.715613 
L 210.288622 209.224691 
L 229.870226 172.764201 
L 249.344238 141.170358 
L 268.925842 156.59198 
L 288.507446 161.60568 
L 308.08905 158.184007 
L 327.455472 216.213896 
L 347.144667 204.881747 
L 366.511088 215.134784 
L 386.200284 206.388473 
L 405.351523 201.906427 
L 424.933126 201.361854 
L 444.407139 175.839454 
L 464.096334 198.658538 
" clip-path="url(#pdab682da39)" style="fill: none; stroke-dasharray: 9.6,2.4,1.5,2.4; stroke-dashoffset: 0; stroke: #ff0000; stroke-width: 1.5"/>
   </g>
   <g id="line2d_30">
    <path d="M 132.500162 259.891906 
L 152.081766 230.93698 
L 171.555779 257.431855 
L 191.137383 261.181982 
L 210.288622 252.87021 
L 229.870226 264.013859 
L 249.344238 274.384721 
L 268.925842 290.871 
L 288.507446 255.621213 
L 308.08905 237.366474 
L 327.455472 229.403376 
L 347.144667 218.146026 
L 366.511088 191.520477 
L 386.200284 206.499754 
L 405.351523 254.114923 
L 424.933126 252.613203 
L 444.407139 240.579256 
L 464.096334 287.424782 
" clip-path="url(#pdab682da39)" style="fill: none; stroke-dasharray: 5.55,2.4; stroke-dashoffset: 0; stroke: #ff0000; stroke-width: 1.5"/>
   </g>
   <g id="line2d_31">
    <path d="M 132.500162 226.189841 
L 152.081766 232.097463 
L 171.555779 240.585822 
L 191.137383 240.54809 
L 210.288622 242.162487 
L 229.870226 239.295175 
L 249.344238 238.394392 
L 268.925842 242.146281 
L 288.507446 226.360754 
L 308.08905 238.245518 
L 327.455472 236.996836 
L 347.144667 213.810103 
L 366.511088 210.462329 
L 386.200284 212.071414 
L 405.351523 199.49994 
L 424.933126 228.234448 
L 444.407139 225.638613 
L 464.096334 185.443277 
" clip-path="url(#pdab682da39)" style="fill: none; stroke: #ff0000; stroke-width: 1.5; stroke-linecap: square"/>
   </g>
   <g id="line2d_32">
    <path d="M 132.500162 212.13873 
L 152.081766 224.275342 
L 171.555779 243.019578 
L 191.137383 245.059621 
L 210.288622 242.914203 
L 229.870226 239.989978 
L 249.344238 227.941659 
L 268.925842 226.507588 
L 288.507446 235.929259 
L 308.08905 231.473909 
L 327.455472 223.100449 
L 347.144667 198.447326 
L 366.511088 202.598308 
L 386.200284 205.775009 
L 405.351523 200.255002 
L 424.933126 220.236206 
L 444.407139 211.927646 
L 464.096334 185.656915 
" clip-path="url(#pdab682da39)" style="fill: none; stroke: #ff7f0e; stroke-width: 1.5; stroke-linecap: square"/>
   </g>
   <g id="line2d_33">
    <path d="M 132.500162 220.083221 
L 152.081766 214.386693 
L 171.555779 226.003656 
L 191.137383 229.982926 
L 210.288622 232.813685 
L 229.870226 234.69932 
L 249.344238 225.567516 
L 268.925842 193.574859 
L 288.507446 203.574196 
L 308.08905 204.834518 
L 327.455472 215.773156 
L 347.144667 171.761186 
L 366.511088 188.844439 
L 386.200284 201.296094 
L 405.351523 199.999374 
L 424.933126 219.149101 
L 444.407139 211.574256 
L 464.096334 168.554642 
" clip-path="url(#pdab682da39)" style="fill: none; stroke: #1f77b4; stroke-width: 1.5; stroke-linecap: square"/>
   </g>
   <g id="legend_1">
    <g id="patch_7">
     <path d="M 79.9 151.570875 
L 231.653125 151.570875 
Q 233.653125 151.570875 233.653125 149.570875 
L 233.653125 47.824 
Q 233.653125 45.824 231.653125 45.824 
L 79.9 45.824 
Q 77.9 45.824 77.9 47.824 
L 77.9 149.570875 
Q 77.9 151.570875 79.9 151.570875 
z
" style="fill: #ffffff; opacity: 0.8; stroke: #e6e6e6; stroke-linejoin: miter"/>
    </g>
    <g id="line2d_34">
     <path d="M 81.9 53.922438 
L 91.9 53.922438 
L 101.9 53.922438 
" style="fill: none; stroke: #808080; stroke-width: 1.5; stroke-linecap: square"/>
    </g>
    <g id="text_16">
     <!-- GameStop Log-Volatility -->
     <g transform="translate(109.9 57.422438)scale(0.1 -0.1)">
      <defs>
       <path id="DejaVuSans-47" d="M 3809 666 
L 3809 1919 
L 2778 1919 
L 2778 2438 
L 4434 2438 
L 4434 434 
Q 4069 175 3628 42 
Q 3188 -91 2688 -91 
Q 1594 -91 976 548 
Q 359 1188 359 2328 
Q 359 3472 976 4111 
Q 1594 4750 2688 4750 
Q 3144 4750 3555 4637 
Q 3966 4525 4313 4306 
L 4313 3634 
Q 3963 3931 3569 4081 
Q 3175 4231 2741 4231 
Q 1884 4231 1454 3753 
Q 1025 3275 1025 2328 
Q 1025 1384 1454 906 
Q 1884 428 2741 428 
Q 3075 428 3337 486 
Q 3600 544 3809 666 
z
" transform="scale(0.015625)"/>
       <path id="DejaVuSans-53" d="M 3425 4513 
L 3425 3897 
Q 3066 4069 2747 4153 
Q 2428 4238 2131 4238 
Q 1616 4238 1336 4038 
Q 1056 3838 1056 3469 
Q 1056 3159 1242 3001 
Q 1428 2844 1947 2747 
L 2328 2669 
Q 3034 2534 3370 2195 
Q 3706 1856 3706 1288 
Q 3706 609 3251 259 
Q 2797 -91 1919 -91 
Q 1588 -91 1214 -16 
Q 841 59 441 206 
L 441 856 
Q 825 641 1194 531 
Q 1563 422 1919 422 
Q 2459 422 2753 634 
Q 3047 847 3047 1241 
Q 3047 1584 2836 1778 
Q 2625 1972 2144 2069 
L 1759 2144 
Q 1053 2284 737 2584 
Q 422 2884 422 3419 
Q 422 4038 858 4394 
Q 1294 4750 2059 4750 
Q 2388 4750 2728 4690 
Q 3069 4631 3425 4513 
z
" transform="scale(0.015625)"/>
       <path id="DejaVuSans-70" d="M 1159 525 
L 1159 -1331 
L 581 -1331 
L 581 3500 
L 1159 3500 
L 1159 2969 
Q 1341 3281 1617 3432 
Q 1894 3584 2278 3584 
Q 2916 3584 3314 3078 
Q 3713 2572 3713 1747 
Q 3713 922 3314 415 
Q 2916 -91 2278 -91 
Q 1894 -91 1617 61 
Q 1341 213 1159 525 
z
M 3116 1747 
Q 3116 2381 2855 2742 
Q 2594 3103 2138 3103 
Q 1681 3103 1420 2742 
Q 1159 2381 1159 1747 
Q 1159 1113 1420 752 
Q 1681 391 2138 391 
Q 2594 391 2855 752 
Q 3116 1113 3116 1747 
z
" transform="scale(0.015625)"/>
       <path id="DejaVuSans-4c" d="M 628 4666 
L 1259 4666 
L 1259 531 
L 3531 531 
L 3531 0 
L 628 0 
L 628 4666 
z
" transform="scale(0.015625)"/>
       <path id="DejaVuSans-67" d="M 2906 1791 
Q 2906 2416 2648 2759 
Q 2391 3103 1925 3103 
Q 1463 3103 1205 2759 
Q 947 2416 947 1791 
Q 947 1169 1205 825 
Q 1463 481 1925 481 
Q 2391 481 2648 825 
Q 2906 1169 2906 1791 
z
M 3481 434 
Q 3481 -459 3084 -895 
Q 2688 -1331 1869 -1331 
Q 1566 -1331 1297 -1286 
Q 1028 -1241 775 -1147 
L 775 -588 
Q 1028 -725 1275 -790 
Q 1522 -856 1778 -856 
Q 2344 -856 2625 -561 
Q 2906 -266 2906 331 
L 2906 616 
Q 2728 306 2450 153 
Q 2172 0 1784 0 
Q 1141 0 747 490 
Q 353 981 353 1791 
Q 353 2603 747 3093 
Q 1141 3584 1784 3584 
Q 2172 3584 2450 3431 
Q 2728 3278 2906 2969 
L 2906 3500 
L 3481 3500 
L 3481 434 
z
" transform="scale(0.015625)"/>
      </defs>
      <use xlink:href="#DejaVuSans-47"/>
      <use xlink:href="#DejaVuSans-61" x="77.490234"/>
      <use xlink:href="#DejaVuSans-6d" x="138.769531"/>
      <use xlink:href="#DejaVuSans-65" x="236.181641"/>
      <use xlink:href="#DejaVuSans-53" x="297.705078"/>
      <use xlink:href="#DejaVuSans-74" x="361.181641"/>
      <use xlink:href="#DejaVuSans-6f" x="400.390625"/>
      <use xlink:href="#DejaVuSans-70" x="461.572266"/>
      <use xlink:href="#DejaVuSans-20" x="525.048828"/>
      <use xlink:href="#DejaVuSans-4c" x="556.835938"/>
      <use xlink:href="#DejaVuSans-6f" x="610.798828"/>
      <use xlink:href="#DejaVuSans-67" x="671.980469"/>
      <use xlink:href="#DejaVuSans-2d" x="735.457031"/>
      <use xlink:href="#DejaVuSans-56" x="765.666016"/>
      <use xlink:href="#DejaVuSans-6f" x="826.324219"/>
      <use xlink:href="#DejaVuSans-6c" x="887.505859"/>
      <use xlink:href="#DejaVuSans-61" x="915.289062"/>
      <use xlink:href="#DejaVuSans-74" x="976.568359"/>
      <use xlink:href="#DejaVuSans-69" x="1015.777344"/>
      <use xlink:href="#DejaVuSans-6c" x="1043.560547"/>
      <use xlink:href="#DejaVuSans-69" x="1071.34375"/>
      <use xlink:href="#DejaVuSans-74" x="1099.126953"/>
      <use xlink:href="#DejaVuSans-79" x="1138.335938"/>
     </g>
    </g>
    <g id="line2d_35">
     <path d="M 81.9 68.600563 
L 91.9 68.600563 
L 101.9 68.600563 
" style="fill: none; stroke-dasharray: 1.5,2.475; stroke-dashoffset: 0; stroke: #ff0000; stroke-width: 1.5"/>
    </g>
    <g id="text_17">
     <!-- R/S Hurst -->
     <g transform="translate(109.9 72.100563)scale(0.1 -0.1)">
      <defs>
       <path id="DejaVuSans-52" d="M 2841 2188 
Q 3044 2119 3236 1894 
Q 3428 1669 3622 1275 
L 4263 0 
L 3584 0 
L 2988 1197 
Q 2756 1666 2539 1819 
Q 2322 1972 1947 1972 
L 1259 1972 
L 1259 0 
L 628 0 
L 628 4666 
L 2053 4666 
Q 2853 4666 3247 4331 
Q 3641 3997 3641 3322 
Q 3641 2881 3436 2590 
Q 3231 2300 2841 2188 
z
M 1259 4147 
L 1259 2491 
L 2053 2491 
Q 2509 2491 2742 2702 
Q 2975 2913 2975 3322 
Q 2975 3731 2742 3939 
Q 2509 4147 2053 4147 
L 1259 4147 
z
" transform="scale(0.015625)"/>
       <path id="DejaVuSans-2f" d="M 1625 4666 
L 2156 4666 
L 531 -594 
L 0 -594 
L 1625 4666 
z
" transform="scale(0.015625)"/>
      </defs>
      <use xlink:href="#DejaVuSans-52"/>
      <use xlink:href="#DejaVuSans-2f" x="69.482422"/>
      <use xlink:href="#DejaVuSans-53" x="103.173828"/>
      <use xlink:href="#DejaVuSans-20" x="166.650391"/>
      <use xlink:href="#DejaVuSans-48" x="198.4375"/>
      <use xlink:href="#DejaVuSans-75" x="273.632812"/>
      <use xlink:href="#DejaVuSans-72" x="337.011719"/>
      <use xlink:href="#DejaVuSans-73" x="378.125"/>
      <use xlink:href="#DejaVuSans-74" x="430.224609"/>
     </g>
    </g>
    <g id="line2d_36">
     <path d="M 81.9 83.278687 
L 91.9 83.278687 
L 101.9 83.278687 
" style="fill: none; stroke-dasharray: 9.6,2.4,1.5,2.4; stroke-dashoffset: 0; stroke: #ff0000; stroke-width: 1.5"/>
    </g>
    <g id="text_18">
     <!-- variogram Hurst -->
     <g transform="translate(109.9 86.778687)scale(0.1 -0.1)">
      <defs>
       <path id="DejaVuSans-76" d="M 191 3500 
L 800 3500 
L 1894 563 
L 2988 3500 
L 3597 3500 
L 2284 0 
L 1503 0 
L 191 3500 
z
" transform="scale(0.015625)"/>
      </defs>
      <use xlink:href="#DejaVuSans-76"/>
      <use xlink:href="#DejaVuSans-61" x="59.179688"/>
      <use xlink:href="#DejaVuSans-72" x="120.458984"/>
      <use xlink:href="#DejaVuSans-69" x="161.572266"/>
      <use xlink:href="#DejaVuSans-6f" x="189.355469"/>
      <use xlink:href="#DejaVuSans-67" x="250.537109"/>
      <use xlink:href="#DejaVuSans-72" x="314.013672"/>
      <use xlink:href="#DejaVuSans-61" x="355.126953"/>
      <use xlink:href="#DejaVuSans-6d" x="416.40625"/>
      <use xlink:href="#DejaVuSans-20" x="513.818359"/>
      <use xlink:href="#DejaVuSans-48" x="545.605469"/>
      <use xlink:href="#DejaVuSans-75" x="620.800781"/>
      <use xlink:href="#DejaVuSans-72" x="684.179688"/>
      <use xlink:href="#DejaVuSans-73" x="725.292969"/>
      <use xlink:href="#DejaVuSans-74" x="777.392578"/>
     </g>
    </g>
    <g id="line2d_37">
     <path d="M 81.9 97.956813 
L 91.9 97.956813 
L 101.9 97.956813 
" style="fill: none; stroke-dasharray: 5.55,2.4; stroke-dashoffset: 0; stroke: #ff0000; stroke-width: 1.5"/>
    </g>
    <g id="text_19">
     <!-- Higuchi Hurst -->
     <g transform="translate(109.9 101.456813)scale(0.1 -0.1)">
      <defs>
       <path id="DejaVuSans-63" d="M 3122 3366 
L 3122 2828 
Q 2878 2963 2633 3030 
Q 2388 3097 2138 3097 
Q 1578 3097 1268 2742 
Q 959 2388 959 1747 
Q 959 1106 1268 751 
Q 1578 397 2138 397 
Q 2388 397 2633 464 
Q 2878 531 3122 666 
L 3122 134 
Q 2881 22 2623 -34 
Q 2366 -91 2075 -91 
Q 1284 -91 818 406 
Q 353 903 353 1747 
Q 353 2603 823 3093 
Q 1294 3584 2113 3584 
Q 2378 3584 2631 3529 
Q 2884 3475 3122 3366 
z
" transform="scale(0.015625)"/>
       <path id="DejaVuSans-68" d="M 3513 2113 
L 3513 0 
L 2938 0 
L 2938 2094 
Q 2938 2591 2744 2837 
Q 2550 3084 2163 3084 
Q 1697 3084 1428 2787 
Q 1159 2491 1159 1978 
L 1159 0 
L 581 0 
L 581 4863 
L 1159 4863 
L 1159 2956 
Q 1366 3272 1645 3428 
Q 1925 3584 2291 3584 
Q 2894 3584 3203 3211 
Q 3513 2838 3513 2113 
z
" transform="scale(0.015625)"/>
      </defs>
      <use xlink:href="#DejaVuSans-48"/>
      <use xlink:href="#DejaVuSans-69" x="75.195312"/>
      <use xlink:href="#DejaVuSans-67" x="102.978516"/>
      <use xlink:href="#DejaVuSans-75" x="166.455078"/>
      <use xlink:href="#DejaVuSans-63" x="229.833984"/>
      <use xlink:href="#DejaVuSans-68" x="284.814453"/>
      <use xlink:href="#DejaVuSans-69" x="348.193359"/>
      <use xlink:href="#DejaVuSans-20" x="375.976562"/>
      <use xlink:href="#DejaVuSans-48" x="407.763672"/>
      <use xlink:href="#DejaVuSans-75" x="482.958984"/>
      <use xlink:href="#DejaVuSans-72" x="546.337891"/>
      <use xlink:href="#DejaVuSans-73" x="587.451172"/>
      <use xlink:href="#DejaVuSans-74" x="639.550781"/>
     </g>
    </g>
    <g id="line2d_38">
     <path d="M 81.9 112.634938 
L 91.9 112.634938 
L 101.9 112.634938 
" style="fill: none; stroke: #ff0000; stroke-width: 1.5; stroke-linecap: square"/>
    </g>
    <g id="text_20">
     <!-- Whittle Hurst -->
     <g transform="translate(109.9 116.134938)scale(0.1 -0.1)">
      <defs>
       <path id="DejaVuSans-57" d="M 213 4666 
L 850 4666 
L 1831 722 
L 2809 4666 
L 3519 4666 
L 4500 722 
L 5478 4666 
L 6119 4666 
L 4947 0 
L 4153 0 
L 3169 4050 
L 2175 0 
L 1381 0 
L 213 4666 
z
" transform="scale(0.015625)"/>
      </defs>
      <use xlink:href="#DejaVuSans-57"/>
      <use xlink:href="#DejaVuSans-68" x="98.876953"/>
      <use xlink:href="#DejaVuSans-69" x="162.255859"/>
      <use xlink:href="#DejaVuSans-74" x="190.039062"/>
      <use xlink:href="#DejaVuSans-74" x="229.248047"/>
      <use xlink:href="#DejaVuSans-6c" x="268.457031"/>
      <use xlink:href="#DejaVuSans-65" x="296.240234"/>
      <use xlink:href="#DejaVuSans-20" x="357.763672"/>
      <use xlink:href="#DejaVuSans-48" x="389.550781"/>
      <use xlink:href="#DejaVuSans-75" x="464.746094"/>
      <use xlink:href="#DejaVuSans-72" x="528.125"/>
      <use xlink:href="#DejaVuSans-73" x="569.238281"/>
      <use xlink:href="#DejaVuSans-74" x="621.337891"/>
     </g>
    </g>
    <g id="line2d_39">
     <path d="M 81.9 127.313063 
L 91.9 127.313063 
L 101.9 127.313063 
" style="fill: none; stroke: #ff7f0e; stroke-width: 1.5; stroke-linecap: square"/>
    </g>
    <g id="text_21">
     <!-- 1D CNN Hurst -->
     <g transform="translate(109.9 130.813063)scale(0.1 -0.1)">
      <defs>
       <path id="DejaVuSans-43" d="M 4122 4306 
L 4122 3641 
Q 3803 3938 3442 4084 
Q 3081 4231 2675 4231 
Q 1875 4231 1450 3742 
Q 1025 3253 1025 2328 
Q 1025 1406 1450 917 
Q 1875 428 2675 428 
Q 3081 428 3442 575 
Q 3803 722 4122 1019 
L 4122 359 
Q 3791 134 3420 21 
Q 3050 -91 2638 -91 
Q 1578 -91 968 557 
Q 359 1206 359 2328 
Q 359 3453 968 4101 
Q 1578 4750 2638 4750 
Q 3056 4750 3426 4639 
Q 3797 4528 4122 4306 
z
" transform="scale(0.015625)"/>
       <path id="DejaVuSans-4e" d="M 628 4666 
L 1478 4666 
L 3547 763 
L 3547 4666 
L 4159 4666 
L 4159 0 
L 3309 0 
L 1241 3903 
L 1241 0 
L 628 0 
L 628 4666 
z
" transform="scale(0.015625)"/>
      </defs>
      <use xlink:href="#DejaVuSans-31"/>
      <use xlink:href="#DejaVuSans-44" x="63.623047"/>
      <use xlink:href="#DejaVuSans-20" x="140.625"/>
      <use xlink:href="#DejaVuSans-43" x="172.412109"/>
      <use xlink:href="#DejaVuSans-4e" x="242.236328"/>
      <use xlink:href="#DejaVuSans-4e" x="317.041016"/>
      <use xlink:href="#DejaVuSans-20" x="391.845703"/>
      <use xlink:href="#DejaVuSans-48" x="423.632812"/>
      <use xlink:href="#DejaVuSans-75" x="498.828125"/>
      <use xlink:href="#DejaVuSans-72" x="562.207031"/>
      <use xlink:href="#DejaVuSans-73" x="603.320312"/>
      <use xlink:href="#DejaVuSans-74" x="655.419922"/>
     </g>
    </g>
    <g id="line2d_40">
     <path d="M 81.9 141.991187 
L 91.9 141.991187 
L 101.9 141.991187 
" style="fill: none; stroke: #1f77b4; stroke-width: 1.5; stroke-linecap: square"/>
    </g>
    <g id="text_22">
     <!-- LSTM Hurst -->
     <g transform="translate(109.9 145.491187)scale(0.1 -0.1)">
      <defs>
       <path id="DejaVuSans-54" d="M -19 4666 
L 3928 4666 
L 3928 4134 
L 2272 4134 
L 2272 0 
L 1638 0 
L 1638 4134 
L -19 4134 
L -19 4666 
z
" transform="scale(0.015625)"/>
       <path id="DejaVuSans-4d" d="M 628 4666 
L 1569 4666 
L 2759 1491 
L 3956 4666 
L 4897 4666 
L 4897 0 
L 4281 0 
L 4281 4097 
L 3078 897 
L 2444 897 
L 1241 4097 
L 1241 0 
L 628 0 
L 628 4666 
z
" transform="scale(0.015625)"/>
      </defs>
      <use xlink:href="#DejaVuSans-4c"/>
      <use xlink:href="#DejaVuSans-53" x="55.712891"/>
      <use xlink:href="#DejaVuSans-54" x="119.189453"/>
      <use xlink:href="#DejaVuSans-4d" x="180.273438"/>
      <use xlink:href="#DejaVuSans-20" x="266.552734"/>
      <use xlink:href="#DejaVuSans-48" x="298.339844"/>
      <use xlink:href="#DejaVuSans-75" x="373.535156"/>
      <use xlink:href="#DejaVuSans-72" x="436.914062"/>
      <use xlink:href="#DejaVuSans-73" x="478.027344"/>
      <use xlink:href="#DejaVuSans-74" x="530.126953"/>
     </g>
    </g>
   </g>
  </g>
 </g>
 <defs>
  <clipPath id="pdab682da39">
   <rect x="72.9" y="40.824" width="451.98" height="261.954"/>
  </clipPath>
 </defs>
</svg>
