<?xml version="1.0" encoding="utf-8" standalone="no"?>
<!DOCTYPE svg PUBLIC "-//W3C//DTD SVG 1.1//EN"
  "http://www.w3.org/Graphics/SVG/1.1/DTD/svg11.dtd">
<svg xmlns:xlink="http://www.w3.org/1999/xlink" width="583.2pt" height="340.2pt" viewBox="0 0 583.2 340.2" xmlns="http://www.w3.org/2000/svg" version="1.1">
 <metadata>
  <rdf:RDF xmlns:dc="http://purl.org/dc/elements/1.1/" xmlns:cc="http://creativecommons.org/ns#" xmlns:rdf="http://www.w3.org/1999/02/22-rdf-syntax-ns#">
   <cc:Work>
    <dc:type rdf:resource="http://purl.org/dc/dcmitype/StillImage"/>
    <dc:date>2024-07-05T18:25:15.831720</dc:date>
    <dc:format>image/svg+xml</dc:format>
    <dc:creator>
     <cc:Agent>
      <dc:title>Matplotlib v3.5.1, https://matplotlib.org/</dc:title>
     </cc:Agent>
    </dc:creator>
   </cc:Work>
  </rdf:RDF>
 </metadata>
 <defs>
  <style type="text/css">*{stroke-linejoin: round; stroke-linecap: butt}</style>
 </defs>
 <g id="figure_1">
  <g id="patch_1">
   <path d="M 0 340.2 
L 583.2 340.2 
L 583.2 0 
L 0 0 
z
" style="fill: #ffffff"/>
  </g>
  <g id="axes_1">
   <g id="patch_2">
    <path d="M 72.9 302.778 
L 524.88 302.778 
L 524.88 40.824 
L 72.9 40.824 
L 72.9 302.778 
z
" style="fill: none; opacity: 0"/>
   </g>
   <g id="matplotlib.axis_1">
    <g id="xtick_1">
     <g id="line2d_1">
      <path d="M 89.874403 302.778 
L 89.874403 40.824 
" clip-path="url(#p81c1154167)" style="fill: none; stroke: #e6e6e6; stroke-width: 0.8; stroke-linecap: square"/>
     </g>
     <g id="line2d_2">
      <defs>
       <path id="m3af9db0b97" d="M 0 0 
L 0 3.5 
" style="stroke: #000000; stroke-width: 0.8"/>
      </defs>
      <g>
       <use xlink:href="#m3af9db0b97" x="89.874403" y="302.778" style="stroke: #000000; stroke-width: 0.8"/>
      </g>
     </g>
     <g id="text_1">
      <!-- 2014 -->
      <g transform="translate(77.149403 317.376438)scale(0.1 -0.1)">
       <defs>
        <path id="DejaVuSans-32" d="M 1228 531 
L 3431 531 
L 3431 0 
L 469 0 
L 469 531 
Q 828 903 1448 1529 
Q 2069 2156 2228 2338 
Q 2531 2678 2651 2914 
Q 2772 3150 2772 3378 
Q 2772 3750 2511 3984 
Q 2250 4219 1831 4219 
Q 1534 4219 1204 4116 
Q 875 4013 500 3803 
L 500 4441 
Q 881 4594 1212 4672 
Q 1544 4750 1819 4750 
Q 2544 4750 2975 4387 
Q 3406 4025 3406 3419 
Q 3406 3131 3298 2873 
Q 3191 2616 2906 2266 
Q 2828 2175 2409 1742 
Q 1991 1309 1228 531 
z
" transform="scale(0.015625)"/>
        <path id="DejaVuSans-30" d="M 2034 4250 
Q 1547 4250 1301 3770 
Q 1056 3291 1056 2328 
Q 1056 1369 1301 889 
Q 1547 409 2034 409 
Q 2525 409 2770 889 
Q 3016 1369 3016 2328 
Q 3016 3291 2770 3770 
Q 2525 4250 2034 4250 
z
M 2034 4750 
Q 2819 4750 3233 4129 
Q 3647 3509 3647 2328 
Q 3647 1150 3233 529 
Q 2819 -91 2034 -91 
Q 1250 -91 836 529 
Q 422 1150 422 2328 
Q 422 3509 836 4129 
Q 1250 4750 2034 4750 
z
" transform="scale(0.015625)"/>
        <path id="DejaVuSans-31" d="M 794 531 
L 1825 531 
L 1825 4091 
L 703 3866 
L 703 4441 
L 1819 4666 
L 2450 4666 
L 2450 531 
L 3481 531 
L 3481 0 
L 794 0 
L 794 531 
z
" transform="scale(0.015625)"/>
        <path id="DejaVuSans-34" d="M 2419 4116 
L 825 1625 
L 2419 1625 
L 2419 4116 
z
M 2253 4666 
L 3047 4666 
L 3047 1625 
L 3713 1625 
L 3713 1100 
L 3047 1100 
L 3047 0 
L 2419 0 
L 2419 1100 
L 313 1100 
L 313 1709 
L 2253 4666 
z
" transform="scale(0.015625)"/>
       </defs>
       <use xlink:href="#DejaVuSans-32"/>
       <use xlink:href="#DejaVuSans-30" x="63.623047"/>
       <use xlink:href="#DejaVuSans-31" x="127.246094"/>
       <use xlink:href="#DejaVuSans-34" x="190.869141"/>
      </g>
     </g>
    </g>
    <g id="xtick_2">
     <g id="line2d_3">
      <path d="M 168.850276 302.778 
L 168.850276 40.824 
" clip-path="url(#p81c1154167)" style="fill: none; stroke: #e6e6e6; stroke-width: 0.8; stroke-linecap: square"/>
     </g>
     <g id="line2d_4">
      <g>
       <use xlink:href="#m3af9db0b97" x="168.850276" y="302.778" style="stroke: #000000; stroke-width: 0.8"/>
      </g>
     </g>
     <g id="text_2">
      <!-- 2016 -->
      <g transform="translate(156.125276 317.376438)scale(0.1 -0.1)">
       <defs>
        <path id="DejaVuSans-36" d="M 2113 2584 
Q 1688 2584 1439 2293 
Q 1191 2003 1191 1497 
Q 1191 994 1439 701 
Q 1688 409 2113 409 
Q 2538 409 2786 701 
Q 3034 994 3034 1497 
Q 3034 2003 2786 2293 
Q 2538 2584 2113 2584 
z
M 3366 4563 
L 3366 3988 
Q 3128 4100 2886 4159 
Q 2644 4219 2406 4219 
Q 1781 4219 1451 3797 
Q 1122 3375 1075 2522 
Q 1259 2794 1537 2939 
Q 1816 3084 2150 3084 
Q 2853 3084 3261 2657 
Q 3669 2231 3669 1497 
Q 3669 778 3244 343 
Q 2819 -91 2113 -91 
Q 1303 -91 875 529 
Q 447 1150 447 2328 
Q 447 3434 972 4092 
Q 1497 4750 2381 4750 
Q 2619 4750 2861 4703 
Q 3103 4656 3366 4563 
z
" transform="scale(0.015625)"/>
       </defs>
       <use xlink:href="#DejaVuSans-32"/>
       <use xlink:href="#DejaVuSans-30" x="63.623047"/>
       <use xlink:href="#DejaVuSans-31" x="127.246094"/>
       <use xlink:href="#DejaVuSans-36" x="190.869141"/>
      </g>
     </g>
    </g>
    <g id="xtick_3">
     <g id="line2d_5">
      <path d="M 247.934334 302.778 
L 247.934334 40.824 
" clip-path="url(#p81c1154167)" style="fill: none; stroke: #e6e6e6; stroke-width: 0.8; stroke-linecap: square"/>
     </g>
     <g id="line2d_6">
      <g>
       <use xlink:href="#m3af9db0b97" x="247.934334" y="302.778" style="stroke: #000000; stroke-width: 0.8"/>
      </g>
     </g>
     <g id="text_3">
      <!-- 2018 -->
      <g transform="translate(235.209334 317.376438)scale(0.1 -0.1)">
       <defs>
        <path id="DejaVuSans-38" d="M 2034 2216 
Q 1584 2216 1326 1975 
Q 1069 1734 1069 1313 
Q 1069 891 1326 650 
Q 1584 409 2034 409 
Q 2484 409 2743 651 
Q 3003 894 3003 1313 
Q 3003 1734 2745 1975 
Q 2488 2216 2034 2216 
z
M 1403 2484 
Q 997 2584 770 2862 
Q 544 3141 544 3541 
Q 544 4100 942 4425 
Q 1341 4750 2034 4750 
Q 2731 4750 3128 4425 
Q 3525 4100 3525 3541 
Q 3525 3141 3298 2862 
Q 3072 2584 2669 2484 
Q 3125 2378 3379 2068 
Q 3634 1759 3634 1313 
Q 3634 634 3220 271 
Q 2806 -91 2034 -91 
Q 1263 -91 848 271 
Q 434 634 434 1313 
Q 434 1759 690 2068 
Q 947 2378 1403 2484 
z
M 1172 3481 
Q 1172 3119 1398 2916 
Q 1625 2713 2034 2713 
Q 2441 2713 2670 2916 
Q 2900 3119 2900 3481 
Q 2900 3844 2670 4047 
Q 2441 4250 2034 4250 
Q 1625 4250 1398 4047 
Q 1172 3844 1172 3481 
z
" transform="scale(0.015625)"/>
       </defs>
       <use xlink:href="#DejaVuSans-32"/>
       <use xlink:href="#DejaVuSans-30" x="63.623047"/>
       <use xlink:href="#DejaVuSans-31" x="127.246094"/>
       <use xlink:href="#DejaVuSans-38" x="190.869141"/>
      </g>
     </g>
    </g>
    <g id="xtick_4">
     <g id="line2d_7">
      <path d="M 326.910207 302.778 
L 326.910207 40.824 
" clip-path="url(#p81c1154167)" style="fill: none; stroke: #e6e6e6; stroke-width: 0.8; stroke-linecap: square"/>
     </g>
     <g id="line2d_8">
      <g>
       <use xlink:href="#m3af9db0b97" x="326.910207" y="302.778" style="stroke: #000000; stroke-width: 0.8"/>
      </g>
     </g>
     <g id="text_4">
      <!-- 2020 -->
      <g transform="translate(314.185207 317.376438)scale(0.1 -0.1)">
       <use xlink:href="#DejaVuSans-32"/>
       <use xlink:href="#DejaVuSans-30" x="63.623047"/>
       <use xlink:href="#DejaVuSans-32" x="127.246094"/>
       <use xlink:href="#DejaVuSans-30" x="190.869141"/>
      </g>
     </g>
    </g>
    <g id="xtick_5">
     <g id="line2d_9">
      <path d="M 405.994265 302.778 
L 405.994265 40.824 
" clip-path="url(#p81c1154167)" style="fill: none; stroke: #e6e6e6; stroke-width: 0.8; stroke-linecap: square"/>
     </g>
     <g id="line2d_10">
      <g>
       <use xlink:href="#m3af9db0b97" x="405.994265" y="302.778" style="stroke: #000000; stroke-width: 0.8"/>
      </g>
     </g>
     <g id="text_5">
      <!-- 2022 -->
      <g transform="translate(393.269265 317.376438)scale(0.1 -0.1)">
       <use xlink:href="#DejaVuSans-32"/>
       <use xlink:href="#DejaVuSans-30" x="63.623047"/>
       <use xlink:href="#DejaVuSans-32" x="127.246094"/>
       <use xlink:href="#DejaVuSans-32" x="190.869141"/>
      </g>
     </g>
    </g>
    <g id="xtick_6">
     <g id="line2d_11">
      <path d="M 484.970138 302.778 
L 484.970138 40.824 
" clip-path="url(#p81c1154167)" style="fill: none; stroke: #e6e6e6; stroke-width: 0.8; stroke-linecap: square"/>
     </g>
     <g id="line2d_12">
      <g>
       <use xlink:href="#m3af9db0b97" x="484.970138" y="302.778" style="stroke: #000000; stroke-width: 0.8"/>
      </g>
     </g>
     <g id="text_6">
      <!-- 2024 -->
      <g transform="translate(472.245138 317.376438)scale(0.1 -0.1)">
       <use xlink:href="#DejaVuSans-32"/>
       <use xlink:href="#DejaVuSans-30" x="63.623047"/>
       <use xlink:href="#DejaVuSans-32" x="127.246094"/>
       <use xlink:href="#DejaVuSans-34" x="190.869141"/>
      </g>
     </g>
    </g>
    <g id="text_7">
     <!-- Date -->
     <g transform="translate(286.939219 331.054562)scale(0.1 -0.1)">
      <defs>
       <path id="DejaVuSans-44" d="M 1259 4147 
L 1259 519 
L 2022 519 
Q 2988 519 3436 956 
Q 3884 1394 3884 2338 
Q 3884 3275 3436 3711 
Q 2988 4147 2022 4147 
L 1259 4147 
z
M 628 4666 
L 1925 4666 
Q 3281 4666 3915 4102 
Q 4550 3538 4550 2338 
Q 4550 1131 3912 565 
Q 3275 0 1925 0 
L 628 0 
L 628 4666 
z
" transform="scale(0.015625)"/>
       <path id="DejaVuSans-61" d="M 2194 1759 
Q 1497 1759 1228 1600 
Q 959 1441 959 1056 
Q 959 750 1161 570 
Q 1363 391 1709 391 
Q 2188 391 2477 730 
Q 2766 1069 2766 1631 
L 2766 1759 
L 2194 1759 
z
M 3341 1997 
L 3341 0 
L 2766 0 
L 2766 531 
Q 2569 213 2275 61 
Q 1981 -91 1556 -91 
Q 1019 -91 701 211 
Q 384 513 384 1019 
Q 384 1609 779 1909 
Q 1175 2209 1959 2209 
L 2766 2209 
L 2766 2266 
Q 2766 2663 2505 2880 
Q 2244 3097 1772 3097 
Q 1472 3097 1187 3025 
Q 903 2953 641 2809 
L 641 3341 
Q 956 3463 1253 3523 
Q 1550 3584 1831 3584 
Q 2591 3584 2966 3190 
Q 3341 2797 3341 1997 
z
" transform="scale(0.015625)"/>
       <path id="DejaVuSans-74" d="M 1172 4494 
L 1172 3500 
L 2356 3500 
L 2356 3053 
L 1172 3053 
L 1172 1153 
Q 1172 725 1289 603 
Q 1406 481 1766 481 
L 2356 481 
L 2356 0 
L 1766 0 
Q 1100 0 847 248 
Q 594 497 594 1153 
L 594 3053 
L 172 3053 
L 172 3500 
L 594 3500 
L 594 4494 
L 1172 4494 
z
" transform="scale(0.015625)"/>
       <path id="DejaVuSans-65" d="M 3597 1894 
L 3597 1613 
L 953 1613 
Q 991 1019 1311 708 
Q 1631 397 2203 397 
Q 2534 397 2845 478 
Q 3156 559 3463 722 
L 3463 178 
Q 3153 47 2828 -22 
Q 2503 -91 2169 -91 
Q 1331 -91 842 396 
Q 353 884 353 1716 
Q 353 2575 817 3079 
Q 1281 3584 2069 3584 
Q 2775 3584 3186 3129 
Q 3597 2675 3597 1894 
z
M 3022 2063 
Q 3016 2534 2758 2815 
Q 2500 3097 2075 3097 
Q 1594 3097 1305 2825 
Q 1016 2553 972 2059 
L 3022 2063 
z
" transform="scale(0.015625)"/>
      </defs>
      <use xlink:href="#DejaVuSans-44"/>
      <use xlink:href="#DejaVuSans-61" x="77.001953"/>
      <use xlink:href="#DejaVuSans-74" x="138.28125"/>
      <use xlink:href="#DejaVuSans-65" x="177.490234"/>
     </g>
    </g>
   </g>
   <g id="matplotlib.axis_2">
    <g id="ytick_1">
     <g id="line2d_13">
      <path d="M 72.9 296.100798 
L 524.88 296.100798 
" clip-path="url(#p81c1154167)" style="fill: none; stroke: #e6e6e6; stroke-width: 0.8; stroke-linecap: square"/>
     </g>
     <g id="line2d_14">
      <defs>
       <path id="mb50e295931" d="M 0 0 
L -3.5 0 
" style="stroke: #000000; stroke-width: 0.8"/>
      </defs>
      <g>
       <use xlink:href="#mb50e295931" x="72.9" y="296.100798" style="stroke: #000000; stroke-width: 0.8"/>
      </g>
     </g>
     <g id="text_8">
      <!-- 0.00 -->
      <g transform="translate(43.634375 299.900017)scale(0.1 -0.1)">
       <defs>
        <path id="DejaVuSans-2e" d="M 684 794 
L 1344 794 
L 1344 0 
L 684 0 
L 684 794 
z
" transform="scale(0.015625)"/>
       </defs>
       <use xlink:href="#DejaVuSans-30"/>
       <use xlink:href="#DejaVuSans-2e" x="63.623047"/>
       <use xlink:href="#DejaVuSans-30" x="95.410156"/>
       <use xlink:href="#DejaVuSans-30" x="159.033203"/>
      </g>
     </g>
    </g>
    <g id="ytick_2">
     <g id="line2d_15">
      <path d="M 72.9 265.049818 
L 524.88 265.049818 
" clip-path="url(#p81c1154167)" style="fill: none; stroke: #e6e6e6; stroke-width: 0.8; stroke-linecap: square"/>
     </g>
     <g id="line2d_16">
      <g>
       <use xlink:href="#mb50e295931" x="72.9" y="265.049818" style="stroke: #000000; stroke-width: 0.8"/>
      </g>
     </g>
     <g id="text_9">
      <!-- 0.25 -->
      <g transform="translate(43.634375 268.849037)scale(0.1 -0.1)">
       <defs>
        <path id="DejaVuSans-35" d="M 691 4666 
L 3169 4666 
L 3169 4134 
L 1269 4134 
L 1269 2991 
Q 1406 3038 1543 3061 
Q 1681 3084 1819 3084 
Q 2600 3084 3056 2656 
Q 3513 2228 3513 1497 
Q 3513 744 3044 326 
Q 2575 -91 1722 -91 
Q 1428 -91 1123 -41 
Q 819 9 494 109 
L 494 744 
Q 775 591 1075 516 
Q 1375 441 1709 441 
Q 2250 441 2565 725 
Q 2881 1009 2881 1497 
Q 2881 1984 2565 2268 
Q 2250 2553 1709 2553 
Q 1456 2553 1204 2497 
Q 953 2441 691 2322 
L 691 4666 
z
" transform="scale(0.015625)"/>
       </defs>
       <use xlink:href="#DejaVuSans-30"/>
       <use xlink:href="#DejaVuSans-2e" x="63.623047"/>
       <use xlink:href="#DejaVuSans-32" x="95.410156"/>
       <use xlink:href="#DejaVuSans-35" x="159.033203"/>
      </g>
     </g>
    </g>
    <g id="ytick_3">
     <g id="line2d_17">
      <path d="M 72.9 233.998838 
L 524.88 233.998838 
" clip-path="url(#p81c1154167)" style="fill: none; stroke: #e6e6e6; stroke-width: 0.8; stroke-linecap: square"/>
     </g>
     <g id="line2d_18">
      <g>
       <use xlink:href="#mb50e295931" x="72.9" y="233.998838" style="stroke: #000000; stroke-width: 0.8"/>
      </g>
     </g>
     <g id="text_10">
      <!-- 0.50 -->
      <g transform="translate(43.634375 237.798057)scale(0.1 -0.1)">
       <use xlink:href="#DejaVuSans-30"/>
       <use xlink:href="#DejaVuSans-2e" x="63.623047"/>
       <use xlink:href="#DejaVuSans-35" x="95.410156"/>
       <use xlink:href="#DejaVuSans-30" x="159.033203"/>
      </g>
     </g>
    </g>
    <g id="ytick_4">
     <g id="line2d_19">
      <path d="M 72.9 202.947858 
L 524.88 202.947858 
" clip-path="url(#p81c1154167)" style="fill: none; stroke: #e6e6e6; stroke-width: 0.8; stroke-linecap: square"/>
     </g>
     <g id="line2d_20">
      <g>
       <use xlink:href="#mb50e295931" x="72.9" y="202.947858" style="stroke: #000000; stroke-width: 0.8"/>
      </g>
     </g>
     <g id="text_11">
      <!-- 0.75 -->
      <g transform="translate(43.634375 206.747077)scale(0.1 -0.1)">
       <defs>
        <path id="DejaVuSans-37" d="M 525 4666 
L 3525 4666 
L 3525 4397 
L 1831 0 
L 1172 0 
L 2766 4134 
L 525 4134 
L 525 4666 
z
" transform="scale(0.015625)"/>
       </defs>
       <use xlink:href="#DejaVuSans-30"/>
       <use xlink:href="#DejaVuSans-2e" x="63.623047"/>
       <use xlink:href="#DejaVuSans-37" x="95.410156"/>
       <use xlink:href="#DejaVuSans-35" x="159.033203"/>
      </g>
     </g>
    </g>
    <g id="ytick_5">
     <g id="line2d_21">
      <path d="M 72.9 171.896878 
L 524.88 171.896878 
" clip-path="url(#p81c1154167)" style="fill: none; stroke: #e6e6e6; stroke-width: 0.8; stroke-linecap: square"/>
     </g>
     <g id="line2d_22">
      <g>
       <use xlink:href="#mb50e295931" x="72.9" y="171.896878" style="stroke: #000000; stroke-width: 0.8"/>
      </g>
     </g>
     <g id="text_12">
      <!-- 1.00 -->
      <g transform="translate(43.634375 175.696097)scale(0.1 -0.1)">
       <use xlink:href="#DejaVuSans-31"/>
       <use xlink:href="#DejaVuSans-2e" x="63.623047"/>
       <use xlink:href="#DejaVuSans-30" x="95.410156"/>
       <use xlink:href="#DejaVuSans-30" x="159.033203"/>
      </g>
     </g>
    </g>
    <g id="ytick_6">
     <g id="line2d_23">
      <path d="M 72.9 140.845898 
L 524.88 140.845898 
" clip-path="url(#p81c1154167)" style="fill: none; stroke: #e6e6e6; stroke-width: 0.8; stroke-linecap: square"/>
     </g>
     <g id="line2d_24">
      <g>
       <use xlink:href="#mb50e295931" x="72.9" y="140.845898" style="stroke: #000000; stroke-width: 0.8"/>
      </g>
     </g>
     <g id="text_13">
      <!-- 1.25 -->
      <g transform="translate(43.634375 144.645117)scale(0.1 -0.1)">
       <use xlink:href="#DejaVuSans-31"/>
       <use xlink:href="#DejaVuSans-2e" x="63.623047"/>
       <use xlink:href="#DejaVuSans-32" x="95.410156"/>
       <use xlink:href="#DejaVuSans-35" x="159.033203"/>
      </g>
     </g>
    </g>
    <g id="ytick_7">
     <g id="line2d_25">
      <path d="M 72.9 109.794918 
L 524.88 109.794918 
" clip-path="url(#p81c1154167)" style="fill: none; stroke: #e6e6e6; stroke-width: 0.8; stroke-linecap: square"/>
     </g>
     <g id="line2d_26">
      <g>
       <use xlink:href="#mb50e295931" x="72.9" y="109.794918" style="stroke: #000000; stroke-width: 0.8"/>
      </g>
     </g>
     <g id="text_14">
      <!-- 1.50 -->
      <g transform="translate(43.634375 113.594137)scale(0.1 -0.1)">
       <use xlink:href="#DejaVuSans-31"/>
       <use xlink:href="#DejaVuSans-2e" x="63.623047"/>
       <use xlink:href="#DejaVuSans-35" x="95.410156"/>
       <use xlink:href="#DejaVuSans-30" x="159.033203"/>
      </g>
     </g>
    </g>
    <g id="ytick_8">
     <g id="line2d_27">
      <path d="M 72.9 78.743938 
L 524.88 78.743938 
" clip-path="url(#p81c1154167)" style="fill: none; stroke: #e6e6e6; stroke-width: 0.8; stroke-linecap: square"/>
     </g>
     <g id="line2d_28">
      <g>
       <use xlink:href="#mb50e295931" x="72.9" y="78.743938" style="stroke: #000000; stroke-width: 0.8"/>
      </g>
     </g>
     <g id="text_15">
      <!-- 1.75 -->
      <g transform="translate(43.634375 82.543157)scale(0.1 -0.1)">
       <use xlink:href="#DejaVuSans-31"/>
       <use xlink:href="#DejaVuSans-2e" x="63.623047"/>
       <use xlink:href="#DejaVuSans-37" x="95.410156"/>
       <use xlink:href="#DejaVuSans-35" x="159.033203"/>
      </g>
     </g>
    </g>
    <g id="ytick_9">
     <g id="line2d_29">
      <path d="M 72.9 47.692958 
L 524.88 47.692958 
" clip-path="url(#p81c1154167)" style="fill: none; stroke: #e6e6e6; stroke-width: 0.8; stroke-linecap: square"/>
     </g>
     <g id="line2d_30">
      <g>
       <use xlink:href="#mb50e295931" x="72.9" y="47.692958" style="stroke: #000000; stroke-width: 0.8"/>
      </g>
     </g>
     <g id="text_16">
      <!-- 2.00 -->
      <g transform="translate(43.634375 51.492177)scale(0.1 -0.1)">
       <use xlink:href="#DejaVuSans-32"/>
       <use xlink:href="#DejaVuSans-2e" x="63.623047"/>
       <use xlink:href="#DejaVuSans-30" x="95.410156"/>
       <use xlink:href="#DejaVuSans-30" x="159.033203"/>
      </g>
     </g>
    </g>
    <g id="text_17">
     <!-- Volatility and Hurst-estimate -->
     <g transform="translate(37.554687 243.333031)rotate(-90)scale(0.1 -0.1)">
      <defs>
       <path id="DejaVuSans-56" d="M 1831 0 
L 50 4666 
L 709 4666 
L 2188 738 
L 3669 4666 
L 4325 4666 
L 2547 0 
L 1831 0 
z
" transform="scale(0.015625)"/>
       <path id="DejaVuSans-6f" d="M 1959 3097 
Q 1497 3097 1228 2736 
Q 959 2375 959 1747 
Q 959 1119 1226 758 
Q 1494 397 1959 397 
Q 2419 397 2687 759 
Q 2956 1122 2956 1747 
Q 2956 2369 2687 2733 
Q 2419 3097 1959 3097 
z
M 1959 3584 
Q 2709 3584 3137 3096 
Q 3566 2609 3566 1747 
Q 3566 888 3137 398 
Q 2709 -91 1959 -91 
Q 1206 -91 779 398 
Q 353 888 353 1747 
Q 353 2609 779 3096 
Q 1206 3584 1959 3584 
z
" transform="scale(0.015625)"/>
       <path id="DejaVuSans-6c" d="M 603 4863 
L 1178 4863 
L 1178 0 
L 603 0 
L 603 4863 
z
" transform="scale(0.015625)"/>
       <path id="DejaVuSans-69" d="M 603 3500 
L 1178 3500 
L 1178 0 
L 603 0 
L 603 3500 
z
M 603 4863 
L 1178 4863 
L 1178 4134 
L 603 4134 
L 603 4863 
z
" transform="scale(0.015625)"/>
       <path id="DejaVuSans-79" d="M 2059 -325 
Q 1816 -950 1584 -1140 
Q 1353 -1331 966 -1331 
L 506 -1331 
L 506 -850 
L 844 -850 
Q 1081 -850 1212 -737 
Q 1344 -625 1503 -206 
L 1606 56 
L 191 3500 
L 800 3500 
L 1894 763 
L 2988 3500 
L 3597 3500 
L 2059 -325 
z
" transform="scale(0.015625)"/>
       <path id="DejaVuSans-20" transform="scale(0.015625)"/>
       <path id="DejaVuSans-6e" d="M 3513 2113 
L 3513 0 
L 2938 0 
L 2938 2094 
Q 2938 2591 2744 2837 
Q 2550 3084 2163 3084 
Q 1697 3084 1428 2787 
Q 1159 2491 1159 1978 
L 1159 0 
L 581 0 
L 581 3500 
L 1159 3500 
L 1159 2956 
Q 1366 3272 1645 3428 
Q 1925 3584 2291 3584 
Q 2894 3584 3203 3211 
Q 3513 2838 3513 2113 
z
" transform="scale(0.015625)"/>
       <path id="DejaVuSans-64" d="M 2906 2969 
L 2906 4863 
L 3481 4863 
L 3481 0 
L 2906 0 
L 2906 525 
Q 2725 213 2448 61 
Q 2172 -91 1784 -91 
Q 1150 -91 751 415 
Q 353 922 353 1747 
Q 353 2572 751 3078 
Q 1150 3584 1784 3584 
Q 2172 3584 2448 3432 
Q 2725 3281 2906 2969 
z
M 947 1747 
Q 947 1113 1208 752 
Q 1469 391 1925 391 
Q 2381 391 2643 752 
Q 2906 1113 2906 1747 
Q 2906 2381 2643 2742 
Q 2381 3103 1925 3103 
Q 1469 3103 1208 2742 
Q 947 2381 947 1747 
z
" transform="scale(0.015625)"/>
       <path id="DejaVuSans-48" d="M 628 4666 
L 1259 4666 
L 1259 2753 
L 3553 2753 
L 3553 4666 
L 4184 4666 
L 4184 0 
L 3553 0 
L 3553 2222 
L 1259 2222 
L 1259 0 
L 628 0 
L 628 4666 
z
" transform="scale(0.015625)"/>
       <path id="DejaVuSans-75" d="M 544 1381 
L 544 3500 
L 1119 3500 
L 1119 1403 
Q 1119 906 1312 657 
Q 1506 409 1894 409 
Q 2359 409 2629 706 
Q 2900 1003 2900 1516 
L 2900 3500 
L 3475 3500 
L 3475 0 
L 2900 0 
L 2900 538 
Q 2691 219 2414 64 
Q 2138 -91 1772 -91 
Q 1169 -91 856 284 
Q 544 659 544 1381 
z
M 1991 3584 
L 1991 3584 
z
" transform="scale(0.015625)"/>
       <path id="DejaVuSans-72" d="M 2631 2963 
Q 2534 3019 2420 3045 
Q 2306 3072 2169 3072 
Q 1681 3072 1420 2755 
Q 1159 2438 1159 1844 
L 1159 0 
L 581 0 
L 581 3500 
L 1159 3500 
L 1159 2956 
Q 1341 3275 1631 3429 
Q 1922 3584 2338 3584 
Q 2397 3584 2469 3576 
Q 2541 3569 2628 3553 
L 2631 2963 
z
" transform="scale(0.015625)"/>
       <path id="DejaVuSans-73" d="M 2834 3397 
L 2834 2853 
Q 2591 2978 2328 3040 
Q 2066 3103 1784 3103 
Q 1356 3103 1142 2972 
Q 928 2841 928 2578 
Q 928 2378 1081 2264 
Q 1234 2150 1697 2047 
L 1894 2003 
Q 2506 1872 2764 1633 
Q 3022 1394 3022 966 
Q 3022 478 2636 193 
Q 2250 -91 1575 -91 
Q 1294 -91 989 -36 
Q 684 19 347 128 
L 347 722 
Q 666 556 975 473 
Q 1284 391 1588 391 
Q 1994 391 2212 530 
Q 2431 669 2431 922 
Q 2431 1156 2273 1281 
Q 2116 1406 1581 1522 
L 1381 1569 
Q 847 1681 609 1914 
Q 372 2147 372 2553 
Q 372 3047 722 3315 
Q 1072 3584 1716 3584 
Q 2034 3584 2315 3537 
Q 2597 3491 2834 3397 
z
" transform="scale(0.015625)"/>
       <path id="DejaVuSans-2d" d="M 313 2009 
L 1997 2009 
L 1997 1497 
L 313 1497 
L 313 2009 
z
" transform="scale(0.015625)"/>
       <path id="DejaVuSans-6d" d="M 3328 2828 
Q 3544 3216 3844 3400 
Q 4144 3584 4550 3584 
Q 5097 3584 5394 3201 
Q 5691 2819 5691 2113 
L 5691 0 
L 5113 0 
L 5113 2094 
Q 5113 2597 4934 2840 
Q 4756 3084 4391 3084 
Q 3944 3084 3684 2787 
Q 3425 2491 3425 1978 
L 3425 0 
L 2847 0 
L 2847 2094 
Q 2847 2600 2669 2842 
Q 2491 3084 2119 3084 
Q 1678 3084 1418 2786 
Q 1159 2488 1159 1978 
L 1159 0 
L 581 0 
L 581 3500 
L 1159 3500 
L 1159 2956 
Q 1356 3278 1631 3431 
Q 1906 3584 2284 3584 
Q 2666 3584 2933 3390 
Q 3200 3197 3328 2828 
z
" transform="scale(0.015625)"/>
      </defs>
      <use xlink:href="#DejaVuSans-56"/>
      <use xlink:href="#DejaVuSans-6f" x="60.658203"/>
      <use xlink:href="#DejaVuSans-6c" x="121.839844"/>
      <use xlink:href="#DejaVuSans-61" x="149.623047"/>
      <use xlink:href="#DejaVuSans-74" x="210.902344"/>
      <use xlink:href="#DejaVuSans-69" x="250.111328"/>
      <use xlink:href="#DejaVuSans-6c" x="277.894531"/>
      <use xlink:href="#DejaVuSans-69" x="305.677734"/>
      <use xlink:href="#DejaVuSans-74" x="333.460938"/>
      <use xlink:href="#DejaVuSans-79" x="372.669922"/>
      <use xlink:href="#DejaVuSans-20" x="431.849609"/>
      <use xlink:href="#DejaVuSans-61" x="463.636719"/>
      <use xlink:href="#DejaVuSans-6e" x="524.916016"/>
      <use xlink:href="#DejaVuSans-64" x="588.294922"/>
      <use xlink:href="#DejaVuSans-20" x="651.771484"/>
      <use xlink:href="#DejaVuSans-48" x="683.558594"/>
      <use xlink:href="#DejaVuSans-75" x="758.753906"/>
      <use xlink:href="#DejaVuSans-72" x="822.132812"/>
      <use xlink:href="#DejaVuSans-73" x="863.246094"/>
      <use xlink:href="#DejaVuSans-74" x="915.345703"/>
      <use xlink:href="#DejaVuSans-2d" x="954.554688"/>
      <use xlink:href="#DejaVuSans-65" x="990.638672"/>
      <use xlink:href="#DejaVuSans-73" x="1052.162109"/>
      <use xlink:href="#DejaVuSans-74" x="1104.261719"/>
      <use xlink:href="#DejaVuSans-69" x="1143.470703"/>
      <use xlink:href="#DejaVuSans-6d" x="1171.253906"/>
      <use xlink:href="#DejaVuSans-61" x="1268.666016"/>
      <use xlink:href="#DejaVuSans-74" x="1329.945312"/>
      <use xlink:href="#DejaVuSans-65" x="1369.154297"/>
     </g>
    </g>
   </g>
   <g id="patch_3">
    <path d="M 72.9 302.778 
L 72.9 40.824 
" style="fill: none; stroke: #000000; stroke-width: 0.8; stroke-linejoin: miter; stroke-linecap: square"/>
   </g>
   <g id="patch_4">
    <path d="M 524.88 302.778 
L 524.88 40.824 
" style="fill: none; stroke: #e6e6e6; stroke-width: 0.8; stroke-linejoin: miter; stroke-linecap: square"/>
   </g>
   <g id="patch_5">
    <path d="M 72.9 302.778 
L 524.88 302.778 
" style="fill: none; stroke: #000000; stroke-width: 0.8; stroke-linejoin: miter; stroke-linecap: square"/>
   </g>
   <g id="patch_6">
    <path d="M 72.9 40.824 
L 524.88 40.824 
" style="fill: none; stroke: #e6e6e6; stroke-width: 0.8; stroke-linejoin: miter; stroke-linecap: square"/>
   </g>
   <g id="line2d_31">
    <path d="M 93.444545 265.027872 
L 93.552732 264.931722 
L 93.660918 264.521944 
L 93.87729 266.059728 
L 94.201848 265.705489 
L 94.310034 265.829645 
L 94.418221 265.569204 
L 94.634593 282.98299 
L 95.067337 283.132781 
L 95.175523 283.032739 
L 95.28371 283.218949 
L 95.391896 283.83037 
L 95.716454 283.95088 
L 95.82464 282.613093 
L 95.932826 282.764243 
L 96.149199 283.803903 
L 96.581943 283.850485 
L 96.690129 284.274876 
L 96.798315 284.237642 
L 96.906502 284.392639 
L 97.339246 284.46892 
L 97.447432 284.815287 
L 97.555618 284.476958 
L 97.663804 283.291306 
L 97.988363 283.464332 
L 98.204735 282.331224 
L 98.312921 282.322538 
L 98.421107 282.095128 
L 98.853852 282.089823 
L 98.962038 284.117354 
L 99.070224 283.080386 
L 99.17841 279.653648 
L 99.502969 279.634659 
L 99.719341 279.197891 
L 99.827527 279.496871 
L 99.935713 278.699677 
L 100.368458 278.720514 
L 100.476644 278.572679 
L 100.58483 277.397692 
L 101.342133 279.295934 
L 101.774877 279.328873 
L 101.883063 279.177152 
L 101.991249 277.477455 
L 102.099436 277.519716 
L 102.207622 277.614013 
L 102.53218 278.230748 
L 102.640366 281.665193 
L 102.748552 281.617247 
L 102.964925 282.461966 
L 103.289483 282.023205 
L 103.397669 282.48778 
L 103.614041 281.791401 
L 103.722227 281.493297 
L 104.046786 282.300484 
L 104.263158 281.433349 
L 104.47953 281.400071 
L 104.912275 281.293081 
L 105.020461 281.845251 
L 105.128647 283.491097 
L 105.236833 282.361168 
L 105.88595 282.118989 
L 105.994136 282.217077 
L 106.318695 281.940554 
L 106.426881 282.164394 
L 106.535067 283.016533 
L 106.643253 282.975297 
L 106.751439 284.477479 
L 107.29237 283.956877 
L 107.400556 283.46438 
L 107.508742 284.135222 
L 107.8333 284.151916 
L 107.941486 281.815687 
L 108.049673 281.87769 
L 108.266045 282.127749 
L 108.590603 282.145759 
L 108.915162 283.911 
L 109.023348 283.87367 
L 109.347906 283.965408 
L 109.564278 284.584751 
L 109.672464 284.525731 
L 110.213395 284.836029 
L 110.429767 285.487226 
L 110.537953 285.285912 
L 110.862512 286.82677 
L 110.970698 286.471539 
L 111.078884 286.604618 
L 111.18707 290.871 
L 111.295256 289.302733 
L 111.619815 289.315178 
L 111.836187 288.536457 
L 112.052559 287.813057 
L 112.377118 287.814103 
L 112.59349 284.483639 
L 112.809862 283.682484 
L 113.242607 283.863413 
L 113.350793 283.852342 
L 113.567165 283.716701 
L 113.99991 283.399532 
L 114.216282 283.553301 
L 114.324468 281.877561 
L 114.973585 282.829892 
L 115.081771 281.304687 
L 115.514515 281.290739 
L 115.730888 283.186361 
L 115.839074 283.528058 
L 116.596377 282.829216 
L 116.920935 282.659866 
L 117.029121 282.18825 
L 117.245493 282.512522 
L 117.353679 282.462265 
L 117.678238 282.498566 
L 117.786424 284.204508 
L 118.110982 283.781233 
L 118.435541 284.149216 
L 118.543727 286.00047 
L 118.651913 285.857694 
L 118.760099 285.368129 
L 118.868285 285.392631 
L 119.192844 285.410085 
L 119.30103 285.26791 
L 119.409216 286.185662 
L 119.517402 285.988217 
L 119.625588 286.441046 
L 120.166519 286.7837 
L 120.274705 286.069845 
L 120.382891 286.550733 
L 120.923822 285.925823 
L 121.140194 285.244334 
L 121.572938 284.991384 
L 121.789311 285.379471 
L 121.897497 285.561662 
L 122.222055 285.541771 
L 122.330241 285.294183 
L 122.546614 285.724586 
L 122.6548 285.654378 
L 122.979358 285.770133 
L 123.19573 286.561154 
L 123.303916 285.753188 
L 123.412103 286.365984 
L 123.736661 285.76974 
L 123.844847 286.677804 
L 123.953033 286.542363 
L 124.169405 286.997481 
L 124.493964 286.966065 
L 124.60215 287.14984 
L 124.818522 287.034287 
L 124.926708 276.241885 
L 125.467639 276.526574 
L 125.684011 276.463457 
L 126.00857 275.672473 
L 126.116756 275.900232 
L 126.333128 275.241159 
L 126.441314 275.21647 
L 126.874059 274.900784 
L 127.090431 273.562588 
L 127.198617 273.478765 
L 127.631361 273.560951 
L 127.95592 271.895852 
L 128.280478 271.994443 
L 128.388664 278.55404 
L 128.49685 278.106962 
L 129.037781 278.025682 
L 129.145967 278.181467 
L 129.254153 279.332669 
L 129.795084 279.42784 
L 129.90327 279.210894 
L 130.011456 279.290397 
L 130.119642 280.847429 
L 130.227829 280.132521 
L 130.552387 281.031868 
L 130.660573 280.734655 
L 130.876945 276.296544 
L 130.985131 275.821894 
L 131.526062 275.805522 
L 131.742434 276.446335 
L 132.066993 276.38993 
L 132.175179 277.127118 
L 132.283365 276.89308 
L 132.499737 275.822273 
L 132.932482 275.110488 
L 133.040668 275.030731 
L 133.25704 275.562094 
L 133.581598 275.563611 
L 133.906157 277.369071 
L 134.014343 281.905203 
L 134.447087 283.551907 
L 134.66346 285.405751 
L 134.771646 285.70109 
L 135.20439 285.744612 
L 135.420763 286.066575 
L 135.528949 286.287501 
L 135.853507 285.864542 
L 136.069879 287.306724 
L 136.178065 287.485587 
L 136.286252 288.211662 
L 136.718996 288.000711 
L 136.827182 287.02546 
L 136.935368 287.399651 
L 137.043555 286.774694 
L 137.476299 286.806935 
L 137.584485 286.825483 
L 137.800857 286.695105 
L 138.125416 286.699925 
L 138.233602 286.561775 
L 138.55816 285.114866 
L 138.882719 284.850203 
L 138.990905 286.34291 
L 139.099091 286.328949 
L 139.207277 287.299076 
L 139.856394 287.143243 
L 139.96458 286.174559 
L 140.072766 286.846424 
L 140.397324 286.857215 
L 140.505511 287.932616 
L 140.721883 287.893855 
L 140.830069 287.030804 
L 141.262813 286.788716 
L 141.479186 286.949569 
L 141.587372 287.557392 
L 142.020116 288.332541 
L 142.344675 287.294361 
L 142.885605 286.53629 
L 142.993791 286.747454 
L 143.101978 287.419592 
L 143.426536 287.418935 
L 143.642908 287.136471 
L 143.751094 287.309254 
L 143.85928 286.800056 
L 144.400211 287.964627 
L 144.616583 287.751717 
L 145.049328 287.616698 
L 145.157514 287.433831 
L 145.373886 284.52724 
L 146.023003 285.258072 
L 146.131189 285.839396 
L 146.455748 285.482715 
L 146.67212 285.714787 
L 146.780306 286.116033 
L 147.21305 285.935837 
L 147.321237 286.205636 
L 147.537609 286.146904 
L 147.645795 286.168645 
L 148.078539 286.083322 
L 148.186726 286.416969 
L 148.294912 286.322045 
L 148.727656 289.600848 
L 148.835842 289.576926 
L 149.052215 288.748826 
L 149.484959 288.486158 
L 149.593145 287.195031 
L 149.701331 287.470409 
L 149.917704 287.111165 
L 150.242262 287.099061 
L 150.350448 286.852206 
L 150.458634 286.932651 
L 150.675006 286.631619 
L 151.107751 286.663041 
L 151.324123 286.831239 
L 151.432309 285.917216 
L 151.865054 286.309272 
L 152.081426 287.064325 
L 152.189612 287.513889 
L 152.514171 287.278222 
L 152.622357 287.37178 
L 152.730543 288.440279 
L 152.838729 287.954989 
L 152.946915 288.656494 
L 153.271474 288.40581 
L 153.596032 288.555914 
L 153.704218 288.013895 
L 154.136963 288.059178 
L 154.245149 287.935838 
L 154.461521 287.332434 
L 154.894265 286.181915 
L 155.110638 285.171754 
L 155.218824 281.032476 
L 155.543382 281.030357 
L 155.759754 280.742747 
L 155.976127 281.181642 
L 156.408871 281.031022 
L 156.517057 281.193105 
L 156.73343 280.949119 
L 157.057988 280.96765 
L 157.166174 281.530964 
L 157.490732 280.802016 
L 157.923477 281.034085 
L 158.248035 283.015086 
L 158.572594 283.27348 
L 158.68078 288.193121 
L 158.788966 287.771283 
L 158.897152 288.441087 
L 159.005338 288.086447 
L 159.438083 287.29798 
L 159.546269 287.40809 
L 159.654455 287.315597 
L 159.762641 287.376382 
L 160.519944 287.204357 
L 160.952688 288.491031 
L 161.169061 288.340192 
L 161.277247 286.769454 
L 161.601805 286.518359 
L 161.709991 286.752517 
L 161.818178 286.273293 
L 161.926364 286.428849 
L 162.03455 286.854191 
L 162.359108 287.142876 
L 162.57548 287.641819 
L 162.791853 287.685383 
L 163.116411 286.875824 
L 163.224597 286.952466 
L 163.332783 286.206017 
L 163.440969 286.324157 
L 163.549156 271.698643 
L 164.198272 271.402957 
L 164.306458 271.395819 
L 164.739203 271.172625 
L 164.847389 270.959728 
L 165.063761 271.438413 
L 165.496506 271.515082 
L 165.712878 271.715366 
L 165.821064 271.490285 
L 166.145623 271.56887 
L 166.361995 271.078236 
L 166.470181 271.291833 
L 166.578367 270.621303 
L 166.902925 270.480378 
L 167.119298 282.101318 
L 167.227484 281.310388 
L 167.33567 281.783772 
L 167.660228 282.209214 
L 167.876601 283.200154 
L 167.984787 283.473218 
L 168.74209 283.73588 
L 169.28302 283.704929 
L 169.391206 284.011477 
L 169.499393 283.941938 
L 169.607579 284.450208 
L 169.932137 284.011209 
L 170.040323 282.661659 
L 170.148509 284.381908 
L 170.256695 283.19477 
L 170.364882 283.308365 
L 170.797626 283.353854 
L 170.905812 284.570051 
L 171.013998 284.503002 
L 171.122184 284.22826 
L 171.446743 284.004514 
L 171.554929 282.807942 
L 171.663115 282.821215 
L 171.771301 282.762437 
L 171.879487 282.432927 
L 172.204046 282.05299 
L 172.528604 281.148111 
L 172.63679 281.207749 
L 173.069535 279.994958 
L 173.394093 282.509386 
L 173.826838 283.560229 
L 174.04321 283.273615 
L 174.151396 282.381568 
L 174.475954 281.881956 
L 174.58414 281.919742 
L 174.800513 283.053532 
L 174.908699 282.969932 
L 175.449629 283.56085 
L 175.557816 283.961671 
L 175.666002 282.681552 
L 175.99056 282.684935 
L 176.206932 282.384269 
L 176.315118 282.402469 
L 176.423305 282.745494 
L 176.747863 282.508957 
L 176.856049 281.767575 
L 177.072421 281.735239 
L 177.180607 281.589879 
L 177.613352 282.760935 
L 178.262469 282.840483 
L 178.478841 281.858175 
L 178.695213 281.809419 
L 179.236144 283.494989 
L 179.34433 283.099002 
L 179.452516 284.006331 
L 179.885261 284.342326 
L 179.993447 283.555257 
L 180.209819 284.950779 
L 180.534377 285.070099 
L 180.642564 285.312303 
L 180.75075 285.229576 
L 180.858936 285.373421 
L 180.967122 285.278339 
L 181.399866 285.287318 
L 181.508053 286.720112 
L 181.724425 286.496898 
L 182.048983 286.469129 
L 182.157169 285.679212 
L 182.265355 285.768873 
L 182.373542 285.463563 
L 182.481728 286.357178 
L 182.914472 286.502124 
L 183.022658 285.025806 
L 183.239031 286.834246 
L 183.563589 286.719778 
L 183.779961 286.930288 
L 183.888147 286.734678 
L 184.320892 287.211907 
L 184.429078 287.058207 
L 184.64545 285.910905 
L 184.753636 285.064888 
L 185.294567 284.922298 
L 185.510939 285.671525 
L 186.05187 285.842324 
L 186.160056 285.269336 
L 186.268242 286.087482 
L 186.809173 285.782354 
L 187.025545 285.964901 
L 187.350103 286.206478 
L 187.566476 285.878943 
L 187.674662 285.778692 
L 187.782848 286.215675 
L 188.107406 286.264766 
L 188.215592 286.65578 
L 188.431965 286.478111 
L 188.540151 286.118906 
L 189.081081 285.647456 
L 189.189268 285.653283 
L 189.297454 284.425123 
L 189.622012 284.245576 
L 189.838384 285.258801 
L 189.94657 285.338327 
L 190.054757 284.916252 
L 190.487501 281.837478 
L 190.595687 281.542761 
L 190.703873 281.962039 
L 190.812059 281.838979 
L 191.136618 281.83433 
L 191.244804 283.149375 
L 191.35299 283.120891 
L 191.569362 282.9697 
L 191.893921 282.543285 
L 192.002107 281.607933 
L 192.218479 282.177198 
L 192.326665 282.222041 
L 192.651224 282.785034 
L 192.75941 283.539663 
L 192.867596 283.43102 
L 192.975782 282.92571 
L 193.083968 283.005512 
L 193.408526 283.448399 
L 193.516713 286.944845 
L 193.624899 286.808054 
L 193.733085 287.507941 
L 193.841271 287.257924 
L 194.165829 287.230927 
L 194.382202 286.874138 
L 194.490388 286.725784 
L 194.598574 279.137927 
L 195.031318 279.122411 
L 195.247691 279.7819 
L 195.355877 279.673211 
L 196.11318 279.775872 
L 196.65411 280.692296 
L 196.870483 280.667041 
L 197.195041 280.188894 
L 197.303227 280.452895 
L 197.411413 280.253184 
L 197.627785 280.541149 
L 197.952344 280.646222 
L 198.168716 289.198651 
L 198.276902 289.318306 
L 198.385088 288.961774 
L 198.709647 289.082139 
L 198.926019 288.673241 
L 199.034205 288.397289 
L 199.46695 288.915941 
L 199.683322 288.06015 
L 199.791508 287.556492 
L 199.899694 287.676359 
L 200.224252 287.174716 
L 200.332439 288.225477 
L 200.440625 288.068671 
L 200.656997 288.495402 
L 200.981555 288.379835 
L 201.197928 288.456138 
L 201.306114 287.814281 
L 201.4143 287.850058 
L 201.847044 288.229636 
L 201.955231 280.326288 
L 202.063417 280.412937 
L 202.171603 280.408399 
L 202.496161 279.827365 
L 202.604347 279.962088 
L 202.82072 279.140272 
L 203.253464 278.3571 
L 203.36165 278.543974 
L 203.578022 278.220871 
L 204.010767 278.237924 
L 204.118953 277.864763 
L 204.227139 275.464133 
L 204.443511 275.413355 
L 204.876256 275.49148 
L 204.984442 275.483688 
L 205.092628 275.684471 
L 205.200814 282.839167 
L 205.633559 283.032806 
L 205.741745 282.556541 
L 205.958117 283.0964 
L 206.390862 283.110651 
L 206.499048 281.929333 
L 206.71542 282.249865 
L 207.256351 282.252526 
L 207.364537 280.792949 
L 207.472723 284.201767 
L 208.013654 283.960946 
L 208.230026 284.090817 
L 208.770956 284.0473 
L 208.987329 283.048628 
L 209.311887 284.253912 
L 209.528259 284.224219 
L 209.636445 284.413727 
L 209.744632 280.709897 
L 210.501935 281.048169 
L 210.826493 280.941071 
L 210.934679 281.055807 
L 211.151051 282.370874 
L 211.259237 282.682239 
L 211.583796 283.028306 
L 211.800168 282.888794 
L 211.908354 282.896173 
L 212.01654 283.064733 
L 212.449285 284.079265 
L 212.557471 284.056163 
L 212.773843 283.679459 
L 213.098402 283.575348 
L 213.314774 290.831957 
L 213.42296 290.346173 
L 213.531146 290.540036 
L 213.963891 290.026346 
L 214.072077 290.146961 
L 214.288449 288.45887 
L 214.613007 288.437669 
L 214.721193 282.952087 
L 214.82938 282.971788 
L 215.045752 282.811648 
L 215.803055 282.36522 
L 216.235799 281.696151 
L 216.452171 281.747462 
L 216.884916 281.18913 
L 216.993102 281.193037 
L 217.209474 281.612717 
L 217.31766 273.30735 
L 217.642219 273.709801 
L 217.750405 272.929545 
L 217.858591 274.880337 
L 217.966777 274.618449 
L 218.074963 274.813387 
L 218.615894 274.797993 
L 218.832266 274.911459 
L 219.156825 275.127413 
L 219.373197 275.647897 
L 219.481383 275.542511 
L 219.914128 275.339496 
L 220.022314 275.476441 
L 220.1305 275.795627 
L 220.346872 275.67056 
L 220.67143 275.672716 
L 220.779617 288.29259 
L 220.887803 288.271384 
L 220.995989 288.853731 
L 221.104175 288.485276 
L 221.428733 289.001631 
L 221.536919 288.204542 
L 221.645106 288.613814 
L 221.861478 288.191816 
L 222.186036 288.07586 
L 222.294222 288.269839 
L 222.402408 288.125063 
L 222.618781 287.049039 
L 222.943339 287.054434 
L 223.051525 287.380213 
L 223.267897 286.667108 
L 223.700642 286.588208 
L 223.808828 283.917407 
L 223.917014 283.963395 
L 224.133386 281.217205 
L 224.566131 281.220443 
L 224.782503 281.05094 
L 224.890689 281.369505 
L 225.43162 281.50696 
L 225.647992 280.838075 
L 225.972551 280.99803 
L 226.080737 280.899111 
L 226.297109 280.944442 
L 226.405295 280.84924 
L 226.729854 280.71948 
L 226.946226 281.036316 
L 227.054412 282.653199 
L 227.162598 282.624624 
L 227.487156 283.334259 
L 227.703529 285.731205 
L 227.811715 285.971981 
L 227.919901 286.693871 
L 228.460832 286.788505 
L 228.677204 287.078711 
L 229.001762 287.871901 
L 229.218134 289.008951 
L 229.759065 289.558559 
L 229.867251 290.72002 
L 230.083623 290.526985 
L 230.19181 290.287332 
L 230.516368 290.301798 
L 230.624554 289.745864 
L 230.73274 290.250602 
L 230.949112 289.154991 
L 231.273671 289.090857 
L 231.490043 288.82845 
L 231.598229 288.658324 
L 231.706415 288.931549 
L 232.030974 289.019037 
L 232.247346 288.826 
L 232.463718 287.79708 
L 232.788277 287.857003 
L 233.004649 285.959678 
L 233.221021 286.009638 
L 233.545579 286.095878 
L 233.653766 285.401023 
L 233.870138 285.647205 
L 233.978324 278.723551 
L 235.168371 278.72219 
L 235.384744 278.519532 
L 235.49293 278.371305 
L 235.817488 278.585184 
L 235.925674 278.519877 
L 236.03386 278.177557 
L 236.250233 279.12432 
L 236.791163 279.251338 
L 236.899349 279.749891 
L 237.332094 279.578398 
L 237.548466 289.062327 
L 237.656652 289.835719 
L 237.764838 289.669883 
L 238.089397 289.963037 
L 238.197583 289.567251 
L 238.413955 289.941959 
L 238.522141 289.081907 
L 238.954886 289.264136 
L 239.063072 288.298569 
L 239.171258 288.977245 
L 239.279444 288.839541 
L 239.604003 288.784151 
L 239.928561 288.161103 
L 240.036747 288.264813 
L 240.361305 288.247024 
L 240.469492 288.47453 
L 240.577678 288.360468 
L 240.79405 288.487287 
L 241.226794 287.831249 
L 241.875911 288.255256 
L 242.092283 287.233378 
L 242.20047 287.161127 
L 242.308656 284.360578 
L 242.7414 284.583656 
L 242.957773 285.241126 
L 243.065959 285.075018 
L 243.390517 284.984141 
L 243.498703 284.668166 
L 243.606889 283.329804 
L 243.823262 283.363217 
L 244.14782 282.046771 
L 244.256006 280.809515 
L 244.364192 280.959327 
L 244.580564 280.737839 
L 244.905123 280.273368 
L 245.229681 281.387424 
L 245.337867 281.05924 
L 245.662426 281.101982 
L 245.770612 284.313946 
L 245.986984 283.675254 
L 246.09517 283.854731 
L 246.419729 283.801013 
L 246.636101 283.371219 
L 246.744287 283.442154 
L 246.852473 284.043567 
L 247.285218 283.997224 
L 247.609776 287.116905 
L 248.150707 287.089892 
L 248.258893 288.198577 
L 248.367079 287.756228 
L 248.691637 287.104914 
L 248.799823 287.323356 
L 248.908009 288.078009 
L 249.016196 287.994273 
L 249.124382 279.248031 
L 249.665312 278.811847 
L 249.773498 278.583339 
L 249.881685 278.620423 
L 250.422615 278.140752 
L 251.179918 278.114276 
L 251.288104 278.299062 
L 251.39629 278.096199 
L 251.720849 277.77322 
L 251.829035 277.450739 
L 251.937221 277.694763 
L 252.153593 277.254942 
L 252.478152 277.439481 
L 252.586338 283.474306 
L 252.694524 282.784352 
L 252.910896 283.317328 
L 253.343641 283.072522 
L 253.560013 283.513401 
L 253.668199 283.341146 
L 253.992757 283.30559 
L 254.20913 282.915201 
L 254.425502 282.399566 
L 254.75006 282.393877 
L 254.858246 282.804062 
L 255.074619 283.984056 
L 255.182805 284.144791 
L 255.831922 285.72525 
L 255.940108 287.060688 
L 256.372852 285.742174 
L 256.589224 285.791017 
L 257.021969 284.61342 
L 257.130155 284.694441 
L 257.238341 284.83048 
L 257.346527 278.403563 
L 257.779272 278.450337 
L 257.887458 278.62516 
L 258.10383 277.975748 
L 258.969319 277.879409 
L 259.402064 277.683569 
L 259.618436 278.303261 
L 259.726622 277.751762 
L 260.051181 277.464865 
L 260.159367 277.566282 
L 260.267553 278.282334 
L 260.375739 278.199803 
L 260.483925 278.285964 
L 260.91667 285.893695 
L 261.133042 284.103402 
L 261.241228 284.175604 
L 261.782159 284.270265 
L 261.890345 284.337313 
L 261.998531 284.115549 
L 262.431275 282.748674 
L 262.539461 282.806069 
L 262.647648 283.019304 
L 262.755834 278.994632 
L 263.40495 280.124535 
L 263.513137 280.297938 
L 263.945881 279.900686 
L 264.270439 279.216192 
L 264.594998 279.872776 
L 264.81137 279.64954 
L 265.027742 279.746893 
L 265.352301 279.740175 
L 265.460487 279.951477 
L 265.676859 278.646573 
L 265.785045 275.76162 
L 266.109604 273.32622 
L 266.21779 276.796732 
L 266.325976 276.788585 
L 266.542348 276.702452 
L 267.083279 275.873617 
L 267.191465 275.996594 
L 267.299651 275.90617 
L 267.624209 275.942979 
L 267.732396 276.418922 
L 268.056954 275.68656 
L 268.381512 275.573762 
L 268.597885 274.800964 
L 268.706071 274.727312 
L 268.814257 275.998736 
L 269.138815 276.740102 
L 269.247001 278.375591 
L 269.463374 282.528143 
L 269.57156 282.428789 
L 270.004304 282.400001 
L 270.11249 282.60332 
L 270.220676 282.362554 
L 270.328863 282.739505 
L 270.761607 282.937209 
L 270.977979 283.189711 
L 271.086165 284.05151 
L 271.51891 285.010346 
L 271.735282 286.318651 
L 271.843468 286.819299 
L 272.168027 286.902342 
L 272.276213 286.619296 
L 272.384399 288.466998 
L 272.492585 288.224744 
L 272.600771 288.676413 
L 272.92533 287.736792 
L 273.141702 286.467884 
L 273.249888 286.674004 
L 273.358074 286.552637 
L 273.790819 277.153342 
L 273.899005 277.27004 
L 274.548121 275.461278 
L 274.656308 268.392022 
L 274.764494 268.410419 
L 275.305424 268.381182 
L 275.521797 268.1667 
L 275.629983 268.08739 
L 276.062727 268.124794 
L 276.387286 269.010549 
L 276.82003 267.676547 
L 277.036402 272.720778 
L 277.144589 272.529393 
L 277.469147 273.218785 
L 277.577333 273.126655 
L 277.685519 274.094852 
L 277.793705 284.232295 
L 277.901891 284.217871 
L 278.334636 283.783048 
L 278.442822 283.853364 
L 278.659194 285.02605 
L 278.983753 285.012893 
L 279.200125 284.480956 
L 279.308311 284.434159 
L 279.741056 283.626157 
L 279.957428 286.950146 
L 280.606545 282.059328 
L 280.714731 282.441674 
L 280.931103 280.966335 
L 281.255661 280.102601 
L 281.472034 280.405793 
L 281.688406 280.365318 
L 282.012964 279.100859 
L 282.12115 279.131088 
L 282.337523 277.654756 
L 282.770267 277.364152 
L 282.878453 276.732247 
L 282.986639 271.717744 
L 283.203012 271.704099 
L 283.52757 270.199747 
L 283.743942 272.027675 
L 283.852128 271.821474 
L 283.960315 270.372665 
L 284.393059 271.211413 
L 284.609431 271.571069 
L 284.717617 271.513736 
L 285.150362 271.424207 
L 285.258548 271.244139 
L 285.799479 273.306486 
L 285.907665 273.352619 
L 286.124037 273.627112 
L 286.232223 274.364164 
L 286.556782 279.606255 
L 286.773154 277.689323 
L 286.989526 280.860868 
L 287.314084 280.609924 
L 287.530457 279.977577 
L 287.638643 282.325162 
L 287.746829 271.682925 
L 288.071387 272.040717 
L 288.28776 271.988862 
L 288.395946 272.021604 
L 288.504132 272.250857 
L 288.82869 272.138638 
L 289.045062 272.71887 
L 289.261435 272.841257 
L 289.694179 272.068441 
L 289.802365 272.224686 
L 290.018738 273.583665 
L 290.343296 273.890728 
L 290.451482 249.646627 
L 290.559668 249.670893 
L 290.77604 250.095066 
L 291.100599 250.036786 
L 291.316971 255.199767 
L 291.533343 255.563485 
L 291.857902 255.580592 
L 292.074274 255.301817 
L 292.723391 255.407314 
L 292.939763 255.630938 
L 293.047949 255.383696 
L 293.58888 255.402762 
L 293.805252 287.143151 
L 294.12981 286.986974 
L 294.346183 287.15373 
L 294.454369 288.430577 
L 294.562555 286.258049 
L 295.103486 285.427049 
L 295.319858 285.343577 
L 295.752602 285.442355 
L 295.968975 284.414374 
L 296.401719 284.722128 
L 296.509905 284.574046 
L 296.834464 284.72337 
L 297.267208 284.092642 
L 297.591766 281.694584 
L 298.132697 283.727886 
L 298.240883 283.725765 
L 298.349069 282.912672 
L 298.89 282.151009 
L 298.998186 282.766747 
L 299.430931 282.86844 
L 299.539117 282.10047 
L 299.647303 282.185847 
L 299.863675 282.610099 
L 300.29642 282.575141 
L 300.404606 283.050701 
L 300.512792 282.372579 
L 300.945536 284.297276 
L 301.378281 284.757511 
L 301.702839 284.64418 
L 301.811025 284.744314 
L 302.027398 285.753083 
L 302.135584 285.878224 
L 302.568328 283.240997 
L 302.784701 283.521216 
L 302.892887 283.20174 
L 303.433817 283.083564 
L 303.65019 283.099773 
L 303.974748 283.923246 
L 304.082934 282.708464 
L 304.299306 240.436361 
L 304.407492 240.474285 
L 304.948423 238.209313 
L 305.056609 238.156422 
L 305.164795 238.356098 
L 305.59754 238.187684 
L 305.813912 238.605502 
L 306.354843 238.626371 
L 306.679401 238.51655 
L 307.112146 238.484679 
L 307.220332 239.039918 
L 307.436704 279.85707 
L 307.869449 279.707736 
L 307.977635 282.883632 
L 308.085821 282.357692 
L 308.518565 283.44004 
L 308.626751 283.272296 
L 308.95131 281.157341 
L 309.384054 280.730057 
L 309.49224 280.67706 
L 309.600427 281.056528 
L 309.708613 280.972019 
L 310.141357 280.423752 
L 310.249543 280.373647 
L 310.465916 280.06681 
L 310.790474 281.758669 
L 311.006846 280.598286 
L 311.223218 279.272295 
L 311.655963 279.814667 
L 311.764149 279.457909 
L 311.872335 280.09168 
L 311.980521 279.42706 
L 312.413266 280.046443 
L 312.521452 279.169089 
L 312.737824 274.396476 
L 313.062383 273.568746 
L 313.170569 273.623418 
L 313.278755 272.826598 
L 313.495127 269.759612 
L 313.927872 269.304184 
L 314.25243 268.066401 
L 314.576988 265.785961 
L 314.685174 267.380772 
L 314.793361 264.033766 
L 315.009733 264.302627 
L 315.442477 264.708303 
L 315.767036 263.187897 
L 316.091594 263.93537 
L 316.307966 265.328807 
L 316.524339 266.194451 
L 316.848897 267.545531 
L 316.957083 269.316943 
L 317.065269 269.077397 
L 317.173455 269.316044 
L 317.281642 269.965189 
L 317.6062 269.813425 
L 317.930758 276.109762 
L 318.038944 274.929753 
L 318.471689 275.706613 
L 318.579875 275.38703 
L 318.796247 276.857309 
L 319.120806 277.619443 
L 319.228992 277.167644 
L 319.337178 277.235137 
L 319.445364 277.465403 
L 319.878109 276.830011 
L 320.094481 275.218202 
L 320.202667 275.051922 
L 320.310853 273.405692 
L 320.743598 273.608729 
L 320.95997 275.592905 
L 321.068156 275.222959 
L 321.5009 276.556933 
L 321.609087 276.559568 
L 321.825459 277.576288 
L 322.258203 276.703817 
L 322.366389 279.608844 
L 322.474576 279.594044 
L 322.90732 276.982205 
L 323.015506 277.152812 
L 323.123692 278.374652 
L 323.340065 278.512698 
L 323.664623 279.569647 
L 323.772809 281.840823 
L 323.989181 280.663383 
L 324.530112 278.777602 
L 324.638298 269.138537 
L 324.746484 269.145427 
L 324.85467 269.038089 
L 325.179229 269.020758 
L 325.287415 266.339967 
L 325.503787 266.994801 
L 325.611973 266.961233 
L 326.044718 265.682766 
L 326.26109 266.894497 
L 326.369276 264.693716 
L 326.802021 264.723853 
L 327.018393 264.543819 
L 327.126579 263.319516 
L 327.451137 264.009849 
L 327.559324 263.327325 
L 327.66751 263.493604 
L 327.883882 264.17512 
L 328.20844 271.337736 
L 328.316626 265.806162 
L 328.424813 265.822544 
L 328.532999 265.873962 
L 328.641185 268.686601 
L 329.182115 268.78871 
L 329.398488 268.538386 
L 329.831232 268.639243 
L 330.047604 272.762801 
L 330.155791 272.823663 
L 330.588535 273.194307 
L 330.696721 272.5835 
L 330.804907 273.22586 
L 330.913093 272.627587 
L 331.345838 271.384041 
L 331.454024 270.476721 
L 331.56221 276.804274 
L 331.670396 276.79553 
L 332.103141 276.715416 
L 332.319513 277.210355 
L 332.427699 277.055035 
L 332.752258 274.689795 
L 332.860444 275.639316 
L 333.185002 273.948205 
L 333.509561 273.144525 
L 333.834119 271.611011 
L 333.942305 271.86658 
L 334.266863 270.935741 
L 334.37505 267.585899 
L 334.483236 267.659614 
L 334.591422 267.302658 
L 334.699608 262.566 
L 335.132352 261.876748 
L 335.456911 254.363579 
L 335.889655 254.488034 
L 336.106028 255.152321 
L 336.214214 254.589155 
L 336.538772 250.584183 
L 336.646958 251.022585 
L 336.755144 250.589887 
L 336.86333 248.387989 
L 336.971517 249.088894 
L 337.404261 246.658299 
L 337.512447 249.638975 
L 337.620633 246.452311 
L 338.053378 240.856924 
L 338.26975 234.816364 
L 338.377936 234.637758 
L 338.486122 236.522001 
L 338.810681 235.525418 
L 339.027053 233.507567 
L 339.243425 234.005809 
L 339.567984 229.762289 
L 339.67617 229.920409 
L 339.784356 232.981578 
L 339.892542 232.786328 
L 340.000728 233.99452 
L 340.433473 235.250488 
L 340.541659 234.158533 
L 340.649845 234.187 
L 340.758031 234.256876 
L 341.082589 235.635882 
L 341.515334 250.691719 
L 341.839892 249.449249 
L 342.164451 258.02657 
L 342.272637 257.632973 
L 342.705381 256.949245 
L 342.813567 265.816009 
L 342.921754 264.691336 
L 343.02994 265.937322 
L 343.354498 265.957685 
L 343.57087 267.604647 
L 343.679056 267.544412 
L 343.787243 268.077023 
L 344.111801 258.74949 
L 344.219987 258.827807 
L 344.328173 259.209816 
L 344.436359 255.061839 
L 344.544545 255.123474 
L 344.97729 255.219111 
L 345.085476 256.362702 
L 345.193662 256.347231 
L 345.301848 256.283097 
L 345.626407 256.275386 
L 345.734593 257.130792 
L 345.842779 255.872242 
L 346.059151 257.757333 
L 346.491896 258.703085 
L 346.600082 258.634312 
L 346.708268 259.144261 
L 347.141012 259.140874 
L 347.249199 260.131145 
L 347.357385 269.432499 
L 347.465571 269.429096 
L 347.573757 269.255771 
L 348.006502 278.636798 
L 348.222874 278.159612 
L 348.33106 277.736245 
L 348.655618 278.70263 
L 348.871991 277.060393 
L 348.980177 277.034034 
L 349.088363 280.302564 
L 349.521107 280.558864 
L 349.73748 279.956965 
L 349.845666 280.141776 
L 350.170224 279.920922 
L 350.386596 277.985336 
L 350.494782 277.565119 
L 350.602969 275.940476 
L 350.927527 275.666799 
L 351.035713 275.804189 
L 351.252085 276.162541 
L 351.360271 276.075781 
L 351.901202 277.377207 
L 352.009388 277.124924 
L 352.117574 274.608428 
L 352.550319 274.293869 
L 352.766691 274.565593 
L 352.874877 274.498288 
L 353.307622 260.711858 
L 353.63218 261.596656 
L 354.064925 263.466966 
L 354.173111 262.182011 
L 354.389483 254.56981 
L 354.822227 252.296608 
L 355.0386 247.090905 
L 355.146786 247.519467 
L 355.471344 246.004305 
L 355.687717 242.281407 
L 355.904089 239.4315 
L 356.336833 239.346558 
L 356.553206 246.169112 
L 356.661392 245.763377 
L 356.98595 245.766782 
L 357.202322 245.563587 
L 357.310508 229.558689 
L 357.418695 231.664477 
L 357.743253 231.720128 
L 358.067811 235.793179 
L 358.175997 235.535681 
L 358.500556 235.460436 
L 358.608742 236.712075 
L 358.825114 241.228523 
L 358.9333 243.185649 
L 359.474231 239.915705 
L 359.582417 239.95103 
L 359.690603 238.279649 
L 360.015162 238.493015 
L 360.231534 237.531238 
L 360.33972 237.352955 
L 360.447906 259.68692 
L 360.772464 262.368896 
L 360.880651 262.184531 
L 361.097023 261.026758 
L 361.205209 265.105866 
L 361.529767 262.875752 
L 361.74614 263.293272 
L 361.854326 261.838852 
L 361.962512 262.606463 
L 362.28707 260.516862 
L 362.395256 263.202499 
L 362.503442 262.87576 
L 362.719815 263.12632 
L 363.044373 263.211138 
L 363.152559 266.614695 
L 363.260745 266.409763 
L 363.368931 266.658901 
L 363.477118 268.096848 
L 363.909862 267.567486 
L 364.018048 255.814161 
L 364.126234 256.102279 
L 364.234421 255.645428 
L 364.558979 255.8445 
L 364.667165 254.759145 
L 364.775351 256.093576 
L 364.991723 255.551944 
L 365.316282 256.247566 
L 365.424468 248.104405 
L 365.532654 248.717081 
L 365.64084 248.666913 
L 366.073585 249.159897 
L 366.181771 248.613848 
L 366.289957 248.657137 
L 366.398143 249.018579 
L 366.830888 247.85434 
L 366.939074 248.011462 
L 367.04726 247.880564 
L 367.263632 248.116629 
L 367.58819 255.166967 
L 367.696377 255.161486 
L 367.912749 225.859064 
L 368.020935 222.862816 
L 368.453679 222.764039 
L 368.670052 222.237028 
L 368.778238 209.943094 
L 369.102796 211.390648 
L 369.535541 120.099213 
L 369.860099 109.9882 
L 369.968285 70.260662 
L 370.076471 71.150649 
L 370.292844 57.632159 
L 370.617402 57.33408 
L 370.725588 55.743538 
L 370.94196 55.88268 
L 371.050146 61.873172 
L 371.591077 63.715853 
L 371.807449 63.467088 
L 372.132008 63.243256 
L 372.240194 69.447957 
L 372.34838 52.731 
L 372.456566 66.582361 
L 372.564752 96.465966 
L 372.889311 106.997832 
L 373.105683 125.309514 
L 373.213869 170.42823 
L 373.322055 170.40304 
L 373.646614 187.806039 
L 373.7548 186.457523 
L 373.862986 187.684029 
L 373.971172 191.800659 
L 374.079358 191.797105 
L 374.512103 186.202515 
L 374.728475 187.75156 
L 374.836661 190.121241 
L 375.161219 189.748292 
L 375.269405 188.540951 
L 375.377592 173.531272 
L 375.593964 197.205838 
L 375.918522 197.858137 
L 376.026708 199.395126 
L 376.134894 199.354237 
L 376.243081 199.405338 
L 376.784011 199.410193 
L 377.000383 215.411404 
L 377.10857 215.99573 
L 377.433128 215.210929 
L 377.541314 215.34615 
L 377.757686 214.373109 
L 377.865872 214.419894 
L 378.298617 213.903332 
L 378.406803 213.927875 
L 378.514989 214.121817 
L 378.623175 233.228506 
L 378.947734 260.247429 
L 379.164106 259.638618 
L 379.380478 260.872374 
L 379.705037 260.053309 
L 380.029595 260.272331 
L 380.137781 260.642423 
L 380.46234 258.801466 
L 380.786898 264.292265 
L 380.895084 265.098196 
L 381.219642 261.741783 
L 381.327829 262.44858 
L 381.544201 261.60384 
L 381.652387 262.039909 
L 381.976945 262.029865 
L 382.40969 251.945018 
L 382.95062 249.80004 
L 383.166993 247.318552 
L 383.599737 245.687397 
L 383.707923 249.35742 
L 383.924296 232.022412 
L 384.248854 233.354768 
L 384.35704 233.325827 
L 384.573412 234.860107 
L 384.681598 235.270418 
L 385.006157 234.537104 
L 385.222529 233.643614 
L 385.438901 239.40878 
L 385.76346 239.738484 
L 386.196204 248.085683 
L 386.628949 248.211696 
L 386.845321 252.53131 
L 386.953507 252.619329 
L 387.386252 277.028026 
L 387.494438 275.656018 
L 387.602624 275.726339 
L 388.035368 275.052558 
L 388.143555 271.536978 
L 388.251741 272.5757 
L 388.359927 276.082685 
L 388.468113 275.960757 
L 388.792671 275.89309 
L 388.900857 275.70443 
L 389.11723 275.123762 
L 389.225416 275.38652 
L 389.549974 275.80691 
L 389.766346 275.42248 
L 389.874533 274.608636 
L 389.982719 274.687567 
L 390.415463 272.956158 
L 390.523649 273.590903 
L 390.740022 275.053053 
L 391.06458 275.096401 
L 391.172766 275.403535 
L 391.389138 279.543249 
L 391.497324 278.874197 
L 391.821883 278.239906 
L 392.038255 260.090693 
L 392.254627 261.115455 
L 392.795558 261.626795 
L 392.903744 262.338079 
L 393.01193 261.459978 
L 393.444675 261.359367 
L 393.661047 261.985227 
L 393.769233 261.312008 
L 394.310164 260.361815 
L 394.41835 260.40014 
L 394.526536 260.948815 
L 394.851094 259.970351 
L 395.067467 260.241751 
L 395.283839 278.414261 
L 395.608397 278.532879 
L 395.716583 277.244752 
L 395.824769 277.556727 
L 395.932956 278.738338 
L 396.3657 278.534152 
L 396.582072 279.359331 
L 396.798445 279.281229 
L 397.123003 279.433404 
L 397.231189 282.064699 
L 397.339375 280.751292 
L 397.555748 281.357398 
L 397.880306 281.141355 
L 397.988492 283.307651 
L 398.096678 283.301576 
L 398.204864 283.190298 
L 398.31305 280.893518 
L 398.745795 280.904812 
L 398.853981 282.441659 
L 398.962167 281.037898 
L 399.070353 281.047617 
L 399.394912 277.75515 
L 399.503098 278.131573 
L 399.611284 277.32226 
L 399.71947 277.379745 
L 399.827656 276.947239 
L 400.152215 276.885195 
L 400.368587 274.756031 
L 400.476773 275.227472 
L 401.12589 274.773972 
L 401.234076 274.888103 
L 401.342262 272.955116 
L 401.66682 273.894773 
L 401.883193 265.947873 
L 402.099565 265.063622 
L 402.424123 265.629674 
L 402.532309 265.339927 
L 402.640495 265.398243 
L 402.856868 266.290494 
L 403.181426 266.216855 
L 403.289612 264.848864 
L 403.397798 265.11357 
L 403.614171 263.134034 
L 404.046915 257.435013 
L 404.155101 257.859338 
L 404.263287 257.846849 
L 404.371474 256.366377 
L 404.696032 256.29609 
L 405.02059 264.31175 
L 405.453335 264.302771 
L 405.561521 264.769196 
L 405.777893 263.862164 
L 405.886079 265.055062 
L 406.210638 264.761655 
L 406.318824 265.18219 
L 406.42701 261.074747 
L 406.535196 262.25024 
L 406.643382 260.672652 
L 407.076127 262.337862 
L 407.292499 269.209379 
L 407.400685 268.844215 
L 407.83343 267.985917 
L 408.049802 270.537553 
L 408.157988 269.804461 
L 408.590732 269.254203 
L 408.698919 268.438277 
L 408.807105 266.646435 
L 408.915291 266.794292 
L 409.456221 260.639026 
L 409.564408 260.617213 
L 409.672594 263.871684 
L 409.997152 263.9862 
L 410.213524 260.855755 
L 410.429897 260.815141 
L 410.754455 260.475938 
L 410.862641 259.802143 
L 410.970827 261.030543 
L 411.079013 260.728483 
L 411.187199 261.069828 
L 411.619944 260.971013 
L 411.72813 261.727459 
L 411.944502 259.930917 
L 412.269061 262.484872 
L 412.377247 262.244985 
L 412.485433 264.617386 
L 412.593619 264.548594 
L 412.701805 267.510535 
L 413.13455 263.660081 
L 413.242736 263.557343 
L 413.459108 267.668014 
L 413.891853 260.526288 
L 414.000039 259.932553 
L 414.108225 261.658345 
L 414.216411 261.30693 
L 414.540969 260.830677 
L 414.757342 243.964491 
L 414.973714 244.494277 
L 415.406458 238.159869 
L 415.622831 237.332561 
L 416.055575 238.308908 
L 416.271947 238.752427 
L 416.380134 238.217657 
L 416.48832 238.506243 
L 416.812878 239.938158 
L 417.02925 245.68194 
L 417.137436 245.645487 
L 417.786553 243.736156 
L 418.002925 257.453517 
L 418.327484 257.433642 
L 418.43567 257.760781 
L 418.652042 272.087807 
L 418.760228 273.236249 
L 419.192973 272.809905 
L 419.301159 272.025678 
L 419.517531 274.300643 
L 420.166648 261.414414 
L 420.274834 259.237285 
L 420.599393 258.856927 
L 420.707579 256.734423 
L 420.815765 257.528476 
L 420.923951 255.373203 
L 421.032137 255.508134 
L 421.356695 255.410757 
L 421.464882 254.776978 
L 421.681254 241.05179 
L 421.78944 240.442627 
L 422.222184 239.271335 
L 422.330371 239.456402 
L 422.438557 238.16038 
L 422.546743 238.505799 
L 422.871301 238.854291 
L 422.979487 236.909926 
L 423.087673 239.995928 
L 423.19586 239.586996 
L 423.304046 243.242129 
L 423.628604 242.501309 
L 423.953162 244.781807 
L 424.061349 246.100107 
L 424.710465 247.028598 
L 424.818651 247.739443 
L 425.251396 260.424354 
L 425.575954 263.724621 
L 426.008699 266.225834 
L 426.116885 266.142346 
L 426.225071 261.494699 
L 426.333257 265.520185 
L 426.657816 266.11079 
L 426.766002 266.799759 
L 426.874188 266.611537 
L 427.09056 269.278049 
L 427.415118 269.13088 
L 427.523305 269.297325 
L 427.631491 270.126403 
L 427.739677 269.939748 
L 427.847863 268.424306 
L 428.172421 267.850771 
L 428.388794 267.936091 
L 428.605166 268.601015 
L 428.929724 268.546839 
L 429.146097 268.092471 
L 429.254283 268.458575 
L 429.362469 273.578732 
L 429.687027 273.114397 
L 429.795213 270.649599 
L 429.903399 271.250177 
L 430.011586 271.058771 
L 430.119772 271.468192 
L 430.44433 271.443161 
L 430.768888 269.588799 
L 430.877075 269.487675 
L 431.201633 270.001942 
L 431.526191 271.445386 
L 431.634377 271.179848 
L 431.958936 271.027612 
L 432.067122 270.467044 
L 432.175308 270.62359 
L 432.39168 272.26503 
L 432.824425 272.091912 
L 432.932611 276.205614 
L 433.040797 273.557136 
L 433.148983 268.15929 
L 433.473542 268.001849 
L 433.581728 268.373734 
L 433.689914 268.181757 
L 433.906286 269.734538 
L 434.230844 270.347745 
L 434.339031 270.120455 
L 434.447217 270.666396 
L 434.663589 269.068954 
L 434.988147 269.043918 
L 435.20452 266.977863 
L 435.312706 266.534346 
L 435.420892 266.845119 
L 435.74545 267.045282 
L 435.853636 265.083642 
L 436.502753 272.51031 
L 436.610939 272.513516 
L 436.827312 273.147307 
L 436.935498 272.986943 
L 437.368242 271.587539 
L 437.476428 270.271542 
L 437.584614 270.396967 
L 437.692801 272.137742 
L 438.017359 272.00665 
L 438.125545 270.034735 
L 438.341917 270.806901 
L 438.450103 270.304108 
L 438.882848 270.413154 
L 439.09922 271.754822 
L 439.207406 271.815385 
L 439.640151 271.60968 
L 439.964709 267.176938 
L 440.289268 267.599713 
L 440.397454 267.456288 
L 440.50564 267.539979 
L 440.722012 269.634817 
L 441.154757 266.948189 
L 441.262943 268.846844 
L 441.479315 269.665572 
L 441.803873 269.425887 
L 441.912059 271.684115 
L 442.128432 271.363153 
L 442.236618 272.310634 
L 442.561176 270.564244 
L 442.885735 264.74132 
L 442.993921 264.430237 
L 443.318479 265.959097 
L 443.534851 265.475323 
L 443.643037 266.749497 
L 443.751224 266.594372 
L 444.075782 266.736193 
L 444.183968 266.476403 
L 444.40034 268.812059 
L 444.508526 268.837812 
L 444.941271 266.874682 
L 445.049457 266.957764 
L 445.157643 266.763713 
L 445.265829 267.052765 
L 445.698574 266.615867 
L 446.023132 268.530375 
L 446.347691 268.834358 
L 446.455877 270.600084 
L 446.564063 270.501286 
L 446.672249 268.250537 
L 446.780435 269.872258 
L 447.321366 268.196787 
L 447.429552 266.166029 
L 447.537738 266.339174 
L 447.970483 263.866337 
L 448.727785 260.735074 
L 448.835972 260.712347 
L 448.944158 262.065063 
L 449.052344 261.820671 
L 449.376902 262.665267 
L 449.593274 258.647629 
L 449.701461 258.463717 
L 449.809647 259.303395 
L 450.242391 260.641584 
L 450.350577 259.562277 
L 450.458763 260.061074 
L 450.56695 261.984332 
L 450.999694 261.075199 
L 451.10788 263.431931 
L 451.216066 263.390455 
L 451.324252 263.921768 
L 451.648811 263.83296 
L 451.865183 269.331938 
L 451.973369 269.714265 
L 452.081555 269.337221 
L 452.406114 270.017222 
L 452.5143 269.893755 
L 452.730672 275.793428 
L 452.838858 275.78366 
L 453.163417 277.169015 
L 453.271603 277.132601 
L 453.487975 275.200639 
L 453.596161 279.847001 
L 453.92072 279.451835 
L 454.028906 278.354587 
L 454.245278 253.585364 
L 454.353464 253.15797 
L 454.678022 252.967738 
L 454.786209 253.150603 
L 454.894395 252.871925 
L 455.002581 253.701962 
L 455.110767 253.687746 
L 455.435325 253.739191 
L 455.543511 253.373875 
L 455.759884 253.605216 
L 456.517187 254.305846 
L 456.625373 255.292921 
L 456.949931 255.426095 
L 457.274489 254.545817 
L 457.382676 280.297995 
L 457.707234 281.331576 
L 457.923606 283.771095 
L 458.139978 283.379176 
L 458.464537 282.846192 
L 458.572723 283.427983 
L 458.789095 282.987049 
L 458.897281 281.01154 
L 459.330026 281.12812 
L 459.438212 280.837649 
L 459.654584 281.047843 
L 460.195515 279.537623 
L 460.303701 279.672349 
L 460.411887 280.120853 
L 460.844632 276.089315 
L 461.061004 277.746951 
L 461.16919 277.665955 
L 461.601935 276.837342 
L 461.818307 277.481133 
L 461.926493 277.44972 
L 462.251051 277.234807 
L 462.359237 278.065994 
L 462.467424 277.167943 
L 462.683796 263.476942 
L 463.008354 262.497696 
L 463.224726 260.027658 
L 463.332913 259.673239 
L 463.441099 259.884162 
L 463.873843 259.887616 
L 463.982029 260.380514 
L 464.198402 262.593287 
L 464.631146 262.253794 
L 464.739332 261.527597 
L 464.847518 262.190397 
L 465.280263 261.972499 
L 465.496635 261.681861 
L 465.604821 261.267275 
L 465.713007 261.350537 
L 466.037566 261.82386 
L 466.253938 273.463208 
L 466.362124 275.238074 
L 466.47031 280.283421 
L 467.011241 281.509511 
L 467.119427 281.480354 
L 467.552171 280.138029 
L 467.87673 280.946012 
L 467.984916 283.13077 
L 468.41766 282.771136 
L 468.634033 283.753774 
L 468.742219 284.847682 
L 469.066777 284.80238 
L 469.174963 285.962587 
L 469.391336 285.327018 
L 469.82408 285.473569 
L 470.040452 284.671818 
L 470.148639 284.822636 
L 470.256825 284.75549 
L 470.581383 284.941232 
L 470.797755 284.33719 
L 470.905941 284.190417 
L 471.014128 281.984941 
L 471.338686 281.22839 
L 471.446872 280.302925 
L 471.77143 280.716228 
L 472.312361 279.40545 
L 472.420547 279.386791 
L 472.528733 278.295722 
L 472.961478 277.83367 
L 473.17785 277.040866 
L 473.286036 277.633207 
L 473.718781 277.118 
L 473.826967 277.149392 
L 474.043339 278.98465 
L 474.367897 279.220191 
L 474.476084 278.832248 
L 474.58427 278.914566 
L 474.692456 279.55987 
L 474.800642 279.462116 
L 475.233386 277.119306 
L 475.449759 278.113934 
L 475.557945 277.69134 
L 475.882503 278.701683 
L 475.990689 278.410921 
L 476.098875 278.497025 
L 476.207062 278.416722 
L 476.315248 279.074495 
L 476.639806 278.835215 
L 476.856178 279.120629 
L 477.072551 278.105522 
L 477.397109 278.24203 
L 477.505295 277.587915 
L 477.721667 278.740003 
L 477.829854 278.627281 
L 478.154412 278.606805 
L 478.370784 276.994535 
L 478.587156 275.95003 
L 478.911715 276.110098 
L 479.019901 276.320474 
L 479.128087 277.028105 
L 479.236273 276.51623 
L 479.344459 277.106089 
L 479.669018 276.881604 
L 479.88539 274.977978 
L 479.993576 273.994185 
L 480.101762 274.217875 
L 480.426321 274.304927 
L 480.534507 274.201547 
L 480.642693 274.988489 
L 480.859065 275.110135 
L 481.183623 275.017297 
L 481.508182 259.288161 
L 481.616368 259.687272 
L 481.940926 258.037548 
L 482.049112 254.255661 
L 482.157299 254.401382 
L 482.373671 252.404567 
L 482.806415 252.716027 
L 482.914601 251.900152 
L 483.022788 252.131644 
L 483.130974 252.0678 
L 483.563718 252.960424 
L 483.671904 252.486198 
L 483.888277 252.868943 
L 484.429207 253.038452 
L 484.537393 255.035713 
L 484.645579 261.438613 
L 485.18651 264.440546 
L 485.402882 272.195994 
L 485.727441 272.152084 
L 485.943813 275.37547 
L 486.051999 275.384511 
L 486.160185 275.007518 
L 486.917488 279.443385 
L 487.350233 278.695252 
L 487.458419 278.734783 
L 487.566605 277.699729 
L 487.674791 278.104431 
L 488.107536 279.760562 
L 488.215722 279.890887 
L 488.323908 280.545771 
L 488.432094 280.180921 
L 488.973025 276.008892 
L 489.189397 276.738842 
L 489.513955 277.058842 
L 489.622141 276.901428 
L 489.838514 278.014414 
L 489.9467 277.765615 
L 490.379444 277.070394 
L 490.48763 277.47635 
L 490.704003 278.414115 
L 491.028561 279.147144 
L 491.136747 278.403172 
L 491.353119 278.693698 
L 491.461305 277.97594 
L 491.89405 277.974002 
L 492.110422 283.366455 
L 492.218608 282.222421 
L 492.759539 282.261386 
L 492.867725 283.03305 
L 492.975911 282.732901 
L 493.30047 282.478611 
L 493.408656 282.152 
L 493.516842 283.321326 
L 493.625028 283.242758 
L 493.733214 282.192137 
L 494.382331 264.998412 
L 494.815075 264.684279 
L 495.031448 265.01233 
L 495.139634 264.833391 
L 495.24782 265.046677 
L 495.788751 264.89198 
L 496.005123 264.320703 
L 496.329681 263.649285 
L 496.546053 263.137449 
L 496.762426 263.164879 
L 497.19517 263.168444 
L 497.519729 273.559497 
L 497.844287 273.492192 
L 497.952473 273.974563 
L 498.060659 275.186902 
L 498.277031 253.808068 
L 498.60159 254.00441 
L 498.709776 254.558769 
L 498.817962 254.2051 
L 499.034334 251.98171 
L 499.791637 179.191091 
L 500.224382 179.184271 
L 500.332568 178.744703 
L 500.54894 176.840096 
L 501.089871 173.424291 
L 501.198057 173.527189 
L 501.306243 173.691657 
L 501.630801 173.076599 
L 501.738988 175.972357 
L 501.847174 174.594578 
L 501.95536 166.894191 
L 502.063546 150.025535 
L 502.388104 149.369588 
L 502.49629 147.651127 
L 502.820849 178.996894 
L 503.253593 190.213704 
L 503.469966 190.24233 
L 503.578152 190.039497 
L 503.90271 190.216546 
L 504.010896 191.863183 
L 504.119082 191.763172 
L 504.335455 196.516954 
L 504.335455 196.516954 
" clip-path="url(#p81c1154167)" style="fill: none; stroke: #808080; stroke-width: 1.5; stroke-linecap: square"/>
   </g>
   <g id="line2d_32">
    <path d="M 113.134421 227.675698 
L 122.6548 221.994121 
L 132.932482 228.189327 
L 142.777419 229.572817 
L 152.622357 218.334147 
L 162.359108 235.425839 
L 172.420418 233.77875 
L 182.265355 233.017383 
L 192.110293 239.128937 
L 201.847044 239.880736 
L 211.908354 236.20533 
L 221.753292 237.308459 
L 231.598229 237.216638 
L 241.334981 241.846301 
L 251.39629 244.12953 
L 261.241228 241.028299 
L 271.086165 230.507647 
L 280.822917 235.004409 
L 291.208785 240.035424 
L 301.053723 244.242683 
L 310.89866 236.843809 
L 320.635411 226.386924 
L 330.696721 201.191169 
L 340.541659 207.749898 
L 350.386596 198.373922 
L 360.123348 206.665762 
L 370.184657 201.595765 
L 380.029595 201.043062 
L 389.874533 203.229525 
L 399.611284 224.533388 
L 409.564408 228.650461 
L 419.409345 222.533395 
L 429.362469 226.526184 
L 439.09922 219.948584 
L 449.376902 240.742816 
L 459.22184 240.089567 
L 469.174963 236.918995 
L 478.911715 216.290268 
" clip-path="url(#p81c1154167)" style="fill: none; stroke-dasharray: 1.5,2.475; stroke-dashoffset: 0; stroke: #ff0000; stroke-width: 1.5"/>
   </g>
   <g id="line2d_33">
    <path d="M 113.134421 199.052745 
L 122.6548 202.665932 
L 132.932482 200.332635 
L 142.777419 202.089295 
L 152.622357 198.231768 
L 162.359108 203.512798 
L 172.420418 202.408688 
L 182.265355 200.761143 
L 192.110293 198.389343 
L 201.847044 196.383295 
L 211.908354 192.540885 
L 221.753292 194.496873 
L 231.598229 192.730213 
L 241.334981 193.694219 
L 251.39629 194.603212 
L 261.241228 191.667049 
L 271.086165 192.395162 
L 280.822917 192.555262 
L 291.208785 185.238259 
L 301.053723 190.397012 
L 310.89866 190.49426 
L 320.635411 191.850735 
L 330.696721 201.928802 
L 340.541659 192.488523 
L 350.386596 182.802252 
L 360.123348 189.583793 
L 370.184657 190.288394 
L 380.029595 189.610259 
L 389.874533 189.155611 
L 399.611284 191.837165 
L 409.564408 194.210439 
L 419.409345 197.034385 
L 429.362469 197.866305 
L 439.09922 196.489211 
L 449.376902 193.485339 
L 459.22184 193.580692 
L 469.174963 188.601191 
L 478.911715 187.778333 
" clip-path="url(#p81c1154167)" style="fill: none; stroke-dasharray: 9.6,2.4,1.5,2.4; stroke-dashoffset: 0; stroke: #ff0000; stroke-width: 1.5"/>
   </g>
   <g id="line2d_34">
    <path d="M 113.134421 207.803371 
L 122.6548 207.775854 
L 132.932482 208.863381 
L 142.777419 204.094003 
L 152.622357 201.850906 
L 162.359108 205.186083 
L 172.420418 208.585075 
L 182.265355 206.020838 
L 192.110293 211.864114 
L 201.847044 206.922547 
L 211.908354 191.139317 
L 221.753292 192.047333 
L 231.598229 190.395791 
L 241.334981 194.493749 
L 251.39629 197.821864 
L 261.241228 195.637496 
L 271.086165 206.81948 
L 280.822917 193.49805 
L 291.208785 186.082749 
L 301.053723 187.174148 
L 310.89866 190.290089 
L 320.635411 192.630026 
L 330.696721 197.457615 
L 340.541659 200.235862 
L 350.386596 219.608936 
L 360.123348 192.83801 
L 370.184657 187.835203 
L 380.029595 189.164458 
L 389.874533 194.186512 
L 399.611284 206.431579 
L 409.564408 196.59609 
L 419.409345 201.595772 
L 429.362469 206.166125 
L 439.09922 211.167835 
L 449.376902 202.624141 
L 459.22184 197.722691 
L 469.174963 190.11368 
L 478.911715 200.786136 
" clip-path="url(#p81c1154167)" style="fill: none; stroke-dasharray: 5.55,2.4; stroke-dashoffset: 0; stroke: #ff0000; stroke-width: 1.5"/>
   </g>
   <g id="line2d_35">
    <path d="M 113.134421 235.148973 
L 122.6548 232.065999 
L 132.932482 229.546284 
L 142.777419 228.360488 
L 152.622357 228.981884 
L 162.359108 231.595611 
L 172.420418 232.33394 
L 182.265355 233.317683 
L 192.110293 235.603707 
L 201.847044 235.029813 
L 211.908354 233.736937 
L 221.753292 232.863975 
L 231.598229 231.774841 
L 241.334981 231.286198 
L 251.39629 232.18932 
L 261.241228 227.450006 
L 271.086165 234.262334 
L 280.822917 234.224537 
L 291.208785 232.75238 
L 301.053723 233.088756 
L 310.89866 232.449059 
L 320.635411 230.9998 
L 330.696721 222.970631 
L 340.541659 225.068767 
L 350.386596 205.503796 
L 360.123348 209.891639 
L 370.184657 210.829134 
L 380.029595 211.020668 
L 389.874533 219.989539 
L 399.611284 228.106198 
L 409.564408 224.859347 
L 419.409345 222.752846 
L 429.362469 222.373384 
L 439.09922 227.355565 
L 449.376902 228.560683 
L 459.22184 228.03914 
L 469.174963 222.941352 
L 478.911715 211.892165 
" clip-path="url(#p81c1154167)" style="fill: none; stroke: #ff0000; stroke-width: 1.5; stroke-linecap: square"/>
   </g>
   <g id="line2d_36">
    <path d="M 113.134421 236.719799 
L 122.6548 230.631331 
L 132.932482 227.204837 
L 142.777419 225.536245 
L 152.622357 226.331216 
L 162.359108 227.204556 
L 172.420418 228.435156 
L 182.265355 232.638083 
L 192.110293 232.914516 
L 201.847044 232.939731 
L 211.908354 229.337079 
L 221.753292 228.995099 
L 231.598229 227.460237 
L 241.334981 227.111661 
L 251.39629 228.445987 
L 261.241228 224.685818 
L 271.086165 232.775004 
L 280.822917 227.978605 
L 291.208785 226.243385 
L 301.053723 225.897451 
L 310.89866 225.370904 
L 320.635411 226.016583 
L 330.696721 223.207872 
L 340.541659 224.029294 
L 350.386596 219.826707 
L 360.123348 210.858414 
L 370.184657 211.341475 
L 380.029595 211.06522 
L 389.874533 219.408141 
L 399.611284 225.84999 
L 409.564408 223.190275 
L 419.409345 221.836361 
L 429.362469 220.831112 
L 439.09922 225.75047 
L 449.376902 224.607256 
L 459.22184 223.075807 
L 469.174963 216.95581 
L 478.911715 210.955195 
" clip-path="url(#p81c1154167)" style="fill: none; stroke: #ff7f0e; stroke-width: 1.5; stroke-linecap: square"/>
   </g>
   <g id="line2d_37">
    <path d="M 113.134421 233.267697 
L 122.6548 231.029205 
L 132.932482 226.164253 
L 142.777419 224.421297 
L 152.622357 224.204481 
L 162.359108 230.485675 
L 172.420418 228.970343 
L 182.265355 229.102822 
L 192.110293 234.295748 
L 201.847044 235.367943 
L 211.908354 233.249337 
L 221.753292 231.932321 
L 231.598229 229.651386 
L 241.334981 229.54658 
L 251.39629 231.484587 
L 261.241228 227.170523 
L 271.086165 233.197945 
L 280.822917 231.732399 
L 291.208785 227.700958 
L 301.053723 228.005471 
L 310.89866 224.516553 
L 320.635411 223.57332 
L 330.696721 222.740668 
L 340.541659 225.261959 
L 350.386596 213.984015 
L 360.123348 208.617079 
L 370.184657 211.367742 
L 380.029595 210.08509 
L 389.874533 216.654858 
L 399.611284 227.493774 
L 409.564408 225.087497 
L 419.409345 222.835813 
L 429.362469 220.780319 
L 439.09922 222.576155 
L 449.376902 225.415626 
L 459.22184 222.901205 
L 469.174963 214.756628 
L 478.911715 210.751091 
" clip-path="url(#p81c1154167)" style="fill: none; stroke: #1f77b4; stroke-width: 1.5; stroke-linecap: square"/>
   </g>
   <g id="legend_1">
    <g id="patch_7">
     <path d="M 79.9 151.570875 
L 231.653125 151.570875 
Q 233.653125 151.570875 233.653125 149.570875 
L 233.653125 47.824 
Q 233.653125 45.824 231.653125 45.824 
L 79.9 45.824 
Q 77.9 45.824 77.9 47.824 
L 77.9 149.570875 
Q 77.9 151.570875 79.9 151.570875 
z
" style="fill: #ffffff; opacity: 0.8; stroke: #e6e6e6; stroke-linejoin: miter"/>
    </g>
    <g id="line2d_38">
     <path d="M 81.9 53.922438 
L 91.9 53.922438 
L 101.9 53.922438 
" style="fill: none; stroke: #808080; stroke-width: 1.5; stroke-linecap: square"/>
    </g>
    <g id="text_18">
     <!-- GameStop Log-Volatility -->
     <g transform="translate(109.9 57.422438)scale(0.1 -0.1)">
      <defs>
       <path id="DejaVuSans-47" d="M 3809 666 
L 3809 1919 
L 2778 1919 
L 2778 2438 
L 4434 2438 
L 4434 434 
Q 4069 175 3628 42 
Q 3188 -91 2688 -91 
Q 1594 -91 976 548 
Q 359 1188 359 2328 
Q 359 3472 976 4111 
Q 1594 4750 2688 4750 
Q 3144 4750 3555 4637 
Q 3966 4525 4313 4306 
L 4313 3634 
Q 3963 3931 3569 4081 
Q 3175 4231 2741 4231 
Q 1884 4231 1454 3753 
Q 1025 3275 1025 2328 
Q 1025 1384 1454 906 
Q 1884 428 2741 428 
Q 3075 428 3337 486 
Q 3600 544 3809 666 
z
" transform="scale(0.015625)"/>
       <path id="DejaVuSans-53" d="M 3425 4513 
L 3425 3897 
Q 3066 4069 2747 4153 
Q 2428 4238 2131 4238 
Q 1616 4238 1336 4038 
Q 1056 3838 1056 3469 
Q 1056 3159 1242 3001 
Q 1428 2844 1947 2747 
L 2328 2669 
Q 3034 2534 3370 2195 
Q 3706 1856 3706 1288 
Q 3706 609 3251 259 
Q 2797 -91 1919 -91 
Q 1588 -91 1214 -16 
Q 841 59 441 206 
L 441 856 
Q 825 641 1194 531 
Q 1563 422 1919 422 
Q 2459 422 2753 634 
Q 3047 847 3047 1241 
Q 3047 1584 2836 1778 
Q 2625 1972 2144 2069 
L 1759 2144 
Q 1053 2284 737 2584 
Q 422 2884 422 3419 
Q 422 4038 858 4394 
Q 1294 4750 2059 4750 
Q 2388 4750 2728 4690 
Q 3069 4631 3425 4513 
z
" transform="scale(0.015625)"/>
       <path id="DejaVuSans-70" d="M 1159 525 
L 1159 -1331 
L 581 -1331 
L 581 3500 
L 1159 3500 
L 1159 2969 
Q 1341 3281 1617 3432 
Q 1894 3584 2278 3584 
Q 2916 3584 3314 3078 
Q 3713 2572 3713 1747 
Q 3713 922 3314 415 
Q 2916 -91 2278 -91 
Q 1894 -91 1617 61 
Q 1341 213 1159 525 
z
M 3116 1747 
Q 3116 2381 2855 2742 
Q 2594 3103 2138 3103 
Q 1681 3103 1420 2742 
Q 1159 2381 1159 1747 
Q 1159 1113 1420 752 
Q 1681 391 2138 391 
Q 2594 391 2855 752 
Q 3116 1113 3116 1747 
z
" transform="scale(0.015625)"/>
       <path id="DejaVuSans-4c" d="M 628 4666 
L 1259 4666 
L 1259 531 
L 3531 531 
L 3531 0 
L 628 0 
L 628 4666 
z
" transform="scale(0.015625)"/>
       <path id="DejaVuSans-67" d="M 2906 1791 
Q 2906 2416 2648 2759 
Q 2391 3103 1925 3103 
Q 1463 3103 1205 2759 
Q 947 2416 947 1791 
Q 947 1169 1205 825 
Q 1463 481 1925 481 
Q 2391 481 2648 825 
Q 2906 1169 2906 1791 
z
M 3481 434 
Q 3481 -459 3084 -895 
Q 2688 -1331 1869 -1331 
Q 1566 -1331 1297 -1286 
Q 1028 -1241 775 -1147 
L 775 -588 
Q 1028 -725 1275 -790 
Q 1522 -856 1778 -856 
Q 2344 -856 2625 -561 
Q 2906 -266 2906 331 
L 2906 616 
Q 2728 306 2450 153 
Q 2172 0 1784 0 
Q 1141 0 747 490 
Q 353 981 353 1791 
Q 353 2603 747 3093 
Q 1141 3584 1784 3584 
Q 2172 3584 2450 3431 
Q 2728 3278 2906 2969 
L 2906 3500 
L 3481 3500 
L 3481 434 
z
" transform="scale(0.015625)"/>
      </defs>
      <use xlink:href="#DejaVuSans-47"/>
      <use xlink:href="#DejaVuSans-61" x="77.490234"/>
      <use xlink:href="#DejaVuSans-6d" x="138.769531"/>
      <use xlink:href="#DejaVuSans-65" x="236.181641"/>
      <use xlink:href="#DejaVuSans-53" x="297.705078"/>
      <use xlink:href="#DejaVuSans-74" x="361.181641"/>
      <use xlink:href="#DejaVuSans-6f" x="400.390625"/>
      <use xlink:href="#DejaVuSans-70" x="461.572266"/>
      <use xlink:href="#DejaVuSans-20" x="525.048828"/>
      <use xlink:href="#DejaVuSans-4c" x="556.835938"/>
      <use xlink:href="#DejaVuSans-6f" x="610.798828"/>
      <use xlink:href="#DejaVuSans-67" x="671.980469"/>
      <use xlink:href="#DejaVuSans-2d" x="735.457031"/>
      <use xlink:href="#DejaVuSans-56" x="765.666016"/>
      <use xlink:href="#DejaVuSans-6f" x="826.324219"/>
      <use xlink:href="#DejaVuSans-6c" x="887.505859"/>
      <use xlink:href="#DejaVuSans-61" x="915.289062"/>
      <use xlink:href="#DejaVuSans-74" x="976.568359"/>
      <use xlink:href="#DejaVuSans-69" x="1015.777344"/>
      <use xlink:href="#DejaVuSans-6c" x="1043.560547"/>
      <use xlink:href="#DejaVuSans-69" x="1071.34375"/>
      <use xlink:href="#DejaVuSans-74" x="1099.126953"/>
      <use xlink:href="#DejaVuSans-79" x="1138.335938"/>
     </g>
    </g>
    <g id="line2d_39">
     <path d="M 81.9 68.600563 
L 91.9 68.600563 
L 101.9 68.600563 
" style="fill: none; stroke-dasharray: 1.5,2.475; stroke-dashoffset: 0; stroke: #ff0000; stroke-width: 1.5"/>
    </g>
    <g id="text_19">
     <!-- R/S Hurst -->
     <g transform="translate(109.9 72.100563)scale(0.1 -0.1)">
      <defs>
       <path id="DejaVuSans-52" d="M 2841 2188 
Q 3044 2119 3236 1894 
Q 3428 1669 3622 1275 
L 4263 0 
L 3584 0 
L 2988 1197 
Q 2756 1666 2539 1819 
Q 2322 1972 1947 1972 
L 1259 1972 
L 1259 0 
L 628 0 
L 628 4666 
L 2053 4666 
Q 2853 4666 3247 4331 
Q 3641 3997 3641 3322 
Q 3641 2881 3436 2590 
Q 3231 2300 2841 2188 
z
M 1259 4147 
L 1259 2491 
L 2053 2491 
Q 2509 2491 2742 2702 
Q 2975 2913 2975 3322 
Q 2975 3731 2742 3939 
Q 2509 4147 2053 4147 
L 1259 4147 
z
" transform="scale(0.015625)"/>
       <path id="DejaVuSans-2f" d="M 1625 4666 
L 2156 4666 
L 531 -594 
L 0 -594 
L 1625 4666 
z
" transform="scale(0.015625)"/>
      </defs>
      <use xlink:href="#DejaVuSans-52"/>
      <use xlink:href="#DejaVuSans-2f" x="69.482422"/>
      <use xlink:href="#DejaVuSans-53" x="103.173828"/>
      <use xlink:href="#DejaVuSans-20" x="166.650391"/>
      <use xlink:href="#DejaVuSans-48" x="198.4375"/>
      <use xlink:href="#DejaVuSans-75" x="273.632812"/>
      <use xlink:href="#DejaVuSans-72" x="337.011719"/>
      <use xlink:href="#DejaVuSans-73" x="378.125"/>
      <use xlink:href="#DejaVuSans-74" x="430.224609"/>
     </g>
    </g>
    <g id="line2d_40">
     <path d="M 81.9 83.278687 
L 91.9 83.278687 
L 101.9 83.278687 
" style="fill: none; stroke-dasharray: 9.6,2.4,1.5,2.4; stroke-dashoffset: 0; stroke: #ff0000; stroke-width: 1.5"/>
    </g>
    <g id="text_20">
     <!-- variogram Hurst -->
     <g transform="translate(109.9 86.778687)scale(0.1 -0.1)">
      <defs>
       <path id="DejaVuSans-76" d="M 191 3500 
L 800 3500 
L 1894 563 
L 2988 3500 
L 3597 3500 
L 2284 0 
L 1503 0 
L 191 3500 
z
" transform="scale(0.015625)"/>
      </defs>
      <use xlink:href="#DejaVuSans-76"/>
      <use xlink:href="#DejaVuSans-61" x="59.179688"/>
      <use xlink:href="#DejaVuSans-72" x="120.458984"/>
      <use xlink:href="#DejaVuSans-69" x="161.572266"/>
      <use xlink:href="#DejaVuSans-6f" x="189.355469"/>
      <use xlink:href="#DejaVuSans-67" x="250.537109"/>
      <use xlink:href="#DejaVuSans-72" x="314.013672"/>
      <use xlink:href="#DejaVuSans-61" x="355.126953"/>
      <use xlink:href="#DejaVuSans-6d" x="416.40625"/>
      <use xlink:href="#DejaVuSans-20" x="513.818359"/>
      <use xlink:href="#DejaVuSans-48" x="545.605469"/>
      <use xlink:href="#DejaVuSans-75" x="620.800781"/>
      <use xlink:href="#DejaVuSans-72" x="684.179688"/>
      <use xlink:href="#DejaVuSans-73" x="725.292969"/>
      <use xlink:href="#DejaVuSans-74" x="777.392578"/>
     </g>
    </g>
    <g id="line2d_41">
     <path d="M 81.9 97.956813 
L 91.9 97.956813 
L 101.9 97.956813 
" style="fill: none; stroke-dasharray: 5.55,2.4; stroke-dashoffset: 0; stroke: #ff0000; stroke-width: 1.5"/>
    </g>
    <g id="text_21">
     <!-- Higuchi Hurst -->
     <g transform="translate(109.9 101.456813)scale(0.1 -0.1)">
      <defs>
       <path id="DejaVuSans-63" d="M 3122 3366 
L 3122 2828 
Q 2878 2963 2633 3030 
Q 2388 3097 2138 3097 
Q 1578 3097 1268 2742 
Q 959 2388 959 1747 
Q 959 1106 1268 751 
Q 1578 397 2138 397 
Q 2388 397 2633 464 
Q 2878 531 3122 666 
L 3122 134 
Q 2881 22 2623 -34 
Q 2366 -91 2075 -91 
Q 1284 -91 818 406 
Q 353 903 353 1747 
Q 353 2603 823 3093 
Q 1294 3584 2113 3584 
Q 2378 3584 2631 3529 
Q 2884 3475 3122 3366 
z
" transform="scale(0.015625)"/>
       <path id="DejaVuSans-68" d="M 3513 2113 
L 3513 0 
L 2938 0 
L 2938 2094 
Q 2938 2591 2744 2837 
Q 2550 3084 2163 3084 
Q 1697 3084 1428 2787 
Q 1159 2491 1159 1978 
L 1159 0 
L 581 0 
L 581 4863 
L 1159 4863 
L 1159 2956 
Q 1366 3272 1645 3428 
Q 1925 3584 2291 3584 
Q 2894 3584 3203 3211 
Q 3513 2838 3513 2113 
z
" transform="scale(0.015625)"/>
      </defs>
      <use xlink:href="#DejaVuSans-48"/>
      <use xlink:href="#DejaVuSans-69" x="75.195312"/>
      <use xlink:href="#DejaVuSans-67" x="102.978516"/>
      <use xlink:href="#DejaVuSans-75" x="166.455078"/>
      <use xlink:href="#DejaVuSans-63" x="229.833984"/>
      <use xlink:href="#DejaVuSans-68" x="284.814453"/>
      <use xlink:href="#DejaVuSans-69" x="348.193359"/>
      <use xlink:href="#DejaVuSans-20" x="375.976562"/>
      <use xlink:href="#DejaVuSans-48" x="407.763672"/>
      <use xlink:href="#DejaVuSans-75" x="482.958984"/>
      <use xlink:href="#DejaVuSans-72" x="546.337891"/>
      <use xlink:href="#DejaVuSans-73" x="587.451172"/>
      <use xlink:href="#DejaVuSans-74" x="639.550781"/>
     </g>
    </g>
    <g id="line2d_42">
     <path d="M 81.9 112.634938 
L 91.9 112.634938 
L 101.9 112.634938 
" style="fill: none; stroke: #ff0000; stroke-width: 1.5; stroke-linecap: square"/>
    </g>
    <g id="text_22">
     <!-- Whittle Hurst -->
     <g transform="translate(109.9 116.134938)scale(0.1 -0.1)">
      <defs>
       <path id="DejaVuSans-57" d="M 213 4666 
L 850 4666 
L 1831 722 
L 2809 4666 
L 3519 4666 
L 4500 722 
L 5478 4666 
L 6119 4666 
L 4947 0 
L 4153 0 
L 3169 4050 
L 2175 0 
L 1381 0 
L 213 4666 
z
" transform="scale(0.015625)"/>
      </defs>
      <use xlink:href="#DejaVuSans-57"/>
      <use xlink:href="#DejaVuSans-68" x="98.876953"/>
      <use xlink:href="#DejaVuSans-69" x="162.255859"/>
      <use xlink:href="#DejaVuSans-74" x="190.039062"/>
      <use xlink:href="#DejaVuSans-74" x="229.248047"/>
      <use xlink:href="#DejaVuSans-6c" x="268.457031"/>
      <use xlink:href="#DejaVuSans-65" x="296.240234"/>
      <use xlink:href="#DejaVuSans-20" x="357.763672"/>
      <use xlink:href="#DejaVuSans-48" x="389.550781"/>
      <use xlink:href="#DejaVuSans-75" x="464.746094"/>
      <use xlink:href="#DejaVuSans-72" x="528.125"/>
      <use xlink:href="#DejaVuSans-73" x="569.238281"/>
      <use xlink:href="#DejaVuSans-74" x="621.337891"/>
     </g>
    </g>
    <g id="line2d_43">
     <path d="M 81.9 127.313063 
L 91.9 127.313063 
L 101.9 127.313063 
" style="fill: none; stroke: #ff7f0e; stroke-width: 1.5; stroke-linecap: square"/>
    </g>
    <g id="text_23">
     <!-- 1D CNN Hurst -->
     <g transform="translate(109.9 130.813063)scale(0.1 -0.1)">
      <defs>
       <path id="DejaVuSans-43" d="M 4122 4306 
L 4122 3641 
Q 3803 3938 3442 4084 
Q 3081 4231 2675 4231 
Q 1875 4231 1450 3742 
Q 1025 3253 1025 2328 
Q 1025 1406 1450 917 
Q 1875 428 2675 428 
Q 3081 428 3442 575 
Q 3803 722 4122 1019 
L 4122 359 
Q 3791 134 3420 21 
Q 3050 -91 2638 -91 
Q 1578 -91 968 557 
Q 359 1206 359 2328 
Q 359 3453 968 4101 
Q 1578 4750 2638 4750 
Q 3056 4750 3426 4639 
Q 3797 4528 4122 4306 
z
" transform="scale(0.015625)"/>
       <path id="DejaVuSans-4e" d="M 628 4666 
L 1478 4666 
L 3547 763 
L 3547 4666 
L 4159 4666 
L 4159 0 
L 3309 0 
L 1241 3903 
L 1241 0 
L 628 0 
L 628 4666 
z
" transform="scale(0.015625)"/>
      </defs>
      <use xlink:href="#DejaVuSans-31"/>
      <use xlink:href="#DejaVuSans-44" x="63.623047"/>
      <use xlink:href="#DejaVuSans-20" x="140.625"/>
      <use xlink:href="#DejaVuSans-43" x="172.412109"/>
      <use xlink:href="#DejaVuSans-4e" x="242.236328"/>
      <use xlink:href="#DejaVuSans-4e" x="317.041016"/>
      <use xlink:href="#DejaVuSans-20" x="391.845703"/>
      <use xlink:href="#DejaVuSans-48" x="423.632812"/>
      <use xlink:href="#DejaVuSans-75" x="498.828125"/>
      <use xlink:href="#DejaVuSans-72" x="562.207031"/>
      <use xlink:href="#DejaVuSans-73" x="603.320312"/>
      <use xlink:href="#DejaVuSans-74" x="655.419922"/>
     </g>
    </g>
    <g id="line2d_44">
     <path d="M 81.9 141.991187 
L 91.9 141.991187 
L 101.9 141.991187 
" style="fill: none; stroke: #1f77b4; stroke-width: 1.5; stroke-linecap: square"/>
    </g>
    <g id="text_24">
     <!-- LSTM Hurst -->
     <g transform="translate(109.9 145.491187)scale(0.1 -0.1)">
      <defs>
       <path id="DejaVuSans-54" d="M -19 4666 
L 3928 4666 
L 3928 4134 
L 2272 4134 
L 2272 0 
L 1638 0 
L 1638 4134 
L -19 4134 
L -19 4666 
z
" transform="scale(0.015625)"/>
       <path id="DejaVuSans-4d" d="M 628 4666 
L 1569 4666 
L 2759 1491 
L 3956 4666 
L 4897 4666 
L 4897 0 
L 4281 0 
L 4281 4097 
L 3078 897 
L 2444 897 
L 1241 4097 
L 1241 0 
L 628 0 
L 628 4666 
z
" transform="scale(0.015625)"/>
      </defs>
      <use xlink:href="#DejaVuSans-4c"/>
      <use xlink:href="#DejaVuSans-53" x="55.712891"/>
      <use xlink:href="#DejaVuSans-54" x="119.189453"/>
      <use xlink:href="#DejaVuSans-4d" x="180.273438"/>
      <use xlink:href="#DejaVuSans-20" x="266.552734"/>
      <use xlink:href="#DejaVuSans-48" x="298.339844"/>
      <use xlink:href="#DejaVuSans-75" x="373.535156"/>
      <use xlink:href="#DejaVuSans-72" x="436.914062"/>
      <use xlink:href="#DejaVuSans-73" x="478.027344"/>
      <use xlink:href="#DejaVuSans-74" x="530.126953"/>
     </g>
    </g>
   </g>
  </g>
 </g>
 <defs>
  <clipPath id="p81c1154167">
   <rect x="72.9" y="40.824" width="451.98" height="261.954"/>
  </clipPath>
 </defs>
</svg>
