<?xml version="1.0" encoding="utf-8" standalone="no"?>
<!DOCTYPE svg PUBLIC "-//W3C//DTD SVG 1.1//EN"
  "http://www.w3.org/Graphics/SVG/1.1/DTD/svg11.dtd">
<svg xmlns:xlink="http://www.w3.org/1999/xlink" width="583.2pt" height="340.2pt" viewBox="0 0 583.2 340.2" xmlns="http://www.w3.org/2000/svg" version="1.1">
 <metadata>
  <rdf:RDF xmlns:dc="http://purl.org/dc/elements/1.1/" xmlns:cc="http://creativecommons.org/ns#" xmlns:rdf="http://www.w3.org/1999/02/22-rdf-syntax-ns#">
   <cc:Work>
    <dc:type rdf:resource="http://purl.org/dc/dcmitype/StillImage"/>
    <dc:date>2024-07-05T17:50:33.961878</dc:date>
    <dc:format>image/svg+xml</dc:format>
    <dc:creator>
     <cc:Agent>
      <dc:title>Matplotlib v3.5.1, https://matplotlib.org/</dc:title>
     </cc:Agent>
    </dc:creator>
   </cc:Work>
  </rdf:RDF>
 </metadata>
 <defs>
  <style type="text/css">*{stroke-linejoin: round; stroke-linecap: butt}</style>
 </defs>
 <g id="figure_1">
  <g id="patch_1">
   <path d="M 0 340.2 
L 583.2 340.2 
L 583.2 0 
L 0 0 
z
" style="fill: #ffffff"/>
  </g>
  <g id="axes_1">
   <g id="patch_2">
    <path d="M 72.9 302.778 
L 524.88 302.778 
L 524.88 40.824 
L 72.9 40.824 
L 72.9 302.778 
z
" style="fill: none; opacity: 0"/>
   </g>
   <g id="matplotlib.axis_1">
    <g id="xtick_1">
     <g id="line2d_1">
      <path d="M 82.017793 302.778 
L 82.017793 40.824 
" clip-path="url(#p1b3d2ee0f6)" style="fill: none; stroke: #e6e6e6; stroke-width: 0.8; stroke-linecap: square"/>
     </g>
     <g id="line2d_2">
      <defs>
       <path id="m50f5d7aa5a" d="M 0 0 
L 0 3.5 
" style="stroke: #000000; stroke-width: 0.8"/>
      </defs>
      <g>
       <use xlink:href="#m50f5d7aa5a" x="82.017793" y="302.778" style="stroke: #000000; stroke-width: 0.8"/>
      </g>
     </g>
     <g id="text_1">
      <!-- 2000 -->
      <g transform="translate(69.292793 317.376438)scale(0.1 -0.1)">
       <defs>
        <path id="DejaVuSans-32" d="M 1228 531 
L 3431 531 
L 3431 0 
L 469 0 
L 469 531 
Q 828 903 1448 1529 
Q 2069 2156 2228 2338 
Q 2531 2678 2651 2914 
Q 2772 3150 2772 3378 
Q 2772 3750 2511 3984 
Q 2250 4219 1831 4219 
Q 1534 4219 1204 4116 
Q 875 4013 500 3803 
L 500 4441 
Q 881 4594 1212 4672 
Q 1544 4750 1819 4750 
Q 2544 4750 2975 4387 
Q 3406 4025 3406 3419 
Q 3406 3131 3298 2873 
Q 3191 2616 2906 2266 
Q 2828 2175 2409 1742 
Q 1991 1309 1228 531 
z
" transform="scale(0.015625)"/>
        <path id="DejaVuSans-30" d="M 2034 4250 
Q 1547 4250 1301 3770 
Q 1056 3291 1056 2328 
Q 1056 1369 1301 889 
Q 1547 409 2034 409 
Q 2525 409 2770 889 
Q 3016 1369 3016 2328 
Q 3016 3291 2770 3770 
Q 2525 4250 2034 4250 
z
M 2034 4750 
Q 2819 4750 3233 4129 
Q 3647 3509 3647 2328 
Q 3647 1150 3233 529 
Q 2819 -91 2034 -91 
Q 1250 -91 836 529 
Q 422 1150 422 2328 
Q 422 3509 836 4129 
Q 1250 4750 2034 4750 
z
" transform="scale(0.015625)"/>
       </defs>
       <use xlink:href="#DejaVuSans-32"/>
       <use xlink:href="#DejaVuSans-30" x="63.623047"/>
       <use xlink:href="#DejaVuSans-30" x="127.246094"/>
       <use xlink:href="#DejaVuSans-30" x="190.869141"/>
      </g>
     </g>
    </g>
    <g id="xtick_2">
     <g id="line2d_3">
      <path d="M 151.00327 302.778 
L 151.00327 40.824 
" clip-path="url(#p1b3d2ee0f6)" style="fill: none; stroke: #e6e6e6; stroke-width: 0.8; stroke-linecap: square"/>
     </g>
     <g id="line2d_4">
      <g>
       <use xlink:href="#m50f5d7aa5a" x="151.00327" y="302.778" style="stroke: #000000; stroke-width: 0.8"/>
      </g>
     </g>
     <g id="text_2">
      <!-- 2004 -->
      <g transform="translate(138.27827 317.376438)scale(0.1 -0.1)">
       <defs>
        <path id="DejaVuSans-34" d="M 2419 4116 
L 825 1625 
L 2419 1625 
L 2419 4116 
z
M 2253 4666 
L 3047 4666 
L 3047 1625 
L 3713 1625 
L 3713 1100 
L 3047 1100 
L 3047 0 
L 2419 0 
L 2419 1100 
L 313 1100 
L 313 1709 
L 2253 4666 
z
" transform="scale(0.015625)"/>
       </defs>
       <use xlink:href="#DejaVuSans-32"/>
       <use xlink:href="#DejaVuSans-30" x="63.623047"/>
       <use xlink:href="#DejaVuSans-30" x="127.246094"/>
       <use xlink:href="#DejaVuSans-34" x="190.869141"/>
      </g>
     </g>
    </g>
    <g id="xtick_3">
     <g id="line2d_5">
      <path d="M 219.988746 302.778 
L 219.988746 40.824 
" clip-path="url(#p1b3d2ee0f6)" style="fill: none; stroke: #e6e6e6; stroke-width: 0.8; stroke-linecap: square"/>
     </g>
     <g id="line2d_6">
      <g>
       <use xlink:href="#m50f5d7aa5a" x="219.988746" y="302.778" style="stroke: #000000; stroke-width: 0.8"/>
      </g>
     </g>
     <g id="text_3">
      <!-- 2008 -->
      <g transform="translate(207.263746 317.376438)scale(0.1 -0.1)">
       <defs>
        <path id="DejaVuSans-38" d="M 2034 2216 
Q 1584 2216 1326 1975 
Q 1069 1734 1069 1313 
Q 1069 891 1326 650 
Q 1584 409 2034 409 
Q 2484 409 2743 651 
Q 3003 894 3003 1313 
Q 3003 1734 2745 1975 
Q 2488 2216 2034 2216 
z
M 1403 2484 
Q 997 2584 770 2862 
Q 544 3141 544 3541 
Q 544 4100 942 4425 
Q 1341 4750 2034 4750 
Q 2731 4750 3128 4425 
Q 3525 4100 3525 3541 
Q 3525 3141 3298 2862 
Q 3072 2584 2669 2484 
Q 3125 2378 3379 2068 
Q 3634 1759 3634 1313 
Q 3634 634 3220 271 
Q 2806 -91 2034 -91 
Q 1263 -91 848 271 
Q 434 634 434 1313 
Q 434 1759 690 2068 
Q 947 2378 1403 2484 
z
M 1172 3481 
Q 1172 3119 1398 2916 
Q 1625 2713 2034 2713 
Q 2441 2713 2670 2916 
Q 2900 3119 2900 3481 
Q 2900 3844 2670 4047 
Q 2441 4250 2034 4250 
Q 1625 4250 1398 4047 
Q 1172 3844 1172 3481 
z
" transform="scale(0.015625)"/>
       </defs>
       <use xlink:href="#DejaVuSans-32"/>
       <use xlink:href="#DejaVuSans-30" x="63.623047"/>
       <use xlink:href="#DejaVuSans-30" x="127.246094"/>
       <use xlink:href="#DejaVuSans-38" x="190.869141"/>
      </g>
     </g>
    </g>
    <g id="xtick_4">
     <g id="line2d_7">
      <path d="M 288.974223 302.778 
L 288.974223 40.824 
" clip-path="url(#p1b3d2ee0f6)" style="fill: none; stroke: #e6e6e6; stroke-width: 0.8; stroke-linecap: square"/>
     </g>
     <g id="line2d_8">
      <g>
       <use xlink:href="#m50f5d7aa5a" x="288.974223" y="302.778" style="stroke: #000000; stroke-width: 0.8"/>
      </g>
     </g>
     <g id="text_4">
      <!-- 2012 -->
      <g transform="translate(276.249223 317.376438)scale(0.1 -0.1)">
       <defs>
        <path id="DejaVuSans-31" d="M 794 531 
L 1825 531 
L 1825 4091 
L 703 3866 
L 703 4441 
L 1819 4666 
L 2450 4666 
L 2450 531 
L 3481 531 
L 3481 0 
L 794 0 
L 794 531 
z
" transform="scale(0.015625)"/>
       </defs>
       <use xlink:href="#DejaVuSans-32"/>
       <use xlink:href="#DejaVuSans-30" x="63.623047"/>
       <use xlink:href="#DejaVuSans-31" x="127.246094"/>
       <use xlink:href="#DejaVuSans-32" x="190.869141"/>
      </g>
     </g>
    </g>
    <g id="xtick_5">
     <g id="line2d_9">
      <path d="M 357.9597 302.778 
L 357.9597 40.824 
" clip-path="url(#p1b3d2ee0f6)" style="fill: none; stroke: #e6e6e6; stroke-width: 0.8; stroke-linecap: square"/>
     </g>
     <g id="line2d_10">
      <g>
       <use xlink:href="#m50f5d7aa5a" x="357.9597" y="302.778" style="stroke: #000000; stroke-width: 0.8"/>
      </g>
     </g>
     <g id="text_5">
      <!-- 2016 -->
      <g transform="translate(345.2347 317.376438)scale(0.1 -0.1)">
       <defs>
        <path id="DejaVuSans-36" d="M 2113 2584 
Q 1688 2584 1439 2293 
Q 1191 2003 1191 1497 
Q 1191 994 1439 701 
Q 1688 409 2113 409 
Q 2538 409 2786 701 
Q 3034 994 3034 1497 
Q 3034 2003 2786 2293 
Q 2538 2584 2113 2584 
z
M 3366 4563 
L 3366 3988 
Q 3128 4100 2886 4159 
Q 2644 4219 2406 4219 
Q 1781 4219 1451 3797 
Q 1122 3375 1075 2522 
Q 1259 2794 1537 2939 
Q 1816 3084 2150 3084 
Q 2853 3084 3261 2657 
Q 3669 2231 3669 1497 
Q 3669 778 3244 343 
Q 2819 -91 2113 -91 
Q 1303 -91 875 529 
Q 447 1150 447 2328 
Q 447 3434 972 4092 
Q 1497 4750 2381 4750 
Q 2619 4750 2861 4703 
Q 3103 4656 3366 4563 
z
" transform="scale(0.015625)"/>
       </defs>
       <use xlink:href="#DejaVuSans-32"/>
       <use xlink:href="#DejaVuSans-30" x="63.623047"/>
       <use xlink:href="#DejaVuSans-31" x="127.246094"/>
       <use xlink:href="#DejaVuSans-36" x="190.869141"/>
      </g>
     </g>
    </g>
    <g id="xtick_6">
     <g id="line2d_11">
      <path d="M 426.945176 302.778 
L 426.945176 40.824 
" clip-path="url(#p1b3d2ee0f6)" style="fill: none; stroke: #e6e6e6; stroke-width: 0.8; stroke-linecap: square"/>
     </g>
     <g id="line2d_12">
      <g>
       <use xlink:href="#m50f5d7aa5a" x="426.945176" y="302.778" style="stroke: #000000; stroke-width: 0.8"/>
      </g>
     </g>
     <g id="text_6">
      <!-- 2020 -->
      <g transform="translate(414.220176 317.376438)scale(0.1 -0.1)">
       <use xlink:href="#DejaVuSans-32"/>
       <use xlink:href="#DejaVuSans-30" x="63.623047"/>
       <use xlink:href="#DejaVuSans-32" x="127.246094"/>
       <use xlink:href="#DejaVuSans-30" x="190.869141"/>
      </g>
     </g>
    </g>
    <g id="xtick_7">
     <g id="line2d_13">
      <path d="M 495.930653 302.778 
L 495.930653 40.824 
" clip-path="url(#p1b3d2ee0f6)" style="fill: none; stroke: #e6e6e6; stroke-width: 0.8; stroke-linecap: square"/>
     </g>
     <g id="line2d_14">
      <g>
       <use xlink:href="#m50f5d7aa5a" x="495.930653" y="302.778" style="stroke: #000000; stroke-width: 0.8"/>
      </g>
     </g>
     <g id="text_7">
      <!-- 2024 -->
      <g transform="translate(483.205653 317.376438)scale(0.1 -0.1)">
       <use xlink:href="#DejaVuSans-32"/>
       <use xlink:href="#DejaVuSans-30" x="63.623047"/>
       <use xlink:href="#DejaVuSans-32" x="127.246094"/>
       <use xlink:href="#DejaVuSans-34" x="190.869141"/>
      </g>
     </g>
    </g>
    <g id="text_8">
     <!-- Date -->
     <g transform="translate(286.939219 331.054562)scale(0.1 -0.1)">
      <defs>
       <path id="DejaVuSans-44" d="M 1259 4147 
L 1259 519 
L 2022 519 
Q 2988 519 3436 956 
Q 3884 1394 3884 2338 
Q 3884 3275 3436 3711 
Q 2988 4147 2022 4147 
L 1259 4147 
z
M 628 4666 
L 1925 4666 
Q 3281 4666 3915 4102 
Q 4550 3538 4550 2338 
Q 4550 1131 3912 565 
Q 3275 0 1925 0 
L 628 0 
L 628 4666 
z
" transform="scale(0.015625)"/>
       <path id="DejaVuSans-61" d="M 2194 1759 
Q 1497 1759 1228 1600 
Q 959 1441 959 1056 
Q 959 750 1161 570 
Q 1363 391 1709 391 
Q 2188 391 2477 730 
Q 2766 1069 2766 1631 
L 2766 1759 
L 2194 1759 
z
M 3341 1997 
L 3341 0 
L 2766 0 
L 2766 531 
Q 2569 213 2275 61 
Q 1981 -91 1556 -91 
Q 1019 -91 701 211 
Q 384 513 384 1019 
Q 384 1609 779 1909 
Q 1175 2209 1959 2209 
L 2766 2209 
L 2766 2266 
Q 2766 2663 2505 2880 
Q 2244 3097 1772 3097 
Q 1472 3097 1187 3025 
Q 903 2953 641 2809 
L 641 3341 
Q 956 3463 1253 3523 
Q 1550 3584 1831 3584 
Q 2591 3584 2966 3190 
Q 3341 2797 3341 1997 
z
" transform="scale(0.015625)"/>
       <path id="DejaVuSans-74" d="M 1172 4494 
L 1172 3500 
L 2356 3500 
L 2356 3053 
L 1172 3053 
L 1172 1153 
Q 1172 725 1289 603 
Q 1406 481 1766 481 
L 2356 481 
L 2356 0 
L 1766 0 
Q 1100 0 847 248 
Q 594 497 594 1153 
L 594 3053 
L 172 3053 
L 172 3500 
L 594 3500 
L 594 4494 
L 1172 4494 
z
" transform="scale(0.015625)"/>
       <path id="DejaVuSans-65" d="M 3597 1894 
L 3597 1613 
L 953 1613 
Q 991 1019 1311 708 
Q 1631 397 2203 397 
Q 2534 397 2845 478 
Q 3156 559 3463 722 
L 3463 178 
Q 3153 47 2828 -22 
Q 2503 -91 2169 -91 
Q 1331 -91 842 396 
Q 353 884 353 1716 
Q 353 2575 817 3079 
Q 1281 3584 2069 3584 
Q 2775 3584 3186 3129 
Q 3597 2675 3597 1894 
z
M 3022 2063 
Q 3016 2534 2758 2815 
Q 2500 3097 2075 3097 
Q 1594 3097 1305 2825 
Q 1016 2553 972 2059 
L 3022 2063 
z
" transform="scale(0.015625)"/>
      </defs>
      <use xlink:href="#DejaVuSans-44"/>
      <use xlink:href="#DejaVuSans-61" x="77.001953"/>
      <use xlink:href="#DejaVuSans-74" x="138.28125"/>
      <use xlink:href="#DejaVuSans-65" x="177.490234"/>
     </g>
    </g>
   </g>
   <g id="matplotlib.axis_2">
    <g id="ytick_1">
     <g id="line2d_15">
      <path d="M 72.9 277.150845 
L 524.88 277.150845 
" clip-path="url(#p1b3d2ee0f6)" style="fill: none; stroke: #e6e6e6; stroke-width: 0.8; stroke-linecap: square"/>
     </g>
     <g id="line2d_16">
      <defs>
       <path id="mc60ee829e1" d="M 0 0 
L -3.5 0 
" style="stroke: #000000; stroke-width: 0.8"/>
      </defs>
      <g>
       <use xlink:href="#mc60ee829e1" x="72.9" y="277.150845" style="stroke: #000000; stroke-width: 0.8"/>
      </g>
     </g>
     <g id="text_9">
      <!-- −0.1 -->
      <g transform="translate(41.617187 280.950064)scale(0.1 -0.1)">
       <defs>
        <path id="DejaVuSans-2212" d="M 678 2272 
L 4684 2272 
L 4684 1741 
L 678 1741 
L 678 2272 
z
" transform="scale(0.015625)"/>
        <path id="DejaVuSans-2e" d="M 684 794 
L 1344 794 
L 1344 0 
L 684 0 
L 684 794 
z
" transform="scale(0.015625)"/>
       </defs>
       <use xlink:href="#DejaVuSans-2212"/>
       <use xlink:href="#DejaVuSans-30" x="83.789062"/>
       <use xlink:href="#DejaVuSans-2e" x="147.412109"/>
       <use xlink:href="#DejaVuSans-31" x="179.199219"/>
      </g>
     </g>
    </g>
    <g id="ytick_2">
     <g id="line2d_17">
      <path d="M 72.9 241.308296 
L 524.88 241.308296 
" clip-path="url(#p1b3d2ee0f6)" style="fill: none; stroke: #e6e6e6; stroke-width: 0.8; stroke-linecap: square"/>
     </g>
     <g id="line2d_18">
      <g>
       <use xlink:href="#mc60ee829e1" x="72.9" y="241.308296" style="stroke: #000000; stroke-width: 0.8"/>
      </g>
     </g>
     <g id="text_10">
      <!-- 0.0 -->
      <g transform="translate(49.996875 245.107515)scale(0.1 -0.1)">
       <use xlink:href="#DejaVuSans-30"/>
       <use xlink:href="#DejaVuSans-2e" x="63.623047"/>
       <use xlink:href="#DejaVuSans-30" x="95.410156"/>
      </g>
     </g>
    </g>
    <g id="ytick_3">
     <g id="line2d_19">
      <path d="M 72.9 205.465748 
L 524.88 205.465748 
" clip-path="url(#p1b3d2ee0f6)" style="fill: none; stroke: #e6e6e6; stroke-width: 0.8; stroke-linecap: square"/>
     </g>
     <g id="line2d_20">
      <g>
       <use xlink:href="#mc60ee829e1" x="72.9" y="205.465748" style="stroke: #000000; stroke-width: 0.8"/>
      </g>
     </g>
     <g id="text_11">
      <!-- 0.1 -->
      <g transform="translate(49.996875 209.264967)scale(0.1 -0.1)">
       <use xlink:href="#DejaVuSans-30"/>
       <use xlink:href="#DejaVuSans-2e" x="63.623047"/>
       <use xlink:href="#DejaVuSans-31" x="95.410156"/>
      </g>
     </g>
    </g>
    <g id="ytick_4">
     <g id="line2d_21">
      <path d="M 72.9 169.6232 
L 524.88 169.6232 
" clip-path="url(#p1b3d2ee0f6)" style="fill: none; stroke: #e6e6e6; stroke-width: 0.8; stroke-linecap: square"/>
     </g>
     <g id="line2d_22">
      <g>
       <use xlink:href="#mc60ee829e1" x="72.9" y="169.6232" style="stroke: #000000; stroke-width: 0.8"/>
      </g>
     </g>
     <g id="text_12">
      <!-- 0.2 -->
      <g transform="translate(49.996875 173.422418)scale(0.1 -0.1)">
       <use xlink:href="#DejaVuSans-30"/>
       <use xlink:href="#DejaVuSans-2e" x="63.623047"/>
       <use xlink:href="#DejaVuSans-32" x="95.410156"/>
      </g>
     </g>
    </g>
    <g id="ytick_5">
     <g id="line2d_23">
      <path d="M 72.9 133.780651 
L 524.88 133.780651 
" clip-path="url(#p1b3d2ee0f6)" style="fill: none; stroke: #e6e6e6; stroke-width: 0.8; stroke-linecap: square"/>
     </g>
     <g id="line2d_24">
      <g>
       <use xlink:href="#mc60ee829e1" x="72.9" y="133.780651" style="stroke: #000000; stroke-width: 0.8"/>
      </g>
     </g>
     <g id="text_13">
      <!-- 0.3 -->
      <g transform="translate(49.996875 137.57987)scale(0.1 -0.1)">
       <defs>
        <path id="DejaVuSans-33" d="M 2597 2516 
Q 3050 2419 3304 2112 
Q 3559 1806 3559 1356 
Q 3559 666 3084 287 
Q 2609 -91 1734 -91 
Q 1441 -91 1130 -33 
Q 819 25 488 141 
L 488 750 
Q 750 597 1062 519 
Q 1375 441 1716 441 
Q 2309 441 2620 675 
Q 2931 909 2931 1356 
Q 2931 1769 2642 2001 
Q 2353 2234 1838 2234 
L 1294 2234 
L 1294 2753 
L 1863 2753 
Q 2328 2753 2575 2939 
Q 2822 3125 2822 3475 
Q 2822 3834 2567 4026 
Q 2313 4219 1838 4219 
Q 1578 4219 1281 4162 
Q 984 4106 628 3988 
L 628 4550 
Q 988 4650 1302 4700 
Q 1616 4750 1894 4750 
Q 2613 4750 3031 4423 
Q 3450 4097 3450 3541 
Q 3450 3153 3228 2886 
Q 3006 2619 2597 2516 
z
" transform="scale(0.015625)"/>
       </defs>
       <use xlink:href="#DejaVuSans-30"/>
       <use xlink:href="#DejaVuSans-2e" x="63.623047"/>
       <use xlink:href="#DejaVuSans-33" x="95.410156"/>
      </g>
     </g>
    </g>
    <g id="ytick_6">
     <g id="line2d_25">
      <path d="M 72.9 97.938103 
L 524.88 97.938103 
" clip-path="url(#p1b3d2ee0f6)" style="fill: none; stroke: #e6e6e6; stroke-width: 0.8; stroke-linecap: square"/>
     </g>
     <g id="line2d_26">
      <g>
       <use xlink:href="#mc60ee829e1" x="72.9" y="97.938103" style="stroke: #000000; stroke-width: 0.8"/>
      </g>
     </g>
     <g id="text_14">
      <!-- 0.4 -->
      <g transform="translate(49.996875 101.737322)scale(0.1 -0.1)">
       <use xlink:href="#DejaVuSans-30"/>
       <use xlink:href="#DejaVuSans-2e" x="63.623047"/>
       <use xlink:href="#DejaVuSans-34" x="95.410156"/>
      </g>
     </g>
    </g>
    <g id="ytick_7">
     <g id="line2d_27">
      <path d="M 72.9 62.095554 
L 524.88 62.095554 
" clip-path="url(#p1b3d2ee0f6)" style="fill: none; stroke: #e6e6e6; stroke-width: 0.8; stroke-linecap: square"/>
     </g>
     <g id="line2d_28">
      <g>
       <use xlink:href="#mc60ee829e1" x="72.9" y="62.095554" style="stroke: #000000; stroke-width: 0.8"/>
      </g>
     </g>
     <g id="text_15">
      <!-- 0.5 -->
      <g transform="translate(49.996875 65.894773)scale(0.1 -0.1)">
       <defs>
        <path id="DejaVuSans-35" d="M 691 4666 
L 3169 4666 
L 3169 4134 
L 1269 4134 
L 1269 2991 
Q 1406 3038 1543 3061 
Q 1681 3084 1819 3084 
Q 2600 3084 3056 2656 
Q 3513 2228 3513 1497 
Q 3513 744 3044 326 
Q 2575 -91 1722 -91 
Q 1428 -91 1123 -41 
Q 819 9 494 109 
L 494 744 
Q 775 591 1075 516 
Q 1375 441 1709 441 
Q 2250 441 2565 725 
Q 2881 1009 2881 1497 
Q 2881 1984 2565 2268 
Q 2250 2553 1709 2553 
Q 1456 2553 1204 2497 
Q 953 2441 691 2322 
L 691 4666 
z
" transform="scale(0.015625)"/>
       </defs>
       <use xlink:href="#DejaVuSans-30"/>
       <use xlink:href="#DejaVuSans-2e" x="63.623047"/>
       <use xlink:href="#DejaVuSans-35" x="95.410156"/>
      </g>
     </g>
    </g>
    <g id="text_16">
     <!-- Volatility and Hurst-estimate -->
     <g transform="translate(35.5375 243.333031)rotate(-90)scale(0.1 -0.1)">
      <defs>
       <path id="DejaVuSans-56" d="M 1831 0 
L 50 4666 
L 709 4666 
L 2188 738 
L 3669 4666 
L 4325 4666 
L 2547 0 
L 1831 0 
z
" transform="scale(0.015625)"/>
       <path id="DejaVuSans-6f" d="M 1959 3097 
Q 1497 3097 1228 2736 
Q 959 2375 959 1747 
Q 959 1119 1226 758 
Q 1494 397 1959 397 
Q 2419 397 2687 759 
Q 2956 1122 2956 1747 
Q 2956 2369 2687 2733 
Q 2419 3097 1959 3097 
z
M 1959 3584 
Q 2709 3584 3137 3096 
Q 3566 2609 3566 1747 
Q 3566 888 3137 398 
Q 2709 -91 1959 -91 
Q 1206 -91 779 398 
Q 353 888 353 1747 
Q 353 2609 779 3096 
Q 1206 3584 1959 3584 
z
" transform="scale(0.015625)"/>
       <path id="DejaVuSans-6c" d="M 603 4863 
L 1178 4863 
L 1178 0 
L 603 0 
L 603 4863 
z
" transform="scale(0.015625)"/>
       <path id="DejaVuSans-69" d="M 603 3500 
L 1178 3500 
L 1178 0 
L 603 0 
L 603 3500 
z
M 603 4863 
L 1178 4863 
L 1178 4134 
L 603 4134 
L 603 4863 
z
" transform="scale(0.015625)"/>
       <path id="DejaVuSans-79" d="M 2059 -325 
Q 1816 -950 1584 -1140 
Q 1353 -1331 966 -1331 
L 506 -1331 
L 506 -850 
L 844 -850 
Q 1081 -850 1212 -737 
Q 1344 -625 1503 -206 
L 1606 56 
L 191 3500 
L 800 3500 
L 1894 763 
L 2988 3500 
L 3597 3500 
L 2059 -325 
z
" transform="scale(0.015625)"/>
       <path id="DejaVuSans-20" transform="scale(0.015625)"/>
       <path id="DejaVuSans-6e" d="M 3513 2113 
L 3513 0 
L 2938 0 
L 2938 2094 
Q 2938 2591 2744 2837 
Q 2550 3084 2163 3084 
Q 1697 3084 1428 2787 
Q 1159 2491 1159 1978 
L 1159 0 
L 581 0 
L 581 3500 
L 1159 3500 
L 1159 2956 
Q 1366 3272 1645 3428 
Q 1925 3584 2291 3584 
Q 2894 3584 3203 3211 
Q 3513 2838 3513 2113 
z
" transform="scale(0.015625)"/>
       <path id="DejaVuSans-64" d="M 2906 2969 
L 2906 4863 
L 3481 4863 
L 3481 0 
L 2906 0 
L 2906 525 
Q 2725 213 2448 61 
Q 2172 -91 1784 -91 
Q 1150 -91 751 415 
Q 353 922 353 1747 
Q 353 2572 751 3078 
Q 1150 3584 1784 3584 
Q 2172 3584 2448 3432 
Q 2725 3281 2906 2969 
z
M 947 1747 
Q 947 1113 1208 752 
Q 1469 391 1925 391 
Q 2381 391 2643 752 
Q 2906 1113 2906 1747 
Q 2906 2381 2643 2742 
Q 2381 3103 1925 3103 
Q 1469 3103 1208 2742 
Q 947 2381 947 1747 
z
" transform="scale(0.015625)"/>
       <path id="DejaVuSans-48" d="M 628 4666 
L 1259 4666 
L 1259 2753 
L 3553 2753 
L 3553 4666 
L 4184 4666 
L 4184 0 
L 3553 0 
L 3553 2222 
L 1259 2222 
L 1259 0 
L 628 0 
L 628 4666 
z
" transform="scale(0.015625)"/>
       <path id="DejaVuSans-75" d="M 544 1381 
L 544 3500 
L 1119 3500 
L 1119 1403 
Q 1119 906 1312 657 
Q 1506 409 1894 409 
Q 2359 409 2629 706 
Q 2900 1003 2900 1516 
L 2900 3500 
L 3475 3500 
L 3475 0 
L 2900 0 
L 2900 538 
Q 2691 219 2414 64 
Q 2138 -91 1772 -91 
Q 1169 -91 856 284 
Q 544 659 544 1381 
z
M 1991 3584 
L 1991 3584 
z
" transform="scale(0.015625)"/>
       <path id="DejaVuSans-72" d="M 2631 2963 
Q 2534 3019 2420 3045 
Q 2306 3072 2169 3072 
Q 1681 3072 1420 2755 
Q 1159 2438 1159 1844 
L 1159 0 
L 581 0 
L 581 3500 
L 1159 3500 
L 1159 2956 
Q 1341 3275 1631 3429 
Q 1922 3584 2338 3584 
Q 2397 3584 2469 3576 
Q 2541 3569 2628 3553 
L 2631 2963 
z
" transform="scale(0.015625)"/>
       <path id="DejaVuSans-73" d="M 2834 3397 
L 2834 2853 
Q 2591 2978 2328 3040 
Q 2066 3103 1784 3103 
Q 1356 3103 1142 2972 
Q 928 2841 928 2578 
Q 928 2378 1081 2264 
Q 1234 2150 1697 2047 
L 1894 2003 
Q 2506 1872 2764 1633 
Q 3022 1394 3022 966 
Q 3022 478 2636 193 
Q 2250 -91 1575 -91 
Q 1294 -91 989 -36 
Q 684 19 347 128 
L 347 722 
Q 666 556 975 473 
Q 1284 391 1588 391 
Q 1994 391 2212 530 
Q 2431 669 2431 922 
Q 2431 1156 2273 1281 
Q 2116 1406 1581 1522 
L 1381 1569 
Q 847 1681 609 1914 
Q 372 2147 372 2553 
Q 372 3047 722 3315 
Q 1072 3584 1716 3584 
Q 2034 3584 2315 3537 
Q 2597 3491 2834 3397 
z
" transform="scale(0.015625)"/>
       <path id="DejaVuSans-2d" d="M 313 2009 
L 1997 2009 
L 1997 1497 
L 313 1497 
L 313 2009 
z
" transform="scale(0.015625)"/>
       <path id="DejaVuSans-6d" d="M 3328 2828 
Q 3544 3216 3844 3400 
Q 4144 3584 4550 3584 
Q 5097 3584 5394 3201 
Q 5691 2819 5691 2113 
L 5691 0 
L 5113 0 
L 5113 2094 
Q 5113 2597 4934 2840 
Q 4756 3084 4391 3084 
Q 3944 3084 3684 2787 
Q 3425 2491 3425 1978 
L 3425 0 
L 2847 0 
L 2847 2094 
Q 2847 2600 2669 2842 
Q 2491 3084 2119 3084 
Q 1678 3084 1418 2786 
Q 1159 2488 1159 1978 
L 1159 0 
L 581 0 
L 581 3500 
L 1159 3500 
L 1159 2956 
Q 1356 3278 1631 3431 
Q 1906 3584 2284 3584 
Q 2666 3584 2933 3390 
Q 3200 3197 3328 2828 
z
" transform="scale(0.015625)"/>
      </defs>
      <use xlink:href="#DejaVuSans-56"/>
      <use xlink:href="#DejaVuSans-6f" x="60.658203"/>
      <use xlink:href="#DejaVuSans-6c" x="121.839844"/>
      <use xlink:href="#DejaVuSans-61" x="149.623047"/>
      <use xlink:href="#DejaVuSans-74" x="210.902344"/>
      <use xlink:href="#DejaVuSans-69" x="250.111328"/>
      <use xlink:href="#DejaVuSans-6c" x="277.894531"/>
      <use xlink:href="#DejaVuSans-69" x="305.677734"/>
      <use xlink:href="#DejaVuSans-74" x="333.460938"/>
      <use xlink:href="#DejaVuSans-79" x="372.669922"/>
      <use xlink:href="#DejaVuSans-20" x="431.849609"/>
      <use xlink:href="#DejaVuSans-61" x="463.636719"/>
      <use xlink:href="#DejaVuSans-6e" x="524.916016"/>
      <use xlink:href="#DejaVuSans-64" x="588.294922"/>
      <use xlink:href="#DejaVuSans-20" x="651.771484"/>
      <use xlink:href="#DejaVuSans-48" x="683.558594"/>
      <use xlink:href="#DejaVuSans-75" x="758.753906"/>
      <use xlink:href="#DejaVuSans-72" x="822.132812"/>
      <use xlink:href="#DejaVuSans-73" x="863.246094"/>
      <use xlink:href="#DejaVuSans-74" x="915.345703"/>
      <use xlink:href="#DejaVuSans-2d" x="954.554688"/>
      <use xlink:href="#DejaVuSans-65" x="990.638672"/>
      <use xlink:href="#DejaVuSans-73" x="1052.162109"/>
      <use xlink:href="#DejaVuSans-74" x="1104.261719"/>
      <use xlink:href="#DejaVuSans-69" x="1143.470703"/>
      <use xlink:href="#DejaVuSans-6d" x="1171.253906"/>
      <use xlink:href="#DejaVuSans-61" x="1268.666016"/>
      <use xlink:href="#DejaVuSans-74" x="1329.945312"/>
      <use xlink:href="#DejaVuSans-65" x="1369.154297"/>
     </g>
    </g>
   </g>
   <g id="patch_3">
    <path d="M 72.9 302.778 
L 72.9 40.824 
" style="fill: none; stroke: #000000; stroke-width: 0.8; stroke-linejoin: miter; stroke-linecap: square"/>
   </g>
   <g id="patch_4">
    <path d="M 524.88 302.778 
L 524.88 40.824 
" style="fill: none; stroke: #e6e6e6; stroke-width: 0.8; stroke-linejoin: miter; stroke-linecap: square"/>
   </g>
   <g id="patch_5">
    <path d="M 72.9 302.778 
L 524.88 302.778 
" style="fill: none; stroke: #000000; stroke-width: 0.8; stroke-linejoin: miter; stroke-linecap: square"/>
   </g>
   <g id="patch_6">
    <path d="M 72.9 40.824 
L 524.88 40.824 
" style="fill: none; stroke: #e6e6e6; stroke-width: 0.8; stroke-linejoin: miter; stroke-linecap: square"/>
   </g>
   <g id="line2d_29">
    <path d="M 93.444545 228.079263 
L 93.822289 229.193766 
L 94.152815 214.343017 
L 94.483341 193.839543 
L 94.813867 225.369588 
L 95.474919 214.255072 
L 95.805445 218.807733 
L 96.135971 220.847173 
L 96.797022 233.614634 
L 97.127548 230.298166 
L 97.646946 233.348634 
L 98.307998 213.248946 
L 98.638524 215.799479 
L 99.016268 196.748461 
L 99.394012 221.711417 
L 99.724538 215.483859 
L 100.102281 225.827831 
L 100.432807 202.885586 
L 100.763333 221.979541 
L 101.093859 218.96857 
L 101.424385 233.914462 
L 102.132655 229.106634 
L 102.463181 222.471875 
L 102.793707 225.499072 
L 103.124232 221.187386 
L 103.454758 219.265059 
L 103.785284 220.545163 
L 104.58799 230.783147 
L 104.918516 220.830352 
L 105.249042 220.25332 
L 105.579568 228.525754 
L 105.910094 229.320189 
L 106.287837 226.237309 
L 106.618363 234.121136 
L 106.948889 227.496262 
L 107.279415 228.741072 
L 107.609941 224.790125 
L 107.940467 217.499084 
L 108.318211 218.626718 
L 108.648737 235.278061 
L 108.979263 228.357461 
L 109.309789 230.667208 
L 109.640314 226.753797 
L 109.97084 231.441186 
L 110.301366 214.310571 
L 110.631892 232.287717 
L 111.009636 225.83025 
L 111.576252 207.683469 
L 111.906778 187.689575 
L 112.237304 223.743772 
L 112.56783 224.823759 
L 112.898355 220.247087 
L 113.228881 227.355382 
L 113.559407 229.5157 
L 113.889933 229.127509 
L 114.220459 209.659551 
L 114.550985 173.963238 
L 114.975947 219.184699 
L 115.306473 210.294548 
L 115.636999 221.076387 
L 116.486922 204.723026 
L 116.864666 207.775123 
L 117.195192 219.653926 
L 117.572936 212.930577 
L 117.903462 226.560455 
L 118.233988 220.32787 
L 118.564514 217.131234 
L 118.942258 217.225648 
L 119.272783 217.784351 
L 119.603309 231.724486 
L 119.933835 232.684313 
L 120.264361 224.951784 
L 120.594887 229.278683 
L 121.303157 213.872983 
L 121.633683 226.312753 
L 121.964209 233.154206 
L 122.294735 228.462941 
L 122.62526 221.846718 
L 122.955786 219.920287 
L 123.286312 228.149507 
L 123.758492 217.865187 
L 124.089018 232.654578 
L 124.75007 224.671471 
L 125.080596 234.460946 
L 125.505558 226.163357 
L 125.836083 228.119749 
L 126.166609 221.080623 
L 126.497135 227.767246 
L 126.827661 224.59107 
L 127.158187 230.120733 
L 127.488713 223.177431 
L 127.819239 229.271742 
L 128.196983 219.426646 
L 128.527509 225.985619 
L 128.858035 225.354748 
L 129.18856 229.6173 
L 129.519086 230.128677 
L 129.849612 237.370154 
L 130.510664 225.066266 
L 130.84119 223.176104 
L 131.171716 232.877815 
L 131.502242 228.194016 
L 131.832768 219.475867 
L 132.352165 227.14134 
L 132.682691 227.400377 
L 133.013217 221.569444 
L 133.343743 224.164981 
L 133.721487 222.937744 
L 134.099231 215.942216 
L 134.429757 224.331131 
L 134.807501 217.409331 
L 135.468552 226.519076 
L 135.799078 226.128172 
L 136.176822 226.764949 
L 136.507348 219.289526 
L 136.837874 225.790252 
L 137.1684 218.732837 
L 137.498926 216.571574 
L 137.829452 210.173404 
L 138.159978 215.662484 
L 138.490504 214.665741 
L 138.962683 226.690781 
L 139.293209 205.300412 
L 139.623735 225.561969 
L 139.954261 220.259192 
L 140.284787 222.48292 
L 140.662531 232.858644 
L 140.993057 221.885497 
L 141.323583 227.94068 
L 141.984634 217.440093 
L 142.31516 219.030882 
L 142.692904 230.96657 
L 143.02343 232.061206 
L 143.353956 219.399534 
L 143.684482 233.841425 
L 144.015008 217.259911 
L 144.345534 224.829059 
L 144.67606 235.276689 
L 145.384329 214.951292 
L 145.714855 232.329064 
L 146.045381 232.040681 
L 146.375907 226.54277 
L 146.706433 231.75065 
L 147.036959 223.32576 
L 147.367485 228.993553 
L 147.698011 229.796897 
L 148.028537 235.854515 
L 148.359062 220.917622 
L 148.689588 234.962613 
L 149.020114 219.978175 
L 149.539512 215.372434 
L 149.870038 222.88277 
L 150.200564 227.011065 
L 150.53109 224.56841 
L 150.956052 227.874883 
L 151.381014 228.084403 
L 151.711539 218.084648 
L 152.183719 218.193304 
L 152.514245 215.499338 
L 152.844771 227.539089 
L 153.222515 231.249352 
L 153.553041 224.804412 
L 153.883567 228.339695 
L 154.214093 224.429734 
L 154.544619 225.395039 
L 154.875144 227.718928 
L 155.20567 222.353226 
L 155.536196 223.20913 
L 155.91394 222.681199 
L 156.244466 219.023222 
L 156.574992 230.303236 
L 156.905518 232.125521 
L 157.236044 224.225281 
L 157.56657 227.325849 
L 157.897096 219.51792 
L 158.274839 205.401263 
L 158.605365 222.15609 
L 159.313635 227.317474 
L 159.644161 213.09302 
L 160.446867 227.756651 
L 161.107919 230.737969 
L 161.438444 220.507225 
L 161.76897 229.485274 
L 162.099496 219.260034 
L 162.430022 229.019956 
L 162.807766 223.15379 
L 163.138292 215.203213 
L 163.799344 233.661925 
L 164.790921 226.125519 
L 165.121447 227.648774 
L 165.451973 220.98287 
L 165.782499 217.441785 
L 166.113025 223.068598 
L 166.443551 223.520488 
L 166.868513 210.981355 
L 167.199039 223.623471 
L 167.529565 212.695312 
L 167.86009 217.599798 
L 168.379488 207.675603 
L 169.087758 230.426059 
L 169.418284 224.207886 
L 169.74881 223.699559 
L 170.079336 232.120723 
L 170.409862 228.722342 
L 170.787606 219.49134 
L 171.118131 232.587739 
L 171.448657 237.540464 
L 171.779183 226.659237 
L 172.109709 226.758965 
L 172.487453 228.042766 
L 172.817979 222.008446 
L 173.148505 222.463906 
L 173.479031 223.469018 
L 174.140083 218.336131 
L 174.470608 221.262184 
L 174.801134 227.658479 
L 175.509404 221.096997 
L 175.83993 223.816287 
L 176.170456 225.598114 
L 176.500982 229.002282 
L 176.831508 217.297343 
L 177.303688 225.578158 
L 177.634213 221.796258 
L 177.964739 230.088976 
L 178.295265 235.336526 
L 178.625791 228.708726 
L 178.956317 227.009398 
L 179.286843 219.573066 
L 179.617369 227.773275 
L 179.995113 219.546574 
L 180.325639 233.292912 
L 180.656165 209.995185 
L 180.98669 223.202733 
L 181.317216 227.709545 
L 181.647742 225.008548 
L 181.978268 225.933835 
L 182.308794 223.879395 
L 182.63932 227.916417 
L 182.969846 224.021434 
L 183.300372 234.452082 
L 183.630898 223.742259 
L 184.055859 226.483882 
L 184.386385 230.176967 
L 184.716911 224.779354 
L 185.047437 226.796826 
L 185.425181 231.476627 
L 185.897361 225.405208 
L 186.275105 228.279901 
L 186.605631 228.118395 
L 186.936157 228.932884 
L 187.266682 227.064389 
L 187.597208 232.973801 
L 187.974952 223.122947 
L 188.305478 221.018739 
L 188.636004 225.538617 
L 188.96653 226.109205 
L 189.297056 221.247702 
L 189.958108 233.564677 
L 190.288634 231.819194 
L 190.666377 235.467054 
L 190.996903 219.788265 
L 191.327429 219.413989 
L 191.657955 232.814081 
L 192.319007 220.96904 
L 192.696751 227.953571 
L 193.027277 229.179937 
L 193.357803 228.655381 
L 193.688328 231.660303 
L 194.018854 235.783381 
L 194.538252 231.840871 
L 194.868778 224.666391 
L 195.199304 229.382176 
L 195.52983 231.278871 
L 195.860356 227.926917 
L 196.190882 230.0838 
L 196.521408 225.852416 
L 196.851934 230.321501 
L 197.182459 231.668531 
L 197.512985 233.633656 
L 197.843511 227.734836 
L 198.174037 227.049614 
L 198.504563 218.764581 
L 198.835089 229.410094 
L 199.165615 227.19198 
L 199.496141 220.0886 
L 199.826667 218.941652 
L 200.157192 227.320674 
L 200.487718 224.866606 
L 200.818244 212.76759 
L 201.243206 229.213759 
L 201.573732 234.517211 
L 202.234784 227.562773 
L 202.612528 231.739185 
L 203.084708 218.866575 
L 203.462451 221.150075 
L 203.792977 207.523839 
L 204.123503 215.297398 
L 204.454029 226.801011 
L 204.784555 218.365467 
L 205.162299 221.306218 
L 205.492825 237.135601 
L 205.823351 227.67865 
L 206.153877 231.402603 
L 206.484403 220.911038 
L 206.814928 231.086741 
L 207.145454 226.782177 
L 207.523198 220.006238 
L 207.853724 234.329458 
L 208.18425 221.18557 
L 208.514776 228.613447 
L 208.845302 230.888288 
L 209.175828 227.662094 
L 209.506354 225.626044 
L 209.884097 225.275935 
L 210.214623 224.77561 
L 210.545149 231.459136 
L 210.875675 232.628529 
L 211.206201 228.885715 
L 211.678381 234.848616 
L 212.339433 233.19188 
L 212.669959 223.142748 
L 213.000485 221.418055 
L 213.33101 237.316876 
L 213.661536 225.046883 
L 214.369806 232.013872 
L 214.700332 239.736337 
L 215.030858 230.352472 
L 215.361384 228.670439 
L 215.69191 225.190658 
L 216.022436 226.584718 
L 216.352961 234.736843 
L 217.014013 219.578855 
L 217.344539 218.911072 
L 217.675065 227.511898 
L 218.005591 225.446444 
L 218.383335 224.390298 
L 218.713861 230.817296 
L 219.044387 218.869085 
L 219.374913 232.086155 
L 219.752656 232.901685 
L 220.1304 225.39187 
L 220.460926 228.527919 
L 220.791452 228.731615 
L 221.263632 223.046899 
L 221.594158 227.325134 
L 221.924684 221.688122 
L 222.302428 223.882144 
L 222.632954 228.641664 
L 222.963479 223.846089 
L 223.294005 225.036213 
L 224.002275 213.763877 
L 224.332801 217.528184 
L 224.663327 227.492828 
L 224.993853 233.044064 
L 225.324379 232.671662 
L 225.654905 225.644191 
L 226.315956 229.729109 
L 226.646482 231.527486 
L 227.024226 223.255002 
L 227.354752 219.470116 
L 227.685278 204.326611 
L 228.015804 225.284594 
L 228.34633 224.71584 
L 228.676856 235.26147 
L 229.0546 214.653836 
L 229.385125 224.291938 
L 229.715651 225.209418 
L 230.046177 221.672413 
L 230.707229 228.356001 
L 231.037755 209.840799 
L 231.368281 229.63882 
L 231.840461 224.842056 
L 232.170987 223.075841 
L 232.501513 183.116327 
L 232.832038 189.156882 
L 233.162564 207.041099 
L 233.49309 193.971262 
L 234.154142 215.348333 
L 234.815194 182.934529 
L 235.14572 211.629952 
L 235.476246 193.869145 
L 235.853989 188.042693 
L 236.184515 195.407203 
L 236.515041 194.471601 
L 236.845567 154.617569 
L 237.601055 183.463115 
L 237.931581 213.557929 
L 238.309325 207.238366 
L 238.639851 206.688489 
L 238.970377 220.377014 
L 239.300902 189.293142 
L 239.773082 180.997756 
L 240.103608 183.667397 
L 240.434134 205.050884 
L 240.76466 186.549916 
L 241.095186 209.560135 
L 241.425712 208.463842 
L 241.756238 204.048416 
L 242.133982 209.207535 
L 242.464507 204.800797 
L 243.125559 225.371807 
L 243.456085 224.938303 
L 243.786611 215.556823 
L 244.164355 225.522751 
L 244.494881 219.032509 
L 245.155933 229.355237 
L 245.486458 218.796375 
L 246.525254 227.837771 
L 246.85578 234.097771 
L 247.186306 207.650815 
L 247.516832 226.894382 
L 247.847358 231.982895 
L 248.177884 212.286761 
L 248.50841 224.893311 
L 248.838935 225.967456 
L 249.216679 218.005224 
L 249.547205 227.813097 
L 249.877731 217.010529 
L 250.208257 219.813089 
L 250.869309 234.653033 
L 251.199835 228.685546 
L 251.530361 218.514248 
L 251.860887 225.651801 
L 252.191412 225.283142 
L 252.521938 223.676852 
L 252.994118 223.306907 
L 253.65517 233.080303 
L 253.985696 229.056919 
L 254.36344 231.775759 
L 254.741184 232.540414 
L 255.07171 234.106044 
L 255.449453 230.030304 
L 255.779979 231.922642 
L 256.110505 214.35093 
L 256.441031 225.669613 
L 256.818775 225.265588 
L 257.149301 226.401357 
L 257.810353 235.536338 
L 258.140879 225.716862 
L 258.471404 233.281401 
L 258.943584 234.051328 
L 259.27411 237.343794 
L 259.604636 226.185745 
L 259.935162 230.140242 
L 260.265688 228.057839 
L 260.596214 220.565883 
L 260.92674 231.097477 
L 261.63501 216.203887 
L 261.965535 221.572369 
L 262.296061 224.241844 
L 262.626587 233.57568 
L 262.957113 223.620316 
L 263.334857 222.757781 
L 263.995909 233.27847 
L 264.326435 225.040458 
L 264.656961 232.080912 
L 264.987486 230.021374 
L 265.318012 230.362902 
L 265.648538 231.262128 
L 265.979064 219.813046 
L 266.356808 233.40267 
L 266.687334 226.088783 
L 267.348386 230.361676 
L 267.678912 228.871845 
L 268.009438 232.644931 
L 268.339963 217.125449 
L 268.670489 234.595141 
L 269.001015 231.797094 
L 269.331541 236.424406 
L 269.662067 223.751649 
L 270.039811 228.917223 
L 270.370337 226.020023 
L 270.700863 237.715222 
L 271.031389 235.152982 
L 271.503568 235.655786 
L 272.16462 227.323275 
L 272.542364 233.174323 
L 272.87289 233.085131 
L 273.203416 219.233455 
L 273.533942 234.706692 
L 273.864468 237.043783 
L 274.242212 213.820911 
L 274.572738 227.132309 
L 274.903263 230.99003 
L 275.233789 226.351218 
L 275.894841 235.167491 
L 276.225367 233.833032 
L 276.555893 221.231334 
L 276.886419 225.696906 
L 277.264163 238.478636 
L 277.594689 210.268811 
L 277.925214 207.87051 
L 278.25574 223.713352 
L 278.586266 227.671908 
L 278.96401 228.559619 
L 279.294536 227.253728 
L 279.625062 220.740717 
L 279.955588 220.862139 
L 280.286114 229.990167 
L 280.758294 225.231323 
L 281.088819 225.162343 
L 281.419345 234.566988 
L 281.749871 232.238308 
L 282.080397 216.962569 
L 282.410923 218.096444 
L 282.741449 215.403054 
L 283.071975 232.613217 
L 283.780245 223.19036 
L 284.110771 228.071485 
L 284.441296 208.021282 
L 284.771822 225.126898 
L 285.102348 224.945146 
L 285.432874 225.693282 
L 285.7634 219.106544 
L 286.093926 219.877188 
L 286.424452 236.036927 
L 286.754978 229.90883 
L 287.085504 220.340333 
L 287.793773 236.757941 
L 288.124299 217.183245 
L 288.454825 226.837978 
L 288.832569 230.491115 
L 289.210313 223.961652 
L 289.540839 232.9203 
L 290.013019 229.280797 
L 290.343545 236.904331 
L 290.674071 232.306553 
L 291.004596 230.778554 
L 291.38234 233.467478 
L 291.712866 228.585536 
L 292.043392 228.695018 
L 292.373918 234.31861 
L 292.704444 228.007113 
L 293.03497 230.462525 
L 293.365496 226.536978 
L 293.74324 226.087218 
L 294.404291 237.674252 
L 294.734817 235.139597 
L 295.065343 228.457633 
L 295.395869 235.974175 
L 296.104139 228.088302 
L 296.434665 225.248058 
L 296.765191 230.719527 
L 297.095717 223.73584 
L 297.426242 225.452518 
L 297.803986 201.306194 
L 298.134512 226.393787 
L 298.465038 228.642975 
L 298.795564 226.07933 
L 299.12609 218.851189 
L 299.456616 234.199975 
L 299.787142 236.79637 
L 300.117668 235.696817 
L 300.448194 230.982181 
L 300.920373 235.101486 
L 301.250899 229.535016 
L 301.581425 227.553814 
L 301.911951 230.616683 
L 302.242477 217.407649 
L 302.573003 227.316728 
L 302.903529 232.411878 
L 303.328491 232.083691 
L 303.659017 214.631016 
L 303.989542 234.950198 
L 304.320068 223.240497 
L 304.697812 231.807131 
L 305.028338 232.829028 
L 305.358864 234.726703 
L 305.68939 237.425577 
L 306.067134 228.901695 
L 306.539314 235.690151 
L 306.86984 237.61062 
L 307.247583 234.182955 
L 307.578109 234.361551 
L 307.908635 234.123635 
L 308.239161 234.824103 
L 308.616905 231.024883 
L 308.947431 234.702384 
L 309.277957 234.708758 
L 309.608483 237.373951 
L 309.939009 233.102902 
L 310.269534 234.136572 
L 310.647278 230.094431 
L 310.977804 234.013163 
L 311.30833 227.021121 
L 311.638856 232.848241 
L 311.969382 222.76733 
L 312.299908 233.882092 
L 312.630434 234.982635 
L 312.96096 232.028801 
L 313.338704 230.689798 
L 313.669229 235.649767 
L 313.999755 235.729163 
L 314.330281 229.545299 
L 314.660807 233.732154 
L 315.132987 234.908957 
L 315.463513 228.751587 
L 315.794039 233.838939 
L 316.124565 234.744141 
L 316.455091 226.904921 
L 316.785616 229.23114 
L 317.116142 238.169906 
L 317.446668 229.855811 
L 317.824412 227.84796 
L 318.154938 228.041189 
L 318.485464 233.406329 
L 318.81599 227.675742 
L 319.146516 238.491819 
L 319.477042 232.125948 
L 319.807568 230.929042 
L 320.138093 231.53292 
L 320.468619 234.980552 
L 320.799145 235.059357 
L 321.129671 229.851566 
L 321.460197 236.125164 
L 321.790723 231.337837 
L 322.168467 229.98158 
L 322.498993 234.578683 
L 322.829519 235.523144 
L 323.207262 237.236209 
L 323.585006 230.224923 
L 323.915532 233.332386 
L 324.246058 233.087119 
L 325.048764 231.897563 
L 325.37929 235.053287 
L 325.757034 233.788372 
L 326.08756 234.845998 
L 326.418085 230.283232 
L 326.748611 231.906497 
L 327.079137 229.889197 
L 327.409663 236.445999 
L 327.740189 231.815292 
L 328.070715 232.839146 
L 328.401241 237.164466 
L 328.778985 232.877034 
L 329.109511 233.278218 
L 329.440037 236.088453 
L 329.770562 235.89125 
L 330.101088 234.029521 
L 330.478832 234.419838 
L 330.809358 238.211383 
L 331.139884 233.325653 
L 331.47041 237.945623 
L 331.800936 235.385521 
L 332.131462 238.800879 
L 332.509206 233.203009 
L 332.839732 232.171064 
L 333.170257 232.888662 
L 333.500783 235.429975 
L 333.831309 236.33354 
L 334.161835 229.658826 
L 334.492361 228.728828 
L 334.822887 235.770558 
L 335.295067 223.626322 
L 335.625593 233.490725 
L 335.956119 230.225008 
L 336.286644 235.466867 
L 336.61717 227.405744 
L 336.947696 233.769108 
L 337.278222 223.232661 
L 337.939274 230.875533 
L 338.2698 227.650761 
L 338.600326 223.187619 
L 338.930852 231.440651 
L 339.308596 197.739105 
L 339.639121 223.725972 
L 339.969647 226.553066 
L 340.300173 212.054275 
L 340.677917 230.625361 
L 341.386187 207.524787 
L 341.763931 207.691867 
L 342.094457 205.547936 
L 342.424983 192.455823 
L 343.227688 228.75595 
L 343.558214 211.651393 
L 343.88874 225.599637 
L 344.219266 227.753508 
L 344.880318 211.118284 
L 345.258062 210.143275 
L 345.588588 211.143651 
L 345.919113 216.617895 
L 346.249639 229.020966 
L 346.580165 228.348745 
L 346.910691 224.022141 
L 347.241217 229.723188 
L 347.618961 219.734366 
L 347.949487 220.319881 
L 348.280013 219.898968 
L 348.610539 234.548679 
L 349.27159 222.625327 
L 349.649334 210.364223 
L 349.97986 227.5959 
L 350.310386 232.135741 
L 350.640912 230.322853 
L 351.301964 220.212162 
L 351.63249 221.613013 
L 351.963016 194.157496 
L 352.293542 190.770049 
L 352.671285 216.804154 
L 353.001811 210.591834 
L 353.662863 225.815192 
L 353.993389 221.628788 
L 354.323915 220.364142 
L 354.654441 231.28706 
L 354.984967 215.791724 
L 355.315493 218.921832 
L 355.646018 228.673869 
L 355.976544 226.90507 
L 356.448724 220.828448 
L 356.77925 212.178291 
L 357.109776 226.766813 
L 357.440302 218.525916 
L 357.818046 216.993792 
L 358.526316 223.300276 
L 358.904059 183.184099 
L 359.234585 199.354729 
L 359.565111 195.694241 
L 359.895637 227.825379 
L 360.273381 192.184317 
L 360.603907 220.48083 
L 360.934433 228.189531 
L 361.264959 210.1016 
L 361.595485 207.399627 
L 362.39819 225.834686 
L 362.728716 215.697606 
L 363.059242 219.350168 
L 363.389768 221.662566 
L 363.720294 222.215139 
L 364.05082 226.031471 
L 364.381346 226.089345 
L 364.711872 234.762698 
L 365.420141 230.971418 
L 365.750667 227.693354 
L 366.081193 216.318417 
L 366.789463 211.041712 
L 367.119989 210.246148 
L 367.450515 229.213354 
L 367.781041 233.519563 
L 368.111567 219.24387 
L 368.442093 222.870895 
L 368.772618 230.402149 
L 369.103144 218.765224 
L 369.43367 225.968945 
L 369.811414 217.088684 
L 370.14194 223.271902 
L 370.472466 222.605266 
L 370.802992 209.742229 
L 371.133518 233.96301 
L 371.511262 230.609102 
L 371.841787 226.572469 
L 372.172313 231.57543 
L 372.502839 230.370428 
L 372.975019 226.110283 
L 373.305545 219.356392 
L 373.683289 218.027046 
L 374.013815 208.818278 
L 374.344341 225.806872 
L 374.674867 224.499485 
L 375.05261 236.48107 
L 375.76088 219.660382 
L 376.46915 231.210773 
L 376.799676 231.850435 
L 377.130202 229.170642 
L 377.460728 233.918762 
L 378.263433 230.876131 
L 378.593959 223.649771 
L 378.924485 229.329412 
L 379.255011 231.16029 
L 379.585537 231.882331 
L 379.916063 236.900146 
L 380.293807 236.296104 
L 380.624333 227.835751 
L 380.954859 231.320786 
L 381.285385 221.085689 
L 381.946436 236.714066 
L 382.32418 220.467327 
L 382.654706 220.590072 
L 383.646284 236.639867 
L 384.024028 219.769838 
L 384.68508 232.062995 
L 385.015605 225.118289 
L 385.346131 229.370861 
L 385.676657 231.525314 
L 386.007183 230.06167 
L 386.337709 222.746749 
L 386.668235 224.793082 
L 387.045979 223.252353 
L 387.376505 234.410529 
L 387.707031 233.422171 
L 388.037556 228.389814 
L 388.368082 227.118406 
L 388.698608 229.2912 
L 389.029134 234.383636 
L 389.35966 232.996813 
L 389.690186 234.873775 
L 390.020712 228.698191 
L 390.351238 228.341263 
L 390.823418 228.771735 
L 391.153944 231.191597 
L 391.484469 227.024809 
L 391.814995 233.776321 
L 392.192739 233.78573 
L 392.570483 233.164765 
L 392.901009 232.947021 
L 393.278753 236.233168 
L 393.609279 232.217735 
L 393.939805 230.612022 
L 394.270331 234.838665 
L 394.600856 224.520139 
L 394.9786 234.788195 
L 395.309126 231.699273 
L 395.639652 222.30806 
L 395.970178 231.427303 
L 396.300704 226.343215 
L 396.772884 229.868741 
L 397.433936 226.242948 
L 398.094987 234.726016 
L 398.756039 225.487116 
L 399.086565 236.330977 
L 399.464309 228.819276 
L 399.794835 225.996783 
L 400.125361 232.181235 
L 400.455887 228.561371 
L 400.786413 221.375187 
L 401.116938 230.974232 
L 401.494682 221.105863 
L 401.825208 223.914962 
L 402.155734 223.892714 
L 402.48626 227.648444 
L 402.816786 225.67179 
L 403.147312 228.806741 
L 403.477838 238.965343 
L 403.808364 234.536557 
L 404.186107 232.391456 
L 404.516633 225.686118 
L 404.847159 233.677576 
L 405.177685 233.029428 
L 405.508211 224.18361 
L 405.838737 227.605553 
L 406.169263 228.391123 
L 406.499789 224.798261 
L 406.830315 232.935705 
L 407.160841 236.421522 
L 407.491366 214.290669 
L 407.86911 205.359054 
L 408.199636 224.357719 
L 408.671816 215.639139 
L 409.002342 222.063656 
L 409.332868 208.375572 
L 409.75783 206.790191 
L 410.088356 228.375025 
L 410.418882 224.20117 
L 410.796625 224.932755 
L 411.127151 222.933685 
L 411.457677 224.4247 
L 411.788203 234.347648 
L 412.165947 234.808744 
L 412.496473 222.616494 
L 412.826999 233.294043 
L 413.157525 233.092604 
L 413.488051 232.20251 
L 414.149102 231.103057 
L 414.479628 229.853562 
L 414.951808 230.486969 
L 415.282334 229.350509 
L 415.61286 229.760879 
L 416.273912 236.279833 
L 416.651656 217.633034 
L 416.982182 220.55774 
L 417.312707 221.884695 
L 417.643233 217.089458 
L 417.973759 223.329382 
L 418.304285 218.116292 
L 418.682029 226.865076 
L 419.012555 230.831652 
L 419.343081 227.791908 
L 419.673607 235.418142 
L 420.004133 207.646602 
L 420.665184 228.900441 
L 420.99571 226.334136 
L 421.373454 218.245173 
L 421.70398 225.709072 
L 422.034506 181.830896 
L 422.365032 231.083118 
L 422.695558 231.802447 
L 423.026084 234.426327 
L 423.35661 226.876415 
L 423.687135 228.088238 
L 424.017661 233.609419 
L 424.348187 226.353573 
L 424.678713 237.136161 
L 425.009239 219.067793 
L 425.386983 222.253737 
L 426.048035 234.136676 
L 426.378561 234.027424 
L 426.85074 237.292561 
L 427.228484 228.306892 
L 427.55901 224.24507 
L 427.936754 229.610169 
L 428.26728 230.459086 
L 428.597806 225.414655 
L 428.928332 228.450479 
L 429.306076 234.19417 
L 429.636602 231.839679 
L 429.967128 213.391126 
L 430.297653 130.774592 
L 430.628179 97.84546 
L 430.958705 183.814125 
L 431.289231 148.552997 
L 431.619757 161.005033 
L 431.997501 202.247185 
L 432.800207 151.076301 
L 433.130733 168.677155 
L 433.461258 207.249957 
L 433.839002 224.321108 
L 434.169528 210.351323 
L 434.500054 215.207097 
L 434.83058 202.684655 
L 435.161106 228.699761 
L 435.491632 213.169578 
L 435.869376 233.965818 
L 436.199902 222.579241 
L 436.530427 229.401435 
L 436.860953 231.061653 
L 437.191479 224.158335 
L 437.522005 226.803246 
L 437.852531 231.862066 
L 438.183057 233.204337 
L 438.513583 231.17679 
L 438.891327 207.637443 
L 439.221853 224.934672 
L 439.882904 220.024583 
L 440.21343 207.804629 
L 440.543956 224.014327 
L 440.874482 224.843128 
L 441.205008 216.824439 
L 441.535534 223.230039 
L 441.86606 204.163332 
L 442.196586 225.645 
L 442.904856 230.082083 
L 443.235381 229.351463 
L 443.565907 237.895818 
L 444.038087 225.610121 
L 444.415831 222.157626 
L 444.746357 232.52926 
L 445.124101 229.487914 
L 445.454627 233.492962 
L 445.785153 228.711907 
L 446.115679 236.885294 
L 447.154474 216.707825 
L 447.485 222.831385 
L 447.815526 216.702666 
L 448.146052 201.846309 
L 448.476578 217.565117 
L 448.854322 222.753906 
L 449.184848 224.777529 
L 449.515373 231.227483 
L 449.845899 227.398332 
L 450.176425 230.965528 
L 450.506951 223.587594 
L 450.837477 222.106277 
L 451.168003 227.100464 
L 451.970709 236.760507 
L 452.301235 228.082593 
L 452.631761 233.299709 
L 453.009504 227.5423 
L 453.34003 228.684381 
L 453.670556 212.588167 
L 454.001082 225.557388 
L 454.331608 224.152006 
L 454.662134 220.271237 
L 454.99266 231.833778 
L 455.323186 213.014279 
L 455.653712 229.789598 
L 456.031455 229.548543 
L 456.361981 226.384132 
L 456.692507 227.469053 
L 457.023033 232.523405 
L 457.353559 228.243113 
L 457.684085 235.177938 
L 458.014611 237.956353 
L 458.345137 227.799392 
L 458.675663 226.334231 
L 459.006189 217.496249 
L 459.336714 230.39651 
L 459.66724 223.124515 
L 460.044984 187.220916 
L 460.37551 218.770689 
L 460.706036 231.800803 
L 461.036562 215.199877 
L 461.414306 227.653235 
L 461.744832 233.221272 
L 462.075358 225.747339 
L 462.547537 225.476203 
L 462.878063 229.857918 
L 463.208589 229.462099 
L 463.539115 223.565188 
L 463.916859 223.151197 
L 464.247385 211.323007 
L 464.577911 209.697953 
L 464.908437 194.278297 
L 465.238963 207.122603 
L 465.569489 210.239792 
L 466.23054 201.764321 
L 466.93881 220.814153 
L 467.269336 216.483351 
L 467.599862 204.345172 
L 467.930388 218.076642 
L 468.260914 226.468486 
L 468.638658 230.233005 
L 468.969183 231.680822 
L 469.299709 226.024401 
L 469.677453 208.85971 
L 470.007979 219.228917 
L 470.480159 202.599252 
L 470.810685 201.868861 
L 471.141211 215.388999 
L 471.471737 216.897055 
L 471.802263 221.594493 
L 472.132788 221.949625 
L 472.463314 222.755087 
L 472.79384 219.517559 
L 473.171584 221.408958 
L 473.50211 211.832873 
L 473.832636 224.537709 
L 474.163162 216.132263 
L 474.493688 214.424659 
L 474.824214 219.885037 
L 475.15474 221.548042 
L 475.485265 227.867841 
L 475.815791 224.835898 
L 476.146317 215.159853 
L 476.476843 217.944775 
L 476.807369 223.033818 
L 477.185113 219.068372 
L 477.515639 225.784973 
L 477.846165 225.813251 
L 478.176691 223.91534 
L 478.554435 229.26884 
L 478.932178 213.779677 
L 479.262704 234.095978 
L 479.734884 234.692981 
L 480.395936 223.764074 
L 481.104206 232.535147 
L 481.434732 224.519705 
L 481.765258 223.887244 
L 482.095783 223.772794 
L 482.426309 215.393052 
L 482.756835 220.417427 
L 483.087361 221.339709 
L 483.465105 229.378907 
L 483.795631 231.77626 
L 484.126157 224.477741 
L 484.456683 214.291004 
L 484.787209 223.894665 
L 485.117734 224.855629 
L 485.44826 230.779257 
L 485.826004 216.252634 
L 486.15653 228.889601 
L 486.487056 213.639424 
L 486.8648 218.845805 
L 487.195326 226.369274 
L 487.667506 224.926079 
L 487.998032 225.261128 
L 488.328557 231.563291 
L 488.659083 232.476101 
L 488.989609 225.37387 
L 489.320135 229.359512 
L 489.650661 228.836509 
L 489.981187 232.737887 
L 490.358931 235.19972 
L 490.689457 233.251566 
L 491.019983 234.049472 
L 491.350509 235.148478 
L 492.01156 211.733758 
L 492.342086 215.418131 
L 492.672612 222.763782 
L 493.003138 218.200009 
L 493.333664 220.360983 
L 493.66419 227.061891 
L 493.994716 212.788489 
L 494.325242 230.527953 
L 494.655768 226.929032 
L 494.986293 217.963992 
L 495.316819 232.214988 
L 496.072307 222.024682 
L 496.402833 219.683529 
L 496.780577 231.976688 
L 497.111103 228.602484 
L 497.441629 227.972777 
L 497.772155 232.691318 
L 498.10268 230.227578 
L 498.57486 227.897293 
L 498.905386 228.855212 
L 499.235912 233.969306 
L 499.566438 229.556577 
L 499.896964 229.397624 
L 500.274708 231.857925 
L 500.605234 232.976765 
L 500.93576 233.408991 
L 501.266285 228.814591 
L 501.596811 233.64406 
L 501.927337 228.184302 
L 502.588389 235.178284 
L 502.966133 226.090761 
L 503.296659 227.683803 
L 503.627185 231.398948 
L 504.004929 232.915271 
L 504.335455 231.214697 
L 504.335455 231.214697 
" clip-path="url(#p1b3d2ee0f6)" style="fill: none; stroke: #808080; stroke-width: 1.5; stroke-linecap: square"/>
   </g>
   <g id="line2d_30">
    <path d="M 110.631892 134.7107 
L 119.603309 85.978835 
L 128.196983 78.860954 
L 136.837874 125.462973 
L 145.384329 124.580402 
L 154.214093 148.404569 
L 162.807766 129.481583 
L 171.448657 111.931523 
L 179.995113 149.36421 
L 188.636004 147.127557 
L 197.182459 148.777453 
L 205.823351 133.759144 
L 214.369806 105.346231 
L 222.963479 100.715836 
L 231.368281 83.189435 
L 240.103608 92.713407 
L 248.50841 67.880461 
L 257.149301 68.484417 
L 265.648538 159.859664 
L 274.242212 161.691911 
L 282.741449 147.488221 
L 291.38234 109.650956 
L 299.787142 107.297688 
L 308.616905 99.513127 
L 317.116142 111.109229 
L 325.757034 96.72972 
L 334.161835 106.442975 
L 342.755508 107.976716 
L 351.301964 144.954258 
L 359.895637 134.362309 
L 368.442093 162.131835 
L 377.130202 129.494188 
L 385.676657 159.977235 
L 394.270331 150.858343 
L 402.816786 118.143738 
L 411.457677 115.428503 
L 420.004133 88.301179 
L 428.597806 52.731 
L 437.522005 58.791767 
L 446.115679 55.563159 
L 454.662134 146.85583 
L 463.208589 108.877019 
L 471.802263 107.846087 
L 480.395936 119.770486 
" clip-path="url(#p1b3d2ee0f6)" style="fill: none; stroke-dasharray: 1.5,2.475; stroke-dashoffset: 0; stroke: #ff0000; stroke-width: 1.5"/>
   </g>
   <g id="line2d_31">
    <path d="M 110.631892 187.948729 
L 119.603309 198.488379 
L 128.196983 234.285064 
L 136.837874 272.17641 
L 145.384329 263.067383 
L 154.214093 250.024598 
L 162.807766 225.522977 
L 171.448657 242.707199 
L 179.995113 230.173058 
L 188.636004 190.278352 
L 197.182459 220.32123 
L 205.823351 180.159617 
L 214.369806 175.137265 
L 222.963479 131.998082 
L 231.368281 160.239363 
L 240.103608 157.047389 
L 248.50841 166.089414 
L 257.149301 233.429352 
L 265.648538 168.395991 
L 274.242212 179.75402 
L 282.741449 177.016951 
L 291.38234 172.701517 
L 299.787142 247.991955 
L 308.616905 237.560237 
L 317.116142 265.722564 
L 325.757034 238.893144 
L 334.161835 219.313066 
L 342.755508 155.779879 
L 351.301964 164.495886 
L 359.895637 143.58238 
L 368.442093 137.934832 
L 377.130202 110.774607 
L 385.676657 196.972915 
L 394.270331 157.748902 
L 402.816786 169.437931 
L 411.457677 186.960865 
L 420.004133 151.98051 
L 428.597806 170.813228 
L 437.522005 179.174782 
L 446.115679 193.288942 
L 454.662134 182.460993 
L 463.208589 183.197115 
L 471.802263 176.375545 
L 480.395936 140.174968 
" clip-path="url(#p1b3d2ee0f6)" style="fill: none; stroke-dasharray: 9.6,2.4,1.5,2.4; stroke-dashoffset: 0; stroke: #ff0000; stroke-width: 1.5"/>
   </g>
   <g id="line2d_32">
    <path d="M 110.631892 228.532626 
L 119.603309 233.127269 
L 128.196983 249.371493 
L 136.837874 254.757418 
L 145.384329 252.004323 
L 154.214093 254.409157 
L 162.807766 230.336832 
L 171.448657 225.018719 
L 179.995113 227.060692 
L 188.636004 259.847414 
L 197.182459 255.495878 
L 205.823351 244.683361 
L 214.369806 242.79405 
L 222.963479 255.063655 
L 231.368281 200.293608 
L 240.103608 199.169668 
L 248.50841 212.24518 
L 257.149301 221.748681 
L 265.648538 251.165234 
L 274.242212 251.262973 
L 282.741449 260.035604 
L 291.38234 233.109211 
L 299.787142 235.734764 
L 308.616905 228.224001 
L 317.116142 244.958957 
L 325.757034 290.871 
L 334.161835 252.064723 
L 342.755508 232.109432 
L 351.301964 210.806046 
L 359.895637 216.280286 
L 368.442093 221.699626 
L 377.130202 224.005637 
L 385.676657 244.910033 
L 394.270331 258.064851 
L 402.816786 206.573382 
L 411.457677 217.070552 
L 420.004133 183.141767 
L 428.597806 151.430818 
L 437.522005 152.568271 
L 446.115679 192.092248 
L 454.662134 204.463429 
L 463.208589 197.590663 
L 471.802263 198.960271 
L 480.395936 207.605762 
" clip-path="url(#p1b3d2ee0f6)" style="fill: none; stroke-dasharray: 5.55,2.4; stroke-dashoffset: 0; stroke: #ff0000; stroke-width: 1.5"/>
   </g>
   <g id="line2d_33">
    <path d="M 110.631892 225.075183 
L 119.603309 217.67113 
L 128.196983 216.908919 
L 136.837874 234.021228 
L 145.384329 224.670353 
L 154.214093 231.641554 
L 162.807766 204.854211 
L 171.448657 226.852888 
L 179.995113 230.804439 
L 188.636004 232.376187 
L 197.182459 231.580799 
L 205.823351 229.894254 
L 214.369806 196.854308 
L 222.963479 191.945168 
L 231.368281 180.568046 
L 240.103608 181.156742 
L 248.50841 172.103095 
L 257.149301 181.429547 
L 265.648538 231.684761 
L 274.242212 234.239477 
L 282.741449 234.350223 
L 291.38234 221.155317 
L 299.787142 232.789301 
L 308.616905 232.071918 
L 317.116142 233.62908 
L 325.757034 185.984475 
L 334.161835 210.694778 
L 342.755508 194.096489 
L 351.301964 212.083713 
L 359.895637 201.476609 
L 368.442093 222.650444 
L 377.130202 221.998994 
L 385.676657 232.597369 
L 394.270331 226.911022 
L 402.816786 202.598856 
L 411.457677 230.355762 
L 420.004133 161.454271 
L 428.597806 163.579357 
L 437.522005 160.966235 
L 446.115679 162.079109 
L 454.662134 201.968879 
L 463.208589 192.245821 
L 471.802263 194.696402 
L 480.395936 182.11947 
" clip-path="url(#p1b3d2ee0f6)" style="fill: none; stroke: #ff0000; stroke-width: 1.5; stroke-linecap: square"/>
   </g>
   <g id="line2d_34">
    <path d="M 110.631892 212.230242 
L 119.603309 214.323928 
L 128.196983 219.533689 
L 136.837874 231.044523 
L 145.384329 224.469192 
L 154.214093 227.382357 
L 162.807766 206.258247 
L 171.448657 221.808002 
L 179.995113 229.325969 
L 188.636004 233.074225 
L 197.182459 224.863178 
L 205.823351 223.325079 
L 214.369806 215.85462 
L 222.963479 195.124185 
L 231.368281 171.242085 
L 240.103608 178.416463 
L 248.50841 191.7858 
L 257.149301 207.850455 
L 265.648538 231.617148 
L 274.242212 233.659086 
L 282.741449 226.92052 
L 291.38234 226.097302 
L 299.787142 225.665155 
L 308.616905 224.869053 
L 317.116142 234.911065 
L 325.757034 210.131681 
L 334.161835 205.98785 
L 342.755508 190.47389 
L 351.301964 196.980589 
L 359.895637 198.830921 
L 368.442093 211.005758 
L 377.130202 206.113987 
L 385.676657 221.878764 
L 394.270331 214.168282 
L 402.816786 196.701396 
L 411.457677 218.157661 
L 420.004133 170.48815 
L 428.597806 163.355752 
L 437.522005 156.960828 
L 446.115679 181.907413 
L 454.662134 200.601138 
L 463.208589 199.129192 
L 471.802263 196.427592 
L 480.395936 195.513808 
" clip-path="url(#p1b3d2ee0f6)" style="fill: none; stroke: #ff7f0e; stroke-width: 1.5; stroke-linecap: square"/>
   </g>
   <g id="line2d_35">
    <path d="M 110.631892 207.792754 
L 119.603309 200.078809 
L 128.196983 205.6466 
L 136.837874 225.203707 
L 145.384329 221.249872 
L 154.214093 223.808863 
L 162.807766 206.694498 
L 171.448657 218.329683 
L 179.995113 222.81243 
L 188.636004 206.732529 
L 197.182459 224.853794 
L 205.823351 218.738864 
L 214.369806 213.134711 
L 222.963479 187.627609 
L 231.368281 178.38008 
L 240.103608 183.431134 
L 248.50841 184.34932 
L 257.149301 194.343396 
L 265.648538 222.552152 
L 274.242212 228.356954 
L 282.741449 228.784054 
L 291.38234 215.85858 
L 299.787142 223.497464 
L 308.616905 222.726411 
L 317.116142 228.085096 
L 325.757034 198.72012 
L 334.161835 195.885443 
L 342.755508 190.328424 
L 351.301964 201.439182 
L 359.895637 202.839073 
L 368.442093 211.000033 
L 377.130202 209.453965 
L 385.676657 223.636649 
L 394.270331 214.540694 
L 402.816786 198.253841 
L 411.457677 209.612081 
L 420.004133 164.671513 
L 428.597806 168.957849 
L 437.522005 171.09209 
L 446.115679 172.85374 
L 454.662134 195.098864 
L 463.208589 183.796766 
L 471.802263 198.083358 
L 480.395936 185.918722 
" clip-path="url(#p1b3d2ee0f6)" style="fill: none; stroke: #1f77b4; stroke-width: 1.5; stroke-linecap: square"/>
   </g>
   <g id="legend_1">
    <g id="patch_7">
     <path d="M 79.9 151.570875 
L 193.559375 151.570875 
Q 195.559375 151.570875 195.559375 149.570875 
L 195.559375 47.824 
Q 195.559375 45.824 193.559375 45.824 
L 79.9 45.824 
Q 77.9 45.824 77.9 47.824 
L 77.9 149.570875 
Q 77.9 151.570875 79.9 151.570875 
z
" style="fill: #ffffff; opacity: 0.8; stroke: #e6e6e6; stroke-linejoin: miter"/>
    </g>
    <g id="line2d_36">
     <path d="M 81.9 53.922438 
L 91.9 53.922438 
L 101.9 53.922438 
" style="fill: none; stroke: #808080; stroke-width: 1.5; stroke-linecap: square"/>
    </g>
    <g id="text_17">
     <!-- Oil Log-Volatility -->
     <g transform="translate(109.9 57.422438)scale(0.1 -0.1)">
      <defs>
       <path id="DejaVuSans-4f" d="M 2522 4238 
Q 1834 4238 1429 3725 
Q 1025 3213 1025 2328 
Q 1025 1447 1429 934 
Q 1834 422 2522 422 
Q 3209 422 3611 934 
Q 4013 1447 4013 2328 
Q 4013 3213 3611 3725 
Q 3209 4238 2522 4238 
z
M 2522 4750 
Q 3503 4750 4090 4092 
Q 4678 3434 4678 2328 
Q 4678 1225 4090 567 
Q 3503 -91 2522 -91 
Q 1538 -91 948 565 
Q 359 1222 359 2328 
Q 359 3434 948 4092 
Q 1538 4750 2522 4750 
z
" transform="scale(0.015625)"/>
       <path id="DejaVuSans-4c" d="M 628 4666 
L 1259 4666 
L 1259 531 
L 3531 531 
L 3531 0 
L 628 0 
L 628 4666 
z
" transform="scale(0.015625)"/>
       <path id="DejaVuSans-67" d="M 2906 1791 
Q 2906 2416 2648 2759 
Q 2391 3103 1925 3103 
Q 1463 3103 1205 2759 
Q 947 2416 947 1791 
Q 947 1169 1205 825 
Q 1463 481 1925 481 
Q 2391 481 2648 825 
Q 2906 1169 2906 1791 
z
M 3481 434 
Q 3481 -459 3084 -895 
Q 2688 -1331 1869 -1331 
Q 1566 -1331 1297 -1286 
Q 1028 -1241 775 -1147 
L 775 -588 
Q 1028 -725 1275 -790 
Q 1522 -856 1778 -856 
Q 2344 -856 2625 -561 
Q 2906 -266 2906 331 
L 2906 616 
Q 2728 306 2450 153 
Q 2172 0 1784 0 
Q 1141 0 747 490 
Q 353 981 353 1791 
Q 353 2603 747 3093 
Q 1141 3584 1784 3584 
Q 2172 3584 2450 3431 
Q 2728 3278 2906 2969 
L 2906 3500 
L 3481 3500 
L 3481 434 
z
" transform="scale(0.015625)"/>
      </defs>
      <use xlink:href="#DejaVuSans-4f"/>
      <use xlink:href="#DejaVuSans-69" x="78.710938"/>
      <use xlink:href="#DejaVuSans-6c" x="106.494141"/>
      <use xlink:href="#DejaVuSans-20" x="134.277344"/>
      <use xlink:href="#DejaVuSans-4c" x="166.064453"/>
      <use xlink:href="#DejaVuSans-6f" x="220.027344"/>
      <use xlink:href="#DejaVuSans-67" x="281.208984"/>
      <use xlink:href="#DejaVuSans-2d" x="344.685547"/>
      <use xlink:href="#DejaVuSans-56" x="374.894531"/>
      <use xlink:href="#DejaVuSans-6f" x="435.552734"/>
      <use xlink:href="#DejaVuSans-6c" x="496.734375"/>
      <use xlink:href="#DejaVuSans-61" x="524.517578"/>
      <use xlink:href="#DejaVuSans-74" x="585.796875"/>
      <use xlink:href="#DejaVuSans-69" x="625.005859"/>
      <use xlink:href="#DejaVuSans-6c" x="652.789062"/>
      <use xlink:href="#DejaVuSans-69" x="680.572266"/>
      <use xlink:href="#DejaVuSans-74" x="708.355469"/>
      <use xlink:href="#DejaVuSans-79" x="747.564453"/>
     </g>
    </g>
    <g id="line2d_37">
     <path d="M 81.9 68.600563 
L 91.9 68.600563 
L 101.9 68.600563 
" style="fill: none; stroke-dasharray: 1.5,2.475; stroke-dashoffset: 0; stroke: #ff0000; stroke-width: 1.5"/>
    </g>
    <g id="text_18">
     <!-- R/S Hurst -->
     <g transform="translate(109.9 72.100563)scale(0.1 -0.1)">
      <defs>
       <path id="DejaVuSans-52" d="M 2841 2188 
Q 3044 2119 3236 1894 
Q 3428 1669 3622 1275 
L 4263 0 
L 3584 0 
L 2988 1197 
Q 2756 1666 2539 1819 
Q 2322 1972 1947 1972 
L 1259 1972 
L 1259 0 
L 628 0 
L 628 4666 
L 2053 4666 
Q 2853 4666 3247 4331 
Q 3641 3997 3641 3322 
Q 3641 2881 3436 2590 
Q 3231 2300 2841 2188 
z
M 1259 4147 
L 1259 2491 
L 2053 2491 
Q 2509 2491 2742 2702 
Q 2975 2913 2975 3322 
Q 2975 3731 2742 3939 
Q 2509 4147 2053 4147 
L 1259 4147 
z
" transform="scale(0.015625)"/>
       <path id="DejaVuSans-2f" d="M 1625 4666 
L 2156 4666 
L 531 -594 
L 0 -594 
L 1625 4666 
z
" transform="scale(0.015625)"/>
       <path id="DejaVuSans-53" d="M 3425 4513 
L 3425 3897 
Q 3066 4069 2747 4153 
Q 2428 4238 2131 4238 
Q 1616 4238 1336 4038 
Q 1056 3838 1056 3469 
Q 1056 3159 1242 3001 
Q 1428 2844 1947 2747 
L 2328 2669 
Q 3034 2534 3370 2195 
Q 3706 1856 3706 1288 
Q 3706 609 3251 259 
Q 2797 -91 1919 -91 
Q 1588 -91 1214 -16 
Q 841 59 441 206 
L 441 856 
Q 825 641 1194 531 
Q 1563 422 1919 422 
Q 2459 422 2753 634 
Q 3047 847 3047 1241 
Q 3047 1584 2836 1778 
Q 2625 1972 2144 2069 
L 1759 2144 
Q 1053 2284 737 2584 
Q 422 2884 422 3419 
Q 422 4038 858 4394 
Q 1294 4750 2059 4750 
Q 2388 4750 2728 4690 
Q 3069 4631 3425 4513 
z
" transform="scale(0.015625)"/>
      </defs>
      <use xlink:href="#DejaVuSans-52"/>
      <use xlink:href="#DejaVuSans-2f" x="69.482422"/>
      <use xlink:href="#DejaVuSans-53" x="103.173828"/>
      <use xlink:href="#DejaVuSans-20" x="166.650391"/>
      <use xlink:href="#DejaVuSans-48" x="198.4375"/>
      <use xlink:href="#DejaVuSans-75" x="273.632812"/>
      <use xlink:href="#DejaVuSans-72" x="337.011719"/>
      <use xlink:href="#DejaVuSans-73" x="378.125"/>
      <use xlink:href="#DejaVuSans-74" x="430.224609"/>
     </g>
    </g>
    <g id="line2d_38">
     <path d="M 81.9 83.278687 
L 91.9 83.278687 
L 101.9 83.278687 
" style="fill: none; stroke-dasharray: 9.6,2.4,1.5,2.4; stroke-dashoffset: 0; stroke: #ff0000; stroke-width: 1.5"/>
    </g>
    <g id="text_19">
     <!-- variogram Hurst -->
     <g transform="translate(109.9 86.778687)scale(0.1 -0.1)">
      <defs>
       <path id="DejaVuSans-76" d="M 191 3500 
L 800 3500 
L 1894 563 
L 2988 3500 
L 3597 3500 
L 2284 0 
L 1503 0 
L 191 3500 
z
" transform="scale(0.015625)"/>
      </defs>
      <use xlink:href="#DejaVuSans-76"/>
      <use xlink:href="#DejaVuSans-61" x="59.179688"/>
      <use xlink:href="#DejaVuSans-72" x="120.458984"/>
      <use xlink:href="#DejaVuSans-69" x="161.572266"/>
      <use xlink:href="#DejaVuSans-6f" x="189.355469"/>
      <use xlink:href="#DejaVuSans-67" x="250.537109"/>
      <use xlink:href="#DejaVuSans-72" x="314.013672"/>
      <use xlink:href="#DejaVuSans-61" x="355.126953"/>
      <use xlink:href="#DejaVuSans-6d" x="416.40625"/>
      <use xlink:href="#DejaVuSans-20" x="513.818359"/>
      <use xlink:href="#DejaVuSans-48" x="545.605469"/>
      <use xlink:href="#DejaVuSans-75" x="620.800781"/>
      <use xlink:href="#DejaVuSans-72" x="684.179688"/>
      <use xlink:href="#DejaVuSans-73" x="725.292969"/>
      <use xlink:href="#DejaVuSans-74" x="777.392578"/>
     </g>
    </g>
    <g id="line2d_39">
     <path d="M 81.9 97.956813 
L 91.9 97.956813 
L 101.9 97.956813 
" style="fill: none; stroke-dasharray: 5.55,2.4; stroke-dashoffset: 0; stroke: #ff0000; stroke-width: 1.5"/>
    </g>
    <g id="text_20">
     <!-- Higuchi Hurst -->
     <g transform="translate(109.9 101.456813)scale(0.1 -0.1)">
      <defs>
       <path id="DejaVuSans-63" d="M 3122 3366 
L 3122 2828 
Q 2878 2963 2633 3030 
Q 2388 3097 2138 3097 
Q 1578 3097 1268 2742 
Q 959 2388 959 1747 
Q 959 1106 1268 751 
Q 1578 397 2138 397 
Q 2388 397 2633 464 
Q 2878 531 3122 666 
L 3122 134 
Q 2881 22 2623 -34 
Q 2366 -91 2075 -91 
Q 1284 -91 818 406 
Q 353 903 353 1747 
Q 353 2603 823 3093 
Q 1294 3584 2113 3584 
Q 2378 3584 2631 3529 
Q 2884 3475 3122 3366 
z
" transform="scale(0.015625)"/>
       <path id="DejaVuSans-68" d="M 3513 2113 
L 3513 0 
L 2938 0 
L 2938 2094 
Q 2938 2591 2744 2837 
Q 2550 3084 2163 3084 
Q 1697 3084 1428 2787 
Q 1159 2491 1159 1978 
L 1159 0 
L 581 0 
L 581 4863 
L 1159 4863 
L 1159 2956 
Q 1366 3272 1645 3428 
Q 1925 3584 2291 3584 
Q 2894 3584 3203 3211 
Q 3513 2838 3513 2113 
z
" transform="scale(0.015625)"/>
      </defs>
      <use xlink:href="#DejaVuSans-48"/>
      <use xlink:href="#DejaVuSans-69" x="75.195312"/>
      <use xlink:href="#DejaVuSans-67" x="102.978516"/>
      <use xlink:href="#DejaVuSans-75" x="166.455078"/>
      <use xlink:href="#DejaVuSans-63" x="229.833984"/>
      <use xlink:href="#DejaVuSans-68" x="284.814453"/>
      <use xlink:href="#DejaVuSans-69" x="348.193359"/>
      <use xlink:href="#DejaVuSans-20" x="375.976562"/>
      <use xlink:href="#DejaVuSans-48" x="407.763672"/>
      <use xlink:href="#DejaVuSans-75" x="482.958984"/>
      <use xlink:href="#DejaVuSans-72" x="546.337891"/>
      <use xlink:href="#DejaVuSans-73" x="587.451172"/>
      <use xlink:href="#DejaVuSans-74" x="639.550781"/>
     </g>
    </g>
    <g id="line2d_40">
     <path d="M 81.9 112.634938 
L 91.9 112.634938 
L 101.9 112.634938 
" style="fill: none; stroke: #ff0000; stroke-width: 1.5; stroke-linecap: square"/>
    </g>
    <g id="text_21">
     <!-- Whittle Hurst -->
     <g transform="translate(109.9 116.134938)scale(0.1 -0.1)">
      <defs>
       <path id="DejaVuSans-57" d="M 213 4666 
L 850 4666 
L 1831 722 
L 2809 4666 
L 3519 4666 
L 4500 722 
L 5478 4666 
L 6119 4666 
L 4947 0 
L 4153 0 
L 3169 4050 
L 2175 0 
L 1381 0 
L 213 4666 
z
" transform="scale(0.015625)"/>
      </defs>
      <use xlink:href="#DejaVuSans-57"/>
      <use xlink:href="#DejaVuSans-68" x="98.876953"/>
      <use xlink:href="#DejaVuSans-69" x="162.255859"/>
      <use xlink:href="#DejaVuSans-74" x="190.039062"/>
      <use xlink:href="#DejaVuSans-74" x="229.248047"/>
      <use xlink:href="#DejaVuSans-6c" x="268.457031"/>
      <use xlink:href="#DejaVuSans-65" x="296.240234"/>
      <use xlink:href="#DejaVuSans-20" x="357.763672"/>
      <use xlink:href="#DejaVuSans-48" x="389.550781"/>
      <use xlink:href="#DejaVuSans-75" x="464.746094"/>
      <use xlink:href="#DejaVuSans-72" x="528.125"/>
      <use xlink:href="#DejaVuSans-73" x="569.238281"/>
      <use xlink:href="#DejaVuSans-74" x="621.337891"/>
     </g>
    </g>
    <g id="line2d_41">
     <path d="M 81.9 127.313063 
L 91.9 127.313063 
L 101.9 127.313063 
" style="fill: none; stroke: #ff7f0e; stroke-width: 1.5; stroke-linecap: square"/>
    </g>
    <g id="text_22">
     <!-- 1D CNN Hurst -->
     <g transform="translate(109.9 130.813063)scale(0.1 -0.1)">
      <defs>
       <path id="DejaVuSans-43" d="M 4122 4306 
L 4122 3641 
Q 3803 3938 3442 4084 
Q 3081 4231 2675 4231 
Q 1875 4231 1450 3742 
Q 1025 3253 1025 2328 
Q 1025 1406 1450 917 
Q 1875 428 2675 428 
Q 3081 428 3442 575 
Q 3803 722 4122 1019 
L 4122 359 
Q 3791 134 3420 21 
Q 3050 -91 2638 -91 
Q 1578 -91 968 557 
Q 359 1206 359 2328 
Q 359 3453 968 4101 
Q 1578 4750 2638 4750 
Q 3056 4750 3426 4639 
Q 3797 4528 4122 4306 
z
" transform="scale(0.015625)"/>
       <path id="DejaVuSans-4e" d="M 628 4666 
L 1478 4666 
L 3547 763 
L 3547 4666 
L 4159 4666 
L 4159 0 
L 3309 0 
L 1241 3903 
L 1241 0 
L 628 0 
L 628 4666 
z
" transform="scale(0.015625)"/>
      </defs>
      <use xlink:href="#DejaVuSans-31"/>
      <use xlink:href="#DejaVuSans-44" x="63.623047"/>
      <use xlink:href="#DejaVuSans-20" x="140.625"/>
      <use xlink:href="#DejaVuSans-43" x="172.412109"/>
      <use xlink:href="#DejaVuSans-4e" x="242.236328"/>
      <use xlink:href="#DejaVuSans-4e" x="317.041016"/>
      <use xlink:href="#DejaVuSans-20" x="391.845703"/>
      <use xlink:href="#DejaVuSans-48" x="423.632812"/>
      <use xlink:href="#DejaVuSans-75" x="498.828125"/>
      <use xlink:href="#DejaVuSans-72" x="562.207031"/>
      <use xlink:href="#DejaVuSans-73" x="603.320312"/>
      <use xlink:href="#DejaVuSans-74" x="655.419922"/>
     </g>
    </g>
    <g id="line2d_42">
     <path d="M 81.9 141.991187 
L 91.9 141.991187 
L 101.9 141.991187 
" style="fill: none; stroke: #1f77b4; stroke-width: 1.5; stroke-linecap: square"/>
    </g>
    <g id="text_23">
     <!-- LSTM Hurst -->
     <g transform="translate(109.9 145.491187)scale(0.1 -0.1)">
      <defs>
       <path id="DejaVuSans-54" d="M -19 4666 
L 3928 4666 
L 3928 4134 
L 2272 4134 
L 2272 0 
L 1638 0 
L 1638 4134 
L -19 4134 
L -19 4666 
z
" transform="scale(0.015625)"/>
       <path id="DejaVuSans-4d" d="M 628 4666 
L 1569 4666 
L 2759 1491 
L 3956 4666 
L 4897 4666 
L 4897 0 
L 4281 0 
L 4281 4097 
L 3078 897 
L 2444 897 
L 1241 4097 
L 1241 0 
L 628 0 
L 628 4666 
z
" transform="scale(0.015625)"/>
      </defs>
      <use xlink:href="#DejaVuSans-4c"/>
      <use xlink:href="#DejaVuSans-53" x="55.712891"/>
      <use xlink:href="#DejaVuSans-54" x="119.189453"/>
      <use xlink:href="#DejaVuSans-4d" x="180.273438"/>
      <use xlink:href="#DejaVuSans-20" x="266.552734"/>
      <use xlink:href="#DejaVuSans-48" x="298.339844"/>
      <use xlink:href="#DejaVuSans-75" x="373.535156"/>
      <use xlink:href="#DejaVuSans-72" x="436.914062"/>
      <use xlink:href="#DejaVuSans-73" x="478.027344"/>
      <use xlink:href="#DejaVuSans-74" x="530.126953"/>
     </g>
    </g>
   </g>
  </g>
 </g>
 <defs>
  <clipPath id="p1b3d2ee0f6">
   <rect x="72.9" y="40.824" width="451.98" height="261.954"/>
  </clipPath>
 </defs>
</svg>
