<?xml version="1.0" encoding="utf-8" standalone="no"?>
<!DOCTYPE svg PUBLIC "-//W3C//DTD SVG 1.1//EN"
  "http://www.w3.org/Graphics/SVG/1.1/DTD/svg11.dtd">
<svg xmlns:xlink="http://www.w3.org/1999/xlink" width="583.2pt" height="340.2pt" viewBox="0 0 583.2 340.2" xmlns="http://www.w3.org/2000/svg" version="1.1">
 <metadata>
  <rdf:RDF xmlns:dc="http://purl.org/dc/elements/1.1/" xmlns:cc="http://creativecommons.org/ns#" xmlns:rdf="http://www.w3.org/1999/02/22-rdf-syntax-ns#">
   <cc:Work>
    <dc:type rdf:resource="http://purl.org/dc/dcmitype/StillImage"/>
    <dc:date>2024-07-07T11:23:20.497515</dc:date>
    <dc:format>image/svg+xml</dc:format>
    <dc:creator>
     <cc:Agent>
      <dc:title>Matplotlib v3.5.1, https://matplotlib.org/</dc:title>
     </cc:Agent>
    </dc:creator>
   </cc:Work>
  </rdf:RDF>
 </metadata>
 <defs>
  <style type="text/css">*{stroke-linejoin: round; stroke-linecap: butt}</style>
 </defs>
 <g id="figure_1">
  <g id="patch_1">
   <path d="M 0 340.2 
L 583.2 340.2 
L 583.2 0 
L 0 0 
z
" style="fill: #ffffff"/>
  </g>
  <g id="axes_1">
   <g id="patch_2">
    <path d="M 72.9 302.778 
L 524.88 302.778 
L 524.88 40.824 
L 72.9 40.824 
L 72.9 302.778 
z
" style="fill: none; opacity: 0"/>
   </g>
   <g id="matplotlib.axis_1">
    <g id="xtick_1">
     <g id="line2d_1">
      <path d="M 93.030712 302.778 
L 93.030712 40.824 
" clip-path="url(#p6f4ef27161)" style="fill: none; stroke: #e6e6e6; stroke-width: 0.8; stroke-linecap: square"/>
     </g>
     <g id="line2d_2">
      <defs>
       <path id="m408541f55d" d="M 0 0 
L 0 3.5 
" style="stroke: #000000; stroke-width: 0.8"/>
      </defs>
      <g>
       <use xlink:href="#m408541f55d" x="93.030712" y="302.778" style="stroke: #000000; stroke-width: 0.8"/>
      </g>
     </g>
     <g id="text_1">
      <!-- 2000 -->
      <g transform="translate(80.305712 317.376438)scale(0.1 -0.1)">
       <defs>
        <path id="DejaVuSans-32" d="M 1228 531 
L 3431 531 
L 3431 0 
L 469 0 
L 469 531 
Q 828 903 1448 1529 
Q 2069 2156 2228 2338 
Q 2531 2678 2651 2914 
Q 2772 3150 2772 3378 
Q 2772 3750 2511 3984 
Q 2250 4219 1831 4219 
Q 1534 4219 1204 4116 
Q 875 4013 500 3803 
L 500 4441 
Q 881 4594 1212 4672 
Q 1544 4750 1819 4750 
Q 2544 4750 2975 4387 
Q 3406 4025 3406 3419 
Q 3406 3131 3298 2873 
Q 3191 2616 2906 2266 
Q 2828 2175 2409 1742 
Q 1991 1309 1228 531 
z
" transform="scale(0.015625)"/>
        <path id="DejaVuSans-30" d="M 2034 4250 
Q 1547 4250 1301 3770 
Q 1056 3291 1056 2328 
Q 1056 1369 1301 889 
Q 1547 409 2034 409 
Q 2525 409 2770 889 
Q 3016 1369 3016 2328 
Q 3016 3291 2770 3770 
Q 2525 4250 2034 4250 
z
M 2034 4750 
Q 2819 4750 3233 4129 
Q 3647 3509 3647 2328 
Q 3647 1150 3233 529 
Q 2819 -91 2034 -91 
Q 1250 -91 836 529 
Q 422 1150 422 2328 
Q 422 3509 836 4129 
Q 1250 4750 2034 4750 
z
" transform="scale(0.015625)"/>
       </defs>
       <use xlink:href="#DejaVuSans-32"/>
       <use xlink:href="#DejaVuSans-30" x="63.623047"/>
       <use xlink:href="#DejaVuSans-30" x="127.246094"/>
       <use xlink:href="#DejaVuSans-30" x="190.869141"/>
      </g>
     </g>
    </g>
    <g id="xtick_2">
     <g id="line2d_3">
      <path d="M 160.20972 302.778 
L 160.20972 40.824 
" clip-path="url(#p6f4ef27161)" style="fill: none; stroke: #e6e6e6; stroke-width: 0.8; stroke-linecap: square"/>
     </g>
     <g id="line2d_4">
      <g>
       <use xlink:href="#m408541f55d" x="160.20972" y="302.778" style="stroke: #000000; stroke-width: 0.8"/>
      </g>
     </g>
     <g id="text_2">
      <!-- 2004 -->
      <g transform="translate(147.48472 317.376438)scale(0.1 -0.1)">
       <defs>
        <path id="DejaVuSans-34" d="M 2419 4116 
L 825 1625 
L 2419 1625 
L 2419 4116 
z
M 2253 4666 
L 3047 4666 
L 3047 1625 
L 3713 1625 
L 3713 1100 
L 3047 1100 
L 3047 0 
L 2419 0 
L 2419 1100 
L 313 1100 
L 313 1709 
L 2253 4666 
z
" transform="scale(0.015625)"/>
       </defs>
       <use xlink:href="#DejaVuSans-32"/>
       <use xlink:href="#DejaVuSans-30" x="63.623047"/>
       <use xlink:href="#DejaVuSans-30" x="127.246094"/>
       <use xlink:href="#DejaVuSans-34" x="190.869141"/>
      </g>
     </g>
    </g>
    <g id="xtick_3">
     <g id="line2d_5">
      <path d="M 227.388728 302.778 
L 227.388728 40.824 
" clip-path="url(#p6f4ef27161)" style="fill: none; stroke: #e6e6e6; stroke-width: 0.8; stroke-linecap: square"/>
     </g>
     <g id="line2d_6">
      <g>
       <use xlink:href="#m408541f55d" x="227.388728" y="302.778" style="stroke: #000000; stroke-width: 0.8"/>
      </g>
     </g>
     <g id="text_3">
      <!-- 2008 -->
      <g transform="translate(214.663728 317.376438)scale(0.1 -0.1)">
       <defs>
        <path id="DejaVuSans-38" d="M 2034 2216 
Q 1584 2216 1326 1975 
Q 1069 1734 1069 1313 
Q 1069 891 1326 650 
Q 1584 409 2034 409 
Q 2484 409 2743 651 
Q 3003 894 3003 1313 
Q 3003 1734 2745 1975 
Q 2488 2216 2034 2216 
z
M 1403 2484 
Q 997 2584 770 2862 
Q 544 3141 544 3541 
Q 544 4100 942 4425 
Q 1341 4750 2034 4750 
Q 2731 4750 3128 4425 
Q 3525 4100 3525 3541 
Q 3525 3141 3298 2862 
Q 3072 2584 2669 2484 
Q 3125 2378 3379 2068 
Q 3634 1759 3634 1313 
Q 3634 634 3220 271 
Q 2806 -91 2034 -91 
Q 1263 -91 848 271 
Q 434 634 434 1313 
Q 434 1759 690 2068 
Q 947 2378 1403 2484 
z
M 1172 3481 
Q 1172 3119 1398 2916 
Q 1625 2713 2034 2713 
Q 2441 2713 2670 2916 
Q 2900 3119 2900 3481 
Q 2900 3844 2670 4047 
Q 2441 4250 2034 4250 
Q 1625 4250 1398 4047 
Q 1172 3844 1172 3481 
z
" transform="scale(0.015625)"/>
       </defs>
       <use xlink:href="#DejaVuSans-32"/>
       <use xlink:href="#DejaVuSans-30" x="63.623047"/>
       <use xlink:href="#DejaVuSans-30" x="127.246094"/>
       <use xlink:href="#DejaVuSans-38" x="190.869141"/>
      </g>
     </g>
    </g>
    <g id="xtick_4">
     <g id="line2d_7">
      <path d="M 294.567737 302.778 
L 294.567737 40.824 
" clip-path="url(#p6f4ef27161)" style="fill: none; stroke: #e6e6e6; stroke-width: 0.8; stroke-linecap: square"/>
     </g>
     <g id="line2d_8">
      <g>
       <use xlink:href="#m408541f55d" x="294.567737" y="302.778" style="stroke: #000000; stroke-width: 0.8"/>
      </g>
     </g>
     <g id="text_4">
      <!-- 2012 -->
      <g transform="translate(281.842737 317.376438)scale(0.1 -0.1)">
       <defs>
        <path id="DejaVuSans-31" d="M 794 531 
L 1825 531 
L 1825 4091 
L 703 3866 
L 703 4441 
L 1819 4666 
L 2450 4666 
L 2450 531 
L 3481 531 
L 3481 0 
L 794 0 
L 794 531 
z
" transform="scale(0.015625)"/>
       </defs>
       <use xlink:href="#DejaVuSans-32"/>
       <use xlink:href="#DejaVuSans-30" x="63.623047"/>
       <use xlink:href="#DejaVuSans-31" x="127.246094"/>
       <use xlink:href="#DejaVuSans-32" x="190.869141"/>
      </g>
     </g>
    </g>
    <g id="xtick_5">
     <g id="line2d_9">
      <path d="M 361.746745 302.778 
L 361.746745 40.824 
" clip-path="url(#p6f4ef27161)" style="fill: none; stroke: #e6e6e6; stroke-width: 0.8; stroke-linecap: square"/>
     </g>
     <g id="line2d_10">
      <g>
       <use xlink:href="#m408541f55d" x="361.746745" y="302.778" style="stroke: #000000; stroke-width: 0.8"/>
      </g>
     </g>
     <g id="text_5">
      <!-- 2016 -->
      <g transform="translate(349.021745 317.376438)scale(0.1 -0.1)">
       <defs>
        <path id="DejaVuSans-36" d="M 2113 2584 
Q 1688 2584 1439 2293 
Q 1191 2003 1191 1497 
Q 1191 994 1439 701 
Q 1688 409 2113 409 
Q 2538 409 2786 701 
Q 3034 994 3034 1497 
Q 3034 2003 2786 2293 
Q 2538 2584 2113 2584 
z
M 3366 4563 
L 3366 3988 
Q 3128 4100 2886 4159 
Q 2644 4219 2406 4219 
Q 1781 4219 1451 3797 
Q 1122 3375 1075 2522 
Q 1259 2794 1537 2939 
Q 1816 3084 2150 3084 
Q 2853 3084 3261 2657 
Q 3669 2231 3669 1497 
Q 3669 778 3244 343 
Q 2819 -91 2113 -91 
Q 1303 -91 875 529 
Q 447 1150 447 2328 
Q 447 3434 972 4092 
Q 1497 4750 2381 4750 
Q 2619 4750 2861 4703 
Q 3103 4656 3366 4563 
z
" transform="scale(0.015625)"/>
       </defs>
       <use xlink:href="#DejaVuSans-32"/>
       <use xlink:href="#DejaVuSans-30" x="63.623047"/>
       <use xlink:href="#DejaVuSans-31" x="127.246094"/>
       <use xlink:href="#DejaVuSans-36" x="190.869141"/>
      </g>
     </g>
    </g>
    <g id="xtick_6">
     <g id="line2d_11">
      <path d="M 428.925753 302.778 
L 428.925753 40.824 
" clip-path="url(#p6f4ef27161)" style="fill: none; stroke: #e6e6e6; stroke-width: 0.8; stroke-linecap: square"/>
     </g>
     <g id="line2d_12">
      <g>
       <use xlink:href="#m408541f55d" x="428.925753" y="302.778" style="stroke: #000000; stroke-width: 0.8"/>
      </g>
     </g>
     <g id="text_6">
      <!-- 2020 -->
      <g transform="translate(416.200753 317.376438)scale(0.1 -0.1)">
       <use xlink:href="#DejaVuSans-32"/>
       <use xlink:href="#DejaVuSans-30" x="63.623047"/>
       <use xlink:href="#DejaVuSans-32" x="127.246094"/>
       <use xlink:href="#DejaVuSans-30" x="190.869141"/>
      </g>
     </g>
    </g>
    <g id="xtick_7">
     <g id="line2d_13">
      <path d="M 496.104762 302.778 
L 496.104762 40.824 
" clip-path="url(#p6f4ef27161)" style="fill: none; stroke: #e6e6e6; stroke-width: 0.8; stroke-linecap: square"/>
     </g>
     <g id="line2d_14">
      <g>
       <use xlink:href="#m408541f55d" x="496.104762" y="302.778" style="stroke: #000000; stroke-width: 0.8"/>
      </g>
     </g>
     <g id="text_7">
      <!-- 2024 -->
      <g transform="translate(483.379762 317.376438)scale(0.1 -0.1)">
       <use xlink:href="#DejaVuSans-32"/>
       <use xlink:href="#DejaVuSans-30" x="63.623047"/>
       <use xlink:href="#DejaVuSans-32" x="127.246094"/>
       <use xlink:href="#DejaVuSans-34" x="190.869141"/>
      </g>
     </g>
    </g>
    <g id="text_8">
     <!-- Date -->
     <g transform="translate(286.939219 331.054562)scale(0.1 -0.1)">
      <defs>
       <path id="DejaVuSans-44" d="M 1259 4147 
L 1259 519 
L 2022 519 
Q 2988 519 3436 956 
Q 3884 1394 3884 2338 
Q 3884 3275 3436 3711 
Q 2988 4147 2022 4147 
L 1259 4147 
z
M 628 4666 
L 1925 4666 
Q 3281 4666 3915 4102 
Q 4550 3538 4550 2338 
Q 4550 1131 3912 565 
Q 3275 0 1925 0 
L 628 0 
L 628 4666 
z
" transform="scale(0.015625)"/>
       <path id="DejaVuSans-61" d="M 2194 1759 
Q 1497 1759 1228 1600 
Q 959 1441 959 1056 
Q 959 750 1161 570 
Q 1363 391 1709 391 
Q 2188 391 2477 730 
Q 2766 1069 2766 1631 
L 2766 1759 
L 2194 1759 
z
M 3341 1997 
L 3341 0 
L 2766 0 
L 2766 531 
Q 2569 213 2275 61 
Q 1981 -91 1556 -91 
Q 1019 -91 701 211 
Q 384 513 384 1019 
Q 384 1609 779 1909 
Q 1175 2209 1959 2209 
L 2766 2209 
L 2766 2266 
Q 2766 2663 2505 2880 
Q 2244 3097 1772 3097 
Q 1472 3097 1187 3025 
Q 903 2953 641 2809 
L 641 3341 
Q 956 3463 1253 3523 
Q 1550 3584 1831 3584 
Q 2591 3584 2966 3190 
Q 3341 2797 3341 1997 
z
" transform="scale(0.015625)"/>
       <path id="DejaVuSans-74" d="M 1172 4494 
L 1172 3500 
L 2356 3500 
L 2356 3053 
L 1172 3053 
L 1172 1153 
Q 1172 725 1289 603 
Q 1406 481 1766 481 
L 2356 481 
L 2356 0 
L 1766 0 
Q 1100 0 847 248 
Q 594 497 594 1153 
L 594 3053 
L 172 3053 
L 172 3500 
L 594 3500 
L 594 4494 
L 1172 4494 
z
" transform="scale(0.015625)"/>
       <path id="DejaVuSans-65" d="M 3597 1894 
L 3597 1613 
L 953 1613 
Q 991 1019 1311 708 
Q 1631 397 2203 397 
Q 2534 397 2845 478 
Q 3156 559 3463 722 
L 3463 178 
Q 3153 47 2828 -22 
Q 2503 -91 2169 -91 
Q 1331 -91 842 396 
Q 353 884 353 1716 
Q 353 2575 817 3079 
Q 1281 3584 2069 3584 
Q 2775 3584 3186 3129 
Q 3597 2675 3597 1894 
z
M 3022 2063 
Q 3016 2534 2758 2815 
Q 2500 3097 2075 3097 
Q 1594 3097 1305 2825 
Q 1016 2553 972 2059 
L 3022 2063 
z
" transform="scale(0.015625)"/>
      </defs>
      <use xlink:href="#DejaVuSans-44"/>
      <use xlink:href="#DejaVuSans-61" x="77.001953"/>
      <use xlink:href="#DejaVuSans-74" x="138.28125"/>
      <use xlink:href="#DejaVuSans-65" x="177.490234"/>
     </g>
    </g>
   </g>
   <g id="matplotlib.axis_2">
    <g id="ytick_1">
     <g id="line2d_15">
      <path d="M 72.9 275.009831 
L 524.88 275.009831 
" clip-path="url(#p6f4ef27161)" style="fill: none; stroke: #e6e6e6; stroke-width: 0.8; stroke-linecap: square"/>
     </g>
     <g id="line2d_16">
      <defs>
       <path id="md8cf866bfc" d="M 0 0 
L -3.5 0 
" style="stroke: #000000; stroke-width: 0.8"/>
      </defs>
      <g>
       <use xlink:href="#md8cf866bfc" x="72.9" y="275.009831" style="stroke: #000000; stroke-width: 0.8"/>
      </g>
     </g>
     <g id="text_9">
      <!-- −0.2 -->
      <g transform="translate(41.617187 278.80905)scale(0.1 -0.1)">
       <defs>
        <path id="DejaVuSans-2212" d="M 678 2272 
L 4684 2272 
L 4684 1741 
L 678 1741 
L 678 2272 
z
" transform="scale(0.015625)"/>
        <path id="DejaVuSans-2e" d="M 684 794 
L 1344 794 
L 1344 0 
L 684 0 
L 684 794 
z
" transform="scale(0.015625)"/>
       </defs>
       <use xlink:href="#DejaVuSans-2212"/>
       <use xlink:href="#DejaVuSans-30" x="83.789062"/>
       <use xlink:href="#DejaVuSans-2e" x="147.412109"/>
       <use xlink:href="#DejaVuSans-32" x="179.199219"/>
      </g>
     </g>
    </g>
    <g id="ytick_2">
     <g id="line2d_17">
      <path d="M 72.9 219.323415 
L 524.88 219.323415 
" clip-path="url(#p6f4ef27161)" style="fill: none; stroke: #e6e6e6; stroke-width: 0.8; stroke-linecap: square"/>
     </g>
     <g id="line2d_18">
      <g>
       <use xlink:href="#md8cf866bfc" x="72.9" y="219.323415" style="stroke: #000000; stroke-width: 0.8"/>
      </g>
     </g>
     <g id="text_10">
      <!-- 0.0 -->
      <g transform="translate(49.996875 223.122633)scale(0.1 -0.1)">
       <use xlink:href="#DejaVuSans-30"/>
       <use xlink:href="#DejaVuSans-2e" x="63.623047"/>
       <use xlink:href="#DejaVuSans-30" x="95.410156"/>
      </g>
     </g>
    </g>
    <g id="ytick_3">
     <g id="line2d_19">
      <path d="M 72.9 163.636998 
L 524.88 163.636998 
" clip-path="url(#p6f4ef27161)" style="fill: none; stroke: #e6e6e6; stroke-width: 0.8; stroke-linecap: square"/>
     </g>
     <g id="line2d_20">
      <g>
       <use xlink:href="#md8cf866bfc" x="72.9" y="163.636998" style="stroke: #000000; stroke-width: 0.8"/>
      </g>
     </g>
     <g id="text_11">
      <!-- 0.2 -->
      <g transform="translate(49.996875 167.436217)scale(0.1 -0.1)">
       <use xlink:href="#DejaVuSans-30"/>
       <use xlink:href="#DejaVuSans-2e" x="63.623047"/>
       <use xlink:href="#DejaVuSans-32" x="95.410156"/>
      </g>
     </g>
    </g>
    <g id="ytick_4">
     <g id="line2d_21">
      <path d="M 72.9 107.950582 
L 524.88 107.950582 
" clip-path="url(#p6f4ef27161)" style="fill: none; stroke: #e6e6e6; stroke-width: 0.8; stroke-linecap: square"/>
     </g>
     <g id="line2d_22">
      <g>
       <use xlink:href="#md8cf866bfc" x="72.9" y="107.950582" style="stroke: #000000; stroke-width: 0.8"/>
      </g>
     </g>
     <g id="text_12">
      <!-- 0.4 -->
      <g transform="translate(49.996875 111.749801)scale(0.1 -0.1)">
       <use xlink:href="#DejaVuSans-30"/>
       <use xlink:href="#DejaVuSans-2e" x="63.623047"/>
       <use xlink:href="#DejaVuSans-34" x="95.410156"/>
      </g>
     </g>
    </g>
    <g id="ytick_5">
     <g id="line2d_23">
      <path d="M 72.9 52.264166 
L 524.88 52.264166 
" clip-path="url(#p6f4ef27161)" style="fill: none; stroke: #e6e6e6; stroke-width: 0.8; stroke-linecap: square"/>
     </g>
     <g id="line2d_24">
      <g>
       <use xlink:href="#md8cf866bfc" x="72.9" y="52.264166" style="stroke: #000000; stroke-width: 0.8"/>
      </g>
     </g>
     <g id="text_13">
      <!-- 0.6 -->
      <g transform="translate(49.996875 56.063384)scale(0.1 -0.1)">
       <use xlink:href="#DejaVuSans-30"/>
       <use xlink:href="#DejaVuSans-2e" x="63.623047"/>
       <use xlink:href="#DejaVuSans-36" x="95.410156"/>
      </g>
     </g>
    </g>
    <g id="text_14">
     <!-- Volatility and Hurst-estimate -->
     <g transform="translate(35.5375 243.333031)rotate(-90)scale(0.1 -0.1)">
      <defs>
       <path id="DejaVuSans-56" d="M 1831 0 
L 50 4666 
L 709 4666 
L 2188 738 
L 3669 4666 
L 4325 4666 
L 2547 0 
L 1831 0 
z
" transform="scale(0.015625)"/>
       <path id="DejaVuSans-6f" d="M 1959 3097 
Q 1497 3097 1228 2736 
Q 959 2375 959 1747 
Q 959 1119 1226 758 
Q 1494 397 1959 397 
Q 2419 397 2687 759 
Q 2956 1122 2956 1747 
Q 2956 2369 2687 2733 
Q 2419 3097 1959 3097 
z
M 1959 3584 
Q 2709 3584 3137 3096 
Q 3566 2609 3566 1747 
Q 3566 888 3137 398 
Q 2709 -91 1959 -91 
Q 1206 -91 779 398 
Q 353 888 353 1747 
Q 353 2609 779 3096 
Q 1206 3584 1959 3584 
z
" transform="scale(0.015625)"/>
       <path id="DejaVuSans-6c" d="M 603 4863 
L 1178 4863 
L 1178 0 
L 603 0 
L 603 4863 
z
" transform="scale(0.015625)"/>
       <path id="DejaVuSans-69" d="M 603 3500 
L 1178 3500 
L 1178 0 
L 603 0 
L 603 3500 
z
M 603 4863 
L 1178 4863 
L 1178 4134 
L 603 4134 
L 603 4863 
z
" transform="scale(0.015625)"/>
       <path id="DejaVuSans-79" d="M 2059 -325 
Q 1816 -950 1584 -1140 
Q 1353 -1331 966 -1331 
L 506 -1331 
L 506 -850 
L 844 -850 
Q 1081 -850 1212 -737 
Q 1344 -625 1503 -206 
L 1606 56 
L 191 3500 
L 800 3500 
L 1894 763 
L 2988 3500 
L 3597 3500 
L 2059 -325 
z
" transform="scale(0.015625)"/>
       <path id="DejaVuSans-20" transform="scale(0.015625)"/>
       <path id="DejaVuSans-6e" d="M 3513 2113 
L 3513 0 
L 2938 0 
L 2938 2094 
Q 2938 2591 2744 2837 
Q 2550 3084 2163 3084 
Q 1697 3084 1428 2787 
Q 1159 2491 1159 1978 
L 1159 0 
L 581 0 
L 581 3500 
L 1159 3500 
L 1159 2956 
Q 1366 3272 1645 3428 
Q 1925 3584 2291 3584 
Q 2894 3584 3203 3211 
Q 3513 2838 3513 2113 
z
" transform="scale(0.015625)"/>
       <path id="DejaVuSans-64" d="M 2906 2969 
L 2906 4863 
L 3481 4863 
L 3481 0 
L 2906 0 
L 2906 525 
Q 2725 213 2448 61 
Q 2172 -91 1784 -91 
Q 1150 -91 751 415 
Q 353 922 353 1747 
Q 353 2572 751 3078 
Q 1150 3584 1784 3584 
Q 2172 3584 2448 3432 
Q 2725 3281 2906 2969 
z
M 947 1747 
Q 947 1113 1208 752 
Q 1469 391 1925 391 
Q 2381 391 2643 752 
Q 2906 1113 2906 1747 
Q 2906 2381 2643 2742 
Q 2381 3103 1925 3103 
Q 1469 3103 1208 2742 
Q 947 2381 947 1747 
z
" transform="scale(0.015625)"/>
       <path id="DejaVuSans-48" d="M 628 4666 
L 1259 4666 
L 1259 2753 
L 3553 2753 
L 3553 4666 
L 4184 4666 
L 4184 0 
L 3553 0 
L 3553 2222 
L 1259 2222 
L 1259 0 
L 628 0 
L 628 4666 
z
" transform="scale(0.015625)"/>
       <path id="DejaVuSans-75" d="M 544 1381 
L 544 3500 
L 1119 3500 
L 1119 1403 
Q 1119 906 1312 657 
Q 1506 409 1894 409 
Q 2359 409 2629 706 
Q 2900 1003 2900 1516 
L 2900 3500 
L 3475 3500 
L 3475 0 
L 2900 0 
L 2900 538 
Q 2691 219 2414 64 
Q 2138 -91 1772 -91 
Q 1169 -91 856 284 
Q 544 659 544 1381 
z
M 1991 3584 
L 1991 3584 
z
" transform="scale(0.015625)"/>
       <path id="DejaVuSans-72" d="M 2631 2963 
Q 2534 3019 2420 3045 
Q 2306 3072 2169 3072 
Q 1681 3072 1420 2755 
Q 1159 2438 1159 1844 
L 1159 0 
L 581 0 
L 581 3500 
L 1159 3500 
L 1159 2956 
Q 1341 3275 1631 3429 
Q 1922 3584 2338 3584 
Q 2397 3584 2469 3576 
Q 2541 3569 2628 3553 
L 2631 2963 
z
" transform="scale(0.015625)"/>
       <path id="DejaVuSans-73" d="M 2834 3397 
L 2834 2853 
Q 2591 2978 2328 3040 
Q 2066 3103 1784 3103 
Q 1356 3103 1142 2972 
Q 928 2841 928 2578 
Q 928 2378 1081 2264 
Q 1234 2150 1697 2047 
L 1894 2003 
Q 2506 1872 2764 1633 
Q 3022 1394 3022 966 
Q 3022 478 2636 193 
Q 2250 -91 1575 -91 
Q 1294 -91 989 -36 
Q 684 19 347 128 
L 347 722 
Q 666 556 975 473 
Q 1284 391 1588 391 
Q 1994 391 2212 530 
Q 2431 669 2431 922 
Q 2431 1156 2273 1281 
Q 2116 1406 1581 1522 
L 1381 1569 
Q 847 1681 609 1914 
Q 372 2147 372 2553 
Q 372 3047 722 3315 
Q 1072 3584 1716 3584 
Q 2034 3584 2315 3537 
Q 2597 3491 2834 3397 
z
" transform="scale(0.015625)"/>
       <path id="DejaVuSans-2d" d="M 313 2009 
L 1997 2009 
L 1997 1497 
L 313 1497 
L 313 2009 
z
" transform="scale(0.015625)"/>
       <path id="DejaVuSans-6d" d="M 3328 2828 
Q 3544 3216 3844 3400 
Q 4144 3584 4550 3584 
Q 5097 3584 5394 3201 
Q 5691 2819 5691 2113 
L 5691 0 
L 5113 0 
L 5113 2094 
Q 5113 2597 4934 2840 
Q 4756 3084 4391 3084 
Q 3944 3084 3684 2787 
Q 3425 2491 3425 1978 
L 3425 0 
L 2847 0 
L 2847 2094 
Q 2847 2600 2669 2842 
Q 2491 3084 2119 3084 
Q 1678 3084 1418 2786 
Q 1159 2488 1159 1978 
L 1159 0 
L 581 0 
L 581 3500 
L 1159 3500 
L 1159 2956 
Q 1356 3278 1631 3431 
Q 1906 3584 2284 3584 
Q 2666 3584 2933 3390 
Q 3200 3197 3328 2828 
z
" transform="scale(0.015625)"/>
      </defs>
      <use xlink:href="#DejaVuSans-56"/>
      <use xlink:href="#DejaVuSans-6f" x="60.658203"/>
      <use xlink:href="#DejaVuSans-6c" x="121.839844"/>
      <use xlink:href="#DejaVuSans-61" x="149.623047"/>
      <use xlink:href="#DejaVuSans-74" x="210.902344"/>
      <use xlink:href="#DejaVuSans-69" x="250.111328"/>
      <use xlink:href="#DejaVuSans-6c" x="277.894531"/>
      <use xlink:href="#DejaVuSans-69" x="305.677734"/>
      <use xlink:href="#DejaVuSans-74" x="333.460938"/>
      <use xlink:href="#DejaVuSans-79" x="372.669922"/>
      <use xlink:href="#DejaVuSans-20" x="431.849609"/>
      <use xlink:href="#DejaVuSans-61" x="463.636719"/>
      <use xlink:href="#DejaVuSans-6e" x="524.916016"/>
      <use xlink:href="#DejaVuSans-64" x="588.294922"/>
      <use xlink:href="#DejaVuSans-20" x="651.771484"/>
      <use xlink:href="#DejaVuSans-48" x="683.558594"/>
      <use xlink:href="#DejaVuSans-75" x="758.753906"/>
      <use xlink:href="#DejaVuSans-72" x="822.132812"/>
      <use xlink:href="#DejaVuSans-73" x="863.246094"/>
      <use xlink:href="#DejaVuSans-74" x="915.345703"/>
      <use xlink:href="#DejaVuSans-2d" x="954.554688"/>
      <use xlink:href="#DejaVuSans-65" x="990.638672"/>
      <use xlink:href="#DejaVuSans-73" x="1052.162109"/>
      <use xlink:href="#DejaVuSans-74" x="1104.261719"/>
      <use xlink:href="#DejaVuSans-69" x="1143.470703"/>
      <use xlink:href="#DejaVuSans-6d" x="1171.253906"/>
      <use xlink:href="#DejaVuSans-61" x="1268.666016"/>
      <use xlink:href="#DejaVuSans-74" x="1329.945312"/>
      <use xlink:href="#DejaVuSans-65" x="1369.154297"/>
     </g>
    </g>
   </g>
   <g id="patch_3">
    <path d="M 72.9 302.778 
L 72.9 40.824 
" style="fill: none; stroke: #000000; stroke-width: 0.8; stroke-linejoin: miter; stroke-linecap: square"/>
   </g>
   <g id="patch_4">
    <path d="M 524.88 302.778 
L 524.88 40.824 
" style="fill: none; stroke: #e6e6e6; stroke-width: 0.8; stroke-linejoin: miter; stroke-linecap: square"/>
   </g>
   <g id="patch_5">
    <path d="M 72.9 302.778 
L 524.88 302.778 
" style="fill: none; stroke: #000000; stroke-width: 0.8; stroke-linejoin: miter; stroke-linecap: square"/>
   </g>
   <g id="patch_6">
    <path d="M 72.9 40.824 
L 524.88 40.824 
" style="fill: none; stroke: #e6e6e6; stroke-width: 0.8; stroke-linejoin: miter; stroke-linecap: square"/>
   </g>
   <g id="line2d_25">
    <path d="M 93.444545 206.093815 
L 93.812398 213.19964 
L 94.134268 213.904863 
L 94.456139 208.832308 
L 94.77801 216.67907 
L 95.09988 207.846659 
L 95.467733 210.895655 
L 95.789603 209.068023 
L 96.111474 205.232266 
L 96.433345 207.755367 
L 96.755215 205.886755 
L 97.077086 211.222617 
L 97.398957 209.780898 
L 97.720827 213.308103 
L 98.042698 198.536408 
L 98.41055 210.050292 
L 98.732421 212.260274 
L 99.054292 210.444494 
L 99.698033 212.018091 
L 100.065885 212.986823 
L 100.387756 214.310556 
L 100.709626 211.222134 
L 101.031497 212.952289 
L 101.813183 213.8149 
L 102.135054 217.186862 
L 102.456924 213.573811 
L 102.778795 213.508666 
L 103.100666 217.519314 
L 103.422536 214.091772 
L 103.744407 215.671561 
L 104.066278 217.864776 
L 104.43413 214.693539 
L 104.756001 216.770694 
L 105.077871 216.171988 
L 105.399742 212.789545 
L 105.721613 211.673653 
L 106.043483 215.279086 
L 106.365354 206.830467 
L 106.687225 212.656058 
L 107.009095 211.936783 
L 107.330966 213.954721 
L 107.652837 211.048154 
L 107.974707 214.560818 
L 108.34256 213.982174 
L 108.66443 204.677297 
L 108.986301 216.315609 
L 109.308172 208.047886 
L 109.676024 216.349612 
L 110.043876 207.36605 
L 110.365747 216.6239 
L 110.825562 213.647299 
L 111.147433 215.69385 
L 111.469303 212.785009 
L 111.791174 213.47482 
L 112.159026 214.655372 
L 112.480897 210.617785 
L 112.802768 214.04334 
L 113.124638 204.210952 
L 113.446509 206.955344 
L 113.76838 206.094049 
L 114.09025 209.923735 
L 114.412121 206.129659 
L 114.779973 208.425236 
L 115.101844 212.320165 
L 115.423714 213.661916 
L 115.745585 214.08301 
L 116.067456 210.117076 
L 116.389327 214.338066 
L 116.757179 213.879939 
L 117.722791 215.82334 
L 118.044661 213.601422 
L 118.734384 211.594791 
L 119.056255 214.535139 
L 119.378126 210.688704 
L 119.699996 215.520861 
L 120.021867 212.293943 
L 120.343738 214.710151 
L 120.665608 211.231442 
L 120.987479 213.980722 
L 121.447294 210.816006 
L 121.953091 201.464242 
L 122.596832 212.804366 
L 122.918703 210.956972 
L 123.240574 213.831919 
L 123.562444 213.685005 
L 123.884315 207.277831 
L 124.206186 214.340381 
L 124.528056 213.218838 
L 124.987872 213.398835 
L 125.309742 212.197772 
L 125.631613 210.518894 
L 125.953484 214.222962 
L 126.275354 214.683021 
L 126.689188 214.910431 
L 127.33293 213.551973 
L 127.700782 213.666331 
L 128.022652 208.912326 
L 128.344523 213.546259 
L 128.666394 214.622854 
L 129.034246 209.239854 
L 129.356117 211.237067 
L 129.677987 210.565419 
L 129.999858 214.475073 
L 130.321729 215.288127 
L 130.781544 213.842197 
L 131.103415 215.44387 
L 131.425285 210.822932 
L 131.747156 211.44354 
L 132.069027 216.287859 
L 132.390897 210.653322 
L 132.712768 208.325607 
L 133.034639 212.064702 
L 133.402491 213.438732 
L 133.724362 213.531765 
L 134.046232 211.685543 
L 134.368103 211.172689 
L 134.689974 213.840611 
L 135.011844 211.837763 
L 135.379696 203.22908 
L 135.701567 212.672236 
L 136.023438 193.400793 
L 136.345308 205.071644 
L 136.667179 201.209686 
L 136.98905 204.660174 
L 137.31092 210.420936 
L 137.632791 211.057806 
L 138.000643 206.198424 
L 138.322514 209.218141 
L 138.644385 210.395798 
L 138.966255 206.79378 
L 139.288126 199.793555 
L 139.609997 202.930059 
L 139.931867 200.313523 
L 140.253738 208.270628 
L 140.575609 213.471664 
L 140.897479 210.177351 
L 141.21935 210.670089 
L 141.541221 210.286614 
L 141.909073 208.159504 
L 142.230944 214.733747 
L 142.874685 208.908978 
L 143.3345 214.968213 
L 143.702352 209.803051 
L 144.024223 210.91295 
L 144.392075 215.94691 
L 144.713946 208.485904 
L 145.035817 210.712666 
L 145.357687 214.758854 
L 145.72554 210.79835 
L 146.04741 210.079764 
L 146.369281 212.729827 
L 146.691152 206.175509 
L 147.013022 210.94896 
L 147.334893 204.642374 
L 147.656764 208.450109 
L 147.978634 215.093302 
L 148.300505 210.992883 
L 148.668357 211.143135 
L 148.990228 212.857157 
L 149.312099 213.659316 
L 149.633969 213.942266 
L 149.95584 212.070818 
L 150.415655 211.902747 
L 150.737526 214.422157 
L 151.059397 212.027546 
L 151.381267 214.696413 
L 152.07099 213.51362 
L 152.392861 213.429552 
L 152.714731 213.03495 
L 153.036602 212.441337 
L 153.358473 213.901794 
L 153.680343 217.391687 
L 154.002214 216.200892 
L 154.324085 216.508182 
L 154.691937 216.65229 
L 155.013808 214.283073 
L 155.335678 215.506165 
L 155.657549 212.299835 
L 155.97942 211.145691 
L 156.30129 216.624397 
L 156.623161 216.641113 
L 156.945032 214.451744 
L 157.266902 215.259155 
L 157.588773 217.339715 
L 157.910644 214.956533 
L 158.232514 215.369027 
L 158.554385 214.975142 
L 158.922237 215.484067 
L 159.244108 214.54941 
L 159.933831 217.188308 
L 160.393646 214.376848 
L 160.715517 214.941177 
L 161.083369 214.83683 
L 161.40524 213.664995 
L 162.048981 216.317885 
L 162.416833 214.242699 
L 162.738704 217.386481 
L 163.060575 215.522465 
L 163.382445 215.328248 
L 163.704316 210.702603 
L 164.026187 215.663196 
L 164.348057 214.310197 
L 164.669928 214.844486 
L 165.03778 214.719105 
L 165.359651 213.457909 
L 165.681522 215.284166 
L 166.003392 215.646231 
L 166.325263 214.582599 
L 166.647134 215.504677 
L 166.969004 214.831501 
L 167.336856 216.199191 
L 167.796672 213.813925 
L 168.118542 217.129244 
L 168.440413 215.748878 
L 168.808265 215.430378 
L 169.130136 216.690377 
L 169.452007 216.69925 
L 169.773877 213.713329 
L 170.095748 216.934963 
L 170.417619 211.696491 
L 171.06136 215.210337 
L 171.383231 215.668044 
L 171.751083 215.077679 
L 172.072954 216.724137 
L 172.394824 214.485449 
L 172.716695 214.980839 
L 173.038566 215.032029 
L 173.360436 215.807762 
L 173.682307 215.542271 
L 174.004178 212.877376 
L 174.326048 216.523662 
L 174.647919 214.555543 
L 174.96979 215.762483 
L 175.29166 215.629196 
L 175.659512 214.194998 
L 175.981383 215.18122 
L 176.303254 216.980395 
L 176.625125 215.987023 
L 177.314847 216.673791 
L 177.636718 214.844868 
L 178.740275 216.282078 
L 179.062145 216.127369 
L 179.429998 214.018611 
L 179.751868 215.413458 
L 180.073739 216.248213 
L 180.39561 215.431526 
L 180.71748 216.297533 
L 181.085332 214.535807 
L 181.407203 215.915302 
L 182.372815 211.992381 
L 182.694686 212.886421 
L 183.016557 215.877313 
L 183.338427 212.839469 
L 183.660298 216.942289 
L 184.02815 215.4595 
L 184.350021 216.501237 
L 184.671891 218.931134 
L 184.993762 214.626292 
L 185.315633 213.687194 
L 185.683485 213.925955 
L 186.005356 217.27268 
L 186.327226 215.669491 
L 186.649097 215.695176 
L 186.970968 215.967356 
L 187.292838 214.933906 
L 187.614709 215.499123 
L 187.93658 216.721888 
L 188.718266 215.229822 
L 189.040136 215.05504 
L 189.362007 215.504308 
L 189.683878 216.945307 
L 190.005748 216.273592 
L 190.327619 216.640703 
L 190.64949 211.278122 
L 190.97136 212.917689 
L 191.293231 216.867692 
L 191.615102 216.269622 
L 191.936972 217.41762 
L 192.304825 217.181262 
L 192.626695 215.12167 
L 192.948566 216.61848 
L 193.270437 217.094544 
L 193.638289 215.75922 
L 194.006141 215.123155 
L 194.328012 215.847162 
L 194.695864 213.955873 
L 195.017735 216.592744 
L 195.339605 215.239084 
L 195.661476 216.041009 
L 195.983347 215.699489 
L 196.443162 216.167307 
L 196.765033 215.824796 
L 197.086903 216.455101 
L 197.408774 217.595413 
L 198.052515 215.602243 
L 198.374386 215.908178 
L 198.742238 213.523152 
L 199.064109 216.999357 
L 199.385979 216.799989 
L 199.70785 216.10384 
L 200.029721 214.861613 
L 200.351592 214.358897 
L 200.719444 212.968485 
L 201.041314 213.455492 
L 201.363185 214.385695 
L 201.685056 213.438545 
L 202.006926 215.087818 
L 202.374779 212.849901 
L 202.696649 214.183791 
L 203.01852 212.043266 
L 203.340391 214.100244 
L 203.984132 216.314609 
L 204.306003 215.435144 
L 204.627873 217.35793 
L 204.949744 217.508454 
L 205.317596 215.447975 
L 205.639467 216.894345 
L 205.961338 216.385959 
L 206.283208 216.606104 
L 206.605079 216.288096 
L 207.24882 217.839182 
L 207.570691 215.870671 
L 207.892562 218.302957 
L 208.214432 215.708677 
L 208.536303 218.06553 
L 208.996118 215.8745 
L 209.317989 216.53611 
L 209.63986 217.604092 
L 210.329582 216.483172 
L 210.743416 216.674276 
L 211.065287 216.445306 
L 211.433139 218.21364 
L 211.75501 214.888293 
L 212.07688 217.068957 
L 212.398751 217.946765 
L 212.720622 216.577415 
L 213.180437 217.880109 
L 213.502308 210.364881 
L 213.824178 215.953691 
L 214.146049 212.233931 
L 214.46792 215.928542 
L 214.78979 216.119657 
L 215.157643 216.764994 
L 215.479513 215.595781 
L 215.801384 215.829367 
L 216.123255 215.861367 
L 216.445125 217.923727 
L 216.766996 214.772309 
L 217.088867 216.733206 
L 217.456719 215.857917 
L 217.77859 216.119027 
L 218.10046 211.37955 
L 218.422331 215.032645 
L 218.744202 214.397885 
L 219.112054 216.554553 
L 219.433924 212.326592 
L 219.755795 217.073266 
L 220.077666 211.205843 
L 220.399537 211.718166 
L 220.721407 206.006604 
L 221.043278 214.78533 
L 221.365149 214.090551 
L 221.687019 209.71135 
L 222.054871 211.707725 
L 222.376742 215.292716 
L 222.698613 212.183902 
L 223.020483 216.621374 
L 223.342354 214.484455 
L 223.664225 215.344994 
L 223.986095 212.625574 
L 224.307966 216.456171 
L 224.629837 210.511209 
L 225.273578 210.90775 
L 225.733393 210.094928 
L 226.377135 214.143361 
L 226.699005 212.443458 
L 227.020876 215.357419 
L 227.43471 214.36465 
L 227.756581 210.685475 
L 228.446303 207.530011 
L 228.768174 211.389549 
L 229.090045 210.288446 
L 229.779768 214.357802 
L 230.101638 209.378815 
L 230.423509 213.956213 
L 230.74538 206.622041 
L 231.205195 205.490404 
L 231.527066 215.754722 
L 231.848936 210.268631 
L 232.170807 213.529708 
L 232.492678 212.893233 
L 232.814548 215.714298 
L 233.45829 212.573689 
L 233.78016 216.643224 
L 234.148013 212.750945 
L 234.469883 215.104166 
L 234.791754 208.000605 
L 235.113625 211.963564 
L 235.435495 213.922263 
L 235.757366 210.647746 
L 236.447089 210.082245 
L 236.768959 214.234536 
L 237.09083 205.815941 
L 237.412701 208.545318 
L 237.734571 208.148383 
L 238.056442 212.669775 
L 238.746165 207.984264 
L 239.068036 207.704163 
L 239.389906 197.105589 
L 239.711777 203.025402 
L 240.033648 191.455912 
L 240.355518 203.808814 
L 240.677389 175.59095 
L 240.99926 194.127118 
L 241.32113 184.509024 
L 241.643001 195.506861 
L 241.964872 191.950095 
L 242.286742 200.576992 
L 242.654595 203.9593 
L 242.976465 189.187108 
L 243.298336 203.601329 
L 243.620207 203.723137 
L 244.080022 214.484772 
L 244.447874 210.245176 
L 244.769745 212.897999 
L 245.137597 200.418224 
L 245.459468 210.535147 
L 245.781338 208.677692 
L 246.103209 201.817472 
L 246.471061 209.521089 
L 246.792932 204.007868 
L 247.114803 202.376177 
L 247.436673 201.989218 
L 247.758544 210.873235 
L 248.080415 198.27222 
L 248.724156 206.988297 
L 249.092008 211.513718 
L 249.413879 205.480846 
L 249.73575 212.692906 
L 250.05762 209.667018 
L 250.379491 211.206185 
L 250.701362 209.07508 
L 251.161177 207.782531 
L 251.483048 215.730723 
L 251.804918 212.854552 
L 252.126789 211.911977 
L 252.44866 212.617364 
L 252.816512 210.118468 
L 253.138382 212.886912 
L 253.460253 212.956767 
L 253.782124 213.215514 
L 254.103994 215.554969 
L 254.425865 214.11874 
L 254.747736 210.880119 
L 255.069606 215.505505 
L 255.391477 213.69182 
L 255.759329 216.211356 
L 256.403071 215.85271 
L 256.724941 214.604016 
L 257.046812 210.660954 
L 257.368683 215.531713 
L 257.690553 214.304025 
L 258.012424 212.498238 
L 258.334295 208.87167 
L 258.656165 213.264376 
L 258.978036 214.071101 
L 259.299907 214.343487 
L 259.667759 212.827281 
L 259.98963 215.242021 
L 260.3115 214.740098 
L 260.633371 217.388413 
L 261.139168 213.487135 
L 261.461038 217.951209 
L 261.828891 214.444182 
L 262.150761 212.509925 
L 262.472632 213.034865 
L 262.794503 209.808545 
L 263.162355 213.880367 
L 263.484226 214.541162 
L 263.806096 216.473338 
L 264.127967 216.122409 
L 264.449838 218.350807 
L 264.771708 215.611731 
L 265.093579 217.339004 
L 265.461431 216.166422 
L 265.783302 216.974204 
L 266.105173 215.155313 
L 267.070785 206.001721 
L 267.392655 210.541489 
L 268.082378 206.948193 
L 268.726119 213.616716 
L 269.04799 214.570374 
L 269.369861 212.866894 
L 269.829676 212.939221 
L 270.151547 210.083335 
L 270.473417 212.413999 
L 270.795288 213.30581 
L 271.117159 217.100944 
L 271.439029 212.995758 
L 271.7609 213.829149 
L 272.082771 211.419893 
L 272.450623 211.076792 
L 272.772494 217.179078 
L 273.094364 215.989375 
L 273.416235 212.97818 
L 273.738106 213.124209 
L 274.059976 217.71522 
L 274.381847 213.685398 
L 274.703718 216.216259 
L 275.025588 217.141689 
L 275.347459 213.240835 
L 275.66933 214.921691 
L 276.359053 211.00395 
L 276.680923 216.625276 
L 277.002794 217.788207 
L 277.324665 217.692284 
L 277.692517 218.36112 
L 278.014388 216.995928 
L 278.336258 216.612115 
L 278.70411 217.596644 
L 279.025981 214.160148 
L 279.347852 216.293396 
L 279.669722 217.431388 
L 279.991593 216.921715 
L 280.451408 213.501887 
L 280.773279 212.287508 
L 281.09515 212.423011 
L 281.41702 209.384873 
L 281.738891 216.777372 
L 282.060762 217.018466 
L 282.382632 218.143547 
L 282.704503 214.90133 
L 283.072355 215.362924 
L 283.394226 217.180445 
L 283.716097 214.610994 
L 284.037967 215.631892 
L 284.359838 214.874492 
L 284.72769 211.538439 
L 285.049561 217.679285 
L 285.371432 212.09131 
L 285.693302 215.583273 
L 286.015173 213.520263 
L 286.383025 215.620456 
L 286.704896 215.878829 
L 287.026767 213.298723 
L 287.348637 216.285404 
L 287.670508 207.469649 
L 287.992379 190.695958 
L 288.314249 205.787803 
L 288.63612 207.379708 
L 288.957991 211.759095 
L 289.325843 206.755969 
L 289.647713 216.117692 
L 289.969584 208.816648 
L 290.291455 206.608289 
L 290.935196 211.048667 
L 291.257067 208.357996 
L 291.578937 208.872583 
L 291.900808 206.751142 
L 292.222679 206.505778 
L 292.54455 214.417732 
L 293.004365 207.434048 
L 293.326235 208.074094 
L 293.648106 211.005825 
L 293.969977 215.543457 
L 294.337829 212.041365 
L 294.705681 212.491351 
L 295.027552 216.938214 
L 295.717275 216.262292 
L 296.039145 216.534458 
L 296.361016 215.948969 
L 296.682887 214.604623 
L 297.050739 217.811522 
L 297.37261 217.774055 
L 297.69448 213.781122 
L 298.016351 214.949883 
L 298.338222 216.997234 
L 298.660092 214.948187 
L 299.119908 215.655773 
L 299.441778 211.279782 
L 299.763649 213.276405 
L 300.08552 216.851541 
L 300.40739 215.28884 
L 300.729261 216.562179 
L 301.051132 213.983474 
L 301.418984 215.677239 
L 301.740855 213.010423 
L 302.062725 211.352544 
L 302.384596 214.430421 
L 302.706467 212.846007 
L 303.028337 213.426232 
L 303.396189 217.57161 
L 303.71806 214.223864 
L 304.039931 215.138254 
L 304.361801 213.05802 
L 304.683672 213.860137 
L 305.005543 217.934957 
L 305.649284 215.634542 
L 306.017136 212.803002 
L 306.339007 214.787865 
L 306.660878 217.783891 
L 306.982748 216.426507 
L 307.304619 216.535216 
L 307.62649 216.18035 
L 307.94836 216.437465 
L 308.270231 213.445216 
L 308.776028 214.684628 
L 309.097899 211.339802 
L 309.419769 212.218281 
L 310.431363 217.863737 
L 310.753233 215.372329 
L 311.121086 215.999593 
L 311.488938 210.692854 
L 311.810809 216.326572 
L 312.500531 218.873187 
L 312.822402 215.481055 
L 313.144273 215.401226 
L 313.466143 217.891986 
L 313.925959 213.399117 
L 314.5697 217.697413 
L 314.891571 217.016231 
L 315.213441 216.018126 
L 315.581294 216.685632 
L 315.903164 216.080781 
L 316.225035 212.164497 
L 316.868776 217.06722 
L 317.190647 214.402039 
L 317.512518 216.795369 
L 317.834388 216.645058 
L 318.202241 215.935606 
L 318.524111 213.067127 
L 318.845982 213.538144 
L 319.167853 212.369617 
L 319.489723 210.674179 
L 319.811594 215.47238 
L 320.179446 216.479261 
L 320.823188 218.591433 
L 321.145058 216.6939 
L 321.466929 217.179633 
L 321.7888 215.232911 
L 322.11067 216.602282 
L 322.432541 215.413899 
L 322.800393 217.248743 
L 323.122264 216.433912 
L 323.444134 213.953887 
L 323.766005 217.173249 
L 324.087876 215.133046 
L 324.409746 211.10235 
L 325.053488 216.791584 
L 325.375359 216.108071 
L 325.697229 214.267796 
L 326.0191 217.4768 
L 326.340971 216.745386 
L 326.800786 217.798718 
L 327.122656 214.797169 
L 327.444527 215.232803 
L 327.766398 214.583221 
L 328.13425 217.532759 
L 328.823973 214.75945 
L 329.191825 216.344504 
L 329.513696 212.154431 
L 329.835566 211.322065 
L 330.157437 215.497833 
L 330.525289 215.805726 
L 330.84716 217.374166 
L 331.169031 213.976742 
L 331.490901 215.933022 
L 331.812772 214.812524 
L 332.134643 216.482047 
L 332.456513 215.12415 
L 332.778384 212.634191 
L 333.238199 216.479922 
L 333.56007 215.95189 
L 333.881941 217.333989 
L 334.203811 215.559043 
L 334.525682 215.840836 
L 334.893534 215.195613 
L 335.215405 217.745426 
L 335.537276 217.659327 
L 335.859146 216.630585 
L 336.181017 216.419253 
L 336.502888 216.953219 
L 336.87074 216.111197 
L 337.19261 216.757234 
L 337.514481 215.339929 
L 337.836352 217.224899 
L 338.158223 213.639136 
L 338.480093 215.537917 
L 338.801964 216.327662 
L 339.123835 217.701038 
L 339.491687 218.367906 
L 339.813557 216.870554 
L 340.135428 216.817418 
L 340.457299 213.61547 
L 340.779169 214.033513 
L 341.10104 209.175925 
L 341.422911 215.771467 
L 341.744781 212.670764 
L 342.066652 215.312053 
L 342.388523 216.302966 
L 342.710394 218.597637 
L 343.032264 218.472201 
L 343.400116 217.950201 
L 343.721987 217.222744 
L 344.365728 210.768057 
L 344.825544 216.986819 
L 345.193396 214.776651 
L 345.515267 211.919095 
L 345.883119 214.173082 
L 346.204989 211.719086 
L 346.52686 211.310786 
L 346.848731 214.694877 
L 347.216583 217.245359 
L 347.538454 216.719395 
L 347.860324 215.50285 
L 348.182195 210.358072 
L 348.504066 212.495886 
L 348.825936 213.539163 
L 349.147807 213.289751 
L 349.515659 217.565338 
L 349.83753 214.328076 
L 350.159401 215.576509 
L 350.481271 214.309129 
L 350.803142 213.798375 
L 351.446883 218.224487 
L 351.906699 215.13946 
L 352.228569 216.370877 
L 352.55044 214.146222 
L 352.872311 215.64299 
L 353.194181 213.554042 
L 353.562033 216.55352 
L 353.883904 212.467863 
L 354.205775 216.071532 
L 354.527645 214.278548 
L 354.849516 216.416434 
L 355.171387 213.263772 
L 355.493258 217.711615 
L 355.815128 212.055814 
L 356.136999 202.962731 
L 356.504851 207.809344 
L 356.826722 215.31965 
L 357.470463 211.279316 
L 357.792334 214.380712 
L 358.114204 215.242086 
L 358.436075 215.519427 
L 358.757946 213.833387 
L 359.079816 215.591444 
L 359.401687 216.150159 
L 359.723558 210.910168 
L 360.045429 217.709468 
L 360.413281 213.676134 
L 360.735151 211.68859 
L 361.057022 210.541997 
L 361.378893 211.023278 
L 361.88469 212.968867 
L 362.20656 212.468711 
L 362.574412 208.445109 
L 362.896283 209.802868 
L 363.218154 208.638521 
L 363.540024 212.892744 
L 363.907877 209.549582 
L 364.229747 213.583033 
L 364.551618 212.035435 
L 364.873489 216.621896 
L 365.195359 216.030681 
L 365.51723 215.710911 
L 365.885082 217.437293 
L 366.206953 214.612842 
L 366.528824 216.059736 
L 366.850694 216.38914 
L 367.172565 215.694 
L 367.494436 215.783979 
L 367.816306 213.696785 
L 368.138177 214.028955 
L 368.8279 217.354537 
L 369.14977 216.229205 
L 369.471641 216.443506 
L 369.793512 207.809998 
L 370.575198 214.667491 
L 370.897068 217.258073 
L 371.218939 217.158983 
L 371.54081 218.982307 
L 371.86268 215.791797 
L 372.184551 217.076675 
L 372.506422 217.787971 
L 372.828293 216.939239 
L 373.196145 217.42111 
L 373.518015 211.003397 
L 373.839886 215.899082 
L 374.161757 213.99398 
L 374.483627 214.281393 
L 374.805498 215.097221 
L 375.127369 217.438973 
L 375.449239 217.416464 
L 375.77111 217.620783 
L 376.092981 213.005134 
L 376.414851 215.600987 
L 376.736722 217.246261 
L 377.104574 217.71103 
L 377.426445 215.364968 
L 377.748316 216.121206 
L 378.070186 217.744467 
L 378.438039 217.720754 
L 378.805891 216.946333 
L 379.127761 217.1448 
L 379.587577 217.244484 
L 379.909447 215.935814 
L 380.231318 215.976527 
L 380.553189 217.116375 
L 380.921041 217.640882 
L 381.242912 218.602293 
L 381.564782 214.499732 
L 381.886653 218.018857 
L 382.208524 215.531815 
L 382.852265 217.64211 
L 383.174136 218.699567 
L 383.541988 215.27509 
L 383.863859 215.427775 
L 384.185729 218.410918 
L 384.5076 218.222725 
L 384.829471 214.038609 
L 385.151341 218.170295 
L 385.519193 217.087614 
L 385.841064 218.022552 
L 386.162935 217.592734 
L 386.484805 216.874162 
L 386.806676 215.865376 
L 387.174528 216.025321 
L 387.496399 217.68503 
L 387.81827 217.985253 
L 388.14014 217.286288 
L 388.462011 218.61402 
L 389.105752 214.981943 
L 389.427623 216.29946 
L 389.749494 218.595893 
L 390.209309 214.29874 
L 390.53118 218.998558 
L 390.85305 218.013356 
L 391.174921 217.620955 
L 391.818662 218.092399 
L 392.140533 216.719688 
L 392.462404 216.252486 
L 392.784274 218.550878 
L 393.106145 218.004179 
L 393.428016 215.793406 
L 393.795868 215.995465 
L 394.117739 214.962899 
L 394.439609 217.666645 
L 394.76148 216.748429 
L 395.129332 218.394537 
L 395.497184 216.70097 
L 395.819055 216.516832 
L 396.186907 215.167631 
L 396.508778 217.195949 
L 396.830649 211.991298 
L 397.152519 199.232787 
L 397.47439 214.989185 
L 397.934205 211.996718 
L 398.256076 211.521908 
L 398.577947 213.563165 
L 398.899817 214.337955 
L 399.221688 205.529253 
L 399.58954 209.752846 
L 399.911411 209.391109 
L 400.233282 213.458059 
L 400.555152 214.995298 
L 400.877023 215.5632 
L 401.198894 214.552957 
L 401.520764 215.368116 
L 401.842635 214.906407 
L 402.210487 212.939141 
L 402.532358 213.446801 
L 402.854228 217.245561 
L 403.176099 216.700551 
L 403.49797 214.725699 
L 403.865822 216.36154 
L 404.187693 214.184575 
L 404.509563 217.016247 
L 404.831434 216.888964 
L 405.475175 216.971303 
L 405.797046 213.277789 
L 406.118917 217.023481 
L 406.440787 215.802903 
L 406.80864 218.328383 
L 407.452381 216.211645 
L 407.774252 217.091333 
L 408.096122 215.138799 
L 408.417993 208.281211 
L 408.739864 211.367256 
L 409.061734 210.146381 
L 409.383605 212.227552 
L 409.705476 212.730433 
L 410.027346 211.545395 
L 410.487162 210.428141 
L 410.809032 213.308021 
L 411.176885 210.275983 
L 411.498755 210.719861 
L 411.866607 199.718279 
L 412.23446 209.100537 
L 412.55633 211.765226 
L 412.878201 216.399839 
L 413.246053 213.100719 
L 413.567924 213.445439 
L 413.889794 215.174906 
L 414.211665 213.304756 
L 414.67148 216.84683 
L 414.993351 216.605604 
L 415.315222 215.611217 
L 415.637092 216.868294 
L 415.958963 213.303467 
L 416.280834 216.10103 
L 416.602704 216.873649 
L 416.924575 215.403914 
L 417.292427 217.453234 
L 417.614298 217.320774 
L 417.936169 213.63808 
L 418.258039 211.460084 
L 418.57991 215.668161 
L 418.947762 215.581381 
L 419.269633 211.476107 
L 419.591504 216.199254 
L 419.913374 215.820334 
L 420.235245 215.713537 
L 420.557116 217.707828 
L 420.924968 216.249991 
L 421.246839 216.286102 
L 421.568709 216.570708 
L 421.89058 215.121734 
L 422.212451 208.48291 
L 422.534321 208.380873 
L 422.856192 214.58092 
L 423.178063 209.678438 
L 423.867785 217.446992 
L 424.189656 217.175904 
L 424.511527 216.590522 
L 424.833397 210.882408 
L 425.477139 215.260758 
L 425.79901 217.528857 
L 426.12088 215.498674 
L 426.442751 217.534616 
L 426.764622 217.16631 
L 427.086492 217.211029 
L 427.868178 214.031446 
L 428.190049 217.124536 
L 428.51192 217.926187 
L 428.879772 216.827225 
L 429.247624 214.469466 
L 429.569495 216.627427 
L 429.937347 216.044282 
L 430.259217 213.7234 
L 430.581088 209.997079 
L 430.902959 214.587343 
L 431.270811 216.451364 
L 431.592682 208.946767 
L 431.914552 193.875115 
L 432.236423 166.141658 
L 432.880164 180.301629 
L 433.202035 199.566904 
L 433.66185 197.724396 
L 433.983721 204.169811 
L 434.305592 207.73891 
L 434.627462 208.37444 
L 434.949333 212.400729 
L 435.271204 203.782574 
L 435.639056 209.931842 
L 435.960927 212.633754 
L 436.282797 208.931775 
L 436.604668 195.718995 
L 436.926539 215.335397 
L 437.248409 204.44458 
L 437.616261 211.750315 
L 437.938132 210.898005 
L 438.260003 216.220232 
L 438.581874 214.153635 
L 438.903744 214.132889 
L 439.225615 215.125401 
L 439.547486 218.172725 
L 439.869356 215.644036 
L 440.191227 214.046995 
L 440.559079 208.562227 
L 440.88095 215.51678 
L 441.20282 212.252732 
L 441.524691 213.947424 
L 441.846562 210.70968 
L 442.168432 215.24966 
L 442.490303 214.13461 
L 442.812174 209.067772 
L 443.134045 212.64723 
L 443.455915 209.816617 
L 443.777786 211.900672 
L 444.145638 213.045312 
L 444.789379 217.12915 
L 445.11125 214.876868 
L 445.571065 216.206773 
L 445.938918 214.486184 
L 446.62864 215.940971 
L 446.950511 213.949113 
L 447.272382 210.615563 
L 447.594252 216.528529 
L 447.962105 217.707572 
L 448.283975 212.429966 
L 448.605846 211.013024 
L 448.927717 215.045813 
L 449.249587 215.484344 
L 449.571458 215.179318 
L 449.893329 215.029274 
L 450.261181 215.633766 
L 450.583052 216.437014 
L 450.904922 214.052232 
L 451.226793 216.183017 
L 451.548664 217.154 
L 451.870534 210.287023 
L 452.192405 215.834824 
L 452.514276 217.400949 
L 452.974091 217.329379 
L 453.295962 218.016996 
L 453.617832 211.580801 
L 453.939703 215.68197 
L 454.307555 216.323212 
L 454.629426 214.506678 
L 454.951296 210.74528 
L 455.273167 216.586938 
L 455.916909 215.030709 
L 456.238779 216.044664 
L 456.56065 214.900306 
L 456.882521 216.507986 
L 457.250373 216.818865 
L 457.572243 214.436476 
L 457.894114 213.123933 
L 458.537855 211.454191 
L 458.859726 215.395725 
L 459.181597 215.386124 
L 459.825338 218.224299 
L 460.147209 216.31725 
L 460.46908 216.582771 
L 460.79095 216.42098 
L 461.158802 207.932319 
L 461.480673 213.587489 
L 461.802544 214.523357 
L 462.124414 211.017613 
L 462.492267 216.308398 
L 462.814137 214.754936 
L 463.136008 216.427374 
L 463.917694 213.71316 
L 464.239565 213.801767 
L 464.561435 211.75811 
L 464.929287 211.950078 
L 465.251158 208.803609 
L 465.894899 211.535107 
L 466.21677 214.291381 
L 466.538641 213.483751 
L 466.860512 214.190554 
L 467.182382 215.391737 
L 467.550234 214.667207 
L 468.193976 206.108619 
L 468.515846 211.610237 
L 468.837717 206.503624 
L 469.159588 213.094898 
L 469.52744 211.890385 
L 469.849311 212.736752 
L 470.171181 208.769622 
L 470.860904 213.08549 
L 471.320719 215.209975 
L 471.64259 211.67815 
L 472.286331 213.814123 
L 472.608202 213.683914 
L 472.930073 214.534534 
L 473.251944 213.156726 
L 473.573814 209.864075 
L 473.941666 215.423875 
L 474.263537 205.272767 
L 474.585408 215.349077 
L 474.907278 215.323993 
L 475.229149 205.313169 
L 475.55102 213.601964 
L 475.87289 209.193966 
L 476.194761 212.017729 
L 476.516632 211.812308 
L 476.838502 211.425691 
L 477.160373 206.434413 
L 477.482244 215.753736 
L 477.850096 211.302273 
L 478.171967 215.253773 
L 478.493837 213.414313 
L 478.815708 210.438935 
L 479.18356 213.357424 
L 479.551412 212.092678 
L 479.873283 216.568799 
L 480.333098 211.686393 
L 480.654969 216.127523 
L 480.97684 215.777779 
L 481.29871 214.131518 
L 481.666563 212.999184 
L 481.988433 215.700133 
L 482.310304 212.092638 
L 482.632175 212.915578 
L 482.954045 211.945316 
L 483.275916 213.715358 
L 483.597787 214.728613 
L 483.965639 218.153967 
L 484.28751 215.518049 
L 484.60938 216.15414 
L 484.931251 212.431263 
L 485.253122 213.533014 
L 485.574992 213.947921 
L 485.896863 216.564217 
L 486.264715 215.791246 
L 486.586586 213.084702 
L 487.276309 217.540744 
L 487.598179 216.261278 
L 488.057995 215.360475 
L 488.379865 217.343461 
L 489.023607 216.534068 
L 489.345477 214.356376 
L 489.667348 216.975222 
L 489.989219 216.405156 
L 490.311089 214.282148 
L 491.000812 217.182062 
L 491.322683 215.251813 
L 491.644554 215.832125 
L 491.966424 215.598292 
L 492.288295 217.284532 
L 492.932036 215.280226 
L 493.253907 212.699379 
L 493.575778 215.384782 
L 493.897648 213.917164 
L 494.219519 217.132624 
L 494.587371 217.67564 
L 494.909242 214.620364 
L 495.231113 216.366658 
L 495.552983 214.619575 
L 495.920835 217.175864 
L 496.288688 217.114511 
L 496.610558 216.552721 
L 497.070374 215.219407 
L 497.392244 216.609348 
L 497.714115 214.53978 
L 498.035986 217.911713 
L 498.403838 214.002263 
L 498.725708 215.788233 
L 499.047579 216.173265 
L 499.36945 217.532744 
L 500.013191 214.669036 
L 500.381043 214.07875 
L 500.702914 213.848425 
L 501.346655 217.011791 
L 501.668526 213.811278 
L 501.990397 216.718467 
L 502.312267 216.531388 
L 502.634138 216.952445 
L 503.00199 215.72425 
L 503.323861 215.199832 
L 503.645732 218.162248 
L 504.335455 216.143483 
L 504.335455 216.143483 
" clip-path="url(#p6f4ef27161)" style="fill: none; stroke: #808080; stroke-width: 1.5; stroke-linecap: square"/>
   </g>
   <g id="line2d_26">
    <path d="M 110.043876 115.858832 
L 118.412514 155.594522 
L 127.011059 80.037854 
L 135.379696 119.056404 
L 143.702352 110.273468 
L 152.07099 125.737908 
L 160.393646 126.638448 
L 168.808265 157.766533 
L 176.992977 139.172718 
L 185.315633 137.821268 
L 193.638289 125.340537 
L 202.006926 151.342671 
L 210.329582 122.680812 
L 218.744202 161.766679 
L 227.020876 100.908565 
L 235.435495 87.201085 
L 243.620207 80.87026 
L 252.126789 64.633789 
L 260.3115 144.121466 
L 268.726119 129.756683 
L 277.002794 103.807436 
L 285.371432 108.621451 
L 293.648106 80.765142 
L 302.062725 73.811308 
L 310.431363 126.816679 
L 318.845982 125.5172 
L 327.122656 156.542104 
L 335.537276 140.329481 
L 343.721987 113.764769 
L 352.228569 114.911293 
L 360.413281 117.317723 
L 368.8279 117.197005 
L 377.104574 123.526279 
L 385.519193 101.671019 
L 393.795868 109.788271 
L 402.210487 103.459106 
L 410.487162 111.416266 
L 418.947762 52.855519 
L 427.086492 69.111763 
L 435.639056 53.1762 
L 443.777786 52.731 
L 452.192405 119.461342 
L 460.46908 174.076539 
L 468.837717 168.395815 
L 477.160373 158.418986 
L 485.574992 160.701765 
" clip-path="url(#p6f4ef27161)" style="fill: none; stroke-dasharray: 1.5,2.475; stroke-dashoffset: 0; stroke: #ff0000; stroke-width: 1.5"/>
   </g>
   <g id="line2d_27">
    <path d="M 110.043876 285.208054 
L 118.412514 267.167009 
L 127.011059 225.609025 
L 135.379696 217.96254 
L 143.702352 198.59865 
L 152.07099 219.43647 
L 160.393646 209.091494 
L 168.808265 213.409455 
L 176.992977 209.219077 
L 185.315633 189.047556 
L 193.638289 215.515679 
L 202.006926 248.729633 
L 210.329582 290.871 
L 218.744202 275.834363 
L 227.020876 268.252427 
L 235.435495 267.869192 
L 243.620207 255.875499 
L 252.126789 255.433725 
L 260.3115 224.922847 
L 268.726119 169.841392 
L 277.002794 182.495226 
L 285.371432 182.933588 
L 293.648106 182.228497 
L 302.062725 178.707863 
L 310.431363 171.083474 
L 318.845982 176.395825 
L 327.122656 179.708655 
L 335.537276 163.088418 
L 343.721987 201.26972 
L 352.228569 201.316217 
L 360.413281 181.303947 
L 368.8279 183.976857 
L 377.104574 145.78037 
L 385.519193 149.439571 
L 393.795868 170.989281 
L 402.210487 170.164816 
L 410.487162 163.458717 
L 418.947762 108.725225 
L 427.086492 137.6537 
L 435.639056 140.477491 
L 443.777786 132.90133 
L 452.192405 192.657571 
L 460.46908 189.724484 
L 468.837717 222.030581 
L 477.160373 234.270197 
L 485.574992 259.481004 
" clip-path="url(#p6f4ef27161)" style="fill: none; stroke-dasharray: 9.6,2.4,1.5,2.4; stroke-dashoffset: 0; stroke: #ff0000; stroke-width: 1.5"/>
   </g>
   <g id="line2d_28">
    <path d="M 110.043876 199.372586 
L 118.412514 198.713885 
L 127.011059 204.060509 
L 135.379696 211.068059 
L 143.702352 203.529552 
L 152.07099 223.747988 
L 160.393646 224.116256 
L 168.808265 237.281972 
L 176.992977 232.898332 
L 185.315633 226.833985 
L 193.638289 197.184706 
L 202.006926 206.750261 
L 210.329582 211.682887 
L 218.744202 229.857321 
L 227.020876 236.70238 
L 235.435495 186.146436 
L 243.620207 169.765113 
L 252.126789 168.839778 
L 260.3115 190.616764 
L 268.726119 179.499477 
L 277.002794 193.691279 
L 285.371432 189.678304 
L 293.648106 189.099696 
L 302.062725 204.837685 
L 310.431363 224.310002 
L 318.845982 223.240255 
L 327.122656 239.697308 
L 335.537276 218.901514 
L 343.721987 226.017819 
L 352.228569 192.635607 
L 360.413281 197.775599 
L 368.8279 192.877085 
L 377.104574 202.849326 
L 385.519193 241.913628 
L 393.795868 212.287055 
L 402.210487 182.125138 
L 410.487162 185.514305 
L 418.947762 210.684686 
L 427.086492 153.269718 
L 435.639056 146.721595 
L 443.777786 149.109115 
L 452.192405 222.376168 
L 460.46908 231.062778 
L 468.837717 219.430079 
L 477.160373 218.0919 
L 485.574992 228.453015 
" clip-path="url(#p6f4ef27161)" style="fill: none; stroke-dasharray: 5.55,2.4; stroke-dashoffset: 0; stroke: #ff0000; stroke-width: 1.5"/>
   </g>
   <g id="line2d_29">
    <path d="M 110.043876 199.519088 
L 118.412514 211.241468 
L 127.011059 174.097442 
L 135.379696 199.403666 
L 143.702352 196.614481 
L 152.07099 210.884354 
L 160.393646 210.878887 
L 168.808265 214.070719 
L 176.992977 213.065389 
L 185.315633 206.057595 
L 193.638289 200.010946 
L 202.006926 207.513678 
L 210.329582 207.56676 
L 218.744202 210.1166 
L 227.020876 190.363167 
L 235.435495 185.216613 
L 243.620207 182.85102 
L 252.126789 175.345785 
L 260.3115 190.900889 
L 268.726119 172.8379 
L 277.002794 184.508675 
L 285.371432 186.073427 
L 293.648106 183.812575 
L 302.062725 186.868358 
L 310.431363 179.752655 
L 318.845982 182.069667 
L 327.122656 206.430531 
L 335.537276 193.971224 
L 343.721987 191.375511 
L 352.228569 192.920377 
L 360.413281 197.290233 
L 368.8279 198.542861 
L 377.104574 189.639963 
L 385.519193 202.289277 
L 393.795868 195.468769 
L 402.210487 187.918566 
L 410.487162 188.368332 
L 418.947762 81.69987 
L 427.086492 117.561052 
L 435.639056 112.649445 
L 443.777786 114.736912 
L 452.192405 209.944285 
L 460.46908 211.872591 
L 468.837717 212.803237 
L 477.160373 208.883117 
L 485.574992 209.225283 
" clip-path="url(#p6f4ef27161)" style="fill: none; stroke: #ff0000; stroke-width: 1.5; stroke-linecap: square"/>
   </g>
   <g id="line2d_30">
    <path d="M 110.043876 198.270606 
L 118.412514 203.491671 
L 127.011059 188.014888 
L 135.379696 193.26522 
L 143.702352 188.290582 
L 152.07099 191.043306 
L 160.393646 205.750341 
L 168.808265 216.073952 
L 176.992977 212.310293 
L 185.315633 206.787581 
L 193.638289 187.014862 
L 202.006926 196.205659 
L 210.329582 201.674845 
L 218.744202 209.716184 
L 227.020876 188.103829 
L 235.435495 182.389311 
L 243.620207 179.175912 
L 252.126789 183.658711 
L 260.3115 187.335074 
L 268.726119 171.495076 
L 277.002794 174.100607 
L 285.371432 175.447111 
L 293.648106 176.611995 
L 302.062725 187.18478 
L 310.431363 188.412927 
L 318.845982 189.320796 
L 327.122656 195.347457 
L 335.537276 195.86153 
L 343.721987 194.117861 
L 352.228569 188.678653 
L 360.413281 186.954654 
L 368.8279 191.215299 
L 377.104574 196.939739 
L 385.519193 202.07315 
L 393.795868 189.966655 
L 402.210487 175.901784 
L 410.487162 179.106802 
L 418.947762 117.784158 
L 427.086492 111.096514 
L 435.639056 110.472327 
L 443.777786 134.721313 
L 452.192405 202.111457 
L 460.46908 210.107356 
L 468.837717 211.832258 
L 477.160373 214.381346 
L 485.574992 219.599677 
" clip-path="url(#p6f4ef27161)" style="fill: none; stroke: #ff7f0e; stroke-width: 1.5; stroke-linecap: square"/>
   </g>
   <g id="line2d_31">
    <path d="M 110.043876 198.510179 
L 118.412514 204.76173 
L 127.011059 182.548714 
L 135.379696 194.454561 
L 143.702352 192.936129 
L 152.07099 202.362936 
L 160.393646 206.319259 
L 168.808265 207.518311 
L 176.992977 209.786367 
L 185.315633 202.353568 
L 193.638289 192.981916 
L 202.006926 197.094803 
L 210.329582 197.633033 
L 218.744202 201.491007 
L 227.020876 185.789213 
L 235.435495 184.044884 
L 243.620207 181.559656 
L 252.126789 181.56132 
L 260.3115 189.63519 
L 268.726119 177.665034 
L 277.002794 181.367443 
L 285.371432 182.858546 
L 293.648106 181.569991 
L 302.062725 185.505442 
L 310.431363 189.305874 
L 318.845982 190.073914 
L 327.122656 195.422879 
L 335.537276 188.413852 
L 343.721987 189.549501 
L 352.228569 185.691774 
L 360.413281 187.797663 
L 368.8279 191.819199 
L 377.104574 196.038815 
L 385.519193 189.647817 
L 393.795868 182.352995 
L 402.210487 177.532529 
L 410.487162 181.53587 
L 418.947762 119.90836 
L 427.086492 139.441296 
L 435.639056 135.36032 
L 443.777786 141.571332 
L 452.192405 194.047791 
L 460.46908 202.726364 
L 468.837717 203.383309 
L 477.160373 203.748925 
L 485.574992 206.472575 
" clip-path="url(#p6f4ef27161)" style="fill: none; stroke: #1f77b4; stroke-width: 1.5; stroke-linecap: square"/>
   </g>
   <g id="legend_1">
    <g id="patch_7">
     <path d="M 79.9 151.570875 
L 231.090625 151.570875 
Q 233.090625 151.570875 233.090625 149.570875 
L 233.090625 47.824 
Q 233.090625 45.824 231.090625 45.824 
L 79.9 45.824 
Q 77.9 45.824 77.9 47.824 
L 77.9 149.570875 
Q 77.9 151.570875 79.9 151.570875 
z
" style="fill: #ffffff; opacity: 0.8; stroke: #e6e6e6; stroke-linejoin: miter"/>
    </g>
    <g id="line2d_32">
     <path d="M 81.9 53.922438 
L 91.9 53.922438 
L 101.9 53.922438 
" style="fill: none; stroke: #808080; stroke-width: 1.5; stroke-linecap: square"/>
    </g>
    <g id="text_15">
     <!-- Dow Jones Log-Volatility -->
     <g transform="translate(109.9 57.422438)scale(0.1 -0.1)">
      <defs>
       <path id="DejaVuSans-77" d="M 269 3500 
L 844 3500 
L 1563 769 
L 2278 3500 
L 2956 3500 
L 3675 769 
L 4391 3500 
L 4966 3500 
L 4050 0 
L 3372 0 
L 2619 2869 
L 1863 0 
L 1184 0 
L 269 3500 
z
" transform="scale(0.015625)"/>
       <path id="DejaVuSans-4a" d="M 628 4666 
L 1259 4666 
L 1259 325 
Q 1259 -519 939 -900 
Q 619 -1281 -91 -1281 
L -331 -1281 
L -331 -750 
L -134 -750 
Q 284 -750 456 -515 
Q 628 -281 628 325 
L 628 4666 
z
" transform="scale(0.015625)"/>
       <path id="DejaVuSans-4c" d="M 628 4666 
L 1259 4666 
L 1259 531 
L 3531 531 
L 3531 0 
L 628 0 
L 628 4666 
z
" transform="scale(0.015625)"/>
       <path id="DejaVuSans-67" d="M 2906 1791 
Q 2906 2416 2648 2759 
Q 2391 3103 1925 3103 
Q 1463 3103 1205 2759 
Q 947 2416 947 1791 
Q 947 1169 1205 825 
Q 1463 481 1925 481 
Q 2391 481 2648 825 
Q 2906 1169 2906 1791 
z
M 3481 434 
Q 3481 -459 3084 -895 
Q 2688 -1331 1869 -1331 
Q 1566 -1331 1297 -1286 
Q 1028 -1241 775 -1147 
L 775 -588 
Q 1028 -725 1275 -790 
Q 1522 -856 1778 -856 
Q 2344 -856 2625 -561 
Q 2906 -266 2906 331 
L 2906 616 
Q 2728 306 2450 153 
Q 2172 0 1784 0 
Q 1141 0 747 490 
Q 353 981 353 1791 
Q 353 2603 747 3093 
Q 1141 3584 1784 3584 
Q 2172 3584 2450 3431 
Q 2728 3278 2906 2969 
L 2906 3500 
L 3481 3500 
L 3481 434 
z
" transform="scale(0.015625)"/>
      </defs>
      <use xlink:href="#DejaVuSans-44"/>
      <use xlink:href="#DejaVuSans-6f" x="77.001953"/>
      <use xlink:href="#DejaVuSans-77" x="138.183594"/>
      <use xlink:href="#DejaVuSans-20" x="219.970703"/>
      <use xlink:href="#DejaVuSans-4a" x="251.757812"/>
      <use xlink:href="#DejaVuSans-6f" x="281.25"/>
      <use xlink:href="#DejaVuSans-6e" x="342.431641"/>
      <use xlink:href="#DejaVuSans-65" x="405.810547"/>
      <use xlink:href="#DejaVuSans-73" x="467.333984"/>
      <use xlink:href="#DejaVuSans-20" x="519.433594"/>
      <use xlink:href="#DejaVuSans-4c" x="551.220703"/>
      <use xlink:href="#DejaVuSans-6f" x="605.183594"/>
      <use xlink:href="#DejaVuSans-67" x="666.365234"/>
      <use xlink:href="#DejaVuSans-2d" x="729.841797"/>
      <use xlink:href="#DejaVuSans-56" x="760.050781"/>
      <use xlink:href="#DejaVuSans-6f" x="820.708984"/>
      <use xlink:href="#DejaVuSans-6c" x="881.890625"/>
      <use xlink:href="#DejaVuSans-61" x="909.673828"/>
      <use xlink:href="#DejaVuSans-74" x="970.953125"/>
      <use xlink:href="#DejaVuSans-69" x="1010.162109"/>
      <use xlink:href="#DejaVuSans-6c" x="1037.945312"/>
      <use xlink:href="#DejaVuSans-69" x="1065.728516"/>
      <use xlink:href="#DejaVuSans-74" x="1093.511719"/>
      <use xlink:href="#DejaVuSans-79" x="1132.720703"/>
     </g>
    </g>
    <g id="line2d_33">
     <path d="M 81.9 68.600563 
L 91.9 68.600563 
L 101.9 68.600563 
" style="fill: none; stroke-dasharray: 1.5,2.475; stroke-dashoffset: 0; stroke: #ff0000; stroke-width: 1.5"/>
    </g>
    <g id="text_16">
     <!-- R/S Hurst -->
     <g transform="translate(109.9 72.100563)scale(0.1 -0.1)">
      <defs>
       <path id="DejaVuSans-52" d="M 2841 2188 
Q 3044 2119 3236 1894 
Q 3428 1669 3622 1275 
L 4263 0 
L 3584 0 
L 2988 1197 
Q 2756 1666 2539 1819 
Q 2322 1972 1947 1972 
L 1259 1972 
L 1259 0 
L 628 0 
L 628 4666 
L 2053 4666 
Q 2853 4666 3247 4331 
Q 3641 3997 3641 3322 
Q 3641 2881 3436 2590 
Q 3231 2300 2841 2188 
z
M 1259 4147 
L 1259 2491 
L 2053 2491 
Q 2509 2491 2742 2702 
Q 2975 2913 2975 3322 
Q 2975 3731 2742 3939 
Q 2509 4147 2053 4147 
L 1259 4147 
z
" transform="scale(0.015625)"/>
       <path id="DejaVuSans-2f" d="M 1625 4666 
L 2156 4666 
L 531 -594 
L 0 -594 
L 1625 4666 
z
" transform="scale(0.015625)"/>
       <path id="DejaVuSans-53" d="M 3425 4513 
L 3425 3897 
Q 3066 4069 2747 4153 
Q 2428 4238 2131 4238 
Q 1616 4238 1336 4038 
Q 1056 3838 1056 3469 
Q 1056 3159 1242 3001 
Q 1428 2844 1947 2747 
L 2328 2669 
Q 3034 2534 3370 2195 
Q 3706 1856 3706 1288 
Q 3706 609 3251 259 
Q 2797 -91 1919 -91 
Q 1588 -91 1214 -16 
Q 841 59 441 206 
L 441 856 
Q 825 641 1194 531 
Q 1563 422 1919 422 
Q 2459 422 2753 634 
Q 3047 847 3047 1241 
Q 3047 1584 2836 1778 
Q 2625 1972 2144 2069 
L 1759 2144 
Q 1053 2284 737 2584 
Q 422 2884 422 3419 
Q 422 4038 858 4394 
Q 1294 4750 2059 4750 
Q 2388 4750 2728 4690 
Q 3069 4631 3425 4513 
z
" transform="scale(0.015625)"/>
      </defs>
      <use xlink:href="#DejaVuSans-52"/>
      <use xlink:href="#DejaVuSans-2f" x="69.482422"/>
      <use xlink:href="#DejaVuSans-53" x="103.173828"/>
      <use xlink:href="#DejaVuSans-20" x="166.650391"/>
      <use xlink:href="#DejaVuSans-48" x="198.4375"/>
      <use xlink:href="#DejaVuSans-75" x="273.632812"/>
      <use xlink:href="#DejaVuSans-72" x="337.011719"/>
      <use xlink:href="#DejaVuSans-73" x="378.125"/>
      <use xlink:href="#DejaVuSans-74" x="430.224609"/>
     </g>
    </g>
    <g id="line2d_34">
     <path d="M 81.9 83.278687 
L 91.9 83.278687 
L 101.9 83.278687 
" style="fill: none; stroke-dasharray: 9.6,2.4,1.5,2.4; stroke-dashoffset: 0; stroke: #ff0000; stroke-width: 1.5"/>
    </g>
    <g id="text_17">
     <!-- variogram Hurst -->
     <g transform="translate(109.9 86.778687)scale(0.1 -0.1)">
      <defs>
       <path id="DejaVuSans-76" d="M 191 3500 
L 800 3500 
L 1894 563 
L 2988 3500 
L 3597 3500 
L 2284 0 
L 1503 0 
L 191 3500 
z
" transform="scale(0.015625)"/>
      </defs>
      <use xlink:href="#DejaVuSans-76"/>
      <use xlink:href="#DejaVuSans-61" x="59.179688"/>
      <use xlink:href="#DejaVuSans-72" x="120.458984"/>
      <use xlink:href="#DejaVuSans-69" x="161.572266"/>
      <use xlink:href="#DejaVuSans-6f" x="189.355469"/>
      <use xlink:href="#DejaVuSans-67" x="250.537109"/>
      <use xlink:href="#DejaVuSans-72" x="314.013672"/>
      <use xlink:href="#DejaVuSans-61" x="355.126953"/>
      <use xlink:href="#DejaVuSans-6d" x="416.40625"/>
      <use xlink:href="#DejaVuSans-20" x="513.818359"/>
      <use xlink:href="#DejaVuSans-48" x="545.605469"/>
      <use xlink:href="#DejaVuSans-75" x="620.800781"/>
      <use xlink:href="#DejaVuSans-72" x="684.179688"/>
      <use xlink:href="#DejaVuSans-73" x="725.292969"/>
      <use xlink:href="#DejaVuSans-74" x="777.392578"/>
     </g>
    </g>
    <g id="line2d_35">
     <path d="M 81.9 97.956813 
L 91.9 97.956813 
L 101.9 97.956813 
" style="fill: none; stroke-dasharray: 5.55,2.4; stroke-dashoffset: 0; stroke: #ff0000; stroke-width: 1.5"/>
    </g>
    <g id="text_18">
     <!-- Higuchi Hurst -->
     <g transform="translate(109.9 101.456813)scale(0.1 -0.1)">
      <defs>
       <path id="DejaVuSans-63" d="M 3122 3366 
L 3122 2828 
Q 2878 2963 2633 3030 
Q 2388 3097 2138 3097 
Q 1578 3097 1268 2742 
Q 959 2388 959 1747 
Q 959 1106 1268 751 
Q 1578 397 2138 397 
Q 2388 397 2633 464 
Q 2878 531 3122 666 
L 3122 134 
Q 2881 22 2623 -34 
Q 2366 -91 2075 -91 
Q 1284 -91 818 406 
Q 353 903 353 1747 
Q 353 2603 823 3093 
Q 1294 3584 2113 3584 
Q 2378 3584 2631 3529 
Q 2884 3475 3122 3366 
z
" transform="scale(0.015625)"/>
       <path id="DejaVuSans-68" d="M 3513 2113 
L 3513 0 
L 2938 0 
L 2938 2094 
Q 2938 2591 2744 2837 
Q 2550 3084 2163 3084 
Q 1697 3084 1428 2787 
Q 1159 2491 1159 1978 
L 1159 0 
L 581 0 
L 581 4863 
L 1159 4863 
L 1159 2956 
Q 1366 3272 1645 3428 
Q 1925 3584 2291 3584 
Q 2894 3584 3203 3211 
Q 3513 2838 3513 2113 
z
" transform="scale(0.015625)"/>
      </defs>
      <use xlink:href="#DejaVuSans-48"/>
      <use xlink:href="#DejaVuSans-69" x="75.195312"/>
      <use xlink:href="#DejaVuSans-67" x="102.978516"/>
      <use xlink:href="#DejaVuSans-75" x="166.455078"/>
      <use xlink:href="#DejaVuSans-63" x="229.833984"/>
      <use xlink:href="#DejaVuSans-68" x="284.814453"/>
      <use xlink:href="#DejaVuSans-69" x="348.193359"/>
      <use xlink:href="#DejaVuSans-20" x="375.976562"/>
      <use xlink:href="#DejaVuSans-48" x="407.763672"/>
      <use xlink:href="#DejaVuSans-75" x="482.958984"/>
      <use xlink:href="#DejaVuSans-72" x="546.337891"/>
      <use xlink:href="#DejaVuSans-73" x="587.451172"/>
      <use xlink:href="#DejaVuSans-74" x="639.550781"/>
     </g>
    </g>
    <g id="line2d_36">
     <path d="M 81.9 112.634938 
L 91.9 112.634938 
L 101.9 112.634938 
" style="fill: none; stroke: #ff0000; stroke-width: 1.5; stroke-linecap: square"/>
    </g>
    <g id="text_19">
     <!-- Whittle Hurst -->
     <g transform="translate(109.9 116.134938)scale(0.1 -0.1)">
      <defs>
       <path id="DejaVuSans-57" d="M 213 4666 
L 850 4666 
L 1831 722 
L 2809 4666 
L 3519 4666 
L 4500 722 
L 5478 4666 
L 6119 4666 
L 4947 0 
L 4153 0 
L 3169 4050 
L 2175 0 
L 1381 0 
L 213 4666 
z
" transform="scale(0.015625)"/>
      </defs>
      <use xlink:href="#DejaVuSans-57"/>
      <use xlink:href="#DejaVuSans-68" x="98.876953"/>
      <use xlink:href="#DejaVuSans-69" x="162.255859"/>
      <use xlink:href="#DejaVuSans-74" x="190.039062"/>
      <use xlink:href="#DejaVuSans-74" x="229.248047"/>
      <use xlink:href="#DejaVuSans-6c" x="268.457031"/>
      <use xlink:href="#DejaVuSans-65" x="296.240234"/>
      <use xlink:href="#DejaVuSans-20" x="357.763672"/>
      <use xlink:href="#DejaVuSans-48" x="389.550781"/>
      <use xlink:href="#DejaVuSans-75" x="464.746094"/>
      <use xlink:href="#DejaVuSans-72" x="528.125"/>
      <use xlink:href="#DejaVuSans-73" x="569.238281"/>
      <use xlink:href="#DejaVuSans-74" x="621.337891"/>
     </g>
    </g>
    <g id="line2d_37">
     <path d="M 81.9 127.313063 
L 91.9 127.313063 
L 101.9 127.313063 
" style="fill: none; stroke: #ff7f0e; stroke-width: 1.5; stroke-linecap: square"/>
    </g>
    <g id="text_20">
     <!-- 1D CNN Hurst -->
     <g transform="translate(109.9 130.813063)scale(0.1 -0.1)">
      <defs>
       <path id="DejaVuSans-43" d="M 4122 4306 
L 4122 3641 
Q 3803 3938 3442 4084 
Q 3081 4231 2675 4231 
Q 1875 4231 1450 3742 
Q 1025 3253 1025 2328 
Q 1025 1406 1450 917 
Q 1875 428 2675 428 
Q 3081 428 3442 575 
Q 3803 722 4122 1019 
L 4122 359 
Q 3791 134 3420 21 
Q 3050 -91 2638 -91 
Q 1578 -91 968 557 
Q 359 1206 359 2328 
Q 359 3453 968 4101 
Q 1578 4750 2638 4750 
Q 3056 4750 3426 4639 
Q 3797 4528 4122 4306 
z
" transform="scale(0.015625)"/>
       <path id="DejaVuSans-4e" d="M 628 4666 
L 1478 4666 
L 3547 763 
L 3547 4666 
L 4159 4666 
L 4159 0 
L 3309 0 
L 1241 3903 
L 1241 0 
L 628 0 
L 628 4666 
z
" transform="scale(0.015625)"/>
      </defs>
      <use xlink:href="#DejaVuSans-31"/>
      <use xlink:href="#DejaVuSans-44" x="63.623047"/>
      <use xlink:href="#DejaVuSans-20" x="140.625"/>
      <use xlink:href="#DejaVuSans-43" x="172.412109"/>
      <use xlink:href="#DejaVuSans-4e" x="242.236328"/>
      <use xlink:href="#DejaVuSans-4e" x="317.041016"/>
      <use xlink:href="#DejaVuSans-20" x="391.845703"/>
      <use xlink:href="#DejaVuSans-48" x="423.632812"/>
      <use xlink:href="#DejaVuSans-75" x="498.828125"/>
      <use xlink:href="#DejaVuSans-72" x="562.207031"/>
      <use xlink:href="#DejaVuSans-73" x="603.320312"/>
      <use xlink:href="#DejaVuSans-74" x="655.419922"/>
     </g>
    </g>
    <g id="line2d_38">
     <path d="M 81.9 141.991187 
L 91.9 141.991187 
L 101.9 141.991187 
" style="fill: none; stroke: #1f77b4; stroke-width: 1.5; stroke-linecap: square"/>
    </g>
    <g id="text_21">
     <!-- LSTM Hurst -->
     <g transform="translate(109.9 145.491187)scale(0.1 -0.1)">
      <defs>
       <path id="DejaVuSans-54" d="M -19 4666 
L 3928 4666 
L 3928 4134 
L 2272 4134 
L 2272 0 
L 1638 0 
L 1638 4134 
L -19 4134 
L -19 4666 
z
" transform="scale(0.015625)"/>
       <path id="DejaVuSans-4d" d="M 628 4666 
L 1569 4666 
L 2759 1491 
L 3956 4666 
L 4897 4666 
L 4897 0 
L 4281 0 
L 4281 4097 
L 3078 897 
L 2444 897 
L 1241 4097 
L 1241 0 
L 628 0 
L 628 4666 
z
" transform="scale(0.015625)"/>
      </defs>
      <use xlink:href="#DejaVuSans-4c"/>
      <use xlink:href="#DejaVuSans-53" x="55.712891"/>
      <use xlink:href="#DejaVuSans-54" x="119.189453"/>
      <use xlink:href="#DejaVuSans-4d" x="180.273438"/>
      <use xlink:href="#DejaVuSans-20" x="266.552734"/>
      <use xlink:href="#DejaVuSans-48" x="298.339844"/>
      <use xlink:href="#DejaVuSans-75" x="373.535156"/>
      <use xlink:href="#DejaVuSans-72" x="436.914062"/>
      <use xlink:href="#DejaVuSans-73" x="478.027344"/>
      <use xlink:href="#DejaVuSans-74" x="530.126953"/>
     </g>
    </g>
   </g>
  </g>
 </g>
 <defs>
  <clipPath id="p6f4ef27161">
   <rect x="72.9" y="40.824" width="451.98" height="261.954"/>
  </clipPath>
 </defs>
</svg>
