<?xml version="1.0" encoding="utf-8" standalone="no"?>
<!DOCTYPE svg PUBLIC "-//W3C//DTD SVG 1.1//EN"
  "http://www.w3.org/Graphics/SVG/1.1/DTD/svg11.dtd">
<svg xmlns:xlink="http://www.w3.org/1999/xlink" width="583.2pt" height="340.2pt" viewBox="0 0 583.2 340.2" xmlns="http://www.w3.org/2000/svg" version="1.1">
 <metadata>
  <rdf:RDF xmlns:dc="http://purl.org/dc/elements/1.1/" xmlns:cc="http://creativecommons.org/ns#" xmlns:rdf="http://www.w3.org/1999/02/22-rdf-syntax-ns#">
   <cc:Work>
    <dc:type rdf:resource="http://purl.org/dc/dcmitype/StillImage"/>
    <dc:date>2024-07-06T14:36:19.833553</dc:date>
    <dc:format>image/svg+xml</dc:format>
    <dc:creator>
     <cc:Agent>
      <dc:title>Matplotlib v3.5.1, https://matplotlib.org/</dc:title>
     </cc:Agent>
    </dc:creator>
   </cc:Work>
  </rdf:RDF>
 </metadata>
 <defs>
  <style type="text/css">*{stroke-linejoin: round; stroke-linecap: butt}</style>
 </defs>
 <g id="figure_1">
  <g id="patch_1">
   <path d="M 0 340.2 
L 583.2 340.2 
L 583.2 0 
L 0 0 
z
" style="fill: #ffffff"/>
  </g>
  <g id="axes_1">
   <g id="patch_2">
    <path d="M 72.9 302.778 
L 524.88 302.778 
L 524.88 40.824 
L 72.9 40.824 
L 72.9 302.778 
z
" style="fill: none; opacity: 0"/>
   </g>
   <g id="matplotlib.axis_1">
    <g id="xtick_1">
     <g id="line2d_1">
      <path d="M 81.626468 302.778 
L 81.626468 40.824 
" clip-path="url(#p4c4d53037d)" style="fill: none; stroke: #e6e6e6; stroke-width: 0.8; stroke-linecap: square"/>
     </g>
     <g id="line2d_2">
      <defs>
       <path id="m04aa943f17" d="M 0 0 
L 0 3.5 
" style="stroke: #000000; stroke-width: 0.8"/>
      </defs>
      <g>
       <use xlink:href="#m04aa943f17" x="81.626468" y="302.778" style="stroke: #000000; stroke-width: 0.8"/>
      </g>
     </g>
     <g id="text_1">
      <!-- 2000 -->
      <g transform="translate(68.901468 317.376438)scale(0.1 -0.1)">
       <defs>
        <path id="DejaVuSans-32" d="M 1228 531 
L 3431 531 
L 3431 0 
L 469 0 
L 469 531 
Q 828 903 1448 1529 
Q 2069 2156 2228 2338 
Q 2531 2678 2651 2914 
Q 2772 3150 2772 3378 
Q 2772 3750 2511 3984 
Q 2250 4219 1831 4219 
Q 1534 4219 1204 4116 
Q 875 4013 500 3803 
L 500 4441 
Q 881 4594 1212 4672 
Q 1544 4750 1819 4750 
Q 2544 4750 2975 4387 
Q 3406 4025 3406 3419 
Q 3406 3131 3298 2873 
Q 3191 2616 2906 2266 
Q 2828 2175 2409 1742 
Q 1991 1309 1228 531 
z
" transform="scale(0.015625)"/>
        <path id="DejaVuSans-30" d="M 2034 4250 
Q 1547 4250 1301 3770 
Q 1056 3291 1056 2328 
Q 1056 1369 1301 889 
Q 1547 409 2034 409 
Q 2525 409 2770 889 
Q 3016 1369 3016 2328 
Q 3016 3291 2770 3770 
Q 2525 4250 2034 4250 
z
M 2034 4750 
Q 2819 4750 3233 4129 
Q 3647 3509 3647 2328 
Q 3647 1150 3233 529 
Q 2819 -91 2034 -91 
Q 1250 -91 836 529 
Q 422 1150 422 2328 
Q 422 3509 836 4129 
Q 1250 4750 2034 4750 
z
" transform="scale(0.015625)"/>
       </defs>
       <use xlink:href="#DejaVuSans-32"/>
       <use xlink:href="#DejaVuSans-30" x="63.623047"/>
       <use xlink:href="#DejaVuSans-30" x="127.246094"/>
       <use xlink:href="#DejaVuSans-30" x="190.869141"/>
      </g>
     </g>
    </g>
    <g id="xtick_2">
     <g id="line2d_3">
      <path d="M 150.691312 302.778 
L 150.691312 40.824 
" clip-path="url(#p4c4d53037d)" style="fill: none; stroke: #e6e6e6; stroke-width: 0.8; stroke-linecap: square"/>
     </g>
     <g id="line2d_4">
      <g>
       <use xlink:href="#m04aa943f17" x="150.691312" y="302.778" style="stroke: #000000; stroke-width: 0.8"/>
      </g>
     </g>
     <g id="text_2">
      <!-- 2004 -->
      <g transform="translate(137.966312 317.376438)scale(0.1 -0.1)">
       <defs>
        <path id="DejaVuSans-34" d="M 2419 4116 
L 825 1625 
L 2419 1625 
L 2419 4116 
z
M 2253 4666 
L 3047 4666 
L 3047 1625 
L 3713 1625 
L 3713 1100 
L 3047 1100 
L 3047 0 
L 2419 0 
L 2419 1100 
L 313 1100 
L 313 1709 
L 2253 4666 
z
" transform="scale(0.015625)"/>
       </defs>
       <use xlink:href="#DejaVuSans-32"/>
       <use xlink:href="#DejaVuSans-30" x="63.623047"/>
       <use xlink:href="#DejaVuSans-30" x="127.246094"/>
       <use xlink:href="#DejaVuSans-34" x="190.869141"/>
      </g>
     </g>
    </g>
    <g id="xtick_3">
     <g id="line2d_5">
      <path d="M 219.756155 302.778 
L 219.756155 40.824 
" clip-path="url(#p4c4d53037d)" style="fill: none; stroke: #e6e6e6; stroke-width: 0.8; stroke-linecap: square"/>
     </g>
     <g id="line2d_6">
      <g>
       <use xlink:href="#m04aa943f17" x="219.756155" y="302.778" style="stroke: #000000; stroke-width: 0.8"/>
      </g>
     </g>
     <g id="text_3">
      <!-- 2008 -->
      <g transform="translate(207.031155 317.376438)scale(0.1 -0.1)">
       <defs>
        <path id="DejaVuSans-38" d="M 2034 2216 
Q 1584 2216 1326 1975 
Q 1069 1734 1069 1313 
Q 1069 891 1326 650 
Q 1584 409 2034 409 
Q 2484 409 2743 651 
Q 3003 894 3003 1313 
Q 3003 1734 2745 1975 
Q 2488 2216 2034 2216 
z
M 1403 2484 
Q 997 2584 770 2862 
Q 544 3141 544 3541 
Q 544 4100 942 4425 
Q 1341 4750 2034 4750 
Q 2731 4750 3128 4425 
Q 3525 4100 3525 3541 
Q 3525 3141 3298 2862 
Q 3072 2584 2669 2484 
Q 3125 2378 3379 2068 
Q 3634 1759 3634 1313 
Q 3634 634 3220 271 
Q 2806 -91 2034 -91 
Q 1263 -91 848 271 
Q 434 634 434 1313 
Q 434 1759 690 2068 
Q 947 2378 1403 2484 
z
M 1172 3481 
Q 1172 3119 1398 2916 
Q 1625 2713 2034 2713 
Q 2441 2713 2670 2916 
Q 2900 3119 2900 3481 
Q 2900 3844 2670 4047 
Q 2441 4250 2034 4250 
Q 1625 4250 1398 4047 
Q 1172 3844 1172 3481 
z
" transform="scale(0.015625)"/>
       </defs>
       <use xlink:href="#DejaVuSans-32"/>
       <use xlink:href="#DejaVuSans-30" x="63.623047"/>
       <use xlink:href="#DejaVuSans-30" x="127.246094"/>
       <use xlink:href="#DejaVuSans-38" x="190.869141"/>
      </g>
     </g>
    </g>
    <g id="xtick_4">
     <g id="line2d_7">
      <path d="M 288.820998 302.778 
L 288.820998 40.824 
" clip-path="url(#p4c4d53037d)" style="fill: none; stroke: #e6e6e6; stroke-width: 0.8; stroke-linecap: square"/>
     </g>
     <g id="line2d_8">
      <g>
       <use xlink:href="#m04aa943f17" x="288.820998" y="302.778" style="stroke: #000000; stroke-width: 0.8"/>
      </g>
     </g>
     <g id="text_4">
      <!-- 2012 -->
      <g transform="translate(276.095998 317.376438)scale(0.1 -0.1)">
       <defs>
        <path id="DejaVuSans-31" d="M 794 531 
L 1825 531 
L 1825 4091 
L 703 3866 
L 703 4441 
L 1819 4666 
L 2450 4666 
L 2450 531 
L 3481 531 
L 3481 0 
L 794 0 
L 794 531 
z
" transform="scale(0.015625)"/>
       </defs>
       <use xlink:href="#DejaVuSans-32"/>
       <use xlink:href="#DejaVuSans-30" x="63.623047"/>
       <use xlink:href="#DejaVuSans-31" x="127.246094"/>
       <use xlink:href="#DejaVuSans-32" x="190.869141"/>
      </g>
     </g>
    </g>
    <g id="xtick_5">
     <g id="line2d_9">
      <path d="M 357.885842 302.778 
L 357.885842 40.824 
" clip-path="url(#p4c4d53037d)" style="fill: none; stroke: #e6e6e6; stroke-width: 0.8; stroke-linecap: square"/>
     </g>
     <g id="line2d_10">
      <g>
       <use xlink:href="#m04aa943f17" x="357.885842" y="302.778" style="stroke: #000000; stroke-width: 0.8"/>
      </g>
     </g>
     <g id="text_5">
      <!-- 2016 -->
      <g transform="translate(345.160842 317.376438)scale(0.1 -0.1)">
       <defs>
        <path id="DejaVuSans-36" d="M 2113 2584 
Q 1688 2584 1439 2293 
Q 1191 2003 1191 1497 
Q 1191 994 1439 701 
Q 1688 409 2113 409 
Q 2538 409 2786 701 
Q 3034 994 3034 1497 
Q 3034 2003 2786 2293 
Q 2538 2584 2113 2584 
z
M 3366 4563 
L 3366 3988 
Q 3128 4100 2886 4159 
Q 2644 4219 2406 4219 
Q 1781 4219 1451 3797 
Q 1122 3375 1075 2522 
Q 1259 2794 1537 2939 
Q 1816 3084 2150 3084 
Q 2853 3084 3261 2657 
Q 3669 2231 3669 1497 
Q 3669 778 3244 343 
Q 2819 -91 2113 -91 
Q 1303 -91 875 529 
Q 447 1150 447 2328 
Q 447 3434 972 4092 
Q 1497 4750 2381 4750 
Q 2619 4750 2861 4703 
Q 3103 4656 3366 4563 
z
" transform="scale(0.015625)"/>
       </defs>
       <use xlink:href="#DejaVuSans-32"/>
       <use xlink:href="#DejaVuSans-30" x="63.623047"/>
       <use xlink:href="#DejaVuSans-31" x="127.246094"/>
       <use xlink:href="#DejaVuSans-36" x="190.869141"/>
      </g>
     </g>
    </g>
    <g id="xtick_6">
     <g id="line2d_11">
      <path d="M 426.950685 302.778 
L 426.950685 40.824 
" clip-path="url(#p4c4d53037d)" style="fill: none; stroke: #e6e6e6; stroke-width: 0.8; stroke-linecap: square"/>
     </g>
     <g id="line2d_12">
      <g>
       <use xlink:href="#m04aa943f17" x="426.950685" y="302.778" style="stroke: #000000; stroke-width: 0.8"/>
      </g>
     </g>
     <g id="text_6">
      <!-- 2020 -->
      <g transform="translate(414.225685 317.376438)scale(0.1 -0.1)">
       <use xlink:href="#DejaVuSans-32"/>
       <use xlink:href="#DejaVuSans-30" x="63.623047"/>
       <use xlink:href="#DejaVuSans-32" x="127.246094"/>
       <use xlink:href="#DejaVuSans-30" x="190.869141"/>
      </g>
     </g>
    </g>
    <g id="xtick_7">
     <g id="line2d_13">
      <path d="M 496.015528 302.778 
L 496.015528 40.824 
" clip-path="url(#p4c4d53037d)" style="fill: none; stroke: #e6e6e6; stroke-width: 0.8; stroke-linecap: square"/>
     </g>
     <g id="line2d_14">
      <g>
       <use xlink:href="#m04aa943f17" x="496.015528" y="302.778" style="stroke: #000000; stroke-width: 0.8"/>
      </g>
     </g>
     <g id="text_7">
      <!-- 2024 -->
      <g transform="translate(483.290528 317.376438)scale(0.1 -0.1)">
       <use xlink:href="#DejaVuSans-32"/>
       <use xlink:href="#DejaVuSans-30" x="63.623047"/>
       <use xlink:href="#DejaVuSans-32" x="127.246094"/>
       <use xlink:href="#DejaVuSans-34" x="190.869141"/>
      </g>
     </g>
    </g>
    <g id="text_8">
     <!-- Date -->
     <g transform="translate(286.939219 331.054562)scale(0.1 -0.1)">
      <defs>
       <path id="DejaVuSans-44" d="M 1259 4147 
L 1259 519 
L 2022 519 
Q 2988 519 3436 956 
Q 3884 1394 3884 2338 
Q 3884 3275 3436 3711 
Q 2988 4147 2022 4147 
L 1259 4147 
z
M 628 4666 
L 1925 4666 
Q 3281 4666 3915 4102 
Q 4550 3538 4550 2338 
Q 4550 1131 3912 565 
Q 3275 0 1925 0 
L 628 0 
L 628 4666 
z
" transform="scale(0.015625)"/>
       <path id="DejaVuSans-61" d="M 2194 1759 
Q 1497 1759 1228 1600 
Q 959 1441 959 1056 
Q 959 750 1161 570 
Q 1363 391 1709 391 
Q 2188 391 2477 730 
Q 2766 1069 2766 1631 
L 2766 1759 
L 2194 1759 
z
M 3341 1997 
L 3341 0 
L 2766 0 
L 2766 531 
Q 2569 213 2275 61 
Q 1981 -91 1556 -91 
Q 1019 -91 701 211 
Q 384 513 384 1019 
Q 384 1609 779 1909 
Q 1175 2209 1959 2209 
L 2766 2209 
L 2766 2266 
Q 2766 2663 2505 2880 
Q 2244 3097 1772 3097 
Q 1472 3097 1187 3025 
Q 903 2953 641 2809 
L 641 3341 
Q 956 3463 1253 3523 
Q 1550 3584 1831 3584 
Q 2591 3584 2966 3190 
Q 3341 2797 3341 1997 
z
" transform="scale(0.015625)"/>
       <path id="DejaVuSans-74" d="M 1172 4494 
L 1172 3500 
L 2356 3500 
L 2356 3053 
L 1172 3053 
L 1172 1153 
Q 1172 725 1289 603 
Q 1406 481 1766 481 
L 2356 481 
L 2356 0 
L 1766 0 
Q 1100 0 847 248 
Q 594 497 594 1153 
L 594 3053 
L 172 3053 
L 172 3500 
L 594 3500 
L 594 4494 
L 1172 4494 
z
" transform="scale(0.015625)"/>
       <path id="DejaVuSans-65" d="M 3597 1894 
L 3597 1613 
L 953 1613 
Q 991 1019 1311 708 
Q 1631 397 2203 397 
Q 2534 397 2845 478 
Q 3156 559 3463 722 
L 3463 178 
Q 3153 47 2828 -22 
Q 2503 -91 2169 -91 
Q 1331 -91 842 396 
Q 353 884 353 1716 
Q 353 2575 817 3079 
Q 1281 3584 2069 3584 
Q 2775 3584 3186 3129 
Q 3597 2675 3597 1894 
z
M 3022 2063 
Q 3016 2534 2758 2815 
Q 2500 3097 2075 3097 
Q 1594 3097 1305 2825 
Q 1016 2553 972 2059 
L 3022 2063 
z
" transform="scale(0.015625)"/>
      </defs>
      <use xlink:href="#DejaVuSans-44"/>
      <use xlink:href="#DejaVuSans-61" x="77.001953"/>
      <use xlink:href="#DejaVuSans-74" x="138.28125"/>
      <use xlink:href="#DejaVuSans-65" x="177.490234"/>
     </g>
    </g>
   </g>
   <g id="matplotlib.axis_2">
    <g id="ytick_1">
     <g id="line2d_15">
      <path d="M 72.9 302.686524 
L 524.88 302.686524 
" clip-path="url(#p4c4d53037d)" style="fill: none; stroke: #e6e6e6; stroke-width: 0.8; stroke-linecap: square"/>
     </g>
     <g id="line2d_16">
      <defs>
       <path id="m46752f5b77" d="M 0 0 
L -3.5 0 
" style="stroke: #000000; stroke-width: 0.8"/>
      </defs>
      <g>
       <use xlink:href="#m46752f5b77" x="72.9" y="302.686524" style="stroke: #000000; stroke-width: 0.8"/>
      </g>
     </g>
     <g id="text_9">
      <!-- −0.2 -->
      <g transform="translate(41.617187 306.485743)scale(0.1 -0.1)">
       <defs>
        <path id="DejaVuSans-2212" d="M 678 2272 
L 4684 2272 
L 4684 1741 
L 678 1741 
L 678 2272 
z
" transform="scale(0.015625)"/>
        <path id="DejaVuSans-2e" d="M 684 794 
L 1344 794 
L 1344 0 
L 684 0 
L 684 794 
z
" transform="scale(0.015625)"/>
       </defs>
       <use xlink:href="#DejaVuSans-2212"/>
       <use xlink:href="#DejaVuSans-30" x="83.789062"/>
       <use xlink:href="#DejaVuSans-2e" x="147.412109"/>
       <use xlink:href="#DejaVuSans-32" x="179.199219"/>
      </g>
     </g>
    </g>
    <g id="ytick_2">
     <g id="line2d_17">
      <path d="M 72.9 266.589495 
L 524.88 266.589495 
" clip-path="url(#p4c4d53037d)" style="fill: none; stroke: #e6e6e6; stroke-width: 0.8; stroke-linecap: square"/>
     </g>
     <g id="line2d_18">
      <g>
       <use xlink:href="#m46752f5b77" x="72.9" y="266.589495" style="stroke: #000000; stroke-width: 0.8"/>
      </g>
     </g>
     <g id="text_10">
      <!-- −0.1 -->
      <g transform="translate(41.617187 270.388714)scale(0.1 -0.1)">
       <use xlink:href="#DejaVuSans-2212"/>
       <use xlink:href="#DejaVuSans-30" x="83.789062"/>
       <use xlink:href="#DejaVuSans-2e" x="147.412109"/>
       <use xlink:href="#DejaVuSans-31" x="179.199219"/>
      </g>
     </g>
    </g>
    <g id="ytick_3">
     <g id="line2d_19">
      <path d="M 72.9 230.492466 
L 524.88 230.492466 
" clip-path="url(#p4c4d53037d)" style="fill: none; stroke: #e6e6e6; stroke-width: 0.8; stroke-linecap: square"/>
     </g>
     <g id="line2d_20">
      <g>
       <use xlink:href="#m46752f5b77" x="72.9" y="230.492466" style="stroke: #000000; stroke-width: 0.8"/>
      </g>
     </g>
     <g id="text_11">
      <!-- 0.0 -->
      <g transform="translate(49.996875 234.291685)scale(0.1 -0.1)">
       <use xlink:href="#DejaVuSans-30"/>
       <use xlink:href="#DejaVuSans-2e" x="63.623047"/>
       <use xlink:href="#DejaVuSans-30" x="95.410156"/>
      </g>
     </g>
    </g>
    <g id="ytick_4">
     <g id="line2d_21">
      <path d="M 72.9 194.395437 
L 524.88 194.395437 
" clip-path="url(#p4c4d53037d)" style="fill: none; stroke: #e6e6e6; stroke-width: 0.8; stroke-linecap: square"/>
     </g>
     <g id="line2d_22">
      <g>
       <use xlink:href="#m46752f5b77" x="72.9" y="194.395437" style="stroke: #000000; stroke-width: 0.8"/>
      </g>
     </g>
     <g id="text_12">
      <!-- 0.1 -->
      <g transform="translate(49.996875 198.194655)scale(0.1 -0.1)">
       <use xlink:href="#DejaVuSans-30"/>
       <use xlink:href="#DejaVuSans-2e" x="63.623047"/>
       <use xlink:href="#DejaVuSans-31" x="95.410156"/>
      </g>
     </g>
    </g>
    <g id="ytick_5">
     <g id="line2d_23">
      <path d="M 72.9 158.298407 
L 524.88 158.298407 
" clip-path="url(#p4c4d53037d)" style="fill: none; stroke: #e6e6e6; stroke-width: 0.8; stroke-linecap: square"/>
     </g>
     <g id="line2d_24">
      <g>
       <use xlink:href="#m46752f5b77" x="72.9" y="158.298407" style="stroke: #000000; stroke-width: 0.8"/>
      </g>
     </g>
     <g id="text_13">
      <!-- 0.2 -->
      <g transform="translate(49.996875 162.097626)scale(0.1 -0.1)">
       <use xlink:href="#DejaVuSans-30"/>
       <use xlink:href="#DejaVuSans-2e" x="63.623047"/>
       <use xlink:href="#DejaVuSans-32" x="95.410156"/>
      </g>
     </g>
    </g>
    <g id="ytick_6">
     <g id="line2d_25">
      <path d="M 72.9 122.201378 
L 524.88 122.201378 
" clip-path="url(#p4c4d53037d)" style="fill: none; stroke: #e6e6e6; stroke-width: 0.8; stroke-linecap: square"/>
     </g>
     <g id="line2d_26">
      <g>
       <use xlink:href="#m46752f5b77" x="72.9" y="122.201378" style="stroke: #000000; stroke-width: 0.8"/>
      </g>
     </g>
     <g id="text_14">
      <!-- 0.3 -->
      <g transform="translate(49.996875 126.000597)scale(0.1 -0.1)">
       <defs>
        <path id="DejaVuSans-33" d="M 2597 2516 
Q 3050 2419 3304 2112 
Q 3559 1806 3559 1356 
Q 3559 666 3084 287 
Q 2609 -91 1734 -91 
Q 1441 -91 1130 -33 
Q 819 25 488 141 
L 488 750 
Q 750 597 1062 519 
Q 1375 441 1716 441 
Q 2309 441 2620 675 
Q 2931 909 2931 1356 
Q 2931 1769 2642 2001 
Q 2353 2234 1838 2234 
L 1294 2234 
L 1294 2753 
L 1863 2753 
Q 2328 2753 2575 2939 
Q 2822 3125 2822 3475 
Q 2822 3834 2567 4026 
Q 2313 4219 1838 4219 
Q 1578 4219 1281 4162 
Q 984 4106 628 3988 
L 628 4550 
Q 988 4650 1302 4700 
Q 1616 4750 1894 4750 
Q 2613 4750 3031 4423 
Q 3450 4097 3450 3541 
Q 3450 3153 3228 2886 
Q 3006 2619 2597 2516 
z
" transform="scale(0.015625)"/>
       </defs>
       <use xlink:href="#DejaVuSans-30"/>
       <use xlink:href="#DejaVuSans-2e" x="63.623047"/>
       <use xlink:href="#DejaVuSans-33" x="95.410156"/>
      </g>
     </g>
    </g>
    <g id="ytick_7">
     <g id="line2d_27">
      <path d="M 72.9 86.104349 
L 524.88 86.104349 
" clip-path="url(#p4c4d53037d)" style="fill: none; stroke: #e6e6e6; stroke-width: 0.8; stroke-linecap: square"/>
     </g>
     <g id="line2d_28">
      <g>
       <use xlink:href="#m46752f5b77" x="72.9" y="86.104349" style="stroke: #000000; stroke-width: 0.8"/>
      </g>
     </g>
     <g id="text_15">
      <!-- 0.4 -->
      <g transform="translate(49.996875 89.903568)scale(0.1 -0.1)">
       <use xlink:href="#DejaVuSans-30"/>
       <use xlink:href="#DejaVuSans-2e" x="63.623047"/>
       <use xlink:href="#DejaVuSans-34" x="95.410156"/>
      </g>
     </g>
    </g>
    <g id="ytick_8">
     <g id="line2d_29">
      <path d="M 72.9 50.00732 
L 524.88 50.00732 
" clip-path="url(#p4c4d53037d)" style="fill: none; stroke: #e6e6e6; stroke-width: 0.8; stroke-linecap: square"/>
     </g>
     <g id="line2d_30">
      <g>
       <use xlink:href="#m46752f5b77" x="72.9" y="50.00732" style="stroke: #000000; stroke-width: 0.8"/>
      </g>
     </g>
     <g id="text_16">
      <!-- 0.5 -->
      <g transform="translate(49.996875 53.806539)scale(0.1 -0.1)">
       <defs>
        <path id="DejaVuSans-35" d="M 691 4666 
L 3169 4666 
L 3169 4134 
L 1269 4134 
L 1269 2991 
Q 1406 3038 1543 3061 
Q 1681 3084 1819 3084 
Q 2600 3084 3056 2656 
Q 3513 2228 3513 1497 
Q 3513 744 3044 326 
Q 2575 -91 1722 -91 
Q 1428 -91 1123 -41 
Q 819 9 494 109 
L 494 744 
Q 775 591 1075 516 
Q 1375 441 1709 441 
Q 2250 441 2565 725 
Q 2881 1009 2881 1497 
Q 2881 1984 2565 2268 
Q 2250 2553 1709 2553 
Q 1456 2553 1204 2497 
Q 953 2441 691 2322 
L 691 4666 
z
" transform="scale(0.015625)"/>
       </defs>
       <use xlink:href="#DejaVuSans-30"/>
       <use xlink:href="#DejaVuSans-2e" x="63.623047"/>
       <use xlink:href="#DejaVuSans-35" x="95.410156"/>
      </g>
     </g>
    </g>
    <g id="text_17">
     <!-- Volatility and Hurst-estimate -->
     <g transform="translate(35.5375 243.333031)rotate(-90)scale(0.1 -0.1)">
      <defs>
       <path id="DejaVuSans-56" d="M 1831 0 
L 50 4666 
L 709 4666 
L 2188 738 
L 3669 4666 
L 4325 4666 
L 2547 0 
L 1831 0 
z
" transform="scale(0.015625)"/>
       <path id="DejaVuSans-6f" d="M 1959 3097 
Q 1497 3097 1228 2736 
Q 959 2375 959 1747 
Q 959 1119 1226 758 
Q 1494 397 1959 397 
Q 2419 397 2687 759 
Q 2956 1122 2956 1747 
Q 2956 2369 2687 2733 
Q 2419 3097 1959 3097 
z
M 1959 3584 
Q 2709 3584 3137 3096 
Q 3566 2609 3566 1747 
Q 3566 888 3137 398 
Q 2709 -91 1959 -91 
Q 1206 -91 779 398 
Q 353 888 353 1747 
Q 353 2609 779 3096 
Q 1206 3584 1959 3584 
z
" transform="scale(0.015625)"/>
       <path id="DejaVuSans-6c" d="M 603 4863 
L 1178 4863 
L 1178 0 
L 603 0 
L 603 4863 
z
" transform="scale(0.015625)"/>
       <path id="DejaVuSans-69" d="M 603 3500 
L 1178 3500 
L 1178 0 
L 603 0 
L 603 3500 
z
M 603 4863 
L 1178 4863 
L 1178 4134 
L 603 4134 
L 603 4863 
z
" transform="scale(0.015625)"/>
       <path id="DejaVuSans-79" d="M 2059 -325 
Q 1816 -950 1584 -1140 
Q 1353 -1331 966 -1331 
L 506 -1331 
L 506 -850 
L 844 -850 
Q 1081 -850 1212 -737 
Q 1344 -625 1503 -206 
L 1606 56 
L 191 3500 
L 800 3500 
L 1894 763 
L 2988 3500 
L 3597 3500 
L 2059 -325 
z
" transform="scale(0.015625)"/>
       <path id="DejaVuSans-20" transform="scale(0.015625)"/>
       <path id="DejaVuSans-6e" d="M 3513 2113 
L 3513 0 
L 2938 0 
L 2938 2094 
Q 2938 2591 2744 2837 
Q 2550 3084 2163 3084 
Q 1697 3084 1428 2787 
Q 1159 2491 1159 1978 
L 1159 0 
L 581 0 
L 581 3500 
L 1159 3500 
L 1159 2956 
Q 1366 3272 1645 3428 
Q 1925 3584 2291 3584 
Q 2894 3584 3203 3211 
Q 3513 2838 3513 2113 
z
" transform="scale(0.015625)"/>
       <path id="DejaVuSans-64" d="M 2906 2969 
L 2906 4863 
L 3481 4863 
L 3481 0 
L 2906 0 
L 2906 525 
Q 2725 213 2448 61 
Q 2172 -91 1784 -91 
Q 1150 -91 751 415 
Q 353 922 353 1747 
Q 353 2572 751 3078 
Q 1150 3584 1784 3584 
Q 2172 3584 2448 3432 
Q 2725 3281 2906 2969 
z
M 947 1747 
Q 947 1113 1208 752 
Q 1469 391 1925 391 
Q 2381 391 2643 752 
Q 2906 1113 2906 1747 
Q 2906 2381 2643 2742 
Q 2381 3103 1925 3103 
Q 1469 3103 1208 2742 
Q 947 2381 947 1747 
z
" transform="scale(0.015625)"/>
       <path id="DejaVuSans-48" d="M 628 4666 
L 1259 4666 
L 1259 2753 
L 3553 2753 
L 3553 4666 
L 4184 4666 
L 4184 0 
L 3553 0 
L 3553 2222 
L 1259 2222 
L 1259 0 
L 628 0 
L 628 4666 
z
" transform="scale(0.015625)"/>
       <path id="DejaVuSans-75" d="M 544 1381 
L 544 3500 
L 1119 3500 
L 1119 1403 
Q 1119 906 1312 657 
Q 1506 409 1894 409 
Q 2359 409 2629 706 
Q 2900 1003 2900 1516 
L 2900 3500 
L 3475 3500 
L 3475 0 
L 2900 0 
L 2900 538 
Q 2691 219 2414 64 
Q 2138 -91 1772 -91 
Q 1169 -91 856 284 
Q 544 659 544 1381 
z
M 1991 3584 
L 1991 3584 
z
" transform="scale(0.015625)"/>
       <path id="DejaVuSans-72" d="M 2631 2963 
Q 2534 3019 2420 3045 
Q 2306 3072 2169 3072 
Q 1681 3072 1420 2755 
Q 1159 2438 1159 1844 
L 1159 0 
L 581 0 
L 581 3500 
L 1159 3500 
L 1159 2956 
Q 1341 3275 1631 3429 
Q 1922 3584 2338 3584 
Q 2397 3584 2469 3576 
Q 2541 3569 2628 3553 
L 2631 2963 
z
" transform="scale(0.015625)"/>
       <path id="DejaVuSans-73" d="M 2834 3397 
L 2834 2853 
Q 2591 2978 2328 3040 
Q 2066 3103 1784 3103 
Q 1356 3103 1142 2972 
Q 928 2841 928 2578 
Q 928 2378 1081 2264 
Q 1234 2150 1697 2047 
L 1894 2003 
Q 2506 1872 2764 1633 
Q 3022 1394 3022 966 
Q 3022 478 2636 193 
Q 2250 -91 1575 -91 
Q 1294 -91 989 -36 
Q 684 19 347 128 
L 347 722 
Q 666 556 975 473 
Q 1284 391 1588 391 
Q 1994 391 2212 530 
Q 2431 669 2431 922 
Q 2431 1156 2273 1281 
Q 2116 1406 1581 1522 
L 1381 1569 
Q 847 1681 609 1914 
Q 372 2147 372 2553 
Q 372 3047 722 3315 
Q 1072 3584 1716 3584 
Q 2034 3584 2315 3537 
Q 2597 3491 2834 3397 
z
" transform="scale(0.015625)"/>
       <path id="DejaVuSans-2d" d="M 313 2009 
L 1997 2009 
L 1997 1497 
L 313 1497 
L 313 2009 
z
" transform="scale(0.015625)"/>
       <path id="DejaVuSans-6d" d="M 3328 2828 
Q 3544 3216 3844 3400 
Q 4144 3584 4550 3584 
Q 5097 3584 5394 3201 
Q 5691 2819 5691 2113 
L 5691 0 
L 5113 0 
L 5113 2094 
Q 5113 2597 4934 2840 
Q 4756 3084 4391 3084 
Q 3944 3084 3684 2787 
Q 3425 2491 3425 1978 
L 3425 0 
L 2847 0 
L 2847 2094 
Q 2847 2600 2669 2842 
Q 2491 3084 2119 3084 
Q 1678 3084 1418 2786 
Q 1159 2488 1159 1978 
L 1159 0 
L 581 0 
L 581 3500 
L 1159 3500 
L 1159 2956 
Q 1356 3278 1631 3431 
Q 1906 3584 2284 3584 
Q 2666 3584 2933 3390 
Q 3200 3197 3328 2828 
z
" transform="scale(0.015625)"/>
      </defs>
      <use xlink:href="#DejaVuSans-56"/>
      <use xlink:href="#DejaVuSans-6f" x="60.658203"/>
      <use xlink:href="#DejaVuSans-6c" x="121.839844"/>
      <use xlink:href="#DejaVuSans-61" x="149.623047"/>
      <use xlink:href="#DejaVuSans-74" x="210.902344"/>
      <use xlink:href="#DejaVuSans-69" x="250.111328"/>
      <use xlink:href="#DejaVuSans-6c" x="277.894531"/>
      <use xlink:href="#DejaVuSans-69" x="305.677734"/>
      <use xlink:href="#DejaVuSans-74" x="333.460938"/>
      <use xlink:href="#DejaVuSans-79" x="372.669922"/>
      <use xlink:href="#DejaVuSans-20" x="431.849609"/>
      <use xlink:href="#DejaVuSans-61" x="463.636719"/>
      <use xlink:href="#DejaVuSans-6e" x="524.916016"/>
      <use xlink:href="#DejaVuSans-64" x="588.294922"/>
      <use xlink:href="#DejaVuSans-20" x="651.771484"/>
      <use xlink:href="#DejaVuSans-48" x="683.558594"/>
      <use xlink:href="#DejaVuSans-75" x="758.753906"/>
      <use xlink:href="#DejaVuSans-72" x="822.132812"/>
      <use xlink:href="#DejaVuSans-73" x="863.246094"/>
      <use xlink:href="#DejaVuSans-74" x="915.345703"/>
      <use xlink:href="#DejaVuSans-2d" x="954.554688"/>
      <use xlink:href="#DejaVuSans-65" x="990.638672"/>
      <use xlink:href="#DejaVuSans-73" x="1052.162109"/>
      <use xlink:href="#DejaVuSans-74" x="1104.261719"/>
      <use xlink:href="#DejaVuSans-69" x="1143.470703"/>
      <use xlink:href="#DejaVuSans-6d" x="1171.253906"/>
      <use xlink:href="#DejaVuSans-61" x="1268.666016"/>
      <use xlink:href="#DejaVuSans-74" x="1329.945312"/>
      <use xlink:href="#DejaVuSans-65" x="1369.154297"/>
     </g>
    </g>
   </g>
   <g id="patch_3">
    <path d="M 72.9 302.778 
L 72.9 40.824 
" style="fill: none; stroke: #000000; stroke-width: 0.8; stroke-linejoin: miter; stroke-linecap: square"/>
   </g>
   <g id="patch_4">
    <path d="M 524.88 302.778 
L 524.88 40.824 
" style="fill: none; stroke: #e6e6e6; stroke-width: 0.8; stroke-linejoin: miter; stroke-linecap: square"/>
   </g>
   <g id="patch_5">
    <path d="M 72.9 302.778 
L 524.88 302.778 
" style="fill: none; stroke: #000000; stroke-width: 0.8; stroke-linejoin: miter; stroke-linecap: square"/>
   </g>
   <g id="patch_6">
    <path d="M 72.9 40.824 
L 524.88 40.824 
" style="fill: none; stroke: #e6e6e6; stroke-width: 0.8; stroke-linejoin: miter; stroke-linecap: square"/>
   </g>
   <g id="line2d_31">
    <path d="M 93.444545 223.171105 
L 93.775452 229.788365 
L 94.437264 222.476749 
L 94.76817 227.817387 
L 95.099076 221.21461 
L 95.429982 225.916021 
L 95.760889 224.886381 
L 96.091795 228.4335 
L 96.422701 229.106644 
L 96.753607 228.028482 
L 97.273602 225.313908 
L 97.604509 222.091291 
L 97.935415 223.624679 
L 98.266321 226.994255 
L 98.644499 226.980218 
L 99.022678 223.990883 
L 99.353584 226.513853 
L 99.731763 228.428817 
L 100.393575 224.519117 
L 100.724481 227.998113 
L 101.055387 224.392585 
L 101.433566 223.923297 
L 101.764472 220.963386 
L 102.095378 220.962506 
L 102.75719 227.458534 
L 103.088096 228.479713 
L 103.419003 225.036616 
L 103.891726 224.31418 
L 104.222632 223.248152 
L 104.884444 228.877516 
L 105.21535 222.735811 
L 105.546257 212.670099 
L 105.924435 225.079362 
L 106.255341 219.208125 
L 106.586247 216.211816 
L 106.917153 222.449754 
L 107.24806 226.38887 
L 107.578966 224.527786 
L 108.618957 226.876474 
L 108.949863 224.521026 
L 109.280769 228.746296 
L 109.611675 223.456412 
L 109.942581 222.738385 
L 110.273487 225.883235 
L 110.651666 225.213647 
L 111.218934 205.369811 
L 111.54984 222.807499 
L 111.880746 224.933318 
L 112.211652 225.25833 
L 112.542558 222.183191 
L 112.873464 222.136202 
L 113.204371 227.852941 
L 113.535277 227.521924 
L 113.866183 224.017447 
L 114.197089 226.635128 
L 114.62254 228.252093 
L 114.953446 224.919742 
L 115.284352 227.01602 
L 115.615258 220.459969 
L 116.135254 224.617761 
L 116.513432 228.910886 
L 116.844338 222.317137 
L 117.222517 223.723802 
L 117.553423 226.242449 
L 117.884329 220.092652 
L 118.215235 222.89268 
L 118.593414 223.981472 
L 118.92432 223.146332 
L 119.255226 225.399525 
L 119.586132 225.353046 
L 119.917038 226.85844 
L 120.247945 222.678993 
L 120.957029 226.047978 
L 121.287935 223.496791 
L 121.618842 226.161369 
L 121.949748 224.491514 
L 122.280654 225.223666 
L 122.61156 225.461742 
L 122.942466 222.827905 
L 123.415189 227.034078 
L 123.746095 219.289419 
L 124.077002 225.993243 
L 124.407908 227.011763 
L 124.738814 223.52408 
L 125.164265 224.143167 
L 125.495171 223.626608 
L 125.826077 214.427739 
L 126.156983 222.974115 
L 126.487889 219.706282 
L 126.818796 222.939997 
L 127.149702 219.527458 
L 127.480608 224.050451 
L 127.858786 226.193316 
L 128.189693 224.387182 
L 128.520599 224.863107 
L 128.851505 224.093986 
L 129.182411 223.932067 
L 129.513317 224.556438 
L 129.844223 223.215677 
L 130.175129 226.12591 
L 130.506036 226.479208 
L 130.836942 226.665825 
L 131.167848 222.13238 
L 131.498754 226.14272 
L 132.01875 224.729195 
L 132.349656 227.277424 
L 132.680562 222.416807 
L 133.011468 220.365679 
L 133.389646 221.657733 
L 133.767825 219.944665 
L 134.098731 227.109333 
L 134.47691 223.199535 
L 134.807816 224.36669 
L 135.138722 218.699535 
L 135.469628 217.71328 
L 135.847807 217.437768 
L 136.178713 218.01359 
L 136.509619 221.169324 
L 136.840525 217.616237 
L 137.171431 222.894761 
L 137.502337 225.25411 
L 137.833244 218.527623 
L 138.16415 223.921086 
L 138.636873 221.782059 
L 138.967779 224.673912 
L 139.298685 223.990153 
L 139.629591 223.641947 
L 139.960497 221.0248 
L 140.338676 222.685637 
L 140.669582 222.436993 
L 141.000488 217.811101 
L 141.331394 224.741514 
L 141.662301 220.5933 
L 141.993207 221.167993 
L 142.371385 226.365744 
L 142.702291 222.962401 
L 143.033198 223.304671 
L 143.69501 220.659383 
L 144.025916 223.024854 
L 144.687728 219.382623 
L 145.065907 223.340673 
L 145.396813 221.832226 
L 145.727719 225.303368 
L 146.058625 222.853241 
L 146.389531 224.615969 
L 146.720438 214.469294 
L 147.051344 224.625878 
L 147.38225 222.093839 
L 147.713156 222.396694 
L 148.044062 221.414851 
L 148.374968 224.766735 
L 148.705875 220.309097 
L 149.22587 221.553329 
L 149.556776 227.670217 
L 149.887682 224.983538 
L 150.218588 225.441947 
L 150.644039 227.616012 
L 151.06949 222.675624 
L 151.400396 220.149643 
L 151.873119 223.820681 
L 152.204025 213.261327 
L 152.534932 224.185477 
L 152.91311 223.293388 
L 153.244016 217.168769 
L 153.574922 220.687636 
L 153.905829 222.460525 
L 154.236735 221.886335 
L 154.567641 227.510146 
L 154.898547 221.798796 
L 155.607632 217.602774 
L 155.938538 222.915907 
L 156.269444 216.483541 
L 156.60035 226.880454 
L 156.931256 221.917543 
L 157.262162 221.199908 
L 157.593069 222.076824 
L 158.302153 221.979034 
L 158.680332 221.319737 
L 159.011238 222.941641 
L 159.814867 218.572361 
L 160.476679 226.476101 
L 160.807586 224.350536 
L 161.138492 223.32075 
L 161.469398 222.746514 
L 161.800304 224.037233 
L 162.13121 219.782092 
L 162.509389 224.563513 
L 162.840295 227.303685 
L 163.171201 227.401929 
L 163.833013 222.110204 
L 164.16392 222.264053 
L 164.825732 225.584893 
L 165.156638 223.059351 
L 165.487544 225.843952 
L 165.81845 226.393 
L 166.149357 224.956341 
L 166.574807 224.418066 
L 166.905714 217.147931 
L 167.567526 226.100364 
L 168.087521 220.157442 
L 168.418427 226.12292 
L 168.796606 225.433814 
L 169.127512 224.283325 
L 169.458418 224.375546 
L 169.789324 226.783208 
L 170.120231 225.970082 
L 170.498409 224.406806 
L 170.829315 226.902401 
L 171.160221 224.499024 
L 171.491127 224.360814 
L 171.822034 223.209203 
L 172.247484 226.627454 
L 172.578391 227.284166 
L 172.909297 224.909103 
L 173.240203 225.282778 
L 173.712926 223.020672 
L 174.043832 225.750551 
L 174.374738 225.707438 
L 174.705644 226.785213 
L 175.083823 226.328915 
L 175.414729 223.491497 
L 175.745635 226.723345 
L 176.076541 225.243331 
L 176.407448 225.540779 
L 176.832898 223.475521 
L 177.494711 227.069707 
L 177.825617 226.87669 
L 178.156523 226.974988 
L 178.487429 222.202039 
L 178.818335 223.41807 
L 179.149242 227.151181 
L 179.480148 220.759911 
L 179.858326 228.813255 
L 180.189232 223.942517 
L 180.520138 223.163149 
L 180.851045 222.880093 
L 181.512857 226.70804 
L 181.843763 220.157091 
L 182.174669 223.419215 
L 182.505575 222.526101 
L 182.836482 227.203411 
L 183.167388 221.729536 
L 183.687383 226.212597 
L 184.018289 222.752148 
L 184.680102 220.535523 
L 185.05828 223.123155 
L 185.436459 218.912607 
L 185.767365 219.509637 
L 186.145543 215.899373 
L 186.476449 225.618179 
L 186.807356 223.447744 
L 187.138262 210.983787 
L 187.469168 217.988702 
L 187.941891 221.327745 
L 188.272797 220.278426 
L 188.603703 220.782175 
L 188.934609 227.223105 
L 189.265516 222.230685 
L 189.596422 220.415399 
L 189.927328 221.194478 
L 190.305506 219.138143 
L 190.636413 213.502341 
L 190.967319 219.755656 
L 191.298225 219.049564 
L 191.629131 211.137497 
L 191.960037 213.076493 
L 192.338216 207.477764 
L 192.669122 216.399088 
L 193.000028 204.242657 
L 193.330934 218.631517 
L 193.66184 226.171383 
L 194.087291 216.413535 
L 194.418197 217.71507 
L 194.749103 213.407544 
L 195.08001 222.181111 
L 195.410916 221.539342 
L 195.741822 220.282281 
L 196.072728 221.44181 
L 196.403634 221.481904 
L 196.73454 221.648659 
L 197.065447 216.011747 
L 197.396353 219.155335 
L 197.727259 220.266111 
L 198.058165 223.049454 
L 198.389071 213.271604 
L 198.719977 220.720235 
L 199.050884 221.002299 
L 199.38179 218.787528 
L 199.712696 223.448985 
L 200.043602 216.400852 
L 200.374508 228.044288 
L 201.22541 223.017636 
L 201.556316 222.637075 
L 201.887222 221.517597 
L 202.265401 226.669133 
L 202.643579 223.409382 
L 202.974485 217.745872 
L 203.68357 222.845791 
L 204.014476 221.339009 
L 204.345382 225.642051 
L 204.676288 226.662046 
L 205.149011 215.261485 
L 205.479918 221.221463 
L 205.810824 224.522904 
L 206.14173 223.879594 
L 206.472636 224.012501 
L 206.803542 226.00432 
L 207.843533 223.987939 
L 208.174439 223.968346 
L 208.505345 224.259968 
L 208.836252 220.449982 
L 209.545336 224.222196 
L 209.876242 223.954454 
L 210.207148 219.444183 
L 210.538055 225.964026 
L 211.247139 223.45416 
L 211.578045 225.664138 
L 211.908952 225.705597 
L 212.239858 220.895803 
L 212.570764 226.554328 
L 213.232576 217.224458 
L 213.563482 225.811089 
L 213.894389 224.794206 
L 214.272567 224.062181 
L 214.603473 225.528716 
L 215.265286 224.818114 
L 215.596192 219.466674 
L 216.258004 226.101829 
L 216.58891 221.223663 
L 217.250723 224.421369 
L 217.581629 212.252013 
L 218.054352 217.24777 
L 218.385258 221.977898 
L 218.716164 221.099635 
L 219.04707 222.899068 
L 219.377976 224.041148 
L 219.803427 220.634937 
L 220.134333 221.768893 
L 220.46524 219.249557 
L 220.843418 220.020925 
L 221.174324 223.277847 
L 221.50523 218.080007 
L 221.836136 221.521325 
L 222.214315 220.573849 
L 222.545221 224.228315 
L 222.876127 217.218202 
L 223.207033 225.876078 
L 223.679757 208.541203 
L 224.010663 216.743044 
L 224.341569 212.836875 
L 224.672475 220.60532 
L 225.003381 216.398068 
L 225.334287 219.28089 
L 225.665193 216.524681 
L 225.9961 224.556687 
L 226.327006 217.769127 
L 226.705184 218.341914 
L 227.03609 218.296253 
L 227.366997 213.954921 
L 227.697903 221.570615 
L 228.028809 220.937263 
L 228.359715 215.292369 
L 228.737894 224.30869 
L 229.0688 219.005595 
L 229.399706 218.175177 
L 229.730612 223.471709 
L 230.061518 219.968421 
L 230.392424 211.976496 
L 230.723331 214.177101 
L 231.054237 218.66236 
L 231.432415 220.064196 
L 231.763321 217.671045 
L 232.094228 202.071748 
L 232.425134 204.041823 
L 232.75604 211.036112 
L 233.086946 209.079922 
L 233.417852 216.214724 
L 233.748758 216.71944 
L 234.079664 215.758896 
L 234.410571 207.672217 
L 234.741477 217.276914 
L 235.072383 210.575384 
L 235.450561 208.164941 
L 235.781468 212.382872 
L 236.112374 214.983081 
L 236.44328 211.959577 
L 236.916003 219.449159 
L 237.294181 217.600555 
L 237.625088 211.950775 
L 238.003266 212.912226 
L 238.334172 212.561193 
L 238.665078 213.42901 
L 238.995985 212.762088 
L 239.374163 219.883445 
L 239.705069 213.434623 
L 240.035975 215.750869 
L 240.366882 212.352488 
L 240.697788 197.928131 
L 241.028694 217.24645 
L 241.3596 220.35286 
L 241.690506 218.231373 
L 242.068685 220.763191 
L 242.730497 223.281605 
L 243.061403 225.479575 
L 243.392309 226.646143 
L 243.723215 222.659107 
L 244.195939 223.061774 
L 244.526845 217.463369 
L 245.519563 227.013986 
L 245.897742 220.658713 
L 246.228648 220.222121 
L 246.559554 222.878109 
L 246.89046 223.900768 
L 247.221366 220.743737 
L 247.552273 226.40652 
L 247.883179 223.612688 
L 248.214085 222.850741 
L 248.544991 225.300811 
L 248.923169 220.914602 
L 249.254076 224.508616 
L 249.584982 225.01118 
L 249.915888 221.339764 
L 250.246794 221.453248 
L 250.5777 224.366957 
L 250.908606 224.122846 
L 251.239513 227.243723 
L 251.570419 219.591166 
L 251.901325 227.318923 
L 252.232231 222.186646 
L 252.563137 223.78318 
L 252.941316 222.580479 
L 253.272222 216.582689 
L 253.934034 222.196895 
L 254.45403 221.344427 
L 254.784936 224.427792 
L 255.163114 220.497218 
L 255.49402 220.805987 
L 255.824927 220.521955 
L 256.155833 211.788914 
L 256.864917 226.524916 
L 257.195824 225.283155 
L 257.52673 225.503776 
L 258.188542 222.646733 
L 258.519448 225.652479 
L 258.897627 225.501566 
L 259.228533 225.752579 
L 259.559439 221.680886 
L 259.890345 226.247238 
L 260.221251 221.362815 
L 260.552157 219.274373 
L 260.883064 224.333441 
L 261.21397 222.07137 
L 261.592148 223.968369 
L 261.923054 220.712586 
L 262.253961 223.883526 
L 262.584867 222.72285 
L 262.915773 218.177976 
L 263.388496 223.146681 
L 263.719402 221.926071 
L 264.050308 225.76487 
L 264.381214 220.299738 
L 264.712121 227.594804 
L 265.043027 224.70119 
L 265.373933 227.683321 
L 265.704839 227.553978 
L 266.083018 226.58322 
L 266.413924 222.353972 
L 266.74483 227.269734 
L 267.075736 226.030666 
L 267.406642 224.279543 
L 267.737548 224.118019 
L 268.068455 217.410202 
L 268.399361 223.05004 
L 268.730267 221.491098 
L 269.061173 216.615574 
L 269.392079 219.324535 
L 269.722985 224.724745 
L 270.101164 223.958357 
L 270.43207 220.938343 
L 271.093882 224.999732 
L 271.472061 223.292628 
L 271.802967 217.682249 
L 272.133873 227.591761 
L 272.512052 221.458745 
L 272.842958 221.533682 
L 273.173864 223.218092 
L 273.835676 228.288675 
L 274.308399 225.713745 
L 274.639306 221.484054 
L 274.970212 224.616009 
L 275.301118 219.982002 
L 275.632024 226.245691 
L 275.96293 224.806303 
L 276.293836 224.734477 
L 276.624743 223.710243 
L 277.002921 228.079107 
L 277.333827 222.116086 
L 277.664733 218.174283 
L 277.995639 225.879357 
L 278.326546 226.094207 
L 278.704724 226.983316 
L 279.03563 226.271347 
L 279.366536 224.995104 
L 279.697443 229.118935 
L 280.028349 221.223145 
L 280.406527 219.905319 
L 280.737433 226.726324 
L 281.06834 226.348916 
L 281.399246 226.840004 
L 281.730152 222.776246 
L 282.061058 212.658728 
L 282.391964 223.703063 
L 282.72287 204.629405 
L 283.053777 220.926266 
L 283.431955 212.396356 
L 283.762861 214.394068 
L 284.093767 206.084281 
L 285.086486 220.313521 
L 285.417392 219.704231 
L 285.748298 222.092089 
L 286.079204 219.373054 
L 286.41011 218.074475 
L 286.741017 219.350284 
L 287.21374 216.491154 
L 287.544646 221.582124 
L 287.875552 218.329157 
L 288.206458 212.325867 
L 288.584637 224.330442 
L 288.962815 215.482288 
L 289.293721 224.324882 
L 290.002806 221.493539 
L 290.333712 228.536021 
L 290.664618 221.598824 
L 290.995524 225.962052 
L 291.373703 222.895094 
L 291.704609 213.338101 
L 292.035515 221.067244 
L 292.366421 218.459502 
L 292.697328 222.78431 
L 293.028234 220.89379 
L 293.500957 215.385069 
L 294.162769 227.122541 
L 294.493675 226.405898 
L 295.155488 223.638722 
L 295.486394 218.738725 
L 295.864572 221.353811 
L 296.195478 217.170011 
L 296.526385 217.277794 
L 296.857291 228.015099 
L 297.188197 217.106536 
L 297.519103 214.602605 
L 297.897282 223.033918 
L 298.228188 221.749458 
L 298.559094 223.001975 
L 298.89 227.062299 
L 299.220906 223.98758 
L 299.551812 226.673411 
L 299.882718 225.922102 
L 300.213625 222.693054 
L 300.591803 223.431456 
L 300.922709 220.348998 
L 301.253615 229.886659 
L 301.584522 222.812191 
L 301.915428 225.736557 
L 302.246334 226.695304 
L 302.57724 224.560201 
L 302.908146 224.26381 
L 303.428142 221.128613 
L 303.759048 224.078103 
L 304.089954 224.234532 
L 304.468132 224.220896 
L 304.799039 222.043656 
L 305.129945 227.630972 
L 305.460851 223.072982 
L 305.839029 224.225422 
L 306.217208 223.674041 
L 306.548114 221.188276 
L 306.87902 224.508734 
L 307.257199 226.201058 
L 307.588105 223.360175 
L 307.919011 227.621663 
L 308.249917 225.269758 
L 308.72264 223.186604 
L 309.053546 220.583776 
L 309.384453 229.950255 
L 309.715359 226.818535 
L 310.046265 227.327163 
L 310.424443 223.376206 
L 310.75535 221.403278 
L 311.086256 193.428055 
L 311.417162 222.144781 
L 312.078974 220.093851 
L 312.40988 219.222079 
L 312.740787 219.793047 
L 313.118965 221.729062 
L 313.780777 218.679416 
L 314.111683 223.557486 
L 314.44259 207.105912 
L 314.773496 217.266652 
L 315.151674 212.503842 
L 315.48258 225.070183 
L 315.813487 217.265342 
L 316.144393 226.292539 
L 316.475299 220.38841 
L 316.806205 220.611993 
L 317.137111 226.668505 
L 317.468017 221.091222 
L 317.846196 219.851922 
L 318.177102 221.5291 
L 318.508008 208.785934 
L 318.838914 221.322013 
L 319.169821 213.889973 
L 319.500727 220.161704 
L 319.831633 218.668049 
L 320.162539 222.059663 
L 320.493445 223.687835 
L 320.824351 222.684819 
L 321.486164 224.948716 
L 321.958887 220.758382 
L 322.289793 220.55336 
L 322.620699 216.076113 
L 322.951605 217.123841 
L 323.329784 224.728859 
L 323.707962 221.797487 
L 324.038868 224.093041 
L 324.417047 222.088088 
L 324.747953 222.576948 
L 325.078859 223.45462 
L 325.409765 227.567673 
L 325.787944 224.794935 
L 326.11885 223.306202 
L 326.449756 219.873124 
L 326.780662 225.191679 
L 327.111568 225.138274 
L 327.442475 224.400514 
L 327.773381 222.740015 
L 328.104287 224.985047 
L 328.57701 222.045309 
L 328.907916 226.16976 
L 329.238822 223.066109 
L 329.900635 225.366881 
L 330.278813 222.595132 
L 330.609719 227.69009 
L 330.940625 227.688543 
L 331.271532 226.617452 
L 331.602438 219.493419 
L 331.933344 227.930208 
L 332.311522 226.18531 
L 332.642429 220.164514 
L 332.973335 224.141845 
L 333.304241 224.527849 
L 333.635147 221.266658 
L 333.966053 228.82659 
L 334.296959 227.908727 
L 334.627866 223.943092 
L 335.006044 223.220269 
L 335.33695 227.263824 
L 335.998762 226.627576 
L 336.329669 226.882761 
L 336.660575 219.341471 
L 336.991481 226.18897 
L 337.653293 222.770716 
L 337.984199 222.037002 
L 338.315106 220.600926 
L 338.646012 222.060968 
L 339.02419 223.177772 
L 339.355096 213.557136 
L 340.016909 225.089683 
L 340.489632 220.254267 
L 340.86781 220.434029 
L 341.198716 224.089336 
L 341.576895 222.225154 
L 341.907801 223.763679 
L 342.238707 217.190451 
L 342.569613 222.019411 
L 342.947792 223.228974 
L 343.278698 226.740346 
L 343.609604 228.304994 
L 343.94051 221.038103 
L 344.602323 226.995555 
L 344.933229 220.200686 
L 345.311407 222.015532 
L 345.642314 225.952203 
L 346.304126 216.405252 
L 346.635032 224.942319 
L 346.965938 222.456994 
L 347.296844 224.060006 
L 347.769567 225.147115 
L 348.100474 225.070725 
L 348.43138 226.354183 
L 348.762286 219.840086 
L 349.093192 227.093879 
L 349.471371 222.953244 
L 349.802277 226.243205 
L 350.133183 223.87617 
L 350.464089 223.785834 
L 350.794995 226.807806 
L 351.125901 226.505872 
L 351.456808 223.983413 
L 351.787714 219.514329 
L 352.11862 223.749128 
L 352.496798 225.479788 
L 353.489517 220.12964 
L 353.820423 223.472158 
L 354.151329 225.120126 
L 354.482235 224.715762 
L 354.813141 226.81613 
L 355.144048 222.797916 
L 355.474954 225.23168 
L 355.80586 225.217755 
L 356.136766 224.546648 
L 356.845851 221.433697 
L 357.176757 218.324397 
L 357.507663 222.184727 
L 358.027658 221.132621 
L 358.358565 222.678605 
L 358.736743 221.286321 
L 359.067649 222.46446 
L 359.398555 225.96028 
L 360.10764 209.931759 
L 360.438546 220.249217 
L 361.100359 223.677961 
L 361.431265 222.204613 
L 361.762171 215.748679 
L 362.140349 224.252064 
L 362.471255 223.200661 
L 362.802162 220.982503 
L 363.133068 224.464601 
L 363.463974 221.386128 
L 363.79488 220.992627 
L 364.125786 218.930102 
L 364.456692 224.545616 
L 364.787599 224.801402 
L 365.165777 220.646176 
L 365.496683 226.499073 
L 365.827589 226.417702 
L 366.158496 211.322121 
L 366.489402 224.090978 
L 366.962125 224.285571 
L 367.293031 223.67306 
L 367.623937 224.710936 
L 367.954843 226.835142 
L 368.285749 222.643501 
L 368.616656 227.214305 
L 368.947562 224.805542 
L 369.278468 225.707641 
L 369.656646 221.489272 
L 369.987553 228.85466 
L 370.649365 223.481982 
L 370.980271 219.400363 
L 371.35845 225.801039 
L 371.689356 228.108083 
L 372.351168 224.4871 
L 372.682074 223.941863 
L 373.060253 218.171812 
L 373.438431 223.998968 
L 373.769337 222.586176 
L 374.100243 225.822299 
L 374.43115 218.554071 
L 374.762056 226.587136 
L 375.282051 224.324654 
L 375.612957 224.090606 
L 375.991136 224.801077 
L 376.322042 223.92013 
L 376.652948 224.458508 
L 376.983854 227.462811 
L 377.31476 226.326988 
L 377.692939 224.249302 
L 378.023845 224.835791 
L 378.354751 228.476304 
L 378.685657 222.409393 
L 379.016564 227.015222 
L 379.678376 226.594863 
L 380.009282 224.900439 
L 380.387461 226.603258 
L 380.718367 226.385342 
L 381.049273 224.861246 
L 381.380179 226.163101 
L 381.711085 223.65106 
L 382.041991 225.837297 
L 382.514714 225.686972 
L 382.845621 223.690397 
L 383.176527 223.508699 
L 383.507433 225.87405 
L 383.838339 224.027284 
L 384.547424 227.444857 
L 384.87833 227.501703 
L 385.209236 226.578387 
L 385.540142 228.066959 
L 385.871048 223.626524 
L 386.201955 226.862147 
L 386.911039 225.073011 
L 387.241945 224.77661 
L 387.572852 225.865177 
L 387.903758 221.900136 
L 388.234664 227.575714 
L 388.56557 226.120356 
L 388.896476 224.13491 
L 389.227382 226.732554 
L 389.889195 224.812572 
L 390.220101 225.486177 
L 390.551007 221.096912 
L 390.929185 225.579365 
L 391.260092 225.212244 
L 391.590998 226.325301 
L 391.921904 228.030335 
L 392.300082 228.416126 
L 392.772806 228.435433 
L 393.150984 226.156163 
L 393.48189 226.105318 
L 393.860069 221.809053 
L 394.190975 225.70244 
L 394.521881 223.45169 
L 394.900059 223.857032 
L 395.230966 225.668283 
L 395.561872 222.89287 
L 395.892778 227.209193 
L 396.223684 226.146696 
L 396.55459 220.936381 
L 396.932769 222.821092 
L 397.263675 223.171029 
L 397.594581 227.047498 
L 397.925487 224.633966 
L 398.256393 225.817101 
L 398.5873 227.643413 
L 398.918206 222.825938 
L 399.249112 226.301214 
L 399.721835 228.500391 
L 400.052741 229.232867 
L 400.383647 221.470455 
L 400.714553 229.201968 
L 401.04546 226.785954 
L 401.423638 226.226404 
L 401.754544 226.462664 
L 402.08545 227.273892 
L 402.416357 227.072025 
L 402.747263 227.296208 
L 403.078169 224.208253 
L 403.739981 223.421573 
L 404.11816 227.248198 
L 404.779972 226.886929 
L 405.110878 226.393883 
L 405.441784 223.009177 
L 405.77269 224.676481 
L 406.103597 219.693487 
L 406.434503 225.808474 
L 406.765409 226.603351 
L 407.096315 222.47656 
L 407.427221 224.508627 
L 407.758127 227.31215 
L 408.136306 225.625227 
L 408.514484 225.450797 
L 408.845391 228.561636 
L 409.176297 224.997845 
L 409.64902 226.639009 
L 410.027198 225.71691 
L 410.358104 227.78088 
L 410.736283 227.007199 
L 411.067189 225.350881 
L 411.398095 226.955802 
L 411.729001 227.907625 
L 412.10718 221.271032 
L 412.438086 227.443558 
L 412.768992 225.555913 
L 413.099898 222.845739 
L 413.430805 227.175456 
L 413.761711 223.150922 
L 414.092617 228.651956 
L 414.423523 223.276432 
L 414.754429 226.449532 
L 415.132608 227.210691 
L 415.463514 225.201816 
L 415.79442 228.513287 
L 416.125326 223.841807 
L 416.456232 226.809084 
L 416.928955 224.119021 
L 417.259862 224.470953 
L 417.590768 228.353773 
L 417.921674 218.724686 
L 418.25258 224.439955 
L 418.630758 221.651235 
L 418.961665 226.395575 
L 419.292571 226.739762 
L 419.623477 226.552338 
L 419.954383 223.026714 
L 420.285289 221.047494 
L 420.616195 225.046162 
L 420.947102 222.658022 
L 421.32528 222.532609 
L 421.656186 222.796315 
L 421.987092 226.643179 
L 422.317999 221.058983 
L 422.648905 218.893069 
L 422.979811 226.843016 
L 423.310717 223.866495 
L 423.641623 227.327504 
L 423.972529 226.5132 
L 424.303436 221.268456 
L 424.634342 223.457415 
L 424.965248 227.555471 
L 425.296154 227.493344 
L 425.674333 225.510069 
L 426.005239 225.270209 
L 426.336145 227.911881 
L 426.714323 226.476614 
L 427.187046 225.266281 
L 428.227037 226.967859 
L 428.557943 222.904906 
L 428.88885 226.902299 
L 429.267028 227.665868 
L 429.597934 219.211718 
L 429.92884 206.570865 
L 430.259746 221.966548 
L 430.590653 207.874346 
L 430.921559 203.090736 
L 431.252465 219.522198 
L 431.583371 217.336201 
L 431.96155 212.923233 
L 432.292456 215.097737 
L 432.623362 227.390826 
L 432.954268 220.40596 
L 433.285174 222.834904 
L 433.61608 220.816206 
L 433.994259 221.031929 
L 434.325165 218.783236 
L 434.656071 224.924578 
L 434.986977 224.894099 
L 435.317884 226.067858 
L 435.790607 224.033382 
L 436.121513 224.560153 
L 436.452419 226.575229 
L 436.783325 226.500621 
L 437.114231 225.520475 
L 437.776044 208.740851 
L 438.10695 221.648312 
L 438.437856 219.079952 
L 438.816034 223.793089 
L 439.146941 225.277028 
L 439.477847 220.041615 
L 439.808753 220.033671 
L 440.139659 224.404657 
L 440.470565 220.062393 
L 440.801471 228.11581 
L 441.463284 221.40507 
L 441.79419 206.801085 
L 442.125096 225.559525 
L 442.456002 222.191647 
L 442.834181 220.122099 
L 443.165087 220.334192 
L 443.495993 224.93262 
L 443.826899 223.130141 
L 444.205078 228.29728 
L 444.583256 208.931686 
L 444.914162 224.116513 
L 445.386885 224.475786 
L 445.717791 226.328202 
L 446.048698 217.255844 
L 446.426876 224.826221 
L 446.757782 221.346822 
L 447.088688 220.658604 
L 447.419595 218.808221 
L 447.750501 228.338662 
L 448.081407 226.419582 
L 448.412313 222.843961 
L 448.790492 224.515076 
L 449.121398 223.340658 
L 449.452304 223.855285 
L 449.78321 228.26349 
L 450.114116 223.707023 
L 450.445022 222.918222 
L 451.106835 227.458868 
L 451.485013 222.989557 
L 451.815919 226.704245 
L 452.146826 214.718125 
L 452.477732 226.311122 
L 452.808638 226.036661 
L 453.186816 228.169849 
L 453.517722 225.714659 
L 453.848629 228.42785 
L 454.179535 222.381319 
L 454.510441 221.42899 
L 454.841347 218.988636 
L 455.172253 227.737082 
L 455.503159 222.850978 
L 455.834066 225.198545 
L 456.306789 223.235137 
L 456.637695 221.011604 
L 456.968601 223.186294 
L 457.299507 221.253246 
L 457.630413 229.245619 
L 457.961319 220.016859 
L 458.292226 227.178229 
L 458.623132 224.597412 
L 458.954038 220.38867 
L 459.284944 226.837611 
L 459.61585 220.888338 
L 459.994029 226.090633 
L 460.324935 223.345854 
L 460.655841 226.060788 
L 460.986747 222.190137 
L 461.364926 226.873291 
L 461.695832 222.420438 
L 462.026738 220.911998 
L 462.404917 223.583776 
L 462.735823 221.347661 
L 463.066729 226.603471 
L 463.397635 228.275751 
L 463.728541 222.799295 
L 464.437626 220.321016 
L 464.768532 214.640067 
L 465.430344 224.365773 
L 465.76125 220.386696 
L 466.092157 226.523851 
L 466.56488 224.811796 
L 466.895786 224.480403 
L 467.226692 219.19016 
L 467.557598 224.662324 
L 467.888504 222.841081 
L 468.219411 225.713654 
L 468.928495 223.317817 
L 469.259401 219.606669 
L 469.63758 223.746156 
L 469.968486 228.978699 
L 470.346664 222.985661 
L 470.677571 223.299934 
L 471.008477 226.243957 
L 471.339383 223.243493 
L 471.670289 223.244498 
L 472.001195 225.301375 
L 472.332101 225.993082 
L 472.663008 225.287854 
L 472.993914 226.672601 
L 473.372092 225.05816 
L 473.702998 221.721106 
L 474.033905 224.312185 
L 474.364811 220.677154 
L 474.695717 220.807957 
L 475.357529 222.114165 
L 475.688435 224.622319 
L 476.019342 218.836531 
L 476.350248 221.68376 
L 476.681154 226.901792 
L 477.153877 225.47211 
L 477.484783 216.479145 
L 477.815689 224.774281 
L 478.146595 219.863788 
L 478.524774 220.678392 
L 478.902952 225.72798 
L 479.233859 223.004557 
L 479.612037 223.935831 
L 479.942943 227.160032 
L 480.273849 227.688253 
L 480.604755 219.699449 
L 480.935662 225.746874 
L 481.31384 228.080775 
L 481.644746 227.358111 
L 481.975652 219.585044 
L 482.637465 217.219268 
L 482.968371 222.243459 
L 483.772 219.930287 
L 484.102906 223.05243 
L 484.433812 228.016049 
L 484.764719 221.166076 
L 485.095625 226.615397 
L 485.426531 222.201304 
L 485.804709 225.332621 
L 486.135616 224.113572 
L 486.466522 223.850966 
L 486.8447 225.313357 
L 487.175606 225.81834 
L 487.553785 227.014872 
L 488.215597 224.893077 
L 488.546503 225.753352 
L 488.87741 223.287167 
L 489.208316 227.550307 
L 489.539222 228.648837 
L 489.870128 226.701451 
L 490.201034 225.99785 
L 490.579213 227.720618 
L 490.910119 226.52203 
L 491.241025 223.953227 
L 491.571931 227.104814 
L 491.902837 225.474579 
L 492.233743 220.662944 
L 492.895556 228.194485 
L 493.226462 226.982111 
L 493.557368 223.899333 
L 493.888274 225.781668 
L 494.21918 225.634816 
L 494.550087 223.821227 
L 494.880993 220.955962 
L 495.211899 220.015328 
L 495.542805 227.22082 
L 496.0628 225.145413 
L 496.393707 224.448744 
L 496.771885 221.615269 
L 497.102791 226.250016 
L 497.433697 227.937784 
L 497.764604 226.257193 
L 498.09551 226.682559 
L 498.473688 226.773865 
L 499.135501 225.221431 
L 499.466407 223.78135 
L 499.797313 225.968463 
L 500.128219 223.168123 
L 500.837304 225.555082 
L 501.16821 224.877132 
L 501.499116 220.168657 
L 501.830022 221.208985 
L 502.160928 224.503215 
L 502.491834 220.811498 
L 502.822741 220.690164 
L 503.295464 223.449056 
L 503.62637 217.737303 
L 503.957276 220.307752 
L 504.335455 221.619604 
L 504.335455 221.619604 
" clip-path="url(#p4c4d53037d)" style="fill: none; stroke: #808080; stroke-width: 1.5; stroke-linecap: square"/>
   </g>
   <g id="line2d_32">
    <path d="M 110.651666 90.382544 
L 119.586132 92.364348 
L 128.189693 76.308272 
L 136.840525 125.512234 
L 145.396813 160.256403 
L 154.236735 149.406408 
L 162.840295 155.708042 
L 171.491127 122.378898 
L 180.189232 89.320366 
L 188.934609 90.893225 
L 197.396353 114.738549 
L 206.14173 66.748858 
L 214.603473 141.64995 
L 223.207033 131.384396 
L 231.763321 120.658529 
L 240.366882 107.240793 
L 248.923169 90.500535 
L 257.52673 52.731 
L 266.083018 81.513207 
L 274.639306 111.410584 
L 283.053777 131.781884 
L 291.704609 108.361396 
L 300.213625 96.36336 
L 309.053546 90.299053 
L 317.468017 62.221339 
L 326.11885 85.055025 
L 334.627866 117.242555 
L 343.278698 112.188466 
L 351.787714 132.275289 
L 360.438546 128.612973 
L 368.947562 125.092143 
L 377.692939 118.659169 
L 386.201955 132.248437 
L 394.900059 128.130811 
L 403.409075 148.707574 
L 412.10718 163.749042 
L 420.616195 104.501342 
L 429.267028 110.985394 
L 437.776044 118.654446 
L 446.426876 133.000039 
L 454.841347 143.670751 
L 463.397635 152.556197 
L 472.001195 136.319343 
L 480.604755 118.943259 
" clip-path="url(#p4c4d53037d)" style="fill: none; stroke-dasharray: 1.5,2.475; stroke-dashoffset: 0; stroke: #ff0000; stroke-width: 1.5"/>
   </g>
   <g id="line2d_33">
    <path d="M 110.651666 205.207362 
L 119.586132 199.323896 
L 128.189693 241.448614 
L 136.840525 275.932499 
L 145.396813 257.440317 
L 154.236735 240.526038 
L 162.840295 246.557392 
L 171.491127 204.839791 
L 180.189232 207.534133 
L 188.934609 207.772223 
L 197.396353 198.421003 
L 206.14173 204.829405 
L 214.603473 216.628812 
L 223.207033 189.470741 
L 231.763321 185.505912 
L 240.366882 173.827438 
L 248.923169 182.770772 
L 257.52673 183.163145 
L 266.083018 234.483405 
L 274.639306 290.871 
L 283.053777 248.759921 
L 291.704609 266.782533 
L 300.213625 248.049355 
L 309.053546 244.929074 
L 317.468017 250.338538 
L 326.11885 235.853108 
L 334.627866 203.968795 
L 343.278698 190.805722 
L 351.787714 189.826129 
L 360.438546 208.61997 
L 368.947562 204.169742 
L 377.692939 222.681599 
L 386.201955 220.310735 
L 394.900059 208.725019 
L 403.409075 249.209317 
L 412.10718 244.590155 
L 420.616195 212.643244 
L 429.267028 195.105472 
L 437.776044 186.54573 
L 446.426876 246.249949 
L 454.841347 275.221191 
L 463.397635 269.524159 
L 472.001195 270.663465 
L 480.604755 167.676461 
" clip-path="url(#p4c4d53037d)" style="fill: none; stroke-dasharray: 9.6,2.4,1.5,2.4; stroke-dashoffset: 0; stroke: #ff0000; stroke-width: 1.5"/>
   </g>
   <g id="line2d_34">
    <path d="M 110.651666 241.988343 
L 119.586132 226.644106 
L 128.189693 226.332489 
L 136.840525 239.302145 
L 145.396813 223.774954 
L 154.236735 244.987901 
L 162.840295 244.016552 
L 171.491127 272.069944 
L 180.189232 237.604937 
L 188.934609 221.644157 
L 197.396353 214.542269 
L 206.14173 216.908309 
L 214.603473 251.929831 
L 223.207033 232.763685 
L 231.763321 211.835003 
L 240.366882 222.212631 
L 248.923169 218.305997 
L 257.52673 213.404092 
L 266.083018 230.310778 
L 274.639306 207.16458 
L 283.053777 215.573574 
L 291.704609 198.589658 
L 300.213625 232.936644 
L 309.053546 217.927291 
L 317.468017 230.127565 
L 326.11885 239.611736 
L 334.627866 237.884272 
L 343.278698 231.495943 
L 351.787714 242.707812 
L 360.438546 246.413291 
L 368.947562 233.850091 
L 377.692939 248.936212 
L 386.201955 250.610244 
L 394.900059 235.889155 
L 403.409075 254.937943 
L 412.10718 245.30898 
L 420.616195 203.084527 
L 429.267028 213.080335 
L 437.776044 204.820274 
L 446.426876 238.349239 
L 454.841347 252.042056 
L 463.397635 247.647122 
L 472.001195 228.087313 
L 480.604755 228.732872 
" clip-path="url(#p4c4d53037d)" style="fill: none; stroke-dasharray: 5.55,2.4; stroke-dashoffset: 0; stroke: #ff0000; stroke-width: 1.5"/>
   </g>
   <g id="line2d_35">
    <path d="M 110.651666 217.221318 
L 119.586132 220.324995 
L 128.189693 222.952572 
L 136.840525 223.581574 
L 145.396813 223.73249 
L 154.236735 222.921522 
L 162.840295 224.45448 
L 171.491127 221.588153 
L 180.189232 210.691598 
L 188.934609 209.965781 
L 197.396353 214.986691 
L 206.14173 180.175523 
L 214.603473 221.725879 
L 223.207033 219.358384 
L 231.763321 198.822391 
L 240.366882 196.417643 
L 248.923169 204.122873 
L 257.52673 188.555808 
L 266.083018 170.490733 
L 274.639306 208.049613 
L 283.053777 209.035026 
L 291.704609 209.20323 
L 300.213625 218.601067 
L 309.053546 203.689742 
L 317.468017 220.098215 
L 326.11885 223.369537 
L 334.627866 221.512478 
L 343.278698 182.846566 
L 351.787714 220.999039 
L 360.438546 224.713336 
L 368.947562 224.853271 
L 377.692939 226.20487 
L 386.201955 224.240388 
L 394.900059 219.692786 
L 403.409075 215.712246 
L 412.10718 223.922489 
L 420.616195 198.631178 
L 429.267028 216.990734 
L 437.776044 212.802583 
L 446.426876 219.730924 
L 454.841347 210.659587 
L 463.397635 224.275307 
L 472.001195 221.873624 
L 480.604755 216.563529 
" clip-path="url(#p4c4d53037d)" style="fill: none; stroke: #ff0000; stroke-width: 1.5; stroke-linecap: square"/>
   </g>
   <g id="line2d_36">
    <path d="M 110.651666 215.647988 
L 119.586132 219.399657 
L 128.189693 208.260262 
L 136.840525 215.018939 
L 145.396813 220.145212 
L 154.236735 226.140799 
L 162.840295 225.341637 
L 171.491127 215.111907 
L 180.189232 216.75808 
L 188.934609 206.690211 
L 197.396353 208.227623 
L 206.14173 212.37151 
L 214.603473 229.159424 
L 223.207033 214.281796 
L 231.763321 191.662507 
L 240.366882 185.393596 
L 248.923169 196.312607 
L 257.52673 189.765108 
L 266.083018 192.01804 
L 274.639306 196.535643 
L 283.053777 201.086143 
L 291.704609 198.680725 
L 300.213625 213.779678 
L 309.053546 213.958746 
L 317.468017 216.668759 
L 326.11885 220.761847 
L 334.627866 215.747981 
L 343.278698 211.545486 
L 351.787714 217.041504 
L 360.438546 224.457888 
L 368.947562 221.610504 
L 377.692939 229.551141 
L 386.201955 222.734776 
L 394.900059 219.224306 
L 403.409075 222.962765 
L 412.10718 223.601216 
L 420.616195 192.794462 
L 429.267028 198.048769 
L 437.776044 202.866292 
L 446.426876 221.450354 
L 454.841347 227.065514 
L 463.397635 225.949601 
L 472.001195 217.083868 
L 480.604755 210.359041 
" clip-path="url(#p4c4d53037d)" style="fill: none; stroke: #ff7f0e; stroke-width: 1.5; stroke-linecap: square"/>
   </g>
   <g id="line2d_37">
    <path d="M 110.651666 207.037329 
L 119.586132 204.107057 
L 128.189693 213.641672 
L 136.840525 215.446178 
L 145.396813 215.998249 
L 154.236735 217.359837 
L 162.840295 223.198483 
L 171.491127 211.476852 
L 180.189232 200.730658 
L 188.934609 204.166286 
L 197.396353 209.102177 
L 206.14173 199.502158 
L 214.603473 218.038444 
L 223.207033 209.329201 
L 231.763321 191.881424 
L 240.366882 189.587525 
L 248.923169 193.92887 
L 257.52673 191.175616 
L 266.083018 190.487516 
L 274.639306 197.360886 
L 283.053777 198.137195 
L 291.704609 204.096159 
L 300.213625 204.578082 
L 309.053546 202.830074 
L 317.468017 211.777044 
L 326.11885 211.467681 
L 334.627866 213.533508 
L 343.278698 202.328141 
L 351.787714 214.80263 
L 360.438546 217.45355 
L 368.947562 213.284929 
L 377.692939 224.059531 
L 386.201955 224.121821 
L 394.900059 216.025434 
L 403.409075 219.392702 
L 412.10718 220.756481 
L 420.616195 192.418252 
L 429.267028 202.546798 
L 437.776044 204.105354 
L 446.426876 215.485131 
L 454.841347 206.880376 
L 463.397635 222.024253 
L 472.001195 216.550337 
L 480.604755 198.912092 
" clip-path="url(#p4c4d53037d)" style="fill: none; stroke: #1f77b4; stroke-width: 1.5; stroke-linecap: square"/>
   </g>
   <g id="legend_1">
    <g id="patch_7">
     <path d="M 79.9 151.570875 
L 202.140625 151.570875 
Q 204.140625 151.570875 204.140625 149.570875 
L 204.140625 47.824 
Q 204.140625 45.824 202.140625 45.824 
L 79.9 45.824 
Q 77.9 45.824 77.9 47.824 
L 77.9 149.570875 
Q 77.9 151.570875 79.9 151.570875 
z
" style="fill: #ffffff; opacity: 0.8; stroke: #e6e6e6; stroke-linejoin: miter"/>
    </g>
    <g id="line2d_38">
     <path d="M 81.9 53.922438 
L 91.9 53.922438 
L 101.9 53.922438 
" style="fill: none; stroke: #808080; stroke-width: 1.5; stroke-linecap: square"/>
    </g>
    <g id="text_18">
     <!-- Gold Log-Volatility -->
     <g transform="translate(109.9 57.422438)scale(0.1 -0.1)">
      <defs>
       <path id="DejaVuSans-47" d="M 3809 666 
L 3809 1919 
L 2778 1919 
L 2778 2438 
L 4434 2438 
L 4434 434 
Q 4069 175 3628 42 
Q 3188 -91 2688 -91 
Q 1594 -91 976 548 
Q 359 1188 359 2328 
Q 359 3472 976 4111 
Q 1594 4750 2688 4750 
Q 3144 4750 3555 4637 
Q 3966 4525 4313 4306 
L 4313 3634 
Q 3963 3931 3569 4081 
Q 3175 4231 2741 4231 
Q 1884 4231 1454 3753 
Q 1025 3275 1025 2328 
Q 1025 1384 1454 906 
Q 1884 428 2741 428 
Q 3075 428 3337 486 
Q 3600 544 3809 666 
z
" transform="scale(0.015625)"/>
       <path id="DejaVuSans-4c" d="M 628 4666 
L 1259 4666 
L 1259 531 
L 3531 531 
L 3531 0 
L 628 0 
L 628 4666 
z
" transform="scale(0.015625)"/>
       <path id="DejaVuSans-67" d="M 2906 1791 
Q 2906 2416 2648 2759 
Q 2391 3103 1925 3103 
Q 1463 3103 1205 2759 
Q 947 2416 947 1791 
Q 947 1169 1205 825 
Q 1463 481 1925 481 
Q 2391 481 2648 825 
Q 2906 1169 2906 1791 
z
M 3481 434 
Q 3481 -459 3084 -895 
Q 2688 -1331 1869 -1331 
Q 1566 -1331 1297 -1286 
Q 1028 -1241 775 -1147 
L 775 -588 
Q 1028 -725 1275 -790 
Q 1522 -856 1778 -856 
Q 2344 -856 2625 -561 
Q 2906 -266 2906 331 
L 2906 616 
Q 2728 306 2450 153 
Q 2172 0 1784 0 
Q 1141 0 747 490 
Q 353 981 353 1791 
Q 353 2603 747 3093 
Q 1141 3584 1784 3584 
Q 2172 3584 2450 3431 
Q 2728 3278 2906 2969 
L 2906 3500 
L 3481 3500 
L 3481 434 
z
" transform="scale(0.015625)"/>
      </defs>
      <use xlink:href="#DejaVuSans-47"/>
      <use xlink:href="#DejaVuSans-6f" x="77.490234"/>
      <use xlink:href="#DejaVuSans-6c" x="138.671875"/>
      <use xlink:href="#DejaVuSans-64" x="166.455078"/>
      <use xlink:href="#DejaVuSans-20" x="229.931641"/>
      <use xlink:href="#DejaVuSans-4c" x="261.71875"/>
      <use xlink:href="#DejaVuSans-6f" x="315.681641"/>
      <use xlink:href="#DejaVuSans-67" x="376.863281"/>
      <use xlink:href="#DejaVuSans-2d" x="440.339844"/>
      <use xlink:href="#DejaVuSans-56" x="470.548828"/>
      <use xlink:href="#DejaVuSans-6f" x="531.207031"/>
      <use xlink:href="#DejaVuSans-6c" x="592.388672"/>
      <use xlink:href="#DejaVuSans-61" x="620.171875"/>
      <use xlink:href="#DejaVuSans-74" x="681.451172"/>
      <use xlink:href="#DejaVuSans-69" x="720.660156"/>
      <use xlink:href="#DejaVuSans-6c" x="748.443359"/>
      <use xlink:href="#DejaVuSans-69" x="776.226562"/>
      <use xlink:href="#DejaVuSans-74" x="804.009766"/>
      <use xlink:href="#DejaVuSans-79" x="843.21875"/>
     </g>
    </g>
    <g id="line2d_39">
     <path d="M 81.9 68.600563 
L 91.9 68.600563 
L 101.9 68.600563 
" style="fill: none; stroke-dasharray: 1.5,2.475; stroke-dashoffset: 0; stroke: #ff0000; stroke-width: 1.5"/>
    </g>
    <g id="text_19">
     <!-- R/S Hurst -->
     <g transform="translate(109.9 72.100563)scale(0.1 -0.1)">
      <defs>
       <path id="DejaVuSans-52" d="M 2841 2188 
Q 3044 2119 3236 1894 
Q 3428 1669 3622 1275 
L 4263 0 
L 3584 0 
L 2988 1197 
Q 2756 1666 2539 1819 
Q 2322 1972 1947 1972 
L 1259 1972 
L 1259 0 
L 628 0 
L 628 4666 
L 2053 4666 
Q 2853 4666 3247 4331 
Q 3641 3997 3641 3322 
Q 3641 2881 3436 2590 
Q 3231 2300 2841 2188 
z
M 1259 4147 
L 1259 2491 
L 2053 2491 
Q 2509 2491 2742 2702 
Q 2975 2913 2975 3322 
Q 2975 3731 2742 3939 
Q 2509 4147 2053 4147 
L 1259 4147 
z
" transform="scale(0.015625)"/>
       <path id="DejaVuSans-2f" d="M 1625 4666 
L 2156 4666 
L 531 -594 
L 0 -594 
L 1625 4666 
z
" transform="scale(0.015625)"/>
       <path id="DejaVuSans-53" d="M 3425 4513 
L 3425 3897 
Q 3066 4069 2747 4153 
Q 2428 4238 2131 4238 
Q 1616 4238 1336 4038 
Q 1056 3838 1056 3469 
Q 1056 3159 1242 3001 
Q 1428 2844 1947 2747 
L 2328 2669 
Q 3034 2534 3370 2195 
Q 3706 1856 3706 1288 
Q 3706 609 3251 259 
Q 2797 -91 1919 -91 
Q 1588 -91 1214 -16 
Q 841 59 441 206 
L 441 856 
Q 825 641 1194 531 
Q 1563 422 1919 422 
Q 2459 422 2753 634 
Q 3047 847 3047 1241 
Q 3047 1584 2836 1778 
Q 2625 1972 2144 2069 
L 1759 2144 
Q 1053 2284 737 2584 
Q 422 2884 422 3419 
Q 422 4038 858 4394 
Q 1294 4750 2059 4750 
Q 2388 4750 2728 4690 
Q 3069 4631 3425 4513 
z
" transform="scale(0.015625)"/>
      </defs>
      <use xlink:href="#DejaVuSans-52"/>
      <use xlink:href="#DejaVuSans-2f" x="69.482422"/>
      <use xlink:href="#DejaVuSans-53" x="103.173828"/>
      <use xlink:href="#DejaVuSans-20" x="166.650391"/>
      <use xlink:href="#DejaVuSans-48" x="198.4375"/>
      <use xlink:href="#DejaVuSans-75" x="273.632812"/>
      <use xlink:href="#DejaVuSans-72" x="337.011719"/>
      <use xlink:href="#DejaVuSans-73" x="378.125"/>
      <use xlink:href="#DejaVuSans-74" x="430.224609"/>
     </g>
    </g>
    <g id="line2d_40">
     <path d="M 81.9 83.278687 
L 91.9 83.278687 
L 101.9 83.278687 
" style="fill: none; stroke-dasharray: 9.6,2.4,1.5,2.4; stroke-dashoffset: 0; stroke: #ff0000; stroke-width: 1.5"/>
    </g>
    <g id="text_20">
     <!-- variogram Hurst -->
     <g transform="translate(109.9 86.778687)scale(0.1 -0.1)">
      <defs>
       <path id="DejaVuSans-76" d="M 191 3500 
L 800 3500 
L 1894 563 
L 2988 3500 
L 3597 3500 
L 2284 0 
L 1503 0 
L 191 3500 
z
" transform="scale(0.015625)"/>
      </defs>
      <use xlink:href="#DejaVuSans-76"/>
      <use xlink:href="#DejaVuSans-61" x="59.179688"/>
      <use xlink:href="#DejaVuSans-72" x="120.458984"/>
      <use xlink:href="#DejaVuSans-69" x="161.572266"/>
      <use xlink:href="#DejaVuSans-6f" x="189.355469"/>
      <use xlink:href="#DejaVuSans-67" x="250.537109"/>
      <use xlink:href="#DejaVuSans-72" x="314.013672"/>
      <use xlink:href="#DejaVuSans-61" x="355.126953"/>
      <use xlink:href="#DejaVuSans-6d" x="416.40625"/>
      <use xlink:href="#DejaVuSans-20" x="513.818359"/>
      <use xlink:href="#DejaVuSans-48" x="545.605469"/>
      <use xlink:href="#DejaVuSans-75" x="620.800781"/>
      <use xlink:href="#DejaVuSans-72" x="684.179688"/>
      <use xlink:href="#DejaVuSans-73" x="725.292969"/>
      <use xlink:href="#DejaVuSans-74" x="777.392578"/>
     </g>
    </g>
    <g id="line2d_41">
     <path d="M 81.9 97.956813 
L 91.9 97.956813 
L 101.9 97.956813 
" style="fill: none; stroke-dasharray: 5.55,2.4; stroke-dashoffset: 0; stroke: #ff0000; stroke-width: 1.5"/>
    </g>
    <g id="text_21">
     <!-- Higuchi Hurst -->
     <g transform="translate(109.9 101.456813)scale(0.1 -0.1)">
      <defs>
       <path id="DejaVuSans-63" d="M 3122 3366 
L 3122 2828 
Q 2878 2963 2633 3030 
Q 2388 3097 2138 3097 
Q 1578 3097 1268 2742 
Q 959 2388 959 1747 
Q 959 1106 1268 751 
Q 1578 397 2138 397 
Q 2388 397 2633 464 
Q 2878 531 3122 666 
L 3122 134 
Q 2881 22 2623 -34 
Q 2366 -91 2075 -91 
Q 1284 -91 818 406 
Q 353 903 353 1747 
Q 353 2603 823 3093 
Q 1294 3584 2113 3584 
Q 2378 3584 2631 3529 
Q 2884 3475 3122 3366 
z
" transform="scale(0.015625)"/>
       <path id="DejaVuSans-68" d="M 3513 2113 
L 3513 0 
L 2938 0 
L 2938 2094 
Q 2938 2591 2744 2837 
Q 2550 3084 2163 3084 
Q 1697 3084 1428 2787 
Q 1159 2491 1159 1978 
L 1159 0 
L 581 0 
L 581 4863 
L 1159 4863 
L 1159 2956 
Q 1366 3272 1645 3428 
Q 1925 3584 2291 3584 
Q 2894 3584 3203 3211 
Q 3513 2838 3513 2113 
z
" transform="scale(0.015625)"/>
      </defs>
      <use xlink:href="#DejaVuSans-48"/>
      <use xlink:href="#DejaVuSans-69" x="75.195312"/>
      <use xlink:href="#DejaVuSans-67" x="102.978516"/>
      <use xlink:href="#DejaVuSans-75" x="166.455078"/>
      <use xlink:href="#DejaVuSans-63" x="229.833984"/>
      <use xlink:href="#DejaVuSans-68" x="284.814453"/>
      <use xlink:href="#DejaVuSans-69" x="348.193359"/>
      <use xlink:href="#DejaVuSans-20" x="375.976562"/>
      <use xlink:href="#DejaVuSans-48" x="407.763672"/>
      <use xlink:href="#DejaVuSans-75" x="482.958984"/>
      <use xlink:href="#DejaVuSans-72" x="546.337891"/>
      <use xlink:href="#DejaVuSans-73" x="587.451172"/>
      <use xlink:href="#DejaVuSans-74" x="639.550781"/>
     </g>
    </g>
    <g id="line2d_42">
     <path d="M 81.9 112.634938 
L 91.9 112.634938 
L 101.9 112.634938 
" style="fill: none; stroke: #ff0000; stroke-width: 1.5; stroke-linecap: square"/>
    </g>
    <g id="text_22">
     <!-- Whittle Hurst -->
     <g transform="translate(109.9 116.134938)scale(0.1 -0.1)">
      <defs>
       <path id="DejaVuSans-57" d="M 213 4666 
L 850 4666 
L 1831 722 
L 2809 4666 
L 3519 4666 
L 4500 722 
L 5478 4666 
L 6119 4666 
L 4947 0 
L 4153 0 
L 3169 4050 
L 2175 0 
L 1381 0 
L 213 4666 
z
" transform="scale(0.015625)"/>
      </defs>
      <use xlink:href="#DejaVuSans-57"/>
      <use xlink:href="#DejaVuSans-68" x="98.876953"/>
      <use xlink:href="#DejaVuSans-69" x="162.255859"/>
      <use xlink:href="#DejaVuSans-74" x="190.039062"/>
      <use xlink:href="#DejaVuSans-74" x="229.248047"/>
      <use xlink:href="#DejaVuSans-6c" x="268.457031"/>
      <use xlink:href="#DejaVuSans-65" x="296.240234"/>
      <use xlink:href="#DejaVuSans-20" x="357.763672"/>
      <use xlink:href="#DejaVuSans-48" x="389.550781"/>
      <use xlink:href="#DejaVuSans-75" x="464.746094"/>
      <use xlink:href="#DejaVuSans-72" x="528.125"/>
      <use xlink:href="#DejaVuSans-73" x="569.238281"/>
      <use xlink:href="#DejaVuSans-74" x="621.337891"/>
     </g>
    </g>
    <g id="line2d_43">
     <path d="M 81.9 127.313063 
L 91.9 127.313063 
L 101.9 127.313063 
" style="fill: none; stroke: #ff7f0e; stroke-width: 1.5; stroke-linecap: square"/>
    </g>
    <g id="text_23">
     <!-- 1D CNN Hurst -->
     <g transform="translate(109.9 130.813063)scale(0.1 -0.1)">
      <defs>
       <path id="DejaVuSans-43" d="M 4122 4306 
L 4122 3641 
Q 3803 3938 3442 4084 
Q 3081 4231 2675 4231 
Q 1875 4231 1450 3742 
Q 1025 3253 1025 2328 
Q 1025 1406 1450 917 
Q 1875 428 2675 428 
Q 3081 428 3442 575 
Q 3803 722 4122 1019 
L 4122 359 
Q 3791 134 3420 21 
Q 3050 -91 2638 -91 
Q 1578 -91 968 557 
Q 359 1206 359 2328 
Q 359 3453 968 4101 
Q 1578 4750 2638 4750 
Q 3056 4750 3426 4639 
Q 3797 4528 4122 4306 
z
" transform="scale(0.015625)"/>
       <path id="DejaVuSans-4e" d="M 628 4666 
L 1478 4666 
L 3547 763 
L 3547 4666 
L 4159 4666 
L 4159 0 
L 3309 0 
L 1241 3903 
L 1241 0 
L 628 0 
L 628 4666 
z
" transform="scale(0.015625)"/>
      </defs>
      <use xlink:href="#DejaVuSans-31"/>
      <use xlink:href="#DejaVuSans-44" x="63.623047"/>
      <use xlink:href="#DejaVuSans-20" x="140.625"/>
      <use xlink:href="#DejaVuSans-43" x="172.412109"/>
      <use xlink:href="#DejaVuSans-4e" x="242.236328"/>
      <use xlink:href="#DejaVuSans-4e" x="317.041016"/>
      <use xlink:href="#DejaVuSans-20" x="391.845703"/>
      <use xlink:href="#DejaVuSans-48" x="423.632812"/>
      <use xlink:href="#DejaVuSans-75" x="498.828125"/>
      <use xlink:href="#DejaVuSans-72" x="562.207031"/>
      <use xlink:href="#DejaVuSans-73" x="603.320312"/>
      <use xlink:href="#DejaVuSans-74" x="655.419922"/>
     </g>
    </g>
    <g id="line2d_44">
     <path d="M 81.9 141.991187 
L 91.9 141.991187 
L 101.9 141.991187 
" style="fill: none; stroke: #1f77b4; stroke-width: 1.5; stroke-linecap: square"/>
    </g>
    <g id="text_24">
     <!-- LSTM Hurst -->
     <g transform="translate(109.9 145.491187)scale(0.1 -0.1)">
      <defs>
       <path id="DejaVuSans-54" d="M -19 4666 
L 3928 4666 
L 3928 4134 
L 2272 4134 
L 2272 0 
L 1638 0 
L 1638 4134 
L -19 4134 
L -19 4666 
z
" transform="scale(0.015625)"/>
       <path id="DejaVuSans-4d" d="M 628 4666 
L 1569 4666 
L 2759 1491 
L 3956 4666 
L 4897 4666 
L 4897 0 
L 4281 0 
L 4281 4097 
L 3078 897 
L 2444 897 
L 1241 4097 
L 1241 0 
L 628 0 
L 628 4666 
z
" transform="scale(0.015625)"/>
      </defs>
      <use xlink:href="#DejaVuSans-4c"/>
      <use xlink:href="#DejaVuSans-53" x="55.712891"/>
      <use xlink:href="#DejaVuSans-54" x="119.189453"/>
      <use xlink:href="#DejaVuSans-4d" x="180.273438"/>
      <use xlink:href="#DejaVuSans-20" x="266.552734"/>
      <use xlink:href="#DejaVuSans-48" x="298.339844"/>
      <use xlink:href="#DejaVuSans-75" x="373.535156"/>
      <use xlink:href="#DejaVuSans-72" x="436.914062"/>
      <use xlink:href="#DejaVuSans-73" x="478.027344"/>
      <use xlink:href="#DejaVuSans-74" x="530.126953"/>
     </g>
    </g>
   </g>
  </g>
 </g>
 <defs>
  <clipPath id="p4c4d53037d">
   <rect x="72.9" y="40.824" width="451.98" height="261.954"/>
  </clipPath>
 </defs>
</svg>
