<?xml version="1.0" encoding="utf-8" standalone="no"?>
<!DOCTYPE svg PUBLIC "-//W3C//DTD SVG 1.1//EN"
  "http://www.w3.org/Graphics/SVG/1.1/DTD/svg11.dtd">
<svg xmlns:xlink="http://www.w3.org/1999/xlink" width="583.2pt" height="340.2pt" viewBox="0 0 583.2 340.2" xmlns="http://www.w3.org/2000/svg" version="1.1">
 <metadata>
  <rdf:RDF xmlns:dc="http://purl.org/dc/elements/1.1/" xmlns:cc="http://creativecommons.org/ns#" xmlns:rdf="http://www.w3.org/1999/02/22-rdf-syntax-ns#">
   <cc:Work>
    <dc:type rdf:resource="http://purl.org/dc/dcmitype/StillImage"/>
    <dc:date>2024-07-07T11:12:14.052912</dc:date>
    <dc:format>image/svg+xml</dc:format>
    <dc:creator>
     <cc:Agent>
      <dc:title>Matplotlib v3.5.1, https://matplotlib.org/</dc:title>
     </cc:Agent>
    </dc:creator>
   </cc:Work>
  </rdf:RDF>
 </metadata>
 <defs>
  <style type="text/css">*{stroke-linejoin: round; stroke-linecap: butt}</style>
 </defs>
 <g id="figure_1">
  <g id="patch_1">
   <path d="M 0 340.2 
L 583.2 340.2 
L 583.2 0 
L 0 0 
z
" style="fill: #ffffff"/>
  </g>
  <g id="axes_1">
   <g id="patch_2">
    <path d="M 72.9 302.778 
L 524.88 302.778 
L 524.88 40.824 
L 72.9 40.824 
L 72.9 302.778 
z
" style="fill: none; opacity: 0"/>
   </g>
   <g id="matplotlib.axis_1">
    <g id="xtick_1">
     <g id="line2d_1">
      <path d="M 81.626468 302.778 
L 81.626468 40.824 
" clip-path="url(#pb06a669f89)" style="fill: none; stroke: #e6e6e6; stroke-width: 0.8; stroke-linecap: square"/>
     </g>
     <g id="line2d_2">
      <defs>
       <path id="m9c56fb9c05" d="M 0 0 
L 0 3.5 
" style="stroke: #000000; stroke-width: 0.8"/>
      </defs>
      <g>
       <use xlink:href="#m9c56fb9c05" x="81.626468" y="302.778" style="stroke: #000000; stroke-width: 0.8"/>
      </g>
     </g>
     <g id="text_1">
      <!-- 2000 -->
      <g transform="translate(68.901468 317.376438)scale(0.1 -0.1)">
       <defs>
        <path id="DejaVuSans-32" d="M 1228 531 
L 3431 531 
L 3431 0 
L 469 0 
L 469 531 
Q 828 903 1448 1529 
Q 2069 2156 2228 2338 
Q 2531 2678 2651 2914 
Q 2772 3150 2772 3378 
Q 2772 3750 2511 3984 
Q 2250 4219 1831 4219 
Q 1534 4219 1204 4116 
Q 875 4013 500 3803 
L 500 4441 
Q 881 4594 1212 4672 
Q 1544 4750 1819 4750 
Q 2544 4750 2975 4387 
Q 3406 4025 3406 3419 
Q 3406 3131 3298 2873 
Q 3191 2616 2906 2266 
Q 2828 2175 2409 1742 
Q 1991 1309 1228 531 
z
" transform="scale(0.015625)"/>
        <path id="DejaVuSans-30" d="M 2034 4250 
Q 1547 4250 1301 3770 
Q 1056 3291 1056 2328 
Q 1056 1369 1301 889 
Q 1547 409 2034 409 
Q 2525 409 2770 889 
Q 3016 1369 3016 2328 
Q 3016 3291 2770 3770 
Q 2525 4250 2034 4250 
z
M 2034 4750 
Q 2819 4750 3233 4129 
Q 3647 3509 3647 2328 
Q 3647 1150 3233 529 
Q 2819 -91 2034 -91 
Q 1250 -91 836 529 
Q 422 1150 422 2328 
Q 422 3509 836 4129 
Q 1250 4750 2034 4750 
z
" transform="scale(0.015625)"/>
       </defs>
       <use xlink:href="#DejaVuSans-32"/>
       <use xlink:href="#DejaVuSans-30" x="63.623047"/>
       <use xlink:href="#DejaVuSans-30" x="127.246094"/>
       <use xlink:href="#DejaVuSans-30" x="190.869141"/>
      </g>
     </g>
    </g>
    <g id="xtick_2">
     <g id="line2d_3">
      <path d="M 150.691312 302.778 
L 150.691312 40.824 
" clip-path="url(#pb06a669f89)" style="fill: none; stroke: #e6e6e6; stroke-width: 0.8; stroke-linecap: square"/>
     </g>
     <g id="line2d_4">
      <g>
       <use xlink:href="#m9c56fb9c05" x="150.691312" y="302.778" style="stroke: #000000; stroke-width: 0.8"/>
      </g>
     </g>
     <g id="text_2">
      <!-- 2004 -->
      <g transform="translate(137.966312 317.376438)scale(0.1 -0.1)">
       <defs>
        <path id="DejaVuSans-34" d="M 2419 4116 
L 825 1625 
L 2419 1625 
L 2419 4116 
z
M 2253 4666 
L 3047 4666 
L 3047 1625 
L 3713 1625 
L 3713 1100 
L 3047 1100 
L 3047 0 
L 2419 0 
L 2419 1100 
L 313 1100 
L 313 1709 
L 2253 4666 
z
" transform="scale(0.015625)"/>
       </defs>
       <use xlink:href="#DejaVuSans-32"/>
       <use xlink:href="#DejaVuSans-30" x="63.623047"/>
       <use xlink:href="#DejaVuSans-30" x="127.246094"/>
       <use xlink:href="#DejaVuSans-34" x="190.869141"/>
      </g>
     </g>
    </g>
    <g id="xtick_3">
     <g id="line2d_5">
      <path d="M 219.756155 302.778 
L 219.756155 40.824 
" clip-path="url(#pb06a669f89)" style="fill: none; stroke: #e6e6e6; stroke-width: 0.8; stroke-linecap: square"/>
     </g>
     <g id="line2d_6">
      <g>
       <use xlink:href="#m9c56fb9c05" x="219.756155" y="302.778" style="stroke: #000000; stroke-width: 0.8"/>
      </g>
     </g>
     <g id="text_3">
      <!-- 2008 -->
      <g transform="translate(207.031155 317.376438)scale(0.1 -0.1)">
       <defs>
        <path id="DejaVuSans-38" d="M 2034 2216 
Q 1584 2216 1326 1975 
Q 1069 1734 1069 1313 
Q 1069 891 1326 650 
Q 1584 409 2034 409 
Q 2484 409 2743 651 
Q 3003 894 3003 1313 
Q 3003 1734 2745 1975 
Q 2488 2216 2034 2216 
z
M 1403 2484 
Q 997 2584 770 2862 
Q 544 3141 544 3541 
Q 544 4100 942 4425 
Q 1341 4750 2034 4750 
Q 2731 4750 3128 4425 
Q 3525 4100 3525 3541 
Q 3525 3141 3298 2862 
Q 3072 2584 2669 2484 
Q 3125 2378 3379 2068 
Q 3634 1759 3634 1313 
Q 3634 634 3220 271 
Q 2806 -91 2034 -91 
Q 1263 -91 848 271 
Q 434 634 434 1313 
Q 434 1759 690 2068 
Q 947 2378 1403 2484 
z
M 1172 3481 
Q 1172 3119 1398 2916 
Q 1625 2713 2034 2713 
Q 2441 2713 2670 2916 
Q 2900 3119 2900 3481 
Q 2900 3844 2670 4047 
Q 2441 4250 2034 4250 
Q 1625 4250 1398 4047 
Q 1172 3844 1172 3481 
z
" transform="scale(0.015625)"/>
       </defs>
       <use xlink:href="#DejaVuSans-32"/>
       <use xlink:href="#DejaVuSans-30" x="63.623047"/>
       <use xlink:href="#DejaVuSans-30" x="127.246094"/>
       <use xlink:href="#DejaVuSans-38" x="190.869141"/>
      </g>
     </g>
    </g>
    <g id="xtick_4">
     <g id="line2d_7">
      <path d="M 288.820998 302.778 
L 288.820998 40.824 
" clip-path="url(#pb06a669f89)" style="fill: none; stroke: #e6e6e6; stroke-width: 0.8; stroke-linecap: square"/>
     </g>
     <g id="line2d_8">
      <g>
       <use xlink:href="#m9c56fb9c05" x="288.820998" y="302.778" style="stroke: #000000; stroke-width: 0.8"/>
      </g>
     </g>
     <g id="text_4">
      <!-- 2012 -->
      <g transform="translate(276.095998 317.376438)scale(0.1 -0.1)">
       <defs>
        <path id="DejaVuSans-31" d="M 794 531 
L 1825 531 
L 1825 4091 
L 703 3866 
L 703 4441 
L 1819 4666 
L 2450 4666 
L 2450 531 
L 3481 531 
L 3481 0 
L 794 0 
L 794 531 
z
" transform="scale(0.015625)"/>
       </defs>
       <use xlink:href="#DejaVuSans-32"/>
       <use xlink:href="#DejaVuSans-30" x="63.623047"/>
       <use xlink:href="#DejaVuSans-31" x="127.246094"/>
       <use xlink:href="#DejaVuSans-32" x="190.869141"/>
      </g>
     </g>
    </g>
    <g id="xtick_5">
     <g id="line2d_9">
      <path d="M 357.885842 302.778 
L 357.885842 40.824 
" clip-path="url(#pb06a669f89)" style="fill: none; stroke: #e6e6e6; stroke-width: 0.8; stroke-linecap: square"/>
     </g>
     <g id="line2d_10">
      <g>
       <use xlink:href="#m9c56fb9c05" x="357.885842" y="302.778" style="stroke: #000000; stroke-width: 0.8"/>
      </g>
     </g>
     <g id="text_5">
      <!-- 2016 -->
      <g transform="translate(345.160842 317.376438)scale(0.1 -0.1)">
       <defs>
        <path id="DejaVuSans-36" d="M 2113 2584 
Q 1688 2584 1439 2293 
Q 1191 2003 1191 1497 
Q 1191 994 1439 701 
Q 1688 409 2113 409 
Q 2538 409 2786 701 
Q 3034 994 3034 1497 
Q 3034 2003 2786 2293 
Q 2538 2584 2113 2584 
z
M 3366 4563 
L 3366 3988 
Q 3128 4100 2886 4159 
Q 2644 4219 2406 4219 
Q 1781 4219 1451 3797 
Q 1122 3375 1075 2522 
Q 1259 2794 1537 2939 
Q 1816 3084 2150 3084 
Q 2853 3084 3261 2657 
Q 3669 2231 3669 1497 
Q 3669 778 3244 343 
Q 2819 -91 2113 -91 
Q 1303 -91 875 529 
Q 447 1150 447 2328 
Q 447 3434 972 4092 
Q 1497 4750 2381 4750 
Q 2619 4750 2861 4703 
Q 3103 4656 3366 4563 
z
" transform="scale(0.015625)"/>
       </defs>
       <use xlink:href="#DejaVuSans-32"/>
       <use xlink:href="#DejaVuSans-30" x="63.623047"/>
       <use xlink:href="#DejaVuSans-31" x="127.246094"/>
       <use xlink:href="#DejaVuSans-36" x="190.869141"/>
      </g>
     </g>
    </g>
    <g id="xtick_6">
     <g id="line2d_11">
      <path d="M 426.950685 302.778 
L 426.950685 40.824 
" clip-path="url(#pb06a669f89)" style="fill: none; stroke: #e6e6e6; stroke-width: 0.8; stroke-linecap: square"/>
     </g>
     <g id="line2d_12">
      <g>
       <use xlink:href="#m9c56fb9c05" x="426.950685" y="302.778" style="stroke: #000000; stroke-width: 0.8"/>
      </g>
     </g>
     <g id="text_6">
      <!-- 2020 -->
      <g transform="translate(414.225685 317.376438)scale(0.1 -0.1)">
       <use xlink:href="#DejaVuSans-32"/>
       <use xlink:href="#DejaVuSans-30" x="63.623047"/>
       <use xlink:href="#DejaVuSans-32" x="127.246094"/>
       <use xlink:href="#DejaVuSans-30" x="190.869141"/>
      </g>
     </g>
    </g>
    <g id="xtick_7">
     <g id="line2d_13">
      <path d="M 496.015528 302.778 
L 496.015528 40.824 
" clip-path="url(#pb06a669f89)" style="fill: none; stroke: #e6e6e6; stroke-width: 0.8; stroke-linecap: square"/>
     </g>
     <g id="line2d_14">
      <g>
       <use xlink:href="#m9c56fb9c05" x="496.015528" y="302.778" style="stroke: #000000; stroke-width: 0.8"/>
      </g>
     </g>
     <g id="text_7">
      <!-- 2024 -->
      <g transform="translate(483.290528 317.376438)scale(0.1 -0.1)">
       <use xlink:href="#DejaVuSans-32"/>
       <use xlink:href="#DejaVuSans-30" x="63.623047"/>
       <use xlink:href="#DejaVuSans-32" x="127.246094"/>
       <use xlink:href="#DejaVuSans-34" x="190.869141"/>
      </g>
     </g>
    </g>
    <g id="text_8">
     <!-- Date -->
     <g transform="translate(286.939219 331.054562)scale(0.1 -0.1)">
      <defs>
       <path id="DejaVuSans-44" d="M 1259 4147 
L 1259 519 
L 2022 519 
Q 2988 519 3436 956 
Q 3884 1394 3884 2338 
Q 3884 3275 3436 3711 
Q 2988 4147 2022 4147 
L 1259 4147 
z
M 628 4666 
L 1925 4666 
Q 3281 4666 3915 4102 
Q 4550 3538 4550 2338 
Q 4550 1131 3912 565 
Q 3275 0 1925 0 
L 628 0 
L 628 4666 
z
" transform="scale(0.015625)"/>
       <path id="DejaVuSans-61" d="M 2194 1759 
Q 1497 1759 1228 1600 
Q 959 1441 959 1056 
Q 959 750 1161 570 
Q 1363 391 1709 391 
Q 2188 391 2477 730 
Q 2766 1069 2766 1631 
L 2766 1759 
L 2194 1759 
z
M 3341 1997 
L 3341 0 
L 2766 0 
L 2766 531 
Q 2569 213 2275 61 
Q 1981 -91 1556 -91 
Q 1019 -91 701 211 
Q 384 513 384 1019 
Q 384 1609 779 1909 
Q 1175 2209 1959 2209 
L 2766 2209 
L 2766 2266 
Q 2766 2663 2505 2880 
Q 2244 3097 1772 3097 
Q 1472 3097 1187 3025 
Q 903 2953 641 2809 
L 641 3341 
Q 956 3463 1253 3523 
Q 1550 3584 1831 3584 
Q 2591 3584 2966 3190 
Q 3341 2797 3341 1997 
z
" transform="scale(0.015625)"/>
       <path id="DejaVuSans-74" d="M 1172 4494 
L 1172 3500 
L 2356 3500 
L 2356 3053 
L 1172 3053 
L 1172 1153 
Q 1172 725 1289 603 
Q 1406 481 1766 481 
L 2356 481 
L 2356 0 
L 1766 0 
Q 1100 0 847 248 
Q 594 497 594 1153 
L 594 3053 
L 172 3053 
L 172 3500 
L 594 3500 
L 594 4494 
L 1172 4494 
z
" transform="scale(0.015625)"/>
       <path id="DejaVuSans-65" d="M 3597 1894 
L 3597 1613 
L 953 1613 
Q 991 1019 1311 708 
Q 1631 397 2203 397 
Q 2534 397 2845 478 
Q 3156 559 3463 722 
L 3463 178 
Q 3153 47 2828 -22 
Q 2503 -91 2169 -91 
Q 1331 -91 842 396 
Q 353 884 353 1716 
Q 353 2575 817 3079 
Q 1281 3584 2069 3584 
Q 2775 3584 3186 3129 
Q 3597 2675 3597 1894 
z
M 3022 2063 
Q 3016 2534 2758 2815 
Q 2500 3097 2075 3097 
Q 1594 3097 1305 2825 
Q 1016 2553 972 2059 
L 3022 2063 
z
" transform="scale(0.015625)"/>
      </defs>
      <use xlink:href="#DejaVuSans-44"/>
      <use xlink:href="#DejaVuSans-61" x="77.001953"/>
      <use xlink:href="#DejaVuSans-74" x="138.28125"/>
      <use xlink:href="#DejaVuSans-65" x="177.490234"/>
     </g>
    </g>
   </g>
   <g id="matplotlib.axis_2">
    <g id="ytick_1">
     <g id="line2d_15">
      <path d="M 72.9 267.783269 
L 524.88 267.783269 
" clip-path="url(#pb06a669f89)" style="fill: none; stroke: #e6e6e6; stroke-width: 0.8; stroke-linecap: square"/>
     </g>
     <g id="line2d_16">
      <defs>
       <path id="m5bd78aaf26" d="M 0 0 
L -3.5 0 
" style="stroke: #000000; stroke-width: 0.8"/>
      </defs>
      <g>
       <use xlink:href="#m5bd78aaf26" x="72.9" y="267.783269" style="stroke: #000000; stroke-width: 0.8"/>
      </g>
     </g>
     <g id="text_9">
      <!-- −0.2 -->
      <g transform="translate(41.617187 271.582487)scale(0.1 -0.1)">
       <defs>
        <path id="DejaVuSans-2212" d="M 678 2272 
L 4684 2272 
L 4684 1741 
L 678 1741 
L 678 2272 
z
" transform="scale(0.015625)"/>
        <path id="DejaVuSans-2e" d="M 684 794 
L 1344 794 
L 1344 0 
L 684 0 
L 684 794 
z
" transform="scale(0.015625)"/>
       </defs>
       <use xlink:href="#DejaVuSans-2212"/>
       <use xlink:href="#DejaVuSans-30" x="83.789062"/>
       <use xlink:href="#DejaVuSans-2e" x="147.412109"/>
       <use xlink:href="#DejaVuSans-32" x="179.199219"/>
      </g>
     </g>
    </g>
    <g id="ytick_2">
     <g id="line2d_17">
      <path d="M 72.9 213.895265 
L 524.88 213.895265 
" clip-path="url(#pb06a669f89)" style="fill: none; stroke: #e6e6e6; stroke-width: 0.8; stroke-linecap: square"/>
     </g>
     <g id="line2d_18">
      <g>
       <use xlink:href="#m5bd78aaf26" x="72.9" y="213.895265" style="stroke: #000000; stroke-width: 0.8"/>
      </g>
     </g>
     <g id="text_10">
      <!-- 0.0 -->
      <g transform="translate(49.996875 217.694484)scale(0.1 -0.1)">
       <use xlink:href="#DejaVuSans-30"/>
       <use xlink:href="#DejaVuSans-2e" x="63.623047"/>
       <use xlink:href="#DejaVuSans-30" x="95.410156"/>
      </g>
     </g>
    </g>
    <g id="ytick_3">
     <g id="line2d_19">
      <path d="M 72.9 160.007262 
L 524.88 160.007262 
" clip-path="url(#pb06a669f89)" style="fill: none; stroke: #e6e6e6; stroke-width: 0.8; stroke-linecap: square"/>
     </g>
     <g id="line2d_20">
      <g>
       <use xlink:href="#m5bd78aaf26" x="72.9" y="160.007262" style="stroke: #000000; stroke-width: 0.8"/>
      </g>
     </g>
     <g id="text_11">
      <!-- 0.2 -->
      <g transform="translate(49.996875 163.806481)scale(0.1 -0.1)">
       <use xlink:href="#DejaVuSans-30"/>
       <use xlink:href="#DejaVuSans-2e" x="63.623047"/>
       <use xlink:href="#DejaVuSans-32" x="95.410156"/>
      </g>
     </g>
    </g>
    <g id="ytick_4">
     <g id="line2d_21">
      <path d="M 72.9 106.119259 
L 524.88 106.119259 
" clip-path="url(#pb06a669f89)" style="fill: none; stroke: #e6e6e6; stroke-width: 0.8; stroke-linecap: square"/>
     </g>
     <g id="line2d_22">
      <g>
       <use xlink:href="#m5bd78aaf26" x="72.9" y="106.119259" style="stroke: #000000; stroke-width: 0.8"/>
      </g>
     </g>
     <g id="text_12">
      <!-- 0.4 -->
      <g transform="translate(49.996875 109.918477)scale(0.1 -0.1)">
       <use xlink:href="#DejaVuSans-30"/>
       <use xlink:href="#DejaVuSans-2e" x="63.623047"/>
       <use xlink:href="#DejaVuSans-34" x="95.410156"/>
      </g>
     </g>
    </g>
    <g id="ytick_5">
     <g id="line2d_23">
      <path d="M 72.9 52.231255 
L 524.88 52.231255 
" clip-path="url(#pb06a669f89)" style="fill: none; stroke: #e6e6e6; stroke-width: 0.8; stroke-linecap: square"/>
     </g>
     <g id="line2d_24">
      <g>
       <use xlink:href="#m5bd78aaf26" x="72.9" y="52.231255" style="stroke: #000000; stroke-width: 0.8"/>
      </g>
     </g>
     <g id="text_13">
      <!-- 0.6 -->
      <g transform="translate(49.996875 56.030474)scale(0.1 -0.1)">
       <use xlink:href="#DejaVuSans-30"/>
       <use xlink:href="#DejaVuSans-2e" x="63.623047"/>
       <use xlink:href="#DejaVuSans-36" x="95.410156"/>
      </g>
     </g>
    </g>
    <g id="text_14">
     <!-- Volatility and Hurst-estimate -->
     <g transform="translate(35.5375 243.333031)rotate(-90)scale(0.1 -0.1)">
      <defs>
       <path id="DejaVuSans-56" d="M 1831 0 
L 50 4666 
L 709 4666 
L 2188 738 
L 3669 4666 
L 4325 4666 
L 2547 0 
L 1831 0 
z
" transform="scale(0.015625)"/>
       <path id="DejaVuSans-6f" d="M 1959 3097 
Q 1497 3097 1228 2736 
Q 959 2375 959 1747 
Q 959 1119 1226 758 
Q 1494 397 1959 397 
Q 2419 397 2687 759 
Q 2956 1122 2956 1747 
Q 2956 2369 2687 2733 
Q 2419 3097 1959 3097 
z
M 1959 3584 
Q 2709 3584 3137 3096 
Q 3566 2609 3566 1747 
Q 3566 888 3137 398 
Q 2709 -91 1959 -91 
Q 1206 -91 779 398 
Q 353 888 353 1747 
Q 353 2609 779 3096 
Q 1206 3584 1959 3584 
z
" transform="scale(0.015625)"/>
       <path id="DejaVuSans-6c" d="M 603 4863 
L 1178 4863 
L 1178 0 
L 603 0 
L 603 4863 
z
" transform="scale(0.015625)"/>
       <path id="DejaVuSans-69" d="M 603 3500 
L 1178 3500 
L 1178 0 
L 603 0 
L 603 3500 
z
M 603 4863 
L 1178 4863 
L 1178 4134 
L 603 4134 
L 603 4863 
z
" transform="scale(0.015625)"/>
       <path id="DejaVuSans-79" d="M 2059 -325 
Q 1816 -950 1584 -1140 
Q 1353 -1331 966 -1331 
L 506 -1331 
L 506 -850 
L 844 -850 
Q 1081 -850 1212 -737 
Q 1344 -625 1503 -206 
L 1606 56 
L 191 3500 
L 800 3500 
L 1894 763 
L 2988 3500 
L 3597 3500 
L 2059 -325 
z
" transform="scale(0.015625)"/>
       <path id="DejaVuSans-20" transform="scale(0.015625)"/>
       <path id="DejaVuSans-6e" d="M 3513 2113 
L 3513 0 
L 2938 0 
L 2938 2094 
Q 2938 2591 2744 2837 
Q 2550 3084 2163 3084 
Q 1697 3084 1428 2787 
Q 1159 2491 1159 1978 
L 1159 0 
L 581 0 
L 581 3500 
L 1159 3500 
L 1159 2956 
Q 1366 3272 1645 3428 
Q 1925 3584 2291 3584 
Q 2894 3584 3203 3211 
Q 3513 2838 3513 2113 
z
" transform="scale(0.015625)"/>
       <path id="DejaVuSans-64" d="M 2906 2969 
L 2906 4863 
L 3481 4863 
L 3481 0 
L 2906 0 
L 2906 525 
Q 2725 213 2448 61 
Q 2172 -91 1784 -91 
Q 1150 -91 751 415 
Q 353 922 353 1747 
Q 353 2572 751 3078 
Q 1150 3584 1784 3584 
Q 2172 3584 2448 3432 
Q 2725 3281 2906 2969 
z
M 947 1747 
Q 947 1113 1208 752 
Q 1469 391 1925 391 
Q 2381 391 2643 752 
Q 2906 1113 2906 1747 
Q 2906 2381 2643 2742 
Q 2381 3103 1925 3103 
Q 1469 3103 1208 2742 
Q 947 2381 947 1747 
z
" transform="scale(0.015625)"/>
       <path id="DejaVuSans-48" d="M 628 4666 
L 1259 4666 
L 1259 2753 
L 3553 2753 
L 3553 4666 
L 4184 4666 
L 4184 0 
L 3553 0 
L 3553 2222 
L 1259 2222 
L 1259 0 
L 628 0 
L 628 4666 
z
" transform="scale(0.015625)"/>
       <path id="DejaVuSans-75" d="M 544 1381 
L 544 3500 
L 1119 3500 
L 1119 1403 
Q 1119 906 1312 657 
Q 1506 409 1894 409 
Q 2359 409 2629 706 
Q 2900 1003 2900 1516 
L 2900 3500 
L 3475 3500 
L 3475 0 
L 2900 0 
L 2900 538 
Q 2691 219 2414 64 
Q 2138 -91 1772 -91 
Q 1169 -91 856 284 
Q 544 659 544 1381 
z
M 1991 3584 
L 1991 3584 
z
" transform="scale(0.015625)"/>
       <path id="DejaVuSans-72" d="M 2631 2963 
Q 2534 3019 2420 3045 
Q 2306 3072 2169 3072 
Q 1681 3072 1420 2755 
Q 1159 2438 1159 1844 
L 1159 0 
L 581 0 
L 581 3500 
L 1159 3500 
L 1159 2956 
Q 1341 3275 1631 3429 
Q 1922 3584 2338 3584 
Q 2397 3584 2469 3576 
Q 2541 3569 2628 3553 
L 2631 2963 
z
" transform="scale(0.015625)"/>
       <path id="DejaVuSans-73" d="M 2834 3397 
L 2834 2853 
Q 2591 2978 2328 3040 
Q 2066 3103 1784 3103 
Q 1356 3103 1142 2972 
Q 928 2841 928 2578 
Q 928 2378 1081 2264 
Q 1234 2150 1697 2047 
L 1894 2003 
Q 2506 1872 2764 1633 
Q 3022 1394 3022 966 
Q 3022 478 2636 193 
Q 2250 -91 1575 -91 
Q 1294 -91 989 -36 
Q 684 19 347 128 
L 347 722 
Q 666 556 975 473 
Q 1284 391 1588 391 
Q 1994 391 2212 530 
Q 2431 669 2431 922 
Q 2431 1156 2273 1281 
Q 2116 1406 1581 1522 
L 1381 1569 
Q 847 1681 609 1914 
Q 372 2147 372 2553 
Q 372 3047 722 3315 
Q 1072 3584 1716 3584 
Q 2034 3584 2315 3537 
Q 2597 3491 2834 3397 
z
" transform="scale(0.015625)"/>
       <path id="DejaVuSans-2d" d="M 313 2009 
L 1997 2009 
L 1997 1497 
L 313 1497 
L 313 2009 
z
" transform="scale(0.015625)"/>
       <path id="DejaVuSans-6d" d="M 3328 2828 
Q 3544 3216 3844 3400 
Q 4144 3584 4550 3584 
Q 5097 3584 5394 3201 
Q 5691 2819 5691 2113 
L 5691 0 
L 5113 0 
L 5113 2094 
Q 5113 2597 4934 2840 
Q 4756 3084 4391 3084 
Q 3944 3084 3684 2787 
Q 3425 2491 3425 1978 
L 3425 0 
L 2847 0 
L 2847 2094 
Q 2847 2600 2669 2842 
Q 2491 3084 2119 3084 
Q 1678 3084 1418 2786 
Q 1159 2488 1159 1978 
L 1159 0 
L 581 0 
L 581 3500 
L 1159 3500 
L 1159 2956 
Q 1356 3278 1631 3431 
Q 1906 3584 2284 3584 
Q 2666 3584 2933 3390 
Q 3200 3197 3328 2828 
z
" transform="scale(0.015625)"/>
      </defs>
      <use xlink:href="#DejaVuSans-56"/>
      <use xlink:href="#DejaVuSans-6f" x="60.658203"/>
      <use xlink:href="#DejaVuSans-6c" x="121.839844"/>
      <use xlink:href="#DejaVuSans-61" x="149.623047"/>
      <use xlink:href="#DejaVuSans-74" x="210.902344"/>
      <use xlink:href="#DejaVuSans-69" x="250.111328"/>
      <use xlink:href="#DejaVuSans-6c" x="277.894531"/>
      <use xlink:href="#DejaVuSans-69" x="305.677734"/>
      <use xlink:href="#DejaVuSans-74" x="333.460938"/>
      <use xlink:href="#DejaVuSans-79" x="372.669922"/>
      <use xlink:href="#DejaVuSans-20" x="431.849609"/>
      <use xlink:href="#DejaVuSans-61" x="463.636719"/>
      <use xlink:href="#DejaVuSans-6e" x="524.916016"/>
      <use xlink:href="#DejaVuSans-64" x="588.294922"/>
      <use xlink:href="#DejaVuSans-20" x="651.771484"/>
      <use xlink:href="#DejaVuSans-48" x="683.558594"/>
      <use xlink:href="#DejaVuSans-75" x="758.753906"/>
      <use xlink:href="#DejaVuSans-72" x="822.132812"/>
      <use xlink:href="#DejaVuSans-73" x="863.246094"/>
      <use xlink:href="#DejaVuSans-74" x="915.345703"/>
      <use xlink:href="#DejaVuSans-2d" x="954.554688"/>
      <use xlink:href="#DejaVuSans-65" x="990.638672"/>
      <use xlink:href="#DejaVuSans-73" x="1052.162109"/>
      <use xlink:href="#DejaVuSans-74" x="1104.261719"/>
      <use xlink:href="#DejaVuSans-69" x="1143.470703"/>
      <use xlink:href="#DejaVuSans-6d" x="1171.253906"/>
      <use xlink:href="#DejaVuSans-61" x="1268.666016"/>
      <use xlink:href="#DejaVuSans-74" x="1329.945312"/>
      <use xlink:href="#DejaVuSans-65" x="1369.154297"/>
     </g>
    </g>
   </g>
   <g id="patch_3">
    <path d="M 72.9 302.778 
L 72.9 40.824 
" style="fill: none; stroke: #000000; stroke-width: 0.8; stroke-linejoin: miter; stroke-linecap: square"/>
   </g>
   <g id="patch_4">
    <path d="M 524.88 302.778 
L 524.88 40.824 
" style="fill: none; stroke: #e6e6e6; stroke-width: 0.8; stroke-linejoin: miter; stroke-linecap: square"/>
   </g>
   <g id="patch_5">
    <path d="M 72.9 302.778 
L 524.88 302.778 
" style="fill: none; stroke: #000000; stroke-width: 0.8; stroke-linejoin: miter; stroke-linecap: square"/>
   </g>
   <g id="patch_6">
    <path d="M 72.9 40.824 
L 524.88 40.824 
" style="fill: none; stroke: #e6e6e6; stroke-width: 0.8; stroke-linejoin: miter; stroke-linecap: square"/>
   </g>
   <g id="line2d_25">
    <path d="M 93.444545 203.833603 
L 93.775452 200.883398 
L 94.106358 206.766514 
L 94.437264 197.087152 
L 94.76817 201.179016 
L 95.099076 188.020484 
L 95.429982 196.910026 
L 95.760889 195.248949 
L 96.091795 198.328402 
L 96.422701 198.713046 
L 96.753607 182.266025 
L 97.273602 195.142751 
L 97.604509 177.997506 
L 97.935415 176.519495 
L 98.266321 154.026029 
L 98.644499 192.446265 
L 99.022678 163.138076 
L 99.353584 179.33528 
L 99.731763 172.065814 
L 100.062669 186.545406 
L 100.393575 158.438057 
L 100.724481 155.822239 
L 101.055387 181.044486 
L 101.433566 199.722721 
L 101.764472 198.319916 
L 102.095378 201.487037 
L 102.426284 200.495735 
L 103.088096 188.366467 
L 103.419003 201.537979 
L 103.891726 200.208538 
L 104.222632 200.98306 
L 104.553538 206.4139 
L 104.884444 198.19097 
L 105.21535 199.273066 
L 105.546257 182.616318 
L 105.924435 198.685461 
L 106.255341 188.455712 
L 106.586247 193.4645 
L 106.917153 201.902422 
L 107.24806 190.820208 
L 107.578966 189.029296 
L 107.957144 195.378198 
L 108.618957 181.702553 
L 109.280769 187.766689 
L 109.611675 180.70758 
L 110.273487 202.644895 
L 110.651666 204.241209 
L 111.218934 177.620388 
L 111.54984 185.482199 
L 111.880746 152.584912 
L 112.211652 182.308168 
L 112.542558 183.694225 
L 112.873464 176.644599 
L 113.204371 184.604525 
L 113.535277 182.771845 
L 113.866183 190.363045 
L 114.197089 185.33087 
L 114.62254 166.397873 
L 114.953446 190.79788 
L 115.284352 192.539443 
L 115.615258 191.95377 
L 116.135254 157.643568 
L 116.513432 190.837639 
L 116.844338 201.270274 
L 117.222517 189.087587 
L 117.553423 183.75692 
L 117.884329 200.736245 
L 118.215235 199.594496 
L 118.593414 188.509982 
L 119.255226 196.285735 
L 119.586132 184.102552 
L 119.917038 179.324158 
L 120.247945 197.905216 
L 120.626123 181.711385 
L 120.957029 201.228913 
L 121.287935 184.506584 
L 121.618842 195.153369 
L 121.949748 192.351002 
L 122.280654 199.207184 
L 122.61156 196.164808 
L 122.942466 202.139452 
L 123.415189 190.211461 
L 123.746095 200.635659 
L 124.407908 190.550927 
L 124.738814 201.573134 
L 125.116992 197.435195 
L 125.447899 198.355311 
L 125.778805 201.413704 
L 126.109711 190.480929 
L 126.440617 190.305505 
L 126.771523 192.82815 
L 127.102429 185.837873 
L 127.433336 188.373512 
L 127.811514 192.345214 
L 128.14242 191.818465 
L 128.473326 205.316587 
L 128.804233 181.771894 
L 129.135139 189.344011 
L 129.466045 179.821973 
L 129.796951 188.102114 
L 130.127857 200.259741 
L 130.458763 189.300549 
L 130.789669 198.245024 
L 131.120576 200.287041 
L 131.451482 195.366242 
L 131.782388 200.560617 
L 132.207839 201.012182 
L 132.538745 193.801055 
L 132.869651 196.557884 
L 133.342374 201.752588 
L 133.720553 176.121922 
L 134.051459 197.553405 
L 134.429637 191.230202 
L 134.760543 193.500369 
L 135.09145 202.495271 
L 135.422356 193.102849 
L 135.800534 203.782813 
L 136.13144 98.697318 
L 136.462347 170.470514 
L 137.124159 202.359202 
L 137.455065 197.362932 
L 137.785971 204.208207 
L 138.116877 201.548482 
L 138.447784 207.193562 
L 138.825962 208.857047 
L 139.156868 190.792482 
L 139.487774 189.759743 
L 140.149587 201.130511 
L 140.62231 197.454994 
L 140.953216 201.721764 
L 141.284122 186.773037 
L 141.615028 192.733886 
L 141.945934 188.632542 
L 142.324113 199.967273 
L 142.655019 202.421113 
L 142.985925 196.088562 
L 143.316831 206.051979 
L 143.647738 194.992239 
L 143.978644 196.789323 
L 144.30955 196.766225 
L 144.640456 196.515321 
L 145.018634 198.391903 
L 145.349541 196.88476 
L 145.680447 201.484705 
L 146.011353 201.491989 
L 146.342259 181.131764 
L 146.673165 202.343545 
L 147.004071 189.728845 
L 147.334978 189.225318 
L 147.665884 199.547807 
L 147.99679 191.551863 
L 148.327696 194.336775 
L 148.658602 183.317356 
L 148.989508 200.271386 
L 149.745865 174.438006 
L 150.076772 194.566636 
L 150.596767 173.758227 
L 151.022218 175.942064 
L 151.353124 180.180194 
L 151.731302 186.90807 
L 152.062209 196.678775 
L 152.393115 196.322317 
L 152.724021 200.014834 
L 153.196744 203.45158 
L 153.52765 201.281757 
L 153.858556 202.743775 
L 154.189462 200.547507 
L 154.520369 209.114327 
L 154.851275 206.649802 
L 155.182181 191.782259 
L 155.560359 201.165533 
L 155.891266 206.584313 
L 156.222172 204.121671 
L 156.553078 197.022053 
L 156.883984 201.574216 
L 157.21489 200.842285 
L 157.545796 194.200092 
L 157.923975 198.920705 
L 158.254881 209.507137 
L 158.633059 209.254395 
L 158.963966 203.962437 
L 159.294872 202.747438 
L 159.67305 197.35811 
L 160.003956 198.421155 
L 160.334863 202.567501 
L 160.665769 201.9662 
L 161.327581 197.88359 
L 161.658487 202.615566 
L 161.989393 202.737471 
L 162.793023 191.77137 
L 163.123929 188.764342 
L 163.454835 190.355937 
L 163.785741 160.906448 
L 164.116647 191.399493 
L 164.447553 194.689747 
L 164.77846 190.972455 
L 165.109366 166.654035 
L 165.440272 194.272013 
L 166.102084 187.524557 
L 166.527535 165.357027 
L 166.858441 187.897461 
L 167.189347 198.815769 
L 167.520254 184.477478 
L 168.27661 191.776636 
L 168.607517 188.245507 
L 169.08024 195.336405 
L 169.411146 207.99121 
L 169.742052 203.177786 
L 170.072958 204.045342 
L 170.782043 195.967032 
L 171.112949 206.751819 
L 171.443855 198.394174 
L 171.774761 209.861315 
L 172.15294 198.376425 
L 172.483846 203.486698 
L 172.814752 204.741187 
L 173.145658 207.295514 
L 173.476564 197.198738 
L 173.807471 200.814949 
L 174.138377 209.065675 
L 174.469283 206.025961 
L 174.800189 209.447974 
L 175.178368 192.089217 
L 175.509274 202.517137 
L 175.84018 198.589378 
L 176.171086 205.673229 
L 176.501992 203.262269 
L 176.880171 195.111913 
L 177.541983 203.190926 
L 177.872889 203.466907 
L 178.203795 205.110849 
L 178.534702 200.590857 
L 178.865608 193.962565 
L 179.196514 197.729196 
L 179.52742 183.332972 
L 180.000143 201.915164 
L 180.331049 177.003874 
L 180.661955 200.815919 
L 180.992862 188.360028 
L 181.323768 197.497388 
L 181.654674 193.905284 
L 181.98558 199.068155 
L 182.316486 174.305455 
L 182.647392 196.564728 
L 182.978299 201.87677 
L 183.309205 188.461397 
L 183.734655 187.827347 
L 184.065562 192.760658 
L 184.396468 176.107293 
L 184.727374 192.574682 
L 185.105552 177.899689 
L 185.814637 207.365658 
L 186.28736 179.556225 
L 186.618266 179.870423 
L 186.949172 187.479281 
L 187.280079 208.548805 
L 187.658257 192.422226 
L 187.989163 193.267079 
L 188.320069 201.262812 
L 188.650976 199.059146 
L 188.981882 200.950037 
L 189.312788 195.219298 
L 189.643694 196.906568 
L 189.9746 201.710174 
L 190.352779 195.391747 
L 190.683685 201.403507 
L 191.014591 194.785665 
L 191.345497 193.379131 
L 191.676403 196.601713 
L 192.00731 191.928269 
L 192.385488 201.190068 
L 192.716394 188.996419 
L 193.0473 186.856344 
L 193.378207 196.596676 
L 193.709113 190.537766 
L 194.229108 198.674039 
L 194.560014 178.518776 
L 194.89092 187.184365 
L 195.221827 176.566158 
L 195.552733 186.532637 
L 195.883639 184.187573 
L 196.214545 208.560199 
L 196.545451 177.581248 
L 196.876357 184.760111 
L 197.207264 196.976053 
L 197.53817 185.231185 
L 197.869076 201.978863 
L 198.199982 140.752359 
L 198.530888 202.351936 
L 198.861794 167.532633 
L 199.1927 188.36535 
L 199.523607 182.88288 
L 199.854513 195.682568 
L 200.185419 201.869284 
L 200.516325 191.122046 
L 200.941776 190.347944 
L 201.272682 193.397249 
L 201.603588 201.818218 
L 201.934494 201.609043 
L 202.312673 179.838623 
L 202.690851 206.933758 
L 203.021758 184.845898 
L 203.494481 179.528587 
L 203.825387 184.833399 
L 204.156293 181.455043 
L 204.487199 189.802539 
L 204.865378 203.538671 
L 205.196284 204.750922 
L 205.52719 200.785013 
L 205.858096 208.844699 
L 206.189002 203.066353 
L 206.519908 201.890848 
L 206.850815 202.469701 
L 207.228993 202.291108 
L 207.559899 202.333918 
L 207.890805 205.130264 
L 208.221712 198.237906 
L 208.552618 201.721576 
L 208.883524 206.668173 
L 209.21443 204.381696 
L 209.592608 200.102261 
L 209.923515 197.93362 
L 210.254421 202.829705 
L 210.585327 203.69494 
L 210.916233 202.456892 
L 211.294412 203.334889 
L 211.956224 191.964498 
L 212.28713 191.669884 
L 212.618036 186.301097 
L 212.948942 199.436786 
L 213.279849 205.281539 
L 213.610755 177.789393 
L 213.941661 191.904851 
L 214.414384 189.021347 
L 214.74529 179.488399 
L 215.076196 189.413113 
L 215.407102 194.153376 
L 215.738009 189.512539 
L 216.399821 201.138927 
L 216.730727 201.348917 
L 217.061633 178.424352 
L 217.392539 200.430101 
L 217.723446 198.473532 
L 218.101624 199.036385 
L 218.43253 196.106474 
L 218.763436 202.87478 
L 219.094343 195.753857 
L 219.472521 206.338012 
L 219.850699 198.249077 
L 220.181606 209.814427 
L 220.512512 205.928772 
L 220.89069 197.645853 
L 221.221596 200.458582 
L 221.552503 209.735537 
L 221.883409 198.198071 
L 222.356132 202.281907 
L 222.687038 194.692884 
L 223.017944 202.853839 
L 223.34885 189.669208 
L 223.727029 195.719657 
L 224.057935 197.550307 
L 224.388841 193.49587 
L 224.719747 201.610881 
L 225.050653 204.766217 
L 225.38156 197.945247 
L 225.712466 199.484697 
L 226.043372 203.107915 
L 226.374278 198.006538 
L 226.752457 207.517285 
L 227.083363 198.437989 
L 227.414269 205.538602 
L 227.745175 204.791854 
L 228.076081 202.443449 
L 228.406987 206.176774 
L 228.785166 193.517207 
L 229.116072 194.338123 
L 229.777884 204.884922 
L 230.108791 190.526954 
L 230.439697 197.955067 
L 230.770603 202.69581 
L 231.101509 187.670878 
L 231.479687 187.993018 
L 231.810594 203.905789 
L 232.1415 186.107409 
L 232.472406 195.642644 
L 232.803312 193.046558 
L 233.134218 193.091433 
L 233.465124 203.784307 
L 233.796031 198.205053 
L 234.457843 191.543892 
L 234.788749 180.432032 
L 235.119655 188.400577 
L 235.592378 173.344023 
L 235.923285 204.043933 
L 236.254191 201.259757 
L 236.585097 201.020087 
L 236.963275 183.306689 
L 237.67236 196.358944 
L 238.381445 201.385096 
L 239.043257 195.07767 
L 239.421435 199.713974 
L 239.752342 194.96984 
L 240.083248 191.910169 
L 240.414154 196.354515 
L 240.74506 175.299107 
L 241.075966 181.882771 
L 241.406872 201.942826 
L 241.879595 198.868936 
L 242.210502 193.050875 
L 242.541408 203.345909 
L 242.872314 199.270561 
L 243.20322 187.988348 
L 243.534126 195.185683 
L 243.912305 186.212999 
L 244.243211 170.962226 
L 244.574117 187.345563 
L 244.905023 186.053323 
L 245.235929 198.533649 
L 245.566836 197.622251 
L 245.945014 204.627832 
L 246.27592 191.078091 
L 246.606826 185.756051 
L 246.937733 189.895312 
L 247.268639 177.627263 
L 247.599545 197.612013 
L 247.930451 202.922675 
L 248.261357 189.126086 
L 248.592263 186.160047 
L 248.970442 164.036562 
L 249.301348 151.76828 
L 249.632254 180.293464 
L 249.96316 128.852563 
L 250.294066 193.690626 
L 250.624973 192.460011 
L 250.955879 187.505018 
L 251.286785 156.995867 
L 251.617691 195.853268 
L 251.948597 196.939071 
L 252.657682 178.411796 
L 252.988588 191.611497 
L 253.319494 179.304629 
L 253.6504 197.919771 
L 254.123123 192.448857 
L 254.501302 190.793352 
L 254.832208 185.733812 
L 255.210387 199.606868 
L 255.541293 192.587313 
L 255.872199 195.121052 
L 256.203105 203.978925 
L 256.581284 196.975431 
L 256.91219 204.610885 
L 257.243096 199.705783 
L 257.574002 205.160472 
L 257.904908 201.826033 
L 258.235814 200.800116 
L 258.56672 191.551725 
L 258.944899 189.213178 
L 259.606711 197.727764 
L 259.937617 194.519241 
L 260.268524 204.142323 
L 260.59943 200.326543 
L 260.930336 200.389168 
L 261.261242 205.029136 
L 261.733965 195.969471 
L 262.064871 194.477023 
L 262.395778 190.812199 
L 262.726684 200.173913 
L 263.104862 191.975294 
L 263.435768 204.233981 
L 263.766674 194.690671 
L 264.097581 202.445804 
L 264.428487 196.74212 
L 264.759393 199.476056 
L 265.421205 211.351019 
L 265.752111 192.177688 
L 266.13029 196.85334 
L 266.461196 204.747096 
L 266.792102 195.381376 
L 267.453915 199.826734 
L 267.784821 193.308098 
L 268.115727 199.165568 
L 268.446633 200.379904 
L 268.777539 163.94536 
L 269.108445 195.445171 
L 269.439352 192.38013 
L 269.770258 202.213815 
L 270.148436 195.859076 
L 270.479342 192.520551 
L 270.810249 201.736964 
L 271.141155 194.054361 
L 271.519333 209.907692 
L 271.850239 192.880251 
L 272.181145 202.238472 
L 272.653869 197.375177 
L 272.984775 199.147046 
L 273.315681 199.124017 
L 273.646587 207.546206 
L 274.024766 207.08387 
L 274.355672 191.378839 
L 274.686578 201.945553 
L 275.017484 203.480213 
L 275.34839 199.496105 
L 275.679296 196.939148 
L 276.010202 203.100687 
L 276.341109 204.509726 
L 276.672015 203.391375 
L 277.050193 206.7444 
L 277.381099 198.351346 
L 277.712006 193.445333 
L 278.042912 202.307459 
L 278.373818 199.980576 
L 278.751996 198.174352 
L 279.744715 203.188277 
L 280.075621 206.610845 
L 280.4538 200.746187 
L 281.115612 207.842246 
L 281.777424 203.094579 
L 282.10833 205.058903 
L 282.439236 205.957371 
L 282.770143 203.493376 
L 283.101049 195.221956 
L 283.573772 205.834371 
L 283.904678 198.062295 
L 284.235584 204.973787 
L 284.56649 205.743549 
L 284.897397 201.3103 
L 285.228303 195.304596 
L 285.559209 201.972037 
L 285.890115 182.451844 
L 286.221021 202.347957 
L 286.551927 202.133914 
L 286.882834 199.513354 
L 287.261012 186.233372 
L 287.591918 198.748903 
L 287.922824 200.925991 
L 288.25373 201.268023 
L 288.631909 207.562256 
L 289.010087 197.7369 
L 289.719172 192.241298 
L 290.380984 178.904124 
L 290.711891 201.877698 
L 291.042797 187.274347 
L 291.51552 202.816975 
L 291.846426 186.035356 
L 292.177332 202.155239 
L 292.508238 207.165307 
L 292.839144 201.881809 
L 293.170051 206.926019 
L 293.548229 200.189005 
L 293.879135 201.818145 
L 294.210041 198.796396 
L 294.871854 190.729665 
L 295.20276 199.035333 
L 295.533666 187.1935 
L 295.911845 198.168616 
L 296.242751 196.547535 
L 296.573657 195.525565 
L 296.904563 171.939033 
L 297.235469 207.671389 
L 297.613648 200.658909 
L 297.944554 184.873605 
L 298.27546 194.498014 
L 298.606366 198.411214 
L 298.937272 181.652949 
L 299.268178 205.314033 
L 299.599085 192.150965 
L 299.929991 206.046014 
L 300.260897 195.689399 
L 300.639075 199.548389 
L 300.969982 190.60677 
L 301.300888 197.8372 
L 301.631794 190.689617 
L 301.9627 195.11551 
L 302.293606 204.681889 
L 302.624512 198.238313 
L 302.955419 198.265337 
L 303.475414 187.061874 
L 303.80632 196.491728 
L 304.137226 200.63769 
L 304.846311 197.352503 
L 305.177217 207.626916 
L 305.886302 197.363878 
L 306.26448 193.890672 
L 306.595386 195.657312 
L 306.926293 206.877146 
L 307.399016 201.214889 
L 307.729922 201.784597 
L 308.060828 199.673184 
L 308.439006 194.595938 
L 308.769913 203.335268 
L 309.100819 206.705558 
L 309.431725 203.094431 
L 309.762631 206.366135 
L 310.093537 203.887102 
L 310.471716 204.310219 
L 310.802622 199.420282 
L 311.133528 204.445331 
L 311.464434 196.699205 
L 311.79534 197.239453 
L 312.126246 193.446052 
L 312.457153 204.352114 
L 312.788059 198.348577 
L 313.166237 203.323862 
L 313.497143 201.922421 
L 313.82805 205.620479 
L 314.158956 198.656108 
L 314.86804 204.542173 
L 315.198947 200.120793 
L 315.529853 199.158978 
L 316.191665 206.8964 
L 316.853477 202.840541 
L 317.184384 202.334965 
L 317.51529 208.272649 
L 317.988013 200.252322 
L 318.318919 206.721482 
L 318.649825 207.653065 
L 318.980731 201.614593 
L 319.311637 201.091642 
L 319.642544 206.451697 
L 319.97345 207.544699 
L 320.304356 199.024075 
L 320.635262 199.678663 
L 320.966168 212.181146 
L 321.297074 205.357135 
L 321.627981 202.93351 
L 322.006159 208.668229 
L 322.337065 200.988529 
L 322.667971 203.265959 
L 322.998878 198.823764 
L 323.424328 198.831876 
L 323.755234 200.82975 
L 324.086141 200.092711 
L 324.464319 189.191509 
L 324.795225 165.199242 
L 325.126131 178.222776 
L 325.457038 184.827531 
L 325.929761 162.969078 
L 326.260667 190.843928 
L 327.253385 206.673581 
L 327.584292 195.683931 
L 327.915198 202.312377 
L 328.246104 206.054131 
L 328.624282 200.386822 
L 328.955188 203.677368 
L 329.286095 204.10538 
L 329.617001 207.538789 
L 329.947907 205.310582 
L 330.326085 199.865885 
L 330.656992 207.62045 
L 330.987898 205.097381 
L 331.318804 197.475525 
L 331.64971 204.088161 
L 331.980616 202.546044 
L 332.689701 202.040722 
L 333.020607 202.429161 
L 333.351513 204.944045 
L 333.682419 205.576318 
L 334.013326 199.78393 
L 334.344232 199.956673 
L 334.675138 203.763283 
L 335.053316 202.762954 
L 335.384222 199.019318 
L 335.715129 201.591937 
L 336.046035 206.187902 
L 336.376941 195.831615 
L 337.038753 205.128924 
L 337.369659 205.412252 
L 337.700566 203.068005 
L 338.031472 201.99393 
L 338.362378 198.786035 
L 338.693284 183.949014 
L 339.166007 191.318493 
L 339.496913 191.188443 
L 339.82782 197.655127 
L 340.158726 187.310578 
L 340.536904 189.577489 
L 340.915083 187.508821 
L 341.245989 181.091699 
L 341.624167 181.164598 
L 341.955073 185.143362 
L 342.28598 199.846109 
L 342.616886 196.009145 
L 342.995064 199.646097 
L 343.32597 193.308652 
L 343.656877 204.319205 
L 343.987783 191.280952 
L 344.318689 193.891816 
L 344.649595 202.128779 
L 345.122318 198.231975 
L 345.453224 202.735431 
L 345.78413 195.87301 
L 346.115037 202.509286 
L 346.445943 202.303184 
L 346.776849 195.082292 
L 347.107755 205.006627 
L 347.485934 205.203299 
L 347.81684 200.164093 
L 348.147746 193.297956 
L 348.478652 195.126269 
L 348.809558 202.899961 
L 349.140464 200.83239 
L 349.518643 205.187046 
L 350.180455 203.287114 
L 350.511361 201.559453 
L 350.842267 198.526577 
L 351.173174 205.494107 
L 351.50408 199.774296 
L 351.834986 202.985351 
L 352.165892 201.401278 
L 352.544071 198.793219 
L 353.205883 207.511962 
L 353.536789 202.887752 
L 353.867695 211.245157 
L 354.198601 204.032478 
L 354.529508 204.003843 
L 354.860414 167.419055 
L 355.19132 197.061771 
L 355.522226 203.357059 
L 355.853132 197.161755 
L 356.231311 194.192094 
L 356.562217 204.164208 
L 356.893123 200.179873 
L 357.224029 200.861774 
L 357.696752 188.288176 
L 358.074931 181.942559 
L 358.405837 185.583417 
L 358.784015 196.793822 
L 359.114922 211.389769 
L 359.445828 184.193752 
L 360.154912 198.529128 
L 360.485819 202.335382 
L 360.816725 190.399946 
L 361.147631 211.343629 
L 361.478537 205.596926 
L 361.809443 197.728902 
L 362.187622 198.113829 
L 362.518528 193.583592 
L 362.849434 190.621277 
L 363.18034 194.20742 
L 363.511246 191.115153 
L 363.842152 190.321644 
L 364.173059 201.534079 
L 364.503965 200.065695 
L 364.834871 182.168706 
L 365.307594 200.29771 
L 365.6385 195.590962 
L 365.969406 201.23198 
L 366.300313 201.134161 
L 366.678491 180.47997 
L 367.009397 202.008396 
L 367.340303 208.814353 
L 368.002116 188.61158 
L 368.333022 194.635829 
L 368.663928 205.666188 
L 368.994834 196.739213 
L 369.32574 206.759573 
L 369.703919 200.658897 
L 370.034825 197.822223 
L 370.365731 204.159817 
L 370.696637 205.355607 
L 371.027543 204.172936 
L 371.405722 199.690371 
L 371.736628 206.297925 
L 372.067534 197.510616 
L 372.39844 174.033534 
L 372.729347 192.083722 
L 373.107525 193.983237 
L 373.580248 204.627571 
L 373.911154 195.021178 
L 374.24206 192.726094 
L 374.572967 203.365024 
L 374.951145 186.948915 
L 375.329324 180.173356 
L 375.66023 189.57777 
L 376.038408 195.856992 
L 376.369314 196.759666 
L 376.70022 196.801893 
L 377.031127 199.619866 
L 377.362033 203.901852 
L 377.740211 185.437004 
L 378.071117 206.718459 
L 378.402024 200.11815 
L 378.73293 198.937336 
L 379.063836 200.925783 
L 379.394742 206.146703 
L 379.725648 195.232738 
L 380.529277 206.909986 
L 380.860184 200.295529 
L 381.521996 202.510764 
L 381.852902 198.875523 
L 382.561987 203.403657 
L 382.892893 208.305306 
L 383.223799 194.565739 
L 383.554705 204.9632 
L 384.26379 199.320442 
L 384.594696 205.997034 
L 384.925602 204.060983 
L 385.256508 198.15845 
L 385.587415 206.631414 
L 385.918321 201.927078 
L 386.249227 204.714014 
L 386.580133 205.573137 
L 386.958312 199.203322 
L 387.289218 200.856446 
L 387.620124 194.855654 
L 387.95103 206.16355 
L 388.281936 204.00104 
L 388.612842 200.387748 
L 388.943748 202.294287 
L 389.274655 202.840268 
L 389.605561 185.743168 
L 389.936467 202.89975 
L 390.267373 208.337931 
L 390.976458 190.024239 
L 391.307364 199.158284 
L 391.63827 195.514839 
L 391.969176 194.617882 
L 392.489172 197.80024 
L 392.820078 195.375674 
L 393.198256 193.7674 
L 393.529162 195.611624 
L 393.860069 174.194253 
L 394.190975 200.90624 
L 394.521881 200.812476 
L 395.230966 208.120398 
L 395.561872 208.222537 
L 395.892778 204.608755 
L 396.223684 207.712371 
L 396.55459 205.589467 
L 396.932769 205.654746 
L 397.263675 206.745106 
L 397.594581 201.195794 
L 397.925487 206.082363 
L 398.256393 206.879342 
L 398.5873 206.063636 
L 398.918206 207.588016 
L 399.249112 203.341906 
L 399.721835 203.673387 
L 400.052741 204.765527 
L 400.383647 204.341155 
L 400.714553 204.684349 
L 401.04546 203.657687 
L 401.423638 208.077617 
L 401.754544 206.51947 
L 402.416357 207.063703 
L 402.747263 207.014725 
L 403.078169 208.143348 
L 403.409075 207.18457 
L 403.739981 209.495833 
L 404.11816 202.012955 
L 404.449066 209.482282 
L 404.779972 199.575674 
L 405.110878 203.195627 
L 405.441784 203.404748 
L 405.77269 200.645684 
L 406.103597 200.572318 
L 406.434503 196.876018 
L 406.765409 207.101361 
L 407.427221 174.291596 
L 407.758127 149.825916 
L 408.136306 181.834978 
L 408.514484 189.667187 
L 408.845391 191.240437 
L 409.176297 171.200327 
L 409.64902 171.371905 
L 410.027198 199.41841 
L 410.358104 172.620232 
L 410.736283 176.680165 
L 411.067189 182.638136 
L 411.398095 205.298065 
L 411.729001 193.910306 
L 412.10718 205.438956 
L 412.438086 200.416966 
L 412.768992 206.554664 
L 413.099898 202.535563 
L 413.430805 203.320013 
L 413.761711 207.770648 
L 414.092617 205.61013 
L 414.423523 207.093169 
L 414.754429 207.625555 
L 415.132608 201.712384 
L 415.463514 206.082085 
L 415.79442 203.661706 
L 416.125326 204.8101 
L 416.456232 201.407994 
L 416.928955 199.990354 
L 417.259862 205.1796 
L 417.590768 201.566108 
L 417.921674 192.070555 
L 418.25258 206.620118 
L 418.630758 197.94649 
L 418.961665 199.977716 
L 419.292571 204.143142 
L 419.623477 201.784756 
L 419.954383 193.736384 
L 420.285289 204.226645 
L 420.616195 201.512261 
L 420.947102 200.654722 
L 421.32528 204.324628 
L 421.656186 201.79885 
L 421.987092 204.870567 
L 422.317999 204.306061 
L 422.648905 208.386025 
L 422.979811 199.042512 
L 423.310717 201.747964 
L 423.641623 201.968046 
L 423.972529 196.146608 
L 424.634342 199.553392 
L 425.296154 193.197947 
L 425.674333 181.76894 
L 426.336145 205.476156 
L 426.714323 184.315414 
L 427.187046 203.763951 
L 427.517953 206.226224 
L 427.896131 201.100152 
L 428.227037 206.130168 
L 428.557943 199.24276 
L 428.88885 199.290871 
L 429.267028 191.843349 
L 429.597934 202.436709 
L 430.259746 181.002716 
L 430.590653 193.694421 
L 430.921559 198.376169 
L 431.252465 197.660269 
L 431.583371 183.778646 
L 431.96155 190.494887 
L 432.292456 170.835537 
L 432.623362 190.971727 
L 432.954268 173.880756 
L 433.285174 187.568727 
L 433.61608 184.141356 
L 434.325165 198.72397 
L 434.656071 198.733434 
L 434.986977 198.079112 
L 435.317884 194.545756 
L 435.790607 174.883202 
L 436.121513 197.100309 
L 436.452419 198.036132 
L 436.783325 191.882912 
L 437.114231 171.896805 
L 437.445137 193.778373 
L 437.776044 192.7997 
L 438.10695 196.571892 
L 438.437856 197.419033 
L 438.816034 187.874439 
L 439.146941 198.661779 
L 439.477847 181.064379 
L 439.808753 150.31427 
L 440.139659 187.472378 
L 440.470565 199.005406 
L 440.801471 182.731127 
L 441.132378 201.819147 
L 441.463284 177.9522 
L 441.79419 199.253389 
L 442.125096 183.096804 
L 442.456002 196.148459 
L 442.834181 195.828067 
L 443.165087 179.585616 
L 443.495993 201.47133 
L 443.826899 191.538772 
L 444.205078 175.696431 
L 444.583256 201.200569 
L 444.914162 202.00404 
L 445.386885 184.925921 
L 445.717791 178.074037 
L 446.048698 195.726804 
L 446.426876 192.0953 
L 446.757782 196.187354 
L 447.419595 208.382973 
L 447.750501 195.775111 
L 448.081407 200.134708 
L 448.412313 207.973782 
L 448.790492 196.135215 
L 449.121398 207.84742 
L 449.452304 204.273815 
L 449.78321 205.575517 
L 450.114116 208.6475 
L 450.445022 209.086264 
L 450.775929 195.672492 
L 451.106835 204.742367 
L 451.485013 201.087747 
L 451.815919 206.785292 
L 452.146826 196.535022 
L 452.477732 203.081798 
L 452.808638 205.505921 
L 453.186816 203.521476 
L 453.517722 203.733109 
L 453.848629 209.516698 
L 454.179535 198.653657 
L 454.510441 204.48356 
L 454.841347 205.123701 
L 455.172253 202.886735 
L 455.503159 193.726802 
L 455.834066 199.046169 
L 456.306789 186.392976 
L 456.637695 194.834983 
L 456.968601 182.458642 
L 457.299507 180.993633 
L 457.630413 170.893263 
L 457.961319 184.522691 
L 458.292226 186.265081 
L 458.623132 183.018877 
L 458.954038 190.338285 
L 459.284944 174.862345 
L 459.61585 183.321655 
L 459.994029 167.727968 
L 460.324935 178.205405 
L 460.655841 197.62217 
L 460.986747 200.218481 
L 461.364926 181.335394 
L 461.695832 171.394813 
L 462.026738 180.580854 
L 462.404917 181.279895 
L 462.735823 117.987812 
L 463.066729 111.072052 
L 463.397635 192.431914 
L 463.728541 180.468921 
L 464.10672 201.330186 
L 464.437626 193.934396 
L 464.768532 190.805585 
L 465.099438 192.491111 
L 465.430344 201.665277 
L 465.76125 195.702431 
L 466.092157 194.268679 
L 466.56488 199.57966 
L 466.895786 187.247503 
L 467.226692 186.951957 
L 467.557598 158.252251 
L 467.888504 199.713393 
L 468.219411 188.526044 
L 468.597589 193.352002 
L 468.928495 184.57955 
L 469.259401 165.797735 
L 469.63758 190.079092 
L 469.968486 183.095763 
L 470.346664 143.481086 
L 470.677571 178.285369 
L 471.008477 181.612665 
L 471.339383 182.481672 
L 471.670289 182.849732 
L 472.001195 181.603919 
L 472.332101 193.735281 
L 472.663008 193.935775 
L 472.993914 202.126412 
L 473.372092 190.896577 
L 473.702998 168.205797 
L 474.033905 189.016284 
L 474.364811 198.046233 
L 474.695717 189.929441 
L 475.026623 188.436963 
L 475.357529 199.656823 
L 475.688435 172.531647 
L 476.019342 156.328986 
L 476.350248 161.840923 
L 476.681154 204.528076 
L 477.153877 178.600529 
L 477.484783 170.788935 
L 477.815689 195.897119 
L 478.146595 162.113743 
L 478.524774 179.956425 
L 478.902952 172.636738 
L 479.233859 173.61826 
L 479.612037 180.590321 
L 479.942943 178.2212 
L 480.273849 165.456198 
L 480.604755 185.076016 
L 480.935662 183.91762 
L 481.31384 170.899076 
L 481.644746 181.907635 
L 481.975652 169.03419 
L 482.306559 178.507669 
L 482.968371 183.10498 
L 483.441094 177.962695 
L 483.772 181.805311 
L 484.102906 190.574385 
L 484.433812 170.314404 
L 484.764719 191.094557 
L 485.095625 194.857868 
L 485.426531 178.352152 
L 485.804709 182.52498 
L 486.135616 194.556034 
L 486.466522 195.843547 
L 486.8447 183.566577 
L 487.175606 190.102192 
L 487.553785 193.998128 
L 487.884691 194.597723 
L 488.215597 194.108177 
L 488.546503 195.606664 
L 488.87741 190.186277 
L 489.208316 182.131122 
L 489.539222 197.972982 
L 489.870128 197.779666 
L 490.201034 189.127375 
L 490.579213 191.373675 
L 490.910119 195.511571 
L 491.241025 189.135957 
L 491.571931 196.130423 
L 491.902837 190.160606 
L 492.233743 203.835906 
L 492.56465 205.31476 
L 492.895556 196.061294 
L 493.226462 190.593905 
L 493.557368 196.824922 
L 493.888274 188.645896 
L 494.21918 201.002245 
L 494.550087 198.146388 
L 494.880993 196.49562 
L 495.211899 186.568893 
L 495.542805 198.428081 
L 496.0628 198.789908 
L 496.393707 202.989598 
L 496.771885 168.353901 
L 497.102791 177.517382 
L 497.433697 158.86605 
L 497.764604 201.680163 
L 498.09551 208.423894 
L 498.473688 177.770239 
L 498.804594 160.896279 
L 499.135501 190.342572 
L 499.466407 193.677234 
L 499.797313 193.703024 
L 500.128219 184.770161 
L 500.506398 196.371955 
L 500.837304 191.089626 
L 501.16821 196.190972 
L 501.499116 186.934676 
L 501.830022 151.303262 
L 502.160928 196.711898 
L 502.491834 196.864999 
L 502.822741 178.407435 
L 503.295464 191.319055 
L 503.62637 184.878255 
L 504.335455 188.051979 
L 504.335455 188.051979 
" clip-path="url(#pb06a669f89)" style="fill: none; stroke: #808080; stroke-width: 1.5; stroke-linecap: square"/>
   </g>
   <g id="line2d_26">
    <path d="M 110.651666 129.911948 
L 119.586132 99.235576 
L 128.14242 76.682009 
L 136.793253 64.671133 
L 145.349541 77.527 
L 154.189462 98.176998 
L 162.793023 108.686059 
L 171.443855 127.264541 
L 180.000143 130.035585 
L 188.650976 121.871876 
L 197.207264 126.686852 
L 205.858096 109.273409 
L 214.414384 96.313265 
L 223.017944 137.211844 
L 231.479687 136.218902 
L 240.083248 119.522324 
L 248.592263 84.408906 
L 257.243096 116.625572 
L 265.752111 99.387936 
L 274.355672 98.239133 
L 282.770143 123.792099 
L 291.51552 139.98777 
L 299.929991 158.694651 
L 308.769913 114.446737 
L 317.184384 98.074214 
L 325.929761 69.691707 
L 334.344232 72.984062 
L 342.995064 52.731 
L 351.50408 126.209038 
L 360.154912 128.660715 
L 368.663928 139.122825 
L 377.362033 140.046934 
L 385.918321 127.516754 
L 394.521881 93.722799 
L 403.078169 91.307241 
L 411.729001 73.762243 
L 420.285289 68.257239 
L 428.88885 128.605445 
L 437.445137 121.640694 
L 446.048698 77.746827 
L 454.510441 98.633018 
L 463.066729 89.320795 
L 471.670289 103.3768 
L 480.273849 99.442845 
" clip-path="url(#pb06a669f89)" style="fill: none; stroke-dasharray: 1.5,2.475; stroke-dashoffset: 0; stroke: #ff0000; stroke-width: 1.5"/>
   </g>
   <g id="line2d_27">
    <path d="M 110.651666 210.932253 
L 119.586132 206.53146 
L 128.14242 212.440332 
L 136.793253 226.461422 
L 145.349541 194.040468 
L 154.189462 189.081865 
L 162.793023 190.462918 
L 171.443855 213.757811 
L 180.000143 260.212925 
L 188.650976 290.871 
L 197.207264 269.075013 
L 205.858096 269.851589 
L 214.414384 258.189147 
L 223.017944 194.991602 
L 231.479687 189.698032 
L 240.083248 180.494938 
L 248.592263 200.750546 
L 257.243096 206.85524 
L 265.752111 214.966675 
L 274.355672 217.023349 
L 282.770143 240.825293 
L 291.51552 237.853616 
L 299.929991 260.219232 
L 308.769913 218.883744 
L 317.184384 181.144867 
L 325.929761 149.250549 
L 334.344232 152.126222 
L 342.995064 170.457089 
L 351.50408 159.735889 
L 360.154912 174.694034 
L 368.663928 184.010583 
L 377.362033 200.891399 
L 385.918321 194.559202 
L 394.521881 168.051477 
L 403.078169 182.305235 
L 411.729001 193.735818 
L 420.285289 203.670702 
L 428.88885 243.640632 
L 437.445137 247.018598 
L 446.048698 228.15244 
L 454.510441 176.887432 
L 463.066729 152.866406 
L 471.670289 148.147745 
L 480.273849 187.809898 
" clip-path="url(#pb06a669f89)" style="fill: none; stroke-dasharray: 9.6,2.4,1.5,2.4; stroke-dashoffset: 0; stroke: #ff0000; stroke-width: 1.5"/>
   </g>
   <g id="line2d_28">
    <path d="M 110.651666 184.473931 
L 119.586132 221.283634 
L 128.14242 211.267819 
L 136.793253 210.472771 
L 145.349541 189.823885 
L 154.189462 195.90141 
L 162.793023 185.366095 
L 171.443855 219.363852 
L 180.000143 221.407306 
L 188.650976 216.109714 
L 197.207264 203.628845 
L 205.858096 195.031758 
L 214.414384 210.594242 
L 223.017944 212.974583 
L 231.479687 220.490779 
L 240.083248 211.952908 
L 248.592263 205.496515 
L 257.243096 215.65632 
L 265.752111 226.22023 
L 274.355672 233.403665 
L 282.770143 225.711923 
L 291.51552 209.145758 
L 299.929991 207.655366 
L 308.769913 229.633361 
L 317.184384 177.801255 
L 325.929761 175.368882 
L 334.344232 159.5423 
L 342.995064 209.015681 
L 351.50408 203.756274 
L 360.154912 223.10941 
L 368.663928 210.172887 
L 377.362033 223.101392 
L 385.918321 193.99981 
L 394.521881 214.097521 
L 403.078169 156.799072 
L 411.729001 170.232412 
L 420.285289 174.876314 
L 428.88885 222.21619 
L 437.445137 203.564701 
L 446.048698 213.587761 
L 454.510441 206.723417 
L 463.066729 194.921995 
L 471.670289 189.310485 
L 480.273849 209.512166 
" clip-path="url(#pb06a669f89)" style="fill: none; stroke-dasharray: 5.55,2.4; stroke-dashoffset: 0; stroke: #ff0000; stroke-width: 1.5"/>
   </g>
   <g id="line2d_29">
    <path d="M 110.651666 190.033681 
L 119.586132 201.054106 
L 128.14242 204.112437 
L 136.793253 200.572479 
L 145.349541 204.491142 
L 154.189462 172.047852 
L 162.793023 178.030289 
L 171.443855 200.353166 
L 180.000143 205.221412 
L 188.650976 208.719548 
L 197.207264 206.878196 
L 205.858096 206.363938 
L 214.414384 199.535261 
L 223.017944 201.430483 
L 231.479687 205.054452 
L 240.083248 200.221657 
L 248.592263 193.450247 
L 257.243096 203.887549 
L 265.752111 207.404363 
L 274.355672 203.218746 
L 282.770143 209.746059 
L 291.51552 208.48215 
L 299.929991 209.39979 
L 308.769913 186.062933 
L 317.184384 160.957235 
L 325.929761 156.64075 
L 334.344232 158.090318 
L 342.995064 152.500036 
L 351.50408 203.674221 
L 360.154912 208.44606 
L 368.663928 208.526437 
L 377.362033 208.880996 
L 385.918321 201.024583 
L 394.521881 176.929284 
L 403.078169 170.084312 
L 411.729001 170.558355 
L 420.285289 164.409908 
L 428.88885 209.737925 
L 437.445137 202.990308 
L 446.048698 144.331131 
L 454.510441 192.108166 
L 463.066729 192.62546 
L 471.670289 195.6943 
L 480.273849 165.957875 
" clip-path="url(#pb06a669f89)" style="fill: none; stroke: #ff0000; stroke-width: 1.5; stroke-linecap: square"/>
   </g>
   <g id="line2d_30">
    <path d="M 110.651666 183.176078 
L 119.586132 191.612865 
L 128.14242 199.937245 
L 136.793253 195.392019 
L 145.349541 189.41112 
L 154.189462 180.19685 
L 162.793023 175.520315 
L 171.443855 191.055864 
L 180.000143 196.375084 
L 188.650976 211.598012 
L 197.207264 206.73558 
L 205.858096 204.046389 
L 214.414384 190.959734 
L 223.017944 195.805075 
L 231.479687 203.1469 
L 240.083248 199.932202 
L 248.592263 196.078298 
L 257.243096 198.124406 
L 265.752111 198.611832 
L 274.355672 206.972892 
L 282.770143 205.905822 
L 291.51552 210.008269 
L 299.929991 213.491697 
L 308.769913 205.807427 
L 317.184384 166.86961 
L 325.929761 159.983798 
L 334.344232 155.105044 
L 342.995064 169.247805 
L 351.50408 190.724352 
L 360.154912 202.622481 
L 368.663928 204.29651 
L 377.362033 202.302395 
L 385.918321 193.279262 
L 394.521881 166.498386 
L 403.078169 157.9042 
L 411.729001 160.048519 
L 420.285289 175.681953 
L 428.88885 209.907457 
L 437.445137 202.769629 
L 446.048698 177.453639 
L 454.510441 173.445206 
L 463.066729 175.723219 
L 471.670289 183.916768 
L 480.273849 185.801001 
" clip-path="url(#pb06a669f89)" style="fill: none; stroke: #ff7f0e; stroke-width: 1.5; stroke-linecap: square"/>
   </g>
   <g id="line2d_31">
    <path d="M 110.651666 187.41765 
L 119.586132 180.691756 
L 128.14242 189.390805 
L 136.793253 186.372323 
L 145.349541 181.425034 
L 154.189462 177.758455 
L 162.793023 183.083981 
L 171.443855 195.964801 
L 180.000143 203.246724 
L 188.650976 204.465582 
L 197.207264 202.848345 
L 205.858096 198.602009 
L 214.414384 198.877153 
L 223.017944 195.796033 
L 231.479687 197.408917 
L 240.083248 188.53878 
L 248.592263 189.539234 
L 257.243096 195.992829 
L 265.752111 202.428997 
L 274.355672 196.855479 
L 282.770143 204.683876 
L 291.51552 200.261183 
L 299.929991 206.352058 
L 308.769913 192.191603 
L 317.184384 167.963488 
L 325.929761 160.022795 
L 334.344232 162.441059 
L 342.995064 148.64306 
L 351.50408 191.984718 
L 360.154912 198.925868 
L 368.663928 202.706265 
L 377.362033 202.345369 
L 385.918321 195.263161 
L 394.521881 180.805335 
L 403.078169 170.039043 
L 411.729001 169.662254 
L 420.285289 177.627266 
L 428.88885 198.187899 
L 437.445137 194.637327 
L 446.048698 173.484232 
L 454.510441 182.054033 
L 463.066729 178.927373 
L 471.670289 183.120748 
L 480.273849 165.005902 
" clip-path="url(#pb06a669f89)" style="fill: none; stroke: #1f77b4; stroke-width: 1.5; stroke-linecap: square"/>
   </g>
   <g id="legend_1">
    <g id="patch_7">
     <path d="M 79.9 151.570875 
L 198.232812 151.570875 
Q 200.232812 151.570875 200.232812 149.570875 
L 200.232812 47.824 
Q 200.232812 45.824 198.232812 45.824 
L 79.9 45.824 
Q 77.9 45.824 77.9 47.824 
L 77.9 149.570875 
Q 77.9 151.570875 79.9 151.570875 
z
" style="fill: #ffffff; opacity: 0.8; stroke: #e6e6e6; stroke-linejoin: miter"/>
    </g>
    <g id="line2d_32">
     <path d="M 81.9 53.922438 
L 91.9 53.922438 
L 101.9 53.922438 
" style="fill: none; stroke: #808080; stroke-width: 1.5; stroke-linecap: square"/>
    </g>
    <g id="text_15">
     <!-- Gas Log-Volatility -->
     <g transform="translate(109.9 57.422438)scale(0.1 -0.1)">
      <defs>
       <path id="DejaVuSans-47" d="M 3809 666 
L 3809 1919 
L 2778 1919 
L 2778 2438 
L 4434 2438 
L 4434 434 
Q 4069 175 3628 42 
Q 3188 -91 2688 -91 
Q 1594 -91 976 548 
Q 359 1188 359 2328 
Q 359 3472 976 4111 
Q 1594 4750 2688 4750 
Q 3144 4750 3555 4637 
Q 3966 4525 4313 4306 
L 4313 3634 
Q 3963 3931 3569 4081 
Q 3175 4231 2741 4231 
Q 1884 4231 1454 3753 
Q 1025 3275 1025 2328 
Q 1025 1384 1454 906 
Q 1884 428 2741 428 
Q 3075 428 3337 486 
Q 3600 544 3809 666 
z
" transform="scale(0.015625)"/>
       <path id="DejaVuSans-4c" d="M 628 4666 
L 1259 4666 
L 1259 531 
L 3531 531 
L 3531 0 
L 628 0 
L 628 4666 
z
" transform="scale(0.015625)"/>
       <path id="DejaVuSans-67" d="M 2906 1791 
Q 2906 2416 2648 2759 
Q 2391 3103 1925 3103 
Q 1463 3103 1205 2759 
Q 947 2416 947 1791 
Q 947 1169 1205 825 
Q 1463 481 1925 481 
Q 2391 481 2648 825 
Q 2906 1169 2906 1791 
z
M 3481 434 
Q 3481 -459 3084 -895 
Q 2688 -1331 1869 -1331 
Q 1566 -1331 1297 -1286 
Q 1028 -1241 775 -1147 
L 775 -588 
Q 1028 -725 1275 -790 
Q 1522 -856 1778 -856 
Q 2344 -856 2625 -561 
Q 2906 -266 2906 331 
L 2906 616 
Q 2728 306 2450 153 
Q 2172 0 1784 0 
Q 1141 0 747 490 
Q 353 981 353 1791 
Q 353 2603 747 3093 
Q 1141 3584 1784 3584 
Q 2172 3584 2450 3431 
Q 2728 3278 2906 2969 
L 2906 3500 
L 3481 3500 
L 3481 434 
z
" transform="scale(0.015625)"/>
      </defs>
      <use xlink:href="#DejaVuSans-47"/>
      <use xlink:href="#DejaVuSans-61" x="77.490234"/>
      <use xlink:href="#DejaVuSans-73" x="138.769531"/>
      <use xlink:href="#DejaVuSans-20" x="190.869141"/>
      <use xlink:href="#DejaVuSans-4c" x="222.65625"/>
      <use xlink:href="#DejaVuSans-6f" x="276.619141"/>
      <use xlink:href="#DejaVuSans-67" x="337.800781"/>
      <use xlink:href="#DejaVuSans-2d" x="401.277344"/>
      <use xlink:href="#DejaVuSans-56" x="431.486328"/>
      <use xlink:href="#DejaVuSans-6f" x="492.144531"/>
      <use xlink:href="#DejaVuSans-6c" x="553.326172"/>
      <use xlink:href="#DejaVuSans-61" x="581.109375"/>
      <use xlink:href="#DejaVuSans-74" x="642.388672"/>
      <use xlink:href="#DejaVuSans-69" x="681.597656"/>
      <use xlink:href="#DejaVuSans-6c" x="709.380859"/>
      <use xlink:href="#DejaVuSans-69" x="737.164062"/>
      <use xlink:href="#DejaVuSans-74" x="764.947266"/>
      <use xlink:href="#DejaVuSans-79" x="804.15625"/>
     </g>
    </g>
    <g id="line2d_33">
     <path d="M 81.9 68.600563 
L 91.9 68.600563 
L 101.9 68.600563 
" style="fill: none; stroke-dasharray: 1.5,2.475; stroke-dashoffset: 0; stroke: #ff0000; stroke-width: 1.5"/>
    </g>
    <g id="text_16">
     <!-- R/S Hurst -->
     <g transform="translate(109.9 72.100563)scale(0.1 -0.1)">
      <defs>
       <path id="DejaVuSans-52" d="M 2841 2188 
Q 3044 2119 3236 1894 
Q 3428 1669 3622 1275 
L 4263 0 
L 3584 0 
L 2988 1197 
Q 2756 1666 2539 1819 
Q 2322 1972 1947 1972 
L 1259 1972 
L 1259 0 
L 628 0 
L 628 4666 
L 2053 4666 
Q 2853 4666 3247 4331 
Q 3641 3997 3641 3322 
Q 3641 2881 3436 2590 
Q 3231 2300 2841 2188 
z
M 1259 4147 
L 1259 2491 
L 2053 2491 
Q 2509 2491 2742 2702 
Q 2975 2913 2975 3322 
Q 2975 3731 2742 3939 
Q 2509 4147 2053 4147 
L 1259 4147 
z
" transform="scale(0.015625)"/>
       <path id="DejaVuSans-2f" d="M 1625 4666 
L 2156 4666 
L 531 -594 
L 0 -594 
L 1625 4666 
z
" transform="scale(0.015625)"/>
       <path id="DejaVuSans-53" d="M 3425 4513 
L 3425 3897 
Q 3066 4069 2747 4153 
Q 2428 4238 2131 4238 
Q 1616 4238 1336 4038 
Q 1056 3838 1056 3469 
Q 1056 3159 1242 3001 
Q 1428 2844 1947 2747 
L 2328 2669 
Q 3034 2534 3370 2195 
Q 3706 1856 3706 1288 
Q 3706 609 3251 259 
Q 2797 -91 1919 -91 
Q 1588 -91 1214 -16 
Q 841 59 441 206 
L 441 856 
Q 825 641 1194 531 
Q 1563 422 1919 422 
Q 2459 422 2753 634 
Q 3047 847 3047 1241 
Q 3047 1584 2836 1778 
Q 2625 1972 2144 2069 
L 1759 2144 
Q 1053 2284 737 2584 
Q 422 2884 422 3419 
Q 422 4038 858 4394 
Q 1294 4750 2059 4750 
Q 2388 4750 2728 4690 
Q 3069 4631 3425 4513 
z
" transform="scale(0.015625)"/>
      </defs>
      <use xlink:href="#DejaVuSans-52"/>
      <use xlink:href="#DejaVuSans-2f" x="69.482422"/>
      <use xlink:href="#DejaVuSans-53" x="103.173828"/>
      <use xlink:href="#DejaVuSans-20" x="166.650391"/>
      <use xlink:href="#DejaVuSans-48" x="198.4375"/>
      <use xlink:href="#DejaVuSans-75" x="273.632812"/>
      <use xlink:href="#DejaVuSans-72" x="337.011719"/>
      <use xlink:href="#DejaVuSans-73" x="378.125"/>
      <use xlink:href="#DejaVuSans-74" x="430.224609"/>
     </g>
    </g>
    <g id="line2d_34">
     <path d="M 81.9 83.278687 
L 91.9 83.278687 
L 101.9 83.278687 
" style="fill: none; stroke-dasharray: 9.6,2.4,1.5,2.4; stroke-dashoffset: 0; stroke: #ff0000; stroke-width: 1.5"/>
    </g>
    <g id="text_17">
     <!-- variogram Hurst -->
     <g transform="translate(109.9 86.778687)scale(0.1 -0.1)">
      <defs>
       <path id="DejaVuSans-76" d="M 191 3500 
L 800 3500 
L 1894 563 
L 2988 3500 
L 3597 3500 
L 2284 0 
L 1503 0 
L 191 3500 
z
" transform="scale(0.015625)"/>
      </defs>
      <use xlink:href="#DejaVuSans-76"/>
      <use xlink:href="#DejaVuSans-61" x="59.179688"/>
      <use xlink:href="#DejaVuSans-72" x="120.458984"/>
      <use xlink:href="#DejaVuSans-69" x="161.572266"/>
      <use xlink:href="#DejaVuSans-6f" x="189.355469"/>
      <use xlink:href="#DejaVuSans-67" x="250.537109"/>
      <use xlink:href="#DejaVuSans-72" x="314.013672"/>
      <use xlink:href="#DejaVuSans-61" x="355.126953"/>
      <use xlink:href="#DejaVuSans-6d" x="416.40625"/>
      <use xlink:href="#DejaVuSans-20" x="513.818359"/>
      <use xlink:href="#DejaVuSans-48" x="545.605469"/>
      <use xlink:href="#DejaVuSans-75" x="620.800781"/>
      <use xlink:href="#DejaVuSans-72" x="684.179688"/>
      <use xlink:href="#DejaVuSans-73" x="725.292969"/>
      <use xlink:href="#DejaVuSans-74" x="777.392578"/>
     </g>
    </g>
    <g id="line2d_35">
     <path d="M 81.9 97.956813 
L 91.9 97.956813 
L 101.9 97.956813 
" style="fill: none; stroke-dasharray: 5.55,2.4; stroke-dashoffset: 0; stroke: #ff0000; stroke-width: 1.5"/>
    </g>
    <g id="text_18">
     <!-- Higuchi Hurst -->
     <g transform="translate(109.9 101.456813)scale(0.1 -0.1)">
      <defs>
       <path id="DejaVuSans-63" d="M 3122 3366 
L 3122 2828 
Q 2878 2963 2633 3030 
Q 2388 3097 2138 3097 
Q 1578 3097 1268 2742 
Q 959 2388 959 1747 
Q 959 1106 1268 751 
Q 1578 397 2138 397 
Q 2388 397 2633 464 
Q 2878 531 3122 666 
L 3122 134 
Q 2881 22 2623 -34 
Q 2366 -91 2075 -91 
Q 1284 -91 818 406 
Q 353 903 353 1747 
Q 353 2603 823 3093 
Q 1294 3584 2113 3584 
Q 2378 3584 2631 3529 
Q 2884 3475 3122 3366 
z
" transform="scale(0.015625)"/>
       <path id="DejaVuSans-68" d="M 3513 2113 
L 3513 0 
L 2938 0 
L 2938 2094 
Q 2938 2591 2744 2837 
Q 2550 3084 2163 3084 
Q 1697 3084 1428 2787 
Q 1159 2491 1159 1978 
L 1159 0 
L 581 0 
L 581 4863 
L 1159 4863 
L 1159 2956 
Q 1366 3272 1645 3428 
Q 1925 3584 2291 3584 
Q 2894 3584 3203 3211 
Q 3513 2838 3513 2113 
z
" transform="scale(0.015625)"/>
      </defs>
      <use xlink:href="#DejaVuSans-48"/>
      <use xlink:href="#DejaVuSans-69" x="75.195312"/>
      <use xlink:href="#DejaVuSans-67" x="102.978516"/>
      <use xlink:href="#DejaVuSans-75" x="166.455078"/>
      <use xlink:href="#DejaVuSans-63" x="229.833984"/>
      <use xlink:href="#DejaVuSans-68" x="284.814453"/>
      <use xlink:href="#DejaVuSans-69" x="348.193359"/>
      <use xlink:href="#DejaVuSans-20" x="375.976562"/>
      <use xlink:href="#DejaVuSans-48" x="407.763672"/>
      <use xlink:href="#DejaVuSans-75" x="482.958984"/>
      <use xlink:href="#DejaVuSans-72" x="546.337891"/>
      <use xlink:href="#DejaVuSans-73" x="587.451172"/>
      <use xlink:href="#DejaVuSans-74" x="639.550781"/>
     </g>
    </g>
    <g id="line2d_36">
     <path d="M 81.9 112.634938 
L 91.9 112.634938 
L 101.9 112.634938 
" style="fill: none; stroke: #ff0000; stroke-width: 1.5; stroke-linecap: square"/>
    </g>
    <g id="text_19">
     <!-- Whittle Hurst -->
     <g transform="translate(109.9 116.134938)scale(0.1 -0.1)">
      <defs>
       <path id="DejaVuSans-57" d="M 213 4666 
L 850 4666 
L 1831 722 
L 2809 4666 
L 3519 4666 
L 4500 722 
L 5478 4666 
L 6119 4666 
L 4947 0 
L 4153 0 
L 3169 4050 
L 2175 0 
L 1381 0 
L 213 4666 
z
" transform="scale(0.015625)"/>
      </defs>
      <use xlink:href="#DejaVuSans-57"/>
      <use xlink:href="#DejaVuSans-68" x="98.876953"/>
      <use xlink:href="#DejaVuSans-69" x="162.255859"/>
      <use xlink:href="#DejaVuSans-74" x="190.039062"/>
      <use xlink:href="#DejaVuSans-74" x="229.248047"/>
      <use xlink:href="#DejaVuSans-6c" x="268.457031"/>
      <use xlink:href="#DejaVuSans-65" x="296.240234"/>
      <use xlink:href="#DejaVuSans-20" x="357.763672"/>
      <use xlink:href="#DejaVuSans-48" x="389.550781"/>
      <use xlink:href="#DejaVuSans-75" x="464.746094"/>
      <use xlink:href="#DejaVuSans-72" x="528.125"/>
      <use xlink:href="#DejaVuSans-73" x="569.238281"/>
      <use xlink:href="#DejaVuSans-74" x="621.337891"/>
     </g>
    </g>
    <g id="line2d_37">
     <path d="M 81.9 127.313063 
L 91.9 127.313063 
L 101.9 127.313063 
" style="fill: none; stroke: #ff7f0e; stroke-width: 1.5; stroke-linecap: square"/>
    </g>
    <g id="text_20">
     <!-- 1D CNN Hurst -->
     <g transform="translate(109.9 130.813063)scale(0.1 -0.1)">
      <defs>
       <path id="DejaVuSans-43" d="M 4122 4306 
L 4122 3641 
Q 3803 3938 3442 4084 
Q 3081 4231 2675 4231 
Q 1875 4231 1450 3742 
Q 1025 3253 1025 2328 
Q 1025 1406 1450 917 
Q 1875 428 2675 428 
Q 3081 428 3442 575 
Q 3803 722 4122 1019 
L 4122 359 
Q 3791 134 3420 21 
Q 3050 -91 2638 -91 
Q 1578 -91 968 557 
Q 359 1206 359 2328 
Q 359 3453 968 4101 
Q 1578 4750 2638 4750 
Q 3056 4750 3426 4639 
Q 3797 4528 4122 4306 
z
" transform="scale(0.015625)"/>
       <path id="DejaVuSans-4e" d="M 628 4666 
L 1478 4666 
L 3547 763 
L 3547 4666 
L 4159 4666 
L 4159 0 
L 3309 0 
L 1241 3903 
L 1241 0 
L 628 0 
L 628 4666 
z
" transform="scale(0.015625)"/>
      </defs>
      <use xlink:href="#DejaVuSans-31"/>
      <use xlink:href="#DejaVuSans-44" x="63.623047"/>
      <use xlink:href="#DejaVuSans-20" x="140.625"/>
      <use xlink:href="#DejaVuSans-43" x="172.412109"/>
      <use xlink:href="#DejaVuSans-4e" x="242.236328"/>
      <use xlink:href="#DejaVuSans-4e" x="317.041016"/>
      <use xlink:href="#DejaVuSans-20" x="391.845703"/>
      <use xlink:href="#DejaVuSans-48" x="423.632812"/>
      <use xlink:href="#DejaVuSans-75" x="498.828125"/>
      <use xlink:href="#DejaVuSans-72" x="562.207031"/>
      <use xlink:href="#DejaVuSans-73" x="603.320312"/>
      <use xlink:href="#DejaVuSans-74" x="655.419922"/>
     </g>
    </g>
    <g id="line2d_38">
     <path d="M 81.9 141.991187 
L 91.9 141.991187 
L 101.9 141.991187 
" style="fill: none; stroke: #1f77b4; stroke-width: 1.5; stroke-linecap: square"/>
    </g>
    <g id="text_21">
     <!-- LSTM Hurst -->
     <g transform="translate(109.9 145.491187)scale(0.1 -0.1)">
      <defs>
       <path id="DejaVuSans-54" d="M -19 4666 
L 3928 4666 
L 3928 4134 
L 2272 4134 
L 2272 0 
L 1638 0 
L 1638 4134 
L -19 4134 
L -19 4666 
z
" transform="scale(0.015625)"/>
       <path id="DejaVuSans-4d" d="M 628 4666 
L 1569 4666 
L 2759 1491 
L 3956 4666 
L 4897 4666 
L 4897 0 
L 4281 0 
L 4281 4097 
L 3078 897 
L 2444 897 
L 1241 4097 
L 1241 0 
L 628 0 
L 628 4666 
z
" transform="scale(0.015625)"/>
      </defs>
      <use xlink:href="#DejaVuSans-4c"/>
      <use xlink:href="#DejaVuSans-53" x="55.712891"/>
      <use xlink:href="#DejaVuSans-54" x="119.189453"/>
      <use xlink:href="#DejaVuSans-4d" x="180.273438"/>
      <use xlink:href="#DejaVuSans-20" x="266.552734"/>
      <use xlink:href="#DejaVuSans-48" x="298.339844"/>
      <use xlink:href="#DejaVuSans-75" x="373.535156"/>
      <use xlink:href="#DejaVuSans-72" x="436.914062"/>
      <use xlink:href="#DejaVuSans-73" x="478.027344"/>
      <use xlink:href="#DejaVuSans-74" x="530.126953"/>
     </g>
    </g>
   </g>
  </g>
 </g>
 <defs>
  <clipPath id="pb06a669f89">
   <rect x="72.9" y="40.824" width="451.98" height="261.954"/>
  </clipPath>
 </defs>
</svg>
